<?xml version="1.0" encoding="UTF-8" standalone="no"?>
<!-- Creator: CorelDRAW 2019 (64-Bit) -->

<svg
   xml:space="preserve"
   width="8.26772in"
   height="11.6929in"
   version="1.1"
   style="shape-rendering:geometricPrecision; text-rendering:geometricPrecision; image-rendering:optimizeQuality; fill-rule:evenodd; clip-rule:evenodd"
   viewBox="0 0 8267.72 11692.91"
   id="svg1241"
   sodipodi:docname="NekoHackerPapercraft-sera.svg"
   inkscape:export-filename="NekoHackerPapercraft-sera.png"
   inkscape:export-xdpi="150"
   inkscape:export-ydpi="150"
   inkscape:version="1.3 (0e150ed6c4, 2023-07-21)"
   xmlns:inkscape="http://www.inkscape.org/namespaces/inkscape"
   xmlns:sodipodi="http://sodipodi.sourceforge.net/DTD/sodipodi-0.dtd"
   xmlns="http://www.w3.org/2000/svg"
   xmlns:svg="http://www.w3.org/2000/svg"><sodipodi:namedview
   id="namedview1243"
   pagecolor="#ffffff"
   bordercolor="#666666"
   borderopacity="1.0"
   inkscape:showpageshadow="2"
   inkscape:pageopacity="0.0"
   inkscape:pagecheckerboard="0"
   inkscape:deskcolor="#d1d1d1"
   inkscape:document-units="in"
   showgrid="false"
   inkscape:zoom="1.0973362"
   inkscape:cx="340.36971"
   inkscape:cy="630.1624"
   inkscape:window-width="1904"
   inkscape:window-height="1006"
   inkscape:window-x="8"
   inkscape:window-y="34"
   inkscape:window-maximized="1"
   inkscape:current-layer="Layer_x0020_1"
   inkscape:export-bgcolor="#ffffffff" />&#10; <defs
   id="defs1049">&#10;  <style
   type="text/css"
   id="style1047">&#10;   <![CDATA[
    .str6 {stroke:#FFB8CE;stroke-width:19.69;stroke-miterlimit:2.61313}
    .str4 {stroke:#373435;stroke-width:7.87;stroke-miterlimit:2.61313}
    .str2 {stroke:#55BFF5;stroke-width:7.87;stroke-miterlimit:2.61313}
    .str1 {stroke:#373435;stroke-width:6.94;stroke-miterlimit:2.61313}
    .str5 {stroke:#373435;stroke-width:3.94;stroke-miterlimit:2.61313}
    .str7 {stroke:#373435;stroke-width:3;stroke-miterlimit:2.61313}
    .str3 {stroke:#F58634;stroke-width:3;stroke-miterlimit:2.61313}
    .str0 {stroke:black;stroke-width:3;stroke-miterlimit:2.61313}
    .fil0 {fill:none}
    .fil9 {fill:#FEFEFE}
    .fil13 {fill:#FEFEFE}
    .fil19 {fill:whitesmoke}
    .fil14 {fill:#EBECEC}
    .fil12 {fill:#373435}
    .fil11 {fill:#373435}
    .fil16 {fill:#55BFF5}
    .fil5 {fill:#79C4AD}
    .fil7 {fill:#8AD5F8}
    .fil18 {fill:#9E545C}
    .fil4 {fill:#B09E86}
    .fil3 {fill:#F6BFC2}
    .fil2 {fill:#F9DAB8}
    .fil1 {fill:#FEF2DC}
    .fil8 {fill:#FFAAB6}
    .fil15 {fill:#FFB8CE}
    .fil6 {fill:#FFFCE9}
    .fil17 {fill:white}
    .fil10 {fill:#55BFF5;fill-rule:nonzero}
   ]]>&#10;  </style>&#10; </defs>&#10; <g
   id="Layer_x0020_1"
   inkscape:label="Layer 1">&#10;  <metadata
   id="CorelCorpID_0Corel-Layer" />&#10;  <path
   class="fil0 str0"
   d="M995.88 7189.66l497.04 0m-1248.97 0l497.04 0m-165.68 -3785.15l497.04 0m-497.04 -573.51l497.04 0m3453.79 5263.52l-2587.15 0m2077.37 -1822.48l509.78 0m-1682.29 0l790.17 0m-1695.03 0l522.53 0m2064.63 -1236.22l-2587.15 0m2587.15 662.72l0 -344.11m-3874.36 4728.25l0 -688.21m548.02 1822.48l-548.02 0 0 -688.21m1210.74 688.21l-280.38 0m356.85 -1822.48l0 1822.48m2587.15 0l0 -1822.48m344.1 1822.48l-267.63 0m1210.74 -688.21l0 688.21 -560.76 0m101.96 -1822.48l458.81 0 0 675.46m-5161.57 -675.46l458.81 0m369.59 0l458.81 0 2587.15 0 446.06 0m-3033.21 -815.65l0 356.85m2587.15 -356.85l0 356.85m-1618.56 -5722.33l152.93 0 -152.93 0zm509.78 0l140.19 0 -140.19 0zm-1478.37 2141.09l0 344.11 0 -344.11zm0 1618.56l0 433.32 0 -433.32zm2587.15 0l0 433.32 0 -433.32zm-4282.19 -420.57l497.04 0m254.89 0l497.04 0m-1248.97 1299.95l497.04 0m254.89 0l497.04 0"
   id="path1052" />&#10;  <g
   id="head">&#10;   <path
   class="fil0 str0"
   d="M3761.46 10248.37c25.49,-89.21 25.49,-203.91 0,-356.85 89.21,101.96 140.19,242.15 152.93,369.59l267.63 50.98c-12.74,624.48 0,892.12 -216.65,917.61 76.47,63.72 140.19,76.47 203.91,63.72 -38.23,63.72 -76.46,89.21 -140.19,114.7 114.7,140.19 497.04,242.15 497.04,-191.17l76.47 0 305.87 280.38 904.87 0 0 -280.38 280.38 -178.43 0 -1452.89 -280.38 -191.17 0 -280.38 -981.33 0 -305.87 280.38 0 -458.8c89.21,38.23 191.17,12.74 191.17,-76.47l0 -191.17c0,-101.96 -101.96,-127.45 -191.17,-89.21l0 -1172.5c76.47,38.23 178.43,25.49 191.17,-89.21l0 -254.89c0,-114.7 -101.96,-127.44 -191.17,-89.21l0 -1274.46c76.47,38.23 178.43,38.23 191.17,-76.47l0 -191.17c0,-89.21 -89.21,-127.44 -191.17,-76.47l0 -318.61 -12.74 -1172.5c0,-305.87 -165.68,-649.98 -446.06,-649.98l-509.78 0 0 -649.98 -89.21 0 0 76.47 -458.81 0 0 -76.47 -101.96 0 0 649.98 -497.04 0c-293.13,0 -458.81,344.1 -458.81,649.98l-12.74 1172.5 0 318.61c-101.96,-50.98 -191.17,-12.74 -203.91,76.47l0 191.17c25.49,114.7 114.7,114.7 203.91,76.47l0 1274.46c-89.21,-38.23 -191.17,-25.49 -203.91,89.21l0 254.89c25.49,114.7 127.44,127.44 203.91,89.21l0 1172.5c-89.21,-38.24 -203.91,-12.74 -203.91,89.21l0 191.17c12.74,89.21 101.96,114.7 203.91,76.47l0 458.8 -305.87 -280.38 -981.34 0 0 280.38 -280.38 191.17 0 1452.89 280.38 178.43 0 280.38 904.87 0 305.87 -280.38 76.47 0c0,433.32 382.34,331.36 497.04,191.17 -50.98,-25.49 -101.96,-50.98 -140.19,-114.7 63.72,12.74 140.19,0 203.91,-63.72 -216.66,-25.49 -216.66,-293.13 -216.66,-917.61l267.64 -50.98c25.49,-127.44 76.47,-267.63 165.68,-369.59 -25.49,152.94 -38.24,267.64 0,356.85 356.85,-38.23 713.7,-38.23 1045.06,0l0 0z"
   id="path1054" />&#10;   <path
   class="fil1"
   d="M4602.6 6272.05l0 -1236.22c12.74,-1554.84 -12.75,-1758.76 -522.53,-1898.95l-1695.04 0c-446.06,127.44 -522.53,191.17 -522.53,1898.95l0 1236.22 2740.09 0z"
   id="path1056" />&#10;   <path
   class="fil2"
   d="M2818.36 4449.57c0,0 0,0 0,0 0,191.17 -76.47,344.1 -165.68,344.1 0,0 0,0 0,0 -89.21,0 -178.43,-152.93 -178.43,-344.1 0,0 0,0 0,0 0,-191.17 89.21,-344.11 178.43,-344.11 0,0 0,0 0,0 89.21,0 165.68,152.94 165.68,344.11zm1172.5 0c0,0 0,0 0,0 0,191.17 -76.47,344.1 -165.68,344.1 0,0 0,0 0,0 -101.96,0 -178.42,-152.93 -178.42,-344.1 0,0 0,0 0,0 0,-191.17 76.46,-344.11 178.42,-344.11 0,0 0,0 0,0 89.21,0 165.68,152.94 165.68,344.11z"
   id="path1058" />&#10;   <path
   class="fil3"
   d="M2474.25 4780.93c0,50.98 -76.46,101.96 -152.93,101.96 0,0 0,0 0,0 0,0 0,0 0,0 -89.21,0 -152.94,-50.98 -152.94,-101.96 0,-50.98 63.72,-89.21 152.94,-89.21 0,0 0,0 0,0 0,0 0,0 0,0 76.47,0 152.93,38.24 152.93,89.21zm1809.73 0c0,50.98 -63.72,101.96 -152.93,101.96 0,0 0,0 0,0 0,0 0,0 0,0 -63.72,0 -127.44,-50.98 -127.44,-101.96 0,-50.98 63.72,-89.21 127.44,-89.21 0,0 0,0 0,0 0,0 0,0 0,0 89.21,0 152.93,38.24 152.93,89.21z"
   id="path1060" />&#10;   <path
   class="fil4"
   d="M1862.51 6272.05l599 0 12.74 -25.49 356.85 0 12.74 25.49 790.17 0 12.75 -25.49 356.85 0 12.74 25.49 586.25 0 0 3045.96 1287.2 0 0 1975.42 -1287.2 0c-38.24,407.83 -458.81,407.83 -700.95,76.47l89.21 -38.24 -203.91 -165.68c331.36,-25.49 318.61,-140.19 331.36,-790.17 -662.72,-114.7 -1108.78,-76.47 -1758.76,0 0,802.91 25.49,764.67 318.61,790.17 -63.72,63.72 -127.44,140.19 -191.17,178.43l89.21 25.49c-242.15,331.36 -675.46,318.61 -713.7,-76.47l-1299.95 0 0 -1975.42 1287.21 0 12.74 -3045.96z"
   id="path1062" />&#10;   <path
   class="fil5"
   d="M4602.6 8617.06l-2752.83 0 0 280.38 2752.83 0 0 -280.38zm-3160.66 700.95l0 930.36c-203.92,-216.66 -293.13,-611.74 -280.38,-930.36l280.38 0zm3581.23 0l0 930.36c203.91,-216.66 280.38,-611.74 280.38,-930.36l-280.38 0z"
   id="path1064" />&#10;   <path
   class="fil6"
   d="M1938.98 10592.47c-369.59,-178.43 -305.87,382.34 0,497.04l0 -497.04zm2587.15 0c356.85,-178.43 305.87,382.34 0,497.04l0 -497.04z"
   id="path1066" />&#10;   <path
   id="rambut"
   class="fil7 str1"
   d="M1938.98 6272.05l-76.47 0 -2.85 681.75 -1.97 471.87 -4.76 1136.34 -0.23 55.04 -2.93 0 0 280.38 1.76 0 -0.23 55.44 -1.5 359.84 -0.02 5.29 -407.83 0 -280.38 0 -509.79 0 -89.21 0 0 137.3 0 1704.88 0 133.24 89.21 0 1127.32 0 83.42 0c38.23,395.08 471.55,407.83 713.7,76.47l-89.21 -25.49c63.72,-38.24 127.45,-114.7 191.17,-178.43 -293.13,-25.49 -318.61,12.74 -318.61,-790.17 649.98,-76.47 1096.04,-114.7 1758.76,0 -12.74,649.97 0,764.67 -331.36,790.17l203.91 165.68 -89.21 38.24c242.15,331.36 662.72,331.36 700.95,-76.47l83.42 0 1127.31 0 76.47 0 0 -125.13 0 -1721.68 0 -128.61 -76.47 0 -509.78 0 -280.38 0 -413.62 0 -6.95 0 0 -365.18 0 -55.39 0 -280.38 0 -55.1 0 -1136.27 0 -471.76 0 -681.88 -76.47 0 -509.78 0 -12.74 -25.49 -356.85 0 -12.75 25.49 -790.17 0 -12.74 -25.49 -356.85 0 -12.74 25.49 -522.53 0zm2587.15 4320.43c356.85,-178.43 305.87,382.34 0,497.04l0 -497.04zm-2587.15 497.04c-305.87,-114.7 -369.59,-675.46 0,-497.04l0 497.04z" />&#10;   <path
   class="fil8"
   d="M3016.81 4723.7c0,127.85 95.89,207.76 223.74,207.76 111.87,0 207.76,-79.91 207.76,-207.76 0,-47.94 -431.5,-47.94 -431.5,0z"
   id="path1069" />&#10;   <path
   class="fil9"
   d="M3094.41 4695.33c88.39,48.32 187.92,48.32 276.31,0 -78.18,-10.11 -198.13,-10.11 -276.31,0z"
   id="path1071" />&#10;   <polygon
   class="fil10 str2"
   points="5195.22,9739.28 4627.85,9806.5 5195.22,9725.86 "
   id="polygon1073" />&#10;   <polygon
   class="fil10 str2"
   points="5195.22,9621.53 4728.84,9498.98 5195.22,9607.16 "
   id="polygon1075" />&#10;   <polygon
   class="fil10 str2"
   points="5195.22,9843.11 4840.14,10094.71 5195.22,9829.57 "
   id="polygon1077" />&#10;   <polygon
   class="fil10 str2"
   points="5195.22,9573.19 5661.59,9450.65 5195.22,9558.82 "
   id="polygon1079" />&#10;   <polygon
   class="fil10 str2"
   points="5193.28,9671.61 5763.86,9665.79 5194.53,9658.35 "
   id="polygon1081" />&#10;   <polygon
   class="fil10 str2"
   points="5195.22,9787.43 5513.94,10078.14 5195.22,9775.48 "
   id="polygon1083" />&#10;   <polyline
   class="fil0 str3"
   points="5144.24,9939.34 5195.22,9913.85 5195.22,9557 5169.73,9544.26 5144.24,9544.26 "
   id="polyline1085" />&#10;   <path
   class="fil0 str3"
   d="M664.52 10069.94l-12.75 0 -25.49 12.74 0 433.32 25.49 12.74 12.75 12.74m5136.07 -471.55l12.74 0 25.49 12.74 0 433.32 -25.49 12.74 -12.74 12.74m-930.36 662.72l0 12.74 12.74 25.49 356.85 0 12.74 -25.49 12.74 -12.74m-3670.44 0l-12.74 12.74 -12.74 25.49 -344.11 0 -25.49 -25.49 0 -12.74m293.13 -1784.24l0 -25.49 -12.74 -25.49 -356.85 0 -12.74 25.49 -12.74 25.49m3874.36 0l0 -25.49 12.75 -25.49 356.85 0 12.74 25.49 0 25.49m-2294.03 -6206.63l89.21 89.21 178.43 0 89.21 -89.21m203.91 3084.19l12.74 -25.49 12.75 -25.49 356.85 0 12.74 25.49 0 25.49m-1567.59 0l12.74 -25.49 12.74 -25.49 356.85 0 12.74 25.49 0 25.49m764.68 -637.23c0,0 0,0 0,0 0,203.91 -165.68,356.85 -369.59,356.85 0,0 0,0 0,0 -203.91,0 -369.59,-152.93 -369.59,-356.85 0,0 0,0 0,0 0,0 0,0 0,0 0,-203.91 165.68,-369.59 369.59,-369.59 0,0 0,0 0,0 203.91,0 369.59,165.68 369.59,369.59 0,0 0,0 0,0z"
   id="path1087" />&#10;   <polyline
   class="fil0 str3"
   points="2834.82,9325.27 2785.76,9274.29 2098.93,9274.29 2074.4,9299.78 2074.4,9325.27 "
   id="polyline1089" />&#10;   <polyline
   class="fil0 str3"
   points="3630.3,9325.27 3679.35,9274.29 4366.19,9274.29 4390.71,9299.78 4390.71,9325.27 "
   id="polyline1091" />&#10;  </g>&#10;  <g
   id="nekomimi">&#10;   <path
   class="fil11 str1"
   d="M3027.37 1013.69c-279.13,-832.43 -558.26,-832.43 -837.39,0l837.39 0z"
   id="path1094" />&#10;   <path
   class="fil7 str1"
   d="M2308.41 1013.69l600.53 0c-30.39,-127.67 -107.76,-303.24 -178.87,-409.26 -20.41,-30.44 -78.32,-109.17 -121.4,-109.17 -43.08,-0 -100.98,78.73 -121.4,109.17 -71.1,106.02 -148.48,281.59 -178.87,409.26z"
   id="path1096" />&#10;   <g
   id="g1100">&#10;    <path
   class="fil12 str1"
   d="M2416.81 932.89l383.74 0c-35.04,-99.64 -86.89,-207.87 -137.57,-283.45 -9.47,-14.13 -34.84,-48.45 -54.29,-66.13 -19.46,17.68 -44.82,52 -54.29,66.13 -50.69,75.58 -102.54,183.81 -137.58,283.45z"
   id="path1098" />&#10;   </g>&#10;   <rect
   class="fil0 str4"
   x="2260.01"
   y="1013.69"
   width="677.08"
   height="220.11"
   id="rect1102" />&#10;   <path
   class="fil11 str1"
   d="M3027.37 1453.92c-279.13,832.43 -558.26,832.43 -837.39,0l837.39 0z"
   id="path1104" />&#10;   <path
   class="fil7 str1"
   d="M2308.41 1453.92l600.53 0c-30.39,127.67 -107.76,303.24 -178.87,409.26 -20.41,30.44 -78.32,109.17 -121.4,109.17 -43.08,0 -100.98,-78.73 -121.4,-109.17 -71.1,-106.02 -148.48,-281.59 -178.87,-409.26z"
   id="path1106" />&#10;   <g
   id="g1110">&#10;    <path
   class="fil12 str1"
   d="M2416.81 1534.72c35.04,99.64 86.89,207.87 137.58,283.45 9.47,14.13 34.83,48.45 54.29,66.13 19.45,-17.68 44.82,-52 54.29,-66.13 50.69,-75.58 102.54,-183.81 137.57,-283.45l-383.74 0z"
   id="path1108" />&#10;   </g>&#10;   <rect
   class="fil0 str4"
   x="2260.01"
   y="1233.8"
   width="677.08"
   height="220.11"
   id="rect1112" />&#10;   <path
   class="fil11 str1"
   d="M4277.37 1013.69c-279.13,-832.43 -558.26,-832.43 -837.39,0l837.39 0z"
   id="path1114" />&#10;   <path
   class="fil7 str1"
   d="M3558.41 1013.69l600.53 0c-30.39,-127.67 -107.76,-303.24 -178.87,-409.26 -20.41,-30.44 -78.32,-109.17 -121.4,-109.17 -43.08,-0 -100.98,78.73 -121.4,109.17 -71.1,106.02 -148.48,281.59 -178.87,409.26z"
   id="path1116" />&#10;   <g
   id="g1120">&#10;    <path
   class="fil12 str1"
   d="M3666.81 932.89l383.74 0c-35.04,-99.64 -86.89,-207.87 -137.57,-283.45 -9.47,-14.13 -34.84,-48.45 -54.29,-66.13 -19.46,17.68 -44.82,52 -54.29,66.13 -50.69,75.58 -102.54,183.81 -137.58,283.45z"
   id="path1118" />&#10;   </g>&#10;   <rect
   class="fil0 str4"
   x="3510.01"
   y="1013.69"
   width="677.08"
   height="220.11"
   id="rect1122" />&#10;   <path
   class="fil11 str1"
   d="M4277.37 1453.92c-279.13,832.43 -558.26,832.43 -837.39,0l837.39 0z"
   id="path1124" />&#10;   <path
   class="fil7 str1"
   d="M3558.41 1453.92l600.53 0c-30.39,127.67 -107.76,303.24 -178.87,409.26 -20.41,30.44 -78.32,109.17 -121.4,109.17 -43.08,0 -100.98,-78.73 -121.4,-109.17 -71.1,-106.02 -148.48,-281.59 -178.87,-409.26z"
   id="path1126" />&#10;   <g
   id="g1130">&#10;    <path
   class="fil12 str1"
   d="M3666.81 1534.72c35.04,99.64 86.89,207.87 137.58,283.45 9.47,14.13 34.83,48.45 54.29,66.13 19.45,-17.68 44.82,-52 54.29,-66.13 50.69,-75.58 102.54,-183.81 137.57,-283.45l-383.74 0z"
   id="path1128" />&#10;   </g>&#10;   <rect
   class="fil0 str4"
   x="3510.01"
   y="1233.8"
   width="677.08"
   height="220.11"
   id="rect1132" />&#10;  </g>&#10;  <g
   id="ponytail">&#10;   <path
   class="fil7"
   d="M6600.1 1810.04c156.99,-11.97 344.96,-27.54 491.41,58.56l0.83 0.49 0.81 0.51c400.1,249.68 565.29,774.66 353.98,1202l-2.13 4.31 -2.68 3.99c-98.06,145.98 -194.43,333.9 -142.77,514.33 15.21,53.14 40.46,98.9 66.43,147.17 26.61,49.47 53.39,102.24 50.81,160.06 -0.71,15.87 -3.59,31.46 -8.6,46.52 -16.14,53.35 -54.38,97.67 -90.37,138.91 -15.74,18.04 -63.13,69.68 -64.52,94.1 -0.49,8.62 8.93,19.04 14.3,24.54l261.11 267.35 -342.24 -150.07c-86.82,-38.07 -167.35,-95.74 -187.3,-194.19 -11.03,-54.42 -0.8,-108.87 14.58,-161.3l1.76 -6.01 2.77 -5.62c34.31,-69.72 54.48,-93.1 61.74,-153.98 -236.39,-171.61 -316.82,-409.8 -209.73,-690.24l1.08 -2.82 1.31 -2.72c58.73,-122.24 101.77,-264.58 71.13,-400.56 -22.21,-98.54 -78.15,-146.91 -148.8,-216.85 -107.82,-106.73 -194.79,-194.13 -194.79,-319.38 0,-120.16 -0.11,-231.5 -0.11,-359.08z"
   id="path1135" />&#10;   <path
   class="fil0 str5"
   d="M7384.01 3040.57l0.06 -0.12c194.77,-394.58 41.94,-880.57 -328.11,-1111.19l-0.2 -0.12c-109.93,-64.91 -256.02,-62.66 -385.32,-53.83 0.02,97.93 0.1,195.86 0.1,293.8 0,20.97 3.35,41.17 10.11,61.02 25.98,76.3 107.57,152.68 163.83,208.38 80.2,79.39 141.89,135.81 167.93,251.37 34.36,152.47 -10.38,309 -76.33,446.44l-0.11 0.26c-94.82,247.78 -27.7,453.51 185.37,608.2l33.4 24.25 -4.89 40.98c-8.81,73.91 -36.79,112.34 -68.48,176.72l-0.09 0.18 -0.06 0.19c-11.84,40.36 -21.65,85.5 -13.14,127.54 14.91,73.56 82.7,115.73 146.61,143.76l10.93 4.79 -8.34 -8.54c-20.55,-21.04 -35.95,-47.02 -34.2,-77.69 2.82,-49.45 50.1,-100.08 81.75,-136.33 27.88,-31.95 63.57,-71.82 76.04,-113.03l0.28 -0.91 0.3 -0.91c2.96,-8.9 4.66,-18.11 5.08,-27.48 1.86,-41.74 -23.23,-87.81 -42.48,-123.6 -28.43,-52.84 -55.46,-102.98 -72.11,-161.13 -58.19,-203.24 40.94,-407.53 152,-572.9l0.07 -0.11z"
   id="path1137" />&#10;   <path
   class="fil0 str2"
   d="M7148.07 3840.06c16.69,-73.31 17.07,-192.14 1.17,-356.49"
   id="path1139" />&#10;   <path
   class="fil0 str2"
   d="M7026.57 2808.14c42.81,-179.3 28.47,-394.51 -43.04,-645.63"
   id="path1141" />&#10;   <rect
   class="fil0 str4"
   transform="matrix(2.94687E-14 0.851799 -1.11268 2.25595E-14 6600.21 1813.94)"
   width="416.97"
   height="179.98"
   id="rect1143" />&#10;   <path
   class="fil7"
   d="M6199.8 1810.04c-156.99,-11.97 -344.96,-27.54 -491.41,58.56l-0.83 0.49 -0.81 0.51c-400.1,249.68 -565.29,774.66 -353.98,1202l2.13 4.31 2.68 3.99c98.06,145.98 194.43,333.9 142.77,514.33 -15.21,53.14 -40.46,98.9 -66.43,147.17 -26.61,49.47 -53.39,102.24 -50.81,160.06 0.71,15.87 3.59,31.46 8.6,46.52 16.14,53.35 54.38,97.67 90.37,138.91 15.74,18.04 63.13,69.68 64.52,94.1 0.49,8.62 -8.93,19.04 -14.3,24.54l-261.11 267.35 342.24 -150.07c86.82,-38.07 167.35,-95.74 187.3,-194.19 11.03,-54.42 0.8,-108.87 -14.58,-161.3l-1.76 -6.01 -2.77 -5.62c-34.31,-69.72 -54.48,-93.1 -61.74,-153.98 236.39,-171.61 316.82,-409.8 209.73,-690.24l-1.08 -2.82 -1.31 -2.72c-58.73,-122.24 -101.77,-264.58 -71.13,-400.56 22.21,-98.54 78.15,-146.91 148.8,-216.85 107.82,-106.73 194.79,-194.13 194.79,-319.38 0,-120.16 0.11,-231.5 0.11,-359.08z"
   id="path1145" />&#10;   <path
   class="fil0 str5"
   d="M5415.89 3040.57l-0.06 -0.12c-194.77,-394.58 -41.94,-880.57 328.11,-1111.19l0.2 -0.12c109.93,-64.91 256.02,-62.66 385.32,-53.83 -0.02,97.93 -0.1,195.86 -0.1,293.8 0,20.97 -3.35,41.17 -10.11,61.02 -25.98,76.3 -107.57,152.68 -163.83,208.38 -80.2,79.39 -141.89,135.81 -167.93,251.37 -34.36,152.47 10.38,309 76.33,446.44l0.11 0.26c94.82,247.78 27.7,453.51 -185.37,608.2l-33.4 24.25 4.89 40.98c8.81,73.91 36.79,112.34 68.48,176.72l0.09 0.18 0.06 0.19c11.84,40.36 21.65,85.5 13.14,127.54 -14.91,73.56 -82.7,115.73 -146.61,143.76l-10.93 4.79 8.34 -8.54c20.55,-21.04 35.95,-47.02 34.2,-77.69 -2.82,-49.45 -50.1,-100.08 -81.75,-136.33 -27.88,-31.95 -63.57,-71.82 -76.04,-113.03l-0.28 -0.91 -0.3 -0.91c-2.96,-8.9 -4.66,-18.11 -5.08,-27.48 -1.86,-41.74 23.23,-87.81 42.48,-123.6 28.43,-52.84 55.46,-102.98 72.11,-161.13 58.19,-203.24 -40.94,-407.53 -152,-572.9l-0.07 -0.11z"
   id="path1147" />&#10;   <path
   class="fil0 str2"
   d="M5651.83 3840.06c-16.69,-73.31 -17.07,-192.14 -1.17,-356.49"
   id="path1149" />&#10;   <path
   class="fil0 str2"
   d="M5773.33 2808.14c-42.81,-179.3 -28.47,-394.51 43.04,-645.63"
   id="path1151" />&#10;   <rect
   class="fil0 str4"
   transform="matrix(-2.94687E-14 0.851799 1.11268 2.25595E-14 6199.69 1813.94)"
   width="416.97"
   height="179.98"
   id="rect1153" />&#10;  </g>&#10;  <g
   id="arm">&#10;   <polygon
   class="fil1"
   points="486.09,3117.76 486.09,5303.46 1148.81,5303.46 1148.81,3117.76 "
   id="polygon1156" />&#10;   <polygon
   class="fil1"
   points="486.09,3125.11 486.09,932.06 1148.81,932.06 1148.81,3125.11 "
   id="polygon1158" />&#10;   <polygon
   class="fil13"
   points="486.09,1296.63 486.09,4903.36 1148.81,4903.36 1148.81,1296.63 "
   id="polygon1160" />&#10;   <polygon
   class="fil14"
   points="486.09,1296.63 486.09,1488.72 1148.81,1488.72 1148.81,1296.63 "
   id="polygon1162" />&#10;   <polygon
   class="fil14"
   points="486.09,4711.27 486.09,4903.36 1148.81,4903.36 1148.81,4711.27 "
   id="polygon1164" />&#10;   <polygon
   class="fil0 str0"
   points="560.78,5244.61 713.72,5040.7 802.93,5244.61 904.89,5040.7 1057.82,5244.61 1057.82,975.17 904.89,1191.83 802.93,975.17 713.72,1191.83 560.78,975.17 "
   id="polygon1166" />&#10;   <rect
   class="fil12 str4"
   x="675.02"
   y="1488.72"
   width="268.56"
   height="3222.55"
   id="rect1168" />&#10;   <rect
   class="fil15 str4"
   x="760.75"
   y="1488.72"
   width="97.1"
   height="3222.55"
   id="rect1170" />&#10;  </g>&#10;  <g
   id="legs">&#10;   <path
   class="fil13"
   d="M154.73 5889.71l662.72 0 0 2587.16 -662.72 0 0 -2587.16zm764.68 0l649.98 0 0 2587.16 -649.98 0 0 -2587.16z"
   id="path1173" />&#10;   <path
   class="fil7"
   d="M167.69 7074.96l649.76 0 0 777.42 -649.76 0 0 -777.42zm751.72 0l649.98 0 0 777.42 -649.98 0 0 -777.42z"
   id="path1175" />&#10;   <path
   class="fil16"
   d="M166.17 7622.98l651.29 0 0 229.4 -651.29 0 0 -229.4zm753.24 0l649.98 0 0 229.4 -649.98 0 0 -229.4z"
   id="path1177" />&#10;   <path
   class="fil17"
   d="M154.73 6361.26l662.72 0 0 713.7 -662.72 0 0 -713.7zm764.68 0l649.98 0 0 713.7 -649.98 0 0 -713.7z"
   id="path1179" />&#10;   <path
   class="fil18"
   d="M243.94 6552.43l0 63.72 216.66 0 0 382.34c-127.44,-12.74 -203.91,-76.46 -216.66,-216.66l-76.47 0 0 407.83 76.47 0c76.47,-127.44 458.81,-101.96 497.04,0l76.47 0 0 -407.83 -76.47 0c-12.74,140.19 -89.21,203.91 -216.66,216.66l0 -382.34 216.66 0 0 -63.72 -497.04 0zm751.93 0l0 63.72 216.66 0 0 382.34c-127.44,-12.74 -203.91,-76.46 -216.66,-216.66l-76.47 0 0 407.83 76.47 0c76.47,-127.44 471.55,-101.96 497.04,0l76.47 0 0 -407.83 -76.47 0c-12.74,140.19 -89.21,203.91 -216.66,216.66l0 -382.34 216.66 0 0 -63.72 -497.04 0z"
   id="path1181" />&#10;   <rect
   class="fil19"
   x="167.48"
   y="6552.43"
   width="649.98"
   height="630.86"
   id="rect1183" />&#10;   <g
   id="g1193">&#10;    <path
   class="fil0 str6"
   d="M491.6 6770.72c162.45,-344.2 419.45,-4.89 0,0"
   id="path1185" />&#10;    <path
   class="fil0 str6"
   d="M493.32 6770.72c-162.45,-344.2 -419.45,-4.89 0,0"
   id="path1187" />&#10;    <path
   class="fil0 str6"
   d="M493.32 6770.72c48.58,47.66 117.72,88.21 207.4,121.67"
   id="path1189" />&#10;    <path
   class="fil0 str6"
   d="M492.46 6768.9c-48.58,47.66 -117.71,88.21 -207.39,121.67"
   id="path1191" />&#10;   </g>&#10;   <rect
   class="fil19"
   x="919.41"
   y="6552.43"
   width="649.98"
   height="630.86"
   id="rect1195" />&#10;   <g
   id="g1205">&#10;    <path
   class="fil0 str6"
   d="M1243.54 6770.72c162.45,-344.2 419.45,-4.89 0,0"
   id="path1197" />&#10;    <path
   class="fil0 str6"
   d="M1245.26 6770.72c-162.45,-344.2 -419.45,-4.89 0,0"
   id="path1199" />&#10;    <path
   class="fil0 str6"
   d="M1245.26 6770.72c48.58,47.66 117.72,88.21 207.4,121.67"
   id="path1201" />&#10;    <path
   class="fil0 str6"
   d="M1244.4 6768.9c-48.58,47.66 -117.71,88.21 -207.39,121.67"
   id="path1203" />&#10;   </g>&#10;   <path
   class="fil0 str0"
   d="M740.98 5966.18l-76.46 0c25.49,-63.72 38.23,-178.42 -89.21,-178.42l-101.96 0c-127.45,0 -114.7,114.7 -89.21,178.42l-140.19 0 0 2434.22 140.19 0c-50.98,101.96 0,191.17 89.21,203.91l101.96 0c89.21,0 127.44,-101.96 89.21,-203.91l76.46 0 0 -2434.22zm254.89 0l76.47 0c-25.49,-63.72 -38.24,-178.42 89.21,-178.42l101.96 0c127.44,0 114.7,114.7 89.21,178.42l140.19 0 0 2434.22 -140.19 0c50.98,101.96 0,191.17 -89.21,203.91l-101.96 0c-89.21,0 -127.45,-101.96 -89.21,-203.91l-76.47 0 0 -2434.22z"
   id="path1207" />&#10;   <rect
   class="fil11"
   x="995.88"
   y="6119.05"
   width="497.04"
   height="138.89"
   id="rect1209" />&#10;  </g>&#10;  <g
   id="body">&#10;   <path
   id="baju"
   class="fil13 str1"
   d="M6235.6 8465.8l110.68 184.48c-101.96,25.49 -152.93,89.21 -178.43,203.91l0 382.34c38.23,178.43 140.19,267.63 356.85,165.68l29.09 9.7 0.13 0.31 1210.85 414.52 174.57 59.77 0 -1593.08 -11.07 -19.17 -464.5 -804.38 -46.96 -81.32 -76.47 12.74 -140.19 -76.47 -25.49 25.49 -216.66 -127.44 0 -38.24 -497.04 -293.13 -38.23 25.49 -216.67 -127.45 0 -50.97 -127.44 -76.48 -25.49 -76.47 -94.35 -1.07 -925.22 -10.52 -101.96 -1.16 81.67 474.44c1.3,-0.18 2.61,-0.34 3.93,-0.49l78.59 466.61 103.46 614.28 484.3 12.74 2.93 1.23c-0.06,0.13 -0.13,0.25 -0.2,0.38l547.91 322.89c0,0 0.57,0.33 1.4,0.82z" />&#10;   <line
   class="fil0 str7"
   x1="6511.96"
   y1="9312.99"
   x2="6511.96"
   y2="8777.72"
   id="line1213" />&#10;   <path
   class="fil11"
   d="M6056.74 7999.02l8.63 -14.95c0.06,-0.54 7.99,-22.9 8.63,-24.12 0.15,-0.28 15.81,-18.69 16.35,-19.15l6.09 -10.54c1.17,-6.34 16.43,-32.93 7.77,-64.42 -0.63,-2.29 -3.2,-9.29 -2.2,-11.84 2.4,-6.12 5.27,-7.48 4.83,-14.09 -0.34,-5.2 -2.89,-6.87 -5.14,-11.26l-19.6 -11.31c-4.43,0.03 -4.3,-1.19 -9.16,0.17 -3.15,0.89 -5.64,1.9 -8.34,4.91 -3.51,3.91 -9.9,16.41 -12.93,21.65 -4.98,8.63 -23.31,37.47 -23.92,44.51 -0.58,6.7 2.35,12.08 9.92,16.55 17.42,10.28 25.67,15.85 37.6,-4.92 4.35,-7.56 8.68,-15.38 13.22,-22.81 1.77,3.05 0.83,15.62 0.18,20.11 -8.24,56.91 -70.61,88.03 -120.62,59.3 -43.61,-25.05 -51.96,-79.94 -25.99,-116.9 8.66,-12.33 23.02,-23.99 34,-27.5 -8.4,18.2 -21.68,29.57 -17.48,42.56 2.33,7.24 9.99,10.22 17.39,14.52 7.74,4.5 14.21,5.56 20.2,1.72 6.8,-4.35 21.6,-33.47 26.94,-42.72 6.65,-11.52 15.65,-21.87 12.91,-32.11 -1.31,-4.9 -2.62,-4.59 -4.76,-8.41l-19.18 -11.07c-6.51,0.13 -13.26,-3.15 -20.86,9.7 -3.37,5.7 -4.8,3.91 -9.94,5.5 -28.56,8.83 -52.26,28.78 -64.03,58.49 -1.81,4.57 -2.63,8.03 -3.96,12.54 -1.37,4.63 -5.11,7.33 -8.08,10.78 -16.84,19.59 -18.81,29.44 -27.28,50.36 13,7.28 29.71,12.55 42.83,14.25 5.67,0.74 4.82,0.67 8.06,5.25 8.94,12.65 13.22,13.9 19.83,20.48l1.79 2.24 16.2 9.35c5.75,0.37 16.43,6.97 31.65,8.13 5.51,0.42 5.2,-0.46 8.68,4.19 6.75,9 21.98,23.93 33.41,29.73 6.54,-3.8 10.69,-14.34 16.32,-18.87z"
   id="path1215" />&#10;   <polygon
   class="fil1"
   points="7077.57,7626.99 6009.06,7010.08 5918.98,7460.46 6727.77,7927.42 "
   id="polygon1217" />&#10;   <path
   class="fil0 str3"
   d="M6460.99 6891.52l-38.23 25.49 -216.66 -127.45 0 -50.98m994.08 586.25l-25.49 25.49 -216.66 -127.44 0 -38.23m89.21 2281.28l0 25.49 0 25.49 420.57 140.19 12.75 -12.74 12.74 -25.49"
   id="path1219" />&#10;   <polygon
   class="fil7"
   points="5922.58,7462.55 5918.98,7460.46 5918.56,7462.57 5088.09,7467.59 5098.52,7529.57 5906.13,7524.69 6677.88,7970.26 7035.41,8598.26 7035.75,9577.15 7097.81,9598.4 7097.49,8707.3 7097.44,8581.82 7080.98,8552.9 6725.83,7929.08 6727.77,7927.42 6723.47,7924.94 6695.02,7908.51 5951.04,7478.98 "
   id="polygon1221" />&#10;   <rect
   class="fil11"
   transform="matrix(-0.458453 -0.264688 0.231899 -0.401661 5981.08 8314.27)"
   width="51.87"
   height="1527.31"
   id="rect1223" />&#10;   <polygon
   class="fil11"
   points="6328.96,7734.62 6285.16,7709.33 6334.02,7608.87 6391.72,7642.19 "
   id="polygon1225" />&#10;   <polygon
   class="fil1"
   points="6328.09,7643.89 6338.5,7622.48 6377.69,7645.11 6364.32,7664.81 "
   id="polygon1227" />&#10;   <polygon
   class="fil1"
   points="6009.06,7010.08 5012.26,7026.52 5088.09,7467.59 5918.56,7462.57 5918.98,7460.46 "
   id="polygon1229" />&#10;   <path
   class="fil1"
   d="M6727.77 7927.42l-1.94 1.66 355.15 623.82 14.16 24.87 2.3 4.05 0.05 125.48 0.72 886.75c151.06,56.2 330.84,114.39 437.41,150.58l-11.53 -1313.93 -446.52 -803.72 -349.8 300.43z"
   id="path1231" />&#10;   <path
   class="fil0 str0"
   d="M6511.96 9313c-76.46,89.21 -254.89,63.72 -267.63,-89.21l0 -356.85c12.74,-152.94 191.17,-191.17 267.63,-89.21l-254.89 -446.06c38.23,114.7 -89.21,254.89 -216.66,165.68l-318.62 -178.43c-101.96,-63.72 -50.98,-242.15 76.47,-254.89l-535.28 -12.74 -89.21 -573.51c-89.21,63.72 -191.17,50.98 -216.66,-50.98l-38.23 -242.15c-12.74,-101.96 63.72,-165.68 178.43,-127.45l-63.72 -407.83 0 -203.91 535.28 -382.34 293.13 12.74 0 446.06 216.66 140.19 548.02 -904.87 25.49 25.49 254.89 -178.43 968.59 573.51 -38.24 293.13 38.24 25.49 -535.28 904.87 229.4 127.44 395.09 -216.66 140.19 254.89 -76.47 649.98 -178.43 101.96 12.75 1452.89 -318.62 178.43 -892.12 -305.87 -140.19 -331.36z"
   id="path1233" />&#10;   <path
   class="fil0 str0"
   d="M7862.9 9771.8l-382.34 -127.44m-433.32 -152.93l-535.28 -178.43m-254.89 -981.34l1083.29 -930.35m-1261.72 -739.19l127.44 76.47m254.89 152.93l497.04 293.13m242.15 140.19l140.19 76.47 509.78 917.61 -1338.19 458.81m-713.7 -713.7l280.38 -1401.91 -1045.06 -12.74m63.72 407.83l76.47 420.57m1618.56 -1580.33l879.38 522.53"
   id="path1235" />&#10;   <polygon
   class="fil14"
   points="6650.94,7003.54 6600.78,7224.03 6617.85,7209.24 6766.07,7071.44 "
   id="polygon1237" />&#10;  </g>&#10; </g>&#10;</svg>
