<?xml version="1.0" encoding="UTF-8" standalone="no"?>
<!-- Created with Inkscape (http://www.inkscape.org/) -->

<svg
   width="210mm"
   height="297mm"
   viewBox="0 0 210 297"
   version="1.1"
   id="svg5"
   inkscape:version="1.2.2 (b0a8486541, 2022-12-01)"
   sodipodi:docname="contours1.svg"
   xmlns:inkscape="http://www.inkscape.org/namespaces/inkscape"
   xmlns:sodipodi="http://sodipodi.sourceforge.net/DTD/sodipodi-0.dtd"
   xmlns="http://www.w3.org/2000/svg"
   xmlns:svg="http://www.w3.org/2000/svg">
  <sodipodi:namedview
     id="namedview7"
     pagecolor="#ffffff"
     bordercolor="#666666"
     borderopacity="1.0"
     inkscape:showpageshadow="2"
     inkscape:pageopacity="0.0"
     inkscape:pagecheckerboard="0"
     inkscape:deskcolor="#d1d1d1"
     inkscape:document-units="mm"
     showgrid="false"
     showguides="false"
     inkscape:zoom="1.0902123"
     inkscape:cx="513.20278"
     inkscape:cy="332.96266"
     inkscape:window-width="1904"
     inkscape:window-height="1006"
     inkscape:window-x="8"
     inkscape:window-y="34"
     inkscape:window-maximized="1"
     inkscape:current-layer="layer1" />
  <defs
     id="defs2" />
  <g
     inkscape:label="Layer 1"
     inkscape:groupmode="layer"
     id="layer1">
    <text
       xml:space="preserve"
       style="font-size:3.96875px;line-height:4.23333px;font-family:Montserrat;-inkscape-font-specification:Montserrat;letter-spacing:0px;word-spacing:0px;fill:none;stroke:#000000;stroke-width:0.264583px;stroke-linecap:butt;stroke-linejoin:miter;stroke-opacity:1"
       x="38.399311"
       y="41.287754"
       id="text589"><tspan
         sodipodi:role="line"
         id="tspan587"
         style="stroke-width:0.264583px"
         x="38.399311"
         y="41.287754">How this was made:</tspan><tspan
         sodipodi:role="line"
         style="stroke-width:0.264583px"
         x="38.399311"
         y="45.521084"
         id="tspan591">1. Freehand draw islandy shape</tspan><tspan
         sodipodi:role="line"
         style="stroke-width:0.264583px"
         x="38.399311"
         y="49.754414"
         id="tspan593">2. use Path -&gt; Inset shortcut</tspan><tspan
         sodipodi:role="line"
         style="stroke-width:0.264583px"
         x="38.399311"
         y="53.987743"
         id="tspan645">3. Duplicate using Ctrl-D</tspan><tspan
         sodipodi:role="line"
         style="stroke-width:0.264583px"
         x="38.399311"
         y="58.221073"
         id="tspan647">4. Repeat until tip of island is made</tspan><tspan
         sodipodi:role="line"
         style="stroke-width:0.264583px"
         x="38.399311"
         y="62.454403"
         id="tspan649">5. Randomly transform inner shapes</tspan></text>
    <path
       id="path476"
       style="fill:none;fill-rule:evenodd;stroke:#000000;stroke-width:0.264583px;stroke-linecap:butt;stroke-linejoin:miter;stroke-opacity:1"
       d="m 156.42383,27.09375 -9.85938,1.599609 -7.46096,5.021026 -9.6947,12.898631 -5.32481,6.062765 -5.92382,3.328125 -4.07953,4.305595 -2.76005,1.514497 -5.37279,2.322813 -10.675107,1.182604 -15.255743,1.151218 -8.085987,3.192585 -8.292029,4.638783 -15.29108,7.152914 -7.214753,11.962936 -4.073885,15.174039 2.975877,12.92788 5.430801,12.02902 10.628762,10.1677 8.31298,5.02382 4.979356,2.35663 10.783662,4.48447 6.602777,1.65174 7.695329,1.6924 8.20322,0.51959 8.75987,0.76486 14.32597,1.6257 13.23415,0.41425 15.3025,-1.34707 4.20262,-3.64723 3.45328,-7.31773 9.56093,-11.05055 10.14476,-5.35344 6.50022,-8.00002 -0.76928,-13.32476 -4.80327,-4.96247 -5.31921,-5.96103 1.72521,-9.956506 6.26414,-8.390833 11.79289,-12.441713 4.11994,-12.973039 -3.37174,-10.343942 -4.55387,-6.164532 -4.79674,-3.908997 -9.33271,-3.991296 -11.4315,-3.568433 z"
       sodipodi:nodetypes="ccccccccccccccccccccccccccccccccccccccccccccccc" />
    <path
       id="path582"
       style="fill:none;fill-rule:evenodd;stroke:#000000;stroke-width:0.264583px;stroke-linecap:butt;stroke-linejoin:miter;stroke-opacity:1"
       d="m 155.81055,28.261719 -8.84375,1.43164 -7.57205,5.394208 -14.75946,18.413723 -7.14059,4.725396 -4.90888,4.096 -7.28237,2.942484 -8.038425,0.905566 -16.814813,1.413476 -6.445375,2.398755 -11.491391,6.005652 -12.501226,5.849062 -1.703857,1.75613 -6.351885,10.856281 -3.80804,14.178818 3.218915,13.28253 4.984209,11.02801 10.989673,10.30012 13.921199,7.47648 10.461123,4.14638 12.88057,2.93959 11.205643,0.86163 20.34026,2.07483 11.94393,0.39144 15.02323,-1.17289 1.44726,-0.70898 3.92848,-4.41509 4.21691,-7.38625 8.1261,-9.39398 10.13672,-5.3457 6.10937,-7.51953 -0.72265,-12.50977 -10.14454,-11.11328 0.49357,-3.250469 1.28182,-7.397965 10.2095,-12.613329 7.91355,-8.355421 3.94336,-12.41211 L 196.5,47.224609 190.3317,40.006867 184.99151,36.78704 172.84993,32.2662 157.41387,28.437223 Z"
       sodipodi:nodetypes="cccccccccccccccccccccccccccccccccccccccccccc" />
    <path
       id="path590"
       style="fill:none;fill-rule:evenodd;stroke:#000000;stroke-width:0.264583px;stroke-linecap:butt;stroke-linejoin:miter;stroke-opacity:1"
       d="m 155.625,29.369141 -8.24023,1.328125 -7.44873,5.427122 -14.70752,18.254518 -7.56035,5.224689 -5.4019,4.045896 -9.04273,2.931746 -20.256556,1.824711 -4.445175,0.932096 -8.126659,3.620642 -10.144758,5.279307 -10.264064,4.808882 -2.26888,3.57533 -4.868924,8.586578 -3.60829,13.437697 3.330541,13.35348 4.659694,10.31449 11.084367,10.27869 14.557615,7.65926 12.791449,4.51166 12.386004,2.27819 17.284656,1.50773 16.75587,1.38327 11.6505,-0.20099 9.64218,-0.90599 2.11541,-1.72345 2.40709,-3.53089 4.4957,-7.38479 7.76275,-8.97816 10.125,-5.33789 5.71485,-7.03515 -0.67579,-11.70508 -10.17187,-11.1875 0.71507,-4.99053 1.11891,-6.466502 11.15047,-13.661847 7.03899,-7.431903 3.76367,-11.841797 -3.48913,-9.95737 -6.19311,-7.11163 -7.91045,-4.111756 -17.29668,-5.446894 -7.94266,-1.571569 -0.48633,0.01758 z"
       sodipodi:nodetypes="ccccccccccccccccccccccccccccccccccccccccccccc" />
    <path
       id="path594"
       style="fill:none;fill-rule:evenodd;stroke:#000000;stroke-width:0.264583px;stroke-linecap:butt;stroke-linejoin:miter;stroke-opacity:1"
       d="m 155.66602,29.898438 -8.07422,1.300781 -7.43872,5.514707 -14.62964,18.104433 -7.59679,5.28724 -5.79418,4.198236 -9.15122,2.837755 -21.502754,1.946338 -6.237949,2.125474 -12.045696,6.223793 -12.872585,6.035461 -2.633809,4.214189 -4.418569,7.991572 -3.482779,12.975883 3.400845,13.42574 4.481968,9.92191 11.11763,10.26102 14.844637,7.73754 12.835889,4.40965 11.61786,2.10546 21.085412,1.92883 18.00521,1.06342 14.12797,-1.01221 2.52746,-0.68618 3.23072,-3.58223 5.22041,-8.71341 7.545,-8.72673 10.11915,-5.33399 5.51757,-6.79296 -0.65234,-11.30274 -10.18164,-11.2207 0.83812,-5.963186 1.081,-5.982238 11.56335,-14.107075 6.59956,-6.968987 3.67383,-11.55664 -3.44951,-9.776135 -6.2471,-7.092841 -8.201,-4.090125 -21.78203,-6.283615 z"
       sodipodi:nodetypes="ccccccccccccccccccccccccccccccccccccccccc" />
    <path
       id="path597"
       style="fill:none;fill-rule:evenodd;stroke:#000000;stroke-width:0.264583px;stroke-linecap:butt;stroke-linejoin:miter;stroke-opacity:1"
       d="m 155.66211,30.988281 -4.61951,0.725338 -3.11441,0.547349 -7.97572,6.47487 -13.84309,16.965334 -7.66192,5.409472 -6.72437,4.566712 -9.38054,2.600687 -21.298902,1.965244 -7.090523,2.696166 -13.299767,6.865069 -9.631874,4.507978 -4.116943,6.701795 -3.21572,7.18543 -2.807962,10.468245 3.572883,13.64187 4.097039,9.06907 11.263378,10.27235 14.879535,7.6525 13.186669,4.35557 12.169697,1.92364 23.56681,2.24451 21.92427,0.15051 7.21683,-0.71547 2.0783,-1.71379 2.79274,-5.15996 4.35714,-6.1465 7.25994,-8.34579 10.01758,-5.27929 5.12305,-6.3086 -0.60547,-10.49609 -10.20117,-11.28906 1.09017,-7.912047 1.02897,-5.048893 12.29061,-14.886189 5.78947,-6.115764 3.49414,-10.986328 -3.36916,-9.413051 -7.44911,-7.730742 -7.95182,-3.454393 -22.23592,-5.986853 z"
       sodipodi:nodetypes="cccccccccccccccccccccccccccccccccccccccccc" />
    <path
       id="path601"
       style="fill:none;fill-rule:evenodd;stroke:#000000;stroke-width:0.264583px;stroke-linecap:butt;stroke-linejoin:miter;stroke-opacity:1"
       d="m 155.73828,32.046875 -7.249,1.18776 -2.90139,1.827865 -5.1492,4.790445 -13.74728,16.732993 -7.59041,5.3809 -9.78655,5.914021 -7.91273,1.566309 -20.355309,1.892752 -7.913584,3.200858 -13.683002,6.993612 -7.699825,3.604282 -5.471834,9.056518 -2.679422,8.43038 -1.600973,6.15335 4.374146,15.19443 3.199235,6.91129 11.499673,10.29267 14.955732,7.54759 13.170654,4.16489 12.223609,1.72612 27.0284,2.50714 18.28474,-0.324 5.70745,-0.60569 3.10105,-3.79077 5.9055,-9.15761 7.30595,-8.286 9.82617,-5.17773 4.72851,-5.82422 -0.55859,-9.69141 -10.2207,-11.35546 1.36437,-10.054672 1.72403,-4.968326 12.17995,-14.547525 5.10572,-5.515007 3.25679,-10.234786 -3.45128,-9.281543 -8.42074,-7.798952 -16.88942,-5.990377 -11.52254,-2.472894 -0.1,5.78e-4 z"
       sodipodi:nodetypes="cccccccccccccccccccccccccccccccccccccccccc" />
    <path
       id="path605"
       style="fill:none;fill-rule:evenodd;stroke:#000000;stroke-width:0.264583px;stroke-linecap:butt;stroke-linejoin:miter;stroke-opacity:1"
       d="m 152.19336,33.128906 -3.70422,0.706633 -4.14867,2.715415 -3.77739,4.02077 -13.58066,16.45562 -7.55989,5.370468 -10.49526,6.183262 -8.48386,1.502107 -19.383071,1.804496 -18.794195,8.944817 -10.147003,4.716334 -5.751367,9.6549 -2.566121,8.723722 -1.237944,4.94338 4.413044,15.15855 3.098316,6.60134 13.230656,11.28424 13.66366,6.63263 13.22505,4.03355 11.460185,1.52031 29.49903,2.62588 16.62493,-0.5607 4.53148,-0.53772 2.86496,-3.71121 6.15736,-9.34319 7.17543,-8.08428 9.73047,-5.12695 4.53125,-5.58203 -0.53515,-9.28906 -10.23047,-11.38867 1.48073,-11.023084 1.89474,-4.763178 12.3203,-14.645881 4.76423,-5.204172 3.13961,-9.869549 -4.41103,-10.47979 -7.76011,-6.405033 -23.42119,-7.415391 -4.33463,-0.70602 z"
       sodipodi:nodetypes="cccccccccccccccccccccccccccccccccccccccc" />
    <path
       id="path608"
       style="fill:none;fill-rule:evenodd;stroke:#000000;stroke-width:0.264583px;stroke-linecap:butt;stroke-linejoin:miter;stroke-opacity:1"
       d="m 155.23047,33.712891 -5.95838,1.021869 -3.04963,1.814036 -4.67178,4.418804 -11.63861,14.619842 -3.94858,3.304102 -5.84088,4.306033 -11.77229,6.692228 -11.926333,1.65824 -15.329629,1.437968 -13.15453,6.124256 -14.08393,6.794348 -1.363187,1.06396 -5.50978,9.543882 -2.769808,9.935361 -0.329393,3.45309 4.38764,14.41529 2.791527,5.79157 13.551256,11.34194 17.024189,7.74375 12.849535,3.15232 13.410173,1.19773 34.55703,2.04047 9.17773,-0.89257 2.76367,-3.65039 6.75121,-9.862 6.86793,-7.62629 9.53907,-5.02539 4.13672,-5.09765 -0.48829,-8.48828 -10.25,-11.45118 1.68265,-12.742837 2.38739,-4.729036 12.4748,-14.687204 4.08114,-4.561226 2.91113,-9.164458 -4.44287,-10.243524 -7.76726,-5.990565 -25.9649,-7.6533 -1.08473,-0.0052 z"
       sodipodi:nodetypes="ccccccccccccccccccccccccccccccccccccccccc" />
    <path
       id="path612"
       style="fill:none;fill-rule:evenodd;stroke:#000000;stroke-width:0.264583px;stroke-linecap:butt;stroke-linejoin:miter;stroke-opacity:1"
       d="m 155.33008,34.767578 -6.14994,1.182165 -4.82675,3.339515 -4.57781,5.838781 -11.31406,13.360881 -7.40551,5.208099 -12.08754,7.07273 -13.24972,1.904079 -14.573354,1.41062 -20.151188,9.677298 -7.418036,3.472629 -5.72756,10.037241 -3.037636,11.022644 0.648705,3.81579 3.981226,12.21519 2.803612,5.44813 13.15394,10.90558 18.107616,7.99366 14.417753,3.03637 13.862372,1.16367 30.69036,1.65079 8.90235,-0.90039 2.8776,-4.81108 6.96044,-9.32334 6.48286,-6.96687 9.17128,-4.83035 3.74219,-4.61329 -0.4414,-7.6875 -10.26758,-11.51171 1.79916,-13.838683 4.45618,-7.313533 11.9595,-13.578256 2.91628,-4.165092 2.34349,-7.372018 -3.43555,-8.677734 -6.14087,-5.749037 -5.48572,-2.278907 -22.4011,-6.143018 -0.58559,0.0049 z"
       sodipodi:nodetypes="cccccccccccccccccccccccccccccccccccccccc" />
    <path
       id="path616"
       style="fill:none;fill-rule:evenodd;stroke:#000000;stroke-width:0.264583px;stroke-linecap:butt;stroke-linejoin:miter;stroke-opacity:1"
       d="m 155.38477,35.294922 -6.1533,1.242599 -6.22087,5.09465 -11.15317,14.173244 -5.36227,4.617317 -5.25328,3.8544 -12.68986,7.176273 -13.483713,1.808987 -13.987919,1.402217 -20.50514,9.872618 -6.626029,3.103398 -5.720715,10.190435 -2.903025,10.6553 0.807207,4.21447 3.554616,10.94326 3.811596,6.60057 12.508037,10.17001 19.517281,8.29717 15.455044,2.70418 13.75091,1.23143 30.61547,1.10055 5.9161,-0.68797 2.66407,-4.7626 7.73443,-10.13163 5.88137,-6.15966 8.98769,-4.7327 3.54492,-4.3711 -0.41797,-7.28711 -10.27539,-11.54101 1.85693,-14.354228 4.81023,-7.713205 13.03792,-14.614209 1.59686,-3.046791 2.14142,-6.732506 -4.3179,-9.676159 -6.82144,-5.117364 -23.89508,-7.208438 z"
       sodipodi:nodetypes="cccccccccccccccccccccccccccccccccccccc" />
    <path
       id="path619"
       style="fill:none;fill-rule:evenodd;stroke:#000000;stroke-width:0.264583px;stroke-linecap:butt;stroke-linejoin:miter;stroke-opacity:1"
       d="m 155.10742,36.4375 -6.61338,1.788911 -5.34619,5.001654 -13.84882,16.606016 -7.33696,5.207605 -13.61727,7.562588 -14.57932,1.832829 -12.61348,1.32527 -21.061308,10.161458 -5.397333,2.5332 -5.98144,11.421371 -2.305879,8.904738 1.106091,5.19511 3.687642,10.37301 3.322611,5.41307 12.696694,10.1075 34.958532,10.56317 39.3927,2.54938 8.18555,-0.7461 1.44442,-0.66175 2.14471,-4.43596 9.93282,-12.49216 5.02688,-4.24021 6.4816,-3.42767 1.81087,-1.47162 2.39893,-2.95813 -0.37109,-6.48633 -10.28906,-11.59765 1.94061,-15.23062 5.54533,-8.669005 12.88685,-14.350045 1.81078,-4.858748 1.14199,-3.914743 -4.00668,-8.883597 -7.29514,-5.137824 -24.6057,-7.06379 -0.64656,0.07907 z"
       sodipodi:nodetypes="cccccccccccccccccccccccccccccccccccccc" />
    <path
       id="path623"
       style="fill:none;fill-rule:evenodd;stroke:#000000;stroke-width:0.264583px;stroke-linecap:butt;stroke-linejoin:miter;stroke-opacity:1"
       d="m 154.83398,37.5625 -6.02148,1.6875 -5.11581,5.012257 -14.15195,16.716659 -6.96654,4.945783 -14.56791,7.851137 -15.451843,1.825317 -11.499552,1.32472 -21.095887,10.22254 -4.53332,2.128931 -5.951852,11.846626 -1.964214,7.8944 1.741685,7.50214 3.307836,8.33623 2.982336,4.42748 12.787766,9.98357 33.823545,10.11486 39.52094,2.52946 8.56641,-0.8457 1.80572,-3.77481 11.11123,-14.09234 5.57764,-4.21843 6.46948,-3.50192 2.69413,-3.26407 -0.30859,-5.70117 -10.30078,-11.65234 2.03492,-16.138038 6.09114,-9.360062 12.55395,-13.968715 1.91654,-5.558742 0.42108,-3.160025 -3.66412,-7.681607 -7.0664,-4.762143 -21.70703,-6.446842 z"
       sodipodi:nodetypes="ccccccccccccccccccccccccccccccccccc" />
    <path
       id="path627"
       style="fill:none;fill-rule:evenodd;stroke:#000000;stroke-width:0.264583px;stroke-linecap:butt;stroke-linejoin:miter;stroke-opacity:1"
       d="m 155.28125,38.007812 -6.25696,1.737214 -5.14228,5.153781 -14.18845,16.62486 -6.81319,4.845779 -14.95054,7.965253 -16.023778,1.853747 -10.876024,1.314729 -21.130236,10.257966 -4.153359,2.011534 -5.756199,11.485135 -1.917328,7.85381 3.614209,12.57155 2.347484,5.03849 3.332589,3.60256 11.568444,8.6616 17.272787,7.14138 14.865801,2.66382 40.57812,2.59179 8.27344,-0.80469 2.18756,-4.50633 10.99275,-13.59781 5.91456,-4.24273 5.92184,-3.24254 2.42079,-2.9516 -0.28516,-5.30078 -10.30664,-11.67774 2.08689,-16.60053 6.39354,-9.736738 12.33218,-13.725612 2.11078,-6.209332 0.0205,-2.238806 -2.68782,-6.23562 -6.04152,-4.965147 -21.50902,-6.71985 -4.09461,-0.625714 -0.0998,0.0065 z"
       sodipodi:nodetypes="cccccccccccccccccccccccccccccccccccccc" />
    <path
       id="path630"
       style="fill:none;fill-rule:evenodd;stroke:#000000;stroke-width:0.264583px;stroke-linecap:butt;stroke-linejoin:miter;stroke-opacity:1"
       d="m 155.0957,39.638672 -5.77345,1.814636 -6.83835,7.957959 -12.47357,13.817916 -6.16629,4.418362 -16.47646,8.421214 -17.420683,1.875463 -10.810742,2.055507 -19.246254,9.521888 -3.097198,1.578808 -5.409891,11.130045 -1.63568,7.10958 4.299382,13.67559 3.061972,4.86257 12.647236,9.76705 11.75209,5.2688 21.572388,4.41352 36.77059,2.52998 9.00273,-0.75209 1.38038,-2.89127 8.85881,-11.56184 4.21434,-4.62616 10.42058,-6.17955 2.0126,-2.33103 -0.2207,-4.11718 -10.30859,-11.74414 2.25787,-18.019377 7.18074,-10.690843 11.58678,-12.828846 2.11328,-6.339843 -0.95313,-3.238282 -7.16478,-7.764485 -8.16645,-3.048288 -16.28009,-4.111055 z"
       sodipodi:nodetypes="ccccccccccccccccccccccccccccccccccc" />
    <path
       id="path635"
       style="fill:none;fill-rule:evenodd;stroke:#000000;stroke-width:0.264583px;stroke-linecap:butt;stroke-linejoin:miter;stroke-opacity:1"
       d="m 153.80078,41.421875 -4.07834,1.72215 -6.96573,8.532365 -12.42614,13.21967 -5.6188,4.115225 -18.44811,8.859007 -18.287995,1.811588 -9.181083,2.218215 -20.079229,9.885077 -1.955587,2.355453 -4.032051,9.254295 -1.299866,6.21096 4.271027,13.25685 2.545804,3.94452 10.276804,8.41541 4.860926,2.47609 22.568959,7.32353 15.488011,1.43582 30.5782,1.70206 5.76562,-0.52149 10.03983,-13.94338 4.61877,-5.01938 10.54708,-6.31338 1.12489,-1.46043 -0.22112,-2.9146 -10.24031,-11.73555 2.45203,-19.48509 7.9006,-11.530181 10.86612,-11.986679 1.83399,-5.59375 -3.5637,-7.028538 -5.54371,-3.186746 -21.95374,-6.215329 z"
       sodipodi:nodetypes="cccccccccccccccccccccccccccccccccc" />
    <path
       id="path640"
       style="fill:none;fill-rule:evenodd;stroke:#000000;stroke-width:0.264583px;stroke-linecap:butt;stroke-linejoin:miter;stroke-opacity:1"
       d="m 154.68945,43.421875 -4.28568,1.961987 -7.19618,9.158419 -13.4029,13.098344 -4.03527,3.268068 -22.8351,9.556019 -19.501395,1.956842 -9.640082,4.346296 -14.224484,6.972384 -2.593052,4.198075 -2.457821,6.967421 -0.672172,5.87714 4.728755,13.11905 4.757786,4.75296 9.914881,6.61906 16.616618,6.34527 24.076136,2.96081 32.4277,1.0899 13.34996,-17.28431 10.46711,-6.75983 1.75715,-1.34844 -0.51224,-1.86137 -9.84909,-11.35933 2.73995,-21.493673 8.84938,-12.613383 9.86379,-10.83435 1.45703,-4.507812 -5.26752,-7.204076 -7.28477,-2.769876 -16.65083,-4.279954 z"
       sodipodi:nodetypes="ccccccccccccccccccccccccccccccc" />
    <path
       id="path646"
       style="fill:none;fill-rule:evenodd;stroke:#000000;stroke-width:0.264583px;stroke-linecap:butt;stroke-linejoin:miter;stroke-opacity:1"
       d="m 154.52734,46.085938 -4.14356,3.375214 -7.77339,10.088635 -12.63969,11.120135 -6.62094,5.476608 -23.43167,7.292371 -16.781468,1.853449 -12.445442,6.055586 -9.351336,4.507533 -4.278439,9.698481 -0.464705,5.41267 4.581034,11.89861 4.790345,4.59683 15.794136,8.71783 20.614985,4.71223 23.0896,2.13327 19.25,0.15625 13.60351,-17.125 10.37891,-6.67969 -9.70899,-11.30859 3.20704,-24.210938 10.76642,-14.687028 7.74139,-8.434066 0.6875,-4.154297 -4.79837,-4.395033 -20.91067,-6.062328 -1.1562,-0.03873 z"
       sodipodi:nodetypes="cccccccccccccccccccccccccccc" />
    <path
       id="path655"
       style="fill:none;fill-rule:evenodd;stroke:#000000;stroke-width:0.264583px;stroke-linecap:butt;stroke-linejoin:miter;stroke-opacity:1"
       d="m 154.58398,48.255859 -3.07462,3.234074 -16.97744,18.771888 -5.51976,4.067374 -7.3833,5.330743 -23.433318,6.065489 -15.072228,1.849883 -14.532033,7.20074 -5.81589,2.7552 -3.86862,9.22407 -0.05541,4.41563 4.576503,11.04145 6.206901,5.44776 15.153842,7.39931 19.221293,3.84247 28.55328,2.41877 10.87823,-0.16446 13.98577,-17.17974 7.89118,-5.17182 -8.39844,-9.92383 3.57975,-26.350225 12.16256,-16.186573 6.15808,-6.685859 0.31486,-2.930838 -4.1237,-2.868196 -20.26342,-5.652138 -0.0959,0.02853 z"
       sodipodi:nodetypes="cccccccccccccccccccccccccccc" />
    <path
       id="path661"
       style="fill:none;fill-rule:evenodd;stroke:#000000;stroke-width:0.264583px;stroke-linecap:butt;stroke-linejoin:miter;stroke-opacity:1"
       d="m 155.23438,51.037109 -4.61541,5.007882 -15.95219,15.963419 -7.31521,6.030021 L 105,86.760877 l -19.806641,3.026232 -8.975502,4.075741 -11.516685,5.703556 -1.572495,2.760874 -2.017349,6.94811 1.320028,4.73355 4.508314,7.89793 11.138451,7.4716 20.532086,6.34605 15.647703,1.45076 27.66006,1.41652 14.35898,-17.12809 4.89883,-3.38363 -6.84375,-8.17578 4.08184,-29.079568 14.58374,-18.775783 3.70356,-4.228637 -3.6357,-1.83685 -17.70074,-5.020974 -0.13035,0.07462 z"
       sodipodi:nodetypes="cccccccccccccccccccccccccc" />
    <path
       id="path668"
       style="fill:none;fill-rule:evenodd;stroke:#000000;stroke-width:0.264583px;stroke-linecap:butt;stroke-linejoin:miter;stroke-opacity:1"
       d="m 154.57031,52.738281 -17.59961,19.648438 -5.99919,4.42099 -11.63798,7.48457 L 97.240122,88.99183 84.833308,90.4407 75.299538,94.933481 65.025391,100 l -2.012951,4.02099 -1.329763,5.44133 1.526078,5.27912 4.31104,6.98311 11.41517,7.466 21.879265,6.25326 15.5847,1.40585 25.22216,1.22456 14.46741,-17.14449 4.27673,-2.98442 -6.55078,-7.83593 4.13867,-29.544927 15.19932,-19.471331 2.88076,-3.249372 -4.18123,-1.74188 -16.32267,-4.584292 z"
       sodipodi:nodetypes="ccccccccccccccccccccccccc" />
    <path
       id="path671"
       style="fill:none;fill-rule:evenodd;stroke:#000000;stroke-width:0.264583px;stroke-linecap:butt;stroke-linejoin:miter;stroke-opacity:1"
       d="m 155.41406,53.375 -17.91797,19.9375 -7.07166,5.40701 -24.43137,10.387633 -19.101898,1.999197 -8.431744,3.394408 -12.72309,6.335192 -2.820312,7.16601 0.40113,3.3812 4.305446,9.02087 9.351129,6.71465 12.592685,5.02781 13.437614,2.43071 20.51969,1.8714 17.51145,0.58852 14.615,-17.11739 3.10765,-2.23222 -5.97851,-7.16797 4.2539,-30.478514 16.03374,-20.39959 1.39204,-1.520332 -4.30947,-1.510169 -14.16709,-3.958581 z"
       sodipodi:nodetypes="cccccccccccccccccccccccc" />
    <path
       id="path675"
       style="fill:none;fill-rule:evenodd;stroke:#000000;stroke-width:0.264583px;stroke-linecap:butt;stroke-linejoin:miter;stroke-opacity:1"
       d="m 155.83594,53.693359 -18.12356,20.1131 -7.25501,5.573843 -24.48195,10.265995 -20.19921,2.214595 -8.941939,4.075196 -10.730755,5.311962 -2.560274,6.44853 0.678774,4.87814 4.212657,7.85802 10.843778,7.18315 23.074029,6.38126 25.68092,2.27083 12.71269,0.24764 14.65022,-17.07045 2.56658,-1.87681 -5.70117,-6.84375 4.3125,-30.945313 16.51576,-20.937794 -0.34642,-0.75291 -11.18996,-3.721554 -5.34657,-1.144383 z"
       sodipodi:nodetypes="ccccccccccccccccccccccc" />
    <path
       id="path678"
       style="fill:none;fill-rule:evenodd;stroke:#000000;stroke-width:0.264583px;stroke-linecap:butt;stroke-linejoin:miter;stroke-opacity:1"
       d="m 154.62109,57.0625 -16.64645,17.844191 -7.54778,5.861841 -25.28156,10.075039 -19.498305,2.161396 -10.387581,4.925644 -8.403945,4.131889 -2.466797,6.76602 1.277849,4.87976 3.927702,6.35183 11.122323,7.04496 21.201424,5.8129 28.75781,2.44531 9.5,0.11133 14.88048,-17.10918 1.34608,-1.00996 -5.17578,-6.2207 4.42969,-31.882817 16.01758,-20.419922 -15.02344,-4.460937 z"
       sodipodi:nodetypes="ccccccccccccccccccccc" />
    <path
       id="path682"
       style="fill:none;fill-rule:evenodd;stroke:#000000;stroke-width:0.264583px;stroke-linecap:butt;stroke-linejoin:miter;stroke-opacity:1"
       d="m 155.04297,57.380859 -17.27175,18.299032 -7.5679,5.935969 -25.67769,9.849232 -18.942221,2.118755 -10.618555,5.089824 -7.728526,3.793129 -2.307264,6.49818 1.425385,5.15282 3.815699,5.75098 11.218251,6.95571 22.875451,5.74349 29.08879,2.3694 6.53994,0.0157 14.99563,-17.1288 0.29307,-1.10859 -4.47034,-5.37393 4.48633,-32.353519 15.55273,-19.919922 -13.87305,-4.11914 -1.83398,2.43164 z"
       sodipodi:nodetypes="cccccccccccccccccccccc" />
    <path
       id="path685"
       style="fill:none;fill-rule:evenodd;stroke:#000000;stroke-width:0.264583px;stroke-linecap:butt;stroke-linejoin:miter;stroke-opacity:1"
       d="m 155.88672,58.017578 -18.10156,18.929688 -11.04708,8.303459 -27.133165,7.803157 -14.210651,1.719712 -11.486663,5.613606 -5.899789,2.88428 -1.988281,5.80469 1.752925,5.86111 3.772892,4.73475 14.657081,7.98287 16.993151,3.79272 35.52343,2.4715 1.2849,-0.96014 14.15234,-15.86914 -3.33862,-3.96689 -1.18382,-2.03584 4.64549,-32.626172 14.62109,-18.919922 -11.57422,-3.431641 z"
       sodipodi:nodetypes="ccccccccccccccccccccc" />
    <path
       id="path689"
       style="fill:none;fill-rule:evenodd;stroke:#000000;stroke-width:0.264583px;stroke-linecap:butt;stroke-linejoin:miter;stroke-opacity:1"
       d="m 156.73047,58.654297 -18.51547,19.282029 -12.34658,9.030323 -28.27753,7.303824 -12.148428,1.620562 -12.782991,6.291895 -3.868455,1.88543 -1.650909,5.16765 2.068923,6.29069 5.323632,5.16463 14.237654,6.74149 16.803644,3.12805 33.23463,2.30046 6.45258,-8.15808 7.43414,-7.67786 -3.88476,-4.76562 -0.37092,-3.45681 4.9217,-30.869366 13.6875,-17.916016 -9.28321,-2.734375 z"
       sodipodi:nodetypes="ccccccccccccccccccccc" />
    <path
       id="path693"
       style="fill:none;fill-rule:evenodd;stroke:#000000;stroke-width:0.264583px;stroke-linecap:butt;stroke-linejoin:miter;stroke-opacity:1"
       d="m 157.57422,59.291016 -18.83399,19.570312 -13.35371,9.558901 -28.619303,6.972079 -11.599271,1.764346 -13.656227,6.776936 -1.990324,1.07554 -1.262879,4.32178 2.352812,6.41323 6.072266,5.0957 15.223406,6.45218 15.14995,2.32974 31.20282,2.18097 12.99609,-14.85351 -3.48194,-4.45648 -0.44454,-5.1537 5.11398,-29.93279 12.75391,-16.902344 -6.99805,-2.041015 z"
       sodipodi:nodetypes="cccccccccccccccccccc" />
    <path
       id="path697"
       style="fill:none;fill-rule:evenodd;stroke:#000000;stroke-width:0.264583px;stroke-linecap:butt;stroke-linejoin:miter;stroke-opacity:1"
       d="m 158.41797,59.927734 -19.08399,19.808594 -13.92187,9.859375 -29.171932,6.899824 -11.46394,2.007696 -14.248894,7.072947 -0.933532,2.05657 0.07862,2.82942 3.328285,6.28291 17.118425,8.87212 17.525388,2.99219 30.07422,2.13281 12.10547,-13.86328 -3.17231,-4.51662 -0.41144,-6.90519 5.3348,-28.664868 11.76848,-15.788326 -4.7168,-1.351562 z"
       sodipodi:nodetypes="ccccccccccccccccccc" />
    <path
       id="path701"
       style="fill:none;fill-rule:evenodd;stroke:#000000;stroke-width:0.264583px;stroke-linecap:butt;stroke-linejoin:miter;stroke-opacity:1"
       d="m 157.17578,63.314453 -17.64238,17.594669 -14.38517,9.994616 -29.335916,6.688918 -11.866123,2.477254 -12.70791,6.34025 -0.810547,2.69726 1.023363,3.52453 2.994996,3.94422 16.570336,8.20571 19.210311,2.98923 26.95685,1.90858 11.20703,-12.86328 -2.98333,-5.70713 -0.0912,-11.398898 5.49287,-23.703915 10.67151,-14.475217 -2.43164,-0.681641 z"
       sodipodi:nodetypes="ccccccccccccccccccc" />
    <path
       id="path705"
       style="fill:none;fill-rule:evenodd;stroke:#000000;stroke-width:0.264583px;stroke-linecap:butt;stroke-linejoin:miter;stroke-opacity:1"
       d="m 149.31641,74.847656 -9.43411,7.797352 -14.98672,10.1311 -29.780456,6.460959 -8.552041,1.400133 -6.863006,3.33264 -7.274296,3.63172 0.0146,2.92123 2.721731,4.60612 17.049787,8.3577 10.316881,2.00976 17.79097,1.60453 16.08064,0.97722 9.83594,-11.33789 -2.45134,-6.2373 5.0996,-34.0771 1.25408,-2.410205 -0.82226,0.832031 z"
       sodipodi:nodetypes="ccccccccccccccccccc" />
    <path
       id="path710"
       style="fill:none;fill-rule:evenodd;stroke:#000000;stroke-width:0.264583px;stroke-linecap:butt;stroke-linejoin:miter;stroke-opacity:1"
       d="m 144.81641,80.964844 -8.77239,6.7421 -12.07587,7.215805 -29.649831,5.972421 -8.478475,1.76499 -10.626687,5.34935 -1.517845,0.8694 0.994141,3.26171 4.534504,3.98348 16.082684,6.55949 17.334029,2.12861 22.98628,1.6585 8.4961,-9.86718 -1.98196,-7.25901 3.605,-29.123807 z"
       sodipodi:nodetypes="cccccccccccccccc" />
    <path
       id="path715"
       style="fill:none;fill-rule:evenodd;stroke:#000000;stroke-width:0.264583px;stroke-linecap:butt;stroke-linejoin:miter;stroke-opacity:1"
       d="m 143.24609,83.478516 -15.22109,10.76528 -22.51614,6.641574 -12.978894,1.2318 -7.845365,2.30365 -9.836945,4.95418 2.21362,3.90708 18.122962,8.25605 19.149712,2.35788 20.78324,1.50243 7.66797,-8.90821 -1.73351,-7.94465 2.71007,-25.457689 z"
       sodipodi:nodetypes="cccccccccccccc" />
    <path
       id="path719"
       style="fill:none;fill-rule:evenodd;stroke:#000000;stroke-width:0.264583px;stroke-linecap:butt;stroke-linejoin:miter;stroke-opacity:1"
       d="m 139.54883,88.320312 -14.21448,8.911925 -30.962181,6.322623 -9.137762,2.34551 -8.468782,4.32424 2.852607,2.94962 19.14791,7.50349 17.915408,1.83237 17.68368,1.27116 6.48633,-7.5332 -1.46302,-11.4574 1.76966,-17.734009 z"
       sodipodi:nodetypes="ccccccccccccc" />
    <path
       id="path724"
       style="fill:none;fill-rule:evenodd;stroke:#000000;stroke-width:0.264583px;stroke-linecap:butt;stroke-linejoin:miter;stroke-opacity:1"
       d="m 138.7793,90.9375 -14.99066,8.629727 -30.495585,5.673113 -8.027793,2.4266 -6.171512,3.14556 4.503906,2.93359 16.445314,5.52735 20.18363,1.95619 13.3984,0.93443 5.375,-6.23828 -1.18072,-12.55852 1.03228,-12.486401 z"
       sodipodi:nodetypes="ccccccccccccc" />
    <path
       id="path729"
       style="fill:none;fill-rule:evenodd;stroke:#000000;stroke-width:0.264583px;stroke-linecap:butt;stroke-linejoin:miter;stroke-opacity:1"
       d="m 135.70312,95.800781 -16.34953,7.494189 -27.061881,4.17593 -7.840849,2.99112 -0.876641,0.81337 22.106541,6.5214 20.33025,1.79181 6.6511,0.40945 3.95312,-4.58594 -0.86356,-13.90947 0.38895,-6.00264 z"
       sodipodi:nodetypes="cccccccccccc" />
    <path
       id="path735"
       style="fill:none;fill-rule:evenodd;stroke:#000000;stroke-width:0.264583px;stroke-linecap:butt;stroke-linejoin:miter;stroke-opacity:1"
       d="m 134.16406,98.052734 -28.50876,9.185036 -13.925861,1.38362 -6.266548,2.49384 20.954249,5.69686 22.11939,1.88921 3.65292,0.21276 3.26172,-3.7832 -0.71206,-14.67519 0.16128,-2.867779 z"
       sodipodi:nodetypes="ccccccccccc" />
    <path
       id="path739"
       style="fill:none;fill-rule:evenodd;stroke:#000000;stroke-width:0.264583px;stroke-linecap:butt;stroke-linejoin:miter;stroke-opacity:1"
       d="m 132.30859,100.92969 -31.44976,8.4686 -9.948674,1.03921 -1.818359,0.68359 11.790303,3.40718 14.40305,1.47154 15.93913,1.28988 1.00046,-0.8734 1.50573,-1.7327 -0.56641,-14.21679 z"
       sodipodi:nodetypes="ccccccccccc" />
    <path
       id="path744"
       style="fill:none;fill-rule:evenodd;stroke:#000000;stroke-width:0.264583px;stroke-linecap:butt;stroke-linejoin:miter;stroke-opacity:1"
       d="m 131.88086,102.34375 -31.80346,8.20137 -7.690681,0.73613 19.758321,3.37821 18.88426,1.53781 1.56445,-1.81641 -0.52539,-12.13477 -0.1875,0.0977 z"
       sodipodi:nodetypes="ccccccccc" />
    <path
       id="path748"
       style="fill:none;fill-rule:evenodd;stroke:#000000;stroke-width:0.264583px;stroke-linecap:butt;stroke-linejoin:miter;stroke-opacity:1"
       d="m 130.44531,104.2168 -32.437498,7.57812 20.703558,2.37059 11.82574,0.93801 0.83203,-1.57813 -0.39453,-9.55859 z"
       sodipodi:nodetypes="ccccccc" />
    <path
       id="path752"
       style="fill:none;fill-rule:evenodd;stroke:#000000;stroke-width:0.264583px;stroke-linecap:butt;stroke-linejoin:miter;stroke-opacity:1"
       d="m 129.70898,105.13281 -27.9375,6.82813 18.68231,1.82012 9.8548,0.76777 0.52359,-1.05025 -0.40054,-8.69389 z"
       sodipodi:nodetypes="ccccccc" />
    <path
       id="path755"
       style="fill:none;fill-rule:evenodd;stroke:#000000;stroke-width:0.264583px;stroke-linecap:butt;stroke-linejoin:miter;stroke-opacity:1"
       d="m 128.25391,106.32812 -22.23243,5.64649 17.17114,1.50361 6.9148,0.52764 0.0799,-1.32955 -0.29469,-7.0474 -1.63867,0.69921 z"
       sodipodi:nodetypes="cccccccc" />
    <path
       id="path758"
       style="fill:none;fill-rule:evenodd;stroke:#000000;stroke-width:0.264583px;stroke-linecap:butt;stroke-linejoin:miter;stroke-opacity:1"
       d="m 128.46094,106.81445 -18.16406,5.03907 19.48242,1.5996 -0.42188,-7.02148 z"
       sodipodi:nodetypes="ccccc" />
    <path
       id="path761"
       style="fill:none;fill-rule:evenodd;stroke:#000000;stroke-width:0.264583px;stroke-linecap:butt;stroke-linejoin:miter;stroke-opacity:1"
       d="m 128.66797,107.30078 -14.49024,4.3457 14.97852,1.22852 -0.32422,-5.64453 -0.0919,0.0394 z"
       sodipodi:nodetypes="cccccc" />
    <path
       id="path764"
       style="fill:none;fill-rule:evenodd;stroke:#000000;stroke-width:0.264583px;stroke-linecap:butt;stroke-linejoin:miter;stroke-opacity:1"
       d="m 127.09961,108.48633 -9.47656,2.92187 10.92578,0.89063 -0.23828,-4.28906 z"
       sodipodi:nodetypes="ccccc" />
    <path
       id="path767"
       style="fill:none;fill-rule:evenodd;stroke:#000000;stroke-width:0.264583px;stroke-linecap:butt;stroke-linejoin:miter;stroke-opacity:1"
       d="m 127.29297,108.97852 -6.58008,2.16015 7.25,0.58399 -0.16601,-2.94141 z"
       sodipodi:nodetypes="ccccc" />
    <path
       id="path770"
       style="fill:none;fill-rule:evenodd;stroke:#000000;stroke-width:0.264583px;stroke-linecap:butt;stroke-linejoin:miter;stroke-opacity:1"
       d="m 125.8457,110.06836 -2.31836,0.77148 3.85547,0.30664 -0.0879,-1.60546 -1.44922,0.52734 z"
       sodipodi:nodetypes="cccccc" />
  </g>
</svg>
