# Blender 3.6.0
# www.blender.org
mtllib fountain.mtl
o Plane
v 0.585737 -0.000772 -1.297575
v 0.585737 0.221450 -1.297574
v 0.580932 0.001202 -1.295154
v -1.047972 0.001202 -0.955995
v -1.229654 0.001047 0.697092
v 0.286759 0.000627 1.381841
v 1.408644 0.000000 0.151223
v 1.408644 0.222223 0.151224
v 0.286759 0.222850 1.381841
v -1.229654 0.223270 0.697092
v -1.047972 0.223424 -0.955994
v 0.580932 0.223424 -1.295154
v 1.303141 0.222245 0.131590
v 0.257494 0.222815 1.278521
v -1.131278 0.223282 0.637148
v -0.964985 0.223423 -0.876102
v 0.541272 0.221483 -1.191238
v 1.294475 0.222173 0.134910
v 0.260174 0.222870 1.269763
v -1.127920 0.223248 0.642940
v -0.960409 0.223424 -0.880974
v 0.530680 0.223424 -1.191509
v 1.303105 -0.000011 0.131623
v 0.257213 0.000479 1.278554
v -1.131222 0.001050 0.637628
v -0.965054 0.001190 -0.876061
v 0.541271 -0.000777 -1.191214
v 1.294304 -0.000196 0.135100
v 0.260292 0.000624 1.269892
v -1.128060 0.000958 0.642895
v -0.960791 0.001202 -0.880424
v 0.530561 0.001202 -1.191459
v 0.521910 0.045371 -1.258517
v 0.521910 0.175234 -1.258517
v 0.000000 0.000000 -0.026722
v 0.000000 1.333333 -0.026722
v 0.005213 0.000000 -0.026209
v 0.005213 1.333333 -0.026209
v 0.010226 0.000000 -0.024688
v 0.010226 1.333333 -0.024688
v 0.014846 0.000000 -0.022219
v 0.014846 1.333333 -0.022219
v 0.018895 0.000000 -0.018895
v 0.018895 1.333333 -0.018895
v 0.022219 0.000000 -0.014846
v 0.022219 1.333333 -0.014846
v 0.024688 0.000000 -0.010226
v 0.024688 1.333333 -0.010226
v 0.026209 0.000000 -0.005213
v 0.026209 1.333333 -0.005213
v 0.026722 0.000000 -0.000000
v 0.026722 1.333333 -0.000000
v 0.026209 0.000000 0.005213
v 0.026209 1.333333 0.005213
v 0.024688 0.000000 0.010226
v 0.024688 1.333333 0.010226
v 0.022219 0.000000 0.014846
v 0.022219 1.333333 0.014846
v 0.018895 0.000000 0.018895
v 0.018895 1.333333 0.018895
v 0.014846 0.000000 0.022219
v 0.014846 1.333333 0.022219
v 0.010226 0.000000 0.024688
v 0.010226 1.333333 0.024688
v 0.005213 0.000000 0.026209
v 0.005213 1.333333 0.026209
v 0.000000 0.000000 0.026722
v 0.000000 1.333333 0.026722
v -0.005213 0.000000 0.026209
v -0.005213 1.333333 0.026209
v -0.010226 0.000000 0.024688
v -0.010226 1.333333 0.024688
v -0.014846 0.000000 0.022219
v -0.014846 1.333333 0.022219
v -0.018895 0.000000 0.018895
v -0.018895 1.333333 0.018895
v -0.022219 0.000000 0.014846
v -0.022219 1.333333 0.014846
v -0.024688 0.000000 0.010226
v -0.024688 1.333333 0.010226
v -0.026209 0.000000 0.005213
v -0.026209 1.333333 0.005213
v -0.026722 0.000000 -0.000000
v -0.026722 1.333333 -0.000000
v -0.026209 0.000000 -0.005213
v -0.026209 1.333333 -0.005213
v -0.024688 0.000000 -0.010226
v -0.024688 1.333333 -0.010226
v -0.022219 0.000000 -0.014846
v -0.022219 1.333333 -0.014846
v -0.018895 0.000000 -0.018895
v -0.018895 1.333333 -0.018895
v -0.014846 0.000000 -0.022219
v -0.014846 1.333333 -0.022219
v -0.010226 0.000000 -0.024688
v -0.010226 1.333333 -0.024688
v -0.005213 0.000000 -0.026209
v -0.005213 1.333333 -0.026209
v 0.006493 0.583284 -0.499958
v -0.473482 0.583284 -0.160670
v -0.299121 0.583284 0.400658
v 0.288615 0.583284 0.408291
v 0.477495 0.583284 -0.148321
v -0.098710 0.999951 -0.229687
v -0.248949 0.999951 0.022901
v -0.055149 0.999951 0.243841
v 0.214865 0.999951 0.127801
v 0.187943 0.999951 -0.164856
v -0.473482 0.573284 -0.160670
v 0.006493 0.573284 -0.499958
v -0.299121 0.573284 0.400658
v 0.288615 0.573284 0.408291
v 0.477495 0.573284 -0.148321
v -0.248949 0.989951 0.022901
v -0.098710 0.989951 -0.229687
v -0.055149 0.989951 0.243841
v 0.214865 0.989951 0.127801
v 0.187943 0.989951 -0.164856
v -0.958046 0.178414 -0.868728
v -1.122262 0.178414 0.642704
v 0.264450 0.178414 1.265941
v 1.285701 0.178414 0.139690
v 0.530157 0.178414 -1.179607
v -0.958046 0.168414 -0.868728
v -1.122262 0.168414 0.642704
v 0.264450 0.168414 1.265941
v 1.285701 0.168414 0.139690
v 0.530157 0.168414 -1.179607
vn 0.8695 -0.0000 -0.4939
vn -0.2038 -0.0000 -0.9790
vn -0.9940 -0.0000 -0.1092
vn -0.4115 -0.0000 0.9114
vn 0.7390 -0.0000 0.6737
vn -0.0001 1.0000 0.0001
vn 0.0002 1.0000 -0.0003
vn -0.0000 1.0000 -0.0000
vn 0.0002 1.0000 0.0001
vn -0.0003 1.0000 -0.0004
vn 0.9940 0.0001 0.1092
vn 0.2040 0.0011 0.9790
vn -0.8696 0.0006 0.4938
vn -0.7389 0.0004 -0.6738
vn 0.4116 -0.0002 -0.9114
vn -0.5220 -0.0000 -0.8530
vn -0.0000 -0.0000 -1.0000
vn 0.1951 -0.0000 -0.9808
vn 0.3827 -0.0000 -0.9239
vn 0.5556 -0.0000 -0.8315
vn 0.7071 -0.0000 -0.7071
vn 0.8315 -0.0000 -0.5556
vn 0.9239 -0.0000 -0.3827
vn 0.9808 -0.0000 -0.1951
vn 1.0000 -0.0000 -0.0000
vn 0.9808 -0.0000 0.1951
vn 0.9239 -0.0000 0.3827
vn 0.8315 -0.0000 0.5556
vn 0.7071 -0.0000 0.7071
vn 0.5556 -0.0000 0.8315
vn 0.3827 -0.0000 0.9239
vn 0.1951 -0.0000 0.9808
vn -0.0000 -0.0000 1.0000
vn -0.1951 -0.0000 0.9808
vn -0.3827 -0.0000 0.9239
vn -0.5556 -0.0000 0.8315
vn -0.7071 -0.0000 0.7071
vn -0.8315 -0.0000 0.5556
vn -0.9239 -0.0000 0.3827
vn -0.9808 -0.0000 0.1951
vn -1.0000 -0.0000 -0.0000
vn -0.9808 -0.0000 -0.1951
vn -0.9239 -0.0000 -0.3827
vn -0.8315 -0.0000 -0.5556
vn -0.7071 -0.0000 -0.7071
vn -0.5556 -0.0000 -0.8315
vn -0.3827 -0.0000 -0.9239
vn -0.1951 -0.0000 -0.9808
vn -0.0000 -1.0000 -0.0000
vn 0.5982 -0.0000 -0.8013
vn -0.9550 -0.0000 0.2966
vn 0.9958 -0.0000 -0.0916
vn -0.8595 -0.0000 -0.5112
vn -0.0130 -0.0000 0.9999
vn 0.2206 -0.0000 -0.9754
vn -0.7518 -0.0000 0.6594
vn 0.9470 -0.0000 0.3213
vn -0.5772 -0.0000 -0.8166
vn 0.3948 -0.0000 0.9187
vn -0.4099 -0.0000 0.9121
vn -0.2045 -0.0000 -0.9789
vn 0.7408 -0.0000 0.6717
vn -0.9941 -0.0000 -0.1080
vn 0.8678 -0.0000 -0.4970
vt 0.000122 0.207356
vt 0.000029 0.008940
vt 0.026492 0.008940
vt 0.026585 0.207356
vt 0.000264 0.999971
vt 0.000264 0.801835
vt 0.026727 0.801835
vt 0.026727 0.999971
vt 0.000246 0.603795
vt 0.026709 0.603795
vt 0.000197 0.405659
vt 0.026660 0.405659
vt 0.037575 0.612170
vt 0.037589 0.793457
vt 0.037447 0.214088
vt 0.037521 0.398910
vt 0.037599 0.810223
vt 0.037591 0.991596
vt 0.037523 0.414034
vt 0.037570 0.595405
vt 0.037354 0.017331
vt 0.037443 0.198947
vt 0.064039 0.612109
vt 0.064053 0.793447
vt 0.064062 0.810166
vt 0.064054 0.991582
vt 0.063822 0.017308
vt 0.063923 0.198931
vt 0.063914 0.214073
vt 0.063998 0.398915
vt 0.063989 0.414001
vt 0.064041 0.595409
vt 0.005524 0.000029
vt 0.020989 0.000029
vt 0.088549 0.035800
vt 0.787050 0.035800
vt 0.787050 0.037354
vt 0.088549 0.037354
vt 0.787050 0.038908
vt 0.088549 0.038908
vt 0.787050 0.040461
vt 0.088549 0.040461
vt 0.787050 0.042015
vt 0.088549 0.042015
vt 0.787050 0.043568
vt 0.088549 0.043568
vt 0.787050 0.045122
vt 0.088549 0.045122
vt 0.787050 0.046675
vt 0.088549 0.046675
vt 0.787050 0.048229
vt 0.088549 0.048229
vt 0.787050 0.049783
vt 0.088549 0.049783
vt 0.787050 0.051336
vt 0.088549 0.051336
vt 0.787050 0.052890
vt 0.088549 0.052890
vt 0.787050 0.054443
vt 0.088549 0.054443
vt 0.787050 0.055997
vt 0.088549 0.055997
vt 0.787050 0.057550
vt 0.088549 0.057550
vt 0.787050 0.059104
vt 0.088549 0.059104
vt 0.787050 0.060657
vt 0.088549 0.060658
vt 0.787050 0.062211
vt 0.088549 0.062211
vt 0.088549 0.012497
vt 0.787050 0.012497
vt 0.787050 0.014051
vt 0.088549 0.014051
vt 0.787050 0.015604
vt 0.088549 0.015604
vt 0.787050 0.017158
vt 0.088549 0.017158
vt 0.787050 0.018711
vt 0.088549 0.018711
vt 0.787050 0.020265
vt 0.088549 0.020265
vt 0.787050 0.021818
vt 0.088549 0.021818
vt 0.787050 0.023372
vt 0.088549 0.023372
vt 0.787050 0.024925
vt 0.088549 0.024925
vt 0.787050 0.026479
vt 0.088549 0.026479
vt 0.787050 0.028033
vt 0.088549 0.028033
vt 0.787050 0.029586
vt 0.088549 0.029586
vt 0.787050 0.031140
vt 0.088549 0.031140
vt 0.787050 0.032693
vt 0.088549 0.032693
vt 0.787050 0.034247
vt 0.088549 0.034247
vt 0.680130 0.217111
vt 0.802665 0.052259
vt 0.997314 0.117855
vt 0.995079 0.323247
vt 0.799048 0.384591
vt 0.073968 0.153846
vt 0.133966 0.070491
vt 0.231782 0.101794
vt 0.232237 0.204496
vt 0.134703 0.236665
vt 0.080097 0.260649
vt 0.585742 0.097588
vt 0.897075 0.528096
vt 0.583845 0.957225
vt 0.078925 0.791934
s 0
usemtl Material.002
f 7/1/1 1/2/1 2/3/1 8/4/1
f 3/5/2 4/6/2 11/7/2 12/8/2
f 4/6/3 5/9/3 10/10/3 11/7/3
f 5/9/4 6/11/4 9/12/4 10/10/4
f 6/11/5 7/1/5 8/4/5 9/12/5
f 11/7/6 10/10/6 15/13/6 16/14/6
f 9/12/7 8/4/7 13/15/7 14/16/7
f 12/8/8 11/7/8 21/17/8 22/18/8
f 10/10/9 9/12/9 19/19/9 20/20/9
f 8/4/10 2/3/10 17/21/10 18/22/10
f 16/14/11 15/13/11 25/23/11 26/24/11
f 22/18/12 21/17/12 31/25/12 32/26/12
f 18/22/13 17/21/13 27/27/13 28/28/13
f 14/16/14 13/15/14 23/29/14 24/30/14
f 20/20/15 19/19/15 29/31/15 30/32/15
f 2/3/16 1/2/16 33/33/16 34/34/16
s 1
f 35/35/17 36/36/17 38/37/18 37/38/18
f 37/38/18 38/37/18 40/39/19 39/40/19
f 39/40/19 40/39/19 42/41/20 41/42/20
f 41/42/20 42/41/20 44/43/21 43/44/21
f 43/44/21 44/43/21 46/45/22 45/46/22
f 45/46/22 46/45/22 48/47/23 47/48/23
f 47/48/23 48/47/23 50/49/24 49/50/24
f 49/50/24 50/49/24 52/51/25 51/52/25
f 51/52/25 52/51/25 54/53/26 53/54/26
f 53/54/26 54/53/26 56/55/27 55/56/27
f 55/56/27 56/55/27 58/57/28 57/58/28
f 57/58/28 58/57/28 60/59/29 59/60/29
f 59/60/29 60/59/29 62/61/30 61/62/30
f 61/62/30 62/61/30 64/63/31 63/64/31
f 63/64/31 64/63/31 66/65/32 65/66/32
f 65/66/32 66/65/32 68/67/33 67/68/33
f 67/68/33 68/67/33 70/69/34 69/70/34
f 69/71/34 70/72/34 72/73/35 71/74/35
f 71/74/35 72/73/35 74/75/36 73/76/36
f 73/76/36 74/75/36 76/77/37 75/78/37
f 75/78/37 76/77/37 78/79/38 77/80/38
f 77/80/38 78/79/38 80/81/39 79/82/39
f 79/82/39 80/81/39 82/83/40 81/84/40
f 81/84/40 82/83/40 84/85/41 83/86/41
f 83/86/41 84/85/41 86/87/42 85/88/42
f 85/88/42 86/87/42 88/89/43 87/90/43
f 87/90/43 88/89/43 90/91/44 89/92/44
f 89/92/44 90/91/44 92/93/45 91/94/45
f 91/94/45 92/93/45 94/95/46 93/96/46
f 93/96/46 94/95/46 96/97/47 95/98/47
f 95/98/47 96/97/47 98/99/48 97/100/48
f 97/100/48 98/99/48 36/36/17 35/35/17
s 0
usemtl Material.003
f 100/101/8 101/102/8 102/103/8 103/104/8 99/105/8
f 105/106/8 106/107/8 107/108/8 108/109/8 104/110/8
f 109/101/49 110/105/49 113/104/49 112/103/49 111/102/49
f 114/106/49 115/110/49 118/109/49 117/108/49 116/107/49
f 120/111/8 121/112/8 122/113/8 123/114/8 119/115/8
f 125/111/49 124/115/49 128/114/49 127/113/49 126/112/49
usemtl Material.004
f 103/104/50 113/104/50 110/105/50 99/105/50
f 100/101/51 109/101/51 111/102/51 101/102/51
f 107/108/52 117/108/52 118/109/52 108/109/52
f 104/110/53 115/110/53 114/106/53 105/106/53
f 101/102/54 111/102/54 112/103/54 102/103/54
f 108/109/55 118/109/55 115/110/55 104/110/55
f 105/106/56 114/106/56 116/107/56 106/107/56
f 102/103/57 112/103/57 113/104/57 103/104/57
f 99/105/58 110/105/58 109/101/58 100/101/58
f 106/107/59 116/107/59 117/108/59 107/108/59
f 120/111/60 125/111/60 126/112/60 121/112/60
f 123/114/61 128/114/61 124/115/61 119/115/61
f 121/112/62 126/112/62 127/113/62 122/113/62
f 119/115/63 124/115/63 125/111/63 120/111/63
f 122/113/64 127/113/64 128/114/64 123/114/64
