<?xml version="1.0" encoding="UTF-8" standalone="no"?>
<!-- Creator: CorelDRAW 2019 (64-Bit) -->

<svg
   xml:space="preserve"
   width="8.26772in"
   height="14.6161in"
   version="1.1"
   style="shape-rendering:geometricPrecision; text-rendering:geometricPrecision; image-rendering:optimizeQuality; fill-rule:evenodd; clip-rule:evenodd"
   viewBox="0 0 8262.11 14606.22"
   id="svg68"
   sodipodi:docname="messenger_elf.svg"
   inkscape:version="1.3 (0e150ed6c4, 2023-07-21)"
   inkscape:export-filename="messenger_elf.png"
   inkscape:export-xdpi="150"
   inkscape:export-ydpi="150"
   xmlns:inkscape="http://www.inkscape.org/namespaces/inkscape"
   xmlns:sodipodi="http://sodipodi.sourceforge.net/DTD/sodipodi-0.dtd"
   xmlns="http://www.w3.org/2000/svg"
   xmlns:svg="http://www.w3.org/2000/svg"><sodipodi:namedview
   id="namedview68"
   pagecolor="#ffffff"
   bordercolor="#666666"
   borderopacity="1.0"
   inkscape:showpageshadow="2"
   inkscape:pageopacity="0.0"
   inkscape:pagecheckerboard="0"
   inkscape:deskcolor="#d1d1d1"
   inkscape:document-units="in"
   inkscape:export-bgcolor="#ffffffff"
   inkscape:zoom="0.70710678"
   inkscape:cx="504.16713"
   inkscape:cy="805.39462"
   inkscape:window-width="1904"
   inkscape:window-height="1006"
   inkscape:window-x="8"
   inkscape:window-y="34"
   inkscape:window-maximized="1"
   inkscape:current-layer="body" />&#10; <defs
   id="defs1">&#10;  <style
   type="text/css"
   id="style1">&#10;   <![CDATA[
    .str1 {stroke:black;stroke-miterlimit:2.61313}
    .str0 {stroke:#EF0085;stroke-miterlimit:2.61313}
    .str12 {stroke:#F8DE89;stroke-miterlimit:2.61313}
    .str4 {stroke:#926B44;stroke-width:27.76;stroke-miterlimit:2.61313}
    .str2 {stroke:#C9A887;stroke-width:27.76;stroke-miterlimit:2.61313}
    .str9 {stroke:#482620;stroke-width:27.76;stroke-miterlimit:2.61313}
    .str10 {stroke:#F8DE89;stroke-width:47.91;stroke-miterlimit:2.61313}
    .str8 {stroke:#F1CAB1;stroke-width:13.88;stroke-miterlimit:2.61313}
    .str11 {stroke:#F8DE89;stroke-width:15.97;stroke-miterlimit:2.61313}
    .str3 {stroke:#373435;stroke-width:6.94;stroke-miterlimit:2.61313}
    .str7 {stroke:#373435;stroke-width:6.94;stroke-miterlimit:2.61313}
    .str5 {stroke:#926B44;stroke-width:6.94;stroke-miterlimit:2.61313}
    .str6 {stroke:#EF0085;stroke-width:6.94;stroke-miterlimit:2.61313}
    .str13 {stroke:#F8DE89;stroke-miterlimit:2.61313}
    .fil0 {fill:none}
    .fil9 {fill:#FEFEFE}
    .fil4 {fill:#A9ABAE}
    .fil10 {fill:#727376}
    .fil2 {fill:#606062}
    .fil8 {fill:#373435}
    .fil14 {fill:#F58634}
    .fil18 {fill:#2E2B2C}
    .fil17 {fill:#454142}
    .fil16 {fill:#723D34}
    .fil7 {fill:#926B44}
    .fil12 {fill:#BF9973}
    .fil11 {fill:#C9A887}
    .fil1 {fill:#F7E3D5}
    .fil20 {fill:#F8DE89}
    .fil3 {fill:#FAC9C1}
    .fil13 {fill:#C9A887}
    .fil5 {fill:#D2B79C}
    .fil19 {fill:#482620}
    .fil15 {fill:#F7E3D5}
    .fil6 {fill:#BF9973}
   ]]>&#10;  </style>&#10; </defs>&#10; <g
   id="Layer_x0020_1"
   inkscape:label="Layer 1">&#10;  <metadata
   id="CorelCorpID_0Corel-Layer" />&#10;  <rect
   class="fil0"
   width="8262.11"
   height="14606.22"
   id="rect1" />&#10;  <path
   class="fil1"
   d="M4612.97 9169.73l0 -1245.7c15.97,-1549.14 -15.97,-1740.78 -511.05,-1884.52l-1708.84 0c-431.2,127.76 -511.06,191.65 -511.06,1884.52l0 1245.7 2730.95 0z"
   id="path1" />&#10;  <path
   class="fil2"
   d="M2840.25 7333.12c0,0 0,0 0,0 0,191.65 -79.85,335.38 -175.68,335.38 0,0 0,0 0,0 -95.82,0 -159.7,-143.74 -159.7,-335.38 0,0 0,0 0,0 0,-175.67 63.88,-335.38 159.7,-335.38 0,0 0,0 0,0 95.82,0 175.68,159.71 175.68,335.38zm1165.85 0c0,0 0,0 0,0 0,191.65 -79.85,335.38 -175.68,335.38 0,0 0,0 0,0 -95.82,0 -159.7,-143.74 -159.7,-335.38 0,0 0,0 0,0 0,-175.67 63.88,-335.38 159.7,-335.38 0,0 0,0 0,0 95.82,0 175.68,159.71 175.68,335.38z"
   id="path2" />&#10;  <path
   class="fil3"
   d="M2488.9 7668.51c0,47.91 -63.88,95.82 -143.73,95.82 0,0 0,0 0,0 0,0 0,0 0,0 -95.82,0 -159.71,-47.91 -159.71,-95.82 0,-47.91 63.88,-95.82 159.71,-95.82 0,0 0,0 0,0 0,0 0,0 0,0 79.85,0 143.73,47.91 143.73,95.82zm1804.66 0c0,47.91 -63.88,95.82 -143.73,95.82 0,0 0,0 0,0 0,0 0,0 0,0 -63.88,0 -127.76,-47.91 -127.76,-95.82 0,-47.91 63.88,-95.82 127.76,-95.82 0,0 0,0 0,0 0,0 0,0 0,0 79.85,0 143.73,47.91 143.73,95.82z"
   id="path3" />&#10;  <polygon
   class="fil4"
   points="1882.02,9169.73 2488.9,9169.73 2488.9,9153.76 2840.25,9153.76 2856.22,9169.73 3654.75,9169.73 3670.72,9153.76 4022.07,9153.76 4022.07,9169.73 4612.97,9169.73 4612.97,12220.1 5906.58,12204.13 5906.58,14184.47 4533.12,14184.47 4533.12,12283.98 1961.87,12283.98 1961.87,14184.47 588.41,14184.47 588.41,12204.13 1866.05,12204.13 "
   id="polygon3" />&#10;  <path
   class="fil0 str0"
   d="M684.23 12954.74l-15.97 15.97 -15.97 15.97 0 431.21 15.97 0 15.97 15.97m5126.53 -479.12l15.97 15.97 15.97 15.97 0 431.21 -15.97 0 -15.97 15.97m-926.29 654.79l0 15.97 15.97 31.94 351.35 0 15.97 -31.94 15.97 -15.97m-3673.21 0l0 15.97 -15.97 31.94 -351.35 0 -15.97 -31.94 -15.97 -15.97m303.44 -1772.73l-15.97 -31.94 0 -15.97 -351.35 0 -15.97 15.97 -15.97 15.97m3864.86 15.97l15.97 -31.94 0 -15.97 367.32 0 0 15.97 15.97 15.97m-2299.75 -6180.58l79.85 79.85 191.65 0 79.85 -79.85m207.61 3066.34l15.97 -15.97 15.97 -15.97 351.35 0 0 15.97 15.97 15.97m-1565.11 0l15.97 -15.97 0 -15.97 351.35 0 15.97 15.97 15.97 15.97m750.61 -638.82c0,0 0,0 0,0 0,207.62 -159.71,367.32 -367.32,367.32 0,0 0,0 0,0 -207.61,0 -367.32,-159.7 -367.32,-367.32 0,0 0,0 0,0 0,0 0,0 0,0 0,-207.61 159.71,-383.29 367.32,-383.29 0,0 0,0 0,0 207.61,0 367.32,175.68 367.32,383.29 0,0 0,0 0,0z"
   id="path4" />&#10;  <path
   class="fil0 str1"
   d="M4533.12 10990.37l-2571.25 0m2060.2 -1820.64l511.05 0m-1676.9 0l798.53 0m-1692.87 0l527.02 0m2044.22 -1245.7l-2571.25 0m2571.25 670.76l0 -367.32m-3864.86 4743.24l0 -686.73m558.97 1820.64l-558.97 0 0 -686.73m1213.76 686.73l-271.5 0m351.35 -1820.64l0 1820.64m2571.25 0l0 -1820.64m351.35 1820.64l-271.5 0m1213.76 -686.73l0 686.73 -558.97 0m95.82 -1820.64l463.14 0 0 686.73m-5158.47 -686.73l463.15 0m367.32 0l463.15 0 2571.25 0 463.15 0m-3034.39 -814.5l0 367.32m2571.25 -367.32l0 367.32m-1597.05 -5717.44l143.73 0 -143.73 0zm495.09 0l143.73 0 -143.73 0zm-1469.29 2108.1l0 367.32 0 -367.32zm0 1644.96l0 431.2 0 -431.2zm2571.25 0l0 431.2 0 -431.2z"
   id="path5" />&#10;  <path
   class="fil0 str1"
   d="M1019.61 10080.05l495.09 0m-1261.67 0l511.06 0m-511.06 -622.85l511.06 0m255.53 0l495.09 0m-1261.67 1293.61l511.06 0m255.53 0l495.09 0"
   id="path6" />&#10;  <path
   class="fil0 str1"
   d="M588.41 7812.24l495.09 0m-495.09 -1501.22l495.09 0m-495.09 -574.94l495.09 0m-495.09 -1517.2l495.09 0"
   id="path7" />&#10;  <path
   class="fil0 str1"
   d="M4421.32 4602.17l-2315.72 0m-191.65 -718.67l2714.98 0m-2714.98 -2028.25l2714.98 0 0 1421.37 -2714.98 0 0 -1421.37z"
   id="path8" />&#10;  <g
   id="body"
   transform="rotate(120,8871.378,12337.68)">&#10;   &#10;   &#10;   &#10;   &#10;   &#10;   &#10;   &#10;   &#10;   &#10;   &#10;   &#10;   &#10;   &#10;   &#10;   &#10;   &#10;   &#10;   &#10;   &#10;   &#10;   &#10;   &#10;   &#10;   &#10;   &#10;   &#10;   &#10;   &#10;   &#10;   &#10;   &#10;   &#10;   &#10;  <rect
   style="font-variation-settings:normal;opacity:1;vector-effect:none;fill:#d2b79c;fill-opacity:1;fill-rule:evenodd;stroke:none;stroke-width:1.32687;stroke-linecap:butt;stroke-linejoin:miter;stroke-miterlimit:4;stroke-dasharray:none;stroke-dashoffset:0;stroke-opacity:1;-inkscape-stroke:none;stop-color:#000000;stop-opacity:1"
   id="rect70"
   width="6337.8149"
   height="2116.4023"
   x="-938.68439"
   y="-19020.16"
   transform="rotate(150)" /><rect
   style="font-variation-settings:normal;opacity:1;vector-effect:none;fill:#bf9973;fill-opacity:1;fill-rule:evenodd;stroke:none;stroke-width:1.40325;stroke-linecap:butt;stroke-linejoin:miter;stroke-miterlimit:4;stroke-dasharray:none;stroke-dashoffset:0;stroke-opacity:1;-inkscape-stroke:none;stop-color:#000000;stop-opacity:1"
   id="rect72"
   width="6171.7314"
   height="146.41626"
   x="-860.13361"
   y="-17625.158"
   transform="rotate(150)" /><path
   id="rect68"
   style="font-variation-settings:normal;opacity:1;vector-effect:none;fill:none;fill-opacity:1;stroke:#000000;stroke-width:1.33183;stroke-linecap:butt;stroke-linejoin:miter;stroke-miterlimit:2.61313;stroke-dasharray:none;stroke-dashoffset:0;stroke-opacity:1;-inkscape-stroke:none;stop-color:#000000;stop-opacity:1"
   d="m 6064.9564,18370.522 -1165.297,672.785 -959.004,-1661.042 1165.298,-672.785 z"
   sodipodi:nodetypes="ccccc" /><path
   id="rect68-3"
   style="font-variation-settings:normal;clip-rule:evenodd;vector-effect:none;fill:none;fill-opacity:1;fill-rule:evenodd;stroke:#000000;stroke-width:1.33183;stroke-linecap:butt;stroke-linejoin:miter;stroke-miterlimit:2.61313;stroke-dasharray:none;stroke-dashoffset:0;stroke-opacity:1;-inkscape-stroke:none;image-rendering:optimizeQuality;shape-rendering:geometricPrecision;text-rendering:geometricPrecision;stop-color:#000000"
   d="m 8709.2245,16843.811 -1165.2961,672.784 -959.006,-1661.041 1165.298,-672.785 z"
   sodipodi:nodetypes="ccccc" /><path
   id="rect69-3"
   style="font-variation-settings:normal;opacity:1;vector-effect:none;fill:none;fill-opacity:1;stroke:#000000;stroke-width:1.28274;stroke-linecap:butt;stroke-linejoin:miter;stroke-miterlimit:2.61313;stroke-dasharray:none;stroke-dashoffset:0;stroke-opacity:1;-inkscape-stroke:none;stop-color:#000000;stop-opacity:1"
   d="m 7543.9284,17516.595 -1479.024,853.914 -959.017,-1661.07 1479.021,-853.912 z"
   sodipodi:nodetypes="ccccc" /><path
   id="rect69-3-0-0"
   style="font-variation-settings:normal;clip-rule:evenodd;vector-effect:none;fill:none;fill-opacity:1;fill-rule:evenodd;stroke:#000000;stroke-width:1.28274;stroke-linecap:butt;stroke-linejoin:miter;stroke-miterlimit:2.61313;stroke-dasharray:none;stroke-dashoffset:0;stroke-opacity:1;-inkscape-stroke:none;image-rendering:optimizeQuality;shape-rendering:geometricPrecision;text-rendering:geometricPrecision;stop-color:#000000"
   d="m 10188.248,15989.898 -1479.0235,853.913 -959.0181,-1661.069 1479.0211,-853.913 z"
   sodipodi:nodetypes="ccccc" /><path
   d="m 9984.7365,15664.591 -2.773,-31.974 14.598,-17.375 -302.978,-521.375 -31.976,2.775 -31.973,2.776"
   id="path72"
   style="font-variation-settings:normal;opacity:1;vector-effect:none;fill:none;fill-opacity:1;stroke:#ef0085;stroke-width:1.42106;stroke-linecap:butt;stroke-linejoin:miter;stroke-miterlimit:2.61313;stroke-dasharray:none;stroke-dashoffset:0;stroke-opacity:1;-inkscape-stroke:none;stop-color:#000000;stop-opacity:1" /><path
   d="m 6451.0534,15925.061 16.924,61.917 -303.923,166.259 -59.13,-33.746"
   id="path71"
   style="font-variation-settings:normal;opacity:1;vector-effect:none;fill:none;fill-opacity:1;stroke:#ef0085;stroke-width:1.42106;stroke-linecap:butt;stroke-linejoin:miter;stroke-miterlimit:2.61313;stroke-dasharray:none;stroke-dashoffset:0;stroke-opacity:1;-inkscape-stroke:none;stop-color:#000000;stop-opacity:1" /><path
   d="m 5543.8724,16459.002 -2.787,50.67 -303.916,166.246 -39.42,-22.497"
   id="path11"
   style="font-variation-settings:normal;opacity:1;vector-effect:none;fill:none;fill-opacity:1;stroke:#ef0085;stroke-width:1.42106;stroke-linecap:butt;stroke-linejoin:miter;stroke-miterlimit:2.61313;stroke-dasharray:none;stroke-dashoffset:0;stroke-opacity:1;-inkscape-stroke:none;stop-color:#000000;stop-opacity:1" /><path
   class="fil0 str2"
   d="m 6590.8714,18066.332 c -24.556,-340.205 -127.182,-742.208 -212.956,-1080.535 -40.457,-108.04 -188.719,-361.901 -444.782,-761.562"
   id="path14" /><circle
   class="fil7"
   transform="rotate(149.71323)"
   r="38.823318"
   id="circle14"
   cx="2912.8975"
   cy="-18155.871"
   style="stroke-width:1.42106" /><circle
   class="fil7"
   transform="matrix(0.863512,-0.50432829,-0.50432829,-0.863512,0,0)"
   r="38.823303"
   id="circle15"
   cx="-3493.4333"
   cy="-18155.805"
   style="stroke-width:1.42106" /><circle
   class="fil7"
   transform="matrix(0.863512,-0.50432829,-0.50432829,-0.863512,0,0)"
   r="38.823303"
   id="circle16"
   cx="-3493.449"
   cy="-17752.482"
   style="stroke-width:1.42106" /><circle
   class="fil7"
   transform="matrix(0.863512,-0.50432829,-0.50432829,-0.863512,0,0)"
   r="38.823303"
   id="circle17"
   cx="-3493.447"
   cy="-17262.674"
   style="stroke-width:1.42106" /><circle
   class="fil7"
   transform="matrix(0.863512,-0.50432829,-0.50432829,-0.863512,0,0)"
   r="38.823303"
   id="circle18"
   cx="-3147.5876"
   cy="-17752.496"
   style="stroke-width:1.42106" /><circle
   class="fil7"
   transform="matrix(0.863512,-0.50432829,-0.50432829,-0.863512,0,0)"
   r="38.823303"
   id="circle19"
   cx="-3147.5876"
   cy="-17262.689"
   style="stroke-width:1.42106" /><path
   class="fil8 str3"
   d="m 6819.6054,17932.739 c -12.509,-88.031 -38.86,-126.778 -79.081,-116.222 -10.371,2.72 -21.66,8.712 -33.875,17.989 -14.076,6.086 -24.85,12.978 -32.312,20.665 -28.946,29.849 -8.164,71.847 62.37,125.977 l 82.904,-48.42 z"
   id="path19" /><path
   class="fil8 str3"
   d="m 6721.1314,17735.502 c -65.603,-29.799 -98.417,-44.696 -98.417,-44.696 0,0 -3.145,35.903 -9.423,107.683 0,0 20.352,18.896 61.046,56.682 7.469,-7.698 18.223,-14.586 32.312,-20.665 12.215,-9.277 23.504,-15.269 33.875,-17.989 -12.928,-54.01 -19.393,-81.015 -19.393,-81.015 z"
   id="path20" /><path
   class="fil9"
   d="m 6966.5004,17846.933 c -106.563,-48.397 -188.351,-85.535 -245.369,-111.431 0,0 6.465,27.005 19.393,81.015 40.221,-10.556 66.578,28.179 79.081,116.222 l 146.887,-85.795 z"
   id="path21"
   style="stroke-width:1.42106" /><path
   class="fil9"
   d="m 6736.7074,17981.148 c -70.529,-54.141 -91.316,-96.128 -62.37,-125.977 -40.694,-37.786 -61.046,-56.682 -61.046,-56.682 -5.342,61.138 -12.969,148.33 -22.88,261.543 0.162,2.09 0.322,4.192 0.467,6.288 z"
   id="path22"
   style="stroke-width:1.42106" /><path
   class="fil10"
   d="m 6966.5004,17846.933 c -207.01,-137.301 -381.609,-293.294 -471.457,-378.323 44.566,201.732 81.462,405.633 95.368,591.422 9.917,-113.226 17.538,-200.405 22.88,-261.543 6.285,-71.793 9.423,-107.683 9.423,-107.683 0,0 32.805,14.909 98.417,44.696 57.018,25.896 138.81,63.053 245.369,111.431 z"
   id="path23"
   style="stroke-width:1.42106" /><path
   class="fil11"
   d="m 7055.5634,17565.499 c -133.289,-39.988 -363.253,-168.692 -585.766,-207.784 8.604,36.817 17.052,73.821 25.246,110.895 89.854,85.017 264.458,241.029 471.457,378.323 l 128.251,-74.9 -39.196,-206.522 z"
   id="path24"
   style="stroke-width:1.42106" /><path
   class="fil11"
   d="m 6590.4114,18060.032 c -13.906,-185.789 -50.809,-389.678 -95.368,-591.422 -8.188,-37.086 -16.642,-74.078 -25.246,-110.895 -4.138,-17.661 -8.295,-35.265 -12.499,-52.815 l -5.816,-9.962 c -117.577,221.457 -114.877,552.788 -149.662,711.789 l 142.887,125.984 c -2.625,6.289 -4.888,12.607 -6.809,18.923 l 1.751,3.011 150.15,-87.697 c 0.203,-2.306 0.394,-4.618 0.603,-6.905 z"
   id="path25"
   style="stroke-width:1.42106" /><rect
   class="fil6 str4"
   transform="rotate(149.71323)"
   width="177.58965"
   height="241.82602"
   rx="46.354912"
   ry="70.576759"
   id="rect25"
   x="3288.2471"
   y="-17660.258" /><rect
   class="fil12 str5"
   transform="rotate(149.95776)"
   width="569.53186"
   height="285.78909"
   rx="62.86763"
   ry="62.86763"
   id="rect26"
   x="-251.62074"
   y="-17698.9" /><circle
   class="fil7"
   transform="rotate(149.95776)"
   r="38.823318"
   id="circle26"
   cx="-149.87074"
   cy="-17556.002"
   style="stroke-width:1.42106" /><circle
   class="fil7"
   transform="rotate(149.95776)"
   r="38.823318"
   id="circle27"
   cx="218.03941"
   cy="-17556.002"
   style="stroke-width:1.42106" /><polygon
   class="fil10"
   points="7872.26,12349.68 7767.78,12296.18 7663.31,12242.69 7767.78,12189.19 7872.26,12135.69 7872.26,12242.69 "
   id="polygon27"
   transform="matrix(-0.71143638,-1.2301487,1.2301487,-0.71143638,-962.30296,33144.314)" /><path
   class="fil10"
   d="m 9696.1475,16274.317 c -264.413,-95.293 -419.496,-1.482 -470.593,272.158 z"
   id="path27"
   style="stroke-width:1.42106" /><path
   class="fil13"
   d="m 9740.4045,16015.959 c -477.62,-240.419 -731.429,-93.813 -761.4,439.801 l 0.837,-0.483 7.933,13.716 -1.588,0.918 148.804,128.941 90.577,-52.383 c 51.096,-273.639 206.18,-367.45 470.593,-272.16 l 87.145,-50.397 -36.163,-193.184 -0.05,-0.173 -8.003,-13.84 1.315,-0.761 z"
   id="path28"
   style="stroke-width:1.42106" /><path
   class="fil13"
   d="m 10045.856,16216.921 c -52.3195,-42.907 -107.9645,-83.664 -165.6705,-120.751 -2.522,-1.617 -5.044,-3.233 -7.566,-4.836 -6.144,-3.895 -12.303,-7.763 -18.486,-11.574 -38.382,-23.689 -77.611,-45.688 -117.275,-65.586 l 41.632,210.743 162.355,-4.856 45.284,-1.356 59.7545,-1.785 z"
   id="path29"
   inkscape:transform-center-x="165.00384"
   inkscape:transform-center-y="48.352903"
   style="stroke-width:1.42106" /><path
   class="fil13"
   d="m 9006.5175,16833.536 c -13.03,-66.385 -27.736,-137.628 -33.102,-206.034 -0.234,-2.984 -0.465,-5.968 -0.678,-8.948 -0.536,-7.258 -1.011,-14.519 -1.444,-21.769 -2.711,-45.022 6.356,-88.842 7.6,-133.212 l 156.07,135.261 -128.452,234.69 z"
   id="path30"
   style="stroke-width:1.42106" /><path
   class="fil13"
   d="m 6334.9274,18325.044 109.767,-192.34 -140.135,-123.547 c -5.267,122.13 4.854,227.419 30.368,315.887 z"
   id="path31"
   style="stroke-width:1.42106" /><path
   class="fil13"
   d="m 7347.1034,17765.209 c -72.549,-68.924 -177.517,-139.84 -291.548,-199.698 l 39.209,206.529 z"
   id="path32"
   style="stroke-width:1.42106" /></g>&#10;  <path
   class="fil14"
   d="M3028.55 7593.96c0,101.89 101.89,203.78 216.51,203.78 127.36,0 229.25,-101.89 229.25,-203.78 0,-25.47 -50.95,-25.47 -50.95,0 0,101.89 -76.42,178.3 -178.3,178.3 -89.15,0 -165.57,-76.41 -165.57,-178.3 0,-25.47 -50.94,-25.47 -50.94,0z"
   id="path33" />&#10;  <path
   class="fil15"
   d="M4533.12 12283.98l0 1820.64 79.85 0 271.5 0 0 -23.15c-32.71,-523.44 -149.83,-1122.6 -351.35,-1797.49z"
   id="path34" />&#10;  <path
   class="fil15"
   d="M1961.87 12283.98l0 1820.64 -79.85 0 -271.5 0 0 -23.15c32.71,-523.44 149.83,-1122.6 351.35,-1797.49z"
   id="path35" />&#10;  <path
   class="fil0 str6"
   d="M4628.01 13510.37c-21.29,10.65 -31.94,15.97 -31.94,15.97 0,234.23 0,351.35 0,351.35 21.29,10.65 31.94,15.97 31.94,15.97"
   id="path36" />&#10;  <path
   class="fil0 str6"
   d="M1866.98 13510.37c21.29,10.65 31.94,15.97 31.94,15.97 0,234.23 0,351.35 0,351.35 -21.29,10.65 -31.94,15.97 -31.94,15.97"
   id="path37" />&#10;  <g
   id="_1928620948800">&#10;   <g
   id="g40">&#10;    <path
   class="fil15"
   d="M6445.39 13395.4c42.77,222.33 97.68,442.63 338.67,526.91l0 -349.84c12.32,-131.08 -367.45,-334.76 -387.23,-293.55 8.96,25.99 40.94,76.84 48.56,116.48z"
   id="path38" />&#10;    <rect
   class="fil0 str7"
   x="6784.07"
   y="13572.47"
   width="160.54"
   height="349.84"
   id="rect38" />&#10;    <path
   class="fil0 str8"
   d="M6488.58 13360.57c70.79,112.43 102.02,99.94 102.02,99.94 0,0 72.86,-2.08 104.09,139.49 31.23,141.57 89.38,147.4 89.38,147.4"
   id="path39" />&#10;    <path
   class="fil0 str8"
   d="M6784.07 13864.4c-68.56,-89.52 -83.13,-74.95 -83.13,-74.95 0,0 -112.42,-8.33 -170.72,-260.24"
   id="path40" />&#10;   </g>&#10;   <g
   id="g41">&#10;    <path
   class="fil15"
   d="M7443.82 13395.4c-42.77,222.33 -97.68,442.63 -338.67,526.91l0 -349.84c-12.32,-131.08 367.45,-334.76 387.23,-293.55 -8.96,25.99 -40.94,76.84 -48.56,116.48z"
   id="path41" />&#10;    <rect
   class="fil0 str7"
   x="6944.61"
   y="13572.47"
   width="160.54"
   height="349.84"
   id="rect41" />&#10;   </g>&#10;   <g
   id="g44">&#10;    <path
   class="fil15"
   d="M7443.82 13964.22c-42.77,222.33 -97.68,442.63 -338.67,526.91l0 -349.84c-12.32,-131.08 367.45,-334.76 387.23,-293.55 -8.96,25.99 -40.94,76.84 -48.56,116.48z"
   id="path42" />&#10;    <rect
   class="fil0 str7"
   x="6944.61"
   y="14141.29"
   width="160.54"
   height="349.84"
   id="rect42" />&#10;    <path
   class="fil0 str8"
   d="M7400.64 13929.38c-70.79,112.43 -102.02,99.94 -102.02,99.94 0,0 -72.86,-2.08 -104.09,139.49 -31.23,141.57 -89.38,147.4 -89.38,147.4"
   id="path43" />&#10;    <path
   class="fil0 str8"
   d="M7105.15 14433.21c68.56,-89.52 83.13,-74.95 83.13,-74.95 0,0 112.42,-8.33 170.72,-260.24"
   id="path44" />&#10;   </g>&#10;   <g
   id="g45">&#10;    <path
   class="fil15"
   d="M6445.39 13964.22c42.77,222.33 97.68,442.63 338.67,526.91l0 -349.84c12.32,-131.08 -367.45,-334.76 -387.23,-293.55 8.96,25.99 40.94,76.84 48.56,116.48z"
   id="path45" />&#10;    <rect
   class="fil0 str7"
   x="6784.07"
   y="14141.29"
   width="160.54"
   height="349.84"
   id="rect45" />&#10;   </g>&#10;  </g>&#10;  <path
   class="fil0 str1"
   d="M4533.12 12283.98l0 1820.64 79.85 0 303.44 287.47 910.32 0 0 -287.47 271.5 -175.68 0 -1453.32 -271.5 -191.65 0 -271.5 -990.17 0 -303.44 271.5 0 -447.18c95.82,31.94 191.65,0 207.62,-79.85l0 -191.65c0,-111.79 -111.79,-143.73 -207.62,-95.82l0 -1165.85c79.85,31.94 191.65,31.94 207.62,-95.82l0 -239.56c-15.97,-127.77 -111.79,-143.74 -207.62,-95.82l0 -1277.64c95.82,31.94 175.68,15.97 207.62,-95.82l0 -175.68c-15.97,-95.82 -95.82,-127.76 -207.62,-95.82l0 -303.44 -15.97 -1165.84c0,-303.44 -159.71,-638.82 -431.2,-638.82l-511.06 0 0 -654.79 -79.85 0 0 79.85 -479.12 0 0 -79.85 -79.85 0 0 654.79 -511.06 0c-287.47,0 -447.17,335.38 -447.17,638.82l-15.97 1165.84 0 303.44c-111.79,-31.94 -191.65,0 -207.62,95.82l0 175.68c31.94,111.79 111.79,127.76 207.62,95.82l0 1277.64c-95.82,-47.91 -191.65,-31.94 -207.62,95.82l0 239.56c15.97,127.76 127.76,127.76 207.62,95.82l0 1165.85c-95.82,-47.91 -207.62,-15.97 -207.62,95.82l0 191.65c15.97,79.85 111.79,111.79 207.62,79.85l0 447.18 -303.44 -271.5 -990.17 0 0 271.5 -271.5 191.65 0 1453.32 271.5 175.68 0 287.47 910.32 0 303.44 -287.47 79.86 0 0 -1820.64 2571.25 0z"
   id="path46" />&#10;  <g
   id="_1928603113648">&#10;   <g
   id="g49">&#10;    <path
   class="fil16"
   d="M173.17 8179.56l670.76 0 0 3760.34 -670.76 0 0 -3760.34zm766.59 0l654.79 0 0 3756.34 -654.79 0 0 -3756.34z"
   id="path47" />&#10;    <path
   class="fil17"
   d="M173.17 9198.52l175.68 0 319.41 0 175.68 0 0 1810.54 -670.76 0 0 -1810.54zm766.59 0l159.7 0 319.41 0 175.68 0 0 1810.97 -654.79 0 0 -1810.97z"
   id="path48" />&#10;    <path
   class="fil18"
   d="M173.17 10511.26l670.76 0 0 239.55 -670.76 0 0 -239.55zm766.59 0l654.79 0 0 239.55 -654.79 0 0 -239.55z"
   id="path49" />&#10;   </g>&#10;   <path
   class="fil0 str1"
   d="M764.08 8275.38l-511.06 0 0 3577.39 511.06 0 0 -3577.39zm255.53 0l495.09 0 0 3577.39 -495.09 0 0 -3577.39z"
   id="path50" />&#10;  </g>&#10;  <g
   id="_1928627223664"
   transform="matrix(1.4995224,0,0,1,-381.64693,-51.320036)">&#10;   <g
   id="g54">&#10;    <polygon
   class="fil1"
   points="1179.32,8179.56 1179.32,3835.58 508.56,3835.58 508.56,8179.56 "
   id="polygon50" />&#10;    <polygon
   class="fil5"
   points="1179.32,7812.24 1179.32,4218.88 508.56,4218.88 508.56,7812.24 "
   id="polygon51" />&#10;    <path
   class="fil0 str9"
   d="m 770.76,7278.05 c 0,178.06 0,356.12 0,534.19"
   id="path51" />&#10;    <circle
   class="fil19"
   cx="900.88"
   cy="7483.7002"
   r="41.639999"
   id="circle51" />&#10;    <circle
   class="fil19"
   cx="900.88"
   cy="7712.6499"
   r="41.639999"
   id="circle52" />&#10;    <path
   class="fil0 str9"
   d="m 770.76,4753.07 c 0,-178.06 0,-356.12 0,-534.19"
   id="path52" />&#10;    <circle
   class="fil19"
   cx="900.88"
   cy="4547.4199"
   r="41.639999"
   id="circle53" />&#10;    <circle
   class="fil19"
   cx="900.88"
   cy="4318.4702"
   r="41.639999"
   id="circle54" />&#10;   </g>&#10;   <polygon
   class="fil0 str1"
   points="843.93,8131.65 939.76,7924.03 1083.49,8131.65 1083.49,3883.5 939.76,4091.11 843.93,3883.5 748.11,4091.11 588.41,3883.5 588.41,8131.65 748.11,7924.03 "
   id="polygon54" />&#10;  </g>&#10;  <g
   id="_1929680873088">&#10;   <g
   id="g68">&#10;    <polygon
   class="fil17"
   points="1850.08,5320.84 4692.83,5320.84 4485.21,4554.26 4692.83,3867.53 4692.83,3324.53 5379.56,3324.53 5363.59,1743.45 4692.83,1743.45 4692.83,1056.72 1834.11,1056.72 1834.11,1759.42 1179.32,1759.42 1163.34,3308.56 1850.08,3308.56 1850.08,3867.53 2041.72,4554.26 "
   id="polygon55" />&#10;    <polygon
   class="fil0 str10"
   points="1913.96,5304.87 2105.61,4602.17 4421.32,4602.17 4628.94,5304.87 "
   id="polygon56" />&#10;    <polyline
   class="fil0 str10"
   points="4628.94,3883.5 4421.32,4602.17 2105.61,4602.17 1913.96,3883.5 "
   id="polyline56" />&#10;    <path
   class="fil0 str10"
   d="M4628.94 1152.54l-2714.98 15.97m-670.76 686.73l0 1421.37m4040.53 0l0 -1421.37"
   id="path56" />&#10;    <polygon
   class="fil0 str11"
   points="1913.96,3276.62 4628.94,3276.62 4628.94,1855.24 1913.96,1855.24 "
   id="polygon57" />&#10;    <line
   class="fil0 str11"
   x1="4628.94"
   y1="2334.36"
   x2="5283.73"
   y2="2334.36"
   id="line57" />&#10;    <line
   class="fil0 str11"
   x1="4628.94"
   y1="2573.91"
   x2="5283.73"
   y2="2573.91"
   id="line58" />&#10;    <line
   class="fil0 str11"
   x1="4612.97"
   y1="2829.44"
   x2="5283.73"
   y2="2829.44"
   id="line59" />&#10;    <path
   class="fil20"
   d="M3303.39 3484.23c0,15.97 -31.94,63.89 -31.94,63.89 0,0 -15.97,-47.91 -31.94,-63.89 -15.97,-15.97 -47.91,-47.91 -47.91,-47.91 0,0 31.94,-31.94 47.91,-47.91 15.97,-15.97 31.94,-63.88 31.94,-63.88 0,0 31.94,47.91 31.94,63.88 15.97,15.97 47.91,47.91 47.91,47.91 0,0 -31.94,31.94 -47.91,47.91z"
   id="path59" />&#10;    <line
   class="fil0 str11"
   x1="1913.96"
   y1="2334.36"
   x2="1259.17"
   y2="2334.36"
   id="line60" />&#10;    <line
   class="fil0 str11"
   x1="1913.96"
   y1="2573.91"
   x2="1259.17"
   y2="2573.91"
   id="line61" />&#10;    <line
   class="fil0 str11"
   x1="1913.96"
   y1="2829.44"
   x2="1259.17"
   y2="2829.44"
   id="line62" />&#10;    <line
   class="fil0 str11"
   x1="1913.96"
   y1="3883.5"
   x2="4628.94"
   y2="3883.5"
   id="line63" />&#10;    <path
   class="fil5"
   d="M3383.25 3723.79c0,47.91 -79.85,15.97 -79.85,15.97 0,0 15.97,79.85 -31.94,79.85 -47.91,0 -15.97,-79.85 -15.97,-79.85 0,0 -79.85,31.94 -79.85,-15.97 0,-47.91 79.85,-31.94 79.85,-31.94 0,0 -31.94,-79.85 15.97,-79.85 47.91,0 31.94,79.85 31.94,79.85 0,0 79.85,-15.97 79.85,31.94z"
   id="path63" />&#10;    <path
   class="fil0 str12"
   d="M3383.25 3723.79c0,47.91 -79.85,15.97 -79.85,15.97 0,0 15.97,79.85 -31.94,79.85 -47.91,0 -15.97,-79.85 -15.97,-79.85 0,0 -79.85,31.94 -79.85,-15.97 0,-47.91 79.85,-31.94 79.85,-31.94 0,0 -31.94,-79.85 15.97,-79.85 47.91,0 31.94,79.85 31.94,79.85 0,0 79.85,-15.97 79.85,31.94z"
   id="path64" />&#10;    <path
   class="fil0 str13"
   d="M3495.04 3723.79c0,63.88 -111.79,0 -111.79,0 0,0 111.79,-79.85 111.79,0z"
   id="path65" />&#10;    <path
   class="fil0 str13"
   d="M3574.89 3723.79c0,31.94 -79.85,0 -79.85,0 0,0 79.85,-47.91 79.85,0z"
   id="path66" />&#10;    <path
   class="fil0 str13"
   d="M3047.87 3723.79c0,63.88 127.76,0 127.76,0 0,0 -127.76,-79.85 -127.76,0z"
   id="path67" />&#10;    <path
   class="fil0 str12"
   d="M2968.01 3723.79c0,31.94 79.86,0 79.86,0 0,0 -79.86,-47.91 -79.86,0z"
   id="path68" />&#10;   </g>&#10;   <polygon
   class="fil0 str1"
   points="4628.94,5304.87 4421.32,4602.17 4628.94,3883.5 4628.94,3276.62 5283.73,3276.62 5283.73,1855.24 4628.94,1855.24 4628.94,1152.54 1913.96,1168.51 1913.96,1855.24 1243.2,1855.24 1243.2,3276.62 1913.96,3276.62 1913.96,3883.5 2105.61,4602.17 1913.96,5304.87 "
   id="polygon68" />&#10;  </g>&#10; </g>&#10;</svg>
