<?xml version="1.0" encoding="UTF-8" standalone="no"?>
<!-- Created with Inkscape (http://www.inkscape.org/) -->

<svg
   width="210mm"
   height="371.25mm"
   viewBox="0 0 210 371.25"
   version="1.1"
   id="svg5"
   xml:space="preserve"
   sodipodi:docname="messenger_papercraft.svg"
   inkscape:version="1.2.2 (b0a8486541, 2022-12-01)"
   inkscape:export-filename="messenger_papercraft.png"
   inkscape:export-xdpi="300"
   inkscape:export-ydpi="300"
   xmlns:inkscape="http://www.inkscape.org/namespaces/inkscape"
   xmlns:sodipodi="http://sodipodi.sourceforge.net/DTD/sodipodi-0.dtd"
   xmlns:xlink="http://www.w3.org/1999/xlink"
   xmlns="http://www.w3.org/2000/svg"
   xmlns:svg="http://www.w3.org/2000/svg"><sodipodi:namedview
     id="namedview7"
     pagecolor="#ffffff"
     bordercolor="#666666"
     borderopacity="1.0"
     inkscape:showpageshadow="2"
     inkscape:pageopacity="1"
     inkscape:pagecheckerboard="0"
     inkscape:deskcolor="#d1d1d1"
     inkscape:document-units="mm"
     showgrid="false"
     inkscape:zoom="0.35355339"
     inkscape:cx="849.94235"
     inkscape:cy="726.90577"
     inkscape:window-width="1904"
     inkscape:window-height="1006"
     inkscape:window-x="8"
     inkscape:window-y="34"
     inkscape:window-maximized="1"
     inkscape:current-layer="layer3"
     showguides="true"><sodipodi:guide
       position="82.928866,287.92217"
       orientation="1,0"
       id="guide47612"
       inkscape:locked="false" /></sodipodi:namedview><defs
     id="defs2"><marker
       markerWidth="16.525"
       markerHeight="0.99999994"
       refX="0"
       refY="0"
       orient="auto-start-reverse"
       id="CapTriangle"
       viewBox="0 0 0.525 1"
       inkscape:stockid="pin"
       style="overflow:visible"
       preserveAspectRatio="none"
       inkscape:isstock="true"
       inkscape:collect="always"><path
         id="path7813"
         style="fill:context-stroke;stroke-linecap:butt"
         d="M 0,-1 1,0 0,1 -0.05,0 Z"
         sodipodi:nodetypes="sssssscsss"
         transform="scale(0.5)" /></marker><marker
       markerWidth="16.525"
       markerHeight="0.99999994"
       refX="0"
       refY="0"
       orient="auto-start-reverse"
       id="CapTriangle-5"
       viewBox="0 0 0.525 1"
       inkscape:stockid="pin"
       style="overflow:visible"
       preserveAspectRatio="none"
       inkscape:isstock="true"
       inkscape:collect="always"><path
         id="path7813-6"
         style="fill:context-stroke;stroke-linecap:butt"
         d="M 0,-1 1,0 0,1 -0.05,0 Z"
         sodipodi:nodetypes="sssssscsss"
         transform="scale(0.5)" /></marker></defs><g
     inkscape:label="Layer 1"
     inkscape:groupmode="layer"
     id="layer1"
     style="display:none"
     transform="translate(0,74.25)"
     sodipodi:insensitive="true"><image
       width="210"
       height="297.00415"
       preserveAspectRatio="none"
       xlink:href="../nanahira/nanahira_papercraft.jpg"
       id="image312"
       x="0"
       y="0"
       style="display:inline;opacity:1"
       sodipodi:insensitive="true" /></g><g
     inkscape:groupmode="layer"
     id="layer3"
     inkscape:label="Fill"
     style="display:inline"
     transform="translate(0,74.25)"><path
       style="display:inline;fill:#f7e3d5;fill-opacity:1;stroke:none;stroke-width:0.264583px;stroke-linecap:butt;stroke-linejoin:miter;stroke-opacity:1"
       d="m 117.47681,159.00667 0.0363,-31.65067 C 117.84131,87.824153 117.169,82.781968 103.88332,79.180025 H 60.71018 C 49.639996,82.303012 47.56708,83.907894 47.442839,127.4242 l 0.01074,31.58247 z"
       id="path11760"
       sodipodi:nodetypes="ccccccc"
       inkscape:label="Face" /><path
       id="ellipse12093"
       style="display:inline;opacity:1;fill:#2d69b4;fill-opacity:1;stroke:none;stroke-width:0.15;paint-order:markers fill stroke;stop-color:#000000;stop-opacity:1"
       d="m 71.973783,112.30673 a 4.3664374,8.7328749 0 0 1 -4.366437,8.73288 4.3664374,8.7328749 0 0 1 -4.366438,-8.73288 4.3664374,8.7328749 0 0 1 4.366438,-8.73287 4.3664374,8.7328749 0 0 1 4.366437,8.73287 z m 29.636007,0 a 4.3664374,8.7328749 0 0 1 -4.366435,8.73288 4.3664374,8.7328749 0 0 1 -4.366438,-8.73288 4.3664374,8.7328749 0 0 1 4.366438,-8.73287 4.3664374,8.7328749 0 0 1 4.366435,8.73287 z"
       inkscape:label="Eyes" /><path
       id="ellipse12097"
       style="display:inline;opacity:1;fill:#fac9c1;fill-opacity:1;stroke:none;stroke-width:0.15;paint-order:markers fill stroke;stop-color:#000000;stop-opacity:1"
       d="m 62.953187,120.91177 a 3.7924469,2.3438611 0 0 1 -3.792447,2.34386 3.7924469,2.3438611 0 0 1 -3.792447,-2.34386 3.7924469,2.3438611 0 0 1 3.792447,-2.34386 3.7924469,2.3438611 0 0 1 3.792447,2.34386 z m 46.461233,0 a 3.7924469,2.3438611 0 0 1 -3.79245,2.34386 3.7924469,2.3438611 0 0 1 -3.79245,-2.34386 3.7924469,2.3438611 0 0 1 3.79245,-2.34386 3.7924469,2.3438611 0 0 1 3.79245,2.34386 z"
       inkscape:label="Blush" /><path
       id="path12594"
       style="font-variation-settings:normal;display:inline;opacity:1;fill:#eab19d;fill-opacity:1;stroke:none;stroke-width:0.405329;stroke-linecap:round;stroke-linejoin:miter;stroke-miterlimit:4;stroke-dasharray:none;stroke-dashoffset:0;stroke-opacity:1;paint-order:markers fill stroke;stop-color:#000000;stop-opacity:1"
       d="m 76.768441,119.07645 c -1.66e-4,2.87682 2.483577,5.20902 5.547465,5.20899 3.063888,3e-5 5.547631,-2.33217 5.547465,-5.20899 -0.02156,-1.54461 -11.064511,-1.32426 -11.09493,0 z"
       sodipodi:nodetypes="cccc"
       inkscape:label="Mouth" /><path
       style="display:inline;opacity:1;fill:#c9c5d6;fill-opacity:1;stroke:none;stroke-width:0.264583px;stroke-linecap:butt;stroke-linejoin:miter;stroke-opacity:1"
       d="m 47.453579,159.00667 h 15.420297 l 0.234754,-0.48148 h 8.98398 l 0.257858,0.48148 h 20.238069 l 0.234756,-0.48148 h 9.035617 l 0.25786,0.48148 h 15.36004 l 0.0566,77.43534 32.68819,-0.10908 0.0176,50.31478 -32.8741,-8.8e-4 C 116.34216,297 105.73023,297 99.3984,288.60829 l 2.13334,-0.91591 -5.056929,-4.41017 c 8.334859,-0.70039 8.162529,-3.43742 8.310459,-19.94991 -16.666017,-2.93007 -28.078157,-2.01781 -44.605462,-0.009 0.04653,20.34626 0.58199,19.25739 8.23764,20.02482 -1.708159,1.5253 -3.499785,3.45455 -5.090258,4.41029 l 2.350939,0.82401 C 59.443215,297 48.541706,296.4621 47.553081,286.68246 l -32.874045,0.003 -0.02481,-50.35706 32.674659,0.0508 z"
       id="path10939"
       inkscape:label="HairBlock"
       sodipodi:nodetypes="ccccccccccccccccccccccccccc" /><path
       id="path11670"
       style="display:inline;fill:#f7e3d5;fill-opacity:1;stroke:none;stroke-width:0.264583px;stroke-linecap:butt;stroke-linejoin:miter;stroke-opacity:1"
       d="m 49.464965,268.81582 c -9.211334,-4.54486 -7.825664,9.80023 0,12.44293 z m 66.001895,0 c 9.21134,-4.54486 7.82567,9.80023 0,12.44293 z"
       inkscape:label="Ears" /><rect
       style="font-variation-settings:normal;display:inline;opacity:1;fill:#f7e3d5;fill-opacity:1;stroke:none;stroke-width:0.4;stroke-linecap:round;stroke-linejoin:miter;stroke-miterlimit:4;stroke-dasharray:none;stroke-dashoffset:0;stroke-opacity:1;paint-order:markers fill stroke;stop-color:#000000;stop-opacity:1"
       id="rect13585"
       width="16.794884"
       height="110.81242"
       x="12.707299"
       y="23.222742"
       inkscape:label="Hands" /><rect
       style="font-variation-settings:normal;display:inline;opacity:1;fill:#5c7692;fill-opacity:1;stroke:none;stroke-width:0.363697;stroke-linecap:round;stroke-linejoin:miter;stroke-miterlimit:4;stroke-dasharray:none;stroke-dashoffset:0;stroke-opacity:1;paint-order:markers fill stroke;stop-color:#000000;stop-opacity:1"
       id="rect13659"
       width="16.794884"
       height="91.610954"
       x="12.707299"
       y="32.802513"
       inkscape:label="Sleeves" /><path
       id="path14566"
       style="color:#000000;fill:#a5c5e8;fill-opacity:1;stroke-linecap:round;-inkscape-stroke:none;paint-order:markers fill stroke"
       d="m 14.775326,33.935847 v 0.19895 36.062914 h 3.140893 3.175517 3.176033 3.140377 V 33.935847 h -3.140377 -3.176033 -3.175517 z m 0.400492,0.39842 h 2.54093 v 35.462954 h -2.54093 z m 2.941422,0 h 2.775542 V 69.797221 H 18.11724 Z m 3.173967,0 h 2.775024 v 35.462954 h -2.775024 z m 3.175517,0 h 2.54093 v 35.462954 h -2.54093 z m -9.691398,52.75899 v 0.19895 36.062923 h 3.140893 3.175517 3.176033 3.140377 V 87.093257 h -3.140377 -3.176033 -3.175517 z m 0.400492,0.39842 h 2.54093 v 35.462963 h -2.54093 z m 2.941422,0 h 2.775542 V 122.95464 H 18.11724 Z m 3.173967,0 h 1.387512 1.387512 v 35.462963 h -2.775024 z m 3.175517,0 h 2.54093 v 35.462963 h -2.54093 z"
       inkscape:label="SleevesDecor"
       sodipodi:nodetypes="ccccccccccccccccccccccccccccccccccccccccccccccccccccccccccccccccc" /><path
       id="rect15505"
       style="display:inline;opacity:1;vector-effect:none;fill:#f7e3d5;fill-opacity:1;stroke-width:0.171299;stroke-linecap:round;paint-order:markers fill stroke;stop-color:#000000;stop-opacity:1"
       inkscape:label="Legs"
       d="M 4.2849927,134.03517 H 20.998805 l 0,8.6538 H 4.2849927 Z m 19.2429633,0 h 16.713812 v 16.02906 H 23.527956 Z M 4.3032999,219.64588 H 21.017113 l 0,9.48062 H 4.3032999 Z m 19.2429631,-5.6224 H 40.260075 V 229.1265 H 23.546263 Z"
       sodipodi:nodetypes="cccccccccccccccccccc" /><path
       id="path1705"
       style="display:inline;fill:#424242;fill-rule:evenodd;stroke:none;stroke-width:0.264583px;stroke-linecap:butt;stroke-linejoin:miter;stroke-opacity:1"
       inkscape:label="LegStraps"
       d="m 13.591418,136.15318 v 3.21996 l -3.366202,3.31607 3.165181,3.57187 h 2.50579 l 3.138827,-3.54344 -3.245797,-3.3445 v -3.21996 z m 14.612546,0 v 7.49928 h -4.67155 v 2.00608 h 4.67155 v 2.39934 h -4.676201 v 2.00659 h 16.714225 l 0.01809,-2.00659 h -9.858316 v -2.39934 h 9.84436 l 0.0186,-2.00608 h -9.86296 v -7.49928 z m -14.611561,13.73321 1.062667,1.399 1.062667,-1.399 -1.062667,-1.399 z"
       sodipodi:nodetypes="ccccccccccccccccccccccccccccccc" /><path
       id="path1705-6"
       style="display:inline;fill:#424242;fill-rule:evenodd;stroke:none;stroke-width:0.264583px;stroke-linecap:butt;stroke-linejoin:miter;stroke-opacity:1"
       inkscape:label="LegStraps"
       d="m 13.609505,227.93477 v -4.97282 l -3.366202,-3.31607 8.809798,-0.0284 -3.245797,3.3445 v 4.97282 z m 14.612546,0 v -7.49928 h -4.67155 v -2.00608 h 4.67155 v -2.39934 H 23.54585 v -2.00659 h 16.714225 l 1.60559,2.00659 H 30.419849 v 2.39934 h 11.43186 l 0.0186,2.00608 h -11.45046 v 7.49928 z"
       sodipodi:nodetypes="cccccccccccccccccccccccc" /><path
       id="path44337"
       style="display:inline;opacity:1;vector-effect:none;fill:#454142;fill-opacity:1;stroke-width:0.246118;stroke-linecap:round;paint-order:markers fill stroke;stop-color:#000000;stop-opacity:1"
       d="m 4.3032999,174.28962 h 4.1784527 l 4.1784534,4.70128 4.077155,-4.70128 h 4.279751 l 0,27.56303 H 4.3032999 Z m 19.2246561,0 h 4.178453 l 4.178453,4.70128 4.077155,-4.70128 h 4.279751 l 0,27.56303 H 23.527956 Z"
       sodipodi:nodetypes="cccccccccccccccc" /><path
       id="rect15509"
       style="display:inline;opacity:1;vector-effect:none;fill:#2e2b2c;stroke-width:0.11943;stroke-linecap:round;paint-order:markers fill stroke;stop-color:#000000;stop-opacity:1;fill-opacity:1"
       inkscape:label="ShoeHeels"
       d="M 4.2849927,193.35822 H 20.998805 v 5.87311 H 4.2849927 Z m 19.2429633,0 h 16.713812 v 5.87311 H 23.527956 Z" /><path
       id="path15586"
       style="display:inline;fill:#c9c5d6;fill-opacity:1;stroke:none;stroke-width:0.264583px;stroke-linecap:butt;stroke-linejoin:miter;stroke-opacity:1"
       d="m 145.22834,43.676921 c -1.53636,0.0311 -3.07171,0.56843 -4.60643,1.514636 3.60518,3.406482 -0.42203,12.208267 -10.04848,15.626436 v 34.11213 0.72347 34.112127 c 9.62645,3.41818 13.65366,12.21945 10.04848,15.62592 4.09258,2.52322 8.19057,2.13883 12.29692,-2.99878 7.10093,-0.0312 10.64764,-3.99661 13.44776,-8.78861 2.80012,4.792 6.34682,8.75742 13.44776,8.78861 4.10635,5.13761 8.20434,5.522 12.29692,2.99878 -3.60519,-3.40647 0.42203,-12.20774 10.04848,-15.62592 v -34.112127 -0.72347 -34.11213 c -9.62645,-3.418169 -13.65367,-12.219954 -10.04848,-15.626436 -1.53472,-0.946206 -3.07007,-1.483531 -4.60644,-1.514636 -2.5606,-0.05184 -5.12401,1.302407 -7.69048,4.513419 -7.10094,0.03119 -10.64764,3.997121 -13.44776,8.789128 -2.80012,-4.792007 -6.34683,-8.757938 -13.44776,-8.789128 -2.56648,-3.211012 -5.12988,-4.565259 -7.69049,-4.513419 z m 21.13825,33.97312 1.58492,2.644799 -1.58492,2.879411 -1.58492,-2.879411 z m 0,29.758909 1.58492,2.87993 -1.58492,2.6448 -1.58492,-2.6448 z"
       inkscape:label="HairExtension" /><path
       id="path15652"
       style="display:inline;opacity:1;fill:#b6b0c8;fill-opacity:1;stroke:none;stroke-width:0.264583px;stroke-linecap:butt;stroke-linejoin:miter;stroke-opacity:1"
       d="m 145.43298,43.8335 c -1.56341,-0.02586 -3.16677,0.480434 -4.81107,1.527556 l 3.05666,0.83199 c 2.47925,0.762768 3.79829,2.712551 4.22971,5.830135 1.29528,-0.741698 2.61602,-1.283209 3.96927,-1.565279 l 1.04128,-2.098063 c -2.3857,-2.961625 -4.88015,-4.483229 -7.48585,-4.526339 z m 41.86722,0 c -2.6057,0.04311 -5.10016,1.564714 -7.48585,4.526339 l 1.04128,2.098063 c 1.35325,0.28207 2.67399,0.823581 3.96926,1.565279 0.43142,-3.117584 1.75047,-5.067367 4.22972,-5.830135 l 3.05666,-0.83199 c -1.6443,-1.047122 -3.24767,-1.55342 -4.81107,-1.527556 z m -23.72052,9.163782 -1.15239,1.731677 c 3.44051,11.554592 -1.31577,21.999318 -8.17107,25.630477 13.09068,6.036694 12.96429,23.499884 0,30.033824 6.8553,3.63117 11.61158,14.07588 8.17107,25.63048 l 1.15239,1.73219 c 1.12621,-1.28423 1.99231,-2.70002 2.78691,-4.15168 0.7946,1.45166 1.6607,2.86745 2.78691,4.15168 l 1.15238,-1.73219 c -3.4405,-11.5546 1.31578,-21.99931 8.17108,-25.63048 -12.9643,-6.53394 -13.09069,-23.99713 0,-30.033824 -6.8553,-3.631159 -11.61158,-14.075885 -8.17108,-25.630477 l -1.15238,-1.731677 c -1.12621,1.284225 -1.99231,2.69951 -2.78691,4.151168 -0.7946,-1.451658 -1.6607,-2.866943 -2.78691,-4.151168 z m 2.78691,24.821741 1.58492,2.644799 -1.58492,2.879928 -1.58492,-2.879928 z m 0,29.589927 1.58492,2.87993 -1.58492,2.6448 -1.58492,-2.6448 z m -18.45831,31.32057 c -0.43142,3.11757 -1.75046,5.06736 -4.22971,5.83013 l -3.05666,0.83199 c 4.38478,2.79233 8.47981,1.73981 12.29692,-2.99878 l -1.04128,-2.09806 c -1.35325,-0.28207 -2.67399,-0.82358 -3.96927,-1.56528 z m 36.91661,0 c -1.29527,0.7417 -2.61601,1.28321 -3.96926,1.56528 l -1.04128,2.09806 c 3.81711,4.73859 7.91214,5.79111 12.29692,2.99878 l -3.05666,-0.83199 c -2.47925,-0.76277 -3.7983,-2.71256 -4.22972,-5.83013 z"
       inkscape:label="HairExtensionDark" /><path
       style="display:inline;opacity:1;fill:#454142;fill-opacity:1;stroke:none;stroke-width:0.264583px;stroke-linecap:butt;stroke-linejoin:miter;stroke-opacity:1"
       d="m 166.38871,246.39733 35.91032,12.17492 -0.004,-40.22811 -13.32886,-23.05648 -2.05875,0.38068 -3.26155,-1.92548 -0.94895,0.61219 -5.34778,-3.17882 0.0564,-1.1174 -12.76041,-7.53323 -0.9828,0.61674 -5.32438,-3.16983 0.063,-1.13321 -3.25236,-1.92006 -0.67041,-2.03569 -28.54273,-0.42417 6.81392,39.65938 12.33208,0.15561 13.91674,8.13069 2.88102,5.0156 c -2.64223,0.39821 -4.06886,2.15921 -4.47836,5.06049 l -0.0246,9.65004 c 0.9688,4.58772 3.50923,6.73102 9.01246,4.26614 z"
       id="path16239"
       sodipodi:nodetypes="ccccccccccccccccccccccc"
       inkscape:label="Skirt" /><rect
       style="font-variation-settings:normal;display:inline;opacity:1;fill:#6f5c56;fill-opacity:1;stroke:none;stroke-width:1.5;stroke-linecap:round;stroke-linejoin:miter;stroke-miterlimit:4;stroke-dasharray:none;stroke-dashoffset:0;stroke-opacity:1;paint-order:normal;stop-color:#000000;stop-opacity:1"
       id="rect20445"
       width="31.307041"
       height="2.8532989"
       x="226.24741"
       y="81.983765"
       ry="0"
       inkscape:transform-center-x="-0.93094676"
       inkscape:transform-center-y="3.712505"
       transform="rotate(30.452301)"
       inkscape:label="Belt" /><path
       id="rect20443"
       style="color:#000000;display:inline;opacity:1;fill:#f8de89;fill-opacity:1;stroke-linecap:round;-inkscape-stroke:none"
       d="m 238.61699,81.404359 3.4e-4,0.349285 -2.3e-4,3.480592 6.44901,5e-5 3.3e-4,-3.83014 z m 0.70119,0.699152 5.04691,1.18e-4 -1.2e-4,0.867489 -1.59297,-0.0034 -0.3507,-2.8e-5 -0.002,0.698727 0.35041,0.0026 1.59483,0.0035 1e-5,0.862616 -5.04665,3.27e-4 z"
       transform="rotate(30.452301)"
       inkscape:label="BeltClip" /><path
       style="display:inline;opacity:1;fill:#5c7692;fill-opacity:1;stroke:none;stroke-width:0.264583px;stroke-linecap:butt;stroke-linejoin:miter;stroke-opacity:1"
       d="m 166.38871,246.39733 23.39129,7.93051 0.0406,-31.82996 -11.69641,-19.36135 -6.31463,-3.71252 -9.87495,2.31276 -2.70436,-9.70844 -6.41613,-3.7902 -24.51154,-0.001 4.44673,25.88185 12.33208,0.15561 13.91674,8.13069 2.88102,5.0156 c -2.64223,0.39821 -4.06886,2.15921 -4.47836,5.06049 l -0.0246,9.65004 c 0.9688,4.58772 3.50923,6.73102 9.01246,4.26614 z"
       id="path16685"
       sodipodi:nodetypes="ccccccccccccccccc"
       inkscape:label="Shirt" /><path
       style="display:inline;fill:none;stroke:#a5c5e8;stroke-width:0.265;stroke-linecap:butt;stroke-linejoin:miter;stroke-dasharray:none;stroke-opacity:1"
       d="m 141.15163,212.20913 0.23881,-23.97266"
       id="path42712" /><path
       style="font-variation-settings:normal;display:inline;opacity:1;vector-effect:none;fill:none;fill-opacity:1;stroke:#a5c5e8;stroke-width:0.265;stroke-linecap:butt;stroke-linejoin:miter;stroke-miterlimit:4;stroke-dasharray:none;stroke-dashoffset:0;stroke-opacity:1;-inkscape-stroke:none;stop-color:#000000;stop-opacity:1"
       d="M 162.68656,224.88355 183.97239,212.8172"
       id="path42766" /><path
       style="font-variation-settings:normal;display:inline;opacity:1;vector-effect:none;fill:none;fill-opacity:1;stroke:#a5c5e8;stroke-width:0.265;stroke-linecap:butt;stroke-linejoin:miter;stroke-miterlimit:4;stroke-dasharray:none;stroke-dashoffset:0;stroke-opacity:1;-inkscape-stroke:none;stop-color:#000000;stop-opacity:1"
       d="m 159.36072,237.44492 30.43958,0.96794"
       id="path42778" /><path
       style="font-variation-settings:normal;display:inline;opacity:1;vector-effect:none;fill:none;fill-opacity:1;stroke:#a5c5e8;stroke-width:0.265;stroke-linecap:butt;stroke-linejoin:miter;stroke-miterlimit:4;stroke-dasharray:none;stroke-dashoffset:0;stroke-opacity:1;-inkscape-stroke:none;stop-color:#000000;stop-opacity:1"
       d="M 161.15224,222.18191 181.05,207.98063"
       id="path42790" /><path
       style="font-variation-settings:normal;display:inline;opacity:1;vector-effect:none;fill:none;fill-opacity:1;stroke:#a5c5e8;stroke-width:0.265;stroke-linecap:butt;stroke-linejoin:miter;stroke-miterlimit:4;stroke-dasharray:none;stroke-dashoffset:0;stroke-opacity:1;-inkscape-stroke:none;stop-color:#000000;stop-opacity:1"
       d="m 164.32735,227.77268 22.65664,-9.97031"
       id="path42802" /><path
       style="font-variation-settings:normal;display:inline;opacity:1;vector-effect:none;fill:none;fill-opacity:1;stroke:#a5c5e8;stroke-width:0.265;stroke-linecap:butt;stroke-linejoin:miter;stroke-miterlimit:4;stroke-dasharray:none;stroke-dashoffset:0;stroke-opacity:1;-inkscape-stroke:none;stop-color:#000000;stop-opacity:1"
       d="m 144.87224,212.26664 2.68478,-24.02873"
       id="path42814" /><path
       style="font-variation-settings:normal;display:inline;opacity:1;vector-effect:none;fill:none;fill-opacity:1;stroke:#a5c5e8;stroke-width:0.265;stroke-linecap:butt;stroke-linejoin:miter;stroke-miterlimit:4;stroke-dasharray:none;stroke-dashoffset:0;stroke-opacity:1;-inkscape-stroke:none;stop-color:#000000;stop-opacity:1"
       d="m 138.10666,212.16206 -1.93408,-23.92461"
       id="path42826" /><path
       style="font-variation-settings:normal;display:inline;opacity:1;vector-effect:none;fill:none;fill-opacity:1;stroke:#a5c5e8;stroke-width:0.265;stroke-linecap:butt;stroke-linejoin:miter;stroke-miterlimit:4;stroke-dasharray:none;stroke-dashoffset:0;stroke-opacity:1;-inkscape-stroke:none;stop-color:#000000;stop-opacity:1"
       d="m 161.93463,201.73677 -6.49438,10.85064"
       id="path42838" /><path
       style="font-variation-settings:normal;display:inline;opacity:1;vector-effect:none;fill:none;fill-opacity:1;stroke:#a5c5e8;stroke-width:0.265;stroke-linecap:butt;stroke-linejoin:miter;stroke-miterlimit:4;stroke-dasharray:none;stroke-dashoffset:0;stroke-opacity:1;-inkscape-stroke:none;stop-color:#000000;stop-opacity:1"
       d="m 152.86894,208.8138 5.63732,-17.21113"
       id="path42850" /><path
       style="font-variation-settings:normal;display:inline;opacity:1;vector-effect:none;fill:none;fill-opacity:1;stroke:#a5c5e8;stroke-width:0.265;stroke-linecap:butt;stroke-linejoin:miter;stroke-miterlimit:4;stroke-dasharray:none;stroke-dashoffset:0;stroke-opacity:1;-inkscape-stroke:none;stop-color:#000000;stop-opacity:1"
       d="m 159.93862,213.02485 12.85564,-13.02192"
       id="path42862" /><path
       style="font-variation-settings:normal;display:inline;opacity:1;vector-effect:none;fill:none;fill-opacity:1;stroke:#a5c5e8;stroke-width:0.265;stroke-linecap:butt;stroke-linejoin:miter;stroke-miterlimit:4;stroke-dasharray:none;stroke-dashoffset:0;stroke-opacity:1;-inkscape-stroke:none;stop-color:#000000;stop-opacity:1"
       d="m 159.37067,232.8457 30.43384,-2.77999"
       id="path42874" /><path
       style="font-variation-settings:normal;display:inline;opacity:1;vector-effect:none;fill:none;fill-opacity:1;stroke:#a5c5e8;stroke-width:0.265;stroke-linecap:butt;stroke-linejoin:miter;stroke-miterlimit:4;stroke-dasharray:none;stroke-dashoffset:0;stroke-opacity:1;-inkscape-stroke:none;stop-color:#000000;stop-opacity:1"
       d="m 159.35077,242.04414 30.45374,4.07082"
       id="path42886" /><path
       style="display:inline;opacity:1;fill:#ffffff;fill-opacity:1;stroke:none;stroke-width:0.264583px;stroke-linecap:butt;stroke-linejoin:miter;stroke-opacity:1"
       d="m 159.38483,219.06982 c 1.03168,3.69674 -2.27276,6.21616 -5.39995,4.52484 l -7.88074,-4.64165 c -2.84714,-2.08791 -1.30496,-6.27538 1.74423,-6.64036 3.58944,-6.58584 6.80124,-3.36831 7.25412,0.77313 4.15851,-1.75525 8.23742,0.003 4.28234,5.98404 z"
       id="path39228" /><path
       style="display:inline;opacity:1;fill:#454142;fill-opacity:1;stroke:none;stroke-width:0.264583px;stroke-linecap:butt;stroke-linejoin:miter;stroke-opacity:1"
       d="m 161.3734,194.27577 7.34756,4.33457 -6.78633,3.12643 z"
       id="path16825" /><path
       style="font-variation-settings:normal;display:inline;opacity:1;vector-effect:none;fill:none;fill-opacity:1;stroke:#a5c5e8;stroke-width:0.265;stroke-linecap:butt;stroke-linejoin:miter;stroke-miterlimit:4;stroke-dasharray:none;stroke-dashoffset:0;stroke-opacity:1;-inkscape-stroke:none;stop-color:#000000;stop-opacity:1"
       d="m 165.98829,230.69729 23.83231,-8.19941"
       id="path42958" /><path
       style="font-variation-settings:normal;display:inline;opacity:1;vector-effect:none;fill:none;fill-opacity:1;stroke:#a5c5e8;stroke-width:0.265;stroke-linecap:butt;stroke-linejoin:miter;stroke-miterlimit:4;stroke-dasharray:none;stroke-dashoffset:0;stroke-opacity:1;-inkscape-stroke:none;stop-color:#000000;stop-opacity:1"
       d="m 147.84837,212.31265 4.96575,-24.07452"
       id="path42971" /><path
       style="display:inline;fill:#ac4b5c;fill-opacity:1;stroke:none;stroke-width:0.264583px;stroke-linecap:butt;stroke-linejoin:miter;stroke-opacity:1"
       d="m 155.44025,212.58741 5.24296,-6.01113 0.35283,2.2122 2.07409,0.72237 -6.80049,3.95861 3.62898,-0.44461 -0.0444,4.00712 -5.35,-2.0314 -0.84478,-0.45999 -4.31014,-3.68724 3.47964,-2.03954 1.37388,3.49727 0.1715,-7.97988 1.67206,1.52084 1.99806,-0.76339 z"
       id="path16997"
       inkscape:label="Tie" /><path
       id="path17272"
       style="color:#000000;display:none;fill:#d3ae7c;-inkscape-stroke:none"
       d="m 129.28306,183.26375 1.01183,5.86734 22.20691,0.54881 8.92194,5.23999 -0.3204,-6.93963 -0.0935,-0.0543 -7.23625,-4.26951 z m 0.47646,0.40824 3.64577,0.0584 -0.0574,5.07721 -2.71508,-0.0672 z m 4.04575,0.0646 2.76417,0.0444 -0.0294,5.10512 -2.79208,-0.0687 z m 3.16415,0.0512 2.82256,0.045 -0.0238,5.13302 -2.82773,-0.0698 z m 3.22306,0.0512 2.73161,0.0439 0.0202,5.16093 -2.77554,-0.0682 z m 3.1321,0.0506 2.78847,0.0444 v 5.1878 l -2.76779,-0.0682 z m 3.18896,0.0506 2.79724,0.045 v 5.21519 l -2.79724,-0.0687 z m 3.19722,0.0517 3.55895,0.0568 -1.07745,5.22242 -2.4815,-0.061 z m 4.32842,0.28577 2.87062,1.69292 -2.56367,4.3279 -1.38182,-0.81183 z m 3.21479,1.89601 2.40605,1.41903 -2.56418,4.3217 -2.40399,-1.41283 z m 2.75022,1.62212 0.71055,0.4191 0.27337,5.9862 -3.54811,-2.08463 z m 14.36294,7.98918 -6.31847,3.13314 8.93382,5.21105 11.14661,18.93528 -0.17777,28.71091 5.81618,1.99833 0.002,-0.27957 0.0625,-32.36133 -12.1698,-21.02559 z m -0.0155,0.45527 0.69557,0.41186 -2.58538,4.37699 -3.57135,-2.08204 z m 1.04025,0.6165 2.39262,1.41748 -2.57452,4.35736 -2.40347,-1.40095 z m 2.7373,1.6216 2.86184,1.69602 -4.06694,3.45664 -1.36839,-0.79788 z m 3.43545,2.25775 1.70894,2.95279 -4.56562,2.58175 -1.21801,-2.06964 z m 1.90944,3.29902 1.39888,2.41742 -4.54804,2.56471 -1.41335,-2.40089 z m 1.59939,2.76314 1.40301,2.42362 -4.53202,2.54714 -1.41645,-2.40658 z m 1.60248,2.76934 1.39268,2.40657 -4.51342,2.53163 -1.40714,-2.39055 z m 1.59371,2.75332 1.38492,2.39262 -4.46329,2.57245 -1.43299,-2.43499 z m 1.58543,2.73937 1.4025,2.42362 -4.47001,2.51354 -1.39372,-2.36781 z m 1.60248,2.76882 1.77767,3.07165 -4.92011,1.6924 -1.32447,-2.24999 z m 1.97301,3.84886 -0.005,2.75591 h -4.90512 l 0.007,-1.06867 z m -4.91288,3.15588 h 4.90668 l -0.005,2.77038 -4.91856,-0.0269 z m -0.0196,3.144 4.92011,0.0248 -0.006,2.81275 -4.93199,-0.0253 z m -0.0202,3.21272 4.93407,0.0253 -0.005,2.76727 -4.94595,-0.0253 z m -0.0196,3.16776 4.94751,0.0253 -0.005,2.75642 -4.95939,-0.0186 z m -0.0196,3.16364 4.96093,0.0186 -0.006,2.8422 -4.97282,-0.0563 z m -0.0202,3.20497 4.97489,0.0563 -0.005,2.75022 -4.98678,-0.032 z m -0.0196,3.17448 4.98832,0.031 -0.006,2.81791 -5.00021,-0.0377 z m -0.0202,3.21169 5.00228,0.0377 -0.005,2.75797 -5.01416,-0.032 z m -0.0196,3.16312 5.01571,0.0315 -0.006,2.90525 -5.01727,-1.72289 z"
       inkscape:label="ShirtDecor" /><path
       style="display:inline;fill:#ac4b5c;fill-opacity:1;stroke:none;stroke-width:0.351253px;stroke-linecap:butt;stroke-linejoin:miter;stroke-opacity:1"
       d="m 131.73021,264.81477 -2.03778,10.39127 -1.87409,-2.30918 -2.8641,0.54623 5.19093,-9.06533 -3.87717,2.92003 -2.60881,-4.6365 7.49937,-1.21573 1.27659,-0.0319 7.40296,1.37825 -2.64677,4.65463 -3.90101,-3.1089 5.09977,9.2884 -2.93191,-0.63863 -1.79045,2.20396 z"
       id="path24101"
       inkscape:label="Tie" /><path
       style="display:inline;fill:#ac4b5c;fill-opacity:1;stroke:none;stroke-width:0.351253px;stroke-linecap:butt;stroke-linejoin:miter;stroke-opacity:1"
       d="m 33.305187,264.81477 -2.03778,10.39127 -1.87409,-2.30918 -2.864097,0.54623 5.190927,-9.06533 -3.877167,2.92003 -2.60881,-4.6365 7.499367,-1.21573 1.276587,-0.0319 7.402957,1.37825 -2.64677,4.65463 -3.901007,-3.1089 5.099767,9.2884 -2.931907,-0.63863 -1.79045,2.20396 z"
       id="path24103"
       inkscape:label="Tie" /><rect
       style="font-variation-settings:normal;opacity:1;vector-effect:none;fill:#a5c5e8;fill-opacity:1;stroke:none;stroke-width:0.7;stroke-linecap:square;stroke-linejoin:miter;stroke-miterlimit:4;stroke-dasharray:none;stroke-dashoffset:0;stroke-opacity:1;-inkscape-stroke:none;paint-order:normal;stop-color:#000000;stop-opacity:1"
       id="rect42525"
       width="12.6983"
       height="0.40048981"
       x="14.709846"
       y="124.01298" /><rect
       style="font-variation-settings:normal;opacity:1;vector-effect:none;fill:#a5c5e8;fill-opacity:1;stroke:none;stroke-width:0.7;stroke-linecap:square;stroke-linejoin:miter;stroke-miterlimit:4;stroke-dasharray:none;stroke-dashoffset:0;stroke-opacity:1;-inkscape-stroke:none;paint-order:normal;stop-color:#000000;stop-opacity:1"
       id="rect42665"
       width="12.6983"
       height="0.40048981"
       x="14.709846"
       y="32.802513" /><rect
       style="font-variation-settings:normal;display:inline;opacity:1;fill:#6f5c56;fill-opacity:1;stroke:none;stroke-width:1.5;stroke-linecap:round;stroke-linejoin:miter;stroke-miterlimit:4;stroke-dasharray:none;stroke-dashoffset:0;stroke-opacity:1;paint-order:normal;stop-color:#000000;stop-opacity:1"
       id="rect42706"
       width="23.697828"
       height="3.0084248"
       x="265.5368"
       y="-50.456341"
       ry="0"
       inkscape:transform-center-x="0.94789577"
       inkscape:transform-center-y="3.7082025"
       transform="rotate(58.868292)"
       inkscape:label="Belt" /><rect
       style="font-variation-settings:normal;display:inline;opacity:1;fill:#6f5c56;fill-opacity:1;stroke:none;stroke-width:1.31662;stroke-linecap:round;stroke-linejoin:miter;stroke-miterlimit:4;stroke-dasharray:none;stroke-dashoffset:0;stroke-opacity:1;paint-order:normal;stop-color:#000000;stop-opacity:1"
       id="rect42708"
       width="24.19054"
       height="2.895999"
       x="129.30116"
       y="185.3329"
       ry="0"
       inkscape:transform-center-x="-2.0678559"
       inkscape:transform-center-y="2.728654"
       transform="matrix(1,5.3598451e-5,-3.1815004e-5,1,0,0)"
       inkscape:label="Belt" /><rect
       style="font-variation-settings:normal;display:inline;opacity:1;fill:#6f5c56;fill-opacity:1;stroke:none;stroke-width:1.31662;stroke-linecap:round;stroke-linejoin:miter;stroke-miterlimit:4;stroke-dasharray:none;stroke-dashoffset:0;stroke-opacity:1;paint-order:normal;stop-color:#000000;stop-opacity:1"
       id="rect42710"
       width="34.165699"
       height="2.9422779"
       x="221.48695"
       y="-192.7379"
       ry="0"
       inkscape:transform-center-x="2.7286473"
       inkscape:transform-center-y="2.067854"
       transform="matrix(-5.3598451e-5,1,-1,-3.1815004e-5,0,0)"
       inkscape:label="Belt" /><path
       style="display:inline;fill:#454142;fill-opacity:1;stroke:none;stroke-width:0.264583px;stroke-linecap:butt;stroke-linejoin:miter;stroke-opacity:1"
       d="m 46.710412,60.915453 h 72.654718 l -5.32728,-19.447904 5.17344,-17.763194 V 9.9150155 h 17.50193 l -0.077,-39.8729695 H 119.3284 V -47.738321 H 46.336706 V -29.61629 H 29.714981 L 29.476778,9.6345435 H 46.658133 V 23.871585 l 4.933161,17.616496 z"
       id="path43846"
       inkscape:label="HatFill"
       sodipodi:nodetypes="ccccccccccccccccc" /><path
       style="fill:none;stroke:#f8de89;stroke-width:2;stroke-linecap:butt;stroke-linejoin:miter;stroke-dasharray:none;stroke-opacity:1"
       d="m 48.273065,60.383638 5.131175,-17.983856 59.04925,0.0011 5.13118,17.983861 z"
       id="path47082" /><path
       style="font-variation-settings:normal;opacity:1;vector-effect:none;fill:none;fill-opacity:1;stroke:#f8de89;stroke-width:2;stroke-linecap:butt;stroke-linejoin:miter;stroke-miterlimit:4;stroke-dasharray:none;stroke-dashoffset:0;stroke-opacity:1;-inkscape-stroke:none;stop-color:#000000;stop-opacity:1"
       d="m 117.58467,24.48181 -5.13118,17.918972 -59.04925,-10e-4 -5.131175,-17.919059"
       id="path47236"
       sodipodi:nodetypes="cccc" /><path
       style="font-variation-settings:normal;opacity:1;vector-effect:none;fill:none;fill-opacity:1;stroke:#f8de89;stroke-width:2;stroke-linecap:butt;stroke-linejoin:miter;stroke-miterlimit:4;stroke-dasharray:none;stroke-dashoffset:0;stroke-opacity:1;-inkscape-stroke:none;stop-color:#000000;stop-opacity:1"
       d="m 117.58467,-45.047035 -69.311605,0.259628 M 31.435294,-27.075675 V 9.0777771 m 102.844866,-1e-6 0,-36.1534491"
       id="path47248"
       sodipodi:nodetypes="cccccc" /><path
       style="fill:none;stroke:#f8de89;stroke-width:1;stroke-linecap:butt;stroke-linejoin:miter;stroke-opacity:1;font-variation-settings:normal;opacity:1;fill-opacity:1;stroke-miterlimit:4;stroke-dasharray:none;stroke-dashoffset:0;stop-color:#000000;stop-opacity:1"
       d="M 48.273065,9.0778157 H 117.58467 V -27.103957 l -69.311605,0.02832 z"
       id="path47260" /><path
       style="font-variation-settings:normal;opacity:1;fill:none;fill-opacity:1;stroke:#f8de89;stroke-width:1;stroke-linecap:butt;stroke-linejoin:miter;stroke-miterlimit:4;stroke-dasharray:none;stroke-dashoffset:0;stroke-opacity:1;stop-color:#000000;stop-opacity:1"
       d="m 117.58467,-15.020542 16.69549,0.01407"
       id="path47272"
       sodipodi:nodetypes="cc" /><path
       style="font-variation-settings:normal;opacity:1;fill:none;fill-opacity:1;stroke:#f8de89;stroke-width:1;stroke-linecap:butt;stroke-linejoin:miter;stroke-miterlimit:4;stroke-dasharray:none;stroke-dashoffset:0;stroke-opacity:1;stop-color:#000000;stop-opacity:1"
       d="m 117.58467,-9.0130721 16.69549,0.014124"
       id="path47284"
       sodipodi:nodetypes="cc" /><path
       style="font-variation-settings:normal;opacity:1;fill:none;fill-opacity:1;stroke:#f8de89;stroke-width:1;stroke-linecap:butt;stroke-linejoin:miter;stroke-miterlimit:4;stroke-dasharray:none;stroke-dashoffset:0;stroke-opacity:1;stop-color:#000000;stop-opacity:1"
       d="M 117.54769,-2.4210155 134.28058,-2.523383"
       id="path47296"
       sodipodi:nodetypes="cc" /><path
       id="path47673"
       style="opacity:1;vector-effect:none;fill:#f8de89;stroke-width:0.329619;stop-color:#000000;stop-opacity:1"
       d="m 83.836325,14.269326 c -0.349183,0.489503 -0.907454,1.640686 -0.907454,1.640686 0,0 -0.55827,-1.151183 -0.907453,-1.640686 -0.349183,-0.489502 -1.151847,-1.292571 -1.151847,-1.292571 0,0 0.802664,-0.803071 1.151847,-1.292573 0.349183,-0.489502 0.907454,-1.640684 0.907454,-1.640684 0,0 0.558269,1.151183 0.907452,1.640685 0.349183,0.489503 1.151847,1.292571 1.151847,1.292571 0,0 -0.802663,0.80307 -1.151846,1.292572 z"
       sodipodi:nodetypes="zczczczcz" /><path
       style="font-variation-settings:normal;opacity:1;fill:none;fill-opacity:1;stroke:#f8de89;stroke-width:1;stroke-linecap:butt;stroke-linejoin:miter;stroke-miterlimit:4;stroke-dasharray:none;stroke-dashoffset:0;stroke-opacity:1;stop-color:#000000;stop-opacity:1"
       d="m 48.273065,-15.020542 -16.695481,0.01407"
       id="path48482"
       sodipodi:nodetypes="cc" /><path
       style="font-variation-settings:normal;opacity:1;fill:none;fill-opacity:1;stroke:#f8de89;stroke-width:1;stroke-linecap:butt;stroke-linejoin:miter;stroke-miterlimit:4;stroke-dasharray:none;stroke-dashoffset:0;stroke-opacity:1;stop-color:#000000;stop-opacity:1"
       d="m 48.273065,-9.0130721 -16.695481,0.014124"
       id="path48484"
       sodipodi:nodetypes="cc" /><path
       style="font-variation-settings:normal;opacity:1;fill:none;fill-opacity:1;stroke:#f8de89;stroke-width:1;stroke-linecap:butt;stroke-linejoin:miter;stroke-miterlimit:4;stroke-dasharray:none;stroke-dashoffset:0;stroke-opacity:1;stop-color:#000000;stop-opacity:1"
       d="M 48.310045,-2.4210155 31.577164,-2.523383"
       id="path48486"
       sodipodi:nodetypes="cc" /><path
       style="fill:none;stroke:#f8de89;stroke-width:1;stroke-linecap:butt;stroke-linejoin:miter;stroke-opacity:1;font-variation-settings:normal;opacity:1;vector-effect:none;fill-opacity:1;stroke-miterlimit:4;stroke-dasharray:none;stroke-dashoffset:0;-inkscape-stroke:none;stop-color:#000000;stop-opacity:1"
       d="m 48.273065,24.480799 69.311605,0.0011"
       id="path48660" /><path
       id="path48724"
       style="opacity:1;fill:#15b6ce;fill-opacity:1;stroke:none;stroke-width:0.242659;stroke-dasharray:none;paint-order:markers fill stroke;stop-color:#000000;stop-opacity:1"
       d="m 85.48318,20.1228 c 10e-7,1.173697 -1.976337,0.577976 -1.976337,0.577976 0,0 0.595723,1.976337 -0.577976,1.976337 -1.173697,0 -0.577974,-1.976337 -0.577974,-1.976337 0,0 -1.976338,0.595721 -1.976337,-0.577975 0,-1.173698 1.976337,-0.577975 1.976337,-0.577975 0,0 -0.595721,-1.976338 0.577975,-1.976338 1.173696,0 0.577975,1.976338 0.577975,1.976338 0,0 1.976337,-0.595723 1.976337,0.577974 z"
       sodipodi:nodetypes="ccscscscc" /><path
       id="path55302"
       style="opacity:1;fill:none;fill-opacity:1;stroke:#454142;stroke-width:0.5;stroke-dasharray:none;stroke-opacity:1;paint-order:normal;stop-color:#000000;stop-opacity:1"
       d="m 85.48318,20.1228 c 10e-7,1.173697 -1.976337,0.577976 -1.976337,0.577976 0,0 0.595723,1.976337 -0.577976,1.976337 -1.173697,0 -0.577974,-1.976337 -0.577974,-1.976337 0,0 -1.976338,0.595721 -1.976337,-0.577975 0,-1.173698 1.976337,-0.577975 1.976337,-0.577975 0,0 -0.595721,-1.976338 0.577975,-1.976338 1.173696,0 0.577975,1.976338 0.577975,1.976338 0,0 1.976337,-0.595723 1.976337,0.577974 z"
       sodipodi:nodetypes="ccscscscc" /><path
       id="path55304"
       style="opacity:1;fill:none;fill-opacity:1;stroke:#f8de89;stroke-width:0.248;stroke-dasharray:none;paint-order:markers fill stroke;stop-color:#000000;stop-opacity:1"
       d="m 85.536553,20.1228 c 2e-6,1.198222 -2.017633,0.590053 -2.017633,0.590053 0,0 0.608171,2.017634 -0.590053,2.017633 -1.198222,0 -0.590051,-2.017633 -0.590051,-2.017633 0,0 -2.017635,0.608169 -2.017633,-0.590052 0,-1.198223 2.017633,-0.590052 2.017633,-0.590052 0,0 -0.608169,-2.017635 0.590052,-2.017634 1.198221,-1e-6 0.590052,2.017634 0.590052,2.017634 0,0 2.017633,-0.608171 2.017633,0.590051 z"
       sodipodi:nodetypes="ccscscscc" /><path
       id="path55306"
       style="font-variation-settings:normal;opacity:1;vector-effect:none;fill:none;fill-opacity:1;stroke:#f8de89;stroke-width:0.24773;stroke-linecap:butt;stroke-linejoin:bevel;stroke-miterlimit:4;stroke-dasharray:none;stroke-dashoffset:0;stroke-opacity:1;-inkscape-stroke:none;paint-order:markers fill stroke;stop-color:#000000;stop-opacity:1"
       d="m 88.553299,20.1228 c 3e-6,1.79157 -3.016746,10e-7 -3.016746,10e-7 0,0 3.016746,-1.791571 3.016746,-10e-7 z"
       sodipodi:nodetypes="ccc" /><path
       id="path55332"
       style="font-variation-settings:normal;opacity:1;vector-effect:none;fill:none;fill-opacity:1;stroke:#f8de89;stroke-width:0.24773;stroke-linecap:butt;stroke-linejoin:bevel;stroke-miterlimit:4;stroke-dasharray:none;stroke-dashoffset:0;stroke-opacity:1;-inkscape-stroke:none;paint-order:markers fill stroke;stop-color:#000000;stop-opacity:1"
       d="m 90.588023,20.1228 c 2e-6,1.093208 -1.840805,10e-7 -1.840805,10e-7 0,0 1.840805,-1.093209 1.840805,-10e-7 z"
       sodipodi:nodetypes="ccc" /><path
       id="path55344"
       style="font-variation-settings:normal;opacity:1;vector-effect:none;fill:none;fill-opacity:1;stroke:#f8de89;stroke-width:0.24773;stroke-linecap:butt;stroke-linejoin:bevel;stroke-miterlimit:4;stroke-dasharray:none;stroke-dashoffset:0;stroke-opacity:1;-inkscape-stroke:none;paint-order:markers fill stroke;stop-color:#000000;stop-opacity:1"
       d="m 77.304437,20.1228 c -3e-6,1.79157 3.016746,10e-7 3.016746,10e-7 0,0 -3.016746,-1.791571 -3.016746,-10e-7 z"
       sodipodi:nodetypes="ccc" /><path
       id="path55346"
       style="font-variation-settings:normal;opacity:1;vector-effect:none;fill:none;fill-opacity:1;stroke:#f8de89;stroke-width:0.24773;stroke-linecap:butt;stroke-linejoin:miter;stroke-miterlimit:4;stroke-dasharray:none;stroke-dashoffset:0;stroke-opacity:1;-inkscape-stroke:none;paint-order:markers fill stroke;stop-color:#000000;stop-opacity:1"
       d="m 75.269713,20.1228 c -2e-6,1.093208 1.840805,10e-7 1.840805,10e-7 0,0 -1.840805,-1.093209 -1.840805,-10e-7 z"
       sodipodi:nodetypes="ccc" /><path
       id="path2197"
       style="fill:#ffffff;fill-rule:evenodd;stroke:#757575;stroke-width:1.26787;stroke-linecap:round;stroke-linejoin:round"
       inkscape:transform-center-x="0.31099531"
       inkscape:transform-center-y="-0.2791586"
       d="m -9.8570855,774.43261 c -3.4060095,0.0988 -3.0682125,2.65905 -6.9188115,3.53122 -4.107306,0.93033 -4.743103,-1.92599 -8.421931,0.12382 -2.924435,1.62946 -2.232774,3.2642 -3.295969,5.37112 v 40.38862 c 0.591605,0.19311 1.222051,0.47574 1.938951,1.0029 3.392805,2.49487 1.648109,4.84446 5.606366,6.2824 3.958256,1.43794 4.132227,-1.48286 8.335261,-1.21834 4.2030341,0.26453 4.0075635,3.18377 8.1148692,2.25344 4.10730552,-0.93032 2.6729081,-3.47979 6.3517361,-5.5296 3.6788282,-2.0498 5.0932183,0.51206 8.0455324,-2.49117 2.9523133,-3.00322 0.3658743,-4.3743 2.3524953,-8.08763 1.98662,-3.71334 4.563136,-2.32324 5.423119,-6.44583 0.859984,-4.12262 -2.055791,-3.87737 -2.392116,-8.07525 -0.336324,-4.19791 2.580105,-4.42198 1.074719,-8.35507 -1.505385,-3.9331 -3.826486,-2.15022 -6.3789754,-5.49989 -2.5524894,-3.34967 -0.2176549,-5.11484 -3.6104605,-7.6097 -3.3928055,-2.49487 -4.3819567,0.26169 -8.3402133,-1.17625 -3.9582571,-1.43794 -2.9460743,-4.18541 -7.1491081,-4.44993 -0.2626895,-0.0165 -0.7354642,-0.24206 -0.7354642,-0.0149 z m 61.5437415,0.01 c -0.09493,0.003 -0.179882,-10e-4 -0.279823,0.005 -4.203034,0.26452 -3.190851,3.01199 -7.149108,4.44993 -3.958257,1.43794 -4.947408,-1.31862 -8.340213,1.17625 -3.392806,2.49486 -1.057971,4.26003 -3.610461,7.6097 -2.552489,3.34967 -4.87359,1.56679 -6.378975,5.49989 -1.505386,3.93309 1.411044,4.15716 1.074718,8.35507 -0.336323,4.19788 -3.252101,3.95263 -2.392115,8.07525 0.859983,4.12259 3.436499,2.73249 5.423119,6.44583 1.986621,3.71333 -0.599818,5.08441 2.352495,8.08763 2.952314,3.00323 4.366704,0.44137 8.045533,2.49117 3.678827,2.04981 2.24443,4.59928 6.351736,5.5296 2.609028,0.59096 3.536184,-0.35991 4.903094,-1.20844 z M -9.8570855,1126.8735 c -3.4060095,0.099 -3.0682125,2.6591 -6.9188115,3.5313 -4.107306,0.9303 -4.743103,-1.926 -8.421931,0.1238 -2.924435,1.6294 -2.232774,3.2642 -3.295969,5.3711 v 40.3886 c 0.591537,0.193 1.22215,0.4734 1.938951,1.0004 3.392805,2.4949 1.648109,4.847 5.606366,6.2849 3.958256,1.438 4.132227,-1.4828 8.335261,-1.2183 4.2030341,0.2645 4.0075635,3.1837 8.1148692,2.2534 4.10730552,-0.9303 2.6729081,-3.4798 6.3517361,-5.5296 3.6788282,-2.0498 5.0932183,0.5121 8.0455324,-2.4912 2.9523133,-3.0032 0.3658743,-4.3743 2.3524953,-8.0876 1.98662,-3.7133 4.563136,-2.3232 5.423119,-6.4458 0.859984,-4.1226 -2.055791,-3.8774 -2.392116,-8.0753 -0.336324,-4.1979 2.580105,-4.4219 1.074719,-8.355 -1.505385,-3.9331 -3.826486,-2.1503 -6.3789754,-5.4999 -2.5524894,-3.3497 -0.2176549,-5.1149 -3.6104605,-7.6097 -3.3928055,-2.4949 -4.3819567,0.2591 -8.3402133,-1.1787 -3.9582571,-1.438 -2.9460743,-4.183 -7.1491081,-4.4475 -0.2626895,-0.016 -0.5083969,-0.021 -0.7354642,-0.015 z m 61.5437415,0.01 h -0.279823 c -4.211348,0 -3.190851,3.0095 -7.149108,4.4475 -3.958257,1.4378 -4.947408,-1.3162 -8.340213,1.1787 -3.392806,2.4948 -1.057971,4.26 -3.610461,7.6097 -2.552489,3.3496 -4.87359,1.5668 -6.378975,5.4999 -1.505386,3.9331 1.411044,4.1571 1.074718,8.355 -0.336323,4.1979 -3.252101,3.9527 -2.392115,8.0753 0.859983,4.1226 3.436499,2.7325 5.423119,6.4458 1.986621,3.7133 -0.599818,5.0844 2.352495,8.0876 2.952314,3.0033 4.366704,0.4414 8.045533,2.4912 3.678827,2.0498 2.24443,4.5993 6.351736,5.5296 2.609028,0.591 3.536184,-0.3599 4.903094,-1.2084 z"
       transform="matrix(0.20868318,0,0,0.20868318,10.231186,-22.691645)"
       sodipodi:nodetypes="cssccsssssssssssssssccssssssssssccccscccssssssssssssscccsssssssssscccs" /><path
       style="fill:#e0e0e0;fill-rule:evenodd;stroke:none;stroke-width:0.264583px;stroke-linecap:butt;stroke-linejoin:miter;stroke-opacity:1"
       d="m 157.82814,-61.118986 2.61559,4.76787 2.85156,4.739574 2.90813,4.395838 3.61943,5.472441 c 0,0 -8.63402,-14.910537 -10.70435,-18.607166 -2.07031,-3.696628 -3.02839,-5.593477 -3.02839,-5.593477 z"
       id="path6504"
       sodipodi:nodetypes="ccccczcc" /><path
       style="display:inline;fill:#e0e0e0;fill-rule:evenodd;stroke:none;stroke-width:0.264583px;stroke-linecap:butt;stroke-linejoin:miter;stroke-opacity:1"
       d="m 157.59232,-56.30677 2.3003,4.834732 2.9261,4.742302 2.40015,3.29276 4.24323,5.529136 c 0,0 -9.66553,-14.668761 -11.17337,-18.285448 -1.50785,-3.616688 -2.43444,-4.938402 -2.43444,-4.938402 z"
       id="path6504-9"
       sodipodi:nodetypes="ccccczcc" /><path
       style="display:inline;fill:#e0e0e0;fill-rule:evenodd;stroke:none;stroke-width:0.264583px;stroke-linecap:butt;stroke-linejoin:miter;stroke-opacity:1"
       d="m 155.98811,-52.812391 2.16762,5.2975 2.75166,4.6809 2.78106,3.308596 4.76113,5.343338 c 0,0 -7.75878,-9.241277 -11.19584,-17.620285 -3.43706,-8.379007 -2.3075,-5.232963 -2.3075,-5.232963 z"
       id="path6504-1"
       sodipodi:nodetypes="ccccczcc" /><path
       style="display:inline;fill:#e0e0e0;fill-rule:evenodd;stroke:none;stroke-width:0.264583px;stroke-linecap:butt;stroke-linejoin:miter;stroke-opacity:1"
       d="m 154.95838,-42.293697 2.07212,4.474684 2.94337,4.665124 2.2186,2.750764 3.70952,4.258605 c 0,0 -6.33642,-7.582937 -9.77348,-15.961944 -3.43706,-8.379007 -1.8342,-3.723202 -1.8342,-3.723202 z"
       id="path6504-1-7"
       sodipodi:nodetypes="ccccczcc" /><path
       style="display:inline;fill:#e0e0e0;fill-rule:evenodd;stroke:none;stroke-width:0.264583px;stroke-linecap:butt;stroke-linejoin:miter;stroke-opacity:1"
       d="m 154.32122,-35.700828 2.17802,4.35018 3.27499,4.504739 1.39237,1.605713 2.30646,2.591923 c 0,0 -4.98247,-6.444826 -7.98171,-12.865322 -2.99923,-6.420496 -1.95043,-3.713517 -1.95043,-3.713517 z"
       id="path6504-1-7-0"
       sodipodi:nodetypes="ccccczcc" /><path
       style="display:inline;fill:#e0e0e0;fill-rule:evenodd;stroke:none;stroke-width:0.264583px;stroke-linecap:butt;stroke-linejoin:miter;stroke-opacity:1"
       d="m 154.88492,-26.516871 1.45591,2.884962 2.19702,3.048497 c 0,0 2.11588,2.666724 3.35565,4.059945 0,0 -3.94564,-5.136388 -5.95268,-9.581077 -2.00703,-4.444687 -1.83621,-3.938612 -1.83621,-3.938612 z"
       id="path6504-1-7-0-9"
       sodipodi:nodetypes="cccczcc" /><path
       style="display:inline;fill:#e0e0e0;fill-rule:evenodd;stroke:none;stroke-width:0.264583px;stroke-linecap:butt;stroke-linejoin:miter;stroke-opacity:1"
       d="m 156.23141,-47.167669 1.74592,4.158939 1.83015,3.609882 2.65757,3.776449 3.70037,4.892359 c 0,0 -6.81823,-10.777152 -9.1519,-16.565852 -2.33367,-5.788699 -2.52014,-4.696697 -2.52014,-4.696697 z"
       id="path6504-2"
       sodipodi:nodetypes="ccccczcc" /><path
       style="fill:#e0e0e0;fill-rule:evenodd;stroke:none;stroke-width:0.264583px;stroke-linecap:butt;stroke-linejoin:miter;stroke-opacity:1"
       d="m 157.01233,-69.919146 2.77549,5.596928 2.27015,4.545031 3.04267,5.259222 2.74297,4.138316 4.13315,5.987497 c 0,0 -9.32023,-16.487234 -11.43343,-20.106374 -2.11321,-3.619132 -3.531,-5.42062 -3.531,-5.42062 z"
       id="path6502"
       sodipodi:nodetypes="cccccczc" /><path
       style="fill:none;fill-rule:evenodd;stroke:#000000;stroke-width:0.334838px;stroke-linecap:butt;stroke-linejoin:miter;stroke-opacity:1"
       d="m 165.2467,-11.204982 c 2.54573,-2.403093 5.25067,-5.104669 5.31822,-8.990014 0.0543,-3.125273 3.74635,-5.655864 5.86108,-11.054009 -0.86182,-17.184837 -11.46114,-32.688664 -19.41367,-38.67014 -4.38375,-3.977396 -0.0319,6.216002 0.8158,8.800157 -3.98097,-5.582925 -1.55136,1.5962 -0.23581,4.812218 -4.33069,-6.292232 -2.34651,1.155736 -1.7996,2.594362 -2.9898,-3.383591 -0.34246,4.456544 0.43869,6.544739 -3.34232,-3.604366 -1.89712,1.211025 -1.27303,4.873974 -3.9881,-4.830486 -0.56499,5.713277 -0.66516,6.655848 -3.64586,-3.259562 0.3825,6.578679 0.5917,9.120976 -4.00645,-4.768441 0.94125,10.54202 -2.87991,16.134235 z"
       id="path3559"
       sodipodi:nodetypes="csccccccccccc" /><path
       style="fill:none;fill-rule:evenodd;stroke:#000000;stroke-width:0.334838px;stroke-linecap:butt;stroke-linejoin:miter;stroke-opacity:1;marker-end:url(#CapTriangle)"
       d="m 157.01233,-69.919145 c 3.07173,6.767348 6.54323,13.346067 10.83128,19.539496"
       id="path3561"
       sodipodi:nodetypes="cc" /><path
       style="fill:none;fill-rule:evenodd;stroke:#000000;stroke-width:0.334838px;stroke-linecap:butt;stroke-linejoin:miter;stroke-opacity:1;marker-end:url(#CapTriangle)"
       d="m 157.82814,-61.118988 c 3.10499,6.081703 3.96582,7.241183 8.37528,13.903283"
       id="path3563"
       sodipodi:nodetypes="cc" /><path
       style="fill:none;fill-rule:evenodd;stroke:#000000;stroke-width:0.334838px;stroke-linecap:butt;stroke-linejoin:miter;stroke-opacity:1;marker-end:url(#CapTriangle)"
       d="m 157.59233,-56.30677 c 1.84497,4.474217 4.28099,8.54299 7.17499,12.297607"
       id="path3565"
       sodipodi:nodetypes="cc" /><path
       style="fill:none;fill-rule:evenodd;stroke:#000000;stroke-width:0.334838px;stroke-linecap:butt;stroke-linejoin:miter;stroke-opacity:1;marker-end:url(#CapTriangle)"
       d="m 155.79272,-53.71241 c 1.91866,5.782542 3.57118,9.308509 7.89573,14.187015"
       id="path3567"
       sodipodi:nodetypes="cc" /><path
       style="fill:none;fill-rule:evenodd;stroke:#000000;stroke-width:0.334838px;stroke-linecap:butt;stroke-linejoin:miter;stroke-opacity:1;marker-end:url(#CapTriangle)"
       d="m 156.23141,-47.167671 c 1.45488,3.872713 3.14855,7.623644 5.70583,10.934128"
       id="path3569"
       sodipodi:nodetypes="cc" /><path
       style="fill:none;fill-rule:evenodd;stroke:#000000;stroke-width:0.334838px;stroke-linecap:butt;stroke-linejoin:miter;stroke-opacity:1;marker-end:url(#CapTriangle)"
       d="m 154.95838,-42.293697 c 1.61658,3.941406 3.54779,7.355712 5.86016,10.131457"
       id="path3571"
       sodipodi:nodetypes="cc" /><path
       style="fill:none;fill-rule:evenodd;stroke:#000000;stroke-width:0.334838px;stroke-linecap:butt;stroke-linejoin:miter;stroke-opacity:1;marker-end:url(#CapTriangle)"
       d="m 154.29323,-35.637848 c 1.23912,2.819769 2.68458,5.323855 4.41576,7.390868"
       id="path3573"
       sodipodi:nodetypes="cc" /><path
       style="display:inline;fill:none;fill-rule:evenodd;stroke:#000000;stroke-width:0.334838px;stroke-linecap:butt;stroke-linejoin:miter;stroke-opacity:1;marker-end:url(#CapTriangle-5)"
       d="m 154.80695,-26.837515 c 0.60141,1.565623 1.34505,3.119312 2.4255,4.495953"
       id="path3573-2"
       sodipodi:nodetypes="cc" /><path
       style="fill:#e0e0e0;fill-rule:evenodd;stroke:none;stroke-width:0.264583px;stroke-linecap:butt;stroke-linejoin:miter;stroke-opacity:1"
       d="m 164.27561,39.219306 1.9833,-5.063637 2.22095,-5.065802 2.32108,-4.732142 2.88862,-5.890993 c 0,0 -6.65292,15.893683 -8.23266,19.82506 -1.57975,3.931371 -2.28695,5.93532 -2.28695,5.93532 z"
       id="path6935"
       sodipodi:nodetypes="ccccczcc"
       inkscape:transform-center-x="-3.2446258"
       inkscape:transform-center-y="42.551385" /><path
       style="display:inline;fill:#e0e0e0;fill-rule:evenodd;stroke:none;stroke-width:0.264583px;stroke-linecap:butt;stroke-linejoin:miter;stroke-opacity:1"
       d="m 163.4253,34.476941 1.66204,-5.089562 2.29454,-5.078054 1.95858,-3.573083 3.50002,-6.027126 c 0,0 -7.70689,15.786033 -8.73903,19.566072 -1.03216,3.78004 -1.78181,5.209559 -1.78181,5.209559 z"
       id="path6937"
       sodipodi:nodetypes="ccccczcc"
       inkscape:transform-center-x="-2.394931"
       inkscape:transform-center-y="38.301393" /><path
       style="display:inline;fill:#e0e0e0;fill-rule:evenodd;stroke:none;stroke-width:0.264583px;stroke-linecap:butt;stroke-linejoin:miter;stroke-opacity:1"
       d="m 161.3867,31.216844 1.47117,-5.531523 2.12939,-4.994811 2.33433,-3.637583 4.03745,-5.909201 c 0,0 -6.51109,10.159014 -8.84652,18.909267 -2.33542,8.750254 -1.61816,5.485436 -1.61816,5.485436 z"
       id="path6939"
       sodipodi:nodetypes="ccccczcc"
       inkscape:transform-center-x="-0.88964385"
       inkscape:transform-center-y="34.843642" /><path
       style="display:inline;fill:#e0e0e0;fill-rule:evenodd;stroke:none;stroke-width:0.264583px;stroke-linecap:butt;stroke-linejoin:miter;stroke-opacity:1"
       d="m 159.01805,20.916708 1.48187,-4.703249 2.32153,-5.003726 1.84797,-3.0122953 3.13344,-4.6986958 c 0,0 -5.31287,8.3321341 -7.64831,17.0823881 -2.33543,8.750253 -1.34215,3.927484 -1.34215,3.927484 z"
       id="path6941"
       sodipodi:nodetypes="ccccczcc"
       inkscape:transform-center-x="1.9824238"
       inkscape:transform-center-y="25.871092" /><path
       style="display:inline;fill:#e0e0e0;fill-rule:evenodd;stroke:none;stroke-width:0.264583px;stroke-linecap:butt;stroke-linejoin:miter;stroke-opacity:1"
       d="m 157.54162,14.45977 1.60284,-4.5933358 2.67096,-4.8871413 1.17523,-1.7708414 1.95543,-2.86601953 c 0,0 -4.11586,7.02996913 -6.26795,13.78176103 -2.1521,6.75179 -1.45867,3.932768 -1.45867,3.932768 z"
       id="path6943"
       sodipodi:nodetypes="ccccczcc"
       inkscape:transform-center-x="4.1556049"
       inkscape:transform-center-y="20.696033" /><path
       style="display:inline;fill:#e0e0e0;fill-rule:evenodd;stroke:none;stroke-width:0.264583px;stroke-linecap:butt;stroke-linejoin:miter;stroke-opacity:1"
       d="m 156.92425,5.2792675 1.07436,-3.0476913 1.78841,-3.3048136 c 0,0 1.75685,-2.9157902 2.80796,-4.4563435 0,0 -3.25519,5.59949337 -4.67635,10.2646609 -1.42114,4.6651645 -1.31657,4.1413752 -1.31657,4.1413752 z"
       id="path6945"
       sodipodi:nodetypes="cccczcc"
       inkscape:transform-center-x="5.5874695"
       inkscape:transform-center-y="12.886704" /><path
       style="display:inline;fill:#e0e0e0;fill-rule:evenodd;stroke:none;stroke-width:0.264583px;stroke-linecap:butt;stroke-linejoin:miter;stroke-opacity:1"
       d="m 160.90493,25.587459 1.19878,-4.348324 1.35268,-3.814575 2.15192,-4.085764 3.04319,-5.3260561 c 0,0 -5.38154,11.5617561 -6.95448,17.6017001 -1.57294,6.039943 -1.89775,4.980825 -1.89775,4.980825 z"
       id="path6947"
       sodipodi:nodetypes="ccccczcc"
       inkscape:transform-center-x="0.95974379"
       inkscape:transform-center-y="30.544165" /><path
       style="fill:#e0e0e0;fill-rule:evenodd;stroke:none;stroke-width:0.264583px;stroke-linecap:butt;stroke-linejoin:miter;stroke-opacity:1"
       d="m 164.5938,48.051473 2.03567,-5.906351 1.66925,-4.798382 2.34392,-5.605652 2.19027,-4.455586 3.33212,-6.467611 c 0,0 -7.1315,17.54529 -8.7637,21.405307 -1.63219,3.860012 -2.80753,5.828275 -2.80753,5.828275 z"
       id="path6949"
       sodipodi:nodetypes="cccccczc"
       inkscape:transform-center-x="-5.1942861"
       inkscape:transform-center-y="45.639144" /><path
       style="fill:none;fill-rule:evenodd;stroke:#000000;stroke-width:0.334838px;stroke-linecap:butt;stroke-linejoin:miter;stroke-opacity:1"
       d="m 165.23928,-11.233782 c 2.83257,2.0571962 5.8613,4.3900272 6.42599,8.2347096 0.45421,3.09256747 4.43998,5.1293766 7.22876,10.2121624 1.34659,17.153659 -7.17942,33.887493 -14.30024,40.838379 -3.83815,4.506172 -0.82789,-6.160706 -0.31819,-8.832161 -3.23302,6.046878 -1.74303,-1.384325 -0.8503,-4.742367 -3.489,6.795141 -2.47521,-0.845634 -2.11709,-2.342466 -2.53175,3.738698 -0.91051,-4.375963 -0.40328,-6.547016 -2.85308,4.00281 -2.03662,-0.958034 -1.88688,-4.670752 -3.33649,5.30155 -1.29219,-5.593837 -1.51227,-6.51581 -3.19828,3.699729 -0.46334,-6.5734782 -0.58153,-9.1216295 -3.36262,5.2423675 -0.4169,-10.5757437 -4.92292,-15.6324135 z"
       id="path6951"
       sodipodi:nodetypes="csccccccccccc"
       inkscape:transform-center-x="-0.33332914"
       inkscape:transform-center-y="30.161551" /><path
       style="fill:none;fill-rule:evenodd;stroke:#000000;stroke-width:0.334838px;stroke-linecap:butt;stroke-linejoin:miter;stroke-opacity:1;marker-end:url(#CapTriangle)"
       d="m 164.59379,48.051469 c 2.17955,-7.105073 4.77974,-14.07428 8.23912,-20.765967"
       id="path6953"
       sodipodi:nodetypes="cc"
       inkscape:transform-center-x="-3.5282209"
       inkscape:transform-center-y="48.872948" /><path
       style="fill:none;fill-rule:evenodd;stroke:#000000;stroke-width:0.334838px;stroke-linecap:butt;stroke-linejoin:miter;stroke-opacity:1;marker-end:url(#CapTriangle)"
       d="m 164.27561,39.219308 c 2.30038,-6.429336 3.00558,-7.689534 6.52533,-14.861582"
       id="path6955"
       sodipodi:nodetypes="cc"
       inkscape:transform-center-x="-2.3531461"
       inkscape:transform-center-y="42.992979" /><path
       style="fill:none;fill-rule:evenodd;stroke:#000000;stroke-width:0.334838px;stroke-linecap:butt;stroke-linejoin:miter;stroke-opacity:1;marker-end:url(#CapTriangle)"
       d="m 163.42531,34.476939 c 1.25665,-4.673689 3.15141,-9.020987 5.54062,-13.115383"
       id="path6957"
       sodipodi:nodetypes="cc"
       inkscape:transform-center-x="-1.0104908"
       inkscape:transform-center-y="39.123709" /><path
       style="fill:none;fill-rule:evenodd;stroke:#000000;stroke-width:0.334838px;stroke-linecap:butt;stroke-linejoin:miter;stroke-opacity:1;marker-end:url(#CapTriangle)"
       d="m 161.30821,32.134477 c 1.16216,-5.980672 2.34937,-9.689279 6.01338,-15.08155"
       id="path6959"
       sodipodi:nodetypes="cc"
       inkscape:transform-center-x="0.87022933"
       inkscape:transform-center-y="35.798164" /><path
       style="fill:none;fill-rule:evenodd;stroke:#000000;stroke-width:0.334838px;stroke-linecap:butt;stroke-linejoin:miter;stroke-opacity:1;marker-end:url(#CapTriangle)"
       d="m 160.90493,25.587461 c 0.94684,-4.027168 2.14606,-7.964156 4.2582,-11.574945"
       id="path6961"
       sodipodi:nodetypes="cc"
       inkscape:transform-center-x="2.1510989"
       inkscape:transform-center-y="31.00445" /><path
       style="fill:none;fill-rule:evenodd;stroke:#000000;stroke-width:0.334838px;stroke-linecap:butt;stroke-linejoin:miter;stroke-opacity:1;marker-end:url(#CapTriangle)"
       d="m 159.01805,20.916708 c 1.09838,-4.116014 2.57632,-7.74957 4.51409,-10.798654"
       id="path6963"
       sodipodi:nodetypes="cc"
       inkscape:transform-center-x="3.910034"
       inkscape:transform-center-y="26.721843" /><path
       style="fill:none;fill-rule:evenodd;stroke:#000000;stroke-width:0.334838px;stroke-linecap:butt;stroke-linejoin:miter;stroke-opacity:1;marker-end:url(#CapTriangle)"
       d="m 157.50579,14.400896 c 0.86771,-2.955267 1.98051,-5.6238795 3.43265,-7.8956218"
       id="path6965"
       sodipodi:nodetypes="cc"
       inkscape:transform-center-x="5.963014"
       inkscape:transform-center-y="21.657546" /><path
       style="display:inline;fill:none;fill-rule:evenodd;stroke:#000000;stroke-width:0.334838px;stroke-linecap:butt;stroke-linejoin:miter;stroke-opacity:1;marker-end:url(#CapTriangle-5)"
       d="m 156.888,5.607258 c 0.39587,-1.6297688 0.93439,-3.2659132 1.8296,-4.76961083"
       id="path6967"
       sodipodi:nodetypes="cc"
       inkscape:transform-center-x="7.3823291"
       inkscape:transform-center-y="14.426914" /><path
       style="fill:#e0e0e0;fill-rule:evenodd;stroke:none;stroke-width:0.264583px;stroke-linecap:butt;stroke-linejoin:miter;stroke-opacity:1"
       d="m 194.51219,-61.075456 -1.97788,5.065754 -2.21554,5.068171 -2.31602,4.734621 -2.88232,5.894074 c 0,0 6.63592,-15.900781 8.21148,-19.833843 1.57553,-3.933058 2.28059,-5.937761 2.28059,-5.937761 z"
       id="path6969"
       sodipodi:nodetypes="ccccczcc" /><path
       style="display:inline;fill:#e0e0e0;fill-rule:evenodd;stroke:none;stroke-width:0.264583px;stroke-linecap:butt;stroke-linejoin:miter;stroke-opacity:1"
       d="m 195.36756,-56.334002 -1.6566,5.091334 -2.2891,5.080503 -1.95477,3.575174 -3.49357,6.030861 c 0,0 7.69003,-15.794255 8.71812,-19.575396 1.02811,-3.781143 1.77623,-5.211461 1.77623,-5.211461 z"
       id="path6971"
       sodipodi:nodetypes="ccccczcc" /><path
       style="display:inline;fill:#e0e0e0;fill-rule:evenodd;stroke:none;stroke-width:0.264583px;stroke-linecap:butt;stroke-linejoin:miter;stroke-opacity:1"
       d="m 197.40965,-53.076083 -1.46526,5.533089 -2.12405,4.997087 -2.33044,3.640073 -4.03114,5.913509 c 0,0 6.50024,-10.165963 8.82632,-18.918706 2.32608,-8.752742 1.61231,-5.48716 1.61231,-5.48716 z"
       id="path6973"
       sodipodi:nodetypes="ccccczcc" /><path
       style="display:inline;fill:#e0e0e0;fill-rule:evenodd;stroke:none;stroke-width:0.264583px;stroke-linecap:butt;stroke-linejoin:miter;stroke-opacity:1"
       d="m 199.7893,-42.778485 -1.47683,4.704831 -2.31619,5.006203 -1.84474,3.014268 -3.12843,4.702041 c 0,0 5.30397,-8.337808 7.63005,-17.09055 2.32608,-8.752742 1.33796,-3.928914 1.33796,-3.928914 z"
       id="path6975"
       sodipodi:nodetypes="ccccczcc" /><path
       style="display:inline;fill:#e0e0e0;fill-rule:evenodd;stroke:none;stroke-width:0.264583px;stroke-linecap:butt;stroke-linejoin:miter;stroke-opacity:1"
       d="m 201.27263,-36.323128 -1.59793,4.595047 -2.66575,4.889992 -1.17332,1.772096 -1.95238,2.868106 c 0,0 4.10836,-7.03436 6.25323,-13.788448 2.14487,-6.754087 1.45448,-3.934322 1.45448,-3.934322 z"
       id="path6977"
       sodipodi:nodetypes="ccccczcc" /><path
       style="display:inline;fill:#e0e0e0;fill-rule:evenodd;stroke:none;stroke-width:0.264583px;stroke-linecap:butt;stroke-linejoin:miter;stroke-opacity:1"
       d="m 201.89981,-27.143288 -1.07111,3.048838 -1.78489,3.30672 c 0,0 -1.75373,2.917666 -2.80318,4.459341 0,0 3.2492,-5.602968 4.66538,-10.26965 1.41616,-4.666679 1.31214,-4.14278 1.31214,-4.14278 z"
       id="path6979"
       sodipodi:nodetypes="cccczcc" /><path
       style="display:inline;fill:#e0e0e0;fill-rule:evenodd;stroke:none;stroke-width:0.264583px;stroke-linecap:butt;stroke-linejoin:miter;stroke-opacity:1"
       d="m 197.89744,-47.447216 -1.19415,4.3496 -1.34859,3.816021 -2.14756,4.088058 -3.0375,5.329305 c 0,0 5.36919,-11.567497 6.93568,-17.609119 1.56648,-6.041621 1.89243,-4.982849 1.89243,-4.982849 z"
       id="path6981"
       sodipodi:nodetypes="ccccczcc" /><path
       style="fill:#e0e0e0;fill-rule:evenodd;stroke:none;stroke-width:0.264583px;stroke-linecap:butt;stroke-linejoin:miter;stroke-opacity:1"
       d="m 194.18458,-69.907275 -2.02937,5.908519 -1.66412,4.800166 -2.33793,5.60815 -2.18551,4.457924 -3.32521,6.471166 c 0,0 7.11275,-17.5529 8.74082,-21.414659 1.62808,-3.861752 2.80132,-5.831266 2.80132,-5.831266 z"
       id="path6983"
       sodipodi:nodetypes="cccccczc" /><path
       style="fill:none;fill-rule:evenodd;stroke:#000000;stroke-width:0.334838px;stroke-linecap:butt;stroke-linejoin:miter;stroke-opacity:1"
       d="m 193.60243,-10.621366 c -2.83478,-2.054171 -5.86599,-4.383762 -6.43479,-8.227841 -0.45749,-3.092083 -4.44545,-5.124631 -7.23967,-10.204435 -1.36491,-17.152212 7.14323,-33.895143 14.25661,-40.853632 3.83334,-4.510268 0.83447,6.159819 0.32762,8.831815 3.22657,-6.050328 1.74453,1.382464 0.85536,4.741457 3.48174,-6.798863 2.47613,0.842991 2.11961,2.340204 2.52775,-3.7414 0.91517,4.374987 0.41027,6.546582 2.8488,-4.005855 2.03764,0.955859 1.89186,4.668733 3.33082,-5.305112 1.29816,5.592453 1.51923,6.514192 3.19434,-3.703143 0.47038,6.57298 0.59128,9.121003 3.35702,-5.245956 0.42819,10.575292 4.93961,15.627145 z"
       id="path6985"
       sodipodi:nodetypes="csccccccccccc" /><path
       style="fill:none;fill-rule:evenodd;stroke:#000000;stroke-width:0.334838px;stroke-linecap:butt;stroke-linejoin:miter;stroke-opacity:1;marker-end:url(#CapTriangle)"
       d="m 194.18458,-69.907274 c -2.17196,7.107397 -4.76471,14.079378 -8.21693,20.774758"
       id="path6987"
       sodipodi:nodetypes="cc" /><path
       style="fill:none;fill-rule:evenodd;stroke:#000000;stroke-width:0.334838px;stroke-linecap:butt;stroke-linejoin:miter;stroke-opacity:1;marker-end:url(#CapTriangle)"
       d="m 194.51219,-61.075458 c -2.2935,6.431791 -2.99736,7.692741 -6.50944,14.868547"
       id="path6989"
       sodipodi:nodetypes="cc" /><path
       style="fill:none;fill-rule:evenodd;stroke:#000000;stroke-width:0.334838px;stroke-linecap:butt;stroke-linejoin:miter;stroke-opacity:1;marker-end:url(#CapTriangle)"
       d="m 195.36755,-56.334001 c -1.25165,4.67503 -3.14176,9.02435 -5.52659,13.121295"
       id="path6991"
       sodipodi:nodetypes="cc" /><path
       style="fill:none;fill-rule:evenodd;stroke:#000000;stroke-width:0.334838px;stroke-linecap:butt;stroke-linejoin:miter;stroke-opacity:1;marker-end:url(#CapTriangle)"
       d="m 197.48717,-53.9938 c -1.15575,5.981915 -2.33903,9.691782 -5.99727,15.087966"
       id="path6993"
       sodipodi:nodetypes="cc" /><path
       style="fill:none;fill-rule:evenodd;stroke:#000000;stroke-width:0.334838px;stroke-linecap:butt;stroke-linejoin:miter;stroke-opacity:1;marker-end:url(#CapTriangle)"
       d="m 197.89744,-47.447218 c -0.94252,4.028182 -2.13755,7.966443 -4.24584,11.579486"
       id="path6995"
       sodipodi:nodetypes="cc" /><path
       style="fill:none;fill-rule:evenodd;stroke:#000000;stroke-width:0.334838px;stroke-linecap:butt;stroke-linejoin:miter;stroke-opacity:1;marker-end:url(#CapTriangle)"
       d="m 199.7893,-42.778485 c -1.09398,4.117184 -2.56804,7.752319 -4.50254,10.803471"
       id="path6997"
       sodipodi:nodetypes="cc" /><path
       style="fill:none;fill-rule:evenodd;stroke:#000000;stroke-width:0.334838px;stroke-linecap:butt;stroke-linejoin:miter;stroke-opacity:1;marker-end:url(#CapTriangle)"
       d="m 201.30852,-36.264291 c -0.86455,2.956191 -1.97449,5.625993 -3.4242,7.899284"
       id="path6999"
       sodipodi:nodetypes="cc" /><path
       style="display:inline;fill:none;fill-rule:evenodd;stroke:#000000;stroke-width:0.334838px;stroke-linecap:butt;stroke-linejoin:miter;stroke-opacity:1;marker-end:url(#CapTriangle-5)"
       d="m 201.93571,-27.471316 c -0.39416,1.630185 -0.9309,3.266906 -1.8245,4.771563"
       id="path7001"
       sodipodi:nodetypes="cc" /><path
       style="fill:#e0e0e0;fill-rule:evenodd;stroke:none;stroke-width:0.264583px;stroke-linecap:butt;stroke-linejoin:miter;stroke-opacity:1"
       d="m 201.07795,39.255166 -2.62068,-4.765073 -2.85663,-4.736525 -2.91282,-4.392727 -3.62528,-5.468572 c 0,0 8.64995,14.901303 10.72422,18.595721 2.07428,3.69441 3.03437,5.590236 3.03437,5.590236 z"
       id="path7003"
       sodipodi:nodetypes="ccccczcc"
       inkscape:transform-center-x="-2.2782827"
       inkscape:transform-center-y="42.614051" /><path
       style="display:inline;fill:#e0e0e0;fill-rule:evenodd;stroke:none;stroke-width:0.264583px;stroke-linecap:butt;stroke-linejoin:miter;stroke-opacity:1"
       d="m 201.30864,34.442699 -2.30547,-4.832273 -2.93118,-4.73917 -2.40365,-3.290195 -4.24914,-5.524599 c 0,0 9.68119,14.658429 11.19289,18.273502 1.51173,3.615071 2.43973,4.935795 2.43973,4.935795 z"
       id="path7005"
       sodipodi:nodetypes="ccccczcc"
       inkscape:transform-center-x="-2.5719573"
       inkscape:transform-center-y="38.289913" /><path
       style="display:inline;fill:#e0e0e0;fill-rule:evenodd;stroke:none;stroke-width:0.264583px;stroke-linecap:butt;stroke-linejoin:miter;stroke-opacity:1"
       d="m 202.9091,30.946611 -2.17327,-5.295184 -2.75666,-4.677954 -2.78459,-3.305625 -4.76684,-5.338249 c 0,0 7.76864,9.232984 11.21466,17.608315 3.446,8.375333 2.31308,5.230498 2.31308,5.230498 z"
       id="path7007"
       sodipodi:nodetypes="ccccczcc"
       inkscape:transform-center-x="-3.6171983"
       inkscape:transform-center-y="34.667048" /><path
       style="display:inline;fill:#e0e0e0;fill-rule:evenodd;stroke:none;stroke-width:0.264583px;stroke-linecap:butt;stroke-linejoin:miter;stroke-opacity:1"
       d="m 203.9276,20.426821 -2.07691,-4.472465 -2.94834,-4.661978 -2.22155,-2.7483911 -3.71406,-4.2546408 c 0,0 6.34451,7.5761619 9.79053,15.9514929 3.44602,8.375331 1.83817,3.721243 1.83817,3.721243 z"
       id="path7009"
       sodipodi:nodetypes="ccccczcc"
       inkscape:transform-center-x="-5.3048616"
       inkscape:transform-center-y="25.399275" /><path
       style="display:inline;fill:#e0e0e0;fill-rule:evenodd;stroke:none;stroke-width:0.264583px;stroke-linecap:butt;stroke-linejoin:miter;stroke-opacity:1"
       d="m 204.55771,13.833275 -2.18267,-4.3478485 -3.27979,-4.5012397 -1.3941,-1.6042223 -2.30921,-2.58946064 c 0,0 4.98935,6.43950354 7.99544,12.85679114 3.00611,6.417285 1.95439,3.711434 1.95439,3.711434 z"
       id="path7011"
       sodipodi:nodetypes="ccccczcc"
       inkscape:transform-center-x="-6.7924204"
       inkscape:transform-center-y="19.98659" /><path
       style="display:inline;fill:#e0e0e0;fill-rule:evenodd;stroke:none;stroke-width:0.264583px;stroke-linecap:butt;stroke-linejoin:miter;stroke-opacity:1"
       d="m 203.9842,4.6499283 -1.45899,-2.8834057 -2.20026,-3.0461511 c 0,0 -2.11873,-2.6644621 -3.36,-4.0563558 0,0 3.95113,5.13216899 5.96292,9.5747124 2.01176,4.4425431 1.84042,3.9366466 1.84042,3.9366466 z"
       id="path7013"
       sodipodi:nodetypes="cccczcc"
       inkscape:transform-center-x="-7.204882"
       inkscape:transform-center-y="12.057201" /><path
       style="display:inline;fill:#e0e0e0;fill-rule:evenodd;stroke:none;stroke-width:0.264583px;stroke-linecap:butt;stroke-linejoin:miter;stroke-opacity:1"
       d="m 202.65977,25.302152 -1.75035,-4.157075 -1.83402,-3.607919 -2.66159,-3.773612 -3.70559,-4.8884031 c 0,0 6.82973,10.7698651 9.16958,16.5560671 2.33986,5.786201 2.52516,4.694003 2.52516,4.694003 z"
       id="path7015"
       sodipodi:nodetypes="ccccczcc"
       inkscape:transform-center-x="-4.8920371"
       inkscape:transform-center-y="30.169997" /><path
       style="fill:#e0e0e0;fill-rule:evenodd;stroke:none;stroke-width:0.264583px;stroke-linecap:butt;stroke-linejoin:miter;stroke-opacity:1"
       d="m 201.90315,48.054454 -2.78146,-5.593964 -2.27501,-4.5426 -3.04828,-5.255972 -2.74739,-4.135383 -4.13954,-5.983079 c 0,0 9.33784,16.477266 11.45491,20.094145 2.11706,3.616876 3.53677,5.416853 3.53677,5.416853 z"
       id="path7017"
       sodipodi:nodetypes="cccccczc"
       inkscape:transform-center-x="-0.74375729"
       inkscape:transform-center-y="45.927758" /><path
       style="fill:none;fill-rule:evenodd;stroke:#000000;stroke-width:0.334838px;stroke-linecap:butt;stroke-linejoin:miter;stroke-opacity:1"
       d="m 193.60607,-10.650883 c -2.54315,2.4058066 -5.24522,5.1102753 -5.30861,8.9956888 -0.051,3.125329 -3.74031,5.6598619 -5.84926,11.060262 0.88017,17.1839062 11.49603,32.6764042 19.45496,38.6493802 4.388,3.972713 0.0253,-6.216032 -0.8252,-8.799282 3.98693,5.57867 1.54964,-1.597852 0.23068,-4.812467 4.3374,6.287604 2.34526,-1.158238 1.79681,-2.59628 2.99342,3.380395 0.33771,-4.456909 -0.44568,-6.544267 3.34617,3.600794 1.89583,-1.21305 1.26783,-4.875332 3.99327,4.826221 0.55889,-5.713878 0.65805,-6.656553 3.64933,3.255666 -0.38954,-6.5782649 -0.60145,-9.1203387 4.01154,4.7641591 -0.9525,-10.5410101 2.86268,-16.1373033 z"
       id="path7019"
       sodipodi:nodetypes="csccccccccccc"
       inkscape:transform-center-x="-0.98398778"
       inkscape:transform-center-y="29.36657" /><path
       style="fill:none;fill-rule:evenodd;stroke:#000000;stroke-width:0.334838px;stroke-linecap:butt;stroke-linejoin:miter;stroke-opacity:1;marker-end:url(#CapTriangle)"
       d="M 201.90316,48.054448 C 198.8242,41.290385 195.34568,34.715378 191.05101,28.526535"
       id="path7021"
       sodipodi:nodetypes="cc"
       inkscape:transform-center-x="-2.8135326"
       inkscape:transform-center-y="48.919295" /><path
       style="fill:none;fill-rule:evenodd;stroke:#000000;stroke-width:0.334838px;stroke-linecap:butt;stroke-linejoin:miter;stroke-opacity:1;marker-end:url(#CapTriangle)"
       d="m 201.07795,39.255168 c -3.1115,-6.07838 -3.97355,-7.236943 -8.39013,-13.894326"
       id="path7023"
       sodipodi:nodetypes="cc"
       inkscape:transform-center-x="-3.2193323"
       inkscape:transform-center-y="42.936808" /><path
       style="fill:none;fill-rule:evenodd;stroke:#000000;stroke-width:0.334838px;stroke-linecap:butt;stroke-linejoin:miter;stroke-opacity:1;marker-end:url(#CapTriangle)"
       d="m 201.30863,34.442698 c -1.84976,-4.472241 -4.29013,-8.538409 -7.18814,-12.289933"
       id="path7025"
       sodipodi:nodetypes="cc"
       inkscape:transform-center-x="-4.0510075"
       inkscape:transform-center-y="38.926534" /><path
       style="fill:none;fill-rule:evenodd;stroke:#000000;stroke-width:0.334838px;stroke-linecap:butt;stroke-linejoin:miter;stroke-opacity:1;marker-end:url(#CapTriangle)"
       d="m 203.10545,31.846421 c -1.92486,-5.780481 -3.58111,-9.304692 -7.91087,-14.178573"
       id="path7027"
       sodipodi:nodetypes="cc"
       inkscape:transform-center-x="-5.4864627"
       inkscape:transform-center-y="35.385937" /><path
       style="fill:none;fill-rule:evenodd;stroke:#000000;stroke-width:0.334838px;stroke-linecap:butt;stroke-linejoin:miter;stroke-opacity:1;marker-end:url(#CapTriangle)"
       d="m 202.65977,25.302154 c -1.45904,-3.871148 -3.1567,-7.620276 -5.7175,-10.928028"
       id="path7029"
       sodipodi:nodetypes="cc"
       inkscape:transform-center-x="-6.1374672"
       inkscape:transform-center-y="30.466942" /><path
       style="fill:none;fill-rule:evenodd;stroke:#000000;stroke-width:0.334838px;stroke-linecap:butt;stroke-linejoin:miter;stroke-opacity:1;marker-end:url(#CapTriangle)"
       d="m 203.9276,20.426821 c -1.62079,-3.939678 -3.55564,-7.351917 -5.87099,-10.12519"
       id="path7031"
       sodipodi:nodetypes="cc"
       inkscape:transform-center-x="-7.3285524"
       inkscape:transform-center-y="25.993029" /><path
       style="fill:none;fill-rule:evenodd;stroke:#000000;stroke-width:0.334838px;stroke-linecap:butt;stroke-linejoin:miter;stroke-opacity:1;marker-end:url(#CapTriangle)"
       d="m 204.58564,13.770267 c -1.24213,-2.818446 -2.69028,-5.3209832 -4.42366,-7.3861466"
       id="path7033"
       sodipodi:nodetypes="cc"
       inkscape:transform-center-x="-8.7102572"
       inkscape:transform-center-y="20.705996" /><path
       style="display:inline;fill:none;fill-rule:evenodd;stroke:#000000;stroke-width:0.334838px;stroke-linecap:butt;stroke-linejoin:miter;stroke-opacity:1;marker-end:url(#CapTriangle-5)"
       d="M 204.06251,4.9704897 C 203.45946,3.4055 202.71414,1.8526121 201.63221,0.47712998"
       id="path7035"
       sodipodi:nodetypes="cc"
       inkscape:transform-center-x="-9.1838074"
       inkscape:transform-center-y="13.352613" /></g><g
     inkscape:groupmode="layer"
     id="layer4"
     inkscape:label="UVs"
     sodipodi:insensitive="true"
     style="display:none"><polygon
       stroke="#000000"
       stroke-width="1"
       fill="#cccccc"
       fill-opacity="0.25"
       points="571.768,562.406 571.768,987.538 1386.81,987.538 1386.81,562.073 "
       id="polygon43396"
       transform="matrix(0.08504053,0,0,0.08504053,-0.35038959,-0.65293801)"
       style="display:inline" /><polygon
       stroke="#000000"
       stroke-width="1"
       fill="#cccccc"
       fill-opacity="0.25"
       points="571.768,987.538 571.768,562.406 373.771,562.406 423.041,987.538 "
       id="polygon43398"
       transform="matrix(0.08504053,0,0,0.08504053,-0.35038959,-0.65293801)"
       style="display:inline" /><polygon
       stroke="#000000"
       stroke-width="1"
       fill="#cccccc"
       fill-opacity="0.25"
       points="1386.81,987.538 1537.468,987.538 1583.134,562.406 1386.81,562.073 "
       id="polygon43400"
       transform="matrix(0.08504053,0,0,0.08504053,-0.35038959,-0.65293801)"
       style="display:inline" /><polygon
       stroke="#000000"
       stroke-width="1"
       fill="#cccccc"
       fill-opacity="0.25"
       points="571.768,562.406 1386.81,562.073 1386.81,351.079 571.768,354.132 "
       id="polygon43402"
       transform="matrix(0.08504053,0,0,0.08504053,-0.35038959,-0.65293801)"
       style="display:inline" /><polygon
       stroke="#000000"
       stroke-width="1"
       fill="#cccccc"
       fill-opacity="0.25"
       points="1386.81,987.538 571.768,987.538 571.768,1125.173 1386.81,1125.186 "
       id="polygon43404"
       transform="matrix(0.08504053,0,0,0.08504053,-0.35038959,-0.65293801)"
       style="display:inline" /><polygon
       stroke="#000000"
       stroke-width="1"
       fill="#cccccc"
       fill-opacity="0.25"
       points="1386.81,1125.186 571.768,1125.173 632.106,1335.885 1326.472,1335.897 "
       id="polygon43406"
       transform="matrix(0.08504053,0,0,0.08504053,-0.35038959,-0.65293801)"
       style="display:inline" /><polygon
       stroke="#000000"
       stroke-width="1"
       fill="#cccccc"
       fill-opacity="0.25"
       points="1326.472,1335.897 632.106,1335.885 571.768,1547.358 1386.81,1547.371 "
       id="polygon43408"
       transform="matrix(0.08504053,0,0,0.08504053,-0.35038959,-0.65293801)"
       style="display:inline" /></g><g
     inkscape:groupmode="layer"
     id="layer2"
     inkscape:label="Lines"
     style="display:inline"
     transform="translate(0,74.25)"><path
       id="path10746"
       style="display:inline;fill:none;stroke:#ef0085;stroke-width:0.15;stroke-linecap:butt;stroke-linejoin:miter;stroke-dasharray:none;stroke-opacity:1"
       d="m 164.64535,182.5256 -0.9828,0.61674 -5.32438,-3.16983 0.063,-1.13321 m 25.24491,14.90356 -0.94895,0.61219 -5.34777,-3.17882 0.0564,-1.1174 m 2.22468,58.12379 0.0745,0.60079 0.0678,0.49772 10.40641,3.57194 0.3991,-0.37262 0.40718,-0.4386 m -173.851753,3.37038 -0.46792,0.21169 -0.55415,0.28346 v 10.99608 l 0.55415,0.27152 0.47139,0.22674 m 130.639193,-11.98949 0.46792,0.21169 0.55415,0.28346 v 10.99608 l -0.55415,0.27152 -0.47139,0.22674 m -23.53192,16.82176 0.1805,0.41572 0.31608,0.66811 h 8.99231 l 0.35428,-0.66811 0.2039,-0.41479 m -93.594326,-9.3e-4 -0.180507,0.41572 -0.316076,0.66811 h -8.992304 l -0.35428,-0.66811 -0.203902,-0.41479 m 7.623539,-45.38225 -0.25384,-0.53461 -0.23907,-0.48405 h -9.089597 l -0.20261,0.48405 -0.20978,0.52228 m 98.449233,0.0123 0.25384,-0.53461 0.23907,-0.48405 h 9.0896 l 0.20261,0.48405 0.20978,0.52228 M 78.005058,81.133547 l 2.168633,2.18585 h 4.618096 l 2.130555,-2.18585 m 5.383622,78.416433 0.282575,-0.54331 0.234755,-0.48148 h 9.035616 l 0.25786,0.48148 0.25674,0.50901 m -39.782209,0.0343 0.282575,-0.54331 0.234754,-0.48148 h 8.98398 l 0.257858,0.48148 0.256743,0.50901 m 19.380966,-16.37249 a 9.4692945,9.4984798 0 0 1 -9.469294,9.49848 9.4692945,9.4984798 0 0 1 -9.469295,-9.49848 9.4692945,9.4984798 0 0 1 9.469295,-9.49848 9.4692945,9.4984798 0 0 1 9.469294,9.49848 z"
       inkscape:label="CutLines" /><path
       id="path8895"
       style="font-variation-settings:normal;display:inline;opacity:1;vector-effect:none;fill:none;fill-opacity:1;stroke:#000000;stroke-width:0.2;stroke-linecap:butt;stroke-linejoin:miter;stroke-miterlimit:4;stroke-dasharray:none;stroke-dashoffset:0;stroke-opacity:1;-inkscape-stroke:none;stop-color:#000000;stop-opacity:1"
       inkscape:label="Outline"
       d="M 19.034804,136.15337 H 6.2932514 v 91.15896 H 19.034804 Z m 6.501621,0 h 12.741552 v 91.15896 H 25.536425 Z m -10.826579,-3.3502 3.864278,-5.31436 2.503514,5.26969 2.513839,-5.29294 3.863785,5.2864 V 24.438173 l -3.863785,5.2864 -2.513839,-5.29294 -2.503514,5.26969 -3.864278,-5.31436 z m 80.970619,127.14944 c 0.86795,-2.1593 0.766533,-5.26829 -0.04754,-9.07542 2.454787,2.78567 3.710938,6.22733 4.122746,9.57255 l 7.063649,1.23661 c -0.24168,15.8435 -0.018,22.63694 -5.72472,23.12159 1.88397,1.79725 3.52375,2.20045 5.42396,1.72806 -1.03133,1.60635 -2.43644,2.19544 -3.80855,2.87372 3.01507,3.50971 12.75683,6.32122 12.75684,-4.77025 h 2.03089 l 7.66826,7.00216 h 23.07818 v -7.00216 l 7.0311,-4.66534 v -36.80551 l -7.0311,-4.8612 v -6.96857 H 123.1868 l -7.71995,6.96857 V 226.6611 c 2.44649,1.10761 4.75159,0.21627 5.04052,-1.98024 v -4.66432 c -0.035,-2.79143 -2.72401,-3.53549 -5.04052,-2.42465 v -29.80852 c 1.87947,1.01036 4.61342,0.81206 5.01934,-2.19935 v -6.37325 c -0.15977,-3.00374 -2.69168,-3.49461 -5.01934,-2.41588 v -32.51843 c 2.1526,0.97581 4.45492,0.74099 5.02605,-2.0593 v -4.77232 c -0.20574,-2.46783 -2.44545,-3.26504 -5.02605,-2.19728 v -7.86722 l -0.41754,-29.92479 c 0,-7.851527 -4.02098,-16.322001 -11.43031,-16.322001 H 90.743815 v -16.79329 h -2.350761 v 2.024166 H 76.538997 V 64.340259 H 74.18772 v 16.79329 H 61.312537 c -7.409327,0 -11.43031,8.470474 -11.43031,16.322001 l -0.417029,29.92479 v 7.86722 c -2.580595,-1.06776 -4.82031,-0.27055 -5.02605,2.19728 v 4.77232 c 0.571129,2.80029 2.873455,3.03511 5.02605,2.0593 v 32.51843 c -2.327655,-1.07873 -4.859562,-0.58786 -5.019332,2.41588 v 6.37325 c 0.405919,3.01141 3.139867,3.20971 5.019332,2.19935 v 29.80852 c -2.316505,-1.11084 -5.006036,-0.36678 -5.041036,2.42465 v 4.66432 c 0.288929,2.19651 2.594551,3.08785 5.041036,1.98024 v 11.64632 l -7.720459,-6.96857 H 16.687354 v 6.96857 l -7.0310959,4.8612 v 36.80551 l 7.0310959,4.66534 v 7.00216 h 23.078177 l 7.668266,-7.00216 h 2.031401 c 10e-6,11.09147 9.741263,8.27996 12.756327,4.77025 -1.372109,-0.67828 -2.776707,-1.26737 -3.808036,-2.87372 1.900205,0.47239 3.53999,0.0692 5.423958,-1.72806 -5.706721,-0.48465 -5.483035,-7.27809 -5.724715,-23.12159 l 7.063651,-1.23661 c 0.411797,-3.34522 1.667959,-6.78688 4.122746,-9.57255 -0.814109,3.80713 -0.916008,6.91612 -0.04806,9.07542 9.061695,-0.84896 18.024333,-0.81728 26.429395,0 z m 70.267555,-15.8467 c -1.76158,2.20421 -6.53236,1.61938 -6.59725,-2.06177 l 0.0199,-9.19844 c 0.0236,-3.74763 4.70964,-4.77271 6.61762,-2.14841 l -6.60346,-11.62747 c 1.04,2.99498 -2.04607,6.62986 -5.39995,4.52484 l -7.88074,-4.64165 c -2.86369,-1.78596 -1.34826,-6.28515 1.74423,-6.64036 l -13.39347,-0.20704 -2.48523,-14.45045 c -2.21711,1.57217 -4.84353,1.11917 -5.33162,-1.50484 l -1.0594,-6.16676 c -0.38937,-2.45355 1.654,-4.03184 4.512,-3.21198 l -1.77565,-10.28352 0.0601,-5.05076 13.62728,-9.74647 7.62107,0.13548 -0.20316,11.32562 5.72853,3.76731 13.63738,-23.11495 0.87881,0.52395 6.37238,-4.3801 24.60029,14.50161 -0.94691,7.60267 0.84551,0.51819 -13.62865,23.09773 6.07371,3.19782 9.78027,-5.63166 3.7985,6.60831 -1.95323,16.62718 -4.43729,2.46737 0.12575,36.84701 -8.04792,4.68188 -22.80353,-7.7899 z m 0.41857,-172.664793 c -0.62144,3.400387 -1.99045,6.310684 -3.98839,8.809282 2.14212,3.146824 3.43329,6.616592 3.98839,10.365775 0.5551,-3.749183 1.84627,-7.218951 3.98839,-10.365775 -1.99794,-2.498598 -3.36695,-5.408895 -3.98839,-8.809282 z m 0,28.600323 c -0.5551,3.74919 -1.84627,7.21895 -3.98839,10.36577 1.99794,2.4986 3.36695,5.40942 3.98839,8.8098 0.62144,-3.40038 1.99045,-6.3112 3.98839,-8.8098 -2.14212,-3.14682 -3.43329,-6.61658 -3.98839,-10.36577 z M 145.3472,45.677315 c -0.56115,0.0091 -1.11968,0.1167 -1.66501,0.332796 2.76749,3.777962 -4.62063,13.710592 -11.07995,16.268775 v 13.603821 c -2.29342,-1.201385 -4.99052,-0.347167 -4.98987,2.312003 v 4.368726 c -0.009,2.684046 2.45835,3.387931 4.98987,2.41484 v 20.651454 c -2.35665,-1.2197 -5.01119,-0.18648 -4.98987,2.38848 v 4.41007 c 0.0515,2.72744 3.1363,3.29372 4.98987,2.29857 v 13.56609 c 6.31848,2.57281 13.77659,12.08756 11.07633,16.26671 2.95393,1.27544 6.25734,-1.06185 8.19898,-4.26485 6.89375,0.92175 12.81739,-4.25053 14.48904,-13.06897 1.67165,8.81844 7.59528,13.99072 14.48904,13.06897 1.94164,3.203 5.24505,5.54029 8.19898,4.26485 -2.70026,-4.17915 4.75837,-13.6939 11.07684,-16.26671 v -13.56609 c 1.85357,0.99515 4.93786,0.42887 4.98936,-2.29857 v -4.41007 c 0.0213,-2.57496 -2.63271,-3.60818 -4.98936,-2.38848 V 84.978276 c 2.53152,0.973091 4.99836,0.269206 4.98936,-2.41484 V 78.19471 c 6.5e-4,-2.65917 -2.69594,-3.513388 -4.98936,-2.312003 V 62.278886 c -6.45931,-2.558183 -13.84744,-12.490813 -11.07994,-16.268775 -2.90847,-1.152514 -6.19785,0.77971 -8.2057,4.297929 -8.80603,-1.265834 -13.41834,7.058402 -14.47922,13.068453 -1.06088,-6.010051 -5.67319,-14.334287 -14.47922,-13.068453 -1.63138,-2.858553 -4.10854,-4.670028 -6.54017,-4.630725 z m -27.76253,14.707349 -5.13118,-17.983861 5.13118,-17.918975 V 9.0778157 h 16.69549 V -27.075634 l -16.69549,-0.02832 v -17.943041 l -69.311605,0.259627 v 17.711732 H 31.435294 V 9.0778157 H 48.273065 V 24.480722 l 5.131175,17.91906 -5.131175,17.983776 z"
       sodipodi:nodetypes="cccccccccccccccccccccscccccccccccccccccccccccccccccccsccccccccsccccccccccccccccccccccccccccccccsscccccccccccccccccccccccccccccccccccccccccccccsccccccccccccccccccccccccccccccsccccccccccccccccc" /><path
       id="path8943"
       style="font-variation-settings:normal;display:inline;opacity:0.498521;vector-effect:none;fill:none;fill-opacity:1;stroke:#000000;stroke-width:0.15;stroke-linecap:butt;stroke-linejoin:miter;stroke-miterlimit:4;stroke-dasharray:0.6, 0.6;stroke-dashoffset:0;stroke-opacity:1;-inkscape-stroke:none;stop-color:#000000;stop-opacity:1"
       inkscape:label="FoldingLines"
       d="m 25.536425,182.1876 h 12.741552 m -31.9847257,0 H 19.034804 M 14.709846,124.41346 H 27.455262 M 14.709846,85.891009 H 27.455262 M 14.709846,71.31006 H 27.455262 M 14.709846,32.877514 H 27.455262 M 166.36664,63.376677 v 8.064256 m 0,19.270553 v 9.329824 m 0,19.1755 v 8.00881 M 115.46686,205.2957 H 49.464965 m 52.651805,-46.28903 h 13.35009 m -43.116392,0 h 20.238071 m -43.123574,0 H 62.873876 M 115.46686,127.38009 H 49.464965 m 66.001885,16.89637 v -9.0289 M 16.665757,255.66323 v -17.35568 m 14.18477,46.33165 h -14.18477 v -17.4701 m 30.768039,17.47036 -6.920609,-2.6e-4 m 8.951778,-46.33165 v 46.33165 m 66.001895,0 v -46.33165 m 8.94907,46.33165 -6.91819,2.6e-4 m 30.74652,-17.46448 v 17.46422 h -14.16014 m 2.4255,-46.33165 h 11.73464 v 17.31637 M 16.665757,238.30755 h 11.81929 m 9.490736,0 h 11.489182 66.001895 11.51148 M 49.465198,217.59189 v 9.06921 m 66.001652,-9.06921 v 9.06921 M 74.18772,81.133549 h 3.817338 z m 12.734623,0 h 3.821472 z M 49.465198,135.24756 v 9.0289 z m 0,41.54733 v 10.98848 z m 66.001652,0 v 10.98848 z M 6.2932513,166.20151 H 19.034804 m 6.501621,0 H 38.277977 M 6.2932513,199.23134 H 19.034804 m 6.501621,0 h 12.741552 m 162.017363,56.55303 -9.71709,-3.30392 m -10.87331,-3.69704 -13.75692,-4.6775 m -6.56319,-25.03609 27.5228,-23.40148 m -31.75881,-18.7491 3.25236,1.92006 m 6.24417,3.6863 12.76041,7.53323 m 6.24032,3.68403 3.26155,1.92548 13.26196,23.26902 -34.1813,11.75993 m -18.13992,-18.38464 7.30045,-35.39341 -26.83382,-0.43118 m 1.77565,10.28352 1.87902,10.88358 m 41.07337,-40.1957 22.30281,13.14648 M 112.45349,42.400882 53.40424,42.399782 m -5.131175,-17.918981 69.311605,0.0011 m -69.311605,-51.557537 69.311605,-0.02832 V 9.0778157 H 48.273065 Z"
       sodipodi:nodetypes="cccccccccccccccccccccccccccccccccccccccccccccccccccccccccccccccccccccccccccccccccccccccccccccccccccccccccccccccc" /></g></svg>
