<?xml version="1.0" standalone="no"?>
<!DOCTYPE svg PUBLIC "-//W3C//DTD SVG 1.1//EN" 
  "http://www.w3.org/Graphics/SVG/1.1/DTD/svg11.dtd">
<svg width="2480" height="4385" viewBox="0 0 2480 4385"
     xmlns="http://www.w3.org/2000/svg" version="1.1">
<desc>nanahira_papercraft.blend, (Blender 3.6.0)</desc>
<polygon stroke="black" stroke-width="1" fill="rgb(204, 204, 204)" fill-opacity="0.25" points="583.994,2381.191 583.994,2474.519 583.994,2581.172 583.994,2754.915 1364.299,2755.221 1364.299,2581.154 1364.299,2474.607 1364.299,2381.191 " />
<polygon stroke="black" stroke-width="1" fill="rgb(204, 204, 204)" fill-opacity="0.25" points="406.980,2663.376 413.103,2648.639 412.492,2626.351 400.414,2611.701 384.107,2603.756 351.741,2603.756 334.169,2610.626 321.685,2622.603 318.061,2642.332 324.381,2663.378 " />
<polygon stroke="black" stroke-width="1" fill="rgb(204, 204, 204)" fill-opacity="0.25" points="583.994,3302.065 583.994,3692.278 1363.688,3692.278 1363.905,3554.081 1364.071,3447.520 1364.300,3301.760 " />
<polygon stroke="black" stroke-width="1" fill="rgb(204, 204, 204)" fill-opacity="0.25" points="583.994,2381.191 1364.299,2381.191 1358.407,2034.631 1357.186,1999.824 1352.606,1968.375 1345.279,1941.201 1330.320,1906.088 1310.172,1876.471 1283.612,1853.266 1255.831,1840.137 1225.914,1835.252 1071.139,1835.252 876.501,1835.252 748.755,1835.251 713.648,1836.168 685.256,1843.190 657.476,1858.763 625.421,1893.875 607.104,1929.293 596.114,1964.406 590.619,1999.518 " />
<polygon stroke="black" stroke-width="1" fill="rgb(204, 204, 204)" fill-opacity="0.25" points="1751.094,3692.278 1750.586,3609.041 1455.376,3609.042 1363.688,3692.278 " />
<polygon stroke="black" stroke-width="1" fill="rgb(204, 204, 204)" fill-opacity="0.25" points="1751.094,4239.123 1751.094,3692.278 1363.688,3692.278 1363.994,4239.123 1387.297,4239.123 " />
<polygon stroke="black" stroke-width="1" fill="rgb(204, 204, 204)" fill-opacity="0.25" points="1387.297,4239.123 1477.661,4321.691 1751.094,4321.691 1751.094,4239.123 " />
<polygon stroke="black" stroke-width="1" fill="rgb(204, 204, 204)" fill-opacity="0.25" points="583.994,2754.915 583.994,2965.337 583.994,3095.385 583.994,3302.065 1364.300,3301.760 1364.299,3094.492 1364.299,2965.155 1364.299,2755.221 " />
<polygon stroke="black" stroke-width="1" fill="rgb(204, 204, 204)" fill-opacity="0.25" points="493.211,3609.474 197.082,3609.474 196.587,3692.278 583.994,3692.278 " />
<polygon stroke="black" stroke-width="1" fill="rgb(204, 204, 204)" fill-opacity="0.25" points="1363.905,3554.081 1381.192,3560.493 1406.836,3557.134 1419.658,3543.394 1423.321,3525.685 1423.321,3474.386 1418.436,3456.986 1404.393,3444.773 1379.971,3442.025 1364.071,3447.520 " />
<polygon stroke="black" stroke-width="1" fill="rgb(204, 204, 204)" fill-opacity="0.25" points="1833.317,3749.800 1751.094,3692.278 1751.094,4239.123 1833.317,4184.591 " />
<polygon stroke="black" stroke-width="1" fill="rgb(204, 204, 204)" fill-opacity="0.25" points="1364.299,3094.492 1380.154,3101.088 1401.401,3099.988 1418.253,3086.798 1423.015,3068.845 1423.015,2990.432 1417.887,2972.849 1397.738,2959.659 1380.154,2959.292 1364.299,2965.155 " />
<polygon stroke="black" stroke-width="1" fill="rgb(204, 204, 204)" fill-opacity="0.25" points="1364.299,2581.154 1380.117,2586.631 1400.610,2585.748 1416.510,2574.617 1423.224,2554.296 1423.224,2500.044 1415.274,2480.084 1399.374,2469.482 1380.117,2469.482 1364.299,2474.607 " />
<polygon stroke="black" stroke-width="1" fill="rgb(204, 204, 204)" fill-opacity="0.25" points="1071.139,1835.252 1071.139,1636.717 1043.894,1636.717 1043.898,1660.136 903.977,1660.138 903.977,1636.971 876.501,1636.971 876.501,1835.252 " />
<polygon stroke="black" stroke-width="1" fill="rgb(204, 204, 204)" fill-opacity="0.25" points="583.994,2474.519 569.497,2469.430 552.325,2469.006 538.756,2473.883 529.216,2484.909 525.188,2500.175 525.188,2557.010 529.852,2571.630 538.544,2580.960 570.345,2586.685 583.994,2581.172 " />
<polygon stroke="black" stroke-width="1" fill="rgb(204, 204, 204)" fill-opacity="0.25" points="583.994,2965.337 565.569,2960.036 545.429,2961.450 529.352,2975.762 524.759,2992.194 524.759,3068.881 529.882,3085.843 545.605,3099.095 566.629,3100.862 583.994,3095.385 " />
<polygon stroke="black" stroke-width="1" fill="rgb(204, 204, 204)" fill-opacity="0.25" points="583.994,3447.769 560.505,3441.619 539.516,3446.285 528.492,3460.067 525.100,3474.697 525.100,3527.713 528.280,3542.760 539.728,3555.270 561.565,3560.571 583.994,3554.634 " />
<polygon stroke="black" stroke-width="1" fill="rgb(204, 204, 204)" fill-opacity="0.25" points="196.587,4239.429 196.587,4321.427 469.917,4321.428 560.583,4239.429 " />
<polygon stroke="black" stroke-width="1" fill="rgb(204, 204, 204)" fill-opacity="0.25" points="196.587,3692.278 114.685,3749.425 114.685,4183.736 196.587,4239.429 " />
<polygon stroke="black" stroke-width="1" fill="rgb(204, 204, 204)" fill-opacity="0.25" points="560.583,4239.429 583.994,4239.681 583.994,3692.278 196.587,3692.278 196.587,4239.429 " />
<polygon stroke="black" stroke-width="1" fill="rgb(204, 204, 204)" fill-opacity="0.25" points="583.994,4239.681 587.121,4275.296 599.637,4305.523 620.397,4325.065 651.230,4333.003 681.148,4328.728 708.929,4316.210 728.162,4302.776 735.794,4294.837 717.996,4286.847 700.918,4275.068 689.729,4260.932 707.690,4264.025 726.535,4259.754 742.288,4251.361 755.390,4240.907 735.515,4236.784 719.910,4227.360 708.721,4213.077 699.298,4187.309 692.820,4147.258 689.139,4098.372 687.078,4029.019 686.636,3967.618 730.509,3958.931 768.199,3953.188 774.530,3920.205 788.369,3883.394 804.122,3854.386 817.077,3839.661 811.483,3869.847 809.274,3891.934 809.422,3917.260 812.513,3936.697 816.488,3947.593 865.956,3943.470 913.215,3940.672 967.099,3939.788 1024.958,3940.229 1080.020,3943.321 1129.782,3947.444 1135.082,3930.070 1137.290,3908.572 1136.996,3886.779 1134.051,3862.631 1129.340,3839.955 1140.088,3852.029 1151.719,3870.581 1163.054,3895.466 1171.741,3921.970 1176.599,3941.996 1178.219,3952.892 1221.944,3960.107 1261.695,3967.911 1260.812,4054.492 1258.898,4107.353 1255.659,4150.496 1249.770,4184.510 1243.145,4205.124 1235.194,4219.407 1226.214,4229.568 1213.994,4236.488 1203.394,4239.728 1193.824,4240.906 1207.222,4252.391 1222.681,4260.342 1238.286,4263.876 1249.769,4263.434 1258.750,4260.637 1252.273,4270.502 1239.022,4281.987 1224.594,4290.528 1213.111,4295.387 1227.391,4308.934 1246.972,4320.713 1271.411,4329.990 1294.086,4332.346 1316.609,4329.696 1336.779,4318.505 1351.796,4300.247 1360.482,4276.245 1363.868,4251.950 1363.994,4239.123 1363.688,3692.278 583.994,3692.278 " />
<polygon stroke="black" stroke-width="1" fill="rgb(204, 204, 204)" fill-opacity="0.25" points="451.948,2840.245 451.948,2663.377 406.980,2663.376 324.381,2663.378 301.563,2663.378 301.563,2840.286 " />
<polygon stroke="black" stroke-width="1" fill="rgb(204, 204, 204)" fill-opacity="0.25" points="224.509,2840.075 224.509,2663.098 201.396,2663.098 118.503,2663.098 74.002,2663.098 74.002,2840.033 " />
<polygon stroke="black" stroke-width="1" fill="rgb(204, 204, 204)" fill-opacity="0.25" points="201.396,2663.098 207.120,2644.696 206.272,2625.613 195.672,2610.770 176.592,2604.197 142.035,2604.197 126.347,2610.134 114.687,2624.977 112.779,2644.483 118.503,2663.098 " />
<polygon stroke="black" stroke-width="1" fill="rgb(204, 204, 204)" fill-opacity="0.25" points="117.695,3394.059 113.624,3406.039 112.352,3424.868 119.475,3441.661 144.137,3453.365 177.734,3453.365 199.867,3442.679 207.244,3427.158 206.735,3409.856 201.647,3394.154 " />
<polygon stroke="black" stroke-width="1" fill="rgb(204, 204, 204)" fill-opacity="0.25" points="324.320,3394.153 319.739,3406.651 319.129,3428.635 330.119,3445.428 347.183,3453.367 383.239,3453.366 404.303,3444.206 412.851,3428.635 413.156,3410.315 407.663,3394.058 " />
<polygon stroke="black" stroke-width="1" fill="rgb(204, 204, 204)" fill-opacity="0.25" points="1960.340,3601.369 1950.476,3591.209 1938.256,3586.055 1924.270,3584.141 1907.928,3587.675 1894.825,3596.362 1885.992,3607.995 1882.017,3624.486 1881.575,3735.656 1885.550,3752.001 1894.089,3764.664 1907.044,3773.204 1922.061,3775.855 1938.992,3774.235 1951.801,3768.492 1959.457,3759.657 " />
<polygon stroke="black" stroke-width="1" fill="rgb(204, 204, 204)" fill-opacity="0.25" points="324.197,2345.757 174.015,2346.218 174.015,2445.157 219.742,2382.431 248.716,2445.158 278.926,2382.254 324.197,2444.656 " />
<polygon stroke="black" stroke-width="1" fill="rgb(204, 204, 204)" fill-opacity="0.25" points="2365.501,3898.509 2250.524,3859.191 2246.039,3863.596 2122.900,3821.367 2122.256,3815.328 1959.457,3759.657 2000.826,3861.404 2270.689,3953.579 " />
<polygon stroke="black" stroke-width="1" fill="rgb(204, 204, 204)" fill-opacity="0.25" points="2358.328,2909.043 2369.917,2819.612 2078.837,2648.077 2003.872,2699.758 2049.866,2726.660 2043.683,2736.731 2306.742,2891.693 2312.926,2881.798 " />
<polygon stroke="black" stroke-width="1" fill="rgb(204, 204, 204)" fill-opacity="0.25" points="1536.249,3082.701 1524.069,3079.958 1508.345,3081.725 1492.975,3088.793 1483.789,3103.988 1482.905,3121.128 1495.802,3195.693 1502.515,3209.829 1515.059,3220.254 1530.959,3222.374 1547.213,3218.487 1558.283,3211.550 " />
<polygon stroke="black" stroke-width="1" fill="rgb(204, 204, 204)" fill-opacity="0.25" points="2207.266,3188.076 2364.028,3462.955 2416.293,3434.094 2439.701,3237.520 2394.651,3159.333 2278.786,3225.888 " />
<polygon stroke="black" stroke-width="1" fill="rgb(204, 204, 204)" fill-opacity="0.25" points="2207.266,3188.076 1882.311,3464.430 1960.340,3601.369 2364.028,3462.955 " />
<polygon stroke="black" stroke-width="1" fill="rgb(204, 204, 204)" fill-opacity="0.25" points="1832.200,2966.688 1870.659,2989.389 1944.578,3033.021 2094.634,3121.593 2168.912,3165.437 2207.266,3188.076 2368.576,2915.194 2358.328,2909.043 2312.926,2881.798 2306.742,2891.693 2043.683,2736.731 2049.866,2726.660 2003.872,2699.758 1993.322,2693.587 " />
<polygon stroke="black" stroke-width="1" fill="rgb(204, 204, 204)" fill-opacity="0.25" points="1515.468,2961.174 1832.200,2966.688 1764.571,2921.736 1767.115,2788.366 1677.862,2786.246 1515.892,2902.229 " />
<polygon stroke="black" stroke-width="1" fill="rgb(204, 204, 204)" fill-opacity="0.25" points="1746.187,3384.579 1734.056,3387.272 1721.984,3396.106 1712.708,3408.623 1707.261,3423.789 1708.292,3439.544 1714.770,3452.943 1725.075,3462.662 1819.594,3519.205 1835.199,3524.800 1847.860,3524.800 1861.258,3520.530 1871.858,3512.432 1879.367,3501.830 1884.372,3489.608 1885.697,3476.062 1882.311,3464.430 " />
<polygon stroke="black" stroke-width="1" fill="rgb(204, 204, 204)" fill-opacity="0.25" points="1870.659,2989.389 1869.672,3002.965 1933.484,3040.495 1944.578,3033.021 " />
<polygon stroke="black" stroke-width="1" fill="rgb(204, 204, 204)" fill-opacity="0.25" points="2094.634,3121.593 2094.394,3135.275 2157.783,3172.593 2168.912,3165.437 " />
<polygon stroke="black" stroke-width="1" fill="rgb(204, 204, 204)" fill-opacity="0.25" points="2365.501,3898.509 2255.755,3854.055 2250.524,3859.191 " />
<polygon stroke="black" stroke-width="1" fill="rgb(204, 204, 204)" fill-opacity="0.25" points="2122.256,3815.328 2121.487,3808.115 1959.457,3759.657 " />
<polygon stroke="black" stroke-width="1" fill="rgb(204, 204, 204)" fill-opacity="0.25" points="2122.256,3815.328 2122.900,3821.367 2246.039,3863.596 2250.524,3859.191 " />
<polygon stroke="black" stroke-width="1" fill="rgb(204, 204, 204)" fill-opacity="0.25" points="1565.461,2392.518 1587.192,2401.883 1608.569,2416.371 1629.239,2434.041 1653.443,2459.308 1675.526,2487.933 1692.840,2518.501 1702.734,2546.066 1703.440,2566.739 1700.967,2577.694 1696.550,2584.409 1707.857,2589.003 1724.817,2588.826 1745.841,2582.112 1765.451,2568.860 1783.118,2550.483 1793.541,2533.697 1812.622,2536.171 1839.122,2533.520 1861.382,2526.806 1889.472,2510.373 1914.029,2488.110 1932.226,2464.609 1949.010,2433.864 1964.734,2379.265 1964.712,2286.297 1955.066,2247.919 1937.894,2209.752 1917.117,2180.705 1938.954,2144.871 1955.066,2102.250 1964.658,2057.512 1964.633,1949.171 1953.944,1899.554 1937.663,1859.098 1917.055,1823.985 1940.460,1790.909 1955.216,1756.050 1964.579,1719.920 1964.557,1626.716 1956.430,1592.790 1944.593,1563.990 1927.633,1533.597 1903.783,1506.212 1873.396,1484.479 1841.242,1472.111 1815.803,1469.458 1793.011,1471.228 1782.057,1453.207 1762.801,1434.123 1739.835,1420.516 1719.694,1415.746 1706.268,1416.629 1696.197,1420.518 1701.673,1429.881 1703.441,1444.724 1701.320,1464.161 1691.427,1489.958 1673.232,1520.877 1649.203,1550.740 1618.817,1579.895 1594.081,1598.449 1577.120,1608.345 1565.461,1612.408 1565.461,1772.952 1565.461,1881.038 1565.461,2125.058 1565.461,2232.046 " />
<polygon stroke="black" stroke-width="1" fill="rgb(204, 204, 204)" fill-opacity="0.25" points="1964.557,1626.716 1964.579,1719.920 1974.296,1758.341 1990.069,1792.690 2012.202,1823.986 1990.578,1859.608 1975.060,1900.063 1964.633,1949.171 1964.658,2057.512 1974.783,2103.947 1990.682,2145.929 2012.308,2180.915 1991.742,2209.964 1974.146,2248.131 1964.712,2286.297 1964.734,2379.265 1980.987,2433.511 1997.594,2464.786 2014.837,2487.279 2037.904,2508.586 2065.288,2525.519 2096.941,2534.501 2123.294,2535.679 2136.397,2533.765 2146.556,2550.404 2163.045,2567.779 2188.367,2584.123 2211.923,2589.129 2223.848,2587.951 2232.863,2584.152 2226.326,2570.724 2225.796,2552.700 2231.096,2530.260 2247.880,2497.041 2280.563,2454.458 2320.491,2416.645 2348.934,2398.622 2363.421,2392.437 2363.421,2231.183 2363.421,2124.063 2363.421,1879.799 2363.421,1772.934 2363.420,1612.476 2343.981,1603.635 2319.442,1587.685 2291.784,1562.241 2261.043,1527.044 2238.784,1492.481 2226.911,1459.404 2225.637,1440.324 2228.642,1427.988 2232.937,1420.380 2222.493,1416.627 2206.769,1415.920 2189.102,1420.868 2168.785,1432.707 2149.882,1450.906 2135.925,1471.226 2119.495,1469.105 2097.765,1470.164 2073.385,1476.702 2047.768,1489.247 2023.210,1509.038 2000.774,1535.011 1983.990,1564.520 1972.506,1593.675 " />
<polygon stroke="black" stroke-width="1" fill="rgb(204, 204, 204)" fill-opacity="0.25" points="2363.421,2231.183 2376.153,2236.781 2395.997,2236.781 2413.296,2229.402 2423.727,2204.976 2423.727,2150.265 2416.095,2130.424 2397.522,2119.738 2376.153,2119.483 2363.421,2124.063 " />
<polygon stroke="black" stroke-width="1" fill="rgb(204, 204, 204)" fill-opacity="0.25" points="2363.421,1879.799 2378.951,1885.652 2399.047,1885.398 2415.839,1873.949 2423.472,1853.338 2423.471,1799.901 2416.603,1778.786 2397.523,1767.846 2378.697,1767.846 2363.421,1772.934 " />
<polygon stroke="black" stroke-width="1" fill="rgb(204, 204, 204)" fill-opacity="0.25" points="1565.461,1772.952 1545.206,1767.823 1522.494,1771.119 1508.938,1789.440 1508.938,1863.818 1520.661,1881.771 1545.939,1886.901 1565.461,1881.038 " />
<polygon stroke="black" stroke-width="1" fill="rgb(204, 204, 204)" fill-opacity="0.25" points="1565.461,2125.058 1544.474,2118.830 1524.691,2121.761 1511.869,2133.485 1506.008,2149.973 1506.008,2207.135 1514.433,2226.916 1529.087,2236.441 1550.335,2237.541 1565.461,2232.046 " />
<polygon stroke="black" stroke-width="1" fill="rgb(204, 204, 204)" fill-opacity="0.25" points="451.948,3229.352 451.948,3028.692 301.563,3028.778 301.563,3229.485 " />
<polygon stroke="black" stroke-width="1" fill="rgb(204, 204, 204)" fill-opacity="0.25" points="224.509,3229.423 224.509,3028.639 74.002,3028.554 74.002,3229.290 " />
<polygon stroke="black" stroke-width="1" fill="rgb(204, 204, 204)" fill-opacity="0.25" points="224.509,3394.180 224.509,3229.423 74.002,3229.290 74.002,3394.009 117.695,3394.059 201.647,3394.154 " />
<polygon stroke="black" stroke-width="1" fill="rgb(204, 204, 204)" fill-opacity="0.25" points="451.948,3394.007 451.948,3229.352 301.563,3229.485 301.563,3394.179 324.320,3394.153 407.663,3394.058 " />
<polygon stroke="black" stroke-width="1" fill="rgb(204, 204, 204)" fill-opacity="0.25" points="224.509,3028.639 224.509,2840.075 74.002,2840.033 74.002,3028.554 " />
<polygon stroke="black" stroke-width="1" fill="rgb(204, 204, 204)" fill-opacity="0.25" points="451.948,3028.692 451.948,2840.245 301.563,2840.286 301.563,3028.778 " />
<polygon stroke="black" stroke-width="1" fill="rgb(204, 204, 204)" fill-opacity="0.25" points="324.197,1719.275 174.015,1719.492 174.015,1891.979 324.197,1891.695 " />
<polygon stroke="black" stroke-width="1" fill="rgb(204, 204, 204)" fill-opacity="0.25" points="324.197,1264.197 174.015,1264.236 174.015,1719.492 324.197,1719.275 " />
<polygon stroke="black" stroke-width="1" fill="rgb(204, 204, 204)" fill-opacity="0.25" points="324.197,1165.553 278.532,1227.891 248.852,1165.978 219.171,1227.892 174.015,1165.555 174.015,1264.236 324.197,1264.197 " />
<polygon stroke="black" stroke-width="1" fill="rgb(204, 204, 204)" fill-opacity="0.25" points="324.197,1891.695 174.015,1891.979 174.015,2346.218 324.197,2345.757 " />
<polygon stroke="black" stroke-width="1" fill="rgb(204, 204, 204)" fill-opacity="0.25" points="1587.539,3382.636 1746.187,3384.579 1832.200,2966.688 1515.468,2961.174 1536.249,3082.701 1558.283,3211.550 " />
<polygon stroke="black" stroke-width="1" fill="rgb(204, 204, 204)" fill-opacity="0.25" points="1832.200,2966.688 1746.187,3384.579 1882.311,3464.430 2207.266,3188.076 2168.912,3165.437 2157.783,3172.593 2094.394,3135.275 2094.634,3121.593 1944.578,3033.021 1933.484,3040.495 1869.672,3002.965 1870.659,2989.389 " />
<polygon stroke="black" stroke-width="1" fill="rgb(204, 204, 204)" fill-opacity="0.25" points="2364.028,3462.955 1960.340,3601.369 1959.457,3759.657 2121.487,3808.115 2122.256,3815.328 2250.524,3859.191 2255.755,3854.055 2365.501,3898.509 " />
<polygon stroke="black" stroke-width="1" fill="rgb(204, 204, 204)" fill-opacity="0.25" points="583.994,3692.278 583.994,3302.065 583.994,3447.769 583.994,3554.634 " />
<polygon stroke="black" stroke-width="1" fill="rgb(204, 204, 204)" fill-opacity="0.25" points="571.768,562.406 571.768,987.538 1386.810,987.538 1386.810,562.073 " />
<polygon stroke="black" stroke-width="1" fill="rgb(204, 204, 204)" fill-opacity="0.25" points="571.768,987.538 571.768,562.406 373.771,562.406 423.041,987.538 " />
<polygon stroke="black" stroke-width="1" fill="rgb(204, 204, 204)" fill-opacity="0.25" points="1386.810,987.538 1537.468,987.538 1583.134,562.406 1386.810,562.073 " />
<polygon stroke="black" stroke-width="1" fill="rgb(204, 204, 204)" fill-opacity="0.25" points="571.768,562.406 1386.810,562.073 1386.810,351.079 571.768,354.132 " />
<polygon stroke="black" stroke-width="1" fill="rgb(204, 204, 204)" fill-opacity="0.25" points="1386.810,987.538 571.768,987.538 571.768,1125.173 1386.810,1125.186 " />
<polygon stroke="black" stroke-width="1" fill="rgb(204, 204, 204)" fill-opacity="0.25" points="1386.810,1125.186 571.768,1125.173 632.106,1335.885 1326.472,1335.897 " />
<polygon stroke="black" stroke-width="1" fill="rgb(204, 204, 204)" fill-opacity="0.25" points="1326.472,1335.897 632.106,1335.885 571.768,1547.358 1386.810,1547.371 " />

</svg>
