<?xml version="1.0" encoding="UTF-8" standalone="no"?>
<!-- Created with Inkscape (http://www.inkscape.org/) -->

<svg
   width="210mm"
   height="297mm"
   viewBox="0 0 210 297"
   version="1.1"
   id="svg5"
   xml:space="preserve"
   sodipodi:docname="audience_npc.svg"
   inkscape:version="1.3 (0e150ed6c4, 2023-07-21)"
   inkscape:export-filename="audience_npc.png"
   inkscape:export-xdpi="150"
   inkscape:export-ydpi="150"
   xmlns:inkscape="http://www.inkscape.org/namespaces/inkscape"
   xmlns:sodipodi="http://sodipodi.sourceforge.net/DTD/sodipodi-0.dtd"
   xmlns:xlink="http://www.w3.org/1999/xlink"
   xmlns="http://www.w3.org/2000/svg"
   xmlns:svg="http://www.w3.org/2000/svg"><sodipodi:namedview
     id="namedview7"
     pagecolor="#ffffff"
     bordercolor="#666666"
     borderopacity="1.0"
     inkscape:showpageshadow="2"
     inkscape:pageopacity="1"
     inkscape:pagecheckerboard="0"
     inkscape:deskcolor="#d1d1d1"
     inkscape:document-units="mm"
     showgrid="false"
     inkscape:zoom="0.5336655"
     inkscape:cx="460.02599"
     inkscape:cy="684.88594"
     inkscape:window-width="1904"
     inkscape:window-height="1006"
     inkscape:window-x="8"
     inkscape:window-y="34"
     inkscape:window-maximized="1"
     inkscape:current-layer="layer3"
     showguides="true" /><defs
     id="defs2" /><g
     inkscape:label="Layer 1"
     inkscape:groupmode="layer"
     id="layer1"
     style="display:inline"><image
       width="210"
       height="297.00415"
       preserveAspectRatio="none"
       xlink:href="../../models/characters/nanahira/nanahira_papercraft.jpg"
       id="image312"
       x="0"
       y="0"
       sodipodi:insensitive="true"
       style="display:none;opacity:1" /></g><g
     inkscape:groupmode="layer"
     id="layer3"
     inkscape:label="Fill"
     style="display:inline"><path
       style="display:inline;fill:#fef2dc;fill-opacity:1;stroke:none;stroke-width:0.264583px;stroke-linecap:butt;stroke-linejoin:miter;stroke-opacity:1"
       d="m 117.47681,159.00667 0.0363,-31.65067 C 117.84131,87.824153 117.169,82.781968 103.88332,79.180025 H 60.71018 C 49.639996,82.303012 47.56708,83.907894 47.442839,127.4242 l 0.01074,31.58247 z"
       id="path11760"
       sodipodi:nodetypes="ccccccc"
       inkscape:label="Face" /><path
       style="display:inline;opacity:1;fill:#ffd438;fill-opacity:1;stroke:none;stroke-width:0.264583px;stroke-linecap:butt;stroke-linejoin:miter;stroke-opacity:1"
       d="m 47.453579,159.00667 h 15.420297 l 0.234754,-0.48148 h 8.98398 l 0.257858,0.48148 h 20.238069 l 0.234756,-0.48148 h 9.035617 l 0.25786,0.48148 h 15.36004 l 0.0566,77.43534 32.68819,-0.10908 0.0176,50.31478 -32.8741,-8.8e-4 C 116.34216,297 105.73023,297 99.3984,288.60829 l 2.13334,-0.91591 -5.056929,-4.41017 c 8.334859,-0.70039 8.162529,-3.43742 8.310459,-19.94991 -16.666017,-2.93007 -28.078157,-2.01781 -44.605462,-0.009 0.04653,20.34626 0.58199,19.25739 8.23764,20.02482 -1.708159,1.5253 -3.499785,3.45455 -5.090258,4.41029 l 2.350939,0.82401 C 59.443215,297 48.541706,296.4621 47.553081,286.68246 l -32.874045,0.003 -0.02481,-50.35706 32.674659,0.0508 z"
       id="path10939"
       inkscape:label="HairBlock"
       sodipodi:nodetypes="ccccccccccccccccccccccccccc" /><path
       id="path11670"
       style="display:inline;fill:#fffce9;fill-opacity:1;stroke:none;stroke-width:0.264583px;stroke-linecap:butt;stroke-linejoin:miter;stroke-opacity:1"
       d="m 49.464965,268.81582 c -9.211334,-4.54486 -7.825664,9.80023 0,12.44293 z m 66.001895,0 c 9.21134,-4.54486 7.82567,9.80023 0,12.44293 z"
       inkscape:label="Ears" /><rect
       style="font-variation-settings:normal;display:inline;opacity:1;fill:#fef2dc;fill-opacity:1;stroke:none;stroke-width:0.4;stroke-linecap:round;stroke-linejoin:miter;stroke-miterlimit:4;stroke-dasharray:none;stroke-dashoffset:0;stroke-opacity:1;paint-order:markers fill stroke;stop-color:#000000;stop-opacity:1"
       id="rect13585"
       width="16.794884"
       height="110.81242"
       x="12.707299"
       y="23.222742"
       inkscape:label="Hands" /><rect
       style="font-variation-settings:normal;display:inline;opacity:1;fill:#ac79c4;fill-opacity:1;stroke:none;stroke-width:0.233073;stroke-linecap:round;stroke-linejoin:miter;stroke-miterlimit:4;stroke-dasharray:none;stroke-dashoffset:0;stroke-opacity:1;paint-order:markers fill stroke;stop-color:#000000;stop-opacity:1"
       id="rect13659"
       width="16.794884"
       height="37.622726"
       x="12.707299"
       y="59.796627"
       inkscape:label="Sleeves" /><path
       id="rect15505"
       style="display:inline;opacity:1;vector-effect:none;fill:#fef2dc;stroke-width:0.4;stroke-linecap:round;paint-order:markers fill stroke;stop-color:#000000;stop-opacity:1"
       inkscape:label="Legs"
       d="M 4.2849927,134.03517 H 20.998805 l 0,95.18277 H 4.2849927 Z m 19.2429633,0 h 16.713812 l 0,95.18277 H 23.527956 Z"
       sodipodi:nodetypes="cccccccccc" /><path
       id="rect15507"
       style="display:inline;opacity:1;vector-effect:none;fill:#474747;stroke-width:0.218764;stroke-linecap:round;paint-order:markers fill stroke;stop-color:#000000;stop-opacity:1;fill-opacity:1"
       inkscape:label="ShoeSoles"
       d="M 4.2849927,179.52573 H 20.998805 l 0,20.9831 H 4.2849927 Z m 19.2429633,0 h 16.713812 l 0,20.9831 H 23.527956 Z"
       sodipodi:nodetypes="cccccccccc" /><path
       id="rect15509"
       style="display:inline;opacity:1;vector-effect:none;fill:#020101;stroke-width:0.11943;stroke-linecap:round;paint-order:markers fill stroke;stop-color:#000000;stop-opacity:1;fill-opacity:1"
       inkscape:label="ShoeHeels"
       d="M 4.2849927,193.35822 H 20.998805 v 5.87311 H 4.2849927 Z m 19.2429633,0 h 16.713812 v 5.87311 H 23.527956 Z"
       sodipodi:nodetypes="cccccccccc" /><path
       id="rect15511"
       style="display:inline;opacity:1;vector-effect:none;fill:#ffffff;fill-opacity:1;stroke-width:0.210337;stroke-linecap:round;paint-order:markers fill stroke;stop-color:#000000;stop-opacity:1"
       inkscape:label="Socks"
       d="M 4.2849927,163.04427 H 20.998805 l 0,16.48146 H 4.2849927 Z m 19.2429633,0 h 16.713812 l 0,16.48146 H 23.527956 Z M 4.2849927,200.50883 H 20.998806 l 0,9.08612 H 4.2849927 Z m 19.2429633,0 h 16.713812 l 0,9.08612 H 23.527956 Z"
       sodipodi:nodetypes="cccccccccccccccccccc" /><path
       id="path15586"
       style="display:inline;fill:#ffd438;fill-opacity:1;stroke:none;stroke-width:0.264583px;stroke-linecap:butt;stroke-linejoin:miter;stroke-opacity:1"
       d="m 145.22834,43.676921 c -1.53636,0.0311 -3.07171,0.56843 -4.60643,1.514636 3.60518,3.406482 -0.42203,12.208267 -10.04848,15.626436 v 34.11213 0.72347 34.112127 c 9.62645,3.41818 13.65366,12.21945 10.04848,15.62592 4.09258,2.52322 8.19057,2.13883 12.29692,-2.99878 7.10093,-0.0312 10.64764,-3.99661 13.44776,-8.78861 2.80012,4.792 6.34682,8.75742 13.44776,8.78861 4.10635,5.13761 8.20434,5.522 12.29692,2.99878 -3.60519,-3.40647 0.42203,-12.20774 10.04848,-15.62592 v -34.112127 -0.72347 -34.11213 c -9.62645,-3.418169 -13.65367,-12.219954 -10.04848,-15.626436 -1.53472,-0.946206 -3.07007,-1.483531 -4.60644,-1.514636 -2.5606,-0.05184 -5.12401,1.302407 -7.69048,4.513419 -7.10094,0.03119 -10.64764,3.997121 -13.44776,8.789128 -2.80012,-4.792007 -6.34683,-8.757938 -13.44776,-8.789128 -2.56648,-3.211012 -5.12988,-4.565259 -7.69049,-4.513419 z m 21.13825,33.97312 1.58492,2.644799 -1.58492,2.879411 -1.58492,-2.879411 z m 0,29.758909 1.58492,2.87993 -1.58492,2.6448 -1.58492,-2.6448 z"
       inkscape:label="HairExtension" /><path
       id="path15652"
       style="display:inline;opacity:1;fill:#ffa938;fill-opacity:1;stroke:none;stroke-width:0.264583px;stroke-linecap:butt;stroke-linejoin:miter;stroke-opacity:1"
       d="m 145.43298,43.8335 c -1.56341,-0.02586 -3.16677,0.480434 -4.81107,1.527556 l 3.05666,0.83199 c 2.47925,0.762768 3.79829,2.712551 4.22971,5.830135 1.29528,-0.741698 2.61602,-1.283209 3.96927,-1.565279 l 1.04128,-2.098063 c -2.3857,-2.961625 -4.88015,-4.483229 -7.48585,-4.526339 z m 41.86722,0 c -2.6057,0.04311 -5.10016,1.564714 -7.48585,4.526339 l 1.04128,2.098063 c 1.35325,0.28207 2.67399,0.823581 3.96926,1.565279 0.43142,-3.117584 1.75047,-5.067367 4.22972,-5.830135 l 3.05666,-0.83199 c -1.6443,-1.047122 -3.24767,-1.55342 -4.81107,-1.527556 z m -23.72052,9.163782 -1.15239,1.731677 c 3.44051,11.554592 -1.31577,21.999318 -8.17107,25.630477 13.09068,6.036694 12.96429,23.499884 0,30.033824 6.8553,3.63117 11.61158,14.07588 8.17107,25.63048 l 1.15239,1.73219 c 1.12621,-1.28423 1.99231,-2.70002 2.78691,-4.15168 0.7946,1.45166 1.6607,2.86745 2.78691,4.15168 l 1.15238,-1.73219 c -3.4405,-11.5546 1.31578,-21.99931 8.17108,-25.63048 -12.9643,-6.53394 -13.09069,-23.99713 0,-30.033824 -6.8553,-3.631159 -11.61158,-14.075885 -8.17108,-25.630477 l -1.15238,-1.731677 c -1.12621,1.284225 -1.99231,2.69951 -2.78691,4.151168 -0.7946,-1.451658 -1.6607,-2.866943 -2.78691,-4.151168 z m 2.78691,24.821741 1.58492,2.644799 -1.58492,2.879928 -1.58492,-2.879928 z m 0,29.589927 1.58492,2.87993 -1.58492,2.6448 -1.58492,-2.6448 z m -18.45831,31.32057 c -0.43142,3.11757 -1.75046,5.06736 -4.22971,5.83013 l -3.05666,0.83199 c 4.38478,2.79233 8.47981,1.73981 12.29692,-2.99878 l -1.04128,-2.09806 c -1.35325,-0.28207 -2.67399,-0.82358 -3.96927,-1.56528 z m 36.91661,0 c -1.29527,0.7417 -2.61601,1.28321 -3.96926,1.56528 l -1.04128,2.09806 c 3.81711,4.73859 7.91214,5.79111 12.29692,2.99878 l -3.05666,-0.83199 c -2.47925,-0.76277 -3.7983,-2.71256 -4.22972,-5.83013 z"
       inkscape:label="HairExtensionDark" /><path
       style="display:inline;opacity:1;fill:#ac79c4;fill-opacity:1;stroke:none;stroke-width:0.264583px;stroke-linecap:butt;stroke-linejoin:miter;stroke-opacity:1"
       d="m 166.38871,246.39733 35.91032,12.17492 -0.004,-40.22811 -13.32886,-23.05648 -2.05875,0.38068 -3.26155,-1.92548 -0.94895,0.61219 -5.34778,-3.17882 0.0564,-1.1174 -12.76041,-7.53323 -0.9828,0.61674 -5.32438,-3.16983 0.063,-1.13321 -3.25236,-1.92006 -0.67041,-2.03569 -28.54273,-0.42417 6.81392,39.65938 12.33208,0.15561 13.91674,8.13069 2.88102,5.0156 c -2.64223,0.39821 -4.06886,2.15921 -4.47836,5.06049 l -0.0246,9.65004 c 0.9688,4.58772 3.50923,6.73102 9.01246,4.26614 z"
       id="path16239"
       sodipodi:nodetypes="ccccccccccccccccccccccc"
       inkscape:label="Skirt" /><path
       style="display:inline;opacity:1;fill:#ffffff;fill-opacity:1;stroke:none;stroke-width:0.264583px;stroke-linecap:butt;stroke-linejoin:miter;stroke-opacity:1"
       d="m 159.38483,219.06982 c 1.03168,3.69674 -2.27276,6.21616 -5.39995,4.52484 l -7.88074,-4.64165 c -2.84714,-2.08791 -1.30496,-6.27538 1.74423,-6.64036 3.58944,-6.58584 6.80124,-3.36831 7.25412,0.77313 4.15851,-1.75525 8.23742,0.003 4.28234,5.98404 z"
       id="path16825"
       sodipodi:nodetypes="cccccccc"
       inkscape:label="Undershirt" /><path
       style="display:inline;fill:#79c4ad;fill-rule:evenodd;stroke:none;stroke-width:0.264583px;stroke-linecap:butt;stroke-linejoin:miter;stroke-opacity:1;fill-opacity:1"
       d="m 76.067707,43.722395 h 13.49375 c 0,0 13.758333,0.529167 20.042183,6.813021 6.28386,6.283854 10.78178,15.345833 10.71563,22.754166 -0.0662,7.408334 -0.66146,7.791141 -0.66146,7.791141 0,0 -5.159,-1.044266 -9.19427,-4.020828 -4.03527,-2.976563 -6.92504,-7.011458 -6.92504,-7.011458 0,0 -9.363371,-1.825213 -12.794686,-5.708179 -3.431315,-3.882967 -7.863086,-11.952759 -7.863086,-11.952759 l -0.992187,-0.06614 c 0,0 -2.503207,7.699787 -7.700823,12.018904 -5.197615,4.319116 -12.804385,5.642033 -12.804385,5.642033 0,0 -3.241146,4.960937 -7.077605,6.813021 -3.836458,1.852083 -9.19427,3.902604 -9.19427,3.902604 0,0 -2.315104,-13.758334 6.482291,-26.127604 C 60.391145,42.201046 76.067707,43.7224 76.067707,43.7224 Z"
       id="path932"
       inkscape:label="BowLower" /><path
       style="display:inline;opacity:1;fill:#6eaf97;fill-rule:evenodd;stroke:none;stroke-width:0.264583px;stroke-linecap:butt;stroke-linejoin:miter;stroke-opacity:1;fill-opacity:1"
       d="m 77.411296,45.642691 c 0,0 -0.192598,0.816825 0.401007,1.957504 0.593606,1.140679 1.231967,1.612304 1.231967,1.612304 0,0 -1.038951,2.508105 -5.490104,5.291667 -4.451153,2.783562 -8.598958,2.116667 -8.598958,2.116667 0,0 1.490122,-5.100779 5.655468,-8.102864 4.165347,-3.002086 6.80062,-2.875278 6.80062,-2.875278 z"
       id="path934"
       sodipodi:nodetypes="czczczc"
       inkscape:label="BowFoldLL" /><path
       style="display:inline;opacity:1;fill:#6eaf97;fill-rule:evenodd;stroke:none;stroke-width:0.264583px;stroke-linecap:butt;stroke-linejoin:miter;stroke-opacity:1;fill-opacity:1"
       d="m 87.559508,45.642695 c 0,0 0.192598,0.816825 -0.401007,1.957504 -0.593606,1.140679 -1.231967,1.612304 -1.231967,1.612304 0,0 1.038951,2.508105 5.490104,5.291667 4.451153,2.783562 8.598962,2.116667 8.598962,2.116667 0,0 -1.490126,-5.100779 -5.655472,-8.102864 -4.165347,-3.002086 -6.80062,-2.875278 -6.80062,-2.875278 z"
       id="path1032"
       sodipodi:nodetypes="czczczc"
       inkscape:label="BowFoldLR" /><path
       style="display:inline;opacity:1;fill:#79c4ad;fill-opacity:1;fill-rule:evenodd;stroke:none;stroke-width:0.264583px;stroke-linecap:butt;stroke-linejoin:miter;stroke-opacity:1"
       d="m 76.067707,38.514969 h 13.49375 c 0,0 13.758333,-0.529167 20.042183,-6.813021 6.28386,-6.283854 10.78178,-15.345833 10.71563,-22.754166 -0.0662,-7.4083337 -0.66146,-7.7911407 -0.66146,-7.7911407 0,0 -5.159,1.044266 -9.19427,4.0208277 -4.03527,2.976563 -6.92504,7.011458 -6.92504,7.011458 0,0 -9.363371,1.825213 -12.794686,5.708179 -3.431315,3.882967 -7.863086,11.952759 -7.863086,11.952759 l -0.992187,0.06614 c 0,0 -2.503207,-7.699787 -7.700823,-12.018904 -5.197615,-4.319116 -12.804385,-5.642033 -12.804385,-5.642033 0,0 -3.241146,-4.960937 -7.077605,-6.813021 -3.836458,-1.8520827 -9.19427,-3.9026037 -9.19427,-3.9026037 0,0 -2.315104,13.7583337 6.482291,26.1276037 8.797396,12.369271 24.473958,10.847917 24.473958,10.847917 z"
       id="path1681"
       inkscape:label="BowUpper" /><path
       style="display:inline;opacity:1;fill:#6eaf97;fill-opacity:1;fill-rule:evenodd;stroke:none;stroke-width:0.264583px;stroke-linecap:butt;stroke-linejoin:miter;stroke-opacity:1"
       d="m 77.411296,36.594673 c 0,0 -0.192598,-0.816825 0.401007,-1.957504 0.593606,-1.140679 1.231967,-1.612304 1.231967,-1.612304 0,0 -1.038951,-2.508105 -5.490104,-5.291667 -4.451153,-2.783562 -8.598958,-2.116667 -8.598958,-2.116667 0,0 1.490122,5.100779 5.655468,8.102864 4.165347,3.002086 6.80062,2.875278 6.80062,2.875278 z"
       id="path1683"
       sodipodi:nodetypes="czczczc"
       inkscape:label="BowFoldUL" /><path
       style="display:inline;opacity:1;fill:#6eaf97;fill-opacity:1;fill-rule:evenodd;stroke:none;stroke-width:0.264583px;stroke-linecap:butt;stroke-linejoin:miter;stroke-opacity:1"
       d="m 87.559508,36.594669 c 0,0 0.192598,-0.816825 -0.401007,-1.957504 -0.593606,-1.140679 -1.231967,-1.612304 -1.231967,-1.612304 0,0 1.038951,-2.508105 5.490104,-5.291667 4.451153,-2.783562 8.598962,-2.116667 8.598962,-2.116667 0,0 -1.490126,5.100779 -5.655472,8.102864 -4.165347,3.002086 -6.80062,2.875278 -6.80062,2.875278 z"
       id="path1685"
       sodipodi:nodetypes="czczczc"
       inkscape:label="BowFoldUR" /><rect
       style="opacity:0.5;fill:#000000;fill-rule:evenodd;stroke-width:0.264999;stroke-linecap:round;stroke-linejoin:round"
       id="rect1"
       width="210"
       height="297"
       x="0"
       y="0"
       ry="0.23812598" /><path
       id="ellipse12097"
       style="display:inline;opacity:0.40306122;fill:#fff59d;fill-opacity:1;stroke:none;stroke-width:0.15;paint-order:markers fill stroke;stop-color:#000000;stop-opacity:1"
       d="m 62.953187,120.91177 a 3.7924469,2.3438611 0 0 1 -3.792447,2.34386 3.7924469,2.3438611 0 0 1 -3.792447,-2.34386 3.7924469,2.3438611 0 0 1 3.792447,-2.34386 3.7924469,2.3438611 0 0 1 3.792447,2.34386 z m 46.461233,0 a 3.7924469,2.3438611 0 0 1 -3.79245,2.34386 3.7924469,2.3438611 0 0 1 -3.79245,-2.34386 3.7924469,2.3438611 0 0 1 3.79245,-2.34386 3.7924469,2.3438611 0 0 1 3.79245,2.34386 z"
       inkscape:label="Blush" /><path
       class="fil24"
       d="m 71.815616,112.31425 c 0,0 0,0 0,0 0,4.85571 -1.94234,8.74013 -4.20827,8.74013 0,0 0,0 0,0 -2.26593,0 -4.53212,-3.88442 -4.53212,-8.74013 0,0 0,0 0,0 0,-4.85572 2.26593,-8.74039 4.53212,-8.74039 0,0 0,0 0,0 2.26593,0 4.20827,3.88467 4.20827,8.74039 z m 29.781474,0 c 0,0 0,0 0,0 0,4.85571 -1.94233,8.74013 -4.20826,8.74013 0,0 0,0 0,0 -2.589794,0 -4.531874,-3.88442 -4.531874,-8.74013 0,0 0,0 0,0 0,-4.85572 1.94208,-8.74039 4.531874,-8.74039 0,0 0,0 0,0 2.26593,0 4.20826,3.88467 4.20826,8.74039 z"
       id="path216"
       style="clip-rule:evenodd;fill:#ff9176;fill-rule:evenodd;stroke-width:0.0254;image-rendering:optimizeQuality;shape-rendering:geometricPrecision;text-rendering:geometricPrecision" /><path
       class="fil8"
       d="m 70.981476,117.50321 c -2.22123,-0.95021 -4.73532,-0.94793 -6.95502,0.007 0.87046,2.15544 2.2258,3.54482 3.58089,3.54482 1.35661,0 2.59689,-1.39217 3.37439,-3.55117 z"
       id="path237"
       style="clip-rule:evenodd;fill:#c5f36d;fill-rule:evenodd;stroke-width:0.0254;image-rendering:optimizeQuality;shape-rendering:geometricPrecision;text-rendering:geometricPrecision" /><path
       class="fil7"
       d="m 67.607346,103.57386 c 0.37008,2.77419 0.5588,5.38759 0.56693,8.23645 1.23698,0.0287 2.44906,0.34062 3.636,0.53924 -1.19837,0.15647 -2.41071,0.48921 -3.63702,0.51334 -0.0175,2.77596 -0.20599,5.34492 -0.56591,8.19149 -0.44679,-2.87172 -0.68326,-5.44017 -0.70942,-8.19022 -1.25959,-0.0221 -2.5339,-0.35509 -3.82245,-0.51461 1.2982,-0.19761 2.57175,-0.50952 3.82042,-0.53898 0.005,-2.87884 0.24231,-5.49224 0.7117,-8.23671 z"
       id="path238"
       style="clip-rule:evenodd;fill:#fefefe;fill-rule:evenodd;stroke-width:0.0254;image-rendering:optimizeQuality;shape-rendering:geometricPrecision;text-rendering:geometricPrecision" /><path
       class="fil8"
       d="m 100.80284,117.39094 c -2.37693,-0.81661 -4.748024,-0.79857 -7.112514,0.0541 0.80645,2.19227 2.13436,3.60934 3.698504,3.60934 1.37998,0 2.63982,-1.44043 3.41401,-3.66344 z"
       id="path239"
       style="clip-rule:evenodd;fill:#c5f36d;fill-rule:evenodd;stroke-width:0.0254;image-rendering:optimizeQuality;shape-rendering:geometricPrecision;text-rendering:geometricPrecision" /><path
       class="fil7"
       d="m 97.38883,103.57386 c 0.37007,2.77419 0.55879,5.38759 0.56692,8.23645 1.23698,0.0287 2.44907,0.34062 3.63601,0.53924 -1.19837,0.15647 -2.41071,0.48921 -3.63702,0.51334 -0.0175,2.77596 -0.206,5.34492 -0.56591,8.19149 -0.44679,-2.87172 -0.68326,-5.44017 -0.70943,-8.19022 -1.259584,-0.0221 -2.533904,-0.35509 -3.822444,-0.51461 1.29819,-0.19761 2.57175,-0.50952 3.820414,-0.53898 0.005,-2.87884 0.24232,-5.49224 0.71171,-8.23671 z"
       id="path240"
       style="clip-rule:evenodd;fill:#fefefe;fill-rule:evenodd;stroke-width:0.0254;image-rendering:optimizeQuality;shape-rendering:geometricPrecision;text-rendering:geometricPrecision" /><path
       class="fil48"
       d="m 76.833636,119.00486 c 0,3.24738 2.4356,5.2771 5.68299,5.2771 2.84149,0 5.2771,-2.02972 5.2771,-5.2771 0,-1.21768 -10.96009,-1.21768 -10.96009,0 z"
       id="path241"
       style="clip-rule:evenodd;fill:#ffaab6;fill-rule:evenodd;stroke-width:0.0254;image-rendering:optimizeQuality;shape-rendering:geometricPrecision;text-rendering:geometricPrecision" /><polygon
       class="fil6"
       points="501.65,4903.36 1164.37,4903.36 1164.37,4654.22 501.65,4654.22 "
       id="polygon183"
       style="clip-rule:evenodd;fill:#4b4b4d;fill-rule:evenodd;image-rendering:optimizeQuality;shape-rendering:geometricPrecision;text-rendering:geometricPrecision"
       transform="matrix(0.02539998,0,0,0.02539998,-0.07588334,-0.13178593)" /><polygon
       class="fil6"
       points="501.65,1296.63 1164.37,1296.63 1164.37,1545.77 501.65,1545.77 "
       id="polygon186"
       style="clip-rule:evenodd;fill:#4b4b4d;fill-rule:evenodd;image-rendering:optimizeQuality;shape-rendering:geometricPrecision;text-rendering:geometricPrecision"
       transform="matrix(0.02539998,0,0,0.02539998,-0.07588334,-0.13178593)" /><path
       class="fil8 str15"
       d="m 20.440696,35.315664 v 1.232153 0.318262 c 0,0.195834 0.121666,0.364744 0.293116,0.434594 0.05436,0.0221 0.113792,0.03429 0.175767,0.03429 h 0.34544 c 0.06198,0 0.121412,-0.01219 0.175768,-0.03429 0.17145,-0.06985 0.293116,-0.23876 0.293116,-0.434594 v -0.318262 -1.232153 -0.181356 c 0,-0.168402 -0.08992,-0.316738 -0.224028,-0.399541 -0.07137,-0.04394 -0.155194,-0.0696 -0.244856,-0.0696 h -0.34544 c -0.08966,0 -0.173481,0.0254 -0.244855,0.0696 -0.134112,0.0828 -0.224028,0.231139 -0.224028,0.399541 z"
       id="path199"
       style="clip-rule:evenodd;fill:#c5f36d;fill-rule:evenodd;stroke:#85ed1d;stroke-width:0.0761999;stroke-miterlimit:2.61313;image-rendering:optimizeQuality;shape-rendering:geometricPrecision;text-rendering:geometricPrecision" /><path
       class="fil40 str15"
       d="m 21.724157,35.315664 v 1.232153 c 1.806955,0.724408 1.715769,-0.701801 0,-1.232153 z"
       id="path200"
       style="clip-rule:evenodd;fill:#85ed1d;fill-rule:evenodd;stroke:#85ed1d;stroke-width:0.0761999;stroke-miterlimit:2.61313;image-rendering:optimizeQuality;shape-rendering:geometricPrecision;text-rendering:geometricPrecision" /><path
       class="fil40 str15"
       d="m 20.440696,36.547817 v -1.232153 c -1.715769,0.530352 -1.806955,1.956561 0,1.232153 z"
       id="path201"
       style="clip-rule:evenodd;fill:#85ed1d;fill-rule:evenodd;stroke:#85ed1d;stroke-width:0.0761999;stroke-miterlimit:2.61313;image-rendering:optimizeQuality;shape-rendering:geometricPrecision;text-rendering:geometricPrecision" /><path
       class="fil8 str15"
       d="m 21.724157,35.315664 c 1.715769,0.530352 1.806955,1.956561 0,1.232153 v 0.318262 c 0,0.178308 -0.100584,0.33401 -0.248158,0.413512 3.54025,3.817871 3.368292,-3.193286 1.913889,-3.54406 -0.302006,-0.13716 -0.835405,0.112776 -1.600453,0.749554 -0.09296,0.07747 -0.189484,0.160782 -0.289306,0.249682 0.134112,0.0828 0.224028,0.231139 0.224028,0.399541 z"
       id="path202"
       style="clip-rule:evenodd;fill:#c5f36d;fill-rule:evenodd;stroke:#85ed1d;stroke-width:0.0761999;stroke-miterlimit:2.61313;image-rendering:optimizeQuality;shape-rendering:geometricPrecision;text-rendering:geometricPrecision" /><path
       class="fil8 str15"
       d="m 20.440696,35.315664 c -1.715769,0.530352 -1.806955,1.956561 0,1.232153 v 0.318262 c 0,0.178308 0.100584,0.33401 0.248158,0.413258 -3.54025,3.817871 -3.368292,-3.193286 -1.913889,-3.543806 0.302006,-0.13716 0.835405,0.112522 1.600453,0.749554 0.09296,0.07747 0.189484,0.160782 0.289306,0.249682 -0.134112,0.0828 -0.224028,0.231139 -0.224028,0.399541 z"
       id="path203"
       style="clip-rule:evenodd;fill:#c5f36d;fill-rule:evenodd;stroke:#85ed1d;stroke-width:0.0761999;stroke-miterlimit:2.61313;image-rendering:optimizeQuality;shape-rendering:geometricPrecision;text-rendering:geometricPrecision" /><path
       class="fil3 str16"
       d="m 20.440696,120.56486 v 1.23215 0.31827 c 0,0.19583 0.121666,0.36474 0.293116,0.43459 0.05436,0.0221 0.113792,0.0343 0.175767,0.0343 h 0.34544 c 0.06198,0 0.121412,-0.0122 0.175768,-0.0343 0.17145,-0.0699 0.293116,-0.23876 0.293116,-0.43459 v -0.31827 -1.23215 -0.18136 c 0,-0.1684 -0.08992,-0.31673 -0.224028,-0.39954 -0.07137,-0.0439 -0.155194,-0.0696 -0.244856,-0.0696 h -0.34544 c -0.08966,0 -0.173481,0.0254 -0.244855,0.0696 -0.134112,0.0828 -0.224028,0.23114 -0.224028,0.39954 z"
       id="path204"
       style="clip-rule:evenodd;fill:#fffe77;fill-rule:evenodd;stroke:#ffd727;stroke-width:0.0761999;stroke-miterlimit:2.61313;image-rendering:optimizeQuality;shape-rendering:geometricPrecision;text-rendering:geometricPrecision" /><path
       class="fil41 str16"
       d="m 21.724157,120.56486 v 1.23215 c 1.806955,0.72441 1.715769,-0.7018 0,-1.23215 z"
       id="path205"
       style="clip-rule:evenodd;fill:#ffd727;fill-rule:evenodd;stroke:#ffd727;stroke-width:0.0761999;stroke-miterlimit:2.61313;image-rendering:optimizeQuality;shape-rendering:geometricPrecision;text-rendering:geometricPrecision" /><path
       class="fil41 str16"
       d="m 20.440696,121.79701 v -1.23215 c -1.715769,0.53035 -1.806955,1.95656 0,1.23215 z"
       id="path206"
       style="clip-rule:evenodd;fill:#ffd727;fill-rule:evenodd;stroke:#ffd727;stroke-width:0.0761999;stroke-miterlimit:2.61313;image-rendering:optimizeQuality;shape-rendering:geometricPrecision;text-rendering:geometricPrecision" /><path
       class="fil3 str16"
       d="m 21.724157,120.56486 c 1.715769,0.53035 1.806955,1.95656 0,1.23215 v 0.31827 c 0,0.1783 -0.100584,0.33401 -0.248158,0.41351 3.54025,3.81787 3.368292,-3.19329 1.913889,-3.54406 -0.302006,-0.13716 -0.835405,0.11277 -1.600453,0.74955 -0.09296,0.0775 -0.189484,0.16078 -0.289306,0.24968 0.134112,0.0828 0.224028,0.23114 0.224028,0.39954 z"
       id="path207"
       style="clip-rule:evenodd;fill:#fffe77;fill-rule:evenodd;stroke:#ffd727;stroke-width:0.0761999;stroke-miterlimit:2.61313;image-rendering:optimizeQuality;shape-rendering:geometricPrecision;text-rendering:geometricPrecision" /><path
       class="fil3 str16"
       d="m 20.440696,120.56486 c -1.715769,0.53035 -1.806955,1.95656 0,1.23215 v 0.31827 c 0,0.1783 0.100584,0.33401 0.248158,0.41325 -3.54025,3.81787 -3.368292,-3.19328 -1.913889,-3.5438 0.302006,-0.13716 0.835405,0.11252 1.600453,0.74955 0.09296,0.0775 0.189484,0.16078 0.289306,0.24968 -0.134112,0.0828 -0.224028,0.23114 -0.224028,0.39954 z"
       id="path208"
       style="clip-rule:evenodd;fill:#fffe77;fill-rule:evenodd;stroke:#ffd727;stroke-width:0.0761999;stroke-miterlimit:2.61313;image-rendering:optimizeQuality;shape-rendering:geometricPrecision;text-rendering:geometricPrecision" /><path
       class="fil4"
       d="M 54.109836,266.10123 C 56.848208,256.5864 61.664553,243.8986 67.5162,238.08632 58.403195,243.94 53.934577,253.27856 54.109836,266.10123 Z"
       id="path224"
       style="clip-rule:evenodd;fill:#a7f2d4;fill-rule:evenodd;stroke-width:0.0254;image-rendering:optimizeQuality;shape-rendering:geometricPrecision;text-rendering:geometricPrecision" /><path
       class="fil3"
       d="m 111.49601,266.10123 c -2.73837,-9.51483 -7.55472,-22.20263 -13.406359,-28.01491 9.112999,5.85368 13.581619,15.19224 13.406359,28.01491 z"
       id="path225"
       style="clip-rule:evenodd;fill:#fffe77;fill-rule:evenodd;stroke-width:0.0254;image-rendering:optimizeQuality;shape-rendering:geometricPrecision;text-rendering:geometricPrecision" /><path
       class="fil2"
       d="m 59.788764,291.29827 c -3.0513,-4.41528 -6.720581,-10.79169 -7.14984,-15.24202 -0.672846,5.83259 1.710434,10.91335 7.14984,15.24202 z"
       id="path226"
       style="clip-rule:evenodd;fill:#c4f26c;fill-rule:evenodd;stroke-width:0.0254;image-rendering:optimizeQuality;shape-rendering:geometricPrecision;text-rendering:geometricPrecision" /><path
       class="fil4"
       d="m 105.17421,290.90838 c 3.0513,-4.41528 6.72058,-10.79169 7.14984,-15.24202 0.67285,5.83259 -1.71044,10.91335 -7.14984,15.24202 z"
       id="path227"
       style="clip-rule:evenodd;fill:#a7f2d4;fill-rule:evenodd;stroke-width:0.0254;image-rendering:optimizeQuality;shape-rendering:geometricPrecision;text-rendering:geometricPrecision" /><path
       class="fil4"
       d="m 25.350455,255.56684 c 2.738372,9.51484 7.554716,22.20263 13.406364,28.01491 -9.113005,-5.85368 -13.581624,-15.19223 -13.406364,-28.01491 z"
       id="path228"
       style="clip-rule:evenodd;fill:#a7f2d4;fill-rule:evenodd;stroke-width:0.0254;image-rendering:optimizeQuality;shape-rendering:geometricPrecision;text-rendering:geometricPrecision" /><path
       class="fil2"
       d="m 45.202317,239.50847 c -3.252721,2.73939 -7.386568,6.84961 -8.642089,10.16202 0.70104,-4.59917 3.581905,-7.98651 8.642089,-10.16202 z"
       id="path229"
       style="clip-rule:evenodd;fill:#c4f26c;fill-rule:evenodd;stroke-width:0.0254;image-rendering:optimizeQuality;shape-rendering:geometricPrecision;text-rendering:geometricPrecision" /><path
       class="fil3"
       d="m 138.33058,254.98772 c -2.73837,9.51484 -7.55471,22.20263 -13.40636,28.01491 9.113,-5.85368 13.58162,-15.19223 13.40636,-28.01491 z"
       id="path230"
       style="clip-rule:evenodd;fill:#fffe77;fill-rule:evenodd;stroke-width:0.0254;image-rendering:optimizeQuality;shape-rendering:geometricPrecision;text-rendering:geometricPrecision" /><path
       class="fil4"
       d="m 125.95469,239.6314 c 2.60249,3.36347 5.77748,8.2522 6.30682,11.75511 0.28372,-4.64337 -1.81838,-8.56182 -6.30682,-11.75511 z"
       id="path231"
       style="clip-rule:evenodd;fill:#a7f2d4;fill-rule:evenodd;stroke-width:0.0254;image-rendering:optimizeQuality;shape-rendering:geometricPrecision;text-rendering:geometricPrecision" /><path
       class="fil4"
       d="m 95.487931,214.68761 c 2.60248,3.36346 5.777479,8.2522 6.306809,11.75511 0.28372,-4.64337 -1.818377,-8.56183 -6.306809,-11.75511 z"
       id="path232"
       style="clip-rule:evenodd;fill:#a7f2d4;fill-rule:evenodd;stroke-width:0.0254;image-rendering:optimizeQuality;shape-rendering:geometricPrecision;text-rendering:geometricPrecision" /><path
       class="fil3"
       d="m 71.481391,214.68761 c -2.602482,3.36346 -5.77748,8.2522 -6.306815,11.75511 -0.283718,-4.64337 1.818384,-8.56183 6.306815,-11.75511 z"
       id="path233"
       style="clip-rule:evenodd;fill:#fffe77;fill-rule:evenodd;stroke-width:0.0254;image-rendering:optimizeQuality;shape-rendering:geometricPrecision;text-rendering:geometricPrecision" /><path
       class="fil2"
       d="m 112.27477,162.52672 c -2.73837,9.51483 -7.55471,22.20263 -13.406357,28.0149 9.113007,-5.85367 13.581617,-15.19223 13.406357,-28.0149 z"
       id="path234"
       style="clip-rule:evenodd;fill:#c4f26c;fill-rule:evenodd;stroke-width:0.0254;image-rendering:optimizeQuality;shape-rendering:geometricPrecision;text-rendering:geometricPrecision" /><path
       class="fil3"
       d="m 51.435219,181.59296 c 3.793487,5.41578 9.587476,12.38528 14.544282,14.7871 -7.025634,-1.72084 -11.873729,-6.64971 -14.544282,-14.7871 z"
       id="path235"
       style="clip-rule:evenodd;fill:#fffe77;fill-rule:evenodd;stroke-width:0.0254;image-rendering:optimizeQuality;shape-rendering:geometricPrecision;text-rendering:geometricPrecision" /><path
       class="fil4"
       d="m 72.799142,159.33623 c -2.602482,3.36346 -5.77748,8.25219 -6.306815,11.75511 -0.283718,-4.64337 1.818384,-8.56183 6.306815,-11.75511 z"
       id="path236"
       style="clip-rule:evenodd;fill:#a7f2d4;fill-rule:evenodd;stroke-width:0.0254;image-rendering:optimizeQuality;shape-rendering:geometricPrecision;text-rendering:geometricPrecision" /><g
       id="g278"
       style="clip-rule:evenodd;fill-rule:evenodd;image-rendering:optimizeQuality;shape-rendering:geometricPrecision;text-rendering:geometricPrecision"
       transform="matrix(0.02539998,0,0,0.02539998,-0.17078141,0.27324514)">&#10;     <path
   class="fil52"
   d="m 297.43,6656.26 c -95.25,1.54 6.31,135.18 304.69,400.93 C 467.82,6774.3 366.26,6640.65 297.43,6656.26 Z"
   id="path277"
   style="fill:#6beaf1" />&#10;     <path
   class="fil52"
   d="m 711.83,6658.2 c 80,-18.91 43.42,114.08 -109.71,398.99 10.12,-264.41 46.69,-397.41 109.71,-398.99 z"
   id="path278"
   style="fill:#6beaf1" />&#10;    </g><g
       id="g280"
       style="clip-rule:evenodd;fill-rule:evenodd;image-rendering:optimizeQuality;shape-rendering:geometricPrecision;text-rendering:geometricPrecision"
       transform="matrix(0.02539998,0,0,0.02539998,-0.17078141,0.27324514)">&#10;     <path
   class="fil26"
   d="m 1470.21,6656.26 c 95.25,1.54 -6.31,135.18 -304.69,400.93 134.3,-282.89 235.86,-416.54 304.69,-400.93 z"
   id="path279"
   style="fill:#ff76aa" />&#10;     <path
   class="fil26"
   d="m 1055.81,6658.2 c -80,-18.91 -43.42,114.08 109.71,398.99 -10.12,-264.41 -46.69,-397.41 -109.71,-398.99 z"
   id="path280"
   style="fill:#ff76aa" />&#10;    </g><g
       id="g281"
       style="clip-rule:evenodd;fill-rule:evenodd;image-rendering:optimizeQuality;shape-rendering:geometricPrecision;text-rendering:geometricPrecision"
       transform="matrix(0.02539998,0,0,0.02539998,-0.17078141,0.27324514)">&#10;     <rect
   class="fil26"
   transform="matrix(1.1325,0.572922,-0.5,0.758839,239.819,6050.41)"
   width="497.04001"
   height="53"
   id="rect280"
   style="fill:#ff76aa"
   x="0"
   y="0" />&#10;     <rect
   class="fil26"
   transform="matrix(1.1325,-0.572922,0.5,0.758839,213.317,6335.17)"
   width="497.04001"
   height="53"
   id="rect281"
   style="fill:#ff76aa"
   x="0"
   y="0" />&#10;    </g><g
       id="g283"
       style="clip-rule:evenodd;fill-rule:evenodd;image-rendering:optimizeQuality;shape-rendering:geometricPrecision;text-rendering:geometricPrecision"
       transform="matrix(0.02539998,0,0,0.02539998,-0.17078141,0.27324514)">&#10;     <rect
   class="fil3"
   transform="matrix(1.1325,0.572922,-0.5,0.758839,991.752,6050.41)"
   width="497.04001"
   height="53"
   id="rect282"
   style="fill:#fffe77"
   x="0"
   y="0" />&#10;     <rect
   class="fil3"
   transform="matrix(1.1325,-0.572922,0.5,0.758839,965.25,6335.17)"
   width="497.04001"
   height="53"
   id="rect283"
   style="fill:#fffe77"
   x="0"
   y="0" />&#10;    </g></g><g
     inkscape:groupmode="layer"
     id="layer2"
     inkscape:label="Lines"
     style="display:inline"><path
       id="path8943"
       style="font-variation-settings:normal;opacity:0.498521;vector-effect:none;fill:none;fill-opacity:1;stroke:#000000;stroke-width:0.15;stroke-linecap:butt;stroke-linejoin:miter;stroke-miterlimit:4;stroke-dasharray:0.6, 0.6;stroke-dashoffset:0;stroke-opacity:1;-inkscape-stroke:none;stop-color:#000000;stop-opacity:1"
       inkscape:label="FoldingLines"
       d="m 25.536425,182.1876 h 12.741552 m -31.9847257,0 H 19.034804 M 14.709846,124.41346 H 27.455262 M 14.709846,85.891009 H 27.455262 M 14.709846,71.31006 H 27.455262 M 14.709846,32.877514 H 27.455262 M 166.36664,63.376677 v 8.064256 m 0,19.270553 v 9.329824 m 0,19.1755 v 8.00881 M 77.382819,41.13159 H 87.569817 M 115.46686,205.2957 H 49.464965 m 52.651805,-46.28903 h 13.35009 m -43.116392,0 h 20.238071 m -43.123574,0 H 62.873876 M 115.46686,127.38009 H 49.464965 m 66.001885,16.89637 v -9.0289 M 16.665757,255.66323 v -17.35568 m 14.18477,46.33165 h -14.18477 v -17.4701 m 30.768039,17.47036 -6.920609,-2.6e-4 m 8.951778,-46.33165 v 46.33165 m 66.001895,0 v -46.33165 m 8.94907,46.33165 -6.91819,2.6e-4 m 30.74652,-17.46448 v 17.46422 h -14.16014 m 2.4255,-46.33165 h 11.73464 v 17.31637 M 16.665757,238.30755 h 11.81929 m 9.490736,0 h 11.489182 66.001895 11.51148 M 49.465198,217.59189 v 9.06921 m 66.001652,-9.06921 v 9.06921 M 74.18772,81.133549 h 3.817338 z m 12.734623,0 h 3.821472 z M 49.465198,135.24756 v 9.0289 z m 0,41.54733 v 10.98848 z m 66.001652,0 v 10.98848 z M 6.2932513,166.20151 H 19.034804 m 6.501621,0 H 38.277977 M 6.2932513,199.23134 H 19.034804 m 6.501621,0 h 12.741552 m 162.017363,56.55303 -9.71709,-3.30392 m -10.87331,-3.69704 -13.75692,-4.6775 m -6.56319,-25.03609 27.5228,-23.40148 m -31.75881,-18.7491 3.25236,1.92006 m 6.24417,3.6863 12.76041,7.53323 m 6.24032,3.68403 3.26155,1.92548 13.26196,23.26902 -34.1813,11.75993 m -18.13992,-18.38464 7.30045,-35.39341 -26.83382,-0.43118 m 1.77565,10.28352 1.87902,10.88358 m 41.07337,-40.1957 22.30281,13.14648" /><path
       id="path8895"
       style="font-variation-settings:normal;display:inline;opacity:1;vector-effect:none;fill:none;fill-opacity:1;stroke:#000000;stroke-width:0.2;stroke-linecap:butt;stroke-linejoin:miter;stroke-miterlimit:4;stroke-dasharray:none;stroke-dashoffset:0;stroke-opacity:1;-inkscape-stroke:none;stop-color:#000000;stop-opacity:1"
       inkscape:label="Outline"
       d="M 19.034804,136.15337 H 6.2932514 v 91.15896 H 19.034804 Z m 6.501621,0 h 12.741552 v 91.15896 H 25.536425 Z m -10.826579,-3.3502 3.864278,-5.31436 2.503514,5.26969 2.513839,-5.29294 3.863785,5.2864 V 24.438173 l -3.863785,5.2864 -2.513839,-5.29294 -2.503514,5.26969 -3.864278,-5.31436 z M 46.717045,3.824056 c -0.976889,7.814305 2.985572,18.016641 6.958748,23.31899 3.973186,5.302349 12.68147,9.38664 23.735503,9.45162 v 9.048026 c -11.054033,0.06498 -19.762317,4.148754 -23.735503,9.451103 -3.973176,5.302347 -7.935637,15.504685 -6.958748,23.31899 3.353887,-0.670086 11.598715,-6.077238 13.437423,-10.222115 9.724496,-1.465802 18.162182,-9.148511 20.4618,-18.116724 1.098599,0.402491 2.602815,0.436637 3.738268,3e-6 2.299625,8.968213 10.737302,16.650922 20.461794,18.116724 1.83872,4.144877 10.08354,9.552029 13.43742,10.222115 0.97689,-7.814305 -2.98556,-18.016643 -6.95874,-23.31899 -3.97319,-5.302349 -12.681463,-9.386119 -23.735502,-9.451103 v -9.048026 c 11.054039,-0.06498 19.762312,-4.149271 23.735502,-9.45162 3.97317,-5.302349 7.93563,-15.504685 6.95874,-23.31899 -3.35388,0.6700866 -11.5987,6.0772384 -13.43742,10.222115 -9.724492,1.465802 -18.162169,9.149027 -20.461794,18.11724 -1.283876,-0.450496 -2.494697,-0.444565 -3.738271,8.4e-5 C 78.31665,23.195198 69.878964,15.511973 60.154468,14.046171 58.31576,9.9012944 50.070932,4.4941426 46.717045,3.824056 Z m 48.96342,256.128554 c 0.86795,-2.1593 0.766533,-5.26829 -0.04754,-9.07542 2.454787,2.78567 3.710938,6.22733 4.122746,9.57255 l 7.063649,1.23661 c -0.24168,15.8435 -0.018,22.63694 -5.72472,23.12159 1.88397,1.79725 3.52375,2.20045 5.42396,1.72806 -1.03133,1.60635 -2.43644,2.19544 -3.80855,2.87372 3.01507,3.50971 12.75683,6.32122 12.75684,-4.77025 h 2.03089 l 7.66826,7.00216 h 23.07818 v -7.00216 l 7.0311,-4.66534 v -36.80551 l -7.0311,-4.8612 v -6.96857 H 123.1868 l -7.71995,6.96857 V 226.6611 c 2.44649,1.10761 4.75159,0.21627 5.04052,-1.98024 v -4.66432 c -0.035,-2.79143 -2.72401,-3.53549 -5.04052,-2.42465 v -29.80852 c 1.87947,1.01036 4.61342,0.81206 5.01934,-2.19935 v -6.37325 c -0.15977,-3.00374 -2.69168,-3.49461 -5.01934,-2.41588 v -32.51843 c 2.1526,0.97581 4.45492,0.74099 5.02605,-2.0593 v -4.77232 c -0.20574,-2.46783 -2.44545,-3.26504 -5.02605,-2.19728 v -7.86722 l -0.41754,-29.92479 c 0,-7.851527 -4.02098,-16.322001 -11.43031,-16.322001 H 90.743815 v -16.79329 h -2.350761 v 2.024166 H 76.538997 V 64.340259 H 74.18772 v 16.79329 H 61.312537 c -7.409327,0 -11.43031,8.470474 -11.43031,16.322001 l -0.417029,29.92479 v 7.86722 c -2.580595,-1.06776 -4.82031,-0.27055 -5.02605,2.19728 v 4.77232 c 0.571129,2.80029 2.873455,3.03511 5.02605,2.0593 v 32.51843 c -2.327655,-1.07873 -4.859562,-0.58786 -5.019332,2.41588 v 6.37325 c 0.405919,3.01141 3.139867,3.20971 5.019332,2.19935 v 29.80852 c -2.316505,-1.11084 -5.006036,-0.36678 -5.041036,2.42465 v 4.66432 c 0.288929,2.19651 2.594551,3.08785 5.041036,1.98024 v 11.64632 l -7.720459,-6.96857 H 16.687354 v 6.96857 l -7.0310959,4.8612 v 36.80551 l 7.0310959,4.66534 v 7.00216 h 23.078177 l 7.668266,-7.00216 h 2.031401 c 10e-6,11.09147 9.741263,8.27996 12.756327,4.77025 -1.372109,-0.67828 -2.776707,-1.26737 -3.808036,-2.87372 1.900205,0.47239 3.53999,0.0692 5.423958,-1.72806 -5.706721,-0.48465 -5.483035,-7.27809 -5.724715,-23.12159 l 7.063651,-1.23661 c 0.411797,-3.34522 1.667959,-6.78688 4.122746,-9.57255 -0.814109,3.80713 -0.916008,6.91612 -0.04806,9.07542 9.061695,-0.84896 18.024333,-0.81728 26.429395,0 z m 70.267555,-15.8467 c -1.76158,2.20421 -6.53236,1.61938 -6.59725,-2.06177 l 0.0199,-9.19844 c 0.0236,-3.74763 4.70964,-4.77271 6.61762,-2.14841 l -6.60346,-11.62747 c 1.04,2.99498 -2.04607,6.62986 -5.39995,4.52484 l -7.88074,-4.64165 c -2.86369,-1.78596 -1.34826,-6.28515 1.74423,-6.64036 l -13.39347,-0.20704 -2.48523,-14.45045 c -2.21711,1.57217 -4.84353,1.11917 -5.33162,-1.50484 l -1.0594,-6.16676 c -0.38937,-2.45355 1.654,-4.03184 4.512,-3.21198 l -1.77565,-10.28352 0.0601,-5.05076 13.62728,-9.74647 7.62107,0.13548 -0.20316,11.32562 5.72853,3.76731 13.63738,-23.11495 0.87881,0.52395 6.37238,-4.3801 24.60029,14.50161 -0.94691,7.60267 0.84551,0.51819 -13.62865,23.09773 6.07371,3.19782 9.78027,-5.63166 3.7985,6.60831 -1.95323,16.62718 -4.43729,2.46737 0.12575,36.84701 -8.04792,4.68188 -22.80353,-7.7899 z m 0.41857,-172.664793 c -0.62144,3.400387 -1.99045,6.310684 -3.98839,8.809282 2.14212,3.146824 3.43329,6.616592 3.98839,10.365775 0.5551,-3.749183 1.84627,-7.218951 3.98839,-10.365775 -1.99794,-2.498598 -3.36695,-5.408895 -3.98839,-8.809282 z m 0,28.600323 c -0.5551,3.74919 -1.84627,7.21895 -3.98839,10.36577 1.99794,2.4986 3.36695,5.40942 3.98839,8.8098 0.62144,-3.40038 1.99045,-6.3112 3.98839,-8.8098 -2.14212,-3.14682 -3.43329,-6.61658 -3.98839,-10.36577 z M 145.3472,45.677315 c -0.56115,0.0091 -1.11968,0.1167 -1.66501,0.332796 2.76749,3.777962 -4.62063,13.710592 -11.07995,16.268775 v 13.603821 c -2.29342,-1.201385 -4.99052,-0.347167 -4.98987,2.312003 v 4.368726 c -0.009,2.684046 2.45835,3.387931 4.98987,2.41484 v 20.651454 c -2.35665,-1.2197 -5.01119,-0.18648 -4.98987,2.38848 v 4.41007 c 0.0515,2.72744 3.1363,3.29372 4.98987,2.29857 v 13.56609 c 6.31848,2.57281 13.77659,12.08756 11.07633,16.26671 2.95393,1.27544 6.25734,-1.06185 8.19898,-4.26485 6.89375,0.92175 12.81739,-4.25053 14.48904,-13.06897 1.67165,8.81844 7.59528,13.99072 14.48904,13.06897 1.94164,3.203 5.24505,5.54029 8.19898,4.26485 -2.70026,-4.17915 4.75837,-13.6939 11.07684,-16.26671 v -13.56609 c 1.85357,0.99515 4.93786,0.42887 4.98936,-2.29857 v -4.41007 c 0.0213,-2.57496 -2.63271,-3.60818 -4.98936,-2.38848 V 84.978276 c 2.53152,0.973091 4.99836,0.269206 4.98936,-2.41484 V 78.19471 c 6.5e-4,-2.65917 -2.69594,-3.513388 -4.98936,-2.312003 V 62.278886 c -6.45931,-2.558183 -13.84744,-12.490813 -11.07994,-16.268775 -2.90847,-1.152514 -6.19785,0.77971 -8.2057,4.297929 -8.80603,-1.265834 -13.41834,7.058402 -14.47922,13.068453 -1.06088,-6.010051 -5.67319,-14.334287 -14.47922,-13.068453 -1.63138,-2.858553 -4.10854,-4.670028 -6.54017,-4.630725 z"
       sodipodi:nodetypes="ccccccccccccccccccccccsccsccccccsccsccccccscccccccccccccccccccccccccccccccsccccccccsccccccccccccccccccccccccccccccccsscccccccccccccccccccccccccccccccccccccccccccccsccccccccccccccccccccccccccccccs" /><path
       id="path10746"
       style="display:inline;fill:none;stroke:#ef0085;stroke-width:0.15;stroke-linecap:butt;stroke-linejoin:miter;stroke-dasharray:none;stroke-opacity:1"
       d="m 164.64535,182.5256 -0.9828,0.61674 -5.32438,-3.16983 0.063,-1.13321 m 25.24491,14.90356 -0.94895,0.61219 -5.34777,-3.17882 0.0564,-1.1174 m 2.22468,58.12379 0.0745,0.60079 0.0678,0.49772 10.40641,3.57194 0.3991,-0.37262 0.40718,-0.4386 m -173.851753,3.37038 -0.46792,0.21169 -0.55415,0.28346 v 10.99608 l 0.55415,0.27152 0.47139,0.22674 m 130.639193,-11.98949 0.46792,0.21169 0.55415,0.28346 v 10.99608 l -0.55415,0.27152 -0.47139,0.22674 m -23.53192,16.82176 0.1805,0.41572 0.31608,0.66811 h 8.99231 l 0.35428,-0.66811 0.2039,-0.41479 m -93.594326,-9.3e-4 -0.180507,0.41572 -0.316076,0.66811 h -8.992304 l -0.35428,-0.66811 -0.203902,-0.41479 m 7.623539,-45.38225 -0.25384,-0.53461 -0.23907,-0.48405 h -9.089597 l -0.20261,0.48405 -0.20978,0.52228 m 98.449233,0.0123 0.25384,-0.53461 0.23907,-0.48405 h 9.0896 l 0.20261,0.48405 0.20978,0.52228 M 78.005058,81.133547 l 2.168633,2.18585 h 4.618096 l 2.130555,-2.18585 m 5.383622,78.416433 0.282575,-0.54331 0.234755,-0.48148 h 9.035616 l 0.25786,0.48148 0.25674,0.50901 m -39.782209,0.0343 0.282575,-0.54331 0.234754,-0.48148 h 8.98398 l 0.257858,0.48148 0.256743,0.50901 m 19.380966,-16.37249 a 9.4692945,9.4984798 0 0 1 -9.469294,9.49848 9.4692945,9.4984798 0 0 1 -9.469295,-9.49848 9.4692945,9.4984798 0 0 1 9.469295,-9.49848 9.4692945,9.4984798 0 0 1 9.469294,9.49848 z"
       inkscape:label="CutLines" /></g></svg>
