# Blender 3.6.0
# www.blender.org
mtllib generic_npc.mtl
o StaticNPC
v -0.090765 0.318907 -0.056979
v -0.090803 0.318916 0.053397
v -0.090978 0.191766 0.054343
v -0.090859 0.191695 -0.056979
v 0.087386 0.318937 -0.056979
v 0.087386 0.318937 0.054256
v 0.087337 0.191624 0.054256
v 0.087337 0.191624 -0.052279
v -0.090978 0.191766 -0.052279
v 0.085892 0.280434 -0.052279
v 0.049784 0.317459 -0.052279
v -0.059257 0.317546 -0.052279
v -0.089569 0.272404 -0.052279
v 0.087386 0.191565 -0.056979
v 0.086672 0.183278 -0.056979
v 0.083811 0.176244 -0.056979
v 0.079067 0.171697 -0.056979
v 0.072021 0.169850 -0.056979
v 0.065184 0.170845 -0.056979
v 0.054441 0.176884 -0.056979
v 0.052697 0.178731 -0.056979
v 0.060667 0.183331 -0.056979
v 0.063224 0.186620 -0.056979
v 0.054813 0.186894 -0.056979
v 0.048219 0.191280 -0.056979
v 0.052760 0.192239 -0.056979
v -0.001336 0.261247 -0.056979
v 0.058884 0.197755 -0.056979
v 0.061037 0.203751 -0.056979
v 0.063930 0.254870 -0.056979
v 0.045292 0.258227 -0.056979
v 0.037083 0.281217 -0.056979
v 0.034122 0.284643 -0.056979
v 0.035165 0.262065 -0.056979
v 0.034256 0.259529 -0.056979
v -0.037337 0.259564 -0.056979
v -0.038548 0.263607 -0.056979
v -0.037236 0.284575 -0.056979
v -0.039692 0.281766 -0.056979
v -0.048406 0.258296 -0.056979
v -0.067482 0.254802 -0.056979
v -0.064757 0.204402 -0.056979
v -0.061426 0.196282 -0.056979
v -0.056581 0.192308 -0.056979
v -0.051972 0.191280 -0.056979
v -0.058567 0.186757 -0.056979
v -0.062133 0.185935 -0.056979
v -0.066809 0.186689 -0.056979
v -0.065329 0.184393 -0.056979
v -0.056380 0.178603 -0.056979
v -0.059643 0.175451 -0.056979
v -0.069702 0.170551 -0.056979
v -0.080031 0.170620 -0.056979
v -0.084640 0.173224 -0.056979
v -0.088072 0.177472 -0.056979
v -0.022816 0.191706 -0.022562
v -0.059148 0.087531 0.045376
v -0.059177 0.087528 -0.044939
v -0.059323 0.087528 0.045454
v 0.055133 0.087446 0.045634
v 0.055207 0.087446 -0.044733
v 0.055069 0.087586 0.045475
v -0.022731 0.192003 0.022723
v 0.018557 0.191945 0.022458
v 0.018631 0.191749 -0.022409
v 0.084386 0.098757 0.056408
v 0.105663 0.107389 0.056176
v 0.116886 0.120008 0.055836
v 0.119712 0.127489 0.055635
v 0.119913 0.138710 0.055333
v 0.128391 0.145739 0.055144
v 0.131500 0.151083 0.055000
v 0.132590 0.155768 0.054874
v 0.132388 0.158892 0.054790
v 0.131500 0.161235 0.054727
v 0.129360 0.159961 0.054761
v 0.121528 0.160043 0.054759
v 0.108569 0.166579 0.054583
v 0.088584 0.188940 0.053981
v 0.087656 0.191653 0.053908
v -0.090588 0.191653 0.053908
v -0.092728 0.186597 0.054044
v -0.105849 0.171183 0.054459
v -0.125672 0.159715 0.054767
v -0.132899 0.160126 0.054756
v -0.134433 0.161153 0.054729
v -0.135482 0.158523 0.054799
v -0.135442 0.154577 0.054906
v -0.133908 0.149685 0.055037
v -0.126681 0.141012 0.055271
v -0.122846 0.138587 0.055336
v -0.123411 0.134148 0.055456
v -0.121271 0.122803 0.055761
v -0.112430 0.110554 0.056091
v -0.100035 0.102415 0.056310
v -0.087560 0.098798 0.056407
v 0.063091 0.098762 0.056408
v 0.022047 0.101267 0.056341
v 0.039313 0.109850 0.056110
v 0.046871 0.104404 0.056256
v -0.066319 0.098793 0.056407
v -0.014044 0.098780 0.056408
v -0.048829 0.105002 0.056240
v -0.042192 0.109835 0.056110
v -0.034005 0.104755 0.056247
v -0.051879 0.000180 -0.044587
v -0.012381 0.000157 -0.044589
v 0.006756 0.000233 -0.044208
v 0.046285 0.000255 -0.044207
v -0.012349 0.000108 0.012629
v 0.046313 0.000092 0.012920
v -0.051847 0.000068 0.012697
v 0.006784 0.000120 0.012977
v -0.051905 0.002906 0.009065
v 0.006726 0.002847 0.009508
v -0.012407 0.002866 0.009103
v 0.046256 0.002828 0.009547
v -0.051857 0.087446 0.009462
v -0.051871 0.087446 0.008938
v -0.012373 0.087446 0.008970
v -0.012359 0.087446 0.009403
v 0.006775 0.087446 0.010716
v 0.006760 0.087446 0.009829
v 0.046289 0.087446 0.009863
v 0.046304 0.087446 0.010652
v 0.084386 0.098757 0.056408
v 0.105663 0.107389 0.056176
v 0.116886 0.120008 0.055836
v 0.119712 0.127489 0.055635
v 0.119913 0.138710 0.055333
v 0.128391 0.145739 0.055144
v 0.131500 0.151083 0.055000
v 0.132590 0.155768 0.054874
v 0.132388 0.158892 0.054790
v 0.131500 0.161235 0.054727
v 0.129360 0.159961 0.054761
v 0.121528 0.160043 0.054759
v 0.108569 0.166579 0.054583
v 0.088584 0.188940 0.053981
v 0.087656 0.191653 0.053908
v -0.090588 0.191653 0.053908
v -0.092728 0.186597 0.054044
v -0.105849 0.171183 0.054459
v -0.125672 0.159715 0.054767
v -0.132899 0.160126 0.054756
v -0.134433 0.161153 0.054729
v -0.135482 0.158523 0.054799
v -0.135442 0.154577 0.054906
v -0.133908 0.149685 0.055037
v -0.126681 0.141012 0.055271
v -0.122846 0.138587 0.055336
v -0.123411 0.134148 0.055456
v -0.121271 0.122803 0.055761
v -0.112430 0.110554 0.056091
v -0.100035 0.102415 0.056310
v -0.087560 0.098798 0.056407
v 0.063091 0.098762 0.056408
v 0.022047 0.101267 0.056341
v 0.039313 0.109850 0.056110
v 0.046871 0.104404 0.056256
v -0.066319 0.098793 0.056407
v -0.014044 0.098780 0.056408
v -0.048829 0.105002 0.056240
v -0.042192 0.109835 0.056110
v -0.034005 0.104755 0.056247
vn -0.0008 -1.0000 -0.0000
vn -0.0001 1.0000 -0.0000
vn -0.0000 -0.0000 -1.0000
vn -1.0000 0.0014 -0.0011
vn 0.0005 0.0074 1.0000
vn 1.0000 -0.0000 0.0004
vn 0.0010 0.0038 -1.0000
vn 0.0015 0.0260 0.9997
vn 0.9437 0.3307 0.0009
vn -0.0007 -1.0000 -0.0000
vn -0.0000 0.0269 0.9996
vn 0.0010 -1.0000 -0.0020
vn -0.0007 -1.0000 -0.0020
vn 0.0017 0.0370 0.9993
vn -0.0006 0.9989 -0.0478
vn 0.0006 0.9987 -0.0504
vn -0.9443 0.3291 -0.0004
vn 0.0019 0.2099 -0.9777
vn -0.0009 0.2151 0.9766
vn 0.0010 -0.0016 -1.0000
vn -0.0000 -0.0269 -0.9996
vn -0.0002 1.0000 -0.0001
vn -1.0000 0.0007 -0.0003
vn -0.0048 -0.0000 1.0000
vn 1.0000 -0.0004 -0.0000
vn 0.0008 0.0037 -1.0000
vn 0.0016 0.0259 0.9997
vn 0.9439 0.3303 0.0001
vn -0.0006 -1.0000 -0.0009
vn 0.0006 -1.0000 -0.0029
vn 0.0015 0.0369 0.9993
vn 0.0005 0.9988 -0.0486
vn 0.0011 0.9987 -0.0508
vn -0.9442 0.3295 0.0003
vn 0.0034 0.2089 -0.9779
vn 0.0066 0.2097 0.9777
vn 0.0008 -0.0015 -1.0000
vt 0.235482 0.464676
vt 0.550121 0.571211
vt 0.235482 0.571211
vt 0.235482 0.197469
vt 0.550121 0.308791
vt 0.235482 0.308704
vt 0.494320 0.726838
vt 0.238153 0.680012
vt 0.706086 0.197469
vt 0.549998 0.041584
vt 0.706086 0.041584
vt 0.550121 0.464589
vt 0.079269 0.041497
vt 0.235482 0.041425
vt 0.329467 0.155456
vt 0.392033 0.126794
vt 0.455379 0.155372
vt 0.090528 0.541645
vt 0.029840 0.440412
vt 0.090528 0.440401
vt 0.029840 0.235014
vt 0.090528 0.329412
vt 0.029840 0.329450
vt 0.758996 0.262420
vt 0.953237 0.262841
vt 0.890026 0.341198
vt 0.803759 0.482159
vt 0.738790 0.404308
vt 0.723202 0.527737
vt 0.773006 0.730050
vt 0.693425 0.846424
vt 0.182237 0.386633
vt 0.121598 0.329394
vt 0.182237 0.329432
vt 0.090528 0.386648
vt 0.182237 0.235014
vt 0.029840 0.386672
vt 0.121598 0.440340
vt 0.121598 0.386608
vt 0.704108 0.285183
vt 0.611076 0.405880
vt 0.640137 0.285737
vt 0.790460 0.223384
vt 0.953831 0.138680
vt 0.182237 0.440352
vt 0.121598 0.541645
vt 0.688011 0.846172
vt 0.549874 0.197469
vt 0.547745 0.670003
vt 0.301917 0.726838
vt 0.079269 0.197469
vt 0.236742 0.031273
vt 0.241789 0.022656
vt 0.250160 0.017085
vt 0.262593 0.014822
vt 0.274657 0.016041
vt 0.293614 0.023439
vt 0.296691 0.025702
vt 0.282628 0.031338
vt 0.545079 0.024160
vt 0.530891 0.015765
vt 0.539024 0.018955
vt 0.494916 0.021684
vt 0.512666 0.015681
vt 0.504949 0.032639
vt 0.489158 0.025545
vt 0.493016 0.035535
vt 0.499309 0.034528
vt 0.507561 0.035451
vt 0.278116 0.035367
vt 0.292958 0.035703
vt 0.304593 0.041076
vt 0.296579 0.042251
vt 0.481381 0.041076
vt 0.489514 0.042335
vt 0.285774 0.049009
vt 0.281975 0.056354
vt 0.498062 0.047204
vt 0.503939 0.057152
vt 0.276870 0.118980
vt 0.309758 0.123093
vt 0.324243 0.151258
vt 0.459713 0.151930
vt 0.475088 0.123178
vt 0.508748 0.118896
vt 0.327626 0.127794
vt 0.329229 0.124688
vt 0.455557 0.124731
vt 0.457694 0.129684
vt 0.029840 0.541645
vt 0.090528 0.235014
vt 0.955071 0.418987
vt 0.631234 0.790363
vt 0.631234 0.567982
vt 0.639997 0.565313
vt 0.666711 0.548943
vt 0.635935 0.791521
vt 0.686586 0.524212
vt 0.674690 0.816455
vt 0.685874 0.515195
vt 0.684093 0.513281
vt 0.688652 0.511972
vt 0.686016 0.832622
vt 0.695491 0.512022
vt 0.703968 0.513936
vt 0.718999 0.522952
vt 0.730896 0.527032
vt 0.750557 0.529702
vt 0.771786 0.540733
vt 0.785891 0.556196
vt 0.792231 0.571760
vt 0.792222 0.598262
vt 0.781409 0.620082
vt 0.773031 0.628362
vt 0.781836 0.638577
vt 0.792201 0.663480
vt 0.787881 0.708508
vt 0.782444 0.739479
vt 0.792169 0.759715
vt 0.792160 0.786284
vt 0.777271 0.812829
vt 0.755401 0.826830
vt 0.742436 0.830356
vt 0.722988 0.830608
vt 0.710807 0.841185
vt 0.701546 0.845064
vt 0.683950 0.845063
vt 0.686159 0.842394
vt 0.121598 0.235014
vt 0.790103 0.178262
vt 0.182237 0.541645
s 0
usemtl AudienceNPC
f 7/1/1 9/2/1 8/3/1
f 5/4/2 2/5/2 6/6/2
f 9/2/3 12/7/3 10/8/3
f 2/9/4 4/10/4 3/11/4
f 7/1/5 2/5/5 3/12/5
f 5/4/6 7/13/6 14/14/6
f 33/15/3 27/16/3 38/17/3
f 123/18/7 117/19/7 115/20/7
f 125/21/8 113/22/8 111/23/8
f 65/24/9 62/25/9 61/26/9
f 61/26/10 59/27/10 58/28/10
f 91/29/11 99/30/11 73/31/11
f 106/32/12 110/33/12 112/34/12
f 108/35/13 111/23/13 113/22/13
f 110/33/14 118/36/14 112/34/14
f 108/35/15 117/19/15 109/37/15
f 106/32/16 116/38/16 107/39/16
f 56/40/17 57/41/17 63/42/17
f 58/28/18 65/24/18 61/26/18
f 64/43/19 57/44/19 62/25/19
f 114/45/20 120/46/20 116/38/20
f 134/47/21 159/30/21 151/29/21
f 7/1/1 3/12/1 9/2/1
f 5/4/22 1/48/22 2/5/22
f 10/8/3 8/3/3 9/2/3
f 9/2/3 13/49/3 12/7/3
f 12/7/3 11/50/3 10/8/3
f 2/9/23 1/48/23 4/10/23
f 7/1/24 6/6/24 2/5/24
f 5/4/25 6/51/25 7/13/25
f 5/4/3 14/14/3 15/52/3
f 15/52/3 16/53/3 17/54/3
f 17/54/3 18/55/3 19/56/3
f 19/56/3 20/57/3 21/58/3
f 19/56/3 21/58/3 22/59/3
f 15/52/3 17/54/3 19/56/3
f 55/60/3 4/10/3 1/48/3
f 53/61/3 54/62/3 55/60/3
f 51/63/3 52/64/3 53/61/3
f 49/65/3 50/66/3 51/63/3
f 46/67/3 47/68/3 48/69/3
f 48/69/3 49/65/3 51/63/3
f 51/63/3 53/61/3 55/60/3
f 5/4/3 15/52/3 19/56/3
f 19/56/3 22/59/3 23/70/3
f 23/70/3 24/71/3 25/72/3
f 23/70/3 25/72/3 26/73/3
f 5/4/3 19/56/3 23/70/3
f 48/69/3 51/63/3 55/60/3
f 45/74/3 46/67/3 48/69/3
f 44/75/3 45/74/3 48/69/3
f 48/69/3 55/60/3 1/48/3
f 23/70/3 26/73/3 28/76/3
f 23/70/3 28/76/3 29/77/3
f 43/78/3 44/75/3 48/69/3
f 42/79/3 43/78/3 48/69/3
f 5/4/3 23/70/3 29/77/3
f 30/80/3 31/81/3 32/82/3
f 5/4/3 29/77/3 30/80/3
f 42/79/3 48/69/3 1/48/3
f 39/83/3 40/84/3 41/85/3
f 41/85/3 42/79/3 1/48/3
f 5/4/3 30/80/3 32/82/3
f 33/15/3 34/86/3 35/87/3
f 5/4/3 32/82/3 33/15/3
f 39/83/3 41/85/3 1/48/3
f 36/88/3 37/89/3 38/17/3
f 38/17/3 39/83/3 1/48/3
f 1/48/3 5/4/3 33/15/3
f 33/15/3 35/87/3 27/16/3
f 27/16/3 36/88/3 38/17/3
f 38/17/3 1/48/3 33/15/3
f 123/18/26 124/90/26 117/19/26
f 125/21/27 122/91/27 113/22/27
f 65/24/28 64/43/28 62/25/28
f 61/26/10 60/92/10 59/27/10
f 80/93/11 81/94/11 82/95/11
f 80/93/11 82/95/11 83/96/11
f 79/97/11 80/93/11 83/96/11
f 79/97/11 83/96/11 84/98/11
f 78/99/11 79/97/11 84/98/11
f 85/100/11 86/101/11 87/102/11
f 77/103/11 78/99/11 84/98/11
f 84/98/11 85/100/11 87/102/11
f 87/102/11 88/104/11 89/105/11
f 89/105/11 90/106/11 91/29/11
f 91/29/11 92/107/11 93/108/11
f 93/108/11 94/109/11 95/110/11
f 95/110/11 96/111/11 101/112/11
f 101/112/11 103/113/11 104/114/11
f 104/114/11 105/115/11 102/116/11
f 102/116/11 98/117/11 99/30/11
f 99/30/11 100/118/11 97/119/11
f 97/119/11 66/120/11 67/121/11
f 67/121/11 68/122/11 69/123/11
f 70/124/11 71/125/11 72/126/11
f 67/121/11 69/123/11 70/124/11
f 99/30/11 97/119/11 67/121/11
f 104/114/11 102/116/11 99/30/11
f 95/110/11 101/112/11 104/114/11
f 91/29/11 93/108/11 95/110/11
f 87/102/11 89/105/11 91/29/11
f 77/103/11 84/98/11 87/102/11
f 74/47/11 75/127/11 76/128/11
f 76/128/11 77/103/11 87/102/11
f 91/29/11 95/110/11 104/114/11
f 76/128/11 87/102/11 91/29/11
f 73/31/11 74/47/11 76/128/11
f 70/124/11 72/126/11 73/31/11
f 99/30/11 67/121/11 70/124/11
f 91/29/11 104/114/11 99/30/11
f 73/31/11 76/128/11 91/29/11
f 99/30/11 70/124/11 73/31/11
f 106/32/29 107/39/29 110/33/29
f 108/35/30 109/37/30 111/23/30
f 110/33/31 121/129/31 118/36/31
f 108/35/32 115/20/32 117/19/32
f 106/32/33 114/45/33 116/38/33
f 56/40/34 58/28/34 57/41/34
f 58/28/35 56/40/35 65/24/35
f 64/43/36 63/130/36 57/44/36
f 114/45/37 119/131/37 120/46/37
f 142/95/21 141/94/21 140/93/21
f 142/95/21 140/93/21 139/97/21
f 143/96/21 142/95/21 139/97/21
f 143/96/21 139/97/21 138/99/21
f 144/98/21 143/96/21 138/99/21
f 144/98/21 138/99/21 137/103/21
f 147/102/21 146/101/21 145/100/21
f 144/98/21 137/103/21 136/128/21
f 147/102/21 145/100/21 144/98/21
f 149/105/21 148/104/21 147/102/21
f 151/29/21 150/106/21 149/105/21
f 153/108/21 152/107/21 151/29/21
f 155/110/21 154/109/21 153/108/21
f 161/112/21 156/111/21 155/110/21
f 164/114/21 163/113/21 161/112/21
f 162/116/21 165/115/21 164/114/21
f 159/30/21 158/117/21 162/116/21
f 157/119/21 160/118/21 159/30/21
f 127/121/21 126/120/21 157/119/21
f 129/123/21 128/122/21 127/121/21
f 132/126/21 131/125/21 130/124/21
f 130/124/21 129/123/21 127/121/21
f 127/121/21 157/119/21 159/30/21
f 159/30/21 162/116/21 164/114/21
f 164/114/21 161/112/21 155/110/21
f 155/110/21 153/108/21 151/29/21
f 151/29/21 149/105/21 147/102/21
f 147/102/21 144/98/21 136/128/21
f 136/128/21 135/127/21 134/47/21
f 134/47/21 133/31/21 132/126/21
f 130/124/21 127/121/21 159/30/21
f 134/47/21 132/126/21 130/124/21
f 147/102/21 136/128/21 134/47/21
f 164/114/21 155/110/21 151/29/21
f 151/29/21 147/102/21 134/47/21
f 134/47/21 130/124/21 159/30/21
f 159/30/21 164/114/21 151/29/21
