# Blender 3.6.0
# www.blender.org
mtllib microphone.mtl
o Cube
v -0.004061 -0.034164 0.004061
v -0.007526 0.034164 0.007526
v -0.004061 -0.034164 -0.004061
v -0.007526 0.034164 -0.007526
v 0.004061 -0.034164 0.004061
v 0.007526 0.034164 0.007526
v 0.004061 -0.034164 -0.004061
v 0.007526 0.034164 -0.007526
v -0.014027 0.034164 0.014027
v -0.014027 0.034164 -0.014027
v 0.014027 0.034164 -0.014027
v 0.014027 0.034164 0.014027
v -0.014027 0.063773 0.014027
v -0.014027 0.063773 -0.014027
v 0.014027 0.063773 -0.014027
v 0.014027 0.063773 0.014027
v -0.005725 -0.034164 -0.005725
v -0.005725 -0.034164 0.005725
v 0.005725 -0.034164 -0.005725
v 0.005725 -0.034164 0.005725
v -0.002895 -0.044356 -0.002895
v -0.002895 -0.044356 0.002895
v 0.002895 -0.044356 -0.002895
v 0.002895 -0.044356 0.002895
vn -0.9997 -0.0264 -0.0000
vn -0.0000 -0.0264 -0.9997
vn 0.9997 -0.0264 -0.0000
vn -0.0000 -0.0264 0.9997
vn -0.9935 -0.1137 -0.0000
vn -0.0000 -1.0000 -0.0000
vn 1.0000 -0.0000 -0.0000
vn -0.0000 1.0000 -0.0000
vn -1.0000 -0.0000 -0.0000
vn -0.0000 -0.0000 1.0000
vn -0.0000 -0.0000 -1.0000
vn -0.0000 -0.1137 0.9935
vn -0.0000 -0.1137 -0.9935
vn 0.9935 -0.1137 -0.0000
vt 0.292952 0.251866
vt 0.531762 0.000127
vt 0.585778 0.054142
vt 0.334038 0.292952
vt 0.585778 0.531762
vt 0.531762 0.585778
vt 0.292952 0.334038
vt 0.054142 0.585778
vt 0.000127 0.531762
vt 0.251866 0.292952
vt 0.000127 0.054142
vt 0.054142 0.000127
vt 0.615174 0.123668
vt 0.586031 0.094524
vt 0.627028 0.061897
vt 0.647801 0.082671
vt 0.523603 0.619023
vt 0.447214 0.619023
vt 0.414222 0.586031
vt 0.556595 0.586031
vt 0.100800 0.999873
vt 0.000127 0.899200
vt 0.106375 0.792952
vt 0.207048 0.893625
vt 0.523603 0.695412
vt 0.556595 0.728404
vt 0.447214 0.695412
vt 0.414222 0.728404
vt 0.207048 0.692279
vt 0.307721 0.792952
vt 0.313296 0.586031
vt 0.413969 0.686704
vt 0.413969 0.899200
vt 0.313296 0.999873
vt 0.000127 0.686704
vt 0.100799 0.586031
vt 0.322096 0.292952
vt 0.292952 0.263808
vt 0.292952 0.322096
vt 0.263808 0.292952
vt 0.647801 0.041123
vt 0.668575 0.061897
vt 0.709572 0.094524
vt 0.680428 0.123668
vt 0.586031 0.029270
vt 0.615174 0.000127
vt 0.680428 0.000127
vt 0.709572 0.029270
s 0
usemtl Material.001
f 18/1/1 2/2/1 4/3/1 17/4/1
f 17/4/2 4/5/2 8/6/2 19/7/2
f 19/7/3 8/8/3 6/9/3 20/10/3
f 20/10/4 6/11/4 2/12/4 18/1/4
f 1/13/5 3/14/5 21/15/5 22/16/5
f 3/37/6 1/38/6 18/1/6 17/4/6
f 7/39/6 3/37/6 17/4/6 19/7/6
f 5/40/6 7/39/6 19/7/6 20/10/6
f 1/38/6 5/40/6 20/10/6 18/1/6
f 21/15/6 23/41/6 24/42/6 22/16/6
f 5/43/12 1/44/12 22/16/12 24/42/12
f 3/45/13 7/46/13 23/41/13 21/15/13
f 7/47/14 5/48/14 24/42/14 23/41/14
usemtl Material.002
f 8/17/6 4/18/6 10/19/6 11/20/6
f 12/21/7 11/22/7 15/23/7 16/24/7
f 6/25/6 8/17/6 11/20/6 12/26/6
f 4/18/6 2/27/6 9/28/6 10/19/6
f 2/27/6 6/25/6 12/26/6 9/28/6
f 15/23/8 14/29/8 13/30/8 16/24/8
f 10/31/9 9/32/9 13/30/9 14/29/9
f 9/33/10 12/34/10 16/24/10 13/30/10
f 11/35/11 10/36/11 14/29/11 15/23/11
