<?xml version="1.0" encoding="UTF-8" standalone="no"?>
<!-- Created with Inkscape (http://www.inkscape.org/) -->

<svg
   width="210mm"
   height="297mm"
   viewBox="0 0 210 297"
   version="1.1"
   id="svg5"
   xml:space="preserve"
   sodipodi:docname="NanahiraPapercraft.svg"
   inkscape:version="1.2.2 (b0a8486541, 2022-12-01)"
   inkscape:export-filename="NanahiraPapercraft.png"
   inkscape:export-xdpi="300"
   inkscape:export-ydpi="300"
   xmlns:inkscape="http://www.inkscape.org/namespaces/inkscape"
   xmlns:sodipodi="http://sodipodi.sourceforge.net/DTD/sodipodi-0.dtd"
   xmlns:xlink="http://www.w3.org/1999/xlink"
   xmlns="http://www.w3.org/2000/svg"
   xmlns:svg="http://www.w3.org/2000/svg"><sodipodi:namedview
     id="namedview7"
     pagecolor="#ffffff"
     bordercolor="#666666"
     borderopacity="1.0"
     inkscape:showpageshadow="2"
     inkscape:pageopacity="1"
     inkscape:pagecheckerboard="0"
     inkscape:deskcolor="#d1d1d1"
     inkscape:document-units="mm"
     showgrid="false"
     inkscape:zoom="0.70710678"
     inkscape:cx="343.65389"
     inkscape:cy="584.77731"
     inkscape:window-width="1920"
     inkscape:window-height="1022"
     inkscape:window-x="0"
     inkscape:window-y="0"
     inkscape:window-maximized="1"
     inkscape:current-layer="svg5"
     showguides="true"><sodipodi:guide
       position="25.536425,145.58806"
       orientation="1,0"
       id="guide8879"
       inkscape:locked="false" /><sodipodi:guide
       position="38.277977,146.15951"
       orientation="1,0"
       id="guide8881"
       inkscape:locked="false" /></sodipodi:namedview><defs
     id="defs2" /><g
     inkscape:label="Layer 1"
     inkscape:groupmode="layer"
     id="layer1"
     style="display:inline"><image
       width="210"
       height="297.00415"
       preserveAspectRatio="none"
       xlink:href="textures/NanahiraPapercraft.jpg"
       id="image312"
       x="0"
       y="0"
       sodipodi:insensitive="true"
       style="display:inline;opacity:1" /></g><g
     inkscape:groupmode="layer"
     id="layer3"
     inkscape:label="Fill"
     style="display:inline"><path
       style="display:inline;fill:#fef2dc;fill-opacity:1;stroke:none;stroke-width:0.264583px;stroke-linecap:butt;stroke-linejoin:miter;stroke-opacity:1"
       d="m 117.47681,159.00667 0.0363,-31.65067 C 117.84131,87.824153 117.169,82.781968 103.88332,79.180025 H 60.71018 C 49.639996,82.303012 47.56708,83.907894 47.442839,127.4242 l 0.01074,31.58247 z"
       id="path11760"
       sodipodi:nodetypes="ccccccc"
       inkscape:label="Face" /><path
       id="ellipse12093"
       style="display:inline;opacity:1;fill:#f6b960;stroke:none;stroke-width:0.15;paint-order:markers fill stroke;stop-color:#000000;stop-opacity:1"
       d="m 71.973783,112.30673 a 4.3664374,8.7328749 0 0 1 -4.366437,8.73288 4.3664374,8.7328749 0 0 1 -4.366438,-8.73288 4.3664374,8.7328749 0 0 1 4.366438,-8.73287 4.3664374,8.7328749 0 0 1 4.366437,8.73287 z m 29.636007,0 a 4.3664374,8.7328749 0 0 1 -4.366435,8.73288 4.3664374,8.7328749 0 0 1 -4.366438,-8.73288 4.3664374,8.7328749 0 0 1 4.366438,-8.73287 4.3664374,8.7328749 0 0 1 4.366435,8.73287 z"
       inkscape:label="Eyes" /><path
       id="ellipse12097"
       style="display:inline;opacity:1;fill:#f6bfc2;fill-opacity:1;stroke:none;stroke-width:0.15;paint-order:markers fill stroke;stop-color:#000000;stop-opacity:1"
       d="m 62.953187,120.91177 a 3.7924469,2.3438611 0 0 1 -3.792447,2.34386 3.7924469,2.3438611 0 0 1 -3.792447,-2.34386 3.7924469,2.3438611 0 0 1 3.792447,-2.34386 3.7924469,2.3438611 0 0 1 3.792447,2.34386 z m 46.461233,0 a 3.7924469,2.3438611 0 0 1 -3.79245,2.34386 3.7924469,2.3438611 0 0 1 -3.79245,-2.34386 3.7924469,2.3438611 0 0 1 3.79245,-2.34386 3.7924469,2.3438611 0 0 1 3.79245,2.34386 z"
       inkscape:label="Blush" /><path
       id="path12594"
       style="font-variation-settings:normal;display:inline;opacity:1;fill:#f6b960;fill-opacity:1;stroke:none;stroke-width:0.405329;stroke-linecap:round;stroke-linejoin:miter;stroke-miterlimit:4;stroke-dasharray:none;stroke-dashoffset:0;stroke-opacity:1;paint-order:markers fill stroke;stop-color:#000000;stop-opacity:1"
       d="m 76.768441,119.07645 c -1.66e-4,2.87682 2.483577,5.20902 5.547465,5.20899 3.063888,3e-5 5.547631,-2.33217 5.547465,-5.20899 -2.82e-4,-0.50854 -1.186463,-0.50854 -1.184941,0 1.9e-4,2.60462 -1.952968,4.71627 -4.362524,4.71651 -2.409758,6e-5 -4.363231,-2.11167 -4.363041,-4.71651 -0.0014,-0.50854 -1.182848,-0.50854 -1.184424,0 z"
       sodipodi:nodetypes="ccccccc"
       inkscape:label="Mouth" /><path
       style="display:inline;opacity:1;fill:#b09e86;fill-opacity:1;stroke:none;stroke-width:0.264583px;stroke-linecap:butt;stroke-linejoin:miter;stroke-opacity:1"
       d="m 47.453579,159.00667 h 15.420297 l 0.234754,-0.48148 h 8.98398 l 0.257858,0.48148 h 20.238069 l 0.234756,-0.48148 h 9.035617 l 0.25786,0.48148 h 15.36004 l 0.0566,77.43534 32.68819,-0.10908 0.0176,50.31478 -32.8741,-8.8e-4 C 116.34216,297 105.73023,297 99.3984,288.60829 l 2.13334,-0.91591 -5.056929,-4.41017 c 8.334859,-0.70039 8.162529,-3.43742 8.310459,-19.94991 -16.666017,-2.93007 -28.078157,-2.01781 -44.605462,-0.009 0.04653,20.34626 0.58199,19.25739 8.23764,20.02482 -1.708159,1.5253 -3.499785,3.45455 -5.090258,4.41029 l 2.350939,0.82401 C 59.443215,297 48.541706,296.4621 47.553081,286.68246 l -32.874045,0.003 -0.02481,-50.35706 32.674659,0.0508 z"
       id="path10939"
       inkscape:label="HairBlock"
       sodipodi:nodetypes="ccccccccccccccccccccccccccc" /><path
       id="path11514"
       style="display:inline;fill:#79c4ad;fill-opacity:1;stroke:none;stroke-width:0.264583px;stroke-linecap:butt;stroke-linejoin:miter;stroke-opacity:1"
       d="M 117.52038,218.62172 H 47.357503 l -0.01135,7.04459 h 70.179377 z m -80.790557,17.78476 v 23.51441 c -5.176137,-5.31958 -7.225757,-15.58922 -7.110177,-23.53814 z m 91.451217,0 v 23.51441 c 5.17614,-5.31958 7.22576,-15.58922 7.11018,-23.53814 z"
       inkscape:label="HairBowRing" /><path
       id="path11670"
       style="display:inline;fill:#fffce9;fill-opacity:1;stroke:none;stroke-width:0.264583px;stroke-linecap:butt;stroke-linejoin:miter;stroke-opacity:1"
       d="m 49.464965,268.81582 c -9.211334,-4.54486 -7.825664,9.80023 0,12.44293 z m 66.001895,0 c 9.21134,-4.54486 7.82567,9.80023 0,12.44293 z"
       inkscape:label="Ears" /><rect
       style="font-variation-settings:normal;display:inline;opacity:1;fill:#fef2dc;fill-opacity:1;stroke:none;stroke-width:0.4;stroke-linecap:round;stroke-linejoin:miter;stroke-miterlimit:4;stroke-dasharray:none;stroke-dashoffset:0;stroke-opacity:1;paint-order:markers fill stroke;stop-color:#000000;stop-opacity:1"
       id="rect13585"
       width="16.794884"
       height="110.81242"
       x="12.707299"
       y="23.222742"
       inkscape:label="Hands" /><rect
       style="font-variation-settings:normal;display:inline;opacity:1;fill:#fae9a3;fill-opacity:1;stroke:none;stroke-width:0.363697;stroke-linecap:round;stroke-linejoin:miter;stroke-miterlimit:4;stroke-dasharray:none;stroke-dashoffset:0;stroke-opacity:1;paint-order:markers fill stroke;stop-color:#000000;stop-opacity:1"
       id="rect13659"
       width="16.794884"
       height="91.610954"
       x="12.707299"
       y="32.802513"
       inkscape:label="Sleeves" /><path
       id="path14566"
       style="color:#000000;fill:#d3af7b;stroke-linecap:round;-inkscape-stroke:none;paint-order:markers fill stroke"
       d="m 14.775326,32.877514 v 0.19895 5.371247 h 3.140893 3.175517 3.176033 3.140377 v -5.570197 h -3.140377 -3.176033 -3.175517 z m 0.400492,0.39842 h 2.54093 v 4.771287 h -2.54093 z m 2.941422,0 h 2.775542 v 4.771287 H 18.11724 Z m 3.173967,0 h 2.775024 v 4.771287 h -2.775024 z m 3.175517,0 h 2.54093 v 4.771287 h -2.54093 z m -9.691398,85.567326 v 0.19895 5.37125 h 3.140893 3.175517 3.176033 3.140377 v -5.5702 h -3.140377 -3.176033 -3.175517 z m 0.400492,0.39842 h 2.54093 v 4.77129 h -2.54093 z m 2.941422,0 h 2.775542 v 4.77129 H 18.11724 Z m 3.173967,0 h 2.775024 v 4.77129 h -2.775024 z m 3.175517,0 h 2.54093 v 4.77129 h -2.54093 z"
       inkscape:label="SleevesDecor" /><path
       id="rect15505"
       style="display:inline;opacity:1;vector-effect:none;fill:#fef2dc;stroke-width:0.4;stroke-linecap:round;paint-order:markers fill stroke;stop-color:#000000;stop-opacity:1"
       inkscape:label="Legs"
       d="M 4.2849927,149.22681 H 20.998805 v 65.88057 H 4.2849927 Z m 19.2429633,0 h 16.713812 v 65.88057 H 23.527956 Z" /><path
       id="rect15507"
       style="display:inline;opacity:1;vector-effect:none;fill:#8c7764;stroke-width:0.218764;stroke-linecap:round;paint-order:markers fill stroke;stop-color:#000000;stop-opacity:1"
       inkscape:label="ShoeSoles"
       d="M 4.2849927,179.52573 H 20.998805 v 19.7056 H 4.2849927 Z m 19.2429633,0 h 16.713812 v 19.7056 H 23.527956 Z" /><path
       id="rect15509"
       style="display:inline;opacity:1;vector-effect:none;fill:#796655;stroke-width:0.11943;stroke-linecap:round;paint-order:markers fill stroke;stop-color:#000000;stop-opacity:1"
       inkscape:label="ShoeHeels"
       d="M 4.2849927,193.35822 H 20.998805 v 5.87311 H 4.2849927 Z m 19.2429633,0 h 16.713812 v 5.87311 H 23.527956 Z" /><path
       id="rect15511"
       style="display:inline;opacity:1;vector-effect:none;fill:#ffffff;stroke-width:0.210337;stroke-linecap:round;paint-order:markers fill stroke;stop-color:#000000;stop-opacity:1"
       inkscape:label="Socks"
       d="M 4.2849927,161.30902 H 20.998805 v 18.21671 H 4.2849927 Z m 19.2429633,0 h 16.713812 v 18.21671 H 23.527956 Z" /><path
       id="path15513"
       style="opacity:1;fill:#ef7e80;fill-opacity:1;stroke:none;stroke-width:0.264583px;stroke-linecap:butt;stroke-linejoin:miter;stroke-opacity:1"
       inkscape:label="Shoes"
       d="m 6.3001807,166.20174 v 1.52084 h 5.6316973 v 9.80612 C 8.6436227,177.11629 6.6237257,175.3871 6.3001807,171.897 h -1.963705 v 10.29085 h 1.963705 c 1.987715,-2.96401 11.9183353,-2.40711 12.7346233,0 h 1.964221 V 171.897 h -1.964221 c -0.323546,3.4901 -2.343442,5.21929 -5.631698,5.6317 v -9.80612 h 5.631698 v -1.52084 z m 19.2429633,0 v 1.52084 h 5.631697 v 9.80612 c -3.288255,-0.41241 -5.308152,-2.1416 -5.631697,-5.6317 h -1.963705 v 10.29085 h 1.963705 c 1.987715,-2.96401 11.918335,-2.40711 12.734623,0 h 1.964221 V 171.897 h -1.964221 c -0.323546,3.4901 -2.343442,5.21929 -5.631698,5.6317 v -9.80612 h 5.631698 v -1.52084 z" /><path
       id="path15586"
       style="display:inline;fill:#b09e86;fill-opacity:1;stroke:none;stroke-width:0.264583px;stroke-linecap:butt;stroke-linejoin:miter;stroke-opacity:1"
       d="m 145.22834,43.676921 c -1.53636,0.0311 -3.07171,0.56843 -4.60643,1.514636 3.60518,3.406482 -0.42203,12.208267 -10.04848,15.626436 v 34.11213 0.72347 34.112127 c 9.62645,3.41818 13.65366,12.21945 10.04848,15.62592 4.09258,2.52322 8.19057,2.13883 12.29692,-2.99878 7.10093,-0.0312 10.64764,-3.99661 13.44776,-8.78861 2.80012,4.792 6.34682,8.75742 13.44776,8.78861 4.10635,5.13761 8.20434,5.522 12.29692,2.99878 -3.60519,-3.40647 0.42203,-12.20774 10.04848,-15.62592 v -34.112127 -0.72347 -34.11213 c -9.62645,-3.418169 -13.65367,-12.219954 -10.04848,-15.626436 -1.53472,-0.946206 -3.07007,-1.483531 -4.60644,-1.514636 -2.5606,-0.05184 -5.12401,1.302407 -7.69048,4.513419 -7.10094,0.03119 -10.64764,3.997121 -13.44776,8.789128 -2.80012,-4.792007 -6.34683,-8.757938 -13.44776,-8.789128 -2.56648,-3.211012 -5.12988,-4.565259 -7.69049,-4.513419 z m 21.13825,33.97312 1.58492,2.644799 -1.58492,2.879411 -1.58492,-2.879411 z m 0,29.758909 1.58492,2.87993 -1.58492,2.6448 -1.58492,-2.6448 z"
       inkscape:label="HairExtension" /><path
       id="path15652"
       style="display:inline;opacity:1;fill:#a18f79;fill-opacity:1;stroke:none;stroke-width:0.264583px;stroke-linecap:butt;stroke-linejoin:miter;stroke-opacity:1"
       d="m 145.43298,43.8335 c -1.56341,-0.02586 -3.16677,0.480434 -4.81107,1.527556 l 3.05666,0.83199 c 2.47925,0.762768 3.79829,2.712551 4.22971,5.830135 1.29528,-0.741698 2.61602,-1.283209 3.96927,-1.565279 l 1.04128,-2.098063 c -2.3857,-2.961625 -4.88015,-4.483229 -7.48585,-4.526339 z m 41.86722,0 c -2.6057,0.04311 -5.10016,1.564714 -7.48585,4.526339 l 1.04128,2.098063 c 1.35325,0.28207 2.67399,0.823581 3.96926,1.565279 0.43142,-3.117584 1.75047,-5.067367 4.22972,-5.830135 l 3.05666,-0.83199 c -1.6443,-1.047122 -3.24767,-1.55342 -4.81107,-1.527556 z m -23.72052,9.163782 -1.15239,1.731677 c 3.44051,11.554592 -1.31577,21.999318 -8.17107,25.630477 13.09068,6.036694 12.96429,23.499884 0,30.033824 6.8553,3.63117 11.61158,14.07588 8.17107,25.63048 l 1.15239,1.73219 c 1.12621,-1.28423 1.99231,-2.70002 2.78691,-4.15168 0.7946,1.45166 1.6607,2.86745 2.78691,4.15168 l 1.15238,-1.73219 c -3.4405,-11.5546 1.31578,-21.99931 8.17108,-25.63048 -12.9643,-6.53394 -13.09069,-23.99713 0,-30.033824 -6.8553,-3.631159 -11.61158,-14.075885 -8.17108,-25.630477 l -1.15238,-1.731677 c -1.12621,1.284225 -1.99231,2.69951 -2.78691,4.151168 -0.7946,-1.451658 -1.6607,-2.866943 -2.78691,-4.151168 z m 2.78691,24.821741 1.58492,2.644799 -1.58492,2.879928 -1.58492,-2.879928 z m 0,29.589927 1.58492,2.87993 -1.58492,2.6448 -1.58492,-2.6448 z m -18.45831,31.32057 c -0.43142,3.11757 -1.75046,5.06736 -4.22971,5.83013 l -3.05666,0.83199 c 4.38478,2.79233 8.47981,1.73981 12.29692,-2.99878 l -1.04128,-2.09806 c -1.35325,-0.28207 -2.67399,-0.82358 -3.96927,-1.56528 z m 36.91661,0 c -1.29527,0.7417 -2.61601,1.28321 -3.96926,1.56528 l -1.04128,2.09806 c 3.81711,4.73859 7.91214,5.79111 12.29692,2.99878 l -3.05666,-0.83199 c -2.47925,-0.76277 -3.7983,-2.71256 -4.22972,-5.83013 z"
       inkscape:label="HairExtensionDark" /><path
       style="display:inline;opacity:1;fill:#79c4ad;fill-opacity:1;stroke:none;stroke-width:0.264583px;stroke-linecap:butt;stroke-linejoin:miter;stroke-opacity:1"
       d="m 166.38871,246.39733 35.91032,12.17492 -0.004,-40.22811 -13.32886,-23.05648 -2.05875,0.38068 -3.26155,-1.92548 -0.94895,0.61219 -5.34778,-3.17882 0.0564,-1.1174 -12.76041,-7.53323 -0.9828,0.61674 -5.32438,-3.16983 0.063,-1.13321 -3.25236,-1.92006 -0.67041,-2.03569 -28.54273,-0.42417 6.81392,39.65938 12.33208,0.15561 13.91674,8.13069 2.88102,5.0156 c -2.64223,0.39821 -4.06886,2.15921 -4.47836,5.06049 l -0.0246,9.65004 c 0.9688,4.58772 3.50923,6.73102 9.01246,4.26614 z"
       id="path16239"
       sodipodi:nodetypes="ccccccccccccccccccccccc"
       inkscape:label="Skirt" /><rect
       style="display:inline;font-variation-settings:normal;opacity:1;fill:#b09e86;fill-opacity:1;stroke:none;stroke-width:1.5;stroke-linecap:round;stroke-linejoin:miter;stroke-miterlimit:4;stroke-dasharray:none;stroke-dashoffset:0;stroke-opacity:1;paint-order:normal;stop-color:#000000;stop-opacity:1"
       id="rect20445"
       width="14.592293"
       height="3.0367303"
       x="234.58864"
       y="81.800339"
       ry="0"
       inkscape:transform-center-x="-0.93094676"
       inkscape:transform-center-y="3.712505"
       transform="rotate(30.452301)"
       inkscape:label="Belt" /><path
       id="rect20443"
       style="display:inline;color:#000000;opacity:1;fill:#fae8a2;fill-opacity:1;stroke-linecap:round;-inkscape-stroke:none"
       d="m 238.61699,81.404359 3.4e-4,0.349285 -2.3e-4,3.480592 6.44901,5e-5 3.3e-4,-3.83014 z m 0.70119,0.699152 5.04691,1.18e-4 -1.2e-4,0.867489 -1.59297,-0.0034 -0.3507,-2.8e-5 -0.002,0.698727 0.35041,0.0026 1.59483,0.0035 1e-5,0.862616 -5.04665,3.27e-4 z"
       transform="rotate(30.452301)"
       inkscape:label="BeltClip" /><path
       style="display:inline;opacity:1;fill:#fae9a3;fill-opacity:1;stroke:none;stroke-width:0.264583px;stroke-linecap:butt;stroke-linejoin:miter;stroke-opacity:1"
       d="m 166.38871,246.39733 27.1762,9.21373 0.0663,-34.42421 -12.11519,-20.93428 -7.15656,-4.23986 -12.42483,5.72406 -1.02594,-13.6389 -7.19074,-4.24181 -26.24047,-0.42131 5.27185,30.68401 12.33208,0.15561 13.91674,8.13069 2.88102,5.0156 c -2.64223,0.39821 -4.06886,2.15921 -4.47836,5.06049 l -0.0246,9.65004 c 0.9688,4.58772 3.50923,6.73102 9.01246,4.26614 z"
       id="path16685"
       sodipodi:nodetypes="cccccccccccccccc"
       inkscape:label="Shirt" /><path
       style="display:inline;opacity:1;fill:#ffffff;fill-opacity:1;stroke:none;stroke-width:0.264583px;stroke-linecap:butt;stroke-linejoin:miter;stroke-opacity:1"
       d="m 161.3734,194.27577 7.34756,4.33457 -6.78633,3.12643 z m -1.98857,24.79405 c 1.03168,3.69674 -2.27276,6.21616 -5.39995,4.52484 l -7.88074,-4.64165 c -2.84714,-2.08791 -1.30496,-6.27538 1.74423,-6.64036 3.58944,-6.58584 6.80124,-3.36831 7.25412,0.77313 4.15851,-1.75525 8.23742,0.003 4.28234,5.98404 z"
       id="path16825"
       sodipodi:nodetypes="cccccccccc"
       inkscape:label="Undershirt" /><path
       style="display:inline;fill:#67645f;fill-opacity:1;stroke:none;stroke-width:0.264583px;stroke-linecap:butt;stroke-linejoin:miter;stroke-opacity:1"
       d="m 155.44025,212.58741 5.24296,-6.01113 0.35283,2.2122 2.07409,0.72237 -6.80049,3.95861 3.62898,-0.44461 -0.0444,4.00712 -5.35,-2.0314 -0.84478,-0.45999 -4.31014,-3.68724 3.47964,-2.03954 1.37388,3.49727 0.1715,-7.97988 1.67206,1.52084 1.99806,-0.76339 z"
       id="path16997"
       inkscape:label="Tie" /><path
       id="path17272"
       style="color:#000000;fill:#d3ae7c;-inkscape-stroke:none"
       d="M 129.28306 183.26375 L 130.29489 189.13109 L 152.5018 189.6799 L 161.42374 194.91989 L 161.10334 187.98026 L 161.00981 187.926 L 153.77356 183.65649 L 129.28306 183.26375 z M 129.75952 183.67199 L 133.40529 183.73039 L 133.34793 188.8076 L 130.63285 188.74042 L 129.75952 183.67199 z M 133.80527 183.73659 L 136.56944 183.78103 L 136.53999 188.88615 L 133.74791 188.81742 L 133.80527 183.73659 z M 136.96942 183.78775 L 139.79198 183.83271 L 139.76821 188.96573 L 136.94048 188.89596 L 136.96942 183.78775 z M 140.19248 183.83891 L 142.92409 183.88283 L 142.94425 189.04376 L 140.16871 188.97555 L 140.19248 183.83891 z M 143.32458 183.88955 L 146.11305 183.93399 L 146.11305 189.12179 L 143.34526 189.05358 L 143.32458 183.88955 z M 146.51354 183.94019 L 149.31078 183.98515 L 149.31078 189.20034 L 146.51354 189.13161 L 146.51354 183.94019 z M 149.71076 183.99187 L 153.26971 184.04871 L 152.19226 189.27113 L 149.71076 189.21016 L 149.71076 183.99187 z M 154.03918 184.27764 L 156.9098 185.97056 L 154.34613 190.29846 L 152.96431 189.48663 L 154.03918 184.27764 z M 157.25397 186.17365 L 159.66002 187.59268 L 157.09584 191.91438 L 154.69185 190.50155 L 157.25397 186.17365 z M 160.00419 187.79577 L 160.71474 188.21487 L 160.98811 194.20107 L 157.44 192.11644 L 160.00419 187.79577 z M 174.36713 195.78495 L 168.04866 198.91809 L 176.98248 204.12914 L 188.12909 223.06442 L 187.95132 251.77533 L 193.7675 253.77366 L 193.76957 253.49409 L 193.8321 221.13276 L 181.6623 200.10717 L 174.36713 195.78495 z M 174.35163 196.24022 L 175.0472 196.65208 L 172.46182 201.02907 L 168.89047 198.94703 L 174.35163 196.24022 z M 175.39188 196.85672 L 177.7845 198.2742 L 175.20998 202.63156 L 172.80651 201.23061 L 175.39188 196.85672 z M 178.12918 198.47832 L 180.99102 200.17434 L 176.92408 203.63098 L 175.55569 202.8331 L 178.12918 198.47832 z M 181.56463 200.73607 L 183.27357 203.68886 L 178.70795 206.27061 L 177.48994 204.20097 L 181.56463 200.73607 z M 183.47407 204.03509 L 184.87295 206.45251 L 180.32491 209.01722 L 178.91156 206.61633 L 183.47407 204.03509 z M 185.07346 206.79823 L 186.47647 209.22185 L 181.94445 211.76899 L 180.528 209.36241 L 185.07346 206.79823 z M 186.67594 209.56757 L 188.06862 211.97414 L 183.5552 214.50577 L 182.14806 212.11522 L 186.67594 209.56757 z M 188.26965 212.32089 L 189.65457 214.71351 L 185.19128 217.28596 L 183.75829 214.85097 L 188.26965 212.32089 z M 189.85508 215.06026 L 191.25758 217.48388 L 186.78757 219.99742 L 185.39385 217.62961 L 189.85508 215.06026 z M 191.45756 217.82908 L 193.23523 220.90073 L 188.31512 222.59313 L 186.99065 220.34314 L 191.45756 217.82908 z M 193.43057 221.67794 L 193.4254 224.43385 L 188.52028 224.43385 L 188.52699 223.36518 L 193.43057 221.67794 z M 188.51769 224.83382 L 193.42437 224.83382 L 193.4192 227.6042 L 188.50064 227.57732 L 188.51769 224.83382 z M 188.49806 227.97782 L 193.41817 228.00262 L 193.41248 230.81537 L 188.48049 230.79005 L 188.49806 227.97782 z M 188.4779 231.19054 L 193.41197 231.21586 L 193.4068 233.98313 L 188.46085 233.95781 L 188.4779 231.19054 z M 188.45826 234.3583 L 193.40577 234.38363 L 193.4006 237.14005 L 188.44121 237.12144 L 188.45826 234.3583 z M 188.43863 237.52194 L 193.39956 237.54054 L 193.39388 240.38274 L 188.42106 240.32642 L 188.43863 237.52194 z M 188.41847 240.72691 L 193.39336 240.78324 L 193.3882 243.53346 L 188.40142 243.50142 L 188.41847 240.72691 z M 188.39884 243.90139 L 193.38716 243.9324 L 193.38148 246.75031 L 188.38127 246.71259 L 188.39884 243.90139 z M 188.37868 247.11308 L 193.38096 247.15081 L 193.37579 249.90878 L 188.36163 249.87674 L 188.37868 247.11308 z M 188.35905 250.2762 L 193.37476 250.30772 L 193.36908 253.21297 L 188.35181 251.49008 L 188.35905 250.2762 z "
       inkscape:label="ShirtDecor" /><path
       id="path18609"
       style="font-variation-settings:normal;opacity:1;vector-effect:none;fill:#f29e9e;fill-opacity:1;stroke:none;stroke-width:0.42062;stroke-linecap:butt;stroke-linejoin:miter;stroke-miterlimit:4;stroke-dasharray:none;stroke-dashoffset:0;stroke-opacity:1;-inkscape-stroke:none;paint-order:normal;stop-color:#000000;stop-opacity:1"
       d="M 160.84341 202.15665 A 1.4639287 1.4639287 0 0 0 159.37942 203.62065 A 1.4639287 1.4639287 0 0 0 159.43265 204.00822 L 159.00011 204.74409 A 0.40000001 0.40000001 0 0 0 159.14274 205.2929 A 0.40000001 0.40000001 0 0 0 159.68948 205.15027 L 159.92099 204.75649 A 1.4639287 1.4639287 0 0 0 160.2543 204.95958 L 160.01969 205.35956 A 0.40000001 0.40000001 0 0 0 160.16232 205.90629 A 0.40000001 0.40000001 0 0 0 160.71112 205.76367 L 161.12608 205.05622 A 1.4639287 1.4639287 0 0 0 162.30741 203.62065 A 1.4639287 1.4639287 0 0 0 160.84341 202.15665 z "
       inkscape:label="Bunny" /><path
       id="path19937"
       style="color:#000000;fill:#f29e9e;stroke-linecap:round;-inkscape-stroke:none;fill-opacity:1"
       d="M 155.30525 194.47702 C 154.86751 194.48643 154.44654 194.71818 154.21074 195.12659 L 152.43152 198.20754 C 152.13836 198.7153 152.22569 199.33471 152.60567 199.74078 L 151.49205 201.705 A 0.75 0.75 0 0 0 151.77368 202.72664 A 0.75 0.75 0 0 0 152.79687 202.44552 L 153.87691 200.54021 L 154.56369 200.93657 L 153.47435 202.85739 A 0.75 0.75 0 0 0 153.75599 203.87903 A 0.75 0.75 0 0 0 154.77918 203.59791 L 155.87111 201.67141 C 156.45651 201.89471 157.13021 201.66784 157.45396 201.1071 L 159.23266 198.02616 C 159.59197 197.40381 159.38009 196.61348 158.75775 196.25417 L 155.98273 194.65168 C 155.7688 194.52817 155.53454 194.47209 155.30525 194.47702 z "
       inkscape:label="BunnyPhoneCase" /><rect
       style="font-variation-settings:normal;opacity:1;fill:#ffffff;fill-opacity:1;stroke:none;stroke-width:1.5;stroke-linecap:round;stroke-linejoin:miter;stroke-miterlimit:4;stroke-dasharray:none;stroke-dashoffset:0;stroke-opacity:1;paint-order:normal;stop-color:#000000;stop-opacity:1"
       id="rect20006"
       width="4.6888013"
       height="5.4234395"
       x="231.67311"
       y="90.805824"
       ry="1.0920126"
       transform="rotate(30)"
       inkscape:label="PhoneDisplay" /><path
       style="fill:#d3af7b;stroke:none;stroke-width:0.264583px;stroke-linecap:butt;stroke-linejoin:miter;stroke-opacity:1;opacity:1;fill-opacity:1"
       d="m 153.04008,196.04471 c -0.7369,1.59843 5.05879,4.90234 5.92486,3.53811 1.28293,-1.69814 1.78613,-4.31076 -0.49554,-5.68688 -2.28167,-1.37612 -4.48993,-0.12259 -5.42932,2.14877 z"
       id="path20093"
       sodipodi:nodetypes="cczc"
       inkscape:label="Pocket" /></g><g
     inkscape:groupmode="layer"
     id="layer2"
     inkscape:label="Lines"
     style="display:inline"><path
       id="path8943"
       style="font-variation-settings:normal;opacity:0.498521;vector-effect:none;fill:none;fill-opacity:1;stroke:#000000;stroke-width:0.15;stroke-linecap:butt;stroke-linejoin:miter;stroke-miterlimit:4;stroke-dasharray:0.6, 0.6;stroke-dashoffset:0;stroke-opacity:1;-inkscape-stroke:none;stop-color:#000000;stop-opacity:1"
       inkscape:label="FoldingLines"
       d="m 25.536425,182.1876 h 12.741552 m -31.9847257,0 H 19.034804 M 14.709846,124.41346 H 27.455262 M 14.709846,85.891009 H 27.455262 M 14.709846,71.31006 H 27.455262 M 14.709846,32.877514 H 27.455262 M 166.36664,63.376677 v 8.064256 m 0,19.270553 v 9.329824 m 0,19.1755 v 8.00881 M 77.382819,41.13159 H 87.569817 M 115.46686,205.2957 H 49.464965 m 52.651805,-46.28903 h 13.35009 m -43.116392,0 h 20.238071 m -43.123574,0 H 62.873876 M 115.46686,127.38009 H 49.464965 m 66.001885,16.89637 v -9.0289 M 16.665757,255.66323 v -17.35568 m 14.18477,46.33165 h -14.18477 v -17.4701 m 30.768039,17.47036 -6.920609,-2.6e-4 m 8.951778,-46.33165 v 46.33165 m 66.001895,0 v -46.33165 m 8.94907,46.33165 -6.91819,2.6e-4 m 30.74652,-17.46448 v 17.46422 h -14.16014 m 2.4255,-46.33165 h 11.73464 v 17.31637 M 16.665757,238.30755 h 11.81929 m 9.490736,0 h 11.489182 66.001895 11.51148 M 49.465198,217.59189 v 9.06921 m 66.001652,-9.06921 v 9.06921 M 74.18772,81.133549 h 3.817338 z m 12.734623,0 h 3.821472 z M 49.465198,135.24756 v 9.0289 z m 0,41.54733 v 10.98848 z m 66.001652,0 v 10.98848 z M 6.2932513,166.20151 H 19.034804 m 6.501621,0 H 38.277977 M 6.2932513,199.23134 H 19.034804 m 6.501621,0 h 12.741552 m 162.017363,56.55303 -9.71709,-3.30392 m -10.87331,-3.69704 -13.75692,-4.6775 m -6.56319,-25.03609 27.5228,-23.40148 m -31.75881,-18.7491 3.25236,1.92006 m 6.24417,3.6863 12.76041,7.53323 m 6.24032,3.68403 3.26155,1.92548 13.26196,23.26902 -34.1813,11.75993 m -18.13992,-18.38464 7.30045,-35.39341 -26.83382,-0.43118 m 1.77565,10.28352 1.87902,10.88358 m 41.07337,-40.1957 22.30281,13.14648" /><path
       id="path8895"
       style="font-variation-settings:normal;display:inline;opacity:1;vector-effect:none;fill:none;fill-opacity:1;stroke:#000000;stroke-width:0.2;stroke-linecap:butt;stroke-linejoin:miter;stroke-miterlimit:4;stroke-dasharray:none;stroke-dashoffset:0;stroke-opacity:1;-inkscape-stroke:none;stop-color:#000000;stop-opacity:1"
       inkscape:label="Outline"
       d="m 19.034804,151.26107 h -1.947385 c 0.623019,-1.52162 0.979308,-4.92553 -2.117263,-5.01686 H 12.25326 c -3.1706399,0.10842 -2.9405719,3.43104 -2.217316,5.01686 H 6.2932514 v 61.85306 h 3.7604596 c -1.2725229,2.42736 -0.08988,4.90544 2.27464,4.98434 h 2.52282 c 2.310909,0.0745 3.354584,-2.47857 2.270964,-4.98434 h 1.912669 z m 6.501621,0 h 1.947385 c -0.623019,-1.52162 -0.979308,-4.92553 2.117263,-5.01686 h 2.716896 c 3.170639,0.10842 2.940571,3.43104 2.217315,5.01686 h 3.742693 v 61.85306 h -3.76046 c 1.272523,2.42736 0.08988,4.90544 -2.274639,4.98434 h -2.52282 c -2.310909,0.0745 -3.354584,-2.47857 -2.270964,-4.98434 h -1.912669 z m -10.826579,-18.4579 3.864278,-5.31436 2.503514,5.26969 2.513839,-5.29294 3.863785,5.2864 V 24.438173 l -3.863785,5.2864 -2.513839,-5.29294 -2.503514,5.26969 -3.864278,-5.31436 z M 46.717045,3.824056 c -0.976889,7.814305 2.985572,18.016641 6.958748,23.31899 3.973186,5.302349 12.68147,9.38664 23.735503,9.45162 v 9.048026 c -11.054033,0.06498 -19.762317,4.148754 -23.735503,9.451103 -3.973176,5.302347 -7.935637,15.504685 -6.958748,23.31899 3.353887,-0.670086 11.598715,-6.077238 13.437423,-10.222115 9.724496,-1.465802 18.162182,-9.148511 20.4618,-18.116724 1.098599,0.402491 2.602815,0.436637 3.738268,3e-6 2.299625,8.968213 10.737302,16.650922 20.461794,18.116724 1.83872,4.144877 10.08354,9.552029 13.43742,10.222115 0.97689,-7.814305 -2.98556,-18.016643 -6.95874,-23.31899 -3.97319,-5.302349 -12.681463,-9.386119 -23.735502,-9.451103 v -9.048026 c 11.054039,-0.06498 19.762312,-4.149271 23.735502,-9.45162 3.97317,-5.302349 7.93563,-15.504685 6.95874,-23.31899 -3.35388,0.6700866 -11.5987,6.0772384 -13.43742,10.222115 -9.724492,1.465802 -18.162169,9.149027 -20.461794,18.11724 -1.283876,-0.450496 -2.494697,-0.444565 -3.738271,8.4e-5 C 78.31665,23.195198 69.878964,15.511973 60.154468,14.046171 58.31576,9.9012944 50.070932,4.4941426 46.717045,3.824056 Z m 48.96342,256.128554 c 0.86795,-2.1593 0.766533,-5.26829 -0.04754,-9.07542 2.454787,2.78567 3.710938,6.22733 4.122746,9.57255 l 7.063649,1.23661 c -0.24168,15.8435 -0.018,22.63694 -5.72472,23.12159 1.88397,1.79725 3.52375,2.20045 5.42396,1.72806 -1.03133,1.60635 -2.43644,2.19544 -3.80855,2.87372 3.01507,3.50971 12.75683,6.32122 12.75684,-4.77025 h 2.03089 l 7.66826,7.00216 h 23.07818 v -7.00216 l 7.0311,-4.66534 v -36.80551 l -7.0311,-4.8612 v -6.96857 H 123.1868 l -7.71995,6.96857 V 226.6611 c 2.44649,1.10761 4.75159,0.21627 5.04052,-1.98024 v -4.66432 c -0.035,-2.79143 -2.72401,-3.53549 -5.04052,-2.42465 v -29.80852 c 1.87947,1.01036 4.61342,0.81206 5.01934,-2.19935 v -6.37325 c -0.15977,-3.00374 -2.69168,-3.49461 -5.01934,-2.41588 v -32.51843 c 2.1526,0.97581 4.45492,0.74099 5.02605,-2.0593 v -4.77232 c -0.20574,-2.46783 -2.44545,-3.26504 -5.02605,-2.19728 v -7.86722 l -0.41754,-29.92479 c 0,-7.851527 -4.02098,-16.322001 -11.43031,-16.322001 H 90.743815 v -16.79329 h -2.350761 v 2.024166 H 76.538997 V 64.340259 H 74.18772 v 16.79329 H 61.312537 c -7.409327,0 -11.43031,8.470474 -11.43031,16.322001 l -0.417029,29.92479 v 7.86722 c -2.580595,-1.06776 -4.82031,-0.27055 -5.02605,2.19728 v 4.77232 c 0.571129,2.80029 2.873455,3.03511 5.02605,2.0593 v 32.51843 c -2.327655,-1.07873 -4.859562,-0.58786 -5.019332,2.41588 v 6.37325 c 0.405919,3.01141 3.139867,3.20971 5.019332,2.19935 v 29.80852 c -2.316505,-1.11084 -5.006036,-0.36678 -5.041036,2.42465 v 4.66432 c 0.288929,2.19651 2.594551,3.08785 5.041036,1.98024 v 11.64632 l -7.720459,-6.96857 H 16.687354 v 6.96857 l -7.0310959,4.8612 v 36.80551 l 7.0310959,4.66534 v 7.00216 h 23.078177 l 7.668266,-7.00216 h 2.031401 c 10e-6,11.09147 9.741263,8.27996 12.756327,4.77025 -1.372109,-0.67828 -2.776707,-1.26737 -3.808036,-2.87372 1.900205,0.47239 3.53999,0.0692 5.423958,-1.72806 -5.706721,-0.48465 -5.483035,-7.27809 -5.724715,-23.12159 l 7.063651,-1.23661 c 0.411797,-3.34522 1.667959,-6.78688 4.122746,-9.57255 -0.814109,3.80713 -0.916008,6.91612 -0.04806,9.07542 9.061695,-0.84896 18.024333,-0.81728 26.429395,0 z m 70.267555,-15.8467 c -1.76158,2.20421 -6.53236,1.61938 -6.59725,-2.06177 l 0.0199,-9.19844 c 0.0236,-3.74763 4.70964,-4.77271 6.61762,-2.14841 l -6.60346,-11.62747 c 1.04,2.99498 -2.04607,6.62986 -5.39995,4.52484 l -7.88074,-4.64165 c -2.86369,-1.78596 -1.34826,-6.28515 1.74423,-6.64036 l -13.39347,-0.20704 -2.48523,-14.45045 c -2.21711,1.57217 -4.84353,1.11917 -5.33162,-1.50484 l -1.0594,-6.16676 c -0.38937,-2.45355 1.654,-4.03184 4.512,-3.21198 l -1.77565,-10.28352 0.0601,-5.05076 13.62728,-9.74647 7.62107,0.13548 -0.20316,11.32562 5.72853,3.76731 13.63738,-23.11495 0.87881,0.52395 6.37238,-4.3801 24.60029,14.50161 -0.94691,7.60267 0.84551,0.51819 -13.62865,23.09773 6.07371,3.19782 9.78027,-5.63166 3.7985,6.60831 -1.95323,16.62718 -4.43729,2.46737 0.12575,36.84701 -8.04792,4.68188 -22.80353,-7.7899 z m 0.41857,-172.664793 c -0.62144,3.400387 -1.99045,6.310684 -3.98839,8.809282 2.14212,3.146824 3.43329,6.616592 3.98839,10.365775 0.5551,-3.749183 1.84627,-7.218951 3.98839,-10.365775 -1.99794,-2.498598 -3.36695,-5.408895 -3.98839,-8.809282 z m 0,28.600323 c -0.5551,3.74919 -1.84627,7.21895 -3.98839,10.36577 1.99794,2.4986 3.36695,5.40942 3.98839,8.8098 0.62144,-3.40038 1.99045,-6.3112 3.98839,-8.8098 -2.14212,-3.14682 -3.43329,-6.61658 -3.98839,-10.36577 z M 145.3472,45.677315 c -0.56115,0.0091 -1.11968,0.1167 -1.66501,0.332796 2.76749,3.777962 -4.62063,13.710592 -11.07995,16.268775 v 13.603821 c -2.29342,-1.201385 -4.99052,-0.347167 -4.98987,2.312003 v 4.368726 c -0.009,2.684046 2.45835,3.387931 4.98987,2.41484 v 20.651454 c -2.35665,-1.2197 -5.01119,-0.18648 -4.98987,2.38848 v 4.41007 c 0.0515,2.72744 3.1363,3.29372 4.98987,2.29857 v 13.56609 c 6.31848,2.57281 13.77659,12.08756 11.07633,16.26671 2.95393,1.27544 6.25734,-1.06185 8.19898,-4.26485 6.89375,0.92175 12.81739,-4.25053 14.48904,-13.06897 1.67165,8.81844 7.59528,13.99072 14.48904,13.06897 1.94164,3.203 5.24505,5.54029 8.19898,4.26485 -2.70026,-4.17915 4.75837,-13.6939 11.07684,-16.26671 v -13.56609 c 1.85357,0.99515 4.93786,0.42887 4.98936,-2.29857 v -4.41007 c 0.0213,-2.57496 -2.63271,-3.60818 -4.98936,-2.38848 V 84.978276 c 2.53152,0.973091 4.99836,0.269206 4.98936,-2.41484 V 78.19471 c 6.5e-4,-2.65917 -2.69594,-3.513388 -4.98936,-2.312003 V 62.278886 c -6.45931,-2.558183 -13.84744,-12.490813 -11.07994,-16.268775 -2.90847,-1.152514 -6.19785,0.77971 -8.2057,4.297929 -8.80603,-1.265834 -13.41834,7.058402 -14.47922,13.068453 -1.06088,-6.010051 -5.67319,-14.334287 -14.47922,-13.068453 -1.63138,-2.858553 -4.10854,-4.670028 -6.54017,-4.630725 z" /><path
       id="path10746"
       style="display:inline;fill:none;stroke:#ef0085;stroke-width:0.15;stroke-linecap:butt;stroke-linejoin:miter;stroke-dasharray:none;stroke-opacity:1"
       d="m 164.64535,182.5256 -0.9828,0.61674 -5.32438,-3.16983 0.063,-1.13321 m 25.24491,14.90356 -0.94895,0.61219 -5.34777,-3.17882 0.0564,-1.1174 m 2.22468,58.12379 0.0745,0.60079 0.0678,0.49772 10.40641,3.57194 0.3991,-0.37262 0.40718,-0.4386 m -173.851753,3.37038 -0.46792,0.21169 -0.55415,0.28346 v 10.99608 l 0.55415,0.27152 0.47139,0.22674 m 130.639193,-11.98949 0.46792,0.21169 0.55415,0.28346 v 10.99608 l -0.55415,0.27152 -0.47139,0.22674 m -23.53192,16.82176 0.1805,0.41572 0.31608,0.66811 h 8.99231 l 0.35428,-0.66811 0.2039,-0.41479 m -93.594326,-9.3e-4 -0.180507,0.41572 -0.316076,0.66811 h -8.992304 l -0.35428,-0.66811 -0.203902,-0.41479 m 7.623539,-45.38225 -0.25384,-0.53461 -0.23907,-0.48405 h -9.089597 l -0.20261,0.48405 -0.20978,0.52228 m 98.449233,0.0123 0.25384,-0.53461 0.23907,-0.48405 h 9.0896 l 0.20261,0.48405 0.20978,0.52228 M 78.005058,81.133547 l 2.168633,2.18585 h 4.618096 l 2.130555,-2.18585 m 5.383622,78.416433 0.282575,-0.54331 0.234755,-0.48148 h 9.035616 l 0.25786,0.48148 0.25674,0.50901 m -39.782209,0.0343 0.282575,-0.54331 0.234754,-0.48148 h 8.98398 l 0.257858,0.48148 0.256743,0.50901 m 19.380966,-16.37249 a 9.4692945,9.4984798 0 0 1 -9.469294,9.49848 9.4692945,9.4984798 0 0 1 -9.469295,-9.49848 9.4692945,9.4984798 0 0 1 9.469295,-9.49848 9.4692945,9.4984798 0 0 1 9.469294,9.49848 z"
       inkscape:label="CutLines" /></g></svg>
