# Blender 3.6.0
# www.blender.org
mtllib cart_2size.mtl
o Cart2Size
v -0.140625 0.050000 0.250000
v 0.240625 0.050000 0.250000
v -0.140625 0.050000 -0.250000
v 0.240625 0.050000 -0.250000
v -0.140625 0.299147 0.250000
v -0.140625 0.299147 -0.250000
v -0.140625 0.050000 0.164503
v -0.140625 0.075000 0.171202
v -0.140625 0.093301 0.189503
v -0.140625 0.100000 0.214503
v -0.140625 0.093301 0.239503
v -0.140625 0.075000 0.257804
v -0.140625 0.050000 0.264503
v -0.140625 0.025000 0.257804
v -0.140625 0.006699 0.239503
v -0.140625 0.000000 0.214503
v -0.140625 0.006699 0.189503
v -0.140625 0.025000 0.171202
v -0.140625 0.050000 -0.263425
v -0.140625 0.075000 -0.256726
v -0.140625 0.093301 -0.238425
v -0.140625 0.100000 -0.213425
v -0.140625 0.093301 -0.188425
v -0.140625 0.075000 -0.170124
v -0.140625 0.050000 -0.163425
v -0.140625 0.025000 -0.170124
v -0.140625 0.006699 -0.188425
v -0.140625 0.000000 -0.213425
v -0.140625 0.006699 -0.238425
v -0.140625 0.025000 -0.256726
v 0.240625 0.050000 0.264503
v 0.240625 0.075000 0.257804
v 0.240625 0.093301 0.239503
v 0.240625 0.100000 0.214503
v 0.240625 0.093301 0.189503
v 0.240625 0.075000 0.171202
v 0.240625 0.050000 0.164503
v 0.240625 0.025000 0.171202
v 0.240625 0.006699 0.189503
v 0.240625 0.000000 0.214503
v 0.240625 0.006699 0.239503
v 0.240625 0.025000 0.257804
v 0.240625 0.050000 -0.163425
v 0.240625 0.075000 -0.170124
v 0.240625 0.093301 -0.188425
v 0.240625 0.100000 -0.213425
v 0.240625 0.093301 -0.238425
v 0.240625 0.075000 -0.256726
v 0.240625 0.050000 -0.263425
v 0.240625 0.025000 -0.256726
v 0.240625 0.006699 -0.238425
v 0.240625 0.000000 -0.213425
v 0.240625 0.006699 -0.188425
v 0.240625 0.025000 -0.170124
v 0.154163 0.229643 -0.247013
v 0.199708 0.229643 -0.250000
v 0.154163 0.259332 -0.247013
v 0.199708 0.259332 -0.250000
v -0.097773 0.229643 -0.250000
v -0.052227 0.229643 -0.247013
v -0.097773 0.259332 -0.250000
v -0.052227 0.259332 -0.247013
v 0.129567 0.229643 -0.279681
v -0.027631 0.229643 -0.279681
v 0.129567 0.259332 -0.279681
v -0.027631 0.259332 -0.279681
v -0.130625 0.299147 0.058772
v 0.240625 0.299147 0.058772
v -0.130625 0.345000 0.058772
v 0.240625 0.401722 0.058772
v -0.140625 0.299147 -0.250000
v 0.240625 0.299147 -0.250000
v 0.240625 0.299147 0.250000
v -0.140625 0.299147 0.250000
v -0.140625 0.349147 -0.250000
v -0.140625 0.349147 0.250000
v -0.130625 0.299147 0.250000
v 0.230625 0.299147 0.240000
v -0.130625 0.345000 0.250000
v 0.230625 0.391722 0.240000
v -0.130625 0.299147 -0.250000
v 0.230625 0.299147 -0.240000
v -0.130625 0.345000 -0.250000
v 0.230625 0.391722 -0.240000
v -0.130625 0.345050 0.058772
v -0.019306 0.401722 0.058772
v -0.130625 0.345050 0.250000
v -0.019306 0.401722 0.250000
v -0.130625 0.345050 -0.250000
v -0.019306 0.401722 -0.250000
v 0.240625 0.401722 -0.250000
v 0.240625 0.299147 -0.250000
v 0.240625 0.401722 0.250000
v 0.240625 0.299147 0.250000
v 0.230625 0.391722 0.058772
v 0.230625 0.299147 0.058772
v 0.230625 0.299147 0.048772
v 0.230625 0.391722 0.048772
v -0.130625 0.060000 0.240000
v 0.230625 0.060000 0.240000
v -0.130625 0.060000 -0.240000
v 0.230625 0.060000 -0.240000
v -0.130625 0.299147 0.250000
v -0.130625 0.299147 -0.250000
v -0.150625 0.050000 0.164503
v -0.150625 0.075000 0.171202
v -0.150625 0.093301 0.189503
v -0.150625 0.100000 0.214503
v -0.150625 0.093301 0.239503
v -0.150625 0.075000 0.257804
v -0.150625 0.050000 0.264503
v -0.150625 0.025000 0.257804
v -0.150625 0.006699 0.239503
v -0.150625 0.000000 0.214503
v -0.150625 0.006699 0.189503
v -0.150625 0.025000 0.171202
v -0.130625 0.050000 -0.263425
v -0.130625 0.075000 -0.256726
v -0.130625 0.093301 -0.238425
v -0.130625 0.100000 -0.213425
v -0.130625 0.093301 -0.188425
v -0.130625 0.075000 -0.170124
v -0.130625 0.050000 -0.163425
v -0.130625 0.025000 -0.170124
v -0.130625 0.006699 -0.188425
v -0.130625 0.000000 -0.213425
v -0.130625 0.006699 -0.238425
v -0.130625 0.025000 -0.256726
v 0.250625 0.050000 0.264503
v 0.250625 0.075000 0.257804
v 0.250625 0.093301 0.239503
v 0.250625 0.100000 0.214503
v 0.250625 0.093301 0.189503
v 0.250625 0.075000 0.171202
v 0.250625 0.050000 0.164503
v 0.250625 0.025000 0.171202
v 0.250625 0.006699 0.189503
v 0.250625 0.000000 0.214503
v 0.250625 0.006699 0.239503
v 0.250625 0.025000 0.257804
v 0.250625 0.050000 -0.163425
v 0.250625 0.075000 -0.170124
v 0.250625 0.093301 -0.188425
v 0.250625 0.100000 -0.213425
v 0.250625 0.093301 -0.238425
v 0.250625 0.075000 -0.256726
v 0.250625 0.050000 -0.263425
v 0.250625 0.025000 -0.256726
v 0.250625 0.006699 -0.238425
v 0.250625 0.000000 -0.213425
v 0.250625 0.006699 -0.188425
v 0.250625 0.025000 -0.170124
v 0.149425 0.229643 -0.236681
v 0.200363 0.229643 -0.240021
v 0.149425 0.259332 -0.236681
v 0.200363 0.259332 -0.240021
v -0.098427 0.229643 -0.240021
v -0.047489 0.229643 -0.236681
v -0.098427 0.259332 -0.240021
v -0.047489 0.259332 -0.236681
v 0.124579 0.229643 -0.269681
v -0.022643 0.229643 -0.269681
v 0.124579 0.259332 -0.269681
v -0.022643 0.259332 -0.269681
v -0.130625 0.299147 0.048772
v 0.240625 0.299147 0.048772
v -0.130625 0.345000 0.048772
v 0.240625 0.401722 0.048772
v -0.130625 0.289147 -0.240000
v 0.230625 0.289147 -0.240000
v 0.230625 0.289147 0.240000
v -0.130625 0.289147 0.240000
v -0.130625 0.349147 -0.250000
v -0.130625 0.349147 0.250000
v -0.130625 0.299147 0.240000
v 0.220625 0.299147 0.240000
v -0.130625 0.345000 0.240000
v 0.220625 0.391722 0.240000
v -0.130625 0.299147 -0.240000
v 0.220625 0.299147 -0.240000
v -0.130625 0.345000 -0.240000
v 0.220625 0.391722 -0.240000
v -0.130625 0.345050 0.048772
v -0.019306 0.401722 0.048772
v -0.130625 0.345050 0.240000
v -0.019306 0.401722 0.240000
v -0.130625 0.345050 -0.240000
v -0.019306 0.401722 -0.240000
v 0.240625 0.401722 -0.240000
v 0.240625 0.299147 -0.240000
v 0.240625 0.401722 0.240000
v 0.240625 0.299147 0.240000
v 0.220625 0.391722 0.058772
v 0.220625 0.299147 0.058772
v 0.220625 0.299147 0.048772
v 0.220625 0.391722 0.048772
vn -0.0000 -1.0000 -0.0000
vn -0.0000 1.0000 -0.0000
vn -1.0000 -0.0000 -0.0000
vn 1.0000 -0.0000 -0.0000
vn -0.0654 -0.0000 -0.9979
vn 0.0654 -0.0000 -0.9979
vn -0.7989 -0.0000 -0.6015
vn 0.7989 -0.0000 -0.6015
vn -0.0000 -0.0000 -1.0000
vn -0.0000 -0.0000 1.0000
vn 0.0654 -0.0000 0.9979
vn -0.0654 -0.0000 0.9979
vn 0.7989 -0.0000 0.6015
vn -0.7989 -0.0000 0.6015
vn -0.0000 0.2588 -0.9659
vn -0.0000 0.7071 -0.7071
vn -0.0000 0.9659 -0.2588
vn -0.0000 0.9659 0.2588
vn -0.0000 0.7071 0.7071
vn -0.0000 0.2588 0.9659
vn -0.0000 -0.2588 0.9659
vn -0.0000 -0.7071 0.7071
vn -0.0000 -0.9659 0.2588
vn -0.0000 -0.9659 -0.2588
vn -0.0000 -0.7071 -0.7071
vn -0.0000 -0.2588 -0.9659
vn 0.9979 -0.0000 -0.0654
vn -0.9979 -0.0000 -0.0654
vn -0.4537 0.8912 -0.0000
vt 0.241586 0.040597
vt 0.241586 0.959403
vt 0.942176 0.959403
vt 0.942176 0.040597
vt 0.959403 1.049717
vt 0.040597 1.049717
vt 0.040597 1.141598
vt 0.959403 1.141598
vt 0.185397 0.637821
vt 0.151767 0.671452
vt 0.105826 0.683761
vt 0.059886 0.671452
vt 0.026255 0.637821
vt 0.013946 0.591881
vt 0.026255 0.545940
vt 0.059886 0.512310
vt 0.105826 0.500000
vt 0.151767 0.512310
vt 0.185397 0.545940
vt 0.197707 0.591881
vt 0.971764 0.637821
vt 0.984073 0.591881
vt 0.971764 0.545940
vt 0.938133 0.512310
vt 0.892193 0.500000
vt 0.846252 0.512310
vt 0.812622 0.545940
vt 0.800312 0.591881
vt 0.812622 0.637821
vt 0.846252 0.671452
vt 0.892193 0.683761
vt 0.938133 0.671452
vt 0.185398 0.637821
vt 0.197707 0.591881
vt 0.185398 0.545940
vt 0.866987 0.921995
vt 0.783292 0.921995
vt 0.783292 0.976552
vt 0.866987 0.976552
vt 0.404026 0.921995
vt 0.320332 0.921995
vt 0.320332 0.976552
vt 0.404026 0.976552
vt 1.013946 0.921995
vt 0.953915 0.921995
vt 0.953915 0.976552
vt 1.013946 0.976552
vt 0.738094 0.921995
vt 0.449224 0.921995
vt 0.449224 0.976552
vt 0.738094 0.976552
vt 0.259962 1.049717
vt 0.942176 1.049717
vt 0.942176 1.238210
vt 0.464524 1.238210
vt 0.259962 1.134068
vt 0.259962 1.133977
vt 0.959403 0.591881
vt 0.040597 0.591881
vt 0.241586 0.591881
vt 0.942176 0.591881
vt 0.241586 1.049717
vt 0.387500 1.049717
vt 0.959403 1.238210
vt 0.387500 1.238210
vt 0.923800 1.049717
vt 0.923800 1.238210
vt 0.040597 1.238210
s 0
usemtl Cart
f 1/1/1 3/2/1 4/3/1 2/4/1
f 74/1/2 73/4/2 72/3/2 71/2/2
f 6/5/3 5/6/3 76/7/3 75/8/3
f 8/9/4 9/10/4 10/11/4 11/12/4 12/13/4 13/14/4 14/15/4 15/16/4 16/17/4 17/18/4 18/19/4 7/20/4
f 20/21/3 19/22/3 30/23/3 29/24/3 28/25/3 27/26/3 26/27/3 25/28/3 24/29/3 23/30/3 22/31/3 21/32/3
f 32/13/3 33/12/3 34/11/3 35/10/3 36/33/3 37/34/3 38/35/3 39/18/3 40/17/3 41/16/3 42/15/3 31/14/3
f 44/29/3 45/30/3 46/31/3 47/32/3 48/21/3 49/22/3 50/23/3 51/24/3 52/25/3 53/26/3 54/27/3 43/28/3
f 56/36/5 55/37/5 57/38/5 58/39/5
f 60/40/6 59/41/6 61/42/6 62/43/6
f 64/44/7 60/45/7 62/46/7 66/47/7
f 55/45/8 63/44/8 65/47/8 57/46/8
f 63/48/9 64/49/9 66/50/9 65/51/9
f 77/52/10 94/53/10 93/54/10 88/55/10 87/56/10 79/57/10
f 3/58/3 1/59/3 74/6/3 71/5/3
f 2/59/4 4/58/4 72/5/4 73/6/4
f 1/60/10 2/61/10 73/53/10 74/62/10
f 4/61/9 3/60/9 71/62/9 72/53/9
f 81/52/9 83/57/9 89/56/9 90/55/9 91/54/9 92/53/9
f 97/63/4 82/5/4 84/64/4 98/65/4
f 67/52/10 68/66/10 70/67/10 86/55/10 85/56/10 69/57/10
f 78/6/4 96/63/4 95/65/4 80/68/4
f 99/1/2 100/4/2 102/3/2 101/2/2
f 172/1/1 169/2/1 170/3/1 171/4/1
f 104/5/4 173/8/4 174/7/4 103/6/4
f 106/9/3 105/20/3 116/19/3 115/18/3 114/17/3 113/16/3 112/15/3 111/14/3 110/13/3 109/12/3 108/11/3 107/10/3
f 118/21/4 119/32/4 120/31/4 121/30/4 122/29/4 123/28/4 124/27/4 125/26/4 126/25/4 127/24/4 128/23/4 117/22/4
f 130/13/4 129/14/4 140/15/4 139/16/4 138/17/4 137/18/4 136/35/4 135/34/4 134/33/4 133/10/4 132/11/4 131/12/4
f 142/29/4 141/28/4 152/27/4 151/26/4 150/25/4 149/24/4 148/23/4 147/22/4 146/21/4 145/32/4 144/31/4 143/30/4
f 154/36/11 156/39/11 155/38/11 153/37/11
f 158/40/12 160/43/12 159/42/12 157/41/12
f 162/44/13 164/47/13 160/46/13 158/45/13
f 153/45/14 155/46/14 163/47/14 161/44/14
f 161/48/10 163/51/10 164/50/10 162/49/10
f 175/52/9 177/57/9 185/56/9 186/55/9 191/54/9 192/53/9
f 101/58/4 169/5/4 172/6/4 99/59/4
f 100/59/3 171/6/3 170/5/3 102/58/3
f 99/60/9 172/62/9 171/53/9 100/61/9
f 102/61/10 170/53/10 169/62/10 101/60/10
f 179/52/10 190/53/10 189/54/10 188/55/10 187/56/10 181/57/10
f 195/63/3 196/65/3 182/64/3 180/5/3
f 165/52/9 167/57/9 183/56/9 184/55/9 168/67/9 166/66/9
f 176/6/3 178/68/3 193/65/3 194/63/3
usemtl CardboardSide
f 6/5/9 75/8/9 173/8/9 104/5/9
f 75/8/2 76/7/2 174/7/2 173/8/2
f 8/9/15 7/20/15 105/20/15 106/9/15
f 9/10/16 8/9/16 106/9/16 107/10/16
f 10/11/17 9/10/17 107/10/17 108/11/17
f 11/12/18 10/11/18 108/11/18 109/12/18
f 12/13/19 11/12/19 109/12/19 110/13/19
f 13/14/20 12/13/20 110/13/20 111/14/20
f 14/15/21 13/14/21 111/14/21 112/15/21
f 15/16/22 14/15/22 112/15/22 113/16/22
f 16/17/23 15/16/23 113/16/23 114/17/23
f 17/18/24 16/17/24 114/17/24 115/18/24
f 18/19/25 17/18/25 115/18/25 116/19/25
f 7/20/26 18/19/26 116/19/26 105/20/26
f 19/22/15 20/21/15 118/21/15 117/22/15
f 20/21/16 21/32/16 119/32/16 118/21/16
f 21/32/17 22/31/17 120/31/17 119/32/17
f 22/31/18 23/30/18 121/30/18 120/31/18
f 23/30/19 24/29/19 122/29/19 121/30/19
f 24/29/20 25/28/20 123/28/20 122/29/20
f 25/28/21 26/27/21 124/27/21 123/28/21
f 26/27/22 27/26/22 125/26/22 124/27/22
f 27/26/23 28/25/23 126/25/23 125/26/23
f 28/25/24 29/24/24 127/24/24 126/25/24
f 29/24/25 30/23/25 128/23/25 127/24/25
f 30/23/26 19/22/26 117/22/26 128/23/26
f 32/13/20 31/14/20 129/14/20 130/13/20
f 33/12/19 32/13/19 130/13/19 131/12/19
f 34/11/18 33/12/18 131/12/18 132/11/18
f 35/10/17 34/11/17 132/11/17 133/10/17
f 36/33/16 35/10/16 133/10/16 134/33/16
f 37/34/15 36/33/15 134/33/15 135/34/15
f 38/35/26 37/34/26 135/34/26 136/35/26
f 39/18/25 38/35/25 136/35/25 137/18/25
f 40/17/24 39/18/24 137/18/24 138/17/24
f 41/16/23 40/17/23 138/17/23 139/16/23
f 42/15/22 41/16/22 139/16/22 140/15/22
f 31/14/21 42/15/21 140/15/21 129/14/21
f 44/29/20 43/28/20 141/28/20 142/29/20
f 45/30/19 44/29/19 142/29/19 143/30/19
f 46/31/18 45/30/18 143/30/18 144/31/18
f 47/32/17 46/31/17 144/31/17 145/32/17
f 48/21/16 47/32/16 145/32/16 146/21/16
f 49/22/15 48/21/15 146/21/15 147/22/15
f 50/23/26 49/22/26 147/22/26 148/23/26
f 51/24/25 50/23/25 148/23/25 149/24/25
f 52/25/24 51/24/24 149/24/24 150/25/24
f 53/26/23 52/25/23 150/25/23 151/26/23
f 54/27/22 53/26/22 151/26/22 152/27/22
f 43/28/21 54/27/21 152/27/21 141/28/21
f 55/37/1 56/36/1 154/36/1 153/37/1
f 58/39/2 57/38/2 155/38/2 156/39/2
f 56/36/27 58/39/27 156/39/27 154/36/27
f 59/41/1 60/40/1 158/40/1 157/41/1
f 62/43/2 61/42/2 159/42/2 160/43/2
f 61/42/28 59/41/28 157/41/28 159/42/28
f 60/45/1 64/44/1 162/44/1 158/45/1
f 66/47/2 62/46/2 160/46/2 164/47/2
f 63/44/1 55/45/1 153/45/1 161/44/1
f 64/49/1 63/48/1 161/48/1 162/49/1
f 57/46/2 65/47/2 163/47/2 155/46/2
f 65/51/2 66/50/2 164/50/2 163/51/2
f 68/66/1 67/52/1 165/52/1 166/66/1
f 70/67/4 68/66/4 166/66/4 168/67/4
f 67/52/3 69/57/3 167/57/3 165/52/3
f 5/6/1 6/5/1 104/5/1 103/6/1
f 76/7/10 5/6/10 103/6/10 174/7/10
f 94/53/1 77/52/1 175/52/1 192/53/1
f 93/54/4 94/53/4 192/53/4 191/54/4
f 77/52/3 79/57/3 177/57/3 175/52/3
f 81/52/1 92/53/1 190/53/1 179/52/1
f 92/53/4 91/54/4 189/54/4 190/53/4
f 83/57/3 81/52/3 179/52/3 181/57/3
f 98/65/2 84/64/2 182/64/2 196/65/2
f 82/5/1 97/63/1 195/63/1 180/5/1
f 86/55/2 70/67/2 168/67/2 184/55/2
f 85/56/29 86/55/29 184/55/29 183/56/29
f 69/57/3 85/56/3 183/56/3 167/57/3
f 88/55/2 93/54/2 191/54/2 186/55/2
f 87/56/29 88/55/29 186/55/29 185/56/29
f 79/57/3 87/56/3 185/56/3 177/57/3
f 89/56/3 83/57/3 181/57/3 187/56/3
f 90/55/29 89/56/29 187/56/29 188/55/29
f 91/54/2 90/55/2 188/55/2 189/54/2
f 84/64/9 82/5/9 180/5/9 182/64/9
f 78/6/10 80/68/10 178/68/10 176/6/10
f 80/68/2 95/65/2 193/65/2 178/68/2
f 96/63/1 78/6/1 176/6/1 194/63/1
f 97/63/10 98/65/10 196/65/10 195/63/10
f 95/65/9 96/63/9 194/63/9 193/65/9
