# Blender 3.6.0
# www.blender.org
mtllib cart_packages.mtl
o CartPackages
v -0.140625 0.050000 0.250000
v 0.240625 0.050000 0.250000
v -0.140625 0.050000 -0.250000
v 0.240625 0.050000 -0.250000
v -0.140625 0.250000 -0.250000
v -0.140625 0.250000 0.250000
v 0.240625 0.250000 0.250000
v 0.240625 0.250000 -0.250000
v -0.140625 0.050000 0.164503
v -0.140625 0.075000 0.171202
v -0.140625 0.093301 0.189503
v -0.140625 0.100000 0.214503
v -0.140625 0.093301 0.239503
v -0.140625 0.075000 0.257804
v -0.140625 0.050000 0.264503
v -0.140625 0.025000 0.257804
v -0.140625 0.006699 0.239503
v -0.140625 0.000000 0.214503
v -0.140625 0.006699 0.189503
v -0.140625 0.025000 0.171202
v -0.140625 0.050000 -0.263425
v -0.140625 0.075000 -0.256726
v -0.140625 0.093301 -0.238425
v -0.140625 0.100000 -0.213425
v -0.140625 0.093301 -0.188425
v -0.140625 0.075000 -0.170124
v -0.140625 0.050000 -0.163425
v -0.140625 0.025000 -0.170124
v -0.140625 0.006699 -0.188425
v -0.140625 0.000000 -0.213425
v -0.140625 0.006699 -0.238425
v -0.140625 0.025000 -0.256726
v 0.240625 0.050000 0.264503
v 0.240625 0.075000 0.257804
v 0.240625 0.093301 0.239503
v 0.240625 0.100000 0.214503
v 0.240625 0.093301 0.189503
v 0.240625 0.075000 0.171202
v 0.240625 0.050000 0.164503
v 0.240625 0.025000 0.171202
v 0.240625 0.006699 0.189503
v 0.240625 0.000000 0.214503
v 0.240625 0.006699 0.239503
v 0.240625 0.025000 0.257804
v 0.240625 0.050000 -0.163425
v 0.240625 0.075000 -0.170124
v 0.240625 0.093301 -0.188425
v 0.240625 0.100000 -0.213425
v 0.240625 0.093301 -0.238425
v 0.240625 0.075000 -0.256726
v 0.240625 0.050000 -0.263425
v 0.240625 0.025000 -0.256726
v 0.240625 0.006699 -0.238425
v 0.240625 0.000000 -0.213425
v 0.240625 0.006699 -0.188425
v 0.240625 0.025000 -0.170124
v 0.154163 0.154643 -0.247013
v 0.199708 0.154643 -0.250000
v 0.154163 0.184332 -0.247013
v 0.199708 0.184332 -0.250000
v -0.097773 0.154643 -0.250000
v -0.052227 0.154643 -0.247013
v -0.097773 0.184332 -0.250000
v -0.052227 0.184332 -0.247013
v 0.129567 0.154643 -0.279681
v -0.027631 0.154643 -0.279681
v 0.129567 0.184332 -0.279681
v -0.027631 0.184332 -0.279681
v -0.130625 0.060000 -0.083333
v 0.230625 0.060000 -0.083333
v -0.130625 0.250000 -0.083333
v 0.230625 0.250000 -0.083333
v -0.013542 0.250000 -0.083333
v 0.113542 0.250000 -0.083333
v 0.113542 0.250000 0.083333
v -0.013542 0.250000 0.083333
v 0.230625 0.250000 0.083333
v -0.130625 0.250000 0.083333
v 0.230625 0.060000 0.083333
v -0.130625 0.060000 0.083333
v 0.050000 0.250000 0.240000
v 0.050000 0.250000 -0.240000
v -0.013542 0.250000 0.250000
v -0.013542 0.250000 -0.250000
v 0.113542 0.250000 0.250000
v 0.113542 0.250000 -0.250000
v 0.050000 0.060000 0.240000
v 0.050000 0.060000 -0.240000
v -0.130625 0.060000 0.240000
v 0.230625 0.060000 0.240000
v -0.130625 0.060000 -0.240000
v 0.230625 0.060000 -0.240000
v -0.130625 0.250000 -0.240000
v -0.130625 0.250000 0.240000
v 0.230625 0.250000 0.240000
v 0.230625 0.250000 -0.240000
v -0.150625 0.050000 0.164503
v -0.150625 0.075000 0.171202
v -0.150625 0.093301 0.189503
v -0.150625 0.100000 0.214503
v -0.150625 0.093301 0.239503
v -0.150625 0.075000 0.257804
v -0.150625 0.050000 0.264503
v -0.150625 0.025000 0.257804
v -0.150625 0.006699 0.239503
v -0.150625 0.000000 0.214503
v -0.150625 0.006699 0.189503
v -0.150625 0.025000 0.171202
v -0.150625 0.050000 -0.263425
v -0.150625 0.075000 -0.256726
v -0.150625 0.093301 -0.238425
v -0.150625 0.100000 -0.213425
v -0.150625 0.093301 -0.188425
v -0.150625 0.075000 -0.170124
v -0.150625 0.050000 -0.163425
v -0.150625 0.025000 -0.170124
v -0.150625 0.006699 -0.188425
v -0.150625 0.000000 -0.213425
v -0.150625 0.006699 -0.238425
v -0.150625 0.025000 -0.256726
v 0.250625 0.050000 0.264503
v 0.250625 0.075000 0.257804
v 0.250625 0.093301 0.239503
v 0.250625 0.100000 0.214503
v 0.250625 0.093301 0.189503
v 0.250625 0.075000 0.171202
v 0.250625 0.050000 0.164503
v 0.250625 0.025000 0.171202
v 0.250625 0.006699 0.189503
v 0.250625 0.000000 0.214503
v 0.250625 0.006699 0.239503
v 0.250625 0.025000 0.257804
v 0.250625 0.050000 -0.163425
v 0.250625 0.075000 -0.170124
v 0.250625 0.093301 -0.188425
v 0.250625 0.100000 -0.213425
v 0.250625 0.093301 -0.238425
v 0.250625 0.075000 -0.256726
v 0.250625 0.050000 -0.263425
v 0.250625 0.025000 -0.256726
v 0.250625 0.006699 -0.238425
v 0.250625 0.000000 -0.213425
v 0.250625 0.006699 -0.188425
v 0.250625 0.025000 -0.170124
v 0.158901 0.154643 -0.257345
v 0.199054 0.154643 -0.259979
v 0.158901 0.184332 -0.257345
v 0.199054 0.184332 -0.259979
v -0.097118 0.154643 -0.259979
v -0.056966 0.154643 -0.257345
v -0.097118 0.184332 -0.259979
v -0.056966 0.184332 -0.257345
v 0.134555 0.154643 -0.289681
v -0.032620 0.154643 -0.289681
v 0.134555 0.184332 -0.289681
v -0.032620 0.184332 -0.289681
v -0.130625 0.060000 -0.093333
v 0.230625 0.060000 -0.093333
v -0.130625 0.250000 -0.093333
v 0.230625 0.250000 -0.093333
v -0.013542 0.250000 -0.093333
v 0.113542 0.250000 -0.093333
v 0.113542 0.250000 0.073333
v -0.013542 0.250000 0.073333
v 0.230625 0.250000 0.073333
v -0.130625 0.250000 0.073333
v 0.230625 0.060000 0.073333
v -0.130625 0.060000 0.073333
v 0.040000 0.250000 0.240000
v 0.040000 0.250000 -0.240000
v -0.013542 0.250000 0.240000
v -0.013542 0.250000 -0.240000
v 0.113542 0.250000 0.240000
v 0.113542 0.250000 -0.240000
v 0.040000 0.060000 0.240000
v 0.040000 0.060000 -0.240000
vn -0.0000 -1.0000 -0.0000
vn -0.0000 -0.0000 -1.0000
vn -0.0000 -0.0000 1.0000
vn 1.0000 -0.0000 -0.0000
vn -1.0000 -0.0000 -0.0000
vn 0.0654 -0.0000 0.9979
vn -0.0654 -0.0000 0.9979
vn 0.7989 -0.0000 0.6015
vn -0.7989 -0.0000 0.6015
vn -0.0000 1.0000 -0.0000
vn -0.0654 -0.0000 -0.9979
vn 0.0654 -0.0000 -0.9979
vn -0.7989 -0.0000 -0.6015
vn 0.7989 -0.0000 -0.6015
vn -0.0000 0.2588 -0.9659
vn -0.0000 0.7071 -0.7071
vn -0.0000 0.9659 -0.2588
vn -0.0000 0.9659 0.2588
vn -0.0000 0.7071 0.7071
vn -0.0000 0.2588 0.9659
vn -0.0000 -0.2588 0.9659
vn -0.0000 -0.7071 0.7071
vn -0.0000 -0.9659 0.2588
vn -0.0000 -0.9659 -0.2588
vn -0.0000 -0.7071 -0.7071
vn -0.0000 -0.2588 -0.9659
vn 0.9979 -0.0000 -0.0654
vn -0.9979 -0.0000 -0.0654
vt 0.000000 0.000000
vt 0.000000 1.000000
vt 1.000000 1.000000
vt 1.000000 0.000000
vt 0.333333 1.000000
vt 0.666667 1.000000
vt 0.666667 0.000000
vt 0.333333 0.000000
vt 0.666667 1.000000
vt 0.333333 1.000000
s 0
usemtl Cart
f 1/1/1 3/2/1 4/3/1 2/4/1
f 4/3/2 3/2/2 5/2/2 84/5/2 86/6/2 8/3/2
f 1/1/3 2/4/3 7/4/3 85/7/3 83/8/3 6/1/3
f 2/4/4 4/3/4 8/3/4 7/4/4
f 3/2/5 1/1/5 6/1/5 5/2/5
f 10/1/4 11/1/4 12/1/4 13/1/4 14/1/4 15/1/4 16/1/4 17/1/4 18/1/4 19/1/4 20/1/4 9/1/4
f 22/1/4 23/1/4 24/1/4 25/1/4 26/1/4 27/1/4 28/1/4 29/1/4 30/1/4 31/1/4 32/1/4 21/1/4
f 34/1/5 35/1/5 36/1/5 37/1/5 38/1/5 39/1/5 40/1/5 41/1/5 42/1/5 43/1/5 44/1/5 33/1/5
f 46/1/5 47/1/5 48/1/5 49/1/5 50/1/5 51/1/5 52/1/5 53/1/5 54/1/5 55/1/5 56/1/5 45/1/5
f 58/3/6 60/3/6 59/2/6 57/2/6
f 62/3/7 64/3/7 63/2/7 61/2/7
f 66/9/8 68/9/8 64/3/8 62/3/8
f 57/2/9 59/2/9 67/10/9 65/10/9
f 65/10/3 67/10/3 68/9/3 66/9/3
f 69/1/3 70/4/3 72/4/3 74/7/3 73/8/3 71/1/3
f 80/1/3 79/4/3 77/4/3 75/7/3 76/8/3 78/1/3
f 82/1/4 81/1/4 87/1/4 88/1/4
f 89/1/10 90/4/10 92/3/10 91/2/10
f 92/3/3 96/3/3 174/6/3 172/5/3 93/2/3 91/2/3
f 89/1/2 94/1/2 171/8/2 173/7/2 95/4/2 90/4/2
f 90/4/5 95/4/5 96/3/5 92/3/5
f 91/2/4 93/2/4 94/1/4 89/1/4
f 98/1/5 97/1/5 108/1/5 107/1/5 106/1/5 105/1/5 104/1/5 103/1/5 102/1/5 101/1/5 100/1/5 99/1/5
f 110/1/5 109/1/5 120/1/5 119/1/5 118/1/5 117/1/5 116/1/5 115/1/5 114/1/5 113/1/5 112/1/5 111/1/5
f 122/1/4 121/1/4 132/1/4 131/1/4 130/1/4 129/1/4 128/1/4 127/1/4 126/1/4 125/1/4 124/1/4 123/1/4
f 134/1/4 133/1/4 144/1/4 143/1/4 142/1/4 141/1/4 140/1/4 139/1/4 138/1/4 137/1/4 136/1/4 135/1/4
f 146/3/11 145/2/11 147/2/11 148/3/11
f 150/3/12 149/2/12 151/2/12 152/3/12
f 154/9/13 150/3/13 152/3/13 156/9/13
f 145/2/14 153/10/14 155/10/14 147/2/14
f 153/10/2 154/9/2 156/9/2 155/10/2
f 157/1/2 159/1/2 161/8/2 162/7/2 160/4/2 158/4/2
f 168/1/2 166/1/2 164/8/2 163/7/2 165/4/2 167/4/2
f 170/1/5 176/1/5 175/1/5 169/1/5
usemtl CardboardSide
f 5/2/10 6/1/10 94/1/10 93/2/10
f 85/7/10 7/4/10 95/4/10 173/7/10
f 7/4/10 8/3/10 96/3/10 95/4/10
f 84/5/10 5/2/10 93/2/10 172/5/10
f 10/1/15 9/1/15 97/1/15 98/1/15
f 11/1/16 10/1/16 98/1/16 99/1/16
f 12/1/17 11/1/17 99/1/17 100/1/17
f 13/1/18 12/1/18 100/1/18 101/1/18
f 14/1/19 13/1/19 101/1/19 102/1/19
f 15/1/20 14/1/20 102/1/20 103/1/20
f 16/1/21 15/1/21 103/1/21 104/1/21
f 17/1/22 16/1/22 104/1/22 105/1/22
f 18/1/23 17/1/23 105/1/23 106/1/23
f 19/1/24 18/1/24 106/1/24 107/1/24
f 20/1/25 19/1/25 107/1/25 108/1/25
f 9/1/26 20/1/26 108/1/26 97/1/26
f 22/1/15 21/1/15 109/1/15 110/1/15
f 23/1/16 22/1/16 110/1/16 111/1/16
f 24/1/17 23/1/17 111/1/17 112/1/17
f 25/1/18 24/1/18 112/1/18 113/1/18
f 26/1/19 25/1/19 113/1/19 114/1/19
f 27/1/20 26/1/20 114/1/20 115/1/20
f 28/1/21 27/1/21 115/1/21 116/1/21
f 29/1/22 28/1/22 116/1/22 117/1/22
f 30/1/23 29/1/23 117/1/23 118/1/23
f 31/1/24 30/1/24 118/1/24 119/1/24
f 32/1/25 31/1/25 119/1/25 120/1/25
f 21/1/26 32/1/26 120/1/26 109/1/26
f 34/1/20 33/1/20 121/1/20 122/1/20
f 35/1/19 34/1/19 122/1/19 123/1/19
f 36/1/18 35/1/18 123/1/18 124/1/18
f 37/1/17 36/1/17 124/1/17 125/1/17
f 38/1/16 37/1/16 125/1/16 126/1/16
f 39/1/15 38/1/15 126/1/15 127/1/15
f 40/1/26 39/1/26 127/1/26 128/1/26
f 41/1/25 40/1/25 128/1/25 129/1/25
f 42/1/24 41/1/24 129/1/24 130/1/24
f 43/1/23 42/1/23 130/1/23 131/1/23
f 44/1/22 43/1/22 131/1/22 132/1/22
f 33/1/21 44/1/21 132/1/21 121/1/21
f 46/1/20 45/1/20 133/1/20 134/1/20
f 47/1/19 46/1/19 134/1/19 135/1/19
f 48/1/18 47/1/18 135/1/18 136/1/18
f 49/1/17 48/1/17 136/1/17 137/1/17
f 50/1/16 49/1/16 137/1/16 138/1/16
f 51/1/15 50/1/15 138/1/15 139/1/15
f 52/1/26 51/1/26 139/1/26 140/1/26
f 53/1/25 52/1/25 140/1/25 141/1/25
f 54/1/24 53/1/24 141/1/24 142/1/24
f 55/1/23 54/1/23 142/1/23 143/1/23
f 56/1/22 55/1/22 143/1/22 144/1/22
f 45/1/21 56/1/21 144/1/21 133/1/21
f 58/3/1 57/2/1 145/2/1 146/3/1
f 59/2/10 60/3/10 148/3/10 147/2/10
f 60/3/27 58/3/27 146/3/27 148/3/27
f 62/3/1 61/2/1 149/2/1 150/3/1
f 63/2/10 64/3/10 152/3/10 151/2/10
f 61/2/28 63/2/28 151/2/28 149/2/28
f 66/9/1 62/3/1 150/3/1 154/9/1
f 64/3/10 68/9/10 156/9/10 152/3/10
f 57/2/1 65/10/1 153/10/1 145/2/1
f 65/10/1 66/9/1 154/9/1 153/10/1
f 67/10/10 59/2/10 147/2/10 155/10/10
f 68/9/10 67/10/10 155/10/10 156/9/10
f 72/4/4 70/4/4 158/4/4 160/4/4
f 69/1/5 71/1/5 159/1/5 157/1/5
f 70/4/1 69/1/1 157/1/1 158/4/1
f 71/1/10 73/8/10 161/8/10 159/1/10
f 76/8/10 75/7/10 163/7/10 164/8/10
f 78/1/10 76/8/10 164/8/10 166/1/10
f 73/8/10 74/7/10 162/7/10 161/8/10
f 74/7/10 72/4/10 160/4/10 162/7/10
f 80/1/5 78/1/5 166/1/5 168/1/5
f 75/7/10 77/4/10 165/4/10 163/7/10
f 79/4/1 80/1/1 168/1/1 167/4/1
f 77/4/4 79/4/4 167/4/4 165/4/4
f 6/1/10 83/8/10 171/8/10 94/1/10
f 83/8/10 85/7/10 173/7/10 171/8/10
f 8/3/10 86/6/10 174/6/10 96/3/10
f 86/6/10 84/5/10 172/5/10 174/6/10
f 81/1/10 82/1/10 170/1/10 169/1/10
f 88/1/1 87/1/1 175/1/1 176/1/1
f 82/1/2 88/1/2 176/1/2 170/1/2
f 87/1/3 81/1/3 169/1/3 175/1/3
