# Blender 3.6.0
# www.blender.org
mtllib cart_incoming.mtl
o CartIncoming
v -0.140625 0.050000 0.250000
v 0.140625 0.050000 0.250000
v -0.140625 0.050000 -0.250000
v 0.140625 0.050000 -0.250000
v -0.140625 0.300211 -0.250000
v -0.140625 0.300211 0.250000
v 0.140625 0.300211 0.250000
v 0.140625 0.300211 -0.250000
v -0.140625 0.050000 0.164503
v -0.140625 0.075000 0.171202
v -0.140625 0.093301 0.189503
v -0.140625 0.100000 0.214503
v -0.140625 0.093301 0.239503
v -0.140625 0.075000 0.257804
v -0.140625 0.050000 0.264503
v -0.140625 0.025000 0.257804
v -0.140625 0.006699 0.239503
v -0.140625 0.000000 0.214503
v -0.140625 0.006699 0.189503
v -0.140625 0.025000 0.171202
v -0.140625 0.050000 -0.263425
v -0.140625 0.075000 -0.256726
v -0.140625 0.093301 -0.238425
v -0.140625 0.100000 -0.213425
v -0.140625 0.093301 -0.188425
v -0.140625 0.075000 -0.170124
v -0.140625 0.050000 -0.163425
v -0.140625 0.025000 -0.170124
v -0.140625 0.006699 -0.188425
v -0.140625 0.000000 -0.213425
v -0.140625 0.006699 -0.238425
v -0.140625 0.025000 -0.256726
v 0.140625 0.050000 0.264503
v 0.140625 0.075000 0.257804
v 0.140625 0.093301 0.239503
v 0.140625 0.100000 0.214503
v 0.140625 0.093301 0.189503
v 0.140625 0.075000 0.171202
v 0.140625 0.050000 0.164503
v 0.140625 0.025000 0.171202
v 0.140625 0.006699 0.189503
v 0.140625 0.000000 0.214503
v 0.140625 0.006699 0.239503
v 0.140625 0.025000 0.257804
v 0.140625 0.050000 -0.163425
v 0.140625 0.075000 -0.170124
v 0.140625 0.093301 -0.188425
v 0.140625 0.100000 -0.213425
v 0.140625 0.093301 -0.238425
v 0.140625 0.075000 -0.256726
v 0.140625 0.050000 -0.263425
v 0.140625 0.025000 -0.256726
v 0.140625 0.006699 -0.238425
v 0.140625 0.000000 -0.213425
v 0.140625 0.006699 -0.188425
v 0.140625 0.025000 -0.170124
v 0.052227 0.229643 -0.247013
v 0.097773 0.229643 -0.250000
v 0.052227 0.259332 -0.247013
v 0.097773 0.259332 -0.250000
v -0.097773 0.229643 -0.250000
v -0.052227 0.229643 -0.247013
v -0.097773 0.259332 -0.250000
v -0.052227 0.259332 -0.247013
v 0.027631 0.229643 -0.279681
v -0.027631 0.229643 -0.279681
v 0.027631 0.259332 -0.279681
v -0.027631 0.259332 -0.279681
v -0.140625 0.300211 -0.250000
v -0.140625 0.300211 0.250000
v 0.140625 0.300211 0.250000
v 0.140625 0.300211 -0.250000
v -0.140625 0.400211 -0.250000
v -0.140625 0.400211 0.250000
v 0.140625 0.400211 0.250000
v 0.140625 0.400211 -0.250000
v -0.130625 0.060000 0.240000
v 0.130625 0.060000 0.240000
v -0.130625 0.060000 -0.240000
v 0.130625 0.060000 -0.240000
v -0.130625 0.290211 -0.240000
v -0.130625 0.290211 0.240000
v 0.130625 0.290211 0.240000
v 0.130625 0.290211 -0.240000
v -0.150625 0.050000 0.164503
v -0.150625 0.075000 0.171202
v -0.150625 0.093301 0.189503
v -0.150625 0.100000 0.214503
v -0.150625 0.093301 0.239503
v -0.150625 0.075000 0.257804
v -0.150625 0.050000 0.264503
v -0.150625 0.025000 0.257804
v -0.150625 0.006699 0.239503
v -0.150625 0.000000 0.214503
v -0.150625 0.006699 0.189503
v -0.150625 0.025000 0.171202
v -0.150625 0.050000 -0.263425
v -0.150625 0.075000 -0.256726
v -0.150625 0.093301 -0.238425
v -0.150625 0.100000 -0.213425
v -0.150625 0.093301 -0.188425
v -0.150625 0.075000 -0.170124
v -0.150625 0.050000 -0.163425
v -0.150625 0.025000 -0.170124
v -0.150625 0.006699 -0.188425
v -0.150625 0.000000 -0.213425
v -0.150625 0.006699 -0.238425
v -0.150625 0.025000 -0.256726
v 0.150625 0.050000 0.264503
v 0.150625 0.075000 0.257804
v 0.150625 0.093301 0.239503
v 0.150625 0.100000 0.214503
v 0.150625 0.093301 0.189503
v 0.150625 0.075000 0.171202
v 0.150625 0.050000 0.164503
v 0.150625 0.025000 0.171202
v 0.150625 0.006699 0.189503
v 0.150625 0.000000 0.214503
v 0.150625 0.006699 0.239503
v 0.150625 0.025000 0.257804
v 0.150625 0.050000 -0.163425
v 0.150625 0.075000 -0.170124
v 0.150625 0.093301 -0.188425
v 0.150625 0.100000 -0.213425
v 0.150625 0.093301 -0.238425
v 0.150625 0.075000 -0.256726
v 0.150625 0.050000 -0.263425
v 0.150625 0.025000 -0.256726
v 0.150625 0.006699 -0.238425
v 0.150625 0.000000 -0.213425
v 0.150625 0.006699 -0.188425
v 0.150625 0.025000 -0.170124
v 0.056966 0.229643 -0.257345
v 0.097118 0.229643 -0.259979
v 0.056966 0.259332 -0.257345
v 0.097118 0.259332 -0.259979
v -0.097118 0.229643 -0.259979
v -0.056966 0.229643 -0.257345
v -0.097118 0.259332 -0.259979
v -0.056966 0.259332 -0.257345
v 0.032620 0.229643 -0.289681
v -0.032620 0.229643 -0.289681
v 0.032620 0.259332 -0.289681
v -0.032620 0.259332 -0.289681
v -0.130625 0.300211 -0.240000
v -0.130625 0.300211 0.240000
v 0.130625 0.300211 0.240000
v 0.130625 0.300211 -0.240000
v -0.130625 0.400211 -0.240000
v -0.130625 0.400211 0.240000
v 0.130625 0.400211 0.240000
v 0.130625 0.400211 -0.240000
vn -0.0000 -1.0000 -0.0000
vn -0.0000 -0.0000 -1.0000
vn -0.0000 -0.0000 1.0000
vn 1.0000 -0.0000 -0.0000
vn -1.0000 -0.0000 -0.0000
vn 0.0654 -0.0000 0.9979
vn -0.0654 -0.0000 0.9979
vn 0.7989 -0.0000 0.6015
vn -0.7989 -0.0000 0.6015
vn -0.0000 1.0000 -0.0000
vn -0.0654 -0.0000 -0.9979
vn 0.0654 -0.0000 -0.9979
vn -0.7989 -0.0000 -0.6015
vn 0.7989 -0.0000 -0.6015
vn -0.0000 0.2588 -0.9659
vn -0.0000 0.7071 -0.7071
vn -0.0000 0.9659 -0.2588
vn -0.0000 0.9659 0.2588
vn -0.0000 0.7071 0.7071
vn -0.0000 0.2588 0.9659
vn -0.0000 -0.2588 0.9659
vn -0.0000 -0.7071 0.7071
vn -0.0000 -0.9659 0.2588
vn -0.0000 -0.9659 -0.2588
vn -0.0000 -0.7071 -0.7071
vn -0.0000 -0.2588 -0.9659
vn 0.9979 -0.0000 -0.0654
vn -0.9979 -0.0000 -0.0654
vt 0.000000 0.000000
vt 0.000000 1.000000
vt 1.000000 1.000000
vt 1.000000 0.000000
vt 0.666667 1.000000
vt 0.333333 1.000000
s 0
usemtl Cart
f 1/1/1 3/2/1 4/3/1 2/4/1
f 4/3/2 3/2/2 5/2/2 8/3/2
f 1/1/3 2/4/3 7/4/3 6/1/3
f 2/4/4 4/3/4 8/3/4 7/4/4
f 3/2/5 1/1/5 6/1/5 5/2/5
f 10/1/4 11/1/4 12/1/4 13/1/4 14/1/4 15/1/4 16/1/4 17/1/4 18/1/4 19/1/4 20/1/4 9/1/4
f 22/1/4 23/1/4 24/1/4 25/1/4 26/1/4 27/1/4 28/1/4 29/1/4 30/1/4 31/1/4 32/1/4 21/1/4
f 34/1/5 35/1/5 36/1/5 37/1/5 38/1/5 39/1/5 40/1/5 41/1/5 42/1/5 43/1/5 44/1/5 33/1/5
f 46/1/5 47/1/5 48/1/5 49/1/5 50/1/5 51/1/5 52/1/5 53/1/5 54/1/5 55/1/5 56/1/5 45/1/5
f 58/3/6 60/3/6 59/2/6 57/2/6
f 62/3/7 64/3/7 63/2/7 61/2/7
f 66/5/8 68/5/8 64/3/8 62/3/8
f 57/2/9 59/2/9 67/6/9 65/6/9
f 65/6/3 67/6/3 68/5/3 66/5/3
f 5/2/10 6/1/10 7/4/10 8/3/10
f 69/1/2 73/1/2 76/1/2 72/1/2
f 71/1/3 75/1/3 74/1/3 70/1/3
f 72/1/4 76/1/4 75/1/4 71/1/4
f 70/1/5 74/1/5 73/1/5 69/1/5
f 77/1/10 78/4/10 80/3/10 79/2/10
f 80/3/3 84/3/3 81/2/3 79/2/3
f 77/1/2 82/1/2 83/4/2 78/4/2
f 78/4/5 83/4/5 84/3/5 80/3/5
f 79/2/4 81/2/4 82/1/4 77/1/4
f 86/1/5 85/1/5 96/1/5 95/1/5 94/1/5 93/1/5 92/1/5 91/1/5 90/1/5 89/1/5 88/1/5 87/1/5
f 98/1/5 97/1/5 108/1/5 107/1/5 106/1/5 105/1/5 104/1/5 103/1/5 102/1/5 101/1/5 100/1/5 99/1/5
f 110/1/4 109/1/4 120/1/4 119/1/4 118/1/4 117/1/4 116/1/4 115/1/4 114/1/4 113/1/4 112/1/4 111/1/4
f 122/1/4 121/1/4 132/1/4 131/1/4 130/1/4 129/1/4 128/1/4 127/1/4 126/1/4 125/1/4 124/1/4 123/1/4
f 134/3/11 133/2/11 135/2/11 136/3/11
f 138/3/12 137/2/12 139/2/12 140/3/12
f 142/5/13 138/3/13 140/3/13 144/5/13
f 133/2/14 141/6/14 143/6/14 135/2/14
f 141/6/2 142/5/2 144/5/2 143/6/2
f 81/2/1 84/3/1 83/4/1 82/1/1
f 145/1/3 148/1/3 152/1/3 149/1/3
f 147/1/2 146/1/2 150/1/2 151/1/2
f 148/1/5 147/1/5 151/1/5 152/1/5
f 146/1/4 145/1/4 149/1/4 150/1/4
usemtl CardboardSide
f 10/1/15 9/1/15 85/1/15 86/1/15
f 11/1/16 10/1/16 86/1/16 87/1/16
f 12/1/17 11/1/17 87/1/17 88/1/17
f 13/1/18 12/1/18 88/1/18 89/1/18
f 14/1/19 13/1/19 89/1/19 90/1/19
f 15/1/20 14/1/20 90/1/20 91/1/20
f 16/1/21 15/1/21 91/1/21 92/1/21
f 17/1/22 16/1/22 92/1/22 93/1/22
f 18/1/23 17/1/23 93/1/23 94/1/23
f 19/1/24 18/1/24 94/1/24 95/1/24
f 20/1/25 19/1/25 95/1/25 96/1/25
f 9/1/26 20/1/26 96/1/26 85/1/26
f 22/1/15 21/1/15 97/1/15 98/1/15
f 23/1/16 22/1/16 98/1/16 99/1/16
f 24/1/17 23/1/17 99/1/17 100/1/17
f 25/1/18 24/1/18 100/1/18 101/1/18
f 26/1/19 25/1/19 101/1/19 102/1/19
f 27/1/20 26/1/20 102/1/20 103/1/20
f 28/1/21 27/1/21 103/1/21 104/1/21
f 29/1/22 28/1/22 104/1/22 105/1/22
f 30/1/23 29/1/23 105/1/23 106/1/23
f 31/1/24 30/1/24 106/1/24 107/1/24
f 32/1/25 31/1/25 107/1/25 108/1/25
f 21/1/26 32/1/26 108/1/26 97/1/26
f 34/1/20 33/1/20 109/1/20 110/1/20
f 35/1/19 34/1/19 110/1/19 111/1/19
f 36/1/18 35/1/18 111/1/18 112/1/18
f 37/1/17 36/1/17 112/1/17 113/1/17
f 38/1/16 37/1/16 113/1/16 114/1/16
f 39/1/15 38/1/15 114/1/15 115/1/15
f 40/1/26 39/1/26 115/1/26 116/1/26
f 41/1/25 40/1/25 116/1/25 117/1/25
f 42/1/24 41/1/24 117/1/24 118/1/24
f 43/1/23 42/1/23 118/1/23 119/1/23
f 44/1/22 43/1/22 119/1/22 120/1/22
f 33/1/21 44/1/21 120/1/21 109/1/21
f 46/1/20 45/1/20 121/1/20 122/1/20
f 47/1/19 46/1/19 122/1/19 123/1/19
f 48/1/18 47/1/18 123/1/18 124/1/18
f 49/1/17 48/1/17 124/1/17 125/1/17
f 50/1/16 49/1/16 125/1/16 126/1/16
f 51/1/15 50/1/15 126/1/15 127/1/15
f 52/1/26 51/1/26 127/1/26 128/1/26
f 53/1/25 52/1/25 128/1/25 129/1/25
f 54/1/24 53/1/24 129/1/24 130/1/24
f 55/1/23 54/1/23 130/1/23 131/1/23
f 56/1/22 55/1/22 131/1/22 132/1/22
f 45/1/21 56/1/21 132/1/21 121/1/21
f 58/3/1 57/2/1 133/2/1 134/3/1
f 59/2/10 60/3/10 136/3/10 135/2/10
f 60/3/27 58/3/27 134/3/27 136/3/27
f 62/3/1 61/2/1 137/2/1 138/3/1
f 63/2/10 64/3/10 140/3/10 139/2/10
f 61/2/28 63/2/28 139/2/28 137/2/28
f 66/5/1 62/3/1 138/3/1 142/5/1
f 64/3/10 68/5/10 144/5/10 140/3/10
f 57/2/1 65/6/1 141/6/1 133/2/1
f 65/6/1 66/5/1 142/5/1 141/6/1
f 67/6/10 59/2/10 135/2/10 143/6/10
f 68/5/10 67/6/10 143/6/10 144/5/10
f 70/1/1 69/1/1 145/1/1 146/1/1
f 71/1/1 70/1/1 146/1/1 147/1/1
f 72/1/1 71/1/1 147/1/1 148/1/1
f 69/1/1 72/1/1 148/1/1 145/1/1
f 73/1/10 74/1/10 150/1/10 149/1/10
f 74/1/10 75/1/10 151/1/10 150/1/10
f 75/1/10 76/1/10 152/1/10 151/1/10
f 76/1/10 73/1/10 149/1/10 152/1/10
