# Blender 3.6.0
# www.blender.org
mtllib door_frame.mtl
o DoorFrame
v -0.378751 0.850078 0.000000
v 0.321249 0.850078 0.000000
v -0.378751 -0.000000 0.000000
v 0.321249 -0.000000 0.000000
v -0.278751 0.750078 0.000000
v 0.221249 0.750078 0.000000
v 0.221249 -0.000000 0.000000
v -0.278751 -0.000000 0.000000
v -0.278751 0.750078 0.010000
v 0.221249 0.750078 0.010000
v 0.221249 -0.000000 0.010000
v -0.278751 -0.000000 0.010000
v 0.156125 0.388515 -0.000000
v 0.183074 0.388515 -0.000000
v 0.183074 0.361563 -0.000000
v 0.156125 0.361563 -0.000000
v 0.075277 0.388515 -0.010000
v 0.183074 0.388515 -0.010000
v 0.183074 0.361563 -0.010000
v 0.075277 0.361563 -0.010000
v -0.296841 0.651991 -0.010000
v -0.239891 0.651991 -0.000000
v -0.239891 0.598087 -0.000000
v -0.296841 0.598087 -0.010000
v -0.258946 0.651991 -0.000000
v -0.277786 0.651991 -0.009990
v -0.260830 0.651991 -0.000270
v -0.262714 0.651991 -0.001005
v -0.264598 0.651991 -0.002090
v -0.266482 0.651991 -0.003414
v -0.268366 0.651991 -0.004861
v -0.270250 0.651991 -0.006320
v -0.272134 0.651991 -0.007675
v -0.274018 0.651991 -0.008814
v -0.275902 0.651991 -0.009624
v -0.277786 0.598087 -0.009990
v -0.258946 0.598087 -0.000000
v -0.275902 0.598087 -0.009624
v -0.274018 0.598087 -0.008814
v -0.272134 0.598087 -0.007675
v -0.270250 0.598087 -0.006320
v -0.268366 0.598087 -0.004861
v -0.266482 0.598087 -0.003414
v -0.264598 0.598087 -0.002090
v -0.262714 0.598087 -0.001005
v -0.260830 0.598087 -0.000270
v -0.296841 0.151991 -0.010000
v -0.239891 0.151991 -0.000000
v -0.239891 0.098087 -0.000000
v -0.296841 0.098087 -0.010000
v -0.258946 0.151991 -0.000000
v -0.277786 0.151991 -0.009990
v -0.260830 0.151991 -0.000270
v -0.262714 0.151991 -0.001005
v -0.264598 0.151991 -0.002090
v -0.266482 0.151991 -0.003414
v -0.268366 0.151991 -0.004861
v -0.270250 0.151991 -0.006320
v -0.272134 0.151991 -0.007675
v -0.274018 0.151991 -0.008814
v -0.275902 0.151991 -0.009624
v -0.277786 0.098087 -0.009990
v -0.258946 0.098087 -0.000000
v -0.275902 0.098087 -0.009624
v -0.274018 0.098087 -0.008814
v -0.272134 0.098087 -0.007675
v -0.270250 0.098087 -0.006320
v -0.268366 0.098087 -0.004861
v -0.266482 0.098087 -0.003414
v -0.264598 0.098087 -0.002090
v -0.262714 0.098087 -0.001005
v -0.260830 0.098087 -0.000270
v 0.156125 0.388515 0.020000
v 0.183074 0.388515 0.020000
v 0.183074 0.361563 0.020000
v 0.156125 0.361563 0.020000
v 0.075277 0.388515 0.030000
v 0.183074 0.388515 0.030000
v 0.183074 0.361563 0.030000
v 0.075277 0.361563 0.030000
v -0.378751 0.850078 0.010000
v 0.321249 0.850078 0.010000
v -0.378751 -0.000000 0.010000
v 0.321249 -0.000000 0.010000
v -0.278751 0.750078 0.010000
v 0.221249 0.750078 0.010000
v 0.221249 -0.000000 0.010000
v -0.278751 -0.000000 0.010000
v -0.278751 0.750078 0.020000
v 0.221249 0.750078 0.020000
v 0.221249 -0.000000 0.020000
v -0.278751 -0.000000 0.020000
v 0.156125 0.388515 0.010000
v 0.183074 0.388515 0.010000
v 0.183074 0.361563 0.010000
v 0.156125 0.361563 0.010000
v 0.075277 0.388515 0.000000
v 0.183074 0.388515 0.000000
v 0.183074 0.361563 0.000000
v 0.075277 0.361563 0.000000
v -0.296846 0.651991 0.000000
v -0.239891 0.651991 0.010000
v -0.239891 0.598087 0.010000
v -0.296846 0.598087 0.000000
v -0.259657 0.651991 0.009975
v -0.278748 0.651991 -0.000036
v -0.263373 0.651991 0.009401
v -0.267039 0.651991 0.008011
v -0.269974 0.651991 0.006342
v -0.272404 0.651991 0.004644
v -0.274473 0.651991 0.003058
v -0.276231 0.651991 0.001695
v -0.277646 0.651991 0.000669
v -0.278590 0.651991 0.000080
v -0.278847 0.651991 -0.000067
v -0.278748 0.598087 -0.000036
v -0.259657 0.598087 0.009975
v -0.278847 0.598087 -0.000067
v -0.278590 0.598087 0.000080
v -0.277646 0.598087 0.000669
v -0.276231 0.598087 0.001695
v -0.274473 0.598087 0.003058
v -0.272404 0.598087 0.004644
v -0.269974 0.598087 0.006342
v -0.267039 0.598087 0.008011
v -0.263373 0.598087 0.009401
v -0.296846 0.151991 0.000000
v -0.239891 0.151991 0.010000
v -0.239891 0.098087 0.010000
v -0.296846 0.098087 0.000000
v -0.259657 0.151991 0.009975
v -0.278748 0.151991 -0.000036
v -0.263373 0.151991 0.009401
v -0.267039 0.151991 0.008011
v -0.269974 0.151991 0.006342
v -0.272404 0.151991 0.004644
v -0.274473 0.151991 0.003058
v -0.276231 0.151991 0.001695
v -0.277646 0.151991 0.000669
v -0.278590 0.151991 0.000080
v -0.278847 0.151991 -0.000067
v -0.278748 0.098087 -0.000036
v -0.259657 0.098087 0.009975
v -0.278847 0.098087 -0.000067
v -0.278590 0.098087 0.000080
v -0.277646 0.098087 0.000669
v -0.276231 0.098087 0.001695
v -0.274473 0.098087 0.003058
v -0.272404 0.098087 0.004644
v -0.269974 0.098087 0.006342
v -0.267039 0.098087 0.008011
v -0.263373 0.098087 0.009401
v 0.156125 0.388515 0.030000
v 0.183074 0.388515 0.030000
v 0.183074 0.361563 0.030000
v 0.156125 0.361563 0.030000
v 0.075277 0.388515 0.040000
v 0.183074 0.388515 0.040000
v 0.183074 0.361563 0.040000
v 0.075277 0.361563 0.040000
vn -0.0000 -0.0000 -1.0000
vn 0.1908 -0.0000 -0.9816
vn 0.3948 -0.0000 -0.9188
vn 0.5174 -0.0000 -0.8557
vn 0.5840 -0.0000 -0.8118
vn 0.6121 -0.0000 -0.7908
vn 0.6092 -0.0000 -0.7930
vn 0.5748 -0.0000 -0.8183
vn 0.4993 -0.0000 -0.8664
vn 0.3633 -0.0000 -0.9317
vn 0.1419 -0.0000 -0.9899
vn 0.0005 -0.0000 -1.0000
vn -0.0000 -0.0000 1.0000
vn -0.0013 -0.0000 1.0000
vn 0.2959 -0.0000 -0.9552
vn -0.4955 -0.0000 0.8686
vn -0.5295 -0.0000 0.8483
vn -0.5870 -0.0000 0.8096
vn -0.6126 -0.0000 0.7904
vn -0.6086 -0.0000 0.7935
vn -0.5726 -0.0000 0.8198
vn -0.4946 -0.0000 0.8691
vn -0.3544 -0.0000 0.9351
vn -0.1525 -0.0000 0.9883
vn 0.0020 -0.0000 1.0000
vn -0.0000 -1.0000 -0.0000
vn -1.0000 -0.0000 -0.0000
vn 1.0000 -0.0000 -0.0000
vn -0.0000 1.0000 -0.0000
vn -1.0000 -0.0000 -0.0005
vt 0.142857 0.882364
vt 0.000000 1.000000
vt 1.000000 1.000000
vt 0.857143 0.882364
vt 1.000000 0.000000
vt 0.857143 0.000000
vt 0.142857 0.000000
vt 0.000000 0.000000
vt 0.802608 0.457035
vt 0.802608 0.425329
vt 0.764109 0.425329
vt 0.764109 0.457035
vt 0.648612 0.425329
vt 0.648612 0.457035
vt 0.198371 0.766978
vt 0.198371 0.703567
vt 0.171151 0.703567
vt 0.171151 0.766978
vt 0.144236 0.703567
vt 0.144236 0.766978
vt 0.146927 0.766978
vt 0.146927 0.703567
vt 0.149619 0.766978
vt 0.149619 0.703567
vt 0.152310 0.766978
vt 0.152310 0.703567
vt 0.155002 0.766978
vt 0.155002 0.703567
vt 0.157693 0.766978
vt 0.157693 0.703567
vt 0.160385 0.766978
vt 0.160385 0.703567
vt 0.163076 0.766978
vt 0.163076 0.703567
vt 0.165768 0.766978
vt 0.165768 0.703567
vt 0.168459 0.766978
vt 0.168459 0.703567
vt 0.117015 0.703567
vt 0.117015 0.766978
vt 0.198371 0.178797
vt 0.198371 0.115386
vt 0.171151 0.115386
vt 0.171151 0.178797
vt 0.144236 0.115386
vt 0.144236 0.178797
vt 0.146927 0.178797
vt 0.146927 0.115386
vt 0.149619 0.178797
vt 0.149619 0.115386
vt 0.152310 0.178797
vt 0.152310 0.115386
vt 0.155002 0.178797
vt 0.155002 0.115386
vt 0.157693 0.178797
vt 0.157693 0.115386
vt 0.160385 0.178797
vt 0.160385 0.115386
vt 0.163076 0.178797
vt 0.163076 0.115386
vt 0.165768 0.178797
vt 0.165768 0.115386
vt 0.168459 0.178797
vt 0.168459 0.115386
vt 0.117015 0.115386
vt 0.117015 0.178797
s 0
usemtl Desk
f 5/1/1 1/2/1 2/3/1 6/4/1
f 6/4/1 2/3/1 4/5/1 7/6/1
f 8/7/1 3/8/1 1/2/1 5/1/1
f 10/4/1 11/6/1 12/7/1 9/1/1
f 14/9/1 15/10/1 16/11/1 13/12/1
f 18/9/1 19/10/1 20/13/1 17/14/1
f 22/15/1 23/16/1 37/17/1 25/18/1
f 36/19/2 26/20/2 35/21/2 38/22/2
f 38/22/3 35/21/3 34/23/3 39/24/3
f 39/24/4 34/23/4 33/25/4 40/26/4
f 40/26/5 33/25/5 32/27/5 41/28/5
f 41/28/6 32/27/6 31/29/6 42/30/6
f 42/30/7 31/29/7 30/31/7 43/32/7
f 43/32/8 30/31/8 29/33/8 44/34/8
f 44/34/9 29/33/9 28/35/9 45/36/9
f 45/36/10 28/35/10 27/37/10 46/38/10
f 46/38/11 27/37/11 25/18/11 37/17/11
f 26/20/12 36/19/12 24/39/12 21/40/12
f 48/41/1 49/42/1 63/43/1 51/44/1
f 62/45/2 52/46/2 61/47/2 64/48/2
f 64/48/3 61/47/3 60/49/3 65/50/3
f 65/50/4 60/49/4 59/51/4 66/52/4
f 66/52/5 59/51/5 58/53/5 67/54/5
f 67/54/6 58/53/6 57/55/6 68/56/6
f 68/56/7 57/55/7 56/57/7 69/58/7
f 69/58/8 56/57/8 55/59/8 70/60/8
f 70/60/9 55/59/9 54/61/9 71/62/9
f 71/62/10 54/61/10 53/63/10 72/64/10
f 72/64/11 53/63/11 51/44/11 63/43/11
f 52/46/12 62/45/12 50/65/12 47/66/12
f 74/9/1 75/10/1 76/11/1 73/12/1
f 78/9/1 79/10/1 80/13/1 77/14/1
f 85/1/13 86/4/13 82/3/13 81/2/13
f 86/4/13 87/6/13 84/5/13 82/3/13
f 88/7/13 85/1/13 81/2/13 83/8/13
f 90/4/13 89/1/13 92/7/13 91/6/13
f 94/9/13 93/12/13 96/11/13 95/10/13
f 98/9/13 97/14/13 100/13/13 99/10/13
f 102/15/14 105/18/14 117/17/14 103/16/14
f 116/19/15 118/22/15 115/21/15 106/20/15
f 118/22/16 119/24/16 114/23/16 115/21/16
f 119/24/17 120/26/17 113/25/17 114/23/17
f 120/26/18 121/28/18 112/27/18 113/25/18
f 121/28/19 122/30/19 111/29/19 112/27/19
f 122/30/20 123/32/20 110/31/20 111/29/20
f 123/32/21 124/34/21 109/33/21 110/31/21
f 124/34/22 125/36/22 108/35/22 109/33/22
f 125/36/23 126/38/23 107/37/23 108/35/23
f 126/38/24 117/17/24 105/18/24 107/37/24
f 106/20/25 101/40/25 104/39/25 116/19/25
f 128/41/14 131/44/14 143/43/14 129/42/14
f 142/45/15 144/48/15 141/47/15 132/46/15
f 144/48/16 145/50/16 140/49/16 141/47/16
f 145/50/17 146/52/17 139/51/17 140/49/17
f 146/52/18 147/54/18 138/53/18 139/51/18
f 147/54/19 148/56/19 137/55/19 138/53/19
f 148/56/20 149/58/20 136/57/20 137/55/20
f 149/58/21 150/60/21 135/59/21 136/57/21
f 150/60/22 151/62/22 134/61/22 135/59/22
f 151/62/23 152/64/23 133/63/23 134/61/23
f 152/64/24 143/43/24 131/44/24 133/63/24
f 132/46/25 127/66/25 130/65/25 142/45/25
f 154/9/13 153/12/13 156/11/13 155/10/13
f 158/9/13 157/14/13 160/13/13 159/10/13
usemtl CardboardSide
f 5/1/26 6/4/26 86/4/26 85/1/26
f 6/4/27 7/6/27 87/6/27 86/4/27
f 8/7/28 5/1/28 85/1/28 88/7/28
f 2/3/29 1/2/29 81/2/29 82/3/29
f 4/5/28 2/3/28 82/3/28 84/5/28
f 1/2/27 3/8/27 83/8/27 81/2/27
f 7/6/26 4/5/26 84/5/26 87/6/26
f 3/8/26 8/7/26 88/7/26 83/8/26
f 10/4/29 9/1/29 89/1/29 90/4/29
f 11/6/28 10/4/28 90/4/28 91/6/28
f 9/1/27 12/7/27 92/7/27 89/1/27
f 12/7/26 11/6/26 91/6/26 92/7/26
f 14/9/29 13/12/29 93/12/29 94/9/29
f 15/10/28 14/9/28 94/9/28 95/10/28
f 13/12/27 16/11/27 96/11/27 93/12/27
f 16/11/26 15/10/26 95/10/26 96/11/26
f 18/9/29 17/14/29 97/14/29 98/9/29
f 19/10/28 18/9/28 98/9/28 99/10/28
f 17/14/27 20/13/27 100/13/27 97/14/27
f 20/13/26 19/10/26 99/10/26 100/13/26
f 23/16/28 22/15/28 102/15/28 103/16/28
f 21/40/30 24/39/30 104/39/30 101/40/30
f 36/19/26 38/22/26 118/22/26 116/19/26
f 35/21/29 26/20/29 106/20/29 115/21/29
f 38/22/26 39/24/26 119/24/26 118/22/26
f 34/23/29 35/21/29 115/21/29 114/23/29
f 39/24/26 40/26/26 120/26/26 119/24/26
f 33/25/29 34/23/29 114/23/29 113/25/29
f 40/26/26 41/28/26 121/28/26 120/26/26
f 32/27/29 33/25/29 113/25/29 112/27/29
f 41/28/26 42/30/26 122/30/26 121/28/26
f 31/29/29 32/27/29 112/27/29 111/29/29
f 42/30/26 43/32/26 123/32/26 122/30/26
f 30/31/29 31/29/29 111/29/29 110/31/29
f 43/32/26 44/34/26 124/34/26 123/32/26
f 29/33/29 30/31/29 110/31/29 109/33/29
f 44/34/26 45/36/26 125/36/26 124/34/26
f 28/35/29 29/33/29 109/33/29 108/35/29
f 45/36/26 46/38/26 126/38/26 125/36/26
f 27/37/29 28/35/29 108/35/29 107/37/29
f 46/38/26 37/17/26 117/17/26 126/38/26
f 25/18/29 27/37/29 107/37/29 105/18/29
f 26/20/29 21/40/29 101/40/29 106/20/29
f 24/39/26 36/19/26 116/19/26 104/39/26
f 22/15/29 25/18/29 105/18/29 102/15/29
f 37/17/26 23/16/26 103/16/26 117/17/26
f 49/42/28 48/41/28 128/41/28 129/42/28
f 47/66/30 50/65/30 130/65/30 127/66/30
f 62/45/26 64/48/26 144/48/26 142/45/26
f 61/47/29 52/46/29 132/46/29 141/47/29
f 64/48/26 65/50/26 145/50/26 144/48/26
f 60/49/29 61/47/29 141/47/29 140/49/29
f 65/50/26 66/52/26 146/52/26 145/50/26
f 59/51/29 60/49/29 140/49/29 139/51/29
f 66/52/26 67/54/26 147/54/26 146/52/26
f 58/53/29 59/51/29 139/51/29 138/53/29
f 67/54/26 68/56/26 148/56/26 147/54/26
f 57/55/29 58/53/29 138/53/29 137/55/29
f 68/56/26 69/58/26 149/58/26 148/56/26
f 56/57/29 57/55/29 137/55/29 136/57/29
f 69/58/26 70/60/26 150/60/26 149/58/26
f 55/59/29 56/57/29 136/57/29 135/59/29
f 70/60/26 71/62/26 151/62/26 150/60/26
f 54/61/29 55/59/29 135/59/29 134/61/29
f 71/62/26 72/64/26 152/64/26 151/62/26
f 53/63/29 54/61/29 134/61/29 133/63/29
f 72/64/26 63/43/26 143/43/26 152/64/26
f 51/44/29 53/63/29 133/63/29 131/44/29
f 52/46/29 47/66/29 127/66/29 132/46/29
f 50/65/26 62/45/26 142/45/26 130/65/26
f 48/41/29 51/44/29 131/44/29 128/41/29
f 63/43/26 49/42/26 129/42/26 143/43/26
f 74/9/29 73/12/29 153/12/29 154/9/29
f 75/10/28 74/9/28 154/9/28 155/10/28
f 73/12/27 76/11/27 156/11/27 153/12/27
f 76/11/26 75/10/26 155/10/26 156/11/26
f 78/9/29 77/14/29 157/14/29 158/9/29
f 79/10/28 78/9/28 158/9/28 159/10/28
f 77/14/27 80/13/27 160/13/27 157/14/27
f 80/13/26 79/10/26 159/10/26 160/13/26
