# Blender 3.6.0
# www.blender.org
mtllib lift.mtl
o Lift
v 0.000000 0.000000 -0.864862
v -0.432431 0.000000 -0.748992
v -0.748992 0.000000 -0.432431
v -0.864862 0.000000 -0.000000
v -0.748992 0.000000 0.432431
v -0.432431 0.000000 0.748992
v 0.000000 0.000000 0.864862
v 0.432431 0.000000 0.748992
v 0.748992 0.000000 0.432431
v 0.864862 0.000000 -0.000000
v 0.748992 0.000000 -0.432431
v 0.432431 0.000000 -0.748992
v 0.000000 0.300000 -0.864862
v -0.432431 0.300000 -0.748992
v -0.748992 0.300000 -0.432431
v -0.864862 0.300000 -0.000000
v 0.000000 0.300000 0.864862
v 0.432431 0.300000 0.748992
v 0.748992 0.300000 0.432431
v 0.864862 0.300000 -0.000000
v 0.748992 0.300000 -0.432431
v 0.432431 0.300000 -0.748992
v 0.000000 0.006532 -0.857290
v -0.428645 0.006532 -0.742435
v -0.742435 0.006532 -0.428645
v -0.859892 0.008575 0.001331
v -0.748992 0.010000 0.432431
v -0.432431 0.010000 0.748992
v -0.001332 0.008575 0.859892
v 0.428645 0.006532 0.742435
v 0.742435 0.006532 0.428645
v 0.857290 0.006532 -0.000000
v 0.742435 0.006532 -0.428645
v 0.428645 0.006532 -0.742435
v 0.000000 0.300000 -0.854862
v -0.427431 0.300000 -0.740332
v -0.740332 0.300000 -0.427431
v -0.855203 0.300000 0.002588
v -0.002588 0.300000 0.855202
v 0.427431 0.300000 0.740332
v 0.740332 0.300000 0.427431
v 0.854862 0.300000 -0.000000
v 0.740332 0.300000 -0.427431
v 0.427431 0.300000 -0.740332
vn 0.9659 -0.0000 0.2588
vn -0.9659 -0.0000 -0.2588
vn 0.9659 -0.0000 -0.2588
vn 0.2588 -0.0000 0.9659
vn 0.7071 -0.0000 -0.7071
vn -0.2588 -0.0000 -0.9659
vn 0.7071 -0.0000 0.7071
vn 0.2588 -0.0000 -0.9659
vn -0.7071 -0.0000 -0.7071
vn -0.0000 -1.0000 -0.0000
vn -0.9659 -0.0080 -0.2588
vn 0.9653 -0.0123 0.2608
vn -0.9659 -0.0080 0.2588
vn -0.2608 -0.0123 -0.9653
vn -0.7071 -0.0080 0.7071
vn 0.2588 -0.0080 0.9659
vn -0.7071 -0.0080 -0.7071
vn -0.2588 -0.0080 0.9659
vn 0.7071 -0.0080 0.7071
vn 0.0013 1.0000 -0.0013
vn -0.9405 0.2339 0.2466
vn -0.7071 -0.0000 0.7071
vn -0.2466 0.2339 0.9405
vn -0.0000 1.0000 -0.0000
vn -0.2588 -0.0000 0.9659
vn -0.9659 -0.0000 0.2588
vt 0.000000 0.000000
s 0
f 9/1/1 10/1/1 20/1/1 19/1/1
f 3/1/2 4/1/2 16/1/2 15/1/2
f 10/1/3 11/1/3 21/1/3 20/1/3
f 7/1/4 8/1/4 18/1/4 17/1/4
f 11/1/5 12/1/5 22/1/5 21/1/5
f 1/1/6 2/1/6 14/1/6 13/1/6
f 8/1/7 9/1/7 19/1/7 18/1/7
f 12/1/8 1/1/8 13/1/8 22/1/8
f 2/1/9 3/1/9 15/1/9 14/1/9
f 2/1/10 1/1/10 12/1/10 11/1/10 10/1/10 9/1/10 8/1/10 7/1/10 6/1/10 5/1/10 4/1/10 3/1/10
f 31/1/11 41/1/11 42/1/11 32/1/11
f 25/1/12 37/1/12 38/1/12 26/1/12
f 32/1/13 42/1/13 43/1/13 33/1/13
f 29/1/14 39/1/14 40/1/14 30/1/14
f 33/1/15 43/1/15 44/1/15 34/1/15
f 23/1/16 35/1/16 36/1/16 24/1/16
f 30/1/17 40/1/17 41/1/17 31/1/17
f 34/1/18 44/1/18 35/1/18 23/1/18
f 24/1/19 36/1/19 37/1/19 25/1/19
f 24/1/20 25/1/20 26/1/20 27/1/20 28/1/20 29/1/20 30/1/20 31/1/20 32/1/20 33/1/20 34/1/20 23/1/20
f 4/1/21 5/1/21 27/1/21 26/1/21
f 5/1/22 6/1/22 28/1/22 27/1/22
f 6/1/23 7/1/23 29/1/23 28/1/23
f 13/1/24 14/1/24 36/1/24 35/1/24
f 14/1/24 15/1/24 37/1/24 36/1/24
f 15/1/24 16/1/24 38/1/24 37/1/24
f 17/1/24 18/1/24 40/1/24 39/1/24
f 18/1/24 19/1/24 41/1/24 40/1/24
f 19/1/24 20/1/24 42/1/24 41/1/24
f 20/1/24 21/1/24 43/1/24 42/1/24
f 21/1/24 22/1/24 44/1/24 43/1/24
f 22/1/24 13/1/24 35/1/24 44/1/24
f 16/1/25 4/1/25 26/1/25 38/1/25
f 7/1/26 17/1/26 39/1/26 29/1/26
