# Blender 3.6.0
# www.blender.org
mtllib sorting_desk.mtl
o SortingDesk
v -0.175790 0.325737 0.475283
v 0.121157 0.325737 0.475283
v -0.175790 0.325737 -0.472490
v 0.121157 0.325737 -0.472490
v -0.129299 0.315737 -0.427940
v 0.121157 0.315737 -0.427940
v -0.129299 -0.000039 -0.427940
v 0.080313 -0.000039 -0.427940
v 0.080313 0.259665 -0.427940
v -0.129299 0.259665 -0.427940
v -0.129299 0.315737 0.441488
v 0.121157 0.315737 0.441488
v -0.129299 -0.000039 0.441488
v 0.080313 -0.000039 0.441488
v 0.080313 0.259665 0.441488
v -0.129299 0.259665 0.441488
v 0.121157 0.345737 0.475283
v 0.121157 0.345737 -0.472490
v -0.175790 0.315737 0.475283
v 0.128228 0.318666 0.475283
v -0.175790 0.315737 -0.472490
v 0.128228 0.318666 -0.472490
v -0.129299 0.315737 -0.437940
v 0.121157 0.315737 -0.437940
v -0.129299 -0.000039 -0.437940
v 0.080313 -0.000039 -0.437940
v 0.080313 0.259665 -0.437940
v -0.129299 0.259665 -0.437940
v -0.129299 0.315737 0.431488
v 0.121157 0.315737 0.431488
v -0.129299 -0.000039 0.431488
v 0.080313 -0.000039 0.431488
v 0.080313 0.259665 0.431488
v -0.129299 0.259665 0.431488
v 0.131157 0.345737 0.475283
v 0.131157 0.345737 -0.472490
vn -0.0000 1.0000 -0.0000
vn -0.0000 -0.0000 1.0000
vn -1.0000 -0.0000 -0.0000
vn 0.0096 -1.0000 -0.0000
vn -0.0000 -0.0000 -1.0000
vn 0.9942 -0.1076 -0.0000
vn -0.0000 -1.0000 -0.0000
vn 0.8083 -0.5888 -0.0000
vn 1.0000 -0.0000 -0.0000
vt 0.269408 0.989076
vt 0.010924 0.989076
vt 0.010924 0.010924
vt 0.269408 0.010924
vt 0.559285 0.333410
vt 0.559285 0.549740
vt 0.291257 0.549740
vt 0.291257 0.333410
vt 0.627475 0.291257
vt 0.627475 0.549740
vt 0.559285 0.053077
vt 0.559285 0.269408
vt 0.291257 0.269408
vt 0.291257 0.053077
vt 0.627475 0.010924
vt 0.627475 0.269408
s 0
usemtl Desk
f 1/1/1 2/2/1 4/3/1 3/4/1
f 9/5/2 10/6/2 7/7/2 8/8/2
f 6/9/2 5/10/2 10/6/2 9/5/2
f 15/11/2 16/12/2 13/13/2 14/14/2
f 12/15/2 11/16/2 16/12/2 15/11/2
f 4/3/3 2/2/3 17/2/3 18/3/3
f 19/1/4 21/4/4 22/3/4 20/2/4
f 27/5/5 26/8/5 25/7/5 28/6/5
f 24/9/5 27/5/5 28/6/5 23/10/5
f 33/11/5 32/14/5 31/13/5 34/12/5
f 30/15/5 33/11/5 34/12/5 29/16/5
f 22/3/6 36/3/6 35/2/6 20/2/6
usemtl CardboardSide
f 1/1/3 3/4/3 21/4/3 19/1/3
f 2/2/2 1/1/2 19/1/2 20/2/2
f 3/4/5 4/3/5 22/3/5 21/4/5
f 5/10/1 6/9/1 24/9/1 23/10/1
f 8/8/7 7/7/7 25/7/7 26/8/7
f 6/9/8 9/5/8 27/5/8 24/9/8
f 7/7/3 10/6/3 28/6/3 25/7/3
f 9/5/9 8/8/9 26/8/9 27/5/9
f 10/6/3 5/10/3 23/10/3 28/6/3
f 11/16/1 12/15/1 30/15/1 29/16/1
f 14/14/7 13/13/7 31/13/7 32/14/7
f 12/15/8 15/11/8 33/11/8 30/15/8
f 13/13/3 16/12/3 34/12/3 31/13/3
f 15/11/9 14/14/9 32/14/9 33/11/9
f 16/12/3 11/16/3 29/16/3 34/12/3
f 18/3/1 17/2/1 35/2/1 36/3/1
f 4/3/5 18/3/5 36/3/5 22/3/5
f 17/2/2 2/2/2 20/2/2 35/2/2
