# Blender 3.6.0
# www.blender.org
mtllib stool.mtl
o Stool
v -0.083990 0.200000 0.083990
v 0.083990 0.200000 0.083990
v -0.077416 0.153300 -0.078043
v -0.077416 0.153547 0.078927
v 0.077416 0.153547 0.078927
v 0.077416 0.153300 -0.078043
v 0.083990 0.200000 -0.027997
v 0.083990 0.200000 0.027997
v -0.080680 0.149678 -0.077416
v -0.080680 0.149678 0.077416
v -0.083990 0.200000 0.027997
v -0.083990 0.200000 -0.027997
v 0.082033 0.149608 -0.077416
v 0.081935 0.199830 -0.082413
v 0.082033 0.149608 0.077416
v 0.082033 0.149608 -0.025805
v 0.082033 0.149608 0.025805
v -0.080680 0.149678 0.025805
v -0.081935 0.199830 -0.082413
v -0.083990 0.200000 -0.083990
v -0.080680 0.149678 -0.025805
v 0.083990 0.200000 -0.083990
v 0.060940 0.154636 -0.025805
v 0.060940 0.154636 0.025805
v -0.059587 0.154706 0.025805
v -0.059587 0.154706 -0.025805
v 0.083990 0.150000 -0.083990
v -0.083990 0.150000 -0.083990
v 0.083990 -0.069026 -0.083990
v -0.083990 -0.069026 -0.083990
v 0.083990 0.150000 0.083990
v -0.083990 0.150000 0.083990
v 0.083990 -0.069026 0.083990
v -0.083990 -0.069026 0.083990
v 0.041021 0.044156 0.081090
v 0.041021 0.075985 0.081090
v 0.041021 0.044156 -0.081090
v 0.041021 0.075985 -0.081090
v -0.041580 0.075985 0.081090
v -0.041580 0.044156 0.081090
v -0.041580 0.075985 -0.081090
v -0.041580 0.044156 -0.081090
v -0.083990 0.075985 0.057732
v -0.066042 0.075985 0.081029
v -0.081586 0.075985 0.068798
v -0.075016 0.075985 0.077325
v -0.066042 0.044156 0.081029
v -0.083990 0.044156 0.057732
v -0.075016 0.044156 0.077325
v -0.081586 0.044156 0.068798
v -0.066042 0.075985 -0.081029
v -0.083990 0.075985 -0.057732
v -0.075016 0.075985 -0.077325
v -0.081586 0.075985 -0.068798
v -0.083990 0.044156 -0.057732
v -0.066042 0.044156 -0.081029
v -0.081586 0.044156 -0.068798
v -0.075016 0.044156 -0.077325
v 0.083432 0.075985 -0.057732
v 0.065483 0.075985 -0.081029
v 0.081027 0.075985 -0.068798
v 0.074457 0.075985 -0.077325
v 0.065483 0.044156 -0.081029
v 0.083432 0.044156 -0.057732
v 0.074457 0.044156 -0.077325
v 0.081027 0.044156 -0.068798
v 0.065483 0.075985 0.081029
v 0.083432 0.075985 0.057732
v 0.074457 0.075985 0.077325
v 0.081027 0.075985 0.068798
v 0.083432 0.044156 0.057732
v 0.065483 0.044156 0.081029
v 0.081027 0.044156 0.068798
v 0.074457 0.044156 0.077325
vn -0.0000 -1.0000 0.0016
vn -0.0000 -0.0935 -0.9956
vn -0.0000 -0.1084 0.9941
vn -0.0000 1.0000 -0.0000
vn -0.9978 -0.0656 -0.0000
vn 0.9992 -0.0388 -0.0000
vn 0.2319 -0.9727 -0.0000
vn -0.2319 -0.9727 -0.0000
vn -0.0000 -0.0000 -1.0000
vn -0.0000 -0.0000 1.0000
vn -0.0025 -0.0000 -1.0000
vn 0.0025 -0.0000 1.0000
vn -1.0000 -0.0000 -0.0000
vn -0.3815 -0.0000 0.9244
vn -0.7922 -0.0000 0.6103
vn -0.9772 -0.0000 0.2124
vn -0.9772 -0.0000 -0.2124
vn -0.7922 -0.0000 -0.6103
vn -0.3815 -0.0000 -0.9244
vn -0.0025 -0.0000 1.0000
vn 1.0000 -0.0000 -0.0000
vn 0.3815 -0.0000 -0.9244
vn 0.7922 -0.0000 -0.6103
vn 0.9772 -0.0000 -0.2124
vn 0.9772 -0.0000 0.2124
vn 0.7922 -0.0000 0.6103
vn 0.3815 -0.0000 0.9244
vn 0.0025 -0.0000 -1.0000
vt 0.637529 0.388459
vt 0.385591 0.388459
vt 0.385591 0.139952
vt 0.637529 0.139952
vt 0.310580 0.395713
vt 0.310580 0.132699
vt 0.712528 0.129401
vt 0.712528 0.399011
vt 0.892268 0.129401
vt 0.982139 0.129401
vt 0.982139 0.399011
vt 0.892268 0.399011
vt 0.805916 0.479952
vt 0.723080 0.479952
vt 0.802398 0.399011
vt 0.888751 0.048460
vt 0.971587 0.048460
vt 0.723080 0.048460
vt 0.805916 0.048460
vt 0.802398 0.129401
vt 0.971587 0.479952
vt 0.888751 0.479952
vt 0.888751 0.514755
vt 0.805916 0.514755
vt 0.805916 0.013656
vt 0.888751 0.013656
vt 0.283267 0.365195
vt 0.013657 0.365195
vt 0.013657 0.013656
vt 0.283267 0.013656
vt 0.283267 0.634805
vt 0.283267 0.986344
vt 0.013656 0.986344
vt 0.013656 0.634805
vt 0.637231 0.671553
vt 0.637231 0.620467
vt 0.676492 0.620467
vt 0.676492 0.671553
vt 0.637231 0.593154
vt 0.637231 0.542068
vt 0.676492 0.542068
vt 0.676492 0.593154
vt 0.400875 0.620467
vt 0.586197 0.620467
vt 0.586197 0.671553
vt 0.400875 0.671553
vt 0.349841 0.671553
vt 0.349841 0.620467
vt 0.365424 0.620467
vt 0.365424 0.671553
vt 0.382701 0.620467
vt 0.382701 0.671553
vt 0.604371 0.620467
vt 0.604371 0.671553
vt 0.621648 0.620467
vt 0.621648 0.671553
vt 0.310580 0.671553
vt 0.310580 0.620467
vt 0.400875 0.542068
vt 0.586197 0.542068
vt 0.586197 0.593154
vt 0.400875 0.593154
vt 0.349841 0.593154
vt 0.349841 0.542068
vt 0.365424 0.542068
vt 0.365424 0.593154
vt 0.382701 0.542068
vt 0.382701 0.593154
vt 0.604371 0.542068
vt 0.604371 0.593154
vt 0.621648 0.542068
vt 0.621648 0.593154
vt 0.310580 0.593154
vt 0.310580 0.542068
s 0
usemtl Stool
f 4/1/1 3/2/1 6/3/1 5/4/1
f 6/3/2 3/2/2 19/5/2 14/6/2
f 4/1/3 5/4/3 2/7/3 1/8/3
f 7/9/4 22/10/4 20/11/4 12/12/4
f 18/13/5 10/14/5 1/8/5 11/15/5
f 16/16/6 13/17/6 22/10/6 7/9/6
f 15/18/6 17/19/6 8/20/6 2/7/6
f 17/19/6 16/16/6 7/9/6 8/20/6
f 9/21/5 21/22/5 12/12/5 20/11/5
f 21/22/5 18/13/5 11/15/5 12/12/5
f 2/7/4 8/20/4 11/15/4 1/8/4
f 8/20/4 7/9/4 12/12/4 11/15/4
f 18/13/7 21/22/7 26/23/7 25/24/7
f 16/16/8 17/19/8 24/25/8 23/26/8
f 28/27/9 27/28/9 29/29/9 30/30/9
f 32/31/10 34/32/10 33/33/10 31/34/10
f 56/35/11 51/36/11 41/37/11 42/38/11
f 72/39/12 67/40/12 36/41/12 35/42/12
f 43/43/13 52/44/13 55/45/13 48/46/13
f 47/47/14 44/48/14 46/49/14 49/50/14
f 49/50/15 46/49/15 45/51/15 50/52/15
f 50/52/16 45/51/16 43/43/16 48/46/16
f 55/45/17 52/44/17 54/53/17 57/54/17
f 57/54/18 54/53/18 53/55/18 58/56/18
f 58/56/19 53/55/19 51/36/19 56/35/19
f 44/48/20 47/47/20 40/57/20 39/58/20
f 59/59/21 68/60/21 71/61/21 64/62/21
f 63/63/22 60/64/22 62/65/22 65/66/22
f 65/66/23 62/65/23 61/67/23 66/68/23
f 66/68/24 61/67/24 59/59/24 64/62/24
f 71/61/25 68/60/25 70/69/25 73/70/25
f 73/70/26 70/69/26 69/71/26 74/72/26
f 74/72/27 69/71/27 67/40/27 72/39/27
f 60/64/28 63/63/28 37/73/28 38/74/28
f 28/27/4 32/31/4 31/34/4 27/28/4
