<?xml version="1.0" encoding="UTF-8" standalone="no"?>
<!-- Created with Inkscape (http://www.inkscape.org/) -->

<svg
   width="45.999989"
   height="47.999981"
   viewBox="0 0 12.170831 12.699995"
   version="1.1"
   id="svg1"
   inkscape:version="1.3 (0e150ed6c4, 2023-07-21)"
   sodipodi:docname="quest_marker.svg"
   xml:space="preserve"
   xmlns:inkscape="http://www.inkscape.org/namespaces/inkscape"
   xmlns:sodipodi="http://sodipodi.sourceforge.net/DTD/sodipodi-0.dtd"
   xmlns="http://www.w3.org/2000/svg"
   xmlns:svg="http://www.w3.org/2000/svg"><sodipodi:namedview
     id="namedview1"
     pagecolor="#ffffff"
     bordercolor="#666666"
     borderopacity="1.0"
     inkscape:showpageshadow="2"
     inkscape:pageopacity="0.0"
     inkscape:pagecheckerboard="0"
     inkscape:deskcolor="#d1d1d1"
     inkscape:document-units="px"
     inkscape:zoom="8.8089157"
     inkscape:cx="9.4790328"
     inkscape:cy="27.642449"
     inkscape:window-width="1904"
     inkscape:window-height="1006"
     inkscape:window-x="8"
     inkscape:window-y="34"
     inkscape:window-maximized="1"
     inkscape:current-layer="layer1" /><defs
     id="defs1" /><g
     inkscape:label="Layer 1"
     inkscape:groupmode="layer"
     id="layer1"
     transform="translate(-84.13751,-87.841665)"><rect
       style="opacity:1;fill:#aa2a0e;fill-opacity:1;fill-rule:evenodd;stroke-width:0.38477;stroke-linecap:round;stroke-linejoin:round"
       id="rect1"
       width="12.170829"
       height="12.699993"
       x="84.137512"
       y="87.841667"
       ry="2.9104168" /><path
       id="path1"
       style="opacity:1;fill:#fefefe;fill-opacity:1;fill-rule:evenodd;stroke-width:0.264999;stroke-linecap:round;stroke-linejoin:round"
       d="m 90.951306,91.473483 c 1.48e-4,-0.402275 -0.325846,-0.7285 -0.728121,-0.728637 -0.402477,-1.48e-4 -0.728786,0.32616 -0.728638,0.728637 l 0.315227,3.664376 c 5.4e-5,0.228215 0.185196,0.413126 0.413411,0.412895 0.228013,-5.4e-5 0.412841,-0.184882 0.412895,-0.412895 z m -0.728121,4.70824 c -0.402275,-1.48e-4 -0.728501,0.325846 -0.728638,0.728121 -1.48e-4,0.402477 0.326161,0.728786 0.728638,0.728638 0.402275,-1.37e-4 0.728269,-0.326363 0.728121,-0.728638 -1.37e-4,-0.402073 -0.326048,-0.727984 -0.728121,-0.728121 z"
       sodipodi:nodetypes="cccccccccccc" /></g></svg>
