<?xml version="1.0" encoding="UTF-8" standalone="no"?>
<!-- Creator: CorelDRAW 2019 (64-Bit) -->

<svg
   xml:space="preserve"
   width="8.26772in"
   height="11.6929in"
   version="1.1"
   style="shape-rendering:geometricPrecision; text-rendering:geometricPrecision; image-rendering:optimizeQuality; fill-rule:evenodd; clip-rule:evenodd"
   viewBox="0 0 8267.72 11692.91"
   id="svg863"
   sodipodi:docname="MuchahiraPapercraft3.svg"
   inkscape:export-filename="MuchahiraPapercraft3.png"
   inkscape:export-xdpi="150"
   inkscape:export-ydpi="150"
   inkscape:version="1.2.2 (b0a8486541, 2022-12-01)"
   xmlns:inkscape="http://www.inkscape.org/namespaces/inkscape"
   xmlns:sodipodi="http://sodipodi.sourceforge.net/DTD/sodipodi-0.dtd"
   xmlns:xlink="http://www.w3.org/1999/xlink"
   xmlns="http://www.w3.org/2000/svg"
   xmlns:svg="http://www.w3.org/2000/svg"><sodipodi:namedview
   id="namedview865"
   pagecolor="#ffffff"
   bordercolor="#666666"
   borderopacity="1.0"
   inkscape:showpageshadow="2"
   inkscape:pageopacity="0.0"
   inkscape:pagecheckerboard="0"
   inkscape:deskcolor="#d1d1d1"
   inkscape:document-units="in"
   showgrid="false"
   inkscape:zoom="0.77860641"
   inkscape:cx="397.50508"
   inkscape:cy="561.25919"
   inkscape:window-width="1904"
   inkscape:window-height="1006"
   inkscape:window-x="1928"
   inkscape:window-y="34"
   inkscape:window-maximized="1"
   inkscape:current-layer="Layer_x0020_1" />
 <defs
   id="defs519">
  <style
   type="text/css"
   id="style511">
   <![CDATA[
    .str12 {stroke:#D29572;stroke-width:39.37;stroke-miterlimit:2.61313}
    .str7 {stroke:#96989A;stroke-width:19.69;stroke-miterlimit:2.61313}
    .str13 {stroke:#FEC6BE;stroke-width:19.69;stroke-miterlimit:2.61313}
    .str8 {stroke:#DDDEDF;stroke-width:7.87;stroke-miterlimit:2.61313}
    .str6 {stroke:#96989A;stroke-width:7.87;stroke-miterlimit:2.61313}
    .str1 {stroke:#82C3A3;stroke-width:7.87;stroke-miterlimit:2.61313}
    .str5 {stroke:#99E5C4;stroke-width:7.87;stroke-miterlimit:2.61313}
    .str2 {stroke:#F7718B;stroke-width:7.87;stroke-miterlimit:2.61313}
    .str4 {stroke:#FAD236;stroke-width:7.87;stroke-miterlimit:2.61313}
    .str9 {stroke:#DDDEDF;stroke-width:6.94;stroke-miterlimit:2.61313}
    .str3 {stroke:#96989A;stroke-width:3;stroke-miterlimit:2.61313}
    .str11 {stroke:#373435;stroke-width:3;stroke-miterlimit:2.61313}
    .str0 {stroke:black;stroke-width:3;stroke-miterlimit:2.61313}
    .str10 {stroke:#EF0085;stroke-width:3;stroke-miterlimit:2.61313}
    .fil0 {fill:none}
    .fil4 {fill:#FEFEFE}
    .fil15 {fill:#606062}
    .fil12 {fill:#4B4B4D}
    .fil17 {fill:#4B4B4D}
    .fil18 {fill:#373435}
    .fil19 {fill:#A3918C}
    .fil16 {fill:#796655}
    .fil2 {fill:#8C7764}
    .fil6 {fill:#99E5C4}
    .fil5 {fill:#B5EDD4}
    .fil20 {fill:#C4F0DD}
    .fil8 {fill:#D29572}
    .fil7 {fill:#DDB097}
    .fil22 {fill:#F6BFC2}
    .fil9 {fill:#F999AC}
    .fil13 {fill:#FAA3B4}
    .fil21 {fill:#FAAFBF}
    .fil14 {fill:#FCDE6A}
    .fil1 {fill:#FEF2DC}
    .fil24 {fill:#FFAAB6}
    .fil23 {fill:#FFFCE9}
    .fil3 {fill:white}
    .fil11 {fill:#F7718B;fill-rule:nonzero}
    .fil10 {fill:#F999AC;fill-rule:nonzero}
   ]]>
  </style>
   <clipPath
   id="id0">
    <path
   d="M438.12 6291.18l139.79 -4.68 0 148.68 -139.79 4.68 0 -148.68z"
   id="path513" />
   </clipPath>
    <clipPath
   id="id1">
     <path
   d="M1190.06 6291.18l139.79 -4.68 0 148.68 -139.79 4.68 0 -148.68z"
   id="path516" />
    </clipPath>
 </defs>
 <g
   id="Layer_x0020_1"
   inkscape:label="Layer 1">
  <metadata
   id="CorelCorpID_0Corel-Layer" />
  <path
   class="fil0 str0"
   d="M756.54 5948.41l-76.46 0c25.49,-63.72 38.23,-178.42 -89.21,-178.42l-101.96 0c-127.45,0 -114.7,114.7 -89.21,178.42l-140.19 0 0 2434.22 140.19 0c-50.98,101.96 0,191.17 89.21,203.91l101.96 0c89.21,0 127.44,-101.96 89.21,-203.91l76.46 0 0 -2434.22zm254.89 0l76.47 0c-25.49,-63.72 -38.24,-178.42 89.21,-178.42l101.96 0c127.44,0 114.7,114.7 89.21,178.42l140.19 0 0 2434.22 -140.19 0c50.98,101.96 0,191.17 -89.21,203.91l-101.96 0c-89.21,0 -127.45,-101.96 -89.21,-203.91l-76.47 0 0 -2434.22z"
   id="path522" />
  <path
   class="fil1"
   d="M170.28 5871.94l662.72 0 0 2587.16 -662.72 0 0 -2587.16zm764.68 0l649.98 0 0 2587.16 -649.98 0 0 -2587.16z"
   id="path524" />
  <path
   class="fil2"
   d="M170.28 7057.19l662.72 0 0 777.42 -662.72 0 0 -777.42zm764.68 0l649.98 0 0 777.42 -649.98 0 0 -777.42z"
   id="path526" />
  <path
   class="fil3"
   d="M170.28 6343.5l662.72 0 0 713.7 -662.72 0 0 -713.7zm764.68 0l649.98 0 0 713.7 -649.98 0 0 -713.7z"
   id="path528" />
  <path
   class="fil0 str0"
   d="M1011.43 7171.89l497.04 0m-1248.97 0l497.04 0m-497.04 -637.23l497.04 0m254.89 0l497.04 0m-1248.97 1299.95l497.04 0m254.89 0l497.04 0"
   id="path530" />
  <path
   class="fil1"
   d="M170.28 5871.94l662.72 0 0 2587.16 -662.72 0 0 -2587.16zm764.68 0l649.98 0 0 2587.16 -649.98 0 0 -2587.16z"
   id="path532" />
  <path
   class="fil3"
   d="M170.28 6343.5l662.72 0 0 713.7 -662.72 0 0 -713.7zm764.68 -478.35l649.98 0 0 1192.05 -649.98 0 0 -1192.05z"
   id="path534" />
  <polygon
   class="fil1"
   points="501.65,914.29 501.65,5285.7 1164.37,5285.7 1164.37,914.29 "
   id="polygon536" />
  <polygon
   class="fil4"
   points="501.65,1296.63 501.65,4903.36 1164.37,4903.36 1164.37,1296.63 "
   id="polygon538" />
  <g
   id="_2367560112224">
   <line
   class="fil0 str0"
   x1="3050.57"
   y1="1627.99"
   x2="3458.39"
   y2="1627.99"
   id="line540" />
   <path
   class="fil5"
   d="M2427.12 2759.52c-54,88.24 -146.54,170.98 -223.91,230.04 -89.43,68.28 -237.15,163.32 -348.91,183.65l-84.13 15.3 -10.61 -84.85c-38.34,-306.68 113.22,-732.56 295.93,-976.19 97.41,-129.88 245.33,-225.11 393.43,-287.31 188.81,-79.3 397.41,-114.64 601.64,-114.64l407.83 0c202.61,0 408.99,34.8 595.81,114.87 146.75,62.89 289.83,158.17 386.51,287.08 182.33,243.1 321.3,671.3 283.19,976.18l-10.79 86.35 -85.33 -17.07c-106.1,-21.22 -251.46,-118.22 -335.67,-184.61 -74.21,-58.5 -163.55,-141 -212.82,-229.27 -361.02,-65.68 -682.74,-341.09 -803.14,-687.96 -14.43,1.34 -28.89,1.34 -43.33,0 -120.68,347.69 -443.64,623.59 -805.7,688.43z"
   id="path542" />
   <path
   class="fil5 str1"
   d="M2427.12 496.46c362.06,64.83 685.02,340.73 805.7,688.43 14.43,-1.34 28.89,-1.34 43.33,0 120.39,-346.87 442.11,-622.29 803.14,-687.96 49.27,-88.28 138.61,-170.77 212.82,-229.27 84.21,-66.39 229.57,-163.39 335.67,-184.61l85.33 -17.07 10.79 86.35c38.11,304.89 -100.86,733.08 -283.19,976.18 -96.68,128.91 -239.76,224.19 -386.51,287.08 -186.82,80.07 -393.2,114.87 -595.81,114.87l-407.83 0c-204.23,0 -412.83,-35.34 -601.64,-114.64 -148.09,-62.2 -296.01,-157.43 -393.43,-287.31 -182.72,-243.62 -334.27,-669.51 -295.93,-976.19l10.61 -84.85 84.13 15.3c111.77,20.32 259.48,115.37 348.91,183.65 77.37,59.07 169.9,141.8 223.91,230.04zm1061.19 813.5c9.46,14.31 17.46,29.46 24.04,45.36 137.04,-34.98 231.54,-125.61 298.76,-246.08 -128.63,21.93 -234.18,98.57 -322.8,200.72zm-804.69 -200.72c67.22,120.47 161.72,211.09 298.76,246.08 6.59,-15.89 14.58,-31.05 24.04,-45.36 -88.62,-102.15 -194.17,-178.79 -322.8,-200.72z"
   id="path544" />
   <path
   class="fil0 str0"
   d="M1839.83 162.36c-38.24,305.87 127.44,700.96 280.38,917.61 152.93,203.91 497.04,369.59 930.35,369.59l0 356.85c-433.31,0 -777.42,165.68 -930.35,369.59 -152.94,203.91 -318.62,611.74 -280.38,917.61 140.19,-25.49 458.8,-242.15 535.27,-407.83 382.34,-50.98 713.7,-356.85 802.91,-713.7 50.98,25.49 101.96,25.49 152.93,0 89.21,356.85 420.57,662.72 802.91,713.7 63.72,165.68 382.33,382.34 509.78,407.83 38.23,-305.87 -114.7,-713.7 -267.64,-917.61 -152.94,-203.91 -484.29,-369.59 -917.61,-369.59l0 -356.85c433.32,0 764.67,-165.68 917.61,-369.59 152.94,-216.66 305.87,-611.74 267.64,-917.61 -127.45,25.49 -446.06,229.41 -509.78,395.08 -382.33,63.72 -713.7,356.85 -802.91,713.7 -50.98,-12.74 -101.96,-12.74 -152.93,0 -89.21,-356.85 -420.57,-649.98 -802.91,-713.7 -76.47,-165.68 -395.08,-369.59 -535.27,-395.08z"
   id="path546" />
   <g
   id="g552">
    <path
   class="fil6"
   d="M3112.61 1298.85c-40.43,32.04 -64.16,77.19 -71.18,135.42 -224.79,-25.06 -386.83,-166.26 -486.11,-423.61 210.85,-19.4 396.62,76.66 557.29,288.19z"
   id="path548" />
    <path
   class="fil6"
   d="M3382.11 1298.85c40.43,32.04 64.16,77.19 71.18,135.42 224.79,-25.06 386.83,-166.26 486.11,-423.61 -210.85,-19.4 -396.62,76.66 -557.29,288.19z"
   id="path550" />
   </g>
   <g
   id="g558">
    <path
   class="fil6"
   d="M3112.61 1943.39c-40.43,-32.04 -64.16,-77.19 -71.18,-135.42 -224.79,25.06 -386.83,166.26 -486.11,423.61 210.85,19.4 396.62,-76.66 557.29,-288.19z"
   id="path554" />
    <path
   class="fil6"
   d="M3382.11 1943.39c40.43,-32.04 64.16,-77.19 71.18,-135.42 224.79,25.06 386.83,166.26 486.11,423.61 -210.85,19.4 -396.62,-76.66 -557.29,-288.19z"
   id="path556" />
   </g>
  </g>
  <g
   id="_2367560109856">
   <path
   class="fil7"
   d="M5714.19 1729.95c-63.72,0 -127.44,12.74 -178.43,50.98 140.19,140.19 -25.49,484.3 -395.08,624.49l0 1338.19 0 25.49 0 1350.93c369.59,127.44 535.28,471.55 395.08,611.74 152.94,101.96 318.61,89.21 484.3,-114.7 267.64,0 407.83,-165.68 522.53,-356.85 114.7,191.17 254.89,356.85 535.27,356.85 152.94,203.91 318.62,216.66 484.3,114.7 -152.93,-140.19 12.74,-484.3 395.08,-611.74l0 -1350.93 0 -25.49 0 -1338.19c-382.34,-140.19 -548.02,-484.3 -395.08,-624.49 -63.72,-38.23 -127.44,-50.98 -191.17,-50.98 -101.96,0 -191.17,50.98 -293.13,178.42 -280.38,0 -420.57,152.94 -535.27,344.11 -114.7,-191.17 -254.89,-344.11 -522.53,-344.11 -101.96,-127.44 -203.91,-178.42 -305.87,-178.42zm828.4 1338.19l63.72 101.96 -63.72 114.7 -63.72 -114.7 63.72 -101.96zm0 1172.5l63.72 101.96 -63.72 114.7 -63.72 -114.7 63.72 -101.96z"
   id="path561" />
   <path
   class="fil8"
   d="M5714.19 1729.95c-50.98,0 -114.7,25.49 -178.43,63.72l114.7 25.49c101.96,38.23 152.94,114.7 165.68,229.4 50.98,-25.49 101.96,-38.23 152.94,-50.98l50.98 -89.21c-101.96,-114.7 -203.91,-178.42 -305.87,-178.42zm1656.8 0c-101.96,0 -203.91,63.72 -293.13,178.42l38.24 89.21c50.98,12.75 101.96,25.49 152.93,50.98 12.74,-114.7 63.72,-191.17 165.68,-229.4l127.44 -25.49c-63.72,-38.23 -127.44,-63.72 -191.17,-63.72zm-943.1 356.85l-38.23 76.47c140.19,458.81 -50.98,866.63 -318.61,1006.83 509.78,242.15 509.78,930.35 0,1185.25 267.63,140.19 458.8,548.02 318.61,1006.82l38.23 63.72c50.98,-50.98 89.21,-101.96 114.7,-165.68 38.23,63.72 63.72,114.7 114.7,165.68l38.23 -63.72c-127.44,-458.8 50.98,-866.63 318.62,-1006.82 -509.79,-254.89 -509.79,-943.1 0,-1185.25 -267.64,-140.19 -446.06,-548.02 -318.62,-1006.83l-38.23 -76.47c-50.98,50.98 -76.47,114.7 -114.7,165.68 -25.49,-50.98 -63.72,-114.7 -114.7,-165.68zm114.7 981.34l63.72 101.96 -63.72 114.7 -63.72 -114.7 63.72 -101.96zm0 1172.5l63.72 101.96 -63.72 114.7 -63.72 -114.7 63.72 -101.96zm-726.44 1223.48c-12.74,127.44 -63.72,203.91 -165.68,229.4l-114.7 38.23c165.68,114.7 331.36,63.72 484.3,-114.7l-50.98 -89.21c-50.98,-12.74 -101.96,-25.49 -152.94,-63.72zm1452.89 0c-50.98,38.23 -101.96,50.98 -152.93,63.72l-38.24 89.21c140.19,178.43 305.87,229.4 484.3,114.7l-127.44 -38.23c-101.96,-25.49 -152.94,-101.96 -165.68,-229.4z"
   id="path563" />
   <path
   class="fil0 str0"
   d="M6542.59 2507.37l0 305.87m0 764.68l0 369.59m0 751.93l0 318.61"
   id="path565" />
   <path
   class="fil0 str0"
   d="M6542.59 2813.24c-25.49,140.19 -76.47,254.89 -152.94,356.85 76.47,114.7 127.44,254.89 152.94,407.83 25.49,-152.94 76.46,-293.13 152.93,-407.83 -76.47,-101.96 -127.44,-216.66 -152.93,-356.85zm0 1134.27c-25.49,140.19 -76.47,280.38 -152.94,407.83 76.47,101.96 127.44,216.66 152.94,344.11 25.49,-127.45 76.46,-242.15 152.93,-344.11 -76.47,-127.44 -127.44,-267.64 -152.93,-407.83zm-828.4 -2141.1c-25.49,0 -38.23,0 -63.72,12.75 114.7,152.93 -178.43,535.27 -433.31,637.23l0 535.28c-89.21,-50.98 -203.91,-12.74 -203.91,89.21l0 178.43c0,101.96 101.96,127.44 203.91,89.21l0 815.66c-101.96,-50.98 -203.91,-12.74 -203.91,89.21l0 178.43c12.74,101.96 127.44,127.44 203.91,89.21l0 535.27c242.15,101.96 535.27,471.55 433.31,637.23 114.7,50.98 242.15,-38.23 318.62,-165.68 280.38,38.24 509.78,-165.68 573.51,-509.78 63.72,344.1 305.87,548.02 573.51,509.78 76.46,127.45 203.91,216.66 318.61,165.68 -101.96,-165.68 191.17,-535.28 433.31,-637.23l0 -535.27c76.47,38.23 203.92,12.74 203.92,-89.21l0 -178.43c0,-101.96 -101.96,-140.19 -203.92,-89.21l0 -815.66c101.96,38.24 203.92,12.75 203.92,-89.21l0 -178.43c0,-101.96 -114.7,-140.19 -203.92,-89.21l0 -535.28c-254.89,-101.96 -535.27,-484.3 -433.31,-637.23 -114.7,-50.98 -242.15,25.49 -318.61,165.68 -344.11,-50.98 -535.28,280.38 -573.51,522.53 -38.24,-242.15 -216.66,-573.51 -573.51,-522.53 -63.72,-114.7 -152.94,-178.43 -254.89,-178.43z"
   id="path567" />
  </g>
  <polygon
   class="fil5"
   points="1164.36,4903.36 1164.36,4711.27 501.64,4711.27 501.65,4903.36 "
   id="polygon570" />
  <polygon
   class="fil9"
   points="1164.36,4829.12 1164.36,4785.51 501.64,4785.51 501.63,4829.12 "
   id="polygon572" />
  <rect
   class="fil5"
   x="705.1"
   y="3100"
   width="268.56"
   height="1611.27"
   id="rect574" />
  <g
   id="_2367560103072">
   <polygon
   class="fil9 str2"
   points="970.3,3785.25 970.3,3834.87 708.46,3702.17 708.46,3652.55 "
   id="polygon576" />
   <polygon
   class="fil9 str2"
   points="970.3,3652.55 970.3,3702.17 708.46,3569.47 708.46,3519.85 "
   id="polygon578" />
   <polygon
   class="fil9 str2"
   points="970.3,3519.85 970.3,3569.47 708.46,3702.17 708.46,3652.55 "
   id="polygon580" />
   <polygon
   class="fil9 str2"
   points="970.3,3917.95 970.3,3967.56 708.46,3834.87 708.46,3785.25 "
   id="polygon582" />
   <polygon
   class="fil9 str2"
   points="970.3,3652.55 970.3,3702.17 708.46,3834.87 708.46,3785.25 "
   id="polygon584" />
   <polygon
   class="fil9 str2"
   points="970.3,4050.65 970.3,4100.26 708.46,3967.57 708.46,3917.95 "
   id="polygon586" />
   <polygon
   class="fil9 str2"
   points="970.3,4183.35 970.3,4232.96 708.46,4100.26 708.46,4050.65 "
   id="polygon588" />
   <path
   class="fil9 str2"
   d="M888.33 4274.5l-38.88 19.7c-7.1,-0.53 -13.85,-0.54 -20.23,-0.04l-120.76 -61.2 0 -49.62 179.87 91.16z"
   id="path590" />
   <path
   class="fil9 str2"
   d="M970.3 4183.35l0 49.62 -120.85 61.24c-7.1,-0.53 -13.85,-0.54 -20.23,-0.04l-38.8 -19.67 179.87 -91.16z"
   id="path592" />
   <polygon
   class="fil9 str2"
   points="970.3,3785.25 970.3,3834.87 708.46,3967.56 708.46,3917.95 "
   id="polygon594" />
   <polygon
   class="fil9 str2"
   points="970.3,3917.95 970.3,3967.57 708.46,4100.26 708.46,4050.65 "
   id="polygon596" />
   <polygon
   class="fil9 str2"
   points="970.3,4050.65 970.3,4100.26 708.46,4232.96 708.46,4183.35 "
   id="polygon598" />
   <path
   class="fil10"
   d="M875.41 4268.38l-37.68 25.43c-2.62,0.02 -5.18,0.12 -7.69,0.3l-121.58 -61.14 48.95 -24.81 117.99 60.22z"
   id="path600" />
   <path
   class="fil11"
   d="M877.61 4271.64l-37.68 25.43 -2.17 0.66 -3.76 0.09 -3.68 0.21 -2.04 -0.41 -123.64 -62.18 0.11 -4.98 52.69 -26.71 125.71 64.17 -5.53 3.73zm-41.12 18.26l31.19 -21.05 -110.28 -56.29 -40.22 20.39 113.67 57.16 5.64 -0.21z"
   id="path602" />
   <path
   class="fil9 str2"
   d="M858.3 4295.12l-0.22 0.11 115.89 227.85 46.67 -23.74 -91.2 -179.3c19.79,7.67 36.78,19.84 47.54,31.69 12.01,9.71 48.04,-6.54 65.54,-25.43l0.07 -0.09 -0.39 0.43c0.32,-0.35 0.62,-0.7 0.9,-1.06 0.24,-0.32 0.47,-0.63 0.67,-0.94l0.01 -0.02c1.68,-2.61 1.94,-5.24 0.79,-7.89 -0.97,-1.83 -2.3,-3.56 -3.98,-5.16 -1.14,-1.04 -2.5,-2.07 -4.06,-3.12l1.26 0.79 -0.23 -0.17c-51.94,-32.45 -109.72,-49.84 -173.35,-52.17 0.07,-0.47 0.15,-0.95 0.23,-1.43 -15.5,-7.12 -34.66,-7.12 -50.15,0 0.08,0.49 0.16,0.98 0.24,1.46 -63.21,2.31 -120.65,19.48 -172.32,51.52 -9.22,6.16 -11.14,12.18 -5.75,18.07 17.81,18.91 54.5,35.36 65.85,25.22 11.47,-14.23 23.72,-20.7 47.7,-32.02l-91.36 179.61 46.68 23.74 115.89 -227.85 -0.32 -0.16c12.3,-1.7 24.88,-1.69 37.17,0.03 0,0 0,-0.01 0,-0.04 0.07,0.02 0.15,0.04 0.22,0.06zm-37.39 -0.05l-0.06 -0.03 -0.19 -0.1 -0.02 -0.08 -0.02 -0.1 0 0 -0.02 -0.11 -0.02 -0.13 0 0 -0.02 -0.15 -0.03 -0.16 -0.03 -0.18 -0.03 -0.19 -0.04 -0.21 -0.04 -0.23 0 0 -0.04 -0.24 -0.04 -0.26 0 0 -0.04 -0.28 0 0 -0.05 -0.29 -0.05 -0.31 -0.06 -0.33 -0.06 -0.34 0 -0 -0.06 -0.35 0 0 -0.06 -0.37 -0.06 -0.39 0 0 -0.06 -0.41 0 -0 -0.07 -0.42 -0.07 -0.44 -0.07 -0.46 -0.07 -0.47 0 0 -0.08 -0.49 0 0 -0.08 -0.5 0 0 -0.08 -0.52 0 0 -0.09 -0.54 -0.09 -0.56 0 0 -0.09 -0.57 0 0 -0.09 -0.58 0 0 -0.1 -0.6 -0.1 -0.62 0 0 -0.1 -0.64 0 0 -0.1 -0.65 -0.11 -0.67 0 -0 -0.11 -0.68 0 0 -0.11 -0.7 0 0 -0.11 -0.72 0 0 -0.12 -0.73 0 0 -0.12 -0.75 0 0 -0.12 -0.76 0 -0 -0.13 -0.78 0 0 -0.13 -0.8 0 0 -0.13 -0.81 -0.13 -0.83 -0.14 -0.85 -0.14 -0.87 -0.14 -0.88 0 0 -0.14 -0.9 -0.15 -0.91 0 0 -0.15 -0.93 -0.15 -0.94 0 0 -0.16 -0.96 0 0 -0.16 -0.98 0 0 -0.16 -1 -0.16 -1.01 -0.17 -1.03 -0.17 -1.04 -0.17 -1.06 -0.17 -1.07 -0.18 -1.09 -0.18 -1.11 6.12 38.01 0.25 0.13z"
   id="path604" />
   <path
   class="fil0 str2"
   d="M864.46 4255.48c-4.61,26.5 -6.38,39.76 -6.38,39.76"
   id="path606" />
   <path
   class="fil9 str2"
   d="M702.34 4351.73c0.34,-0.35 0.69,-0.71 1.03,-1.06l0.05 -0.06 0 0.01c30.69,-31.41 84.04,-46.09 117.6,-55.37 -94.49,11.24 -137.45,27.99 -130.65,51.63 3.5,7.26 6,9.15 11.94,4.89l0.03 -0.03z"
   id="path608" />
   <path
   class="fil9 str2"
   d="M976.98 4351.73c-0.34,-0.35 -0.68,-0.71 -1.03,-1.06l-0.05 -0.06 0 0.01c-30.69,-31.41 -84.04,-46.09 -117.61,-55.37 94.49,11.24 137.45,27.99 130.66,51.63 -3.5,7.26 -6,9.15 -11.94,4.89l-0.03 -0.03z"
   id="path610" />
   <line
   class="fil0 str2"
   x1="839.38"
   y1="4250.14"
   x2="839.38"
   y2="4293.8"
   id="line612" />
  </g>
  <polygon
   class="fil5"
   points="1164.36,1296.63 1164.36,1488.72 501.64,1488.72 501.65,1296.63 "
   id="polygon615" />
  <polygon
   class="fil9"
   points="1164.36,1370.87 1164.36,1414.48 501.64,1414.48 501.63,1370.87 "
   id="polygon617" />
  <rect
   class="fil5"
   x="705.1"
   y="1488.72"
   width="268.56"
   height="1611.27"
   id="rect619" />
  <g
   id="_2367560095744">
   <polygon
   class="fil9 str2"
   points="970.3,2414.74 970.3,2365.12 708.46,2497.82 708.46,2547.44 "
   id="polygon621" />
   <polygon
   class="fil9 str2"
   points="970.3,2547.44 970.3,2497.82 708.46,2630.52 708.46,2680.14 "
   id="polygon623" />
   <polygon
   class="fil9 str2"
   points="970.3,2680.14 970.3,2630.52 708.46,2497.82 708.46,2547.44 "
   id="polygon625" />
   <polygon
   class="fil9 str2"
   points="970.3,2282.04 970.3,2232.43 708.46,2365.12 708.46,2414.74 "
   id="polygon627" />
   <polygon
   class="fil9 str2"
   points="970.3,2547.44 970.3,2497.82 708.46,2365.12 708.46,2414.74 "
   id="polygon629" />
   <polygon
   class="fil9 str2"
   points="970.3,2149.34 970.3,2099.72 708.46,2232.42 708.46,2282.04 "
   id="polygon631" />
   <polygon
   class="fil9 str2"
   points="970.3,2016.64 970.3,1967.02 708.46,2099.72 708.46,2149.34 "
   id="polygon633" />
   <path
   class="fil9 str2"
   d="M888.33 1925.48l-38.88 -19.7c-7.1,0.53 -13.85,0.54 -20.23,0.04l-120.76 61.2 0 49.62 179.87 -91.16z"
   id="path635" />
   <path
   class="fil9 str2"
   d="M970.3 2016.64l0 -49.62 -120.85 -61.24c-7.1,0.53 -13.85,0.54 -20.23,0.04l-38.8 19.67 179.87 91.16z"
   id="path637" />
   <polygon
   class="fil9 str2"
   points="970.3,2414.74 970.3,2365.12 708.46,2232.43 708.46,2282.04 "
   id="polygon639" />
   <polygon
   class="fil9 str2"
   points="970.3,2282.04 970.3,2232.42 708.46,2099.72 708.46,2149.34 "
   id="polygon641" />
   <polygon
   class="fil9 str2"
   points="970.3,2149.34 970.3,2099.72 708.46,1967.02 708.46,2016.64 "
   id="polygon643" />
   <path
   class="fil10"
   d="M875.41 1931.61l-37.68 -25.43c-2.62,-0.02 -5.18,-0.12 -7.69,-0.3l-121.58 61.14 48.95 24.81 117.99 -60.22z"
   id="path645" />
   <path
   class="fil11"
   d="M877.61 1928.35l-37.68 -25.43 -2.17 -0.66 -3.76 -0.09 -3.68 -0.21 -2.04 0.41 -123.64 62.18 0.11 4.98 52.69 26.71 125.71 -64.17 -5.53 -3.73zm-41.12 -18.26l31.19 21.05 -110.28 56.29 -40.22 -20.39 113.67 -57.16 5.64 0.21z"
   id="path647" />
   <path
   class="fil9 str2"
   d="M858.3 1904.87l-0.22 -0.11 115.89 -227.85 46.67 23.74 -91.2 179.3c19.79,-7.67 36.78,-19.84 47.54,-31.69 12.01,-9.71 48.04,6.54 65.54,25.43l0.07 0.09 -0.39 -0.43c0.32,0.35 0.62,0.7 0.9,1.06 0.24,0.32 0.47,0.63 0.67,0.94l0.01 0.02c1.68,2.61 1.94,5.24 0.79,7.89 -0.97,1.83 -2.3,3.56 -3.98,5.16 -1.14,1.04 -2.5,2.07 -4.06,3.12l1.26 -0.79 -0.23 0.17c-51.94,32.45 -109.72,49.84 -173.35,52.17 0.07,0.47 0.15,0.95 0.23,1.43 -15.5,7.12 -34.66,7.12 -50.15,0 0.08,-0.49 0.16,-0.98 0.24,-1.46 -63.21,-2.31 -120.65,-19.48 -172.32,-51.52 -9.22,-6.16 -11.14,-12.18 -5.75,-18.07 17.81,-18.91 54.5,-35.36 65.85,-25.22 11.47,14.23 23.72,20.7 47.7,32.02l-91.36 -179.61 46.68 -23.74 115.89 227.85 -0.32 0.16c12.3,1.7 24.88,1.69 37.17,-0.03 0,0 0,0.01 0,0.04 0.07,-0.02 0.15,-0.04 0.22,-0.06zm-37.39 0.05l-0.06 0.03 -0.19 0.1 -0.02 0.08 -0.02 0.1 0 0 -0.02 0.11 -0.02 0.13 0 0 -0.02 0.15 -0.03 0.16 -0.03 0.18 -0.03 0.19 -0.04 0.21 -0.04 0.23 0 0 -0.04 0.24 -0.04 0.26 0 0 -0.04 0.28 0 0 -0.05 0.29 -0.05 0.31 -0.06 0.33 -0.06 0.34 0 0 -0.06 0.35 0 0 -0.06 0.37 -0.06 0.39 0 0 -0.06 0.41 0 0 -0.07 0.42 -0.07 0.44 -0.07 0.46 -0.07 0.47 0 0 -0.08 0.49 0 0 -0.08 0.5 0 0 -0.08 0.52 0 0 -0.09 0.54 -0.09 0.56 0 0 -0.09 0.57 0 0 -0.09 0.58 0 0 -0.1 0.6 -0.1 0.62 0 0 -0.1 0.64 0 0 -0.1 0.65 -0.11 0.67 0 0 -0.11 0.68 0 0 -0.11 0.7 0 0 -0.11 0.72 0 0 -0.12 0.73 0 0 -0.12 0.75 0 0 -0.12 0.76 0 0 -0.13 0.78 0 0 -0.13 0.8 0 0 -0.13 0.81 -0.13 0.83 -0.14 0.85 -0.14 0.87 -0.14 0.88 0 0 -0.14 0.9 -0.15 0.91 0 0 -0.15 0.93 -0.15 0.94 0 0 -0.16 0.96 0 0 -0.16 0.98 0 0 -0.16 1 -0.16 1.01 -0.17 1.03 -0.17 1.04 -0.17 1.06 -0.17 1.07 -0.18 1.09 -0.18 1.11 6.12 -38.01 0.25 -0.13z"
   id="path649" />
   <path
   class="fil0 str2"
   d="M864.46 1944.51c-4.61,-26.5 -6.38,-39.76 -6.38,-39.76"
   id="path651" />
   <path
   class="fil9 str2"
   d="M702.34 1848.26c0.34,0.35 0.69,0.71 1.03,1.06l0.05 0.06 0 -0.01c30.69,31.41 84.04,46.09 117.6,55.37 -94.49,-11.24 -137.45,-27.99 -130.65,-51.63 3.5,-7.26 6,-9.15 11.94,-4.89l0.03 0.03z"
   id="path653" />
   <path
   class="fil9 str2"
   d="M976.98 1848.26c-0.34,0.35 -0.68,0.71 -1.03,1.06l-0.05 0.06 0 -0.01c-30.69,31.41 -84.04,46.09 -117.61,55.37 94.49,-11.24 137.45,-27.99 130.66,-51.63 -3.5,-7.26 -6,-9.15 -11.94,-4.89l-0.03 0.03z"
   id="path655" />
   <line
   class="fil0 str2"
   x1="839.38"
   y1="1949.85"
   x2="839.38"
   y2="1906.19"
   id="line657" />
  </g>
  <polygon
   class="fil0 str0"
   points="590.86,5234.72 743.79,5030.8 833,5234.72 934.96,5030.8 1087.9,5234.72 1087.9,965.27 934.96,1181.93 833,965.27 743.79,1181.93 590.86,965.27 "
   id="polygon660" />
  <path
   class="fil0 str0"
   d="M590.86 4903.36l497.04 0m-497.04 -1516.61l497.04 0m-497.04 -573.51l497.04 0m-497.04 -1516.61l497.04 0"
   id="path662" />
  <path
   class="fil12"
   d="M393.68 6416.59c-52.38,-19.74 -90.62,-54.43 -112.99,-107.5 -11.41,-25.84 -21.19,49.02 -21.19,-90.93l-76.47 0 0 407.83 76.47 0c18.35,-30.59 71.87,-53.55 116.47,-67.56 3.92,-1.23 -10.46,-12.3 -8.17,-15.82 17.53,-26.92 46.62,-19.92 41.76,4.8 -0.7,3.58 7.24,-1.21 10.91,-1.75 8.96,-1.33 18.1,-2.44 27.32,-3.32 7.15,-0.68 20.34,5.5 21.62,-1.65 14.67,-82.03 60.15,-62.68 81.13,0.73 0.55,1.67 3.5,0.27 5.24,0.41 14.88,1.23 29.52,2.99 43.69,5.24 3.75,0.59 12.68,5.3 11.15,1.89 -19.23,-42.74 28.95,9.28 29.51,9.44 48.76,14.88 105.96,39.65 116.43,67.58l76.47 0 0 -407.83 -76.47 0c0,150.37 -16.95,90.98 -37.82,122.67 -16.3,25.38 -37.48,45.21 -63.2,60.13 -41.96,25.02 -93.4,35.89 -147.5,35.89 -40.57,0 -79.64,-6.39 -114.34,-20.27z"
   id="path664" />
  <path
   class="fil4"
   d="M508.02 6222.83c114.65,0 211.16,58.55 239.83,138.14 -6.64,26.78 -16.55,49.94 -29.13,69.79 -16.3,26.38 -37.48,46.99 -63.2,62.5 -41.96,26.01 -93.4,37.31 -147.5,37.31 -40.57,0 -79.64,-6.64 -114.34,-21.07 -52.38,-20.52 -90.62,-56.57 -112.99,-111.72 -4.9,-11.53 -9.05,-23.89 -12.39,-37.12 28.82,-79.43 125.22,-137.82 239.72,-137.82z"
   id="path666" />
  <path
   class="fil13"
   d="M476.15 6495.33c-67.73,-9.78 -119.61,-35.59 -155.63,-77.44 -0.06,-0.07 -0.13,-0.14 -0.19,-0.21 -7.1,-8.27 -13.58,-17.17 -19.45,-26.69 40.43,-79.54 104.26,-131.75 174.94,-144.15 11.31,-1.98 22.79,-2.95 34.37,-2.85 10.11,0.09 20.13,0.99 30.01,2.67 70.73,12.02 134.58,63.85 175.18,142.79 -7.15,12.22 -15.21,23.42 -24.18,33.6 -0.16,0.17 -0.31,0.35 -0.47,0.53 -35.86,40.41 -86.15,64.58 -150.87,72.54 -10.26,1.26 -20.88,2.11 -31.86,2.56 -10.98,-0.75 -21.61,-1.86 -31.86,-3.34zm-216.66 -249.69c-0.41,-9.15 -0.41,-18.31 0,-27.48l-76.47 0c8.04,47.67 17.1,89.44 27.15,125.33 14.38,51.3 30.82,90.56 49.31,117.77l0 0.76c54.84,70.3 129.9,114.74 210.74,125.35 3.8,0.49 9.45,-41.82 13.28,-41.48 8.73,0.8 8.74,-3.18 17.56,-3.18 8.83,0 22.58,3.74 31.31,2.95 5.44,-0.49 12.84,41.83 18.22,41.04 79,-11.7 152.18,-55.77 205.94,-124.68l0 -0.76c18.5,-27.21 34.93,-66.46 49.31,-117.77 10.06,-35.88 19.11,-77.66 27.15,-125.33l-76.47 0c0.41,9.17 0.41,18.33 0,27.48l0 -11.32c-1.05,18.73 -3.05,36.31 -5.92,52.8 -0.78,4.6 -1.64,9.12 -2.56,13.57 -28.48,-83.65 -109.21,-146.69 -207.85,-158.07 -10.54,-1.22 -21.28,-1.85 -32.19,-1.85 -10.91,0 -21.65,0.63 -32.19,1.85 -99.38,11.47 -180.57,75.37 -208.48,159.96 -4.28,-21.06 -6.9,-43.81 -7.85,-68.25l0 11.32z"
   id="path668" />
  <path
   class="fil0 str3"
   d="M1011.43 7171.89l497.04 0m-1248.97 0l497.04 0m-497.04 -637.23l497.04 0m254.89 0l497.04 0m-1248.97 1299.95l497.04 0m254.89 0l497.04 0"
   id="path670" />
  <g
   id="_2367560088096">
   <polygon
   class="fil14 str4"
   points="638.93,6858.54 638.93,6912.48 377.09,6768.2 377.09,6714.26 "
   id="polygon672" />
   <polygon
   class="fil14 str4"
   points="638.93,6714.26 638.93,6768.2 377.09,6623.93 377.09,6569.98 "
   id="polygon674" />
   <polygon
   class="fil14 str4"
   points="638.93,6569.98 638.93,6623.93 377.09,6768.2 377.09,6714.26 "
   id="polygon676" />
   <polygon
   class="fil14 str4"
   points="638.93,7002.81 638.93,7056.76 377.09,6912.48 377.09,6858.54 "
   id="polygon678" />
   <polygon
   class="fil14 str4"
   points="638.93,6714.26 638.93,6768.2 377.09,6912.48 377.09,6858.54 "
   id="polygon680" />
   <polygon
   class="fil14 str4"
   points="638.93,6858.54 638.93,6912.48 377.09,7056.76 377.09,7002.81 "
   id="polygon682" />
  </g>
  <path
   class="fil15"
   d="M170.28 7057.19l662.72 0 0 777.42 -662.72 0 0 -777.42zm764.68 0l649.98 0 0 777.42 -649.98 0 0 -777.42z"
   id="path685" />
  <g
   id="_2367560086816">
   <g
   id="g695">
    <path
   class="fil14 str4"
   d="M530.85 6588.96l-0.27 0.14 139.89 275.01 56.33 -28.65 -110.08 -216.42c23.89,9.26 44.39,23.95 57.38,38.25 14.5,11.72 57.98,-7.9 79.11,-30.69l0.09 -0.11 -0.48 0.51c0.39,-0.42 0.75,-0.85 1.08,-1.27 0.3,-0.39 0.57,-0.76 0.81,-1.13l0.01 -0.02c2.03,-3.14 2.35,-6.32 0.96,-9.52 -1.17,-2.22 -2.77,-4.29 -4.8,-6.23 -1.38,-1.25 -3.01,-2.5 -4.9,-3.76l1.53 0.95 -0.28 -0.2c-62.69,-39.17 -132.43,-60.16 -209.23,-62.96 0.09,-0.57 0.19,-1.15 0.28,-1.73 -18.7,-8.59 -41.83,-8.59 -60.53,0 0.09,0.59 0.19,1.18 0.28,1.76 -76.3,2.79 -145.63,23.52 -208,62.19 -11.13,7.43 -13.44,14.7 -6.94,21.82 21.5,22.83 65.78,42.68 79.48,30.44 13.84,-17.17 28.63,-24.99 57.57,-38.65l-110.27 216.79 56.33 28.65 139.89 -275.01 -0.38 -0.2c14.84,-2.06 30.03,-2.05 44.87,0.04 0,0 0,-0.02 0.01,-0.05 0.09,0.02 0.17,0.05 0.26,0.07zm-45.13 -0.06l-0.07 -0.03 -0.24 -0.12 -0.02 -0.1 -0.02 -0.11 0 0 -0.02 -0.14 -0.03 -0.15 0 0 -0.03 -0.18 -0.03 -0.19 -0.04 -0.22 -0.04 -0.23 -0.04 -0.26 -0.04 -0.28 0 0 -0.05 -0.29 -0.05 -0.31 0 0 -0.05 -0.33 0 0 -0.06 -0.35 -0.06 -0.37 -0.06 -0.39 -0.07 -0.41 0 0 -0.07 -0.43 0 0 -0.07 -0.45 -0.07 -0.47 0 0 -0.08 -0.49 0 0 -0.08 -0.51 -0.08 -0.53 -0.09 -0.55 -0.09 -0.57 0 0 -0.09 -0.59 0 0 -0.1 -0.61 0 -0 -0.1 -0.63 0 0 -0.1 -0.65 -0.11 -0.67 0 0 -0.11 -0.69 0 0 -0.11 -0.7 0 -0 -0.11 -0.72 -0.12 -0.74 0 -0 -0.12 -0.76 0 0 -0.13 -0.79 -0.13 -0.8 0 0 -0.13 -0.83 0 0 -0.14 -0.84 0 -0 -0.14 -0.86 0 0 -0.14 -0.89 0 0 -0.15 -0.9 0 0 -0.15 -0.93 0 0 -0.15 -0.94 0 0 -0.16 -0.96 0 0 -0.16 -0.98 -0.16 -1 -0.16 -1.02 -0.17 -1.04 -0.17 -1.06 0 0 -0.18 -1.08 -0.18 -1.1 0 0 -0.18 -1.12 -0.19 -1.14 0 0 -0.19 -1.16 0 0 -0.19 -1.18 0 0 -0.19 -1.2 -0.2 -1.22 -0.2 -1.24 -0.2 -1.26 -0.2 -1.28 -0.21 -1.3 -0.21 -1.31 -0.21 -1.34 7.38 45.88 0.3 0.15z"
   id="path687" />
    <path
   class="fil0 str4"
   d="M538.28 6541.11c-5.57,32 -7.7,47.99 -7.7,47.99"
   id="path689" />
    <path
   class="fil14 str4"
   d="M342.61 6657.28c0.41,-0.43 0.82,-0.86 1.24,-1.28l0.06 -0.07 0 0.01c37.04,-37.92 101.44,-55.63 141.95,-66.83 -114.05,13.57 -165.91,33.78 -157.7,62.31 4.22,8.76 7.24,11.05 14.41,5.91l0.04 -0.04z"
   id="path691" />
    <path
   class="fil14 str4"
   d="M674.1 6657.28c-0.41,-0.43 -0.82,-0.86 -1.24,-1.28l-0.06 -0.07 -0 0.01c-37.04,-37.92 -101.44,-55.63 -141.95,-66.83 114.05,13.57 165.91,33.78 157.7,62.31 -4.22,8.76 -7.24,11.05 -14.41,5.91l-0.04 -0.04z"
   id="path693" />
   </g>
  </g>
  <path
   class="fil16"
   d="M170.28 7605.21l662.72 0 0 229.4 -662.72 0 0 -229.4zm764.68 0l649.98 0 0 229.4 -649.98 0 0 -229.4z"
   id="path698" />
  <path
   class="fil17"
   d="M170.28 7605.21l662.72 0 0 229.4 -662.72 0 0 -229.4zm764.68 0l649.98 0 0 229.4 -649.98 0 0 -229.4z"
   id="path700" />
  <g
   style="clip-path:url(#id0)"
   clip-path="url(#id0)"
   id="g704">
   <image
   x="438.12"
   y="6291.19"
   width="546.61"
   height="148.67"
   xlink:href="MuchahiraPapercraft3_Images%5CMuchahiraPapercraft3_ImgID1.png"
   id="image702" />
  </g>
  <path
   class="fil0 str3"
   d="M756.54 5948.41l-76.46 0c25.49,-63.72 38.23,-178.42 -89.21,-178.42l-101.96 0c-127.45,0 -114.7,114.7 -89.21,178.42l-140.19 0 0 2434.22 140.19 0c-50.98,101.96 0,191.17 89.21,203.91l101.96 0c89.21,0 127.44,-101.96 89.21,-203.91l76.46 0 0 -2434.22zm254.89 0l76.47 0c-25.49,-63.72 -38.24,-178.42 89.21,-178.42l101.96 0c127.44,0 114.7,114.7 89.21,178.42l140.19 0 0 2434.22 -140.19 0c50.98,101.96 0,191.17 -89.21,203.91l-101.96 0c-89.21,0 -127.45,-101.96 -89.21,-203.91l-76.47 0 0 -2434.22z"
   id="path706" />
  <g
   id="_2367560072128">
   <path
   class="fil5"
   d="M6542.59 9695.33l1414.65 484.3 0 -1593.08 -522.53 -904.87 -76.47 12.74 -140.19 -76.47 -25.49 25.49 -216.66 -127.44 0 -38.23 -497.04 -293.13 -38.23 25.49 -216.66 -127.45 0 -50.98 -127.44 -76.47 -25.49 -76.47 -1121.53 -12.74 267.64 1554.84 484.3 12.74 548.02 318.62 114.7 191.17c-101.96,25.49 -152.94,89.21 -178.43,203.91l0 382.34c38.23,178.43 140.19,267.64 356.85,165.68z"
   id="path708" />
   <path
   class="fil4"
   d="M6627.51 7851.95c-50.48,47.28 -92.92,101.91 -127.31,163.92 12.09,-21.61 26.92,-42.22 43.52,-62.25 24.68,202.92 7.9,364.11 -50.33,483.56l537.89 -461.95 -395.78 -130.36c-2.69,2.34 -5.35,4.7 -7.99,7.08z"
   id="path710" />
   <path
   class="fil4"
   d="M6229.76 7859.47c21.04,-34.94 38.66,-70.96 52.85,-108.06l0.71 0.41c11.91,-30.54 21.45,-61.83 28.62,-93.87l-302.01 -269.74 -135.82 679.1c75.1,-107.25 204.74,-200.09 388.89,-278.5 -9.31,25.09 -20.09,48.87 -33.24,70.66z"
   id="path712" />
   <polygon
   class="fil9"
   points="6913.03,7805.4 7141.53,7880.55 7175.54,7851.34 6932.63,7771.46 "
   id="polygon714" />
   <rect
   class="fil14"
   transform="matrix(0.47007 0.170394 0.259734 -0.716533 6149.99 7839.92)"
   width="75"
   height="385.42"
   id="rect716" />
   <polygon
   class="fil9"
   points="6218.09,7404.17 6038.76,7243.86 6047.04,7199.8 6237.68,7370.23 "
   id="polygon718" />
   <rect
   class="fil14"
   transform="matrix(-0.382601 -0.321896 0.490669 -0.583203 6556.72 8074.74)"
   width="75"
   height="385.42"
   id="rect720" />
   <path
   class="fil4"
   d="M6758.12 7879.47c-4.71,-4.8 -5.67,-14.06 -2.89,-27.79 -11.99,-3.26 -23.48,-11.68 -34.48,-25.25 -17.25,6.18 -28.19,5.65 -32.82,-1.58 -3.33,-8.53 6.87,-30.63 30.6,-66.31 1.78,-2.82 2.47,-6.07 2.07,-9.74 -0.89,-2.26 -0.8,-4.89 0.3,-7.87 3.86,1.13 6.52,0.5 7.97,-1.9 1.06,-4.14 1.59,-6.21 1.59,-6.21 24.89,-1.24 49.6,7.97 74.15,27.62 23.46,18.57 34.62,39.48 33.48,62.74 -3.23,1.37 -4.85,2.06 -4.85,2.06 1.18,4.7 1.77,7.06 1.77,7.06 -0.28,3.5 -4.08,2.66 -9.67,4.69 -2.24,0.81 -4.2,2.87 -7.26,3.7 -1.45,6.26 -7.46,10.21 -18.04,11.85 -21.43,21.74 -35.39,30.72 -41.91,26.93z"
   id="path722" />
   <path
   class="fil18"
   d="M6302.63 7596.92c-4.19,-6.87 -9.17,-14.08 -14.93,-21.63 -12.52,-2.6 -25.68,-6.57 -39.48,-11.91 -27.72,27.37 -37.54,19.18 -29.46,-24.57 -10.27,-19.74 -7.62,-37.66 7.93,-53.76 15.28,-12.81 36.31,-14.8 63.09,-5.95 40.3,13.16 59.64,30.91 58,53.26 -1.91,9.8 -6.41,17.99 -13.5,24.57 -1.83,0.79 -4.15,5.52 -6.96,14.17 -4.86,13.88 -8.24,22.65 -10.13,26.3 -4.52,8.08 -9.37,7.92 -14.57,-0.5z"
   id="path724" />
   <path
   class="fil4"
   d="M7031.28 7975.23l-537.89 461.95c-0.02,0.05 -0.05,0.1 -0.07,0.15l-218.1 187.42c-0.09,0.01 -0.17,0.02 -0.26,0.03l254.89 446.06 932.5 -319.71 -431.06 -775.9z"
   id="path726" />
   <polygon
   class="fil4"
   points="7462.34,8751.13 6529.84,9070.84 6529.84,9606.12 7065.12,9784.54 7065.12,9810.04 7472.82,9945.93 "
   id="polygon728" />
   <path
   class="fil4"
   d="M5874.11 8067.31l135.82 -679.1 -885.19 14.61 66.93 368.07 89.21 573.5 535.28 12.74c-0.04,-0.08 -0.07,-0.16 -0.11,-0.24l53.26 -282.59c0.03,-0.05 0.06,-0.09 0.09,-0.14 1.55,-2.3 3.13,-4.58 4.72,-6.87z"
   id="path730" />
   <path
   class="fil5 str5"
   d="M6754.6 8993.78c-130.9,-129.44 -254.74,-189.37 -371.52,-179.76l60.26 105.45c69.89,22.11 136.92,59.47 201.13,112.07 52.76,40.81 98.74,143.13 137.96,306.94 -38.98,162.79 -84.64,264.85 -136.98,306.17l110.57 36.85c57.27,-67.98 125.07,-182.32 203.37,-343.03 -78.94,-162.03 -147.2,-276.93 -204.79,-344.7z"
   id="path732" />
   <path
   class="fil9 str2"
   d="M6644.46 9031.54c-64.2,-52.59 -131.24,-89.96 -201.12,-112.07l86.49 151.37 0.01 -0 0 535.28 115.61 38.54c52.34,-41.32 98,-143.38 136.98,-306.17 -39.22,-163.82 -85.21,-266.13 -137.96,-306.94l-0 0z"
   id="path734" />
   <path
   class="fil5 str5"
   d="M5243.68 8109.73c175.68,55.02 286.08,135.11 332.29,242.79l-121.64 -3.35c-52.26,-51.38 -115.89,-92.35 -192.43,-124.44l-18.22 -114.99z"
   id="path736" />
   <path
   class="fil9 str2"
   d="M5261.9 8224.72c76.54,32.09 140.17,73.06 192.43,124.44l-173.47 -4.76 -18.96 -119.68z"
   id="path738" />
   <path
   class="fil5 str5"
   d="M6493.31 8437.33c0.03,-0.04 0.05,-0.1 0.07,-0.15 58.24,-119.46 75.02,-280.64 50.33,-483.56 -17.08,20.63 -32.29,41.86 -44.58,64.17 -49.3,402.84 -151.13,588.34 -305.5,556.51 -0.99,0.44 -1.99,0.87 -3,1.29l84.33 49.19 47.87 83.8c77.8,-65.45 134.62,-155.87 170.48,-271.24z"
   id="path740" />
   <path
   class="fil9 str2"
   d="M6184.74 8572.26c96.68,-214.02 202.23,-405.16 316.66,-573.41 -49.32,423.78 -154.87,614.92 -316.66,573.41z"
   id="path742" />
   <path
   class="fil5 str5"
   d="M5816.04 8356.91l53.26 -282.59c0.03,-0.06 0.06,-0.09 0.09,-0.14 74.34,-110.15 205.54,-205.28 393.61,-285.37 -9.32,25.11 -20.11,48.91 -33.28,70.7 -324.22,244.11 -433.96,425.05 -329.2,542.82 0.13,1.08 0.24,2.16 0.39,3.24l-84.76 -48.43c-0.04,-0.08 -0.07,-0.17 -0.11,-0.24l-96.51 0.43c17.79,-100.09 67.67,-194.51 149.66,-283.26l-53.26 282.59c0.03,0.07 0.06,0.16 0.1,0.24z"
   id="path744" />
   <path
   class="fil9 str2"
   d="M5906.74 8409.02c137.01,-190.74 249.76,-377.72 338.26,-560.94 -342.35,254.6 -455.1,441.58 -338.26,560.94z"
   id="path746" />
   <path
   class="fil1"
   d="M6390.65 8315.7c-60.7,-28.7 -115.72,-74.45 -165.04,-137.23 -78.83,-11.3 -145.81,-35.98 -200.95,-74.02 -93.72,114.74 -135.45,215.18 -125.17,301.32l291.14 169.83c80.56,-33.6 147.23,-120.23 200.02,-259.9z"
   id="path748" />
   <polygon
   class="fil5"
   points="6235.38,8550.46 5997.77,8138.9 6025.93,8102.91 6268.27,8522.66 "
   id="polygon750" />
   <rect
   class="fil9"
   x="5878.17"
   y="8313.93"
   width="514.71"
   height="42.38"
   id="rect752" />
   <path
   class="fil4"
   d="M6283.32 7751.83l-0.71 -0.41c-32.54,85.08 -83.1,164.48 -151.69,238.2 -40.77,39.75 -76.19,78.03 -106.26,114.83 55.14,38.04 122.12,62.72 200.95,74.02 49.32,62.78 104.33,108.52 165.04,137.23 16.71,-44.22 32.03,-93.75 45.96,-148.59 39.09,-127.53 102.73,-232.57 190.9,-315.15 132.7,-119.72 328.26,-184.98 565.05,-208.51l-16.96 -9.97 0 0 -0.15 -0.09 -199.55 -117.38 0 -38.23 -497.04 -293.13 -38.23 25.49 -215.31 -126.66c113.87,252.78 133.2,475.56 58,668.35z"
   id="path754" />
   <line
   class="fil0 str6"
   x1="6567.09"
   y1="7915.67"
   x2="6281.95"
   y2="7751.04"
   id="line756" />
   <line
   class="fil0 str7"
   x1="6225.62"
   y1="8178.47"
   x2="6717.94"
   y2="7325.74"
   id="line758" />
   <path
   class="fil19"
   d="M6260.52 8196.25c-0.15,-5.33 -1.05,-9.89 -2.7,-13.67 43.36,-3.33 69.31,-9.13 77.84,-17.41 11.32,-13.08 0.32,-23.08 -33.02,-30 -0.73,-15.02 -10.07,-27.23 -28.02,-36.63 -20.96,-11.95 -37.68,-15.12 -50.16,-9.51 -6.16,-8.54 -12.27,-14.13 -18.31,-16.78 -9.63,-5.14 -16.66,-5.32 -21.11,-0.54 -5.23,6.45 -3.69,21.52 4.64,45.2 4.36,11.67 8.63,22.85 12.83,33.56 -8.54,0.76 -15.41,3.55 -20.59,8.39 -6.04,4.89 -8.59,8.88 -7.67,11.98 10.91,8.8 21.69,12.81 32.31,12.04 4.08,-0.63 7.65,-1.91 10.7,-3.82 3.12,-1.61 5.9,-1.81 8.35,-0.59 2,0.83 3.17,3.25 3.51,7.25 0.38,5.31 2.11,10.83 5.19,16.56 3.09,5.57 7.97,9.69 14.65,12.35 12.04,5.07 11.44,-10.73 11.55,-18.37z"
   id="path760" />
   <circle
   class="fil4 str8"
   transform="matrix(2.64845E-14 -1 1 2.64845E-14 7719.01 9338.48)"
   r="120.83"
   id="circle762" />
   <path
   class="fil4 str9"
   d="M7470.05 9631.11c-153.26,-91.26 -368.85,-132.59 -589.19,-127.72 -29.53,45.59 -55.87,84.65 -79.02,117.15 -16.98,23.85 -32.26,44.17 -45.81,60.97l0.09 0c216.77,69.83 454.95,75.65 714.54,17.45 23.59,-5.29 47.35,-11.1 71.29,-17.45 -22.01,-18.23 -46.06,-35.02 -71.88,-50.4z"
   id="path764" />
   <path
   class="fil4 str9"
   d="M6879.35 9171.9c218.61,4.83 432.55,-35.81 585.57,-125.58 27.2,-15.96 52.47,-33.46 75.5,-52.54 -25.58,-6.78 -50.95,-12.96 -76.13,-18.53 -257.53,-57.01 -493.95,-50.88 -709.26,18.38 39.63,48.76 89.21,115.3 124.31,178.26z"
   id="path766" />
   <path
   class="fil0 str10"
   d="M6478.87 7184.64l-38.23 25.49 -216.66 -127.45 0 -50.98m994.08 586.25l-25.49 25.49 -216.66 -127.44 0 -38.23m89.21 2281.28l0 25.49 0 25.49 420.57 140.19 12.75 -12.74 12.74 -25.49"
   id="path768" />
   <path
   class="fil0 str0"
   d="M7880.78 10064.92l-382.34 -127.44m-433.32 -152.93l-535.28 -178.43m-254.89 -981.34l1083.29 -930.35m-1261.72 -739.19l127.44 76.47m254.89 152.93l497.04 293.13m242.15 140.19l140.19 76.47 509.78 917.61 -1338.19 458.81m-713.7 -713.7l280.38 -1401.91 -1045.06 -12.74m63.72 407.83l76.47 420.57m1618.56 -1580.33l879.38 522.53"
   id="path770" />
   <line
   class="fil0 str11"
   x1="6274.95"
   y1="8624.78"
   x2="5816.04"
   y2="8356.91"
   id="line772" />
   <path
   class="fil0 str0"
   d="M6529.84 9606.12c-76.46,89.21 -254.89,63.72 -267.63,-89.21l0 -356.85c12.74,-152.94 191.17,-191.17 267.63,-89.21l-254.89 -446.06c38.23,114.7 -89.21,254.89 -216.66,165.68l-318.62 -178.43c-101.96,-63.72 -50.98,-242.15 76.47,-254.89l-535.28 -12.74 -89.21 -573.51c-89.21,63.72 -191.17,50.98 -216.66,-50.98l-38.23 -242.15c-12.74,-101.96 63.72,-165.68 178.43,-127.45l-63.72 -407.83 0 -203.91 535.28 -382.34 293.13 12.74 0 446.06 216.66 140.19 548.02 -904.87 25.49 25.49 254.89 -178.43 968.59 573.51 -38.24 293.13 38.24 25.49 -535.28 904.87 229.4 127.44 395.09 -216.66 140.19 254.89 -76.47 649.98 -178.43 101.96 12.75 1452.89 -318.62 178.43 -892.12 -305.87 -140.19 -331.36z"
   id="path774" />
   <line
   class="fil0 str11"
   x1="6529.84"
   y1="9606.12"
   x2="6529.84"
   y2="9070.84"
   id="line776" />
   <line
   class="fil0 str11"
   x1="6274.95"
   y1="8624.78"
   x2="5816.15"
   y2="8357.15"
   id="line778" />
  </g>
  <rect
   class="fil20"
   x="934.96"
   y="5948.41"
   width="649.98"
   height="63.35"
   id="rect781" />
  <rect
   class="fil21"
   x="934.96"
   y="6075.11"
   width="649.98"
   height="63.35"
   id="rect783" />
  <g
   id="_2367560057376">
   <rect
   class="fil21"
   x="934.96"
   y="6217.46"
   width="649.98"
   height="134.52"
   id="rect785" />
   <path
   class="fil12"
   d="M1145.61 6416.59c-52.38,-19.74 -90.62,-54.43 -112.99,-107.5 -11.41,-25.84 -21.19,49.02 -21.19,-90.93l-76.47 0 0 407.83 76.47 0c18.35,-30.59 71.87,-53.55 116.47,-67.56 3.92,-1.23 -10.46,-12.3 -8.17,-15.82 17.53,-26.92 46.62,-19.92 41.76,4.8 -0.7,3.58 7.24,-1.21 10.91,-1.75 8.96,-1.33 18.1,-2.44 27.32,-3.32 7.15,-0.68 20.34,5.5 21.62,-1.65 14.67,-82.03 60.15,-62.68 81.13,0.73 0.55,1.67 3.5,0.27 5.24,0.41 14.88,1.23 29.52,2.99 43.69,5.24 3.75,0.59 12.68,5.3 11.15,1.89 -19.23,-42.74 28.95,9.28 29.51,9.44 48.76,14.88 105.96,39.65 116.43,67.58l76.47 0 0 -407.83 -76.47 0c0,150.37 -16.95,90.98 -37.82,122.67 -16.3,25.38 -37.48,45.21 -63.2,60.13 -41.96,25.02 -93.4,35.89 -147.5,35.89 -40.57,0 -79.64,-6.39 -114.34,-20.27z"
   id="path787" />
   <path
   class="fil4"
   d="M1259.95 6222.83c114.65,0 211.16,58.55 239.83,138.14 -6.64,26.78 -16.55,49.94 -29.13,69.79 -16.3,26.38 -37.48,46.99 -63.2,62.5 -41.96,26.01 -93.4,37.31 -147.5,37.31 -40.57,0 -79.64,-6.64 -114.34,-21.07 -52.38,-20.52 -90.62,-56.57 -112.99,-111.72 -4.9,-11.53 -9.05,-23.89 -12.39,-37.12 28.82,-79.43 125.22,-137.82 239.72,-137.82z"
   id="path789" />
   <path
   class="fil13"
   d="M1228.09 6495.33c-67.73,-9.78 -119.61,-35.59 -155.63,-77.44 -0.06,-0.07 -0.13,-0.14 -0.19,-0.21 -7.1,-8.27 -13.58,-17.17 -19.45,-26.69 40.43,-79.54 104.26,-131.75 174.94,-144.15 11.31,-1.98 22.79,-2.95 34.37,-2.85 10.11,0.09 20.13,0.99 30.01,2.67 70.73,12.02 134.58,63.85 175.18,142.79 -7.15,12.22 -15.21,23.42 -24.18,33.6 -0.16,0.17 -0.31,0.35 -0.47,0.53 -35.86,40.41 -86.15,64.58 -150.87,72.54 -10.26,1.26 -20.88,2.11 -31.86,2.56 -10.98,-0.75 -21.61,-1.86 -31.86,-3.34zm-216.66 -249.69c-0.41,-9.15 -0.41,-18.31 0,-27.48l-76.47 0c8.04,47.67 17.1,89.44 27.15,125.33 14.38,51.3 30.82,90.56 49.31,117.77l0 0.76c54.84,70.3 129.9,114.74 210.74,125.35 3.8,0.49 9.45,-41.82 13.28,-41.48 8.73,0.8 8.74,-3.18 17.56,-3.18 8.83,0 22.58,3.74 31.31,2.95 5.44,-0.49 12.84,41.83 18.22,41.04 79,-11.7 152.18,-55.77 205.94,-124.68l0 -0.76c18.5,-27.21 34.93,-66.46 49.31,-117.77 10.06,-35.88 19.11,-77.66 27.15,-125.33l-76.47 0c0.41,9.17 0.41,18.33 0,27.48l0 -11.32c-1.05,18.73 -3.05,36.31 -5.92,52.8 -0.78,4.6 -1.64,9.12 -2.56,13.57 -28.48,-83.65 -109.21,-146.69 -207.85,-158.07 -10.54,-1.22 -21.28,-1.85 -32.19,-1.85 -10.91,0 -21.65,0.63 -32.19,1.85 -99.38,11.47 -180.57,75.37 -208.48,159.96 -4.28,-21.06 -6.9,-43.81 -7.85,-68.25l0 11.32z"
   id="path791" />
   <polygon
   class="fil14 str4"
   points="1390.87,6858.54 1390.87,6912.48 1129.03,6768.2 1129.03,6714.26 "
   id="polygon793" />
   <polygon
   class="fil14 str4"
   points="1390.87,6714.26 1390.87,6768.2 1129.03,6623.93 1129.03,6569.98 "
   id="polygon795" />
   <polygon
   class="fil14 str4"
   points="1390.87,6569.98 1390.87,6623.93 1129.03,6768.2 1129.03,6714.26 "
   id="polygon797" />
   <polygon
   class="fil14 str4"
   points="1390.87,7002.81 1390.87,7056.76 1129.03,6912.48 1129.03,6858.54 "
   id="polygon799" />
   <polygon
   class="fil14 str4"
   points="1390.87,6714.26 1390.87,6768.2 1129.03,6912.48 1129.03,6858.54 "
   id="polygon801" />
   <polygon
   class="fil14 str4"
   points="1390.87,6858.54 1390.87,6912.48 1129.03,7056.76 1129.03,7002.81 "
   id="polygon803" />
   <path
   class="fil14 str4"
   d="M1282.78 6588.96l-0.27 0.14 139.89 275.01 56.33 -28.65 -110.08 -216.42c23.89,9.26 44.39,23.95 57.38,38.25 14.5,11.72 57.98,-7.9 79.11,-30.69l0.09 -0.11 -0.48 0.51c0.39,-0.42 0.75,-0.85 1.08,-1.27 0.3,-0.39 0.57,-0.76 0.81,-1.13l0.01 -0.02c2.03,-3.14 2.35,-6.32 0.96,-9.52 -1.17,-2.22 -2.77,-4.29 -4.8,-6.23 -1.38,-1.25 -3.01,-2.5 -4.9,-3.76l1.53 0.95 -0.28 -0.2c-62.69,-39.17 -132.43,-60.16 -209.23,-62.96 0.09,-0.57 0.19,-1.15 0.28,-1.73 -18.7,-8.59 -41.83,-8.59 -60.53,0 0.09,0.59 0.19,1.18 0.28,1.76 -76.3,2.79 -145.63,23.52 -208,62.19 -11.13,7.43 -13.44,14.7 -6.94,21.82 21.5,22.83 65.78,42.68 79.48,30.44 13.84,-17.17 28.63,-24.99 57.57,-38.65l-110.27 216.79 56.33 28.65 139.89 -275.01 -0.38 -0.2c14.84,-2.06 30.03,-2.05 44.87,0.04 0,0 0,-0.02 0.01,-0.05 0.09,0.02 0.17,0.05 0.26,0.07zm-45.13 -0.06l-0.07 -0.03 -0.24 -0.12 -0.02 -0.1 -0.02 -0.11 0 0 -0.02 -0.14 -0.03 -0.15 0 0 -0.03 -0.18 -0.03 -0.19 -0.04 -0.22 -0.04 -0.23 -0.04 -0.26 -0.04 -0.28 0 0 -0.05 -0.29 -0.05 -0.31 0 0 -0.05 -0.33 0 0 -0.06 -0.35 -0.06 -0.37 -0.06 -0.39 -0.07 -0.41 0 0 -0.07 -0.43 0 0 -0.07 -0.45 -0.07 -0.47 0 0 -0.08 -0.49 0 0 -0.08 -0.51 -0.08 -0.53 -0.09 -0.55 -0.09 -0.57 0 0 -0.09 -0.59 0 0 -0.1 -0.61 0 -0 -0.1 -0.63 0 0 -0.1 -0.65 -0.11 -0.67 0 0 -0.11 -0.69 0 0 -0.11 -0.7 0 -0 -0.11 -0.72 -0.12 -0.74 0 -0 -0.12 -0.76 0 0 -0.13 -0.79 -0.13 -0.8 0 0 -0.13 -0.83 0 0 -0.14 -0.84 0 -0 -0.14 -0.86 0 0 -0.14 -0.89 0 0 -0.15 -0.9 0 0 -0.15 -0.93 0 0 -0.15 -0.94 0 0 -0.16 -0.96 0 0 -0.16 -0.98 -0.16 -1 -0.16 -1.02 -0.17 -1.04 -0.17 -1.06 0 0 -0.18 -1.08 -0.18 -1.1 0 0 -0.18 -1.12 -0.19 -1.14 0 0 -0.19 -1.16 0 0 -0.19 -1.18 0 0 -0.19 -1.2 -0.2 -1.22 -0.2 -1.24 -0.2 -1.26 -0.2 -1.28 -0.21 -1.3 -0.21 -1.31 -0.21 -1.34 7.38 45.88 0.3 0.15z"
   id="path805" />
   <path
   class="fil14 str4"
   d="M1094.54 6657.28c0.41,-0.43 0.82,-0.86 1.24,-1.28l0.06 -0.07 0 0.01c37.04,-37.92 101.44,-55.63 141.95,-66.83 -114.05,13.57 -165.91,33.78 -157.7,62.31 4.22,8.76 7.24,11.05 14.41,5.91l0.04 -0.04z"
   id="path807" />
   <g
   style="clip-path:url(#id1)"
   clip-path="url(#id1)"
   id="g811">
    <image
   x="1190.06"
   y="6291.19"
   width="546.61"
   height="148.67"
   xlink:href="MuchahiraPapercraft3_Images%5CMuchahiraPapercraft3_ImgID2.png"
   id="image809" />
   </g>
   <path
   class="fil9 str2"
   d="M1207.08 6233.94c0,0 8.19,-28.65 24.56,-85.96 -30.62,25.5 -51.98,35.5 -64.07,30.01 -9.75,-2.35 -18.09,-8.96 -23.86,-18.09 -19.57,29.97 -29.35,44.95 -29.35,44.95 33.12,-1.08 64.02,8.62 92.72,29.09z"
   id="path813" />
   <path
   class="fil9 str2"
   d="M1234.25 6114.74c-68.69,-21.23 -72.34,-78.32 0,-49.33l0 -12.74c0,-7.13 4.04,-13.37 9.94,-16.55 -42.2,-45.5 -75.35,-62.56 -99.46,-51.15 -26,23.77 -21.19,56.76 14.45,98.98 -14.31,7.74 -23.98,25.39 -23.98,45.41 0,11.42 3.15,22.07 8.51,30.55 5.77,9.13 14.11,15.74 23.86,18.09 12.09,5.49 33.44,-4.51 64.07,-30.01 3.72,-3.1 7.59,-6.44 11.59,-10 -5.37,-3.31 -8.97,-9.26 -8.97,-16l0 -7.26z"
   id="path815" />
   <path
   class="fil0 str0"
   d="M3777.01 10230.6c25.49,-89.21 25.49,-203.91 0,-356.85 89.21,101.96 140.19,242.15 152.93,369.59l267.63 50.98c-12.74,624.48 0,892.12 -216.65,917.61 76.47,63.72 140.19,76.47 203.91,63.72 -38.23,63.72 -76.46,89.21 -140.19,114.7 114.7,140.19 497.04,242.15 497.04,-191.17l76.47 0 305.87 280.38 904.87 0 0 -280.38 280.38 -178.43 0 -1452.89 -280.38 -191.17 0 -280.38 -981.33 0 -305.87 280.38 0 -458.8c89.21,38.23 191.17,12.74 191.17,-76.47l0 -191.17c0,-101.96 -101.96,-127.45 -191.17,-89.21l0 -1172.5c76.47,38.23 178.43,25.49 191.17,-89.21l0 -254.89c0,-114.7 -101.96,-127.44 -191.17,-89.21l0 -1274.46c76.47,38.23 178.43,38.23 191.17,-76.47l0 -191.17c0,-89.21 -89.21,-127.44 -191.17,-76.47l0 -318.61 -12.74 -1172.5c0,-305.87 -165.68,-649.98 -446.06,-649.98l-509.78 0 0 -649.98 -89.21 0 0 76.47 -458.81 0 0 -76.47 -101.96 0 0 649.98 -497.04 0c-293.13,0 -458.81,344.1 -458.81,649.98l-12.74 1172.5 0 318.61c-101.96,-50.98 -191.17,-12.74 -203.91,76.47l0 191.17c25.49,114.7 114.7,114.7 203.91,76.47l0 1274.46c-89.21,-38.23 -191.17,-25.49 -203.91,89.21l0 254.89c25.49,114.7 127.44,127.44 203.91,89.21l0 1172.5c-89.21,-38.24 -203.91,-12.74 -203.91,89.21l0 191.17c12.74,89.21 101.96,114.7 203.91,76.47l0 458.8 -305.87 -280.38 -981.34 0 0 280.38 -280.38 191.17 0 1452.89 280.38 178.43 0 280.38 904.87 0 305.87 -280.38 76.47 0c0,433.32 382.34,331.36 497.04,191.17 -50.98,-25.49 -101.96,-50.98 -140.19,-114.7 63.72,12.74 140.19,0 203.91,-63.72 -216.66,-25.49 -216.66,-293.13 -216.66,-917.61l267.64 -50.98c25.49,-127.44 76.47,-267.63 165.68,-369.59 -25.49,152.94 -38.24,267.64 0,356.85 356.85,-38.23 713.7,-38.23 1045.06,0l0 0z"
   id="path817" />
   <path
   class="fil1"
   d="M4618.15 6254.28l0 -1236.22c12.74,-1554.84 -12.75,-1758.76 -522.53,-1898.95l-1695.04 0c-446.06,127.44 -522.53,191.17 -522.53,1898.95l0 1236.22 2740.09 0z"
   id="path819" />
   <path
   class="fil22"
   d="M2489.8 4763.17c0,50.98 -76.46,101.96 -152.93,101.96 0,0 0,0 0,0 0,0 0,0 0,0 -89.21,0 -152.94,-50.98 -152.94,-101.96 0,-50.98 63.72,-89.21 152.94,-89.21 0,0 0,0 0,0 0,0 0,0 0,0 76.47,0 152.93,38.24 152.93,89.21zm1809.73 0c0,50.98 -63.72,101.96 -152.93,101.96 0,0 0,0 0,0 0,0 0,0 0,0 -63.72,0 -127.44,-50.98 -127.44,-101.96 0,-50.98 63.72,-89.21 127.44,-89.21 0,0 0,0 0,0 0,0 0,0 0,0 89.21,0 152.93,38.24 152.93,89.21z"
   id="path821" />
   <path
   class="fil7"
   d="M1878.06 6254.28l599 0 12.74 -25.49 356.85 0 12.74 25.49 790.17 0 12.75 -25.49 356.85 0 12.74 25.49 586.25 0 0 3045.96 1287.2 0 0 1975.42 -1287.2 0c-38.24,407.83 -458.81,407.83 -700.95,76.47l89.21 -38.24 -203.91 -165.68c331.36,-25.49 318.61,-140.19 331.36,-790.17 -662.72,-114.7 -1108.78,-76.47 -1758.76,0 0,802.91 25.49,764.67 318.61,790.17 -63.72,63.72 -127.44,140.19 -191.17,178.43l89.21 25.49c-242.15,331.36 -675.46,318.61 -713.7,-76.47l-1299.95 0 0 -1975.42 1287.21 0 12.74 -3045.96z"
   id="path823" />
   <path
   class="fil5"
   d="M4618.15 8599.29l-2752.83 0 0 280.38 2752.83 0 0 -280.38zm-3160.66 700.95l0 930.36c-203.92,-216.66 -293.13,-611.74 -280.38,-930.36l280.38 0zm3581.23 0l0 930.36c203.91,-216.66 280.38,-611.74 280.38,-930.36l-280.38 0z"
   id="path825" />
   <path
   class="fil23"
   d="M1954.53 10574.71c-369.59,-178.43 -305.87,382.34 0,497.04l0 -497.04zm2587.15 0c356.85,-178.43 305.87,382.34 0,497.04l0 -497.04z"
   id="path827" />
   <path
   class="fil0 str0"
   d="M4541.69 8076.76l-2587.15 0m2077.37 -1822.48l509.78 0m-1682.29 0l790.17 0m-1695.03 0l522.53 0m2064.63 -1236.22l-2587.15 0m2587.15 662.72l0 -344.11m-3874.36 4728.25l0 -688.21m548.02 1822.48l-548.02 0 0 -688.21m1210.74 688.21l-280.38 0m356.85 -1822.48l0 1822.48m2587.15 0l0 -1822.48m344.1 1822.48l-267.63 0m1210.74 -688.21l0 688.21 -560.76 0m101.96 -1822.48l458.81 0 0 675.46m-5161.57 -675.46l458.81 0m369.59 0l458.81 0 2587.15 0 446.06 0m-3033.21 -815.65l0 356.85m2587.15 -356.85l0 356.85m-1618.56 -5722.33l152.93 0 -152.93 0zm509.78 0l140.19 0 -140.19 0zm-1478.37 2141.09l0 344.11 0 -344.11zm0 1618.56l0 433.32 0 -433.32zm2587.15 0l0 433.32 0 -433.32z"
   id="path829" />
   <path
   class="fil0 str10"
   d="M680.07 10052.18l-12.75 0 -25.49 12.74 0 433.32 25.49 12.74 12.75 12.74m5136.07 -471.55l12.74 0 25.49 12.74 0 433.32 -25.49 12.74 -12.74 12.74m-930.36 662.72l0 12.74 12.74 25.49 356.85 0 12.74 -25.49 12.74 -12.74m-3670.44 0l-12.74 12.74 -12.74 25.49 -344.11 0 -25.49 -25.49 0 -12.74m293.13 -1784.24l0 -25.49 -12.74 -25.49 -356.85 0 -12.74 25.49 -12.74 25.49m3874.36 0l0 -25.49 12.75 -25.49 356.85 0 12.74 25.49 0 25.49m-2294.03 -6206.63l89.21 89.21 178.43 0 89.21 -89.21m203.91 3084.19l12.74 -25.49 12.75 -25.49 356.85 0 12.74 25.49 0 25.49m-1567.59 0l12.74 -25.49 12.74 -25.49 356.85 0 12.74 25.49 0 25.49m764.68 -637.23c0,0 0,0 0,0 0,203.91 -165.68,356.85 -369.59,356.85 0,0 0,0 0,0 -203.91,0 -369.59,-152.93 -369.59,-356.85 0,0 0,0 0,0 0,0 0,0 0,0 0,-203.91 165.68,-369.59 369.59,-369.59 0,0 0,0 0,0 203.91,0 369.59,165.68 369.59,369.59 0,0 0,0 0,0z"
   id="path831" />
   <path
   class="fil0 str4"
   d="M1290.21 6541.11c-5.57,32 -7.7,47.99 -7.7,47.99"
   id="path833" />
   <path
   class="fil14 str4"
   d="M1426.04 6657.28c-0.41,-0.43 -0.82,-0.86 -1.24,-1.28l-0.06 -0.07 -0 0.01c-37.04,-37.92 -101.44,-55.63 -141.95,-66.83 114.05,13.57 165.91,33.78 157.7,62.31 -4.22,8.76 -7.24,11.05 -14.41,5.91l-0.04 -0.04z"
   id="path835" />
   <path
   class="fil9 str2"
   d="M1285.64 6114.74l0 -49.33 0 -12.74c0,-7.84 -4.87,-14.6 -11.74,-17.4 -2.17,-0.89 -4.55,-1.37 -7.04,-1.37l-13.83 0c-2.48,0 -4.86,0.49 -7.04,1.37 -6.87,2.8 -11.74,9.56 -11.74,17.4l0 12.74 0 49.33 0 7.26c0,6.74 3.6,12.68 8.97,16 2.86,1.76 6.22,2.78 9.8,2.78l13.83 0c3.59,0 6.94,-1.02 9.8,-2.78 5.37,-3.31 8.97,-9.26 8.97,-16l0 -7.26z"
   id="path837" />
   <path
   class="fil9 str2"
   d="M1234.25 6114.74l0 -49.33c-72.34,-29 -68.69,28.09 0,49.33z"
   id="path839" />
   <path
   class="fil9 str2"
   d="M1285.64 6065.41l0 49.33c68.69,-21.23 72.34,-78.32 0,-49.33z"
   id="path841" />
   <path
   class="fil9 str2"
   d="M1288.11 6147.86c16.31,57.39 24.47,86.08 24.47,86.08 28.7,-20.57 59.6,-30.32 92.72,-29.24 0,0 -9.7,-14.94 -29.11,-44.81 -5.78,9.13 -14.11,15.75 -23.86,18.1 -12.11,5.5 -33.52,-4.54 -64.22,-30.13z"
   id="path843" />
   <path
   class="fil9 str2"
   d="M1285.64 6065.41c72.34,-29 68.69,28.09 0,49.33l0 7.26c0,6.74 -3.6,12.68 -8.97,16 3.94,3.51 7.76,6.8 11.44,9.87 30.7,25.59 52.11,35.63 64.22,30.13 9.75,-2.35 18.09,-8.97 23.86,-18.1 5.36,-8.48 8.5,-19.13 8.5,-30.55 0,-20.01 -9.66,-37.66 -23.98,-45.41 35.63,-42.22 40.45,-75.21 14.44,-98.98 -24.11,-11.4 -57.26,5.65 -99.46,51.15 5.9,3.17 9.94,9.41 9.94,16.55l0 12.74z"
   id="path845" />
   <path
   class="fil24"
   d="M3254.16 4623.91c29.41,0 92.41,20.29 133.18,20.72 78.09,0.82 106.53,60.93 106.53,137.05 0,63.26 -56.51,162.26 -141.84,142.97 -40.99,-9.26 -66.9,14.79 -104.11,14.79 -41.11,0 -52.78,-35.64 -113.91,-17.91 -79.52,23.06 -132.04,-79.09 -132.04,-139.86 0,-64.48 28.73,-141.19 118.53,-141.57 61.59,-0.26 98.36,-16.2 133.68,-16.2z"
   id="path847" />
   <path
   class="fil14"
   d="M2833.91 4431.81c0,0 0,0 0,0l-0.02 2.98 0.02 -2.98c0,0 0,0 0,0l-0 0zm-312.57 -189.04l281.16 0.31c6.42,17.54 11.25,34.02 15.93,53.65l2.31 1.45c8.11,39.34 12.79,82.46 13.16,127.83l0 0.13 0.01 1.22 0.01 2.22 0 2.22c-0.81,192.75 -76.93,344.1 -165.68,344.1 0,0 0,0 0,0 -2.12,0 -4.25,-0.11 -6.37,-0.29 -2.12,0.17 -4.25,0.29 -6.37,0.29 0,0 0,0 0,0 -88.75,0 -164.87,-151.35 -165.66,-341.13l-0.02 -2.98c0,0 0,0 0,0l0 0 0 -2.22 0.01 -2.22 0.01 -1.22 0 -0.13c0.37,-45.37 5.04,-88.49 13.16,-127.83l2.31 -1.45c4.51,-18.93 9.9,-36.98 16.04,-53.96z"
   id="path849" />
   <line
   class="fil0 str12"
   x1="2526.54"
   y1="3957.68"
   x2="2931.59"
   y2="4203.1"
   id="line851" />
   <path
   class="fil14"
   d="M4006.42 4431.81c0,0 0,0 0,0l-0.02 2.98 0.02 -2.98c0,0 0,0 0,0l-0 0zm-312.57 -189.04l281.16 0.31c6.42,17.54 11.25,34.02 15.93,53.65l2.31 1.45c8.11,39.34 12.79,82.46 13.16,127.83l0 0.13 0.01 1.22 0.01 2.22 0 2.22c-0.81,192.75 -76.93,344.1 -165.68,344.1 0,0 0,0 0,0 -2.12,0 -4.25,-0.11 -6.37,-0.29 -2.12,0.17 -4.25,0.29 -6.37,0.29 0,0 0,0 0,0 -88.75,0 -164.87,-151.35 -165.66,-341.13l-0.02 -2.98c0,0 0,0 0,0l0 0 0 -2.22 0.01 -2.22 0.01 -1.22 0 -0.13c0.37,-45.37 5.04,-88.49 13.16,-127.83l2.31 -1.45c4.51,-18.93 9.9,-36.98 16.04,-53.96z"
   id="path853" />
   <line
   class="fil0 str12"
   x1="3969.68"
   y1="3957.68"
   x2="3564.63"
   y2="4203.1"
   id="line855" />
   <line
   class="fil0 str13"
   x1="2794.12"
   y1="4209.36"
   x2="2667.04"
   y2="4209.36"
   id="line857" />
   <line
   class="fil0 str13"
   x1="3832.77"
   y1="4209.36"
   x2="3705.69"
   y2="4209.36"
   id="line859" />
  </g>
 </g>
</svg>
