<?xml version="1.0" encoding="UTF-8"?>
<!DOCTYPE svg PUBLIC "-//W3C//DTD SVG 1.1//EN" "http://www.w3.org/Graphics/SVG/1.1/DTD/svg11.dtd">
<!-- Creator: CorelDRAW 2019 (64-Bit) -->
<svg xmlns="http://www.w3.org/2000/svg" xml:space="preserve" width="8.26772in" height="14.6161in" version="1.1" style="shape-rendering:geometricPrecision; text-rendering:geometricPrecision; image-rendering:optimizeQuality; fill-rule:evenodd; clip-rule:evenodd"
viewBox="0 0 8262.11 14606.22"
 xmlns:xlink="http://www.w3.org/1999/xlink">
 <defs>
  <style type="text/css">
   <![CDATA[
    .str1 {stroke:black;stroke-miterlimit:2.61313}
    .str0 {stroke:#EF0085;stroke-miterlimit:2.61313}
    .str12 {stroke:#F8DE89;stroke-miterlimit:2.61313}
    .str4 {stroke:#926B44;stroke-width:27.76;stroke-miterlimit:2.61313}
    .str2 {stroke:#C9A887;stroke-width:27.76;stroke-miterlimit:2.61313}
    .str9 {stroke:#482620;stroke-width:27.76;stroke-miterlimit:2.61313}
    .str10 {stroke:#F8DE89;stroke-width:47.91;stroke-miterlimit:2.61313}
    .str8 {stroke:#F1CAB1;stroke-width:13.88;stroke-miterlimit:2.61313}
    .str11 {stroke:#F8DE89;stroke-width:15.97;stroke-miterlimit:2.61313}
    .str3 {stroke:#373435;stroke-width:6.94;stroke-miterlimit:2.61313}
    .str7 {stroke:#373435;stroke-width:6.94;stroke-miterlimit:2.61313}
    .str5 {stroke:#926B44;stroke-width:6.94;stroke-miterlimit:2.61313}
    .str6 {stroke:#EF0085;stroke-width:6.94;stroke-miterlimit:2.61313}
    .str13 {stroke:#F8DE89;stroke-miterlimit:2.61313}
    .fil0 {fill:none}
    .fil9 {fill:#FEFEFE}
    .fil4 {fill:#A9ABAE}
    .fil10 {fill:#727376}
    .fil2 {fill:#606062}
    .fil8 {fill:#373435}
    .fil14 {fill:#F58634}
    .fil18 {fill:#2E2B2C}
    .fil17 {fill:#454142}
    .fil16 {fill:#723D34}
    .fil7 {fill:#926B44}
    .fil12 {fill:#BF9973}
    .fil11 {fill:#C9A887}
    .fil1 {fill:#F7E3D5}
    .fil20 {fill:#F8DE89}
    .fil3 {fill:#FAC9C1}
    .fil13 {fill:#C9A887}
    .fil5 {fill:#D2B79C}
    .fil19 {fill:#482620}
    .fil15 {fill:#F7E3D5}
    .fil6 {fill:#BF9973}
   ]]>
  </style>
 </defs>
 <g id="Layer_x0020_1">
  <metadata id="CorelCorpID_0Corel-Layer"/>
  <rect class="fil0" width="8262.11" height="14606.22"/>
  <path class="fil1" d="M4612.97 9169.73l0 -1245.7c15.97,-1549.14 -15.97,-1740.78 -511.05,-1884.52l-1708.84 0c-431.2,127.76 -511.06,191.65 -511.06,1884.52l0 1245.7 2730.95 0z"/>
  <path class="fil2" d="M2840.25 7333.12c0,0 0,0 0,0 0,191.65 -79.85,335.38 -175.68,335.38 0,0 0,0 0,0 -95.82,0 -159.7,-143.74 -159.7,-335.38 0,0 0,0 0,0 0,-175.67 63.88,-335.38 159.7,-335.38 0,0 0,0 0,0 95.82,0 175.68,159.71 175.68,335.38zm1165.85 0c0,0 0,0 0,0 0,191.65 -79.85,335.38 -175.68,335.38 0,0 0,0 0,0 -95.82,0 -159.7,-143.74 -159.7,-335.38 0,0 0,0 0,0 0,-175.67 63.88,-335.38 159.7,-335.38 0,0 0,0 0,0 95.82,0 175.68,159.71 175.68,335.38z"/>
  <path class="fil3" d="M2488.9 7668.51c0,47.91 -63.88,95.82 -143.73,95.82 0,0 0,0 0,0 0,0 0,0 0,0 -95.82,0 -159.71,-47.91 -159.71,-95.82 0,-47.91 63.88,-95.82 159.71,-95.82 0,0 0,0 0,0 0,0 0,0 0,0 79.85,0 143.73,47.91 143.73,95.82zm1804.66 0c0,47.91 -63.88,95.82 -143.73,95.82 0,0 0,0 0,0 0,0 0,0 0,0 -63.88,0 -127.76,-47.91 -127.76,-95.82 0,-47.91 63.88,-95.82 127.76,-95.82 0,0 0,0 0,0 0,0 0,0 0,0 79.85,0 143.73,47.91 143.73,95.82z"/>
  <polygon class="fil4" points="1882.02,9169.73 2488.9,9169.73 2488.9,9153.76 2840.25,9153.76 2856.22,9169.73 3654.75,9169.73 3670.72,9153.76 4022.07,9153.76 4022.07,9169.73 4612.97,9169.73 4612.97,12220.1 5906.58,12204.13 5906.58,14184.47 4533.12,14184.47 4533.12,12283.98 1961.87,12283.98 1961.87,14184.47 588.41,14184.47 588.41,12204.13 1866.05,12204.13 "/>
  <path class="fil0 str0" d="M684.23 12954.74l-15.97 15.97 -15.97 15.97 0 431.21 15.97 0 15.97 15.97m5126.53 -479.12l15.97 15.97 15.97 15.97 0 431.21 -15.97 0 -15.97 15.97m-926.29 654.79l0 15.97 15.97 31.94 351.35 0 15.97 -31.94 15.97 -15.97m-3673.21 0l0 15.97 -15.97 31.94 -351.35 0 -15.97 -31.94 -15.97 -15.97m303.44 -1772.73l-15.97 -31.94 0 -15.97 -351.35 0 -15.97 15.97 -15.97 15.97m3864.86 15.97l15.97 -31.94 0 -15.97 367.32 0 0 15.97 15.97 15.97m-2299.75 -6180.58l79.85 79.85 191.65 0 79.85 -79.85m207.61 3066.34l15.97 -15.97 15.97 -15.97 351.35 0 0 15.97 15.97 15.97m-1565.11 0l15.97 -15.97 0 -15.97 351.35 0 15.97 15.97 15.97 15.97m750.61 -638.82c0,0 0,0 0,0 0,207.62 -159.71,367.32 -367.32,367.32 0,0 0,0 0,0 -207.61,0 -367.32,-159.7 -367.32,-367.32 0,0 0,0 0,0 0,0 0,0 0,0 0,-207.61 159.71,-383.29 367.32,-383.29 0,0 0,0 0,0 207.61,0 367.32,175.68 367.32,383.29 0,0 0,0 0,0z"/>
  <path class="fil0 str1" d="M4533.12 10990.37l-2571.25 0m2060.2 -1820.64l511.05 0m-1676.9 0l798.53 0m-1692.87 0l527.02 0m2044.22 -1245.7l-2571.25 0m2571.25 670.76l0 -367.32m-3864.86 4743.24l0 -686.73m558.97 1820.64l-558.97 0 0 -686.73m1213.76 686.73l-271.5 0m351.35 -1820.64l0 1820.64m2571.25 0l0 -1820.64m351.35 1820.64l-271.5 0m1213.76 -686.73l0 686.73 -558.97 0m95.82 -1820.64l463.14 0 0 686.73m-5158.47 -686.73l463.15 0m367.32 0l463.15 0 2571.25 0 463.15 0m-3034.39 -814.5l0 367.32m2571.25 -367.32l0 367.32m-1597.05 -5717.44l143.73 0 -143.73 0zm495.09 0l143.73 0 -143.73 0zm-1469.29 2108.1l0 367.32 0 -367.32zm0 1644.96l0 431.2 0 -431.2zm2571.25 0l0 431.2 0 -431.2z"/>
  <path class="fil0 str1" d="M1019.61 10080.05l495.09 0m-1261.67 0l511.06 0m-511.06 -622.85l511.06 0m255.53 0l495.09 0m-1261.67 1293.61l511.06 0m255.53 0l495.09 0"/>
  <path class="fil0 str1" d="M588.41 7812.24l495.09 0m-495.09 -1501.22l495.09 0m-495.09 -574.94l495.09 0m-495.09 -1517.2l495.09 0"/>
  <path class="fil0 str1" d="M4421.32 4602.17l-2315.72 0m-191.65 -718.67l2714.98 0m-2714.98 -2028.25l2714.98 0 0 1421.37 -2714.98 0 0 -1421.37z"/>
  <g id="body">
   <path class="fil5" d="M6545.4 12603.39l1405.41 479.12 0 -1581.08 -527.03 -910.32 -79.85 15.97 -127.77 -79.85 -31.94 31.94 -207.62 -127.76 0 -47.91 -511.05 -287.47 -31.94 15.97 -207.61 -127.76 0 -31.94 -127.76 -79.85 -31.94 -79.85 -1117.93 -15.97 271.5 1565.11 479.12 0 558.97 319.41 111.79 191.65c-111.79,15.97 -159.7,95.82 -175.67,207.61l0 383.29c31.94,175.68 127.76,255.53 351.35,159.71z"/>
   <polygon class="fil6" points="7088.4,10830.67 6992.57,10894.55 7471.69,11693.07 7583.48,11629.19 "/>
   <polygon class="fil6" points="5076.11,10207.82 5076.11,10319.61 6034.34,10319.61 6034.34,10207.82 "/>
   <polygon class="fil6" points="7583.48,11629.19 7455.72,11629.19 7455.72,12970.71 7583.48,12970.71 "/>
   <path class="fil0 str0" d="M6465.55 10096.02l-31.94 15.97 -207.61 -127.76 0 -31.94m990.17 574.94l-31.94 31.94 -207.62 -127.76 0 -47.91m79.86 2299.75l15.97 15.97 0 15.97 399.26 143.73 15.97 -15.97 15.97 -15.97"/>
   <path class="fil0 str1" d="M7870.95 12970.71l-383.29 -127.76m-415.23 -143.73l-543 -191.65m-271.5 -974.2l1085.99 -926.29m-1245.7 -734.64l127.76 79.85m239.56 143.74l511.05 287.47m239.56 143.74l127.77 79.85 527.02 910.32 -1341.52 463.15m-718.67 -718.67l287.47 -1389.43 -1054.05 -15.97m63.88 399.26l79.85 431.2m1613.02 -1581.08l878.38 511.06"/>
   <path class="fil0 str1" d="M6529.43 12507.57c-79.85,95.82 -255.53,63.89 -271.5,-79.85l0 -351.35c15.97,-143.73 191.65,-191.65 271.5,-95.82l-271.5 -447.18c47.91,111.79 -79.86,255.53 -207.62,175.68l-303.44 -175.68c-111.79,-79.85 -63.88,-255.53 63.88,-271.5l-527.03 0 -95.82 -574.94c-95.82,63.88 -191.65,47.91 -207.62,-63.88l-47.91 -239.56c-15.97,-95.82 63.88,-159.7 175.68,-127.76l-63.88 -399.26 0 -207.62 543 -383.29 287.47 15.97 0 447.18 223.59 143.73 543 -910.32 31.94 15.97 255.53 -159.7 958.23 558.97 -31.94 303.44 31.94 15.97 -542.99 910.32 239.55 127.76 383.29 -223.58 159.7 255.53 -79.85 654.79 -175.68 95.82 0 1453.32 -319.41 191.65 -894.35 -303.44 -127.76 -351.35z"/>
   <path class="fil0 str2" d="M5902.31 11328.05c199.36,-133.67 409.26,-336.61 586.12,-507.04 51.92,-62.41 155.36,-241.57 310.31,-537.47"/>
   <circle class="fil7" transform="matrix(-0.866025 -0.5 0.5 -0.866025 6481.82 11038.1)" r="27.32"/>
   <circle class="fil7" transform="matrix(0.866025 0.5 0.5 -0.866025 6128.05 10833.8)" r="27.32"/>
   <circle class="fil7" transform="matrix(0.866025 0.5 0.5 -0.866025 6269.95 10588)" r="27.32"/>
   <circle class="fil7" transform="matrix(0.866025 0.5 0.5 -0.866025 6442.29 10289.5)" r="27.32"/>
   <circle class="fil7" transform="matrix(0.866025 0.5 0.5 -0.866025 6480.72 10709.7)" r="27.32"/>
   <circle class="fil7" transform="matrix(0.866025 0.5 0.5 -0.866025 6653.06 10411.2)" r="27.32"/>
   <path class="fil8 str3" d="M6063.74 11421.25c49.44,-38.35 63.93,-67.97 43.45,-88.87 -5.28,-5.39 -12.88,-10.2 -22.81,-14.43 -8.63,-6.48 -16.6,-10.66 -23.9,-12.54 -28.34,-7.28 -46.76,20.07 -55.24,82.06l58.51 33.78z"/>
   <path class="fil8 str3" d="M6149.94 11292.27c-4.67,-50.49 -7.01,-75.74 -7.01,-75.74 0,0 -23.04,10.6 -69.1,31.8 0,0 -4.45,19.03 -13.35,57.08 7.31,1.88 15.27,6.05 23.9,12.54 9.93,4.23 17.53,9.04 22.81,14.43 28.5,-26.74 42.75,-40.11 42.75,-40.11z"/>
   <path class="fil9" d="M6167.42 11481.1c-7.59,-82.01 -13.42,-144.95 -17.48,-188.83 0,0 -14.25,13.37 -42.75,40.11 20.48,20.9 6,50.52 -43.45,88.87l103.67 59.85z"/>
   <path class="fil9" d="M6005.24 11387.47c8.49,-61.99 26.9,-89.34 55.24,-82.06 8.9,-38.05 13.35,-57.08 13.35,-57.08 -39.23,18.06 -95.18,43.81 -167.83,77.24 -1.22,0.83 -2.45,1.66 -3.68,2.48l102.92 59.42z"/>
   <path class="fil10" d="M6167.42 11481.1c11.71,-174.41 46.15,-335.53 66.78,-420.1 -107.75,97.6 -219.5,191.27 -328.2,264.57 72.66,-33.43 128.6,-59.18 167.83,-77.24 46.07,-21.2 69.1,-31.8 69.1,-31.8 0,0 2.33,25.25 7.01,75.74 4.06,43.88 9.88,106.83 17.48,188.83z"/>
   <path class="fil11" d="M6370.49 11437.37c-22.05,-95.41 -23.6,-280.85 -77.32,-430.48 -19.5,18.1 -39.17,36.17 -58.97,54.11 -20.62,84.57 -55.07,245.7 -66.78,420.1l90.51 52.26 112.55 -95.99z"/>
   <path class="fil11" d="M5906 11325.57c108.7,-73.3 220.44,-166.97 328.2,-264.57 19.81,-17.94 39.47,-36.01 58.97,-54.11 9.35,-8.69 18.66,-17.37 27.92,-26.06l4.06 -7.03c-176.36,5.38 -377.92,122.6 -487.23,156.8l-27.16 131.27c-4.76,0.59 -9.41,1.41 -13.94,2.44l-1.23 2.12 105.97 61.18c1.48,-0.68 2.96,-1.37 4.43,-2.04z"/>
   <polygon class="fil12" points="6034.34,10207.82 5970.46,10303.64 7040.49,10926.49 7088.4,10830.67 "/>
   <rect class="fil6 str4" transform="matrix(-0.866025 -0.5 0.761264 -1.31855 6427.46 10604)" width="124.97" height="111.77" rx="32.62" ry="32.62"/>
   <rect class="fil12 str5" transform="matrix(2.62568E-14 -1 1 2.62568E-14 7420.94 12440.7)" width="400.78" height="201.11" rx="44.24" ry="44.24"/>
   <circle class="fil7" transform="matrix(2.62568E-14 -1 1 2.62568E-14 7521.5 12369.1)" r="27.32"/>
   <circle class="fil7" transform="matrix(2.62568E-14 -1 1 2.62568E-14 7521.5 12110.2)" r="27.32"/>
   <polygon class="fil10" points="7663.31,12242.69 7767.78,12189.19 7872.26,12135.69 7872.26,12242.69 7872.26,12349.68 7767.78,12296.18 "/>
   <path class="fil10" d="M6529.42 12436.72c151.2,-127.5 148.69,-255.02 0,-382.55l0 382.55z"/>
   <path class="fil13" d="M6671.21 12554.7c314.72,-206.25 314.83,-412.51 0.33,-618.76l0 0.68 -11.15 0 0 -1.29 -130.97 45.22 0 73.63c148.69,127.53 151.2,255.05 0,382.55l0 70.84 130.42 46.03 0.12 0.04 11.25 0 0 1.07z"/>
   <path class="fil13" d="M5471.97 11261.87c-35.9,-31.28 -74.18,-61.12 -113.99,-88.42 -1.74,-1.19 -3.48,-2.38 -5.22,-3.56 -4.24,-2.87 -8.49,-5.72 -12.76,-8.53 -26.5,-17.47 -53.63,-33.77 -81.11,-48.6l24.85 149.11 114.3 -0 31.88 0 42.07 0z"/>
   <path class="fil13" d="M6431.72 11819.61c45.03,15.45 93.61,31.59 137.17,52.42 1.9,0.91 3.8,1.82 5.69,2.74 4.61,2.23 9.2,4.5 13.77,6.79 28.38,14.21 51.88,35.17 78.47,51.56l-137.38 47.42 -97.71 -160.93z"/>
   <path class="fil13" d="M5654.92 11261.86l155.84 0 26.63 -128.74c-76.48,39.38 -137.3,82.29 -182.47,128.74z"/>
   <path class="fil13" d="M6350.12 11685.21c16.82,-68.38 23.55,-157.27 20.36,-247.84l-112.55 96 92.19 151.84z"/>
  </g>
  <path class="fil14" d="M3028.55 7593.96c0,101.89 101.89,203.78 216.51,203.78 127.36,0 229.25,-101.89 229.25,-203.78 0,-25.47 -50.95,-25.47 -50.95,0 0,101.89 -76.42,178.3 -178.3,178.3 -89.15,0 -165.57,-76.41 -165.57,-178.3 0,-25.47 -50.94,-25.47 -50.94,0z"/>
  <path class="fil15" d="M4533.12 12283.98l0 1820.64 79.85 0 271.5 0 0 -23.15c-32.71,-523.44 -149.83,-1122.6 -351.35,-1797.49z"/>
  <path class="fil15" d="M1961.87 12283.98l0 1820.64 -79.85 0 -271.5 0 0 -23.15c32.71,-523.44 149.83,-1122.6 351.35,-1797.49z"/>
  <path class="fil0 str6" d="M4628.01 13510.37c-21.29,10.65 -31.94,15.97 -31.94,15.97 0,234.23 0,351.35 0,351.35 21.29,10.65 31.94,15.97 31.94,15.97"/>
  <path class="fil0 str6" d="M1866.98 13510.37c21.29,10.65 31.94,15.97 31.94,15.97 0,234.23 0,351.35 0,351.35 -21.29,10.65 -31.94,15.97 -31.94,15.97"/>
  <g id="_1928620948800">
   <g>
    <path class="fil15" d="M6445.39 13395.4c42.77,222.33 97.68,442.63 338.67,526.91l0 -349.84c12.32,-131.08 -367.45,-334.76 -387.23,-293.55 8.96,25.99 40.94,76.84 48.56,116.48z"/>
    <rect class="fil0 str7" x="6784.07" y="13572.47" width="160.54" height="349.84"/>
    <path class="fil0 str8" d="M6488.58 13360.57c70.79,112.43 102.02,99.94 102.02,99.94 0,0 72.86,-2.08 104.09,139.49 31.23,141.57 89.38,147.4 89.38,147.4"/>
    <path class="fil0 str8" d="M6784.07 13864.4c-68.56,-89.52 -83.13,-74.95 -83.13,-74.95 0,0 -112.42,-8.33 -170.72,-260.24"/>
   </g>
   <g>
    <path class="fil15" d="M7443.82 13395.4c-42.77,222.33 -97.68,442.63 -338.67,526.91l0 -349.84c-12.32,-131.08 367.45,-334.76 387.23,-293.55 -8.96,25.99 -40.94,76.84 -48.56,116.48z"/>
    <rect class="fil0 str7" x="6944.61" y="13572.47" width="160.54" height="349.84"/>
   </g>
   <g>
    <path class="fil15" d="M7443.82 13964.22c-42.77,222.33 -97.68,442.63 -338.67,526.91l0 -349.84c-12.32,-131.08 367.45,-334.76 387.23,-293.55 -8.96,25.99 -40.94,76.84 -48.56,116.48z"/>
    <rect class="fil0 str7" x="6944.61" y="14141.29" width="160.54" height="349.84"/>
    <path class="fil0 str8" d="M7400.64 13929.38c-70.79,112.43 -102.02,99.94 -102.02,99.94 0,0 -72.86,-2.08 -104.09,139.49 -31.23,141.57 -89.38,147.4 -89.38,147.4"/>
    <path class="fil0 str8" d="M7105.15 14433.21c68.56,-89.52 83.13,-74.95 83.13,-74.95 0,0 112.42,-8.33 170.72,-260.24"/>
   </g>
   <g>
    <path class="fil15" d="M6445.39 13964.22c42.77,222.33 97.68,442.63 338.67,526.91l0 -349.84c12.32,-131.08 -367.45,-334.76 -387.23,-293.55 8.96,25.99 40.94,76.84 48.56,116.48z"/>
    <rect class="fil0 str7" x="6784.07" y="14141.29" width="160.54" height="349.84"/>
   </g>
  </g>
  <path class="fil0 str1" d="M4533.12 12283.98l0 1820.64 79.85 0 303.44 287.47 910.32 0 0 -287.47 271.5 -175.68 0 -1453.32 -271.5 -191.65 0 -271.5 -990.17 0 -303.44 271.5 0 -447.18c95.82,31.94 191.65,0 207.62,-79.85l0 -191.65c0,-111.79 -111.79,-143.73 -207.62,-95.82l0 -1165.85c79.85,31.94 191.65,31.94 207.62,-95.82l0 -239.56c-15.97,-127.77 -111.79,-143.74 -207.62,-95.82l0 -1277.64c95.82,31.94 175.68,15.97 207.62,-95.82l0 -175.68c-15.97,-95.82 -95.82,-127.76 -207.62,-95.82l0 -303.44 -15.97 -1165.84c0,-303.44 -159.71,-638.82 -431.2,-638.82l-511.06 0 0 -654.79 -79.85 0 0 79.85 -479.12 0 0 -79.85 -79.85 0 0 654.79 -511.06 0c-287.47,0 -447.17,335.38 -447.17,638.82l-15.97 1165.84 0 303.44c-111.79,-31.94 -191.65,0 -207.62,95.82l0 175.68c31.94,111.79 111.79,127.76 207.62,95.82l0 1277.64c-95.82,-47.91 -191.65,-31.94 -207.62,95.82l0 239.56c15.97,127.76 127.76,127.76 207.62,95.82l0 1165.85c-95.82,-47.91 -207.62,-15.97 -207.62,95.82l0 191.65c15.97,79.85 111.79,111.79 207.62,79.85l0 447.18 -303.44 -271.5 -990.17 0 0 271.5 -271.5 191.65 0 1453.32 271.5 175.68 0 287.47 910.32 0 303.44 -287.47 79.86 0 0 -1820.64 2571.25 0z"/>
  <g id="_1928603113648">
   <g>
    <path class="fil16" d="M173.17 8179.56l670.76 0 0 3760.34 -670.76 0 0 -3760.34zm766.59 0l654.79 0 0 3756.34 -654.79 0 0 -3756.34z"/>
    <path class="fil17" d="M173.17 9198.52l175.68 0 319.41 0 175.68 0 0 1810.54 -670.76 0 0 -1810.54zm766.59 0l159.7 0 319.41 0 175.68 0 0 1810.97 -654.79 0 0 -1810.97z"/>
    <path class="fil18" d="M173.17 10511.26l670.76 0 0 239.55 -670.76 0 0 -239.55zm766.59 0l654.79 0 0 239.55 -654.79 0 0 -239.55z"/>
   </g>
   <path class="fil0 str1" d="M764.08 8275.38l-511.06 0 0 3577.39 511.06 0 0 -3577.39zm255.53 0l495.09 0 0 3577.39 -495.09 0 0 -3577.39z"/>
  </g>
  <g id="_1928627223664">
   <g>
    <polygon class="fil1" points="508.56,3835.58 508.56,8179.56 1179.32,8179.56 1179.32,3835.58 "/>
    <polygon class="fil5" points="508.56,4218.88 508.56,7812.24 1179.32,7812.24 1179.32,4218.88 "/>
    <path class="fil0 str9" d="M770.76 7278.05c0,178.06 0,356.12 0,534.19"/>
    <circle class="fil19" cx="900.88" cy="7483.7" r="41.64"/>
    <circle class="fil19" cx="900.88" cy="7712.65" r="41.64"/>
    <path class="fil0 str9" d="M770.76 4753.07c0,-178.06 0,-356.12 0,-534.19"/>
    <circle class="fil19" cx="900.88" cy="4547.42" r="41.64"/>
    <circle class="fil19" cx="900.88" cy="4318.47" r="41.64"/>
   </g>
   <polygon class="fil0 str1" points="588.41,8131.65 748.11,7924.03 843.93,8131.65 939.76,7924.03 1083.49,8131.65 1083.49,3883.5 939.76,4091.11 843.93,3883.5 748.11,4091.11 588.41,3883.5 "/>
  </g>
  <g id="_1929680873088">
   <g>
    <polygon class="fil17" points="1850.08,5320.84 4692.83,5320.84 4485.21,4554.26 4692.83,3867.53 4692.83,3324.53 5379.56,3324.53 5363.59,1743.45 4692.83,1743.45 4692.83,1056.72 1834.11,1056.72 1834.11,1759.42 1179.32,1759.42 1163.34,3308.56 1850.08,3308.56 1850.08,3867.53 2041.72,4554.26 "/>
    <polygon class="fil0 str10" points="1913.96,5304.87 2105.61,4602.17 4421.32,4602.17 4628.94,5304.87 "/>
    <polyline class="fil0 str10" points="4628.94,3883.5 4421.32,4602.17 2105.61,4602.17 1913.96,3883.5 "/>
    <path class="fil0 str10" d="M4628.94 1152.54l-2714.98 15.97m-670.76 686.73l0 1421.37m4040.53 0l0 -1421.37"/>
    <polygon class="fil0 str11" points="1913.96,3276.62 4628.94,3276.62 4628.94,1855.24 1913.96,1855.24 "/>
    <line class="fil0 str11" x1="4628.94" y1="2334.36" x2="5283.73" y2= "2334.36" />
    <line class="fil0 str11" x1="4628.94" y1="2573.91" x2="5283.73" y2= "2573.91" />
    <line class="fil0 str11" x1="4612.97" y1="2829.44" x2="5283.73" y2= "2829.44" />
    <path class="fil20" d="M3303.39 3484.23c0,15.97 -31.94,63.89 -31.94,63.89 0,0 -15.97,-47.91 -31.94,-63.89 -15.97,-15.97 -47.91,-47.91 -47.91,-47.91 0,0 31.94,-31.94 47.91,-47.91 15.97,-15.97 31.94,-63.88 31.94,-63.88 0,0 31.94,47.91 31.94,63.88 15.97,15.97 47.91,47.91 47.91,47.91 0,0 -31.94,31.94 -47.91,47.91z"/>
    <line class="fil0 str11" x1="1913.96" y1="2334.36" x2="1259.17" y2= "2334.36" />
    <line class="fil0 str11" x1="1913.96" y1="2573.91" x2="1259.17" y2= "2573.91" />
    <line class="fil0 str11" x1="1913.96" y1="2829.44" x2="1259.17" y2= "2829.44" />
    <line class="fil0 str11" x1="1913.96" y1="3883.5" x2="4628.94" y2= "3883.5" />
    <path class="fil5" d="M3383.25 3723.79c0,47.91 -79.85,15.97 -79.85,15.97 0,0 15.97,79.85 -31.94,79.85 -47.91,0 -15.97,-79.85 -15.97,-79.85 0,0 -79.85,31.94 -79.85,-15.97 0,-47.91 79.85,-31.94 79.85,-31.94 0,0 -31.94,-79.85 15.97,-79.85 47.91,0 31.94,79.85 31.94,79.85 0,0 79.85,-15.97 79.85,31.94z"/>
    <path class="fil0 str12" d="M3383.25 3723.79c0,47.91 -79.85,15.97 -79.85,15.97 0,0 15.97,79.85 -31.94,79.85 -47.91,0 -15.97,-79.85 -15.97,-79.85 0,0 -79.85,31.94 -79.85,-15.97 0,-47.91 79.85,-31.94 79.85,-31.94 0,0 -31.94,-79.85 15.97,-79.85 47.91,0 31.94,79.85 31.94,79.85 0,0 79.85,-15.97 79.85,31.94z"/>
    <path class="fil0 str13" d="M3495.04 3723.79c0,63.88 -111.79,0 -111.79,0 0,0 111.79,-79.85 111.79,0z"/>
    <path class="fil0 str13" d="M3574.89 3723.79c0,31.94 -79.85,0 -79.85,0 0,0 79.85,-47.91 79.85,0z"/>
    <path class="fil0 str13" d="M3047.87 3723.79c0,63.88 127.76,0 127.76,0 0,0 -127.76,-79.85 -127.76,0z"/>
    <path class="fil0 str12" d="M2968.01 3723.79c0,31.94 79.86,0 79.86,0 0,0 -79.86,-47.91 -79.86,0z"/>
   </g>
   <polygon class="fil0 str1" points="4628.94,5304.87 4421.32,4602.17 4628.94,3883.5 4628.94,3276.62 5283.73,3276.62 5283.73,1855.24 4628.94,1855.24 4628.94,1152.54 1913.96,1168.51 1913.96,1855.24 1243.2,1855.24 1243.2,3276.62 1913.96,3276.62 1913.96,3883.5 2105.61,4602.17 1913.96,5304.87 "/>
  </g>
 </g>
</svg>
