# Blender 3.6.0
# www.blender.org
mtllib gate_door.mtl
o FenceLoop.002
v 0.000000 0.101276 -0.027411
v 0.000000 0.101276 0.030208
v 0.000000 0.053631 -0.041534
v 0.000000 0.056937 0.040534
v 0.000000 -0.000112 -0.041034
v 0.000000 0.000112 0.041034
v 0.093626 0.101276 0.016154
v 0.300878 1.343706 -0.014301
v 0.000000 1.208421 0.016154
v 0.093626 1.208420 0.016154
v 0.000000 1.208421 -0.014301
v 0.093626 1.208420 -0.014301
v 0.300878 1.343795 0.016154
v 0.207252 1.343705 0.016154
v 0.207252 1.343706 -0.014301
v 0.254040 1.398915 0.000926
v 0.046786 1.254825 0.000926
v 0.093626 0.101276 -0.014301
v 0.000000 0.101276 -0.014301
v 0.000000 0.101276 0.016154
v 0.300878 0.101276 -0.014301
v 0.207252 0.101276 -0.014301
v 0.207252 0.101276 0.016154
v 0.300878 0.101276 0.016154
v 0.488130 0.101276 0.016154
v 0.675381 1.467086 -0.014301
v 0.394504 1.435087 0.016154
v 0.488129 1.435087 0.016154
v 0.394504 1.435087 -0.014301
v 0.488129 1.435087 -0.014301
v 0.675381 1.467175 0.016154
v 0.581756 1.467085 0.016154
v 0.581756 1.467086 -0.014301
v 0.628543 1.522295 0.000926
v 0.441289 1.481492 0.000926
v 0.488129 0.101276 -0.014301
v 0.394504 0.101276 -0.014301
v 0.394504 0.101276 0.016154
v 0.675381 0.101276 -0.014301
v 0.581755 0.101276 -0.014301
v 0.581756 0.101276 0.016154
v 0.675381 0.101276 0.016154
v 0.807924 0.101276 0.016154
v 0.761111 1.494027 0.016154
v 0.807924 1.494026 0.016154
v 0.761111 1.494027 -0.014301
v 0.807924 1.494026 -0.014301
v 0.784504 1.540431 0.000926
v 0.761111 1.069020 -0.010956
v 0.093626 1.068839 -0.010956
v 0.761111 1.040008 -0.010956
v 0.093626 1.040008 -0.010956
v 0.761111 1.069020 0.012809
v 0.093626 1.068839 0.012809
v 0.093626 1.040008 0.012809
v 0.761111 1.040008 0.012809
v 0.807924 0.101276 -0.014301
v 0.761111 0.101276 -0.014301
v 0.761111 0.101276 0.016154
v 0.807924 0.053631 -0.041534
v 0.807924 -0.000112 -0.041034
v 0.807924 0.101276 0.030208
v 0.807924 0.101276 -0.027411
v 0.807924 0.056937 0.040534
v 0.807924 0.000112 0.041034
v 0.761111 0.906698 -0.010956
v 0.093626 0.906516 -0.010956
v 0.761111 0.877686 -0.010956
v 0.093626 0.877686 -0.010956
v 0.761111 0.906698 0.012809
v 0.093626 0.906516 0.012809
v 0.093626 0.877686 0.012809
v 0.761111 0.877686 0.012809
v 0.761111 0.298910 -0.010956
v 0.093626 0.298729 -0.010956
v 0.761111 0.269899 -0.010956
v 0.093626 0.269899 -0.010956
v 0.761111 0.298910 0.012809
v 0.093626 0.298729 0.012809
v 0.093626 0.269899 0.012809
v 0.761111 0.269899 0.012809
v 0.761111 0.454563 -0.010956
v 0.093626 0.454381 -0.010956
v 0.761111 0.425551 -0.010956
v 0.093626 0.425551 -0.010956
v 0.761111 0.454563 0.012809
v 0.093626 0.454381 0.012809
v 0.093626 0.425551 0.012809
v 0.761111 0.425551 0.012809
vn -0.0000 -0.0000 -1.0000
vn -1.0000 -0.0000 -0.0000
vn -0.0000 -0.0000 1.0000
vn 1.0000 -0.0000 -0.0000
vn -0.7629 0.6465 -0.0000
vn -0.0003 0.2661 0.9640
vn -0.0000 0.3118 0.9502
vn -0.7042 0.7100 -0.0000
vn -0.0000 0.3118 -0.9502
vn 0.7038 0.7104 -0.0000
vn 0.7623 0.6472 -0.0019
vn -0.0000 0.2659 -0.9640
vn -0.8930 0.4501 -0.0000
vn 0.8927 0.4506 -0.0000
vn -0.0003 1.0000 -0.0000
vn -0.0000 -1.0000 -0.0000
vn -0.0000 0.0088 1.0000
vn -0.0000 -0.0093 -1.0000
vn -0.0000 1.0000 -0.0000
vn -0.0000 0.2842 -0.9588
vn -0.0000 0.2268 0.9739
vn -0.0000 -1.0000 0.0027
vt 0.582031 0.906250
vt 0.640625 0.906250
vt 0.640625 0.181641
vt 0.582031 0.181641
vt 0.527344 0.947266
vt 0.527344 0.181641
vt 0.470703 0.947266
vt 0.470703 0.181641
vt 0.613281 0.947266
vt 0.498047 0.984375
vt 0.682722 0.861084
vt 0.187252 0.861084
vt 0.187252 0.833812
vt 0.682722 0.833812
vt 0.498891 0.001953
vt 0.618346 0.001953
vt 0.618346 0.103516
vt 0.498891 0.103516
vt 0.498891 0.101562
vt 0.618346 0.101562
vt 0.618346 0.001953
vt 0.498891 0.001953
vt 0.498891 0.167969
vt 0.618346 0.167969
vt 0.618346 0.167969
s 1
usemtl NanahiraPapercraft.001
f 15/1/1 8/2/1 21/3/1 22/4/1
f 14/1/2 15/1/2 22/4/2 23/4/2
f 13/2/3 14/1/3 23/4/3 24/3/3
f 12/5/4 10/5/4 7/6/4 18/6/4
f 8/2/4 13/2/4 24/3/4 21/3/4
f 10/5/3 9/7/3 20/8/3 7/6/3
f 9/7/2 11/7/2 19/8/2 20/8/2
f 11/7/1 12/5/1 18/6/1 19/8/1
f 16/9/5 15/1/5 14/1/5
f 16/9/6 14/1/6 13/2/6
f 17/10/7 9/7/7 10/5/7
f 9/7/8 17/10/8 11/7/8
f 12/5/9 11/7/9 17/10/9
f 10/5/10 12/5/10 17/10/10
f 13/2/11 8/2/11 16/9/11
f 8/2/12 15/1/12 16/9/12
f 33/1/1 26/2/1 39/3/1 40/4/1
f 32/1/2 33/1/2 40/4/2 41/4/2
f 31/2/3 32/1/3 41/4/3 42/3/3
f 30/5/4 28/5/4 25/6/4 36/6/4
f 26/2/4 31/2/4 42/3/4 39/3/4
f 28/5/3 27/7/3 38/8/3 25/6/3
f 27/7/2 29/7/2 37/8/2 38/8/2
f 29/7/1 30/5/1 36/6/1 37/8/1
f 34/9/5 33/1/5 32/1/5
f 34/9/6 32/1/6 31/2/6
f 35/10/7 27/7/7 28/5/7
f 27/7/8 35/10/8 29/7/8
f 30/5/9 29/7/9 35/10/9
f 28/5/10 30/5/10 35/10/10
f 31/2/11 26/2/11 34/9/11
f 26/2/12 33/1/12 34/9/12
f 47/5/4 45/5/4 43/6/4 57/6/4
f 45/5/3 44/7/3 59/8/3 43/6/3
f 44/7/2 46/7/2 58/8/2 59/8/2
f 46/7/1 47/5/1 57/6/1 58/8/1
f 48/10/7 44/7/7 45/5/7
f 44/7/13 48/10/13 46/7/13
f 47/5/9 46/7/9 48/10/9
f 45/5/14 47/5/14 48/10/14
f 53/11/3 54/12/3 55/13/3 56/14/3
f 49/11/1 51/14/1 52/13/1 50/12/1
f 50/12/15 54/12/15 53/11/15 49/11/15
f 51/14/16 56/14/16 55/13/16 52/13/16
f 6/15/17 65/16/17 64/17/17 4/18/17
f 3/19/18 60/20/18 61/21/18 5/22/18
f 2/23/19 62/24/19 63/25/19 1/23/19
f 3/19/20 1/23/20 63/25/20 60/20/20
f 2/23/21 4/18/21 64/17/21 62/24/21
f 6/15/22 5/22/22 61/21/22 65/16/22
f 6/15/2 4/18/2 2/23/2 1/23/2 3/19/2 5/22/2
f 60/20/4 63/25/4 62/24/4 64/17/4 65/16/4 61/21/4
f 70/11/3 71/12/3 72/13/3 73/14/3
f 66/11/1 68/14/1 69/13/1 67/12/1
f 67/12/15 71/12/15 70/11/15 66/11/15
f 68/14/16 73/14/16 72/13/16 69/13/16
f 78/11/3 79/12/3 80/13/3 81/14/3
f 74/11/1 76/14/1 77/13/1 75/12/1
f 75/12/15 79/12/15 78/11/15 74/11/15
f 76/14/16 81/14/16 80/13/16 77/13/16
f 86/11/3 87/12/3 88/13/3 89/14/3
f 82/11/1 84/14/1 85/13/1 83/12/1
f 83/12/15 87/12/15 86/11/15 82/11/15
f 84/14/16 89/14/16 88/13/16 85/13/16
