# Blender 3.6.0
# www.blender.org
mtllib package1.mtl
o Cube
v 0.050000 0.018750 -0.037500
v 0.047345 -0.018750 -0.035509
v 0.050000 0.018750 0.037500
v 0.047345 -0.018750 0.035509
v -0.050000 0.018750 -0.037500
v -0.047345 -0.018750 -0.035509
v -0.050000 0.018750 0.037500
v -0.047345 -0.018750 0.035509
vn -0.0000 1.0000 -0.0000
vn -0.0000 -0.0530 0.9986
vn -0.9975 -0.0706 -0.0000
vn -0.0000 -1.0000 -0.0000
vn 0.9975 -0.0706 -0.0000
vn -0.0000 -0.0530 -0.9986
vt 0.610224 0.339206
vt 0.158066 0.339206
vt 0.158066 0.000088
vt 0.610224 0.000088
vt 0.598219 0.830114
vt 0.610224 0.999912
vt 0.158066 0.999912
vt 0.170071 0.830114
vt 0.000088 0.839118
vt 0.000088 0.500000
vt 0.170071 0.509004
vt 0.598219 0.509004
vt 0.768202 0.500000
vt 0.768202 0.839118
s 0
usemtl Material
f 1/1/1 5/2/1 7/3/1 3/4/1
f 4/5/2 3/6/2 7/7/2 8/8/2
f 8/8/3 7/9/3 5/10/3 6/11/3
f 6/11/4 2/12/4 4/5/4 8/8/4
f 2/12/5 1/13/5 3/14/5 4/5/5
f 6/11/6 5/2/6 1/1/6 2/12/6
