<?xml version="1.0" encoding="UTF-8" standalone="no"?>
<!-- Created with Inkscape (http://www.inkscape.org/) -->

<svg
   width="240mm"
   height="6mm"
   viewBox="0 0 240 6.0000001"
   version="1.1"
   id="svg5"
   inkscape:version="1.1.2 (0a00cf5339, 2022-02-04)"
   sodipodi:docname="dialog_separator.svg"
   xmlns:inkscape="http://www.inkscape.org/namespaces/inkscape"
   xmlns:sodipodi="http://sodipodi.sourceforge.net/DTD/sodipodi-0.dtd"
   xmlns="http://www.w3.org/2000/svg"
   xmlns:svg="http://www.w3.org/2000/svg">
  <sodipodi:namedview
     id="namedview7"
     pagecolor="#ffffff"
     bordercolor="#666666"
     borderopacity="1.0"
     inkscape:pageshadow="2"
     inkscape:pageopacity="0.0"
     inkscape:pagecheckerboard="0"
     inkscape:document-units="mm"
     showgrid="false"
     height="5mm"
     inkscape:zoom="2.2974795"
     inkscape:cx="853.54407"
     inkscape:cy="-76.388059"
     inkscape:window-width="1920"
     inkscape:window-height="1022"
     inkscape:window-x="0"
     inkscape:window-y="0"
     inkscape:window-maximized="1"
     inkscape:current-layer="layer1"
     width="240mm" />
  <defs
     id="defs2" />
  <g
     inkscape:label="Layer 1"
     inkscape:groupmode="layer"
     id="layer1">
    <path
       style="fill:none;stroke:#fdc4d3;stroke-width:1.11242px;stroke-linecap:round;stroke-linejoin:miter;stroke-opacity:1"
       d="m 0.978123,3.8621695 c 0,0 0.8470434,-0.1670102 1.2156808,0.3313054 0.3752546,0.5072603 1.6755877,0.3689568 2.0267139,-0.013339 0.3564972,-0.388142 1.6087537,-0.4532123 1.9462266,0.00412 0.37441,0.5073831 1.8493417,0.4137945 2.2378419,-0.036039 0.3193361,-0.3697519 1.7276908,-0.4174166 2.0175968,-0.027649 0.297931,0.4005576 0.901605,0.3927353 0.901605,0.3927353"
       id="path1509"
       sodipodi:nodetypes="csssssc" />
    <path
       style="fill:none;stroke:#fdc4d3;stroke-width:1.11242px;stroke-linecap:round;stroke-linejoin:miter;stroke-opacity:1"
       d="m 11.323788,4.5133001 c 0,0 0.847044,0.1670102 1.215681,-0.3313052 0.375255,-0.5072604 1.675588,-0.368957 2.026714,0.013339 0.356497,0.3881419 1.608754,0.4532121 1.946227,-0.00412 0.37441,-0.5073833 1.849341,-0.4137946 2.237842,0.036039 0.319335,0.3697518 1.727691,0.4174165 2.017596,0.027649 0.297932,-0.4005563 0.901605,-0.3927338 0.901605,-0.3927338"
       id="path1509-3"
       sodipodi:nodetypes="csssssc" />
    <path
       style="fill:none;stroke:#fdc4d3;stroke-width:1.11242px;stroke-linecap:round;stroke-linejoin:miter;stroke-opacity:1"
       d="m 21.669453,3.8621695 c 0,0 0.847044,-0.1670102 1.215681,0.3313054 0.375256,0.5072603 1.675589,0.3689567 2.026714,-0.013339 0.356498,-0.388142 1.608754,-0.4532123 1.946228,0.00412 0.37441,0.5073833 1.84934,0.4137945 2.23784,-0.036039 0.319337,-0.3697519 1.727693,-0.4174166 2.017597,-0.027649 0.297932,0.4005575 0.901607,0.3927353 0.901607,0.3927353"
       id="path1509-6"
       sodipodi:nodetypes="csssssc" />
    <path
       style="fill:none;stroke:#fdc4d3;stroke-width:1.11242px;stroke-linecap:round;stroke-linejoin:miter;stroke-opacity:1"
       d="m 32.01512,4.5133001 c 0,0 0.847042,0.1670102 1.21568,-0.3313052 0.375255,-0.5072604 1.675588,-0.368957 2.026716,0.013339 0.356495,0.3881418 1.608751,0.4532123 1.946226,-0.00412 0.374409,-0.5073833 1.849339,-0.4137946 2.23784,0.036039 0.319337,0.3697517 1.727692,0.4174165 2.017596,0.027649 0.297933,-0.4005577 0.901607,-0.3927354 0.901607,-0.3927354"
       id="path1509-3-7"
       sodipodi:nodetypes="csssssc" />
    <path
       style="fill:none;stroke:#fdc4d3;stroke-width:1.11242px;stroke-linecap:round;stroke-linejoin:miter;stroke-opacity:1"
       d="m 42.360785,3.8621695 c 0,0 0.847042,-0.1670118 1.21568,0.3313052 0.375255,0.5072603 1.675588,0.368957 2.026716,-0.013348 0.356495,-0.388142 1.608752,-0.4532124 1.946226,0.00412 0.374409,0.507383 1.849342,0.4137942 2.237842,-0.036038 0.319335,-0.3697521 1.727684,-0.4174166 2.017593,-0.027662 0.297932,0.4005577 0.901603,0.3927354 0.901603,0.3927354"
       id="path1509-5"
       sodipodi:nodetypes="csssssc" />
    <path
       style="fill:none;stroke:#fdc4d3;stroke-width:1.11242px;stroke-linecap:round;stroke-linejoin:miter;stroke-opacity:1"
       d="m 52.706445,4.5133001 c 0,0 0.847048,0.1670087 1.21568,-0.3313054 0.375254,-0.5072604 1.675587,-0.3689571 2.026712,0.013348 0.356507,0.3881422 1.608758,0.4532123 1.946227,-0.00412 0.374415,-0.5073832 1.849343,-0.4137944 2.237842,0.036038 0.319339,0.369752 1.7277,0.4174165 2.017599,0.027662 0.297932,-0.4005577 0.901602,-0.3927352 0.901602,-0.3927352"
       id="path1509-3-3"
       sodipodi:nodetypes="csssssc" />
    <path
       style="fill:none;stroke:#fdc4d3;stroke-width:1.11242px;stroke-linecap:round;stroke-linejoin:miter;stroke-opacity:1"
       d="m 63.052107,3.8621695 c 0,0 0.847049,-0.1670118 1.215691,0.3313052 0.375254,0.5072603 1.675581,0.3689566 2.026712,-0.013348 0.356496,-0.388142 1.608752,-0.4532124 1.946226,0.00412 0.374411,0.507383 1.84934,0.4137942 2.237843,-0.036038 0.319334,-0.3697521 1.727689,-0.4174166 2.017593,-0.027662 0.297933,0.4005573 0.901608,0.3927354 0.901608,0.3927354"
       id="path1509-6-5"
       sodipodi:nodetypes="csssssc" />
    <path
       style="fill:none;stroke:#fdc4d3;stroke-width:1.11242px;stroke-linecap:round;stroke-linejoin:miter;stroke-opacity:1"
       d="m 73.39778,4.5133001 c 0,0 0.847044,0.1670087 1.21568,-0.3313054 0.37525,-0.5072604 1.675587,-0.3689571 2.026718,0.013348 0.356491,0.3881419 1.608747,0.4532123 1.946221,-0.00412 0.374415,-0.5073832 1.849344,-0.4137944 2.237842,0.036038 0.319339,0.3697517 1.72769,0.4174165 2.017599,0.027662 0.297932,-0.4005577 0.901602,-0.3927352 0.901602,-0.3927352"
       id="path1509-3-7-6"
       sodipodi:nodetypes="csssssc" />
    <path
       style="fill:none;stroke:#fdc4d3;stroke-width:1.11242px;stroke-linecap:round;stroke-linejoin:miter;stroke-opacity:1"
       d="m 83.743442,3.8621911 c 0,0 0.847044,-0.1670119 1.215686,0.3313052 0.375259,0.5072602 1.675587,0.3689565 2.026712,-0.013348 0.356502,-0.388142 1.608752,-0.4532124 1.946231,0.00412 0.374411,0.5073831 1.849335,0.4137943 2.237838,-0.036038 0.319334,-0.3697522 1.72769,-0.4174166 2.017598,-0.027662 0.297933,0.4005574 0.901608,0.3927355 0.901608,0.3927355"
       id="path1509-6-5-2"
       sodipodi:nodetypes="csssssc" />
    <path
       style="fill:none;stroke:#fdc4d3;stroke-width:1.11242px;stroke-linecap:round;stroke-linejoin:miter;stroke-opacity:1"
       d="m 94.089115,4.5133216 c 0,0 0.847039,0.1670087 1.215675,-0.3313054 0.37526,-0.5072604 1.675587,-0.3689569 2.026718,0.013348 0.356491,0.3881419 1.608752,0.4532123 1.946221,-0.00412 0.374415,-0.5073833 1.849351,-0.4137945 2.237841,0.036038 0.31934,0.3697517 1.7277,0.4174164 2.0176,0.027662 0.29793,-0.4005578 0.9016,-0.3927352 0.9016,-0.3927352"
       id="path1509-3-7-6-9"
       sodipodi:nodetypes="csssssc" />
    <path
       style="fill:none;stroke:#fdc4d3;stroke-width:1.11242px;stroke-linecap:round;stroke-linejoin:miter;stroke-opacity:1"
       d="m 104.43477,3.8622127 c 0,0 0.84705,-0.1670119 1.21569,0.3313051 0.37525,0.5072603 1.67559,0.3689566 2.02671,-0.013348 0.35651,-0.3881419 1.60876,-0.4532123 1.94623,0.00412 0.37441,0.5073831 1.84934,0.4137943 2.23784,-0.036038 0.31934,-0.369752 1.7277,-0.4174166 2.01759,-0.027662 0.29794,0.4005573 0.90162,0.3927353 0.90162,0.3927353"
       id="path1509-6-5-1"
       sodipodi:nodetypes="csssssc" />
    <path
       style="fill:none;stroke:#fdc4d3;stroke-width:1.11242px;stroke-linecap:round;stroke-linejoin:miter;stroke-opacity:1"
       d="m 114.78045,4.5133432 c 0,0 0.84704,0.1670087 1.21568,-0.3313054 0.37525,-0.5072604 1.67559,-0.3689571 2.02671,0.013348 0.3565,0.3881419 1.60875,0.4532123 1.94623,-0.00412 0.3744,-0.5073831 1.84933,-0.4137944 2.23783,0.036038 0.31935,0.3697517 1.7277,0.4174165 2.0176,0.027662 0.29793,-0.4005578 0.90161,-0.3927352 0.90161,-0.3927352"
       id="path1509-3-7-6-2"
       sodipodi:nodetypes="csssssc" />
    <path
       style="fill:none;stroke:#fdc4d3;stroke-width:1.11242px;stroke-linecap:round;stroke-linejoin:miter;stroke-opacity:1"
       d="m 125.12611,3.862233 c 0,0 0.84705,-0.1670102 1.21568,0.3313054 0.37526,0.5072602 1.67558,0.3689567 2.02672,-0.013338 0.35649,-0.3881423 1.60875,-0.4532127 1.94622,0.00411 0.37441,0.5073829 1.84935,0.4137943 2.23784,-0.036036 0.31934,-0.3697523 1.7277,-0.4174164 2.0176,-0.027649 0.29793,0.4005574 0.90161,0.3927352 0.90161,0.3927352"
       id="path1509-36"
       sodipodi:nodetypes="csssssc" />
    <path
       style="fill:none;stroke:#fdc4d3;stroke-width:1.11242px;stroke-linecap:round;stroke-linejoin:miter;stroke-opacity:1"
       d="m 135.47178,4.5133632 c 0,0 0.84704,0.1670102 1.21568,-0.3313053 0.37525,-0.5072603 1.67559,-0.3689568 2.02671,0.013338 0.35649,0.3881422 1.60875,0.4532126 1.94623,-0.00411 0.37441,-0.507383 1.84934,-0.4137944 2.23784,0.036036 0.31934,0.3697522 1.72769,0.4174169 2.0176,0.027649 0.29793,-0.400556 0.9016,-0.3927338 0.9016,-0.3927338"
       id="path1509-3-75"
       sodipodi:nodetypes="csssssc" />
    <path
       style="fill:none;stroke:#fdc4d3;stroke-width:1.11242px;stroke-linecap:round;stroke-linejoin:miter;stroke-opacity:1"
       d="m 145.81744,3.862233 c 0,0 0.84704,-0.1670102 1.21569,0.3313054 0.37525,0.5072602 1.67558,0.3689567 2.02671,-0.013338 0.3565,-0.3881423 1.60875,-0.4532127 1.94623,0.00411 0.37441,0.5073829 1.84933,0.4137943 2.23784,-0.036036 0.31933,-0.3697523 1.72769,-0.4174164 2.0176,-0.027649 0.29793,0.4005574 0.9016,0.3927352 0.9016,0.3927352"
       id="path1509-6-3"
       sodipodi:nodetypes="csssssc" />
    <path
       style="fill:none;stroke:#fdc4d3;stroke-width:1.11242px;stroke-linecap:round;stroke-linejoin:miter;stroke-opacity:1"
       d="m 156.16311,4.5133632 c 0,0 0.84705,0.1670102 1.21568,-0.3313053 0.37526,-0.5072603 1.67558,-0.3689568 2.02672,0.013338 0.35649,0.3881422 1.60875,0.4532126 1.94622,-0.00411 0.37441,-0.507383 1.84934,-0.4137944 2.23784,0.036036 0.31934,0.3697517 1.7277,0.4174169 2.0176,0.027649 0.29793,-0.4005576 0.9016,-0.3927353 0.9016,-0.3927353"
       id="path1509-3-7-5"
       sodipodi:nodetypes="csssssc" />
    <path
       style="fill:none;stroke:#fdc4d3;stroke-width:1.11242px;stroke-linecap:round;stroke-linejoin:miter;stroke-opacity:1"
       d="m 166.50877,3.862233 c 0,0 0.84705,-0.1670118 1.21568,0.3313048 0.37526,0.5072602 1.6756,0.3689573 2.02672,-0.013348 0.35649,-0.3881418 1.60875,-0.4532122 1.94623,0.00411 0.37441,0.5073835 1.84934,0.4137943 2.23784,-0.036036 0.31933,-0.3697518 1.72768,-0.4174164 2.01759,-0.027665 0.29793,0.4005581 0.9016,0.3927358 0.9016,0.3927358"
       id="path1509-5-6"
       sodipodi:nodetypes="csssssc" />
    <path
       style="fill:none;stroke:#fdc4d3;stroke-width:1.11242px;stroke-linecap:round;stroke-linejoin:miter;stroke-opacity:1"
       d="m 176.85443,4.5133632 c 0,0 0.84705,0.1670086 1.21569,-0.3313053 0.37525,-0.5072603 1.67558,-0.3689568 2.0267,0.013348 0.35652,0.3881422 1.60876,0.4532126 1.94623,-0.00411 0.37442,-0.5073831 1.84935,-0.4137946 2.23785,0.036036 0.31934,0.3697523 1.7277,0.4174164 2.01759,0.027665 0.29794,-0.4005577 0.90161,-0.3927354 0.90161,-0.3927354"
       id="path1509-3-3-2"
       sodipodi:nodetypes="csssssc" />
    <path
       style="fill:none;stroke:#fdc4d3;stroke-width:1.11242px;stroke-linecap:round;stroke-linejoin:miter;stroke-opacity:1"
       d="m 187.2001,3.862233 c 0,0 0.84705,-0.1670118 1.21569,0.3313048 0.37525,0.5072602 1.67558,0.3689568 2.02671,-0.013348 0.3565,-0.3881418 1.60876,-0.4532122 1.94622,0.00411 0.37442,0.5073835 1.84934,0.4137943 2.23785,-0.036036 0.31933,-0.3697518 1.72769,-0.4174164 2.0176,-0.027665 0.29792,0.4005576 0.9016,0.3927358 0.9016,0.3927358"
       id="path1509-6-5-9"
       sodipodi:nodetypes="csssssc" />
    <path
       style="fill:none;stroke:#fdc4d3;stroke-width:1.11242px;stroke-linecap:round;stroke-linejoin:miter;stroke-opacity:1"
       d="m 197.54577,4.5133632 c 0,0 0.84704,0.1670086 1.21568,-0.3313053 0.37525,-0.5072603 1.67559,-0.3689568 2.02672,0.013348 0.35649,0.3881422 1.60874,0.4532126 1.94621,-0.00411 0.37442,-0.5073831 1.84936,-0.4137946 2.23786,0.036036 0.31933,0.3697518 1.72768,0.4174164 2.01759,0.027665 0.29793,-0.4005577 0.9016,-0.3927354 0.9016,-0.3927354"
       id="path1509-3-7-6-1"
       sodipodi:nodetypes="csssssc" />
    <path
       style="fill:none;stroke:#fdc4d3;stroke-width:1.11242px;stroke-linecap:round;stroke-linejoin:miter;stroke-opacity:1"
       d="m 207.89143,3.8622615 c 0,0 0.84705,-0.1670086 1.21569,0.3313053 0.37525,0.5072603 1.67558,0.3689568 2.0267,-0.013348 0.35652,-0.3881422 1.60876,-0.4532126 1.94623,0.00411 0.37442,0.5073831 1.84935,0.4137946 2.23785,-0.036036 0.31934,-0.3697523 1.7277,-0.4174164 2.01759,-0.027665 0.29794,0.4005577 0.90161,0.3927354 0.90161,0.3927354"
       id="path1509-3-3-2-3"
       sodipodi:nodetypes="csssssc" />
    <path
       style="fill:none;stroke:#fdc4d3;stroke-width:1.11242px;stroke-linecap:round;stroke-linejoin:miter;stroke-opacity:1"
       d="m 218.2371,4.5133917 c 0,0 0.84705,0.1670118 1.21569,-0.3313048 0.37525,-0.5072602 1.67558,-0.3689568 2.02671,0.013348 0.3565,0.3881418 1.60876,0.4532122 1.94622,-0.00411 0.37442,-0.5073835 1.84934,-0.4137943 2.23785,0.036036 0.31933,0.3697518 1.72769,0.4174164 2.0176,0.027665 0.29792,-0.4005576 0.9016,-0.3927358 0.9016,-0.3927358"
       id="path1509-6-5-9-6"
       sodipodi:nodetypes="csssssc" />
    <path
       style="fill:none;stroke:#fdc4d3;stroke-width:1.11242px;stroke-linecap:round;stroke-linejoin:miter;stroke-opacity:1"
       d="m 228.58277,3.8622615 c 0,0 0.84704,-0.1670086 1.21568,0.3313053 0.37525,0.5072603 1.67559,0.3689568 2.02672,-0.013348 0.35649,-0.3881422 1.60874,-0.4532126 1.94621,0.00411 0.37442,0.5073831 1.84936,0.4137946 2.23786,-0.036036 0.31933,-0.3697518 1.72768,-0.4174164 2.01759,-0.027665 0.29793,0.4005577 0.9016,0.3927354 0.9016,0.3927354"
       id="path1509-3-7-6-1-7"
       sodipodi:nodetypes="csssssc" />
  </g>
</svg>
