# Blender 3.6.0
# www.blender.org
mtllib asteroid2_collider.mtl
o Collider2
v 0.006959 0.861010 0.316420
v 0.602205 0.545253 -0.274541
v -0.266127 0.772261 -0.645420
v -0.998954 0.503185 0.189956
v -0.272290 0.142181 1.012012
v 0.816322 0.273682 0.716262
v 0.295903 -0.083571 -0.949967
v -0.630035 -0.160362 -0.574667
v -0.802860 -0.672143 0.382581
v 0.251190 -0.601563 0.559339
v 0.723548 -0.296223 -0.131050
v 0.006893 -0.805761 -0.327812
v -0.143632 1.002225 -0.153614
v 0.457157 0.958786 0.025264
v 0.321121 0.897679 -0.625314
v 0.777529 0.483458 0.170649
v 0.455271 0.725445 0.615041
v -0.455843 0.738384 0.269008
v -0.762202 0.794247 -0.312894
v -0.136051 0.579660 0.679540
v -0.739761 0.371109 0.736601
v 0.322204 0.247558 1.065137
v 0.868495 0.140176 -0.262220
v 1.119592 -0.103582 0.335683
v 0.027228 0.429355 -1.040994
v 0.607790 0.319176 -0.749544
v -1.009713 0.147086 -0.308537
v -0.646942 0.359260 -0.861412
v -0.632353 -0.302701 0.852392
v -1.039997 -0.100364 0.329069
v 0.539392 -0.225087 0.682494
v -0.000254 -0.252724 0.758640
v 0.817829 -0.331583 -0.748183
v -0.207775 -0.115696 -0.746284
v -0.832907 -0.464165 -0.183667
v -0.265327 -0.847168 0.635133
v 0.556785 -0.501241 0.223147
v 0.209526 -0.663309 -0.861904
v 0.545637 -0.767695 -0.301023
v -0.446540 -0.735475 -0.658780
v -0.436458 -0.961063 -0.014488
v 0.149969 -0.817232 0.139447
v -0.064967 1.008639 0.109756
v 0.515157 0.708786 -0.137953
v 0.000769 0.721394 -0.543368
v 0.830085 0.591517 -0.065737
v 0.668699 0.532528 0.700192
v -0.267745 0.993166 0.380096
v -0.674430 0.508220 -0.050074
v -0.065433 0.911613 0.655562
v -0.510084 0.259737 0.903220
v 0.524858 0.245000 0.822950
v 0.877424 0.394593 -0.310834
v 0.992143 -0.252866 0.072261
v -0.123376 0.616847 -0.847410
v 0.378307 0.118236 -0.735803
v -0.905115 0.291663 -0.057348
v -0.657097 0.059208 -0.718572
v -0.436468 -0.069825 0.906509
v -0.844317 -0.344000 0.324283
v 0.518272 0.015915 0.555744
v 0.125411 -0.426420 0.672892
v 0.515874 -0.190555 -0.823927
v -0.439952 -0.153814 -0.723958
v -0.830966 -0.572542 0.081779
v 0.035573 -0.840073 0.691939
v 0.643424 -0.401805 0.046910
v 0.195308 -0.271080 -0.743778
v 0.329573 -0.966420 -0.378250
v -0.498744 -0.360385 -0.549735
v -0.498744 -0.625377 0.135642
v 0.178232 -0.649831 0.321946
v -0.177110 0.727409 -0.320734
v 0.237375 0.968078 0.199662
v 0.410503 0.618231 -0.372697
v 0.683822 0.349072 0.361551
v 0.232076 0.835583 0.484779
v -0.622391 0.575495 0.206783
v -0.525836 0.824795 -0.516871
v -0.187882 0.359831 0.764585
v -0.796877 0.400880 0.427321
v 0.001008 0.175938 0.834747
v 0.767915 -0.086813 -0.187727
v 0.661840 0.087176 0.371435
v 0.182049 0.164834 -1.047764
v 0.584170 0.435401 -0.478008
v -0.681369 -0.006601 -0.382312
v -0.426613 0.549548 -0.708525
v -0.533620 -0.324802 0.440680
v -0.953844 0.186973 0.242320
v 0.387326 -0.407094 0.609326
v -0.112665 -0.061165 0.767579
v 0.643424 -0.255135 -0.332438
v 0.026404 -0.131615 -0.967390
v -0.690623 -0.278383 -0.372935
v -0.398518 -0.520439 0.360824
v 0.381208 -0.509849 0.359202
v 0.065995 -0.583911 -0.459013
v 0.650181 -0.509116 -0.213118
v -0.200441 -0.806051 -0.486345
v -0.205093 -0.943011 -0.194576
v 0.065995 -0.729709 -0.081921
v 0.372042 -0.878642 -0.069990
v 0.708324 -0.796772 -0.011190
v 0.491076 -0.870938 0.243629
v -0.123067 -1.053925 0.085772
v -0.033791 -0.899921 0.387346
v -0.333088 -0.837567 0.285354
v -0.450046 -0.865642 -0.338590
v -0.515561 -0.523021 -0.084792
v -0.542495 -0.464207 -0.337952
v -0.116004 -0.680496 -0.740146
v -0.271978 -0.306725 -0.608284
v -0.029112 -0.430749 -0.957876
v 0.363714 -0.677399 -0.534566
v 0.336181 -0.323547 -0.564776
v 0.493469 -0.408179 -0.391611
v 0.839993 -0.364702 0.289159
v 0.687804 -0.139034 0.461277
v 0.504275 -0.339064 0.407593
v -0.120261 -0.616471 0.845959
v -0.237327 -0.222691 0.681530
v -0.367458 -0.432719 0.579770
v -0.903552 -0.281628 0.055938
v -1.032984 0.025256 0.004910
v -0.712048 -0.108462 -0.188835
v -0.353881 0.079127 -0.707509
v -0.253831 0.328349 -0.747561
v -0.103888 0.105318 -0.741757
v 0.673171 0.017302 -0.717214
v 0.625621 0.204602 -0.424185
v 0.682105 -0.042263 -0.393547
v 0.244618 -0.231060 0.701336
v 0.345722 0.002739 0.690850
v 0.122824 -0.032244 0.830593
v -0.621840 -0.121945 0.420962
v -0.668345 0.035555 0.774744
v -0.845110 0.130521 0.503124
v -0.855454 0.255764 -0.593730
v -0.801834 0.418636 -0.276711
v -0.704572 0.576754 -0.587152
v 0.355727 0.389108 -0.936156
v 0.174509 0.662600 -0.830411
v 0.516073 0.640718 -0.752586
v 0.773370 0.040619 -0.000060
v 0.947307 0.336265 -0.044682
v 0.712048 0.191045 0.188835
v 0.381984 0.490081 0.816818
v 0.174508 0.747573 0.767951
v 0.049698 0.389439 0.738479
v -0.446540 0.540135 0.801951
v -0.343682 0.767364 0.574677
v -0.649151 0.640699 0.541849
v -0.493976 0.636087 0.012143
v -0.280151 0.759345 0.059800
v -0.378424 0.784083 -0.198762
v 0.658069 0.614059 0.399129
v 0.516190 0.605147 0.083508
v 0.467635 0.862430 0.328803
v 0.082054 0.982848 -0.389296
v 0.154233 0.994281 -0.066540
v 0.402507 0.945299 -0.292179
vn 0.1728 0.9433 0.2835
vn 0.0744 0.9500 0.3034
vn -0.2084 0.9689 0.1332
vn 0.4337 0.7424 -0.5106
vn 0.8051 0.5549 -0.2096
vn 0.6246 0.7808 0.0122
vn -0.3709 0.9243 0.0904
vn -0.0606 0.7773 0.6263
vn 0.1789 0.9337 0.3103
vn 0.7424 0.2919 -0.6030
vn -0.0204 0.8916 -0.4524
vn -0.2668 0.8642 -0.4266
vn -0.3190 0.5921 -0.7401
vn -0.8126 0.5784 0.0723
vn -0.6784 0.7248 0.1201
vn -0.8594 0.4893 -0.1482
vn 0.1531 0.0657 0.9860
vn -0.3132 0.2284 0.9218
vn -0.0495 -0.3445 0.9375
vn 0.8902 -0.1279 0.4373
vn 0.5496 -0.2665 0.7918
vn 0.7013 -0.1895 0.6872
vn 0.8353 0.4727 -0.2808
vn -0.2117 0.4383 -0.8735
vn -0.9438 0.2209 0.2458
vn 0.0528 -0.4055 0.9126
vn 0.8527 0.1446 0.5019
vn 0.4501 -0.2781 -0.8486
vn 0.1848 -0.3264 -0.9270
vn 0.5398 -0.4019 -0.7397
vn -0.8010 -0.3533 -0.4834
vn -0.2040 -0.3492 -0.9146
vn -0.6295 -0.3205 -0.7078
vn -0.4737 -0.7067 0.5255
vn -0.6718 -0.7122 -0.2038
vn -0.5907 -0.7990 0.1125
vn 0.6875 -0.5835 0.4324
vn 0.4455 -0.7128 0.5417
vn 0.4796 -0.7525 0.4514
vn 0.8037 -0.4576 -0.3804
vn 0.8391 -0.5438 -0.0153
vn 0.9067 -0.1335 -0.4002
vn 0.7367 -0.4855 -0.4708
vn -0.0030 -0.9993 0.0369
vn 0.0827 -0.9248 -0.3713
vn 0.8590 -0.5105 0.0387
vn 0.6767 -0.4386 0.5913
vn 0.6055 -0.5484 0.5767
vn 0.3157 -0.7309 0.6051
vn 0.2357 -0.9624 0.1353
vn 0.1866 -0.9823 0.0188
vn 0.1434 -0.9848 -0.0981
vn 0.3167 -0.9227 0.2201
vn -0.5728 -0.6867 0.4477
vn -0.6044 -0.5558 0.5707
vn -0.6829 -0.6259 0.3769
vn -0.6818 -0.7288 0.0636
vn -0.6482 -0.7184 -0.2523
vn 0.2031 -0.9194 -0.3368
vn -0.6543 -0.7277 -0.2060
vn -0.7215 -0.4803 -0.4988
vn -0.8477 -0.2065 -0.4886
vn -0.7927 -0.5138 -0.3281
vn -0.5630 -0.4504 -0.6929
vn -0.1435 -0.7649 -0.6280
vn 0.2461 -0.8727 -0.4218
vn -0.4334 -0.2335 -0.8704
vn -0.4672 -0.0161 -0.8840
vn -0.2506 -0.1295 -0.9594
vn -0.2026 -0.1477 -0.9681
vn 0.4533 -0.6227 -0.6378
vn 0.4855 -0.4724 -0.7356
vn 0.0731 -0.8905 -0.4491
vn 0.5023 -0.5649 -0.6547
vn 0.7449 -0.4814 -0.4619
vn 0.9169 -0.3730 -0.1417
vn 0.6669 -0.5025 -0.5502
vn 0.9241 0.1131 0.3651
vn 0.4458 -0.8016 0.3985
vn 0.8200 -0.3801 -0.4279
vn 0.5504 -0.0850 0.8305
vn 0.5989 -0.2310 0.7668
vn 0.5217 -0.5716 0.6334
vn 0.5634 -0.6624 0.4937
vn 0.0323 -0.1156 0.9928
vn -0.1063 -0.1485 0.9832
vn 0.4308 -0.1887 0.8825
vn -0.0314 -0.3235 0.9457
vn -0.5336 -0.5719 0.6231
vn -0.6207 -0.5050 0.5997
vn -0.6670 -0.5158 0.5377
vn -0.8587 -0.2193 0.4632
vn -0.9268 -0.2818 -0.2483
vn -0.7217 -0.2324 0.6520
vn -0.9731 -0.0906 -0.2120
vn -0.9353 -0.1141 -0.3349
vn -0.8293 -0.4471 -0.3353
vn -0.8424 -0.2560 -0.4741
vn -0.3164 0.1564 -0.9356
vn -0.0016 -0.0848 -0.9964
vn -0.5376 -0.4355 -0.7221
vn -0.2400 -0.1289 -0.9622
vn -0.2624 0.1897 -0.9461
vn 0.1166 -0.1049 -0.9876
vn -0.5049 -0.0379 -0.8624
vn 0.8302 0.0375 -0.5562
vn 0.7430 0.2994 -0.5986
vn 0.5255 -0.0186 -0.8506
vn 0.8659 0.0681 -0.4956
vn 0.8675 -0.2970 -0.3991
vn 0.8988 -0.2210 -0.3786
vn 0.9726 -0.0389 -0.2293
vn 0.2415 -0.2653 0.9334
vn 0.4989 -0.3545 0.7908
vn 0.1479 0.0163 0.9889
vn -0.1108 0.1143 0.9873
vn 0.0472 -0.4030 0.9140
vn -0.7122 -0.4051 0.5733
vn -0.7976 -0.1705 0.5786
vn -0.7597 0.2797 0.5870
vn -0.8253 0.4561 0.3329
vn -0.8404 -0.1115 0.5304
vn -0.9012 -0.0512 -0.4304
vn -0.8878 0.4597 0.0243
vn -0.7100 0.6981 0.0925
vn -0.1853 0.8941 -0.4078
vn -0.6927 0.4882 -0.5308
vn 0.5100 0.0923 -0.8552
vn -0.0017 0.7161 -0.6980
vn 0.3133 0.8163 -0.4853
vn 0.8382 0.5039 -0.2085
vn 0.7297 0.5294 -0.4329
vn 0.9904 0.1201 -0.0682
vn 0.9773 -0.0100 0.2118
vn 0.8069 0.4225 0.4128
vn 0.9968 0.0090 0.0796
vn 0.9050 0.1856 0.3828
vn 0.4326 0.7520 0.4972
vn 0.1751 0.4625 0.8692
vn 0.6777 0.5223 0.5176
vn 0.0788 0.5176 0.8520
vn -0.0625 0.2760 0.9591
vn 0.2081 0.4449 0.8711
vn -0.2372 0.3357 0.9116
vn -0.0847 0.5358 0.8401
vn -0.4249 0.6816 0.5958
vn -0.6234 0.7646 -0.1634
vn -0.5320 0.8422 -0.0880
vn -0.6484 0.7291 0.2191
vn -0.5233 0.8356 0.1674
vn -0.6422 0.7641 -0.0613
vn -0.4704 0.8614 -0.1916
vn -0.2161 0.8890 -0.4037
vn -0.2578 0.9615 0.0954
vn 0.8570 0.5129 0.0509
vn 0.7236 0.6855 0.0807
vn 0.6678 0.7435 0.0357
vn 0.6084 0.7647 0.2123
vn -0.2584 0.8727 -0.4143
vn 0.0942 0.9955 -0.0123
vn 0.6614 0.7121 -0.2358
vn 0.1441 -0.9111 -0.3861
vt 0.181819 0.000000
vt 0.204546 0.039365
vt 0.159092 0.039365
vt 0.272728 0.157461
vt 0.295455 0.118096
vt 0.318182 0.157461
vt 0.909091 0.000000
vt 0.931818 0.039365
vt 0.886364 0.039365
vt 0.727273 0.000000
vt 0.750000 0.039365
vt 0.704546 0.039365
vt 0.545455 0.000000
vt 0.568182 0.039365
vt 0.522728 0.039365
vt 0.295455 0.196826
vt 0.090910 0.157461
vt 0.136364 0.157461
vt 0.113637 0.196826
vt 0.818182 0.157461
vt 0.863636 0.157461
vt 0.840909 0.196826
vt 0.636364 0.157461
vt 0.681818 0.157461
vt 0.659091 0.196826
vt 0.454546 0.157461
vt 0.500000 0.157461
vt 0.477273 0.196826
vt 0.250001 0.196826
vt 0.068182 0.196826
vt 0.795455 0.196826
vt 0.613637 0.196826
vt 0.431819 0.196826
vt 0.181819 0.314921
vt 0.227273 0.314921
vt 0.204546 0.354286
vt 0.000000 0.314921
vt 0.045455 0.314921
vt 0.022728 0.354286
vt 0.727273 0.314921
vt 0.772727 0.314921
vt 0.750000 0.354286
vt 0.545455 0.314921
vt 0.590909 0.314921
vt 0.568182 0.354286
vt 0.363637 0.314921
vt 0.409091 0.314921
vt 0.386364 0.354286
vt 0.409092 0.393651
vt 0.454546 0.393651
vt 0.431819 0.433017
vt 0.431819 0.354286
vt 0.454546 0.314921
vt 0.500000 0.314921
vt 0.477273 0.354286
vt 0.590909 0.393651
vt 0.636364 0.393651
vt 0.613637 0.433017
vt 0.613637 0.354286
vt 0.636364 0.314921
vt 0.681818 0.314921
vt 0.659091 0.354286
vt 0.772727 0.393651
vt 0.818182 0.393651
vt 0.795455 0.433017
vt 0.795455 0.354286
vt 0.818182 0.314921
vt 0.863636 0.314921
vt 0.840909 0.354286
vt 0.045455 0.393651
vt 0.090910 0.393651
vt 0.068182 0.433017
vt 0.068182 0.354286
vt 0.090910 0.314921
vt 0.136364 0.314921
vt 0.113637 0.354286
vt 0.227273 0.393651
vt 0.272728 0.393651
vt 0.250001 0.433017
vt 0.250001 0.354286
vt 0.272728 0.314921
vt 0.318182 0.314921
vt 0.295455 0.354286
vt 0.409092 0.236191
vt 0.431819 0.275556
vt 0.386364 0.275556
vt 0.454546 0.236191
vt 0.500000 0.236191
vt 0.522728 0.275556
vt 0.477273 0.275556
vt 0.590909 0.236191
vt 0.613637 0.275556
vt 0.568182 0.275556
vt 0.636364 0.236191
vt 0.681818 0.236191
vt 0.704546 0.275556
vt 0.659091 0.275556
vt 0.772727 0.236191
vt 0.795455 0.275556
vt 0.750000 0.275556
vt 0.818182 0.236191
vt 0.863636 0.236191
vt 0.886364 0.275556
vt 0.840909 0.275556
vt 0.045455 0.236191
vt 0.068182 0.275556
vt 0.022728 0.275556
vt 0.090910 0.236191
vt 0.136365 0.236191
vt 0.159092 0.275556
vt 0.113637 0.275556
vt 0.227273 0.236191
vt 0.250001 0.275556
vt 0.204546 0.275556
vt 0.272728 0.236191
vt 0.318182 0.236191
vt 0.340910 0.275556
vt 0.295455 0.275556
vt 0.545455 0.236191
vt 0.522728 0.196826
vt 0.545455 0.157461
vt 0.590909 0.157461
vt 0.568182 0.196826
vt 0.727273 0.236191
vt 0.704546 0.196826
vt 0.727273 0.157461
vt 0.772727 0.157461
vt 0.750000 0.196826
vt 0.909091 0.236191
vt 0.886364 0.196826
vt 0.909091 0.157461
vt 0.954545 0.157461
vt 0.931818 0.196826
vt 0.181819 0.236191
vt 0.159092 0.196826
vt 0.181819 0.157461
vt 0.227273 0.157461
vt 0.204546 0.196826
vt 0.363637 0.236191
vt 0.340910 0.196826
vt 0.363637 0.157461
vt 0.409092 0.157461
vt 0.386364 0.196826
vt 0.500000 0.078731
vt 0.522728 0.118096
vt 0.477273 0.118096
vt 0.545455 0.078731
vt 0.590909 0.078731
vt 0.613637 0.118096
vt 0.568182 0.118096
vt 0.681818 0.078731
vt 0.704546 0.118096
vt 0.659091 0.118096
vt 0.727273 0.078731
vt 0.772727 0.078731
vt 0.795455 0.118096
vt 0.750000 0.118096
vt 0.863636 0.078731
vt 0.886364 0.118096
vt 0.840909 0.118096
vt 0.909091 0.078731
vt 0.954545 0.078731
vt 0.977273 0.118096
vt 0.931818 0.118096
vt 0.386364 0.118096
vt 0.340910 0.118096
vt 0.318182 0.078731
vt 0.340910 0.039365
vt 0.363637 0.078731
vt 0.136365 0.078731
vt 0.159092 0.118096
vt 0.113637 0.118096
vt 0.181819 0.078731
vt 0.227273 0.078731
vt 0.250001 0.118096
vt 0.204546 0.118096
vt 0.386364 0.039365
vt 0.409092 0.078731
vt 0.363637 0.000000
vt 0.431819 0.118096
vt 1.000000 0.157461
vt 0.977273 0.196826
vt 0.954545 0.236191
vt 0.931818 0.275556
vt 0.909091 0.314921
vt 0.340910 0.354286
vt 0.318182 0.393651
vt 0.295455 0.433017
vt 0.272728 0.472382
vt 0.159092 0.354286
vt 0.136365 0.393651
vt 0.113637 0.433017
vt 0.090910 0.472382
vt 0.886364 0.354286
vt 0.863636 0.393651
vt 0.840909 0.433017
vt 0.818182 0.472382
vt 0.704546 0.354286
vt 0.681818 0.393651
vt 0.659091 0.433017
vt 0.636364 0.472382
vt 0.522728 0.354286
vt 0.500000 0.393651
vt 0.477273 0.433017
vt 0.454546 0.472382
s 1
f 1/1/1 74/2/2 43/3/3
f 2/4/4 44/5/5 46/6/6
f 1/7/1 43/8/3 48/9/7
f 1/10/1 48/11/7 50/12/8
f 1/13/1 50/14/8 77/15/9
f 2/4/4 46/6/6 53/16/10
f 3/17/11 45/18/12 55/19/13
f 4/20/14 49/21/15 57/22/16
f 5/23/17 51/24/18 59/25/19
f 6/26/20 52/27/21 61/28/22
f 2/4/4 53/16/10 86/29/23
f 3/17/11 55/19/13 88/30/24
f 4/20/14 57/22/16 90/31/25
f 5/23/17 59/25/19 92/32/26
f 6/26/20 61/28/22 84/33/27
f 7/34/28 63/35/29 68/36/30
f 8/37/31 64/38/32 70/39/33
f 9/40/34 65/41/35 71/42/36
f 10/43/37 66/44/38 72/45/39
f 11/46/40 67/47/41 99/48/42
f 39/49/43 103/50/44 69/51/45
f 39/49/43 104/52/46 103/50/44
f 37/53/47 97/54/48 105/55/49
f 42/56/50 106/57/51 102/58/52
f 42/56/50 107/59/53 106/57/51
f 36/60/54 96/61/55 108/62/56
f 41/63/57 109/64/58 101/65/59
f 41/63/57 110/66/60 109/64/58
f 35/67/61 95/68/62 111/69/63
f 40/70/64 112/71/65 100/72/66
f 40/70/64 113/73/67 112/71/65
f 34/74/68 94/75/69 114/76/70
f 38/77/71 115/78/72 98/79/73
f 38/77/71 116/80/74 115/78/72
f 33/81/75 93/82/76 117/83/77
f 24/84/78 118/85/79 54/86/80
f 24/84/78 119/87/81 118/85/79
f 31/88/82 91/89/83 120/90/84
f 32/91/85 121/92/86 62/93/87
f 32/91/85 122/94/88 121/92/86
f 29/95/89 89/96/90 123/97/91
f 30/98/92 124/99/93 60/100/94
f 30/98/92 125/101/95 124/99/93
f 27/102/96 87/103/97 126/104/98
f 28/105/99 127/106/100 58/107/101
f 28/105/99 128/108/102 127/106/100
f 25/109/103 85/110/104 129/111/105
f 26/112/106 130/113/107 56/114/108
f 26/112/106 131/115/109 130/113/107
f 23/116/110 83/117/111 132/118/112
f 31/88/82 133/119/113 91/89/83
f 31/88/82 134/120/114 133/119/113
f 22/121/115 82/122/116 135/123/117
f 29/95/89 136/124/118 89/96/90
f 29/95/89 137/125/119 136/124/118
f 21/126/120 81/127/121 138/128/122
f 27/102/96 139/129/123 87/103/97
f 27/102/96 140/130/124 139/129/123
f 19/131/125 79/132/126 141/133/127
f 25/109/103 142/134/128 85/110/104
f 25/109/103 143/135/129 142/134/128
f 15/136/130 75/137/131 144/138/132
f 23/116/110 145/139/133 83/117/111
f 23/116/110 146/140/134 145/139/133
f 16/141/135 76/142/136 147/143/137
f 17/144/138 148/145/139 47/146/140
f 17/144/138 149/147/141 148/145/139
f 20/148/142 80/149/143 150/150/144
f 20/151/142 151/152/145 80/153/143
f 20/151/142 152/154/146 151/152/145
f 18/155/147 78/156/148 153/157/149
f 18/158/147 154/159/150 78/160/148
f 18/158/147 155/161/151 154/159/150
f 13/162/152 73/163/153 156/164/154
f 16/141/135 157/165/155 76/142/136
f 16/141/135 158/166/156 157/165/155
f 14/167/157 74/168/2 159/169/158
f 13/170/152 160/171/159 73/172/153
f 13/170/152 161/173/160 160/171/159
f 14/174/157 44/175/5 162/176/161
f 162/176/161 75/137/131 15/136/130
f 162/176/161 44/175/5 75/137/131
f 44/175/5 2/4/4 75/137/131
f 160/171/159 162/176/161 15/136/130
f 160/171/159 161/173/160 162/176/161
f 161/173/160 14/174/157 162/176/161
f 73/172/153 45/18/12 3/17/11
f 73/172/153 160/171/159 45/18/12
f 160/171/159 15/136/130 45/18/12
f 159/169/158 77/177/9 17/178/138
f 159/169/158 74/168/2 77/177/9
f 74/168/2 1/179/1 77/177/9
f 157/165/155 159/169/158 17/178/138
f 157/165/155 158/166/156 159/169/158
f 158/166/156 14/167/157 159/169/158
f 76/142/136 47/180/140 6/26/20
f 76/142/136 157/165/155 47/180/140
f 157/165/155 17/178/138 47/180/140
f 156/164/154 79/132/126 19/131/125
f 156/164/154 73/163/153 79/132/126
f 73/163/153 3/181/11 79/132/126
f 154/159/150 156/164/154 19/131/125
f 154/159/150 155/161/151 156/164/154
f 155/161/151 13/162/152 156/164/154
f 78/160/148 49/21/15 4/20/14
f 78/160/148 154/159/150 49/21/15
f 154/159/150 19/131/125 49/21/15
f 153/157/149 81/127/121 21/126/120
f 153/157/149 78/156/148 81/127/121
f 78/156/148 4/20/14 81/127/121
f 151/152/145 153/157/149 21/126/120
f 151/152/145 152/154/146 153/157/149
f 152/154/146 18/155/147 153/157/149
f 80/153/143 51/24/18 5/23/17
f 80/153/143 151/152/145 51/24/18
f 151/152/145 21/126/120 51/24/18
f 150/150/144 82/122/116 22/121/115
f 150/150/144 80/149/143 82/122/116
f 80/149/143 5/23/17 82/122/116
f 148/145/139 150/150/144 22/121/115
f 148/145/139 149/147/141 150/150/144
f 149/147/141 20/148/142 150/150/144
f 47/146/140 52/27/21 6/26/20
f 47/146/140 148/145/139 52/27/21
f 148/145/139 22/121/115 52/27/21
f 147/143/137 84/33/27 24/84/78
f 147/143/137 76/142/136 84/33/27
f 76/142/136 6/26/20 84/33/27
f 145/139/133 147/143/137 24/84/78
f 145/139/133 146/140/134 147/143/137
f 146/140/134 16/141/135 147/143/137
f 83/117/111 54/86/80 11/46/40
f 83/117/111 145/139/133 54/86/80
f 145/139/133 24/84/78 54/86/80
f 144/138/132 86/29/23 26/112/106
f 144/138/132 75/137/131 86/29/23
f 75/137/131 2/4/4 86/29/23
f 142/134/128 144/138/132 26/112/106
f 142/134/128 143/135/129 144/138/132
f 143/135/129 15/136/130 144/138/132
f 85/110/104 56/114/108 7/34/28
f 85/110/104 142/134/128 56/114/108
f 142/134/128 26/112/106 56/114/108
f 141/133/127 88/182/24 28/183/99
f 141/133/127 79/132/126 88/182/24
f 79/132/126 3/181/11 88/182/24
f 139/129/123 141/133/127 28/183/99
f 139/129/123 140/130/124 141/133/127
f 140/130/124 19/131/125 141/133/127
f 87/103/97 58/184/101 8/185/31
f 87/103/97 139/129/123 58/184/101
f 139/129/123 28/183/99 58/184/101
f 138/128/122 90/31/25 30/98/92
f 138/128/122 81/127/121 90/31/25
f 81/127/121 4/20/14 90/31/25
f 136/124/118 138/128/122 30/98/92
f 136/124/118 137/125/119 138/128/122
f 137/125/119 21/126/120 138/128/122
f 89/96/90 60/100/94 9/40/34
f 89/96/90 136/124/118 60/100/94
f 136/124/118 30/98/92 60/100/94
f 135/123/117 92/32/26 32/91/85
f 135/123/117 82/122/116 92/32/26
f 82/122/116 5/23/17 92/32/26
f 133/119/113 135/123/117 32/91/85
f 133/119/113 134/120/114 135/123/117
f 134/120/114 22/121/115 135/123/117
f 91/89/83 62/93/87 10/43/37
f 91/89/83 133/119/113 62/93/87
f 133/119/113 32/91/85 62/93/87
f 132/118/112 93/82/76 33/81/75
f 132/118/112 83/117/111 93/82/76
f 83/117/111 11/46/40 93/82/76
f 130/113/107 132/118/112 33/81/75
f 130/113/107 131/115/109 132/118/112
f 131/115/109 23/116/110 132/118/112
f 56/114/108 63/35/29 7/34/28
f 56/114/108 130/113/107 63/35/29
f 130/113/107 33/81/75 63/35/29
f 129/111/105 94/75/69 34/74/68
f 129/111/105 85/110/104 94/75/69
f 85/110/104 7/34/28 94/75/69
f 127/106/100 129/111/105 34/74/68
f 127/106/100 128/108/102 129/111/105
f 128/108/102 25/109/103 129/111/105
f 58/107/101 64/38/32 8/37/31
f 58/107/101 127/106/100 64/38/32
f 127/106/100 34/74/68 64/38/32
f 126/104/98 95/68/62 35/67/61
f 126/104/98 87/103/97 95/68/62
f 87/103/97 8/185/31 95/68/62
f 124/99/93 126/104/98 35/67/61
f 124/99/93 125/101/95 126/104/98
f 125/101/95 27/102/96 126/104/98
f 60/100/94 65/41/35 9/40/34
f 60/100/94 124/99/93 65/41/35
f 124/99/93 35/67/61 65/41/35
f 123/97/91 96/61/55 36/60/54
f 123/97/91 89/96/90 96/61/55
f 89/96/90 9/40/34 96/61/55
f 121/92/86 123/97/91 36/60/54
f 121/92/86 122/94/88 123/97/91
f 122/94/88 29/95/89 123/97/91
f 62/93/87 66/44/38 10/43/37
f 62/93/87 121/92/86 66/44/38
f 121/92/86 36/60/54 66/44/38
f 120/90/84 97/54/48 37/53/47
f 120/90/84 91/89/83 97/54/48
f 91/89/83 10/43/37 97/54/48
f 118/85/79 120/90/84 37/53/47
f 118/85/79 119/87/81 120/90/84
f 119/87/81 31/88/82 120/90/84
f 54/86/80 67/47/41 11/46/40
f 54/86/80 118/85/79 67/47/41
f 118/85/79 37/53/47 67/47/41
f 117/83/77 99/186/42 39/187/43
f 117/83/77 93/82/76 99/186/42
f 93/82/76 11/46/40 99/186/42
f 115/78/72 117/83/77 39/187/43
f 115/78/72 116/80/74 117/83/77
f 116/80/74 33/81/75 117/83/77
f 98/79/73 69/188/45 12/189/162
f 98/79/73 115/78/72 69/188/45
f 115/78/72 39/187/43 69/188/45
f 114/76/70 68/190/30 38/191/71
f 114/76/70 94/75/69 68/190/30
f 94/75/69 7/34/28 68/190/30
f 112/71/65 114/76/70 38/191/71
f 112/71/65 113/73/67 114/76/70
f 113/73/67 34/74/68 114/76/70
f 100/72/66 98/192/73 12/193/162
f 100/72/66 112/71/65 98/192/73
f 112/71/65 38/191/71 98/192/73
f 111/69/63 70/194/33 40/195/64
f 111/69/63 95/68/62 70/194/33
f 95/68/62 8/185/31 70/194/33
f 109/64/58 111/69/63 40/195/64
f 109/64/58 110/66/60 111/69/63
f 110/66/60 35/67/61 111/69/63
f 101/65/59 100/196/66 12/197/162
f 101/65/59 109/64/58 100/196/66
f 109/64/58 40/195/64 100/196/66
f 108/62/56 71/198/36 41/199/57
f 108/62/56 96/61/55 71/198/36
f 96/61/55 9/40/34 71/198/36
f 106/57/51 108/62/56 41/199/57
f 106/57/51 107/59/53 108/62/56
f 107/59/53 36/60/54 108/62/56
f 102/58/52 101/200/59 12/201/162
f 102/58/52 106/57/51 101/200/59
f 106/57/51 41/199/57 101/200/59
f 105/55/49 72/202/39 42/203/50
f 105/55/49 97/54/48 72/202/39
f 97/54/48 10/43/37 72/202/39
f 103/50/44 105/55/49 42/203/50
f 103/50/44 104/52/46 105/55/49
f 104/52/46 37/53/47 105/55/49
f 69/51/45 102/204/52 12/205/162
f 69/51/45 103/50/44 102/204/52
f 103/50/44 42/203/50 102/204/52
f 99/48/42 104/52/46 39/49/43
f 99/48/42 67/47/41 104/52/46
f 67/47/41 37/53/47 104/52/46
f 72/45/39 107/59/53 42/56/50
f 72/45/39 66/44/38 107/59/53
f 66/44/38 36/60/54 107/59/53
f 71/42/36 110/66/60 41/63/57
f 71/42/36 65/41/35 110/66/60
f 65/41/35 35/67/61 110/66/60
f 70/39/33 113/73/67 40/70/64
f 70/39/33 64/38/32 113/73/67
f 64/38/32 34/74/68 113/73/67
f 68/36/30 116/80/74 38/77/71
f 68/36/30 63/35/29 116/80/74
f 63/35/29 33/81/75 116/80/74
f 84/33/27 119/87/81 24/84/78
f 84/33/27 61/28/22 119/87/81
f 61/28/22 31/88/82 119/87/81
f 92/32/26 122/94/88 32/91/85
f 92/32/26 59/25/19 122/94/88
f 59/25/19 29/95/89 122/94/88
f 90/31/25 125/101/95 30/98/92
f 90/31/25 57/22/16 125/101/95
f 57/22/16 27/102/96 125/101/95
f 88/30/24 128/108/102 28/105/99
f 88/30/24 55/19/13 128/108/102
f 55/19/13 25/109/103 128/108/102
f 86/29/23 131/115/109 26/112/106
f 86/29/23 53/16/10 131/115/109
f 53/16/10 23/116/110 131/115/109
f 61/28/22 134/120/114 31/88/82
f 61/28/22 52/27/21 134/120/114
f 52/27/21 22/121/115 134/120/114
f 59/25/19 137/125/119 29/95/89
f 59/25/19 51/24/18 137/125/119
f 51/24/18 21/126/120 137/125/119
f 57/22/16 140/130/124 27/102/96
f 57/22/16 49/21/15 140/130/124
f 49/21/15 19/131/125 140/130/124
f 55/19/13 143/135/129 25/109/103
f 55/19/13 45/18/12 143/135/129
f 45/18/12 15/136/130 143/135/129
f 53/16/10 146/140/134 23/116/110
f 53/16/10 46/6/6 146/140/134
f 46/6/6 16/141/135 146/140/134
f 77/15/9 149/147/141 17/144/138
f 77/15/9 50/14/8 149/147/141
f 50/14/8 20/148/142 149/147/141
f 50/12/8 152/154/146 20/151/142
f 50/12/8 48/11/7 152/154/146
f 48/11/7 18/155/147 152/154/146
f 48/9/7 155/161/151 18/158/147
f 48/9/7 43/8/3 155/161/151
f 43/8/3 13/162/152 155/161/151
f 46/6/6 158/166/156 16/141/135
f 46/6/6 44/5/5 158/166/156
f 44/5/5 14/167/157 158/166/156
f 43/3/3 161/173/160 13/170/152
f 43/3/3 74/2/2 161/173/160
f 74/2/2 14/174/157 161/173/160
