# Blender 3.6.0
# www.blender.org
mtllib asteroid3_collider.mtl
o Collider3
v 0.731442 -0.852171 0.067595
v 0.795093 0.192460 0.479182
v 0.072023 -0.434994 0.907637
v -0.407308 -0.857675 0.057233
v 0.054467 -0.457118 -0.705542
v 0.732492 0.109102 -0.480009
v -0.071327 0.555357 0.699445
v -0.944339 -0.052465 0.598252
v -0.840942 -0.123476 -0.514361
v -0.082636 0.560818 -1.031635
v 0.334694 0.816094 -0.070711
v -0.732408 0.914556 -0.066472
v 0.496103 -0.827525 0.664074
v 0.921003 -0.353458 0.358514
v 0.626270 -0.173273 0.960654
v 1.153492 0.189842 -0.010900
v 0.867890 -0.374558 -0.278422
v 0.120506 -0.872658 0.057837
v -0.202581 -0.801218 0.582869
v 0.496103 -0.917723 -0.524545
v -0.180245 -0.730389 -0.393624
v 0.493284 -0.231788 -0.745028
v 0.758971 0.679893 0.272204
v 0.716890 0.616848 -0.360835
v -0.000013 0.108750 1.032897
v 0.424074 0.458145 0.729608
v -0.758997 -0.570643 0.367100
v -0.540624 -0.342168 0.996670
v -0.526356 -0.474091 -0.904522
v -0.713410 -0.560481 -0.264197
v 0.375748 0.307889 -0.719654
v -0.006393 -0.024725 -0.938797
v 0.195277 0.908981 0.433826
v -0.524709 0.332297 0.749290
v -1.025502 -0.110477 0.011378
v -0.480711 0.196980 -0.736403
v 0.224387 0.954391 -0.645716
v -0.351636 0.702235 0.352645
v -0.128229 0.910575 -0.077385
v -0.772706 0.400197 0.233748
v -0.866724 0.399261 -0.344323
v -0.443168 0.791590 -0.588852
v 0.591672 -0.801695 0.344952
v 0.744361 -0.047733 0.363259
v 0.315345 -0.296141 0.886959
v 0.751057 0.165390 0.196691
v 0.727469 -0.098403 -0.359956
v 0.353106 -0.770824 0.050110
v -0.348396 -0.966354 0.368549
v 0.557281 -0.800395 -0.202143
v -0.058344 -0.560127 -0.526442
v 0.659101 -0.062699 -0.648535
v 0.742948 0.417154 0.358634
v 0.638997 0.869785 -0.236897
v 0.040756 -0.186735 1.083489
v 0.226838 0.636731 0.947273
v -0.490330 -0.588903 0.167207
v -0.646569 -0.161880 0.682594
v -0.169805 -0.387963 -0.684539
v -0.882929 -0.406319 -0.435745
v 0.646569 0.225405 -0.682594
v -0.041722 0.249120 -1.082366
v 0.044141 0.649671 0.502061
v -0.592998 0.137665 0.547905
v -1.027310 -0.130793 -0.282855
v -0.353579 0.398523 -0.995026
v 0.316997 0.938324 -0.334085
v -0.216600 0.635053 0.524566
v -0.389553 0.910887 -0.076974
v -0.760837 0.187843 0.345383
v -0.733741 0.130223 -0.373346
v -0.281070 0.705859 -0.828911
v 0.280104 -0.643474 0.830034
v 0.751748 -0.531622 0.197380
v 0.659101 0.034693 0.634891
v 0.898157 0.147973 -0.279529
v 0.865184 -0.644436 -0.126229
v -0.143583 -0.978571 0.077280
v -0.067079 -0.638499 0.769760
v 0.290599 -0.791823 -0.743698
v -0.264660 -0.724591 -0.168429
v 0.293492 -0.392550 -0.800272
v 0.567758 0.799781 0.096348
v 0.753452 0.361142 -0.438925
v -0.042941 0.368904 0.880980
v 0.540796 0.293444 0.536086
v -0.738877 -0.259595 0.400424
v -0.213021 -0.397389 0.966505
v -0.772808 -0.321846 -0.769856
v -0.535290 -0.669832 -0.101599
v 0.170867 0.402143 -0.812545
v 0.042628 -0.352103 -1.049493
v 0.246142 0.802202 0.142793
v -0.300150 0.469846 0.758986
v -0.858541 -0.052975 0.240700
v -0.647922 0.055105 -0.634746
v 0.064122 0.681719 -0.749827
v -0.612002 0.941126 0.223800
v 0.124992 0.981587 -0.082339
v -0.800312 0.652325 0.117855
v -0.751748 0.595147 -0.197380
v -0.527898 0.778228 -0.314609
v -0.280697 0.886454 -0.322821
v 0.028893 0.945798 -0.325682
v -0.114339 0.818517 -0.578191
v -0.553197 0.500868 -0.390540
v -0.569115 0.563434 -0.821652
v -0.604439 0.270691 -0.504375
v -0.745182 0.368642 -0.036757
v -0.776428 0.137527 -0.147386
v -0.776428 0.156866 0.107460
v -0.767107 0.746328 0.430485
v -0.684877 0.384736 0.503537
v -0.466395 0.571694 0.581699
v -0.270880 0.893245 0.162640
v -0.098445 0.737025 0.350005
v 0.030616 0.996679 0.186899
v 0.491197 0.762696 -0.485094
v 0.545022 0.460563 -0.564497
v 0.271219 0.522173 -0.611089
v -0.237693 0.086691 -0.793148
v -0.200214 -0.172724 -0.764332
v -0.569682 -0.117360 -0.920514
v -0.965901 -0.395409 -0.140889
v -0.852202 -0.671305 0.054448
v -0.828406 -0.297022 0.161753
v -0.526696 0.021519 0.861871
v -0.253273 -0.099808 1.027922
v -0.300590 0.242569 1.001938
v 0.335810 0.710307 0.628572
v 0.706617 0.662788 0.621539
v 0.533224 0.896756 0.401050
v 0.212107 0.158529 -0.894659
v 0.411495 0.049231 -0.700023
v 0.248465 -0.133838 -0.862152
v -0.614044 -0.519218 -0.537948
v -0.335836 -0.649466 -0.627200
v -0.405582 -0.602575 -0.310629
v -0.664460 -0.467875 0.667221
v -0.463473 -0.658808 0.457229
v -0.333035 -0.540077 0.714498
v 0.269617 0.333941 1.059522
v 0.273416 -0.021129 0.931452
v 0.417855 0.154570 0.676060
v 0.842062 0.725300 -0.052110
v 0.989985 0.469886 0.145333
v 0.892224 0.401401 -0.187867
v 0.744848 -0.345381 -0.565344
v 0.665743 -0.591765 -0.372036
v 0.486365 -0.528759 -0.628540
v 0.111557 -0.825580 -0.447594
v 0.255877 -0.804646 -0.186090
v -0.034246 -0.778187 -0.169616
v -0.032333 -0.971742 0.357857
v 0.281373 -0.842495 0.322688
v 0.124729 -0.821136 0.627641
v 1.044164 -0.119232 -0.161846
v 0.949646 -0.084510 0.167257
v 1.012774 -0.415059 0.035003
v 0.411080 -0.351160 0.595327
v 0.524821 -0.401710 0.357210
v 0.587985 -0.183821 0.480218
vn 0.5230 -0.8447 0.1143
vn 0.6235 -0.4886 0.6103
vn 0.6377 -0.7012 0.3189
vn 0.8854 0.1629 0.4354
vn 0.8290 0.0404 0.5578
vn 0.8433 0.0219 0.5369
vn 0.1239 -0.9914 -0.0431
vn 0.3341 -0.9391 -0.0799
vn 0.7944 -0.5598 -0.2357
vn 0.8434 -0.0369 0.5361
vn 0.1166 -0.4784 0.8704
vn 0.4318 -0.4337 0.7909
vn 0.1802 -0.1587 0.9708
vn -0.6681 -0.6968 -0.2609
vn -0.5265 -0.7980 0.2932
vn -0.5230 -0.8411 0.1379
vn -0.3535 -0.7072 -0.6123
vn -0.1675 -0.6306 -0.7578
vn 0.0432 -0.6185 -0.7846
vn 0.8832 -0.1030 -0.4574
vn 0.7064 0.0302 -0.7071
vn 0.5728 0.1729 -0.8012
vn 0.6229 0.0645 0.7796
vn -0.0797 -0.5610 0.8239
vn -0.3150 -0.9174 -0.2433
vn -0.0763 -0.3960 -0.9151
vn 0.7749 0.2456 -0.5824
vn -0.2838 0.8162 0.5032
vn -0.3053 0.7902 0.5314
vn -0.0888 0.8731 0.4794
vn -0.8498 0.0037 0.5271
vn -0.7748 0.2363 0.5864
vn -0.9217 0.2985 0.2479
vn -0.8021 0.3240 -0.5017
vn -0.9329 0.2208 -0.2843
vn -0.8536 0.2482 -0.4579
vn 0.1996 0.5093 -0.8371
vn -0.5016 -0.0697 -0.8623
vn -0.1492 0.7845 -0.6020
vn 0.2594 0.9283 0.2663
vn 0.3006 0.9537 -0.0066
vn 0.2011 0.9773 0.0673
vn -0.1765 0.9830 -0.0510
vn -0.2143 0.9582 -0.1896
vn -0.0364 0.9882 -0.1486
vn -0.1662 0.9780 -0.1259
vn 0.2165 0.7380 -0.6391
vn 0.3777 0.5425 -0.7504
vn -0.1513 0.8840 -0.4423
vn -0.5482 0.7914 -0.2706
vn -0.7807 0.4121 -0.4697
vn -0.5965 0.6453 -0.4772
vn -0.8075 0.2959 -0.5102
vn -0.6835 0.0340 -0.7292
vn -0.7492 0.4656 -0.4711
vn -0.8232 0.2027 -0.5303
vn -0.8941 0.2222 -0.3889
vn -0.9974 0.0179 0.0698
vn -0.8697 0.3121 -0.3823
vn -0.9395 0.3425 -0.0096
vn -0.9451 0.1617 0.2838
vn -0.9739 0.0842 0.2107
vn -0.9440 0.3277 0.0387
vn -0.9941 -0.0390 0.1016
vn -0.6531 0.4915 0.5761
vn -0.9910 0.1339 -0.0000
vn -0.8178 0.0244 0.5750
vn -0.7239 0.3530 0.5927
vn -0.2183 0.7274 0.6506
vn -0.2471 0.6839 0.6865
vn 0.0426 0.7861 0.6167
vn -0.0468 0.9177 0.3945
vn -0.2423 0.8967 0.3704
vn -0.2498 0.7278 0.6387
vn -0.1308 0.8876 0.4417
vn 0.3542 0.9342 -0.0421
vn 0.0182 0.9685 0.2483
vn 0.7201 0.3651 -0.5900
vn 0.5401 0.4687 -0.6990
vn 0.4618 0.8688 -0.1788
vn 0.4333 0.4300 -0.7920
vn 0.4285 0.3414 -0.8366
vn 0.6421 0.3897 -0.6602
vn 0.4906 0.3259 -0.8081
vn -0.1913 -0.1173 -0.9745
vn -0.3058 -0.2434 -0.9205
vn 0.1047 -0.1730 -0.9793
vn -0.1849 -0.1485 -0.9715
vn -0.1147 -0.5549 -0.8240
vn -0.8024 -0.2075 -0.5596
vn -0.2792 0.2516 -0.9267
vn -0.3848 -0.8621 -0.3298
vn -0.8958 -0.4445 0.0041
vn -0.7668 -0.5338 -0.3565
vn -0.6093 -0.7856 0.1079
vn -0.7159 -0.6205 0.3202
vn -0.9182 -0.2855 0.2745
vn -0.8840 -0.1755 0.4333
vn -0.5292 -0.3087 0.7904
vn -0.7690 0.2106 0.6035
vn -0.8356 0.0467 0.5474
vn -0.2325 0.0190 0.9724
vn 0.0199 0.1741 0.9845
vn -0.2664 0.5494 0.7919
vn -0.2909 0.3930 0.8723
vn 0.7450 0.0751 0.6629
vn 0.0613 0.7510 0.6574
vn 0.1062 0.7151 0.6910
vn 0.6885 0.2696 0.6732
vn 0.7691 0.5831 0.2615
vn 0.2326 0.9721 0.0305
vn 0.3088 0.9368 0.1642
vn 0.5785 0.0638 -0.8132
vn 0.4349 0.0639 -0.8982
vn 0.4613 -0.0646 -0.8849
vn 0.3675 -0.3422 -0.8648
vn 0.5143 0.0663 -0.8551
vn -0.4351 -0.8740 -0.2162
vn 0.0089 -0.8913 -0.4534
vn -0.2625 -0.9093 -0.3228
vn -0.3178 -0.8468 -0.4266
vn -0.3540 -0.9120 -0.2073
vn -0.7460 -0.4869 0.4543
vn -0.5901 -0.7343 0.3356
vn -0.3101 -0.6725 0.6720
vn -0.1922 -0.6357 0.7476
vn -0.3351 -0.7492 0.5713
vn 0.3737 0.1173 0.9201
vn 0.4548 0.0775 0.8872
vn 0.6608 -0.1746 0.7299
vn 0.8266 0.1526 0.5416
vn 0.6995 0.2976 0.6497
vn 0.7463 0.6612 -0.0770
vn 0.8818 0.2513 0.3991
vn 0.9884 0.1231 0.0888
vn 0.7269 0.0431 -0.6854
vn 0.8149 0.3259 -0.4793
vn 0.8049 -0.2052 -0.5568
vn 0.7911 -0.1905 -0.5813
vn 0.8359 0.0069 -0.5488
vn 0.7267 -0.4923 -0.4791
vn 0.4545 -0.8390 -0.2991
vn -0.0245 -0.5701 -0.8212
vn 0.6171 -0.2844 -0.7337
vn -0.3753 -0.8989 -0.2261
vn 0.0032 -0.9973 0.0738
vn 0.2907 -0.9291 -0.2285
vn -0.0138 -0.9367 -0.3499
vn -0.1214 -0.9529 -0.2779
vn 0.1645 -0.9617 0.2190
vn 0.2360 -0.9710 -0.0391
vn 0.6053 -0.5947 0.5291
vn 0.3212 -0.3780 0.8683
vn -0.0197 -0.8570 0.5149
vn 0.8962 -0.1501 -0.4175
vn 0.8141 0.1524 0.5603
vn 0.6437 -0.2983 0.7047
vn 0.9183 -0.3846 0.0935
vn 0.8585 -0.3542 0.3708
vn 0.6519 -0.2570 0.7135
vn 0.7118 -0.4750 0.5174
vn -0.6349 0.7308 -0.2509
vt 0.181819 0.000000
vt 0.204546 0.039365
vt 0.159092 0.039365
vt 0.272728 0.157461
vt 0.295455 0.118096
vt 0.318182 0.157461
vt 0.909091 0.000000
vt 0.931818 0.039365
vt 0.886364 0.039365
vt 0.727273 0.000000
vt 0.750000 0.039365
vt 0.704546 0.039365
vt 0.545455 0.000000
vt 0.568182 0.039365
vt 0.522728 0.039365
vt 0.295455 0.196826
vt 0.090910 0.157461
vt 0.136364 0.157461
vt 0.113637 0.196826
vt 0.818182 0.157461
vt 0.863636 0.157461
vt 0.840909 0.196826
vt 0.636364 0.157461
vt 0.681818 0.157461
vt 0.659091 0.196826
vt 0.454546 0.157461
vt 0.500000 0.157461
vt 0.477273 0.196826
vt 0.250001 0.196826
vt 0.068182 0.196826
vt 0.795455 0.196826
vt 0.613637 0.196826
vt 0.431819 0.196826
vt 0.181819 0.314921
vt 0.227273 0.314921
vt 0.204546 0.354286
vt 0.000000 0.314921
vt 0.045455 0.314921
vt 0.022728 0.354286
vt 0.727273 0.314921
vt 0.772727 0.314921
vt 0.750000 0.354286
vt 0.545455 0.314921
vt 0.590909 0.314921
vt 0.568182 0.354286
vt 0.363637 0.314921
vt 0.409091 0.314921
vt 0.386364 0.354286
vt 0.409092 0.393651
vt 0.454546 0.393651
vt 0.431819 0.433017
vt 0.431819 0.354286
vt 0.454546 0.314921
vt 0.500000 0.314921
vt 0.477273 0.354286
vt 0.590909 0.393651
vt 0.636364 0.393651
vt 0.613637 0.433017
vt 0.613637 0.354286
vt 0.636364 0.314921
vt 0.681818 0.314921
vt 0.659091 0.354286
vt 0.772727 0.393651
vt 0.818182 0.393651
vt 0.795455 0.433017
vt 0.795455 0.354286
vt 0.818182 0.314921
vt 0.863636 0.314921
vt 0.840909 0.354286
vt 0.045455 0.393651
vt 0.090910 0.393651
vt 0.068182 0.433017
vt 0.068182 0.354286
vt 0.090910 0.314921
vt 0.136364 0.314921
vt 0.113637 0.354286
vt 0.227273 0.393651
vt 0.272728 0.393651
vt 0.250001 0.433017
vt 0.250001 0.354286
vt 0.272728 0.314921
vt 0.318182 0.314921
vt 0.295455 0.354286
vt 0.409092 0.236191
vt 0.431819 0.275556
vt 0.386364 0.275556
vt 0.454546 0.236191
vt 0.500000 0.236191
vt 0.522728 0.275556
vt 0.477273 0.275556
vt 0.590909 0.236191
vt 0.613637 0.275556
vt 0.568182 0.275556
vt 0.636364 0.236191
vt 0.681818 0.236191
vt 0.704546 0.275556
vt 0.659091 0.275556
vt 0.772727 0.236191
vt 0.795455 0.275556
vt 0.750000 0.275556
vt 0.818182 0.236191
vt 0.863636 0.236191
vt 0.886364 0.275556
vt 0.840909 0.275556
vt 0.045455 0.236191
vt 0.068182 0.275556
vt 0.022728 0.275556
vt 0.090910 0.236191
vt 0.136365 0.236191
vt 0.159092 0.275556
vt 0.113637 0.275556
vt 0.227273 0.236191
vt 0.250001 0.275556
vt 0.204546 0.275556
vt 0.272728 0.236191
vt 0.318182 0.236191
vt 0.340910 0.275556
vt 0.295455 0.275556
vt 0.545455 0.236191
vt 0.522728 0.196826
vt 0.545455 0.157461
vt 0.590909 0.157461
vt 0.568182 0.196826
vt 0.727273 0.236191
vt 0.704546 0.196826
vt 0.727273 0.157461
vt 0.772727 0.157461
vt 0.750000 0.196826
vt 0.909091 0.236191
vt 0.886364 0.196826
vt 0.909091 0.157461
vt 0.954545 0.157461
vt 0.931818 0.196826
vt 0.181819 0.236191
vt 0.159092 0.196826
vt 0.181819 0.157461
vt 0.227273 0.157461
vt 0.204546 0.196826
vt 0.363637 0.236191
vt 0.340910 0.196826
vt 0.363637 0.157461
vt 0.409092 0.157461
vt 0.386364 0.196826
vt 0.500000 0.078731
vt 0.522728 0.118096
vt 0.477273 0.118096
vt 0.545455 0.078731
vt 0.590909 0.078731
vt 0.613637 0.118096
vt 0.568182 0.118096
vt 0.681818 0.078731
vt 0.704546 0.118096
vt 0.659091 0.118096
vt 0.727273 0.078731
vt 0.772727 0.078731
vt 0.795455 0.118096
vt 0.750000 0.118096
vt 0.863636 0.078731
vt 0.886364 0.118096
vt 0.840909 0.118096
vt 0.909091 0.078731
vt 0.954545 0.078731
vt 0.977273 0.118096
vt 0.931818 0.118096
vt 0.386364 0.118096
vt 0.340910 0.118096
vt 0.318182 0.078731
vt 0.340910 0.039365
vt 0.363637 0.078731
vt 0.136365 0.078731
vt 0.159092 0.118096
vt 0.113637 0.118096
vt 0.181819 0.078731
vt 0.227273 0.078731
vt 0.250001 0.118096
vt 0.204546 0.118096
vt 0.386364 0.039365
vt 0.409092 0.078731
vt 0.363637 0.000000
vt 0.431819 0.118096
vt 1.000000 0.157461
vt 0.977273 0.196826
vt 0.954545 0.236191
vt 0.931818 0.275556
vt 0.909091 0.314921
vt 0.340910 0.354286
vt 0.318182 0.393651
vt 0.295455 0.433017
vt 0.272728 0.472382
vt 0.159092 0.354286
vt 0.136365 0.393651
vt 0.113637 0.433017
vt 0.090910 0.472382
vt 0.886364 0.354286
vt 0.863636 0.393651
vt 0.840909 0.433017
vt 0.818182 0.472382
vt 0.704546 0.354286
vt 0.681818 0.393651
vt 0.659091 0.433017
vt 0.636364 0.472382
vt 0.522728 0.354286
vt 0.500000 0.393651
vt 0.477273 0.433017
vt 0.454546 0.472382
s 1
f 1/1/1 74/2/2 43/3/3
f 2/4/4 44/5/5 46/6/6
f 1/7/1 43/8/3 48/9/7
f 1/10/1 48/11/7 50/12/8
f 1/13/1 50/14/8 77/15/9
f 2/4/4 46/6/6 53/16/10
f 3/17/11 45/18/12 55/19/13
f 4/20/14 49/21/15 57/22/16
f 5/23/17 51/24/18 59/25/19
f 6/26/20 52/27/21 61/28/22
f 2/4/4 53/16/10 86/29/23
f 3/17/11 55/19/13 88/30/24
f 4/20/14 57/22/16 90/31/25
f 5/23/17 59/25/19 92/32/26
f 6/26/20 61/28/22 84/33/27
f 7/34/28 63/35/29 68/36/30
f 8/37/31 64/38/32 70/39/33
f 9/40/34 65/41/35 71/42/36
f 10/43/37 66/44/38 72/45/39
f 11/46/40 67/47/41 99/48/42
f 39/49/43 103/50/44 69/51/45
f 39/49/43 104/52/46 103/50/44
f 37/53/47 97/54/48 105/55/49
f 42/56/50 106/57/51 102/58/52
f 42/56/50 107/59/53 106/57/51
f 36/60/54 96/61/55 108/62/56
f 41/63/57 109/64/58 101/65/59
f 41/63/57 110/66/60 109/64/58
f 35/67/61 95/68/62 111/69/63
f 40/70/64 112/71/65 100/72/66
f 40/70/64 113/73/67 112/71/65
f 34/74/68 94/75/69 114/76/70
f 38/77/71 115/78/72 98/79/73
f 38/77/71 116/80/74 115/78/72
f 33/81/75 93/82/76 117/83/77
f 24/84/78 118/85/79 54/86/80
f 24/84/78 119/87/81 118/85/79
f 31/88/82 91/89/83 120/90/84
f 32/91/85 121/92/86 62/93/87
f 32/91/85 122/94/88 121/92/86
f 29/95/89 89/96/90 123/97/91
f 30/98/92 124/99/93 60/100/94
f 30/98/92 125/101/95 124/99/93
f 27/102/96 87/103/97 126/104/98
f 28/105/99 127/106/100 58/107/101
f 28/105/99 128/108/102 127/106/100
f 25/109/103 85/110/104 129/111/105
f 26/112/106 130/113/107 56/114/108
f 26/112/106 131/115/109 130/113/107
f 23/116/110 83/117/111 132/118/112
f 31/88/82 133/119/113 91/89/83
f 31/88/82 134/120/114 133/119/113
f 22/121/115 82/122/116 135/123/117
f 29/95/89 136/124/118 89/96/90
f 29/95/89 137/125/119 136/124/118
f 21/126/120 81/127/121 138/128/122
f 27/102/96 139/129/123 87/103/97
f 27/102/96 140/130/124 139/129/123
f 19/131/125 79/132/126 141/133/127
f 25/109/103 142/134/128 85/110/104
f 25/109/103 143/135/129 142/134/128
f 15/136/130 75/137/131 144/138/132
f 23/116/110 145/139/133 83/117/111
f 23/116/110 146/140/134 145/139/133
f 16/141/135 76/142/136 147/143/137
f 17/144/138 148/145/139 47/146/140
f 17/144/138 149/147/141 148/145/139
f 20/148/142 80/149/143 150/150/144
f 20/151/142 151/152/145 80/153/143
f 20/151/142 152/154/146 151/152/145
f 18/155/147 78/156/148 153/157/149
f 18/158/147 154/159/150 78/160/148
f 18/158/147 155/161/151 154/159/150
f 13/162/152 73/163/153 156/164/154
f 16/141/135 157/165/155 76/142/136
f 16/141/135 158/166/156 157/165/155
f 14/167/157 74/168/2 159/169/158
f 13/170/152 160/171/159 73/172/153
f 13/170/152 161/173/160 160/171/159
f 14/174/157 44/175/5 162/176/161
f 162/176/161 75/137/131 15/136/130
f 162/176/161 44/175/5 75/137/131
f 44/175/5 2/4/4 75/137/131
f 160/171/159 162/176/161 15/136/130
f 160/171/159 161/173/160 162/176/161
f 161/173/160 14/174/157 162/176/161
f 73/172/153 45/18/12 3/17/11
f 73/172/153 160/171/159 45/18/12
f 160/171/159 15/136/130 45/18/12
f 159/169/158 77/177/9 17/178/138
f 159/169/158 74/168/2 77/177/9
f 74/168/2 1/179/1 77/177/9
f 157/165/155 159/169/158 17/178/138
f 157/165/155 158/166/156 159/169/158
f 158/166/156 14/167/157 159/169/158
f 76/142/136 47/180/140 6/26/20
f 76/142/136 157/165/155 47/180/140
f 157/165/155 17/178/138 47/180/140
f 156/164/154 79/132/126 19/131/125
f 156/164/154 73/163/153 79/132/126
f 73/163/153 3/181/11 79/132/126
f 154/159/150 156/164/154 19/131/125
f 154/159/150 155/161/151 156/164/154
f 155/161/151 13/162/152 156/164/154
f 78/160/148 49/21/15 4/20/14
f 78/160/148 154/159/150 49/21/15
f 154/159/150 19/131/125 49/21/15
f 153/157/149 81/127/121 21/126/120
f 153/157/149 78/156/148 81/127/121
f 78/156/148 4/20/14 81/127/121
f 151/152/145 153/157/149 21/126/120
f 151/152/145 152/154/146 153/157/149
f 152/154/146 18/155/147 153/157/149
f 80/153/143 51/24/18 5/23/17
f 80/153/143 151/152/145 51/24/18
f 151/152/145 21/126/120 51/24/18
f 150/150/144 82/122/116 22/121/115
f 150/150/144 80/149/143 82/122/116
f 80/149/143 5/23/17 82/122/116
f 148/145/139 150/150/144 22/121/115
f 148/145/139 149/147/141 150/150/144
f 149/147/141 20/148/142 150/150/144
f 47/146/140 52/27/21 6/26/20
f 47/146/140 148/145/139 52/27/21
f 148/145/139 22/121/115 52/27/21
f 147/143/137 84/33/27 24/84/78
f 147/143/137 76/142/136 84/33/27
f 76/142/136 6/26/20 84/33/27
f 145/139/133 147/143/137 24/84/78
f 145/139/133 146/140/134 147/143/137
f 146/140/134 16/141/135 147/143/137
f 83/117/111 54/86/80 11/46/40
f 83/117/111 145/139/133 54/86/80
f 145/139/133 24/84/78 54/86/80
f 144/138/132 86/29/23 26/112/106
f 144/138/132 75/137/131 86/29/23
f 75/137/131 2/4/4 86/29/23
f 142/134/128 144/138/132 26/112/106
f 142/134/128 143/135/129 144/138/132
f 143/135/129 15/136/130 144/138/132
f 85/110/104 56/114/108 7/34/28
f 85/110/104 142/134/128 56/114/108
f 142/134/128 26/112/106 56/114/108
f 141/133/127 88/182/24 28/183/99
f 141/133/127 79/132/126 88/182/24
f 79/132/126 3/181/11 88/182/24
f 139/129/123 141/133/127 28/183/99
f 139/129/123 140/130/124 141/133/127
f 140/130/124 19/131/125 141/133/127
f 87/103/97 58/184/101 8/185/31
f 87/103/97 139/129/123 58/184/101
f 139/129/123 28/183/99 58/184/101
f 138/128/122 90/31/25 30/98/92
f 138/128/122 81/127/121 90/31/25
f 81/127/121 4/20/14 90/31/25
f 136/124/118 138/128/122 30/98/92
f 136/124/118 137/125/119 138/128/122
f 137/125/119 21/126/120 138/128/122
f 89/96/90 60/100/94 9/40/34
f 89/96/90 136/124/118 60/100/94
f 136/124/118 30/98/92 60/100/94
f 135/123/117 92/32/26 32/91/85
f 135/123/117 82/122/116 92/32/26
f 82/122/116 5/23/17 92/32/26
f 133/119/113 135/123/117 32/91/85
f 133/119/113 134/120/114 135/123/117
f 134/120/114 22/121/115 135/123/117
f 91/89/83 62/93/87 10/43/37
f 91/89/83 133/119/113 62/93/87
f 133/119/113 32/91/85 62/93/87
f 132/118/112 93/82/76 33/81/75
f 132/118/112 83/117/111 93/82/76
f 83/117/111 11/46/40 93/82/76
f 130/113/107 132/118/112 33/81/75
f 130/113/107 131/115/109 132/118/112
f 131/115/109 23/116/110 132/118/112
f 56/114/108 63/35/29 7/34/28
f 56/114/108 130/113/107 63/35/29
f 130/113/107 33/81/75 63/35/29
f 129/111/105 94/75/69 34/74/68
f 129/111/105 85/110/104 94/75/69
f 85/110/104 7/34/28 94/75/69
f 127/106/100 129/111/105 34/74/68
f 127/106/100 128/108/102 129/111/105
f 128/108/102 25/109/103 129/111/105
f 58/107/101 64/38/32 8/37/31
f 58/107/101 127/106/100 64/38/32
f 127/106/100 34/74/68 64/38/32
f 126/104/98 95/68/62 35/67/61
f 126/104/98 87/103/97 95/68/62
f 87/103/97 8/185/31 95/68/62
f 124/99/93 126/104/98 35/67/61
f 124/99/93 125/101/95 126/104/98
f 125/101/95 27/102/96 126/104/98
f 60/100/94 65/41/35 9/40/34
f 60/100/94 124/99/93 65/41/35
f 124/99/93 35/67/61 65/41/35
f 123/97/91 96/61/55 36/60/54
f 123/97/91 89/96/90 96/61/55
f 89/96/90 9/40/34 96/61/55
f 121/92/86 123/97/91 36/60/54
f 121/92/86 122/94/88 123/97/91
f 122/94/88 29/95/89 123/97/91
f 62/93/87 66/44/38 10/43/37
f 62/93/87 121/92/86 66/44/38
f 121/92/86 36/60/54 66/44/38
f 120/90/84 97/54/48 37/53/47
f 120/90/84 91/89/83 97/54/48
f 91/89/83 10/43/37 97/54/48
f 118/85/79 120/90/84 37/53/47
f 118/85/79 119/87/81 120/90/84
f 119/87/81 31/88/82 120/90/84
f 54/86/80 67/47/41 11/46/40
f 54/86/80 118/85/79 67/47/41
f 118/85/79 37/53/47 67/47/41
f 117/83/77 99/186/42 39/187/43
f 117/83/77 93/82/76 99/186/42
f 93/82/76 11/46/40 99/186/42
f 115/78/72 117/83/77 39/187/43
f 115/78/72 116/80/74 117/83/77
f 116/80/74 33/81/75 117/83/77
f 98/79/73 69/188/45 12/189/162
f 98/79/73 115/78/72 69/188/45
f 115/78/72 39/187/43 69/188/45
f 114/76/70 68/190/30 38/191/71
f 114/76/70 94/75/69 68/190/30
f 94/75/69 7/34/28 68/190/30
f 112/71/65 114/76/70 38/191/71
f 112/71/65 113/73/67 114/76/70
f 113/73/67 34/74/68 114/76/70
f 100/72/66 98/192/73 12/193/162
f 100/72/66 112/71/65 98/192/73
f 112/71/65 38/191/71 98/192/73
f 111/69/63 70/194/33 40/195/64
f 111/69/63 95/68/62 70/194/33
f 95/68/62 8/185/31 70/194/33
f 109/64/58 111/69/63 40/195/64
f 109/64/58 110/66/60 111/69/63
f 110/66/60 35/67/61 111/69/63
f 101/65/59 100/196/66 12/197/162
f 101/65/59 109/64/58 100/196/66
f 109/64/58 40/195/64 100/196/66
f 108/62/56 71/198/36 41/199/57
f 108/62/56 96/61/55 71/198/36
f 96/61/55 9/40/34 71/198/36
f 106/57/51 108/62/56 41/199/57
f 106/57/51 107/59/53 108/62/56
f 107/59/53 36/60/54 108/62/56
f 102/58/52 101/200/59 12/201/162
f 102/58/52 106/57/51 101/200/59
f 106/57/51 41/199/57 101/200/59
f 105/55/49 72/202/39 42/203/50
f 105/55/49 97/54/48 72/202/39
f 97/54/48 10/43/37 72/202/39
f 103/50/44 105/55/49 42/203/50
f 103/50/44 104/52/46 105/55/49
f 104/52/46 37/53/47 105/55/49
f 69/51/45 102/204/52 12/205/162
f 69/51/45 103/50/44 102/204/52
f 103/50/44 42/203/50 102/204/52
f 99/48/42 104/52/46 39/49/43
f 99/48/42 67/47/41 104/52/46
f 67/47/41 37/53/47 104/52/46
f 72/45/39 107/59/53 42/56/50
f 72/45/39 66/44/38 107/59/53
f 66/44/38 36/60/54 107/59/53
f 71/42/36 110/66/60 41/63/57
f 71/42/36 65/41/35 110/66/60
f 65/41/35 35/67/61 110/66/60
f 70/39/33 113/73/67 40/70/64
f 70/39/33 64/38/32 113/73/67
f 64/38/32 34/74/68 113/73/67
f 68/36/30 116/80/74 38/77/71
f 68/36/30 63/35/29 116/80/74
f 63/35/29 33/81/75 116/80/74
f 84/33/27 119/87/81 24/84/78
f 84/33/27 61/28/22 119/87/81
f 61/28/22 31/88/82 119/87/81
f 92/32/26 122/94/88 32/91/85
f 92/32/26 59/25/19 122/94/88
f 59/25/19 29/95/89 122/94/88
f 90/31/25 125/101/95 30/98/92
f 90/31/25 57/22/16 125/101/95
f 57/22/16 27/102/96 125/101/95
f 88/30/24 128/108/102 28/105/99
f 88/30/24 55/19/13 128/108/102
f 55/19/13 25/109/103 128/108/102
f 86/29/23 131/115/109 26/112/106
f 86/29/23 53/16/10 131/115/109
f 53/16/10 23/116/110 131/115/109
f 61/28/22 134/120/114 31/88/82
f 61/28/22 52/27/21 134/120/114
f 52/27/21 22/121/115 134/120/114
f 59/25/19 137/125/119 29/95/89
f 59/25/19 51/24/18 137/125/119
f 51/24/18 21/126/120 137/125/119
f 57/22/16 140/130/124 27/102/96
f 57/22/16 49/21/15 140/130/124
f 49/21/15 19/131/125 140/130/124
f 55/19/13 143/135/129 25/109/103
f 55/19/13 45/18/12 143/135/129
f 45/18/12 15/136/130 143/135/129
f 53/16/10 146/140/134 23/116/110
f 53/16/10 46/6/6 146/140/134
f 46/6/6 16/141/135 146/140/134
f 77/15/9 149/147/141 17/144/138
f 77/15/9 50/14/8 149/147/141
f 50/14/8 20/148/142 149/147/141
f 50/12/8 152/154/146 20/151/142
f 50/12/8 48/11/7 152/154/146
f 48/11/7 18/155/147 152/154/146
f 48/9/7 155/161/151 18/158/147
f 48/9/7 43/8/3 155/161/151
f 43/8/3 13/162/152 155/161/151
f 46/6/6 158/166/156 16/141/135
f 46/6/6 44/5/5 158/166/156
f 44/5/5 14/167/157 158/166/156
f 43/3/3 161/173/160 13/170/152
f 43/3/3 74/2/2 161/173/160
f 74/2/2 14/174/157 161/173/160
