# Blender 3.6.0
# www.blender.org
mtllib asteroid4_collider.mtl
o Collider4
v -0.007479 -1.022337 0.107676
v 0.794757 -0.385177 0.625269
v -0.286048 -0.311047 0.896195
v -0.969757 -0.431126 0.043169
v -0.251219 -0.437742 -0.720903
v 0.643892 -0.400758 -0.425129
v 0.277919 0.592659 0.806527
v -0.785980 0.586835 0.501062
v -0.720847 0.423978 -0.571505
v 0.280774 0.410482 -0.940261
v 0.796716 0.445747 -0.044358
v -0.000736 0.889847 -0.091764
v -0.148271 -0.667755 0.531869
v 0.463655 -0.856449 0.434705
v 0.264113 -0.399666 0.872029
v 0.935775 -0.535116 0.054598
v 0.366140 -0.712422 -0.187627
v -0.458537 -0.683356 0.078742
v -0.772369 -0.474916 0.606332
v -0.148827 -0.757066 -0.363095
v -0.566419 -0.427151 -0.362163
v 0.275332 -0.609515 -0.812917
v 0.822016 0.078973 0.265105
v 1.047233 0.007814 -0.349688
v -0.005210 0.156472 1.040281
v 0.555286 0.133315 0.763626
v -0.909644 0.081686 0.290447
v -0.604566 0.134045 0.813800
v -0.499877 -0.028851 -0.682611
v -0.968198 0.011284 -0.318454
v 0.614090 -0.050268 -0.854481
v -0.000000 -0.041631 -0.818200
v 0.612205 0.564101 0.392707
v -0.282173 0.685302 0.780157
v -0.770116 0.519599 -0.052158
v -0.300253 0.527751 -0.964723
v 0.732918 0.551112 -0.605125
v 0.161572 0.963371 0.405869
v 0.516222 0.877556 -0.097343
v -0.371471 0.812241 0.185096
v -0.425491 0.844370 -0.401515
v 0.150385 0.803168 -0.562996
v -0.084775 -0.843758 0.339484
v 0.526619 -0.501824 0.445506
v -0.014603 -0.367647 0.908109
v 0.745053 -0.383458 0.297005
v 0.526619 -0.585365 -0.320137
v -0.300249 -0.976053 0.102710
v -0.762912 -0.395564 0.282768
v -0.073100 -0.771240 -0.129733
v -0.420868 -0.432954 -0.537641
v 0.499364 -0.523344 -0.631089
v 0.865947 -0.141713 0.450627
v 0.874154 0.245435 -0.171294
v -0.146322 -0.078102 0.946729
v 0.372006 0.320711 0.693023
v -0.784319 -0.128867 0.151373
v -0.608415 0.323519 0.587491
v -0.377337 -0.220893 -0.695553
v -0.833456 0.215508 -0.440829
v 0.625789 -0.240274 -0.619808
v 0.144935 0.180357 -1.056695
v 0.427996 0.546200 0.552447
v -0.524893 0.627995 0.636287
v -0.712720 0.458571 -0.284430
v -0.000206 0.470635 -0.953305
v 0.704461 0.456404 -0.270511
v 0.219746 0.778015 0.606198
v 0.264109 0.983792 -0.109980
v -0.590964 0.749442 0.344332
v -0.520559 0.589359 -0.439139
v 0.207093 0.591348 -0.718223
v -0.214068 -0.506285 0.705458
v 0.212842 -0.877812 0.251858
v 0.451674 -0.327793 0.658554
v 0.799481 -0.478538 -0.220449
v 0.190682 -0.798978 -0.048725
v -0.753359 -0.637503 0.067044
v -0.466344 -0.351291 0.688547
v -0.192885 -0.579852 -0.527247
v -0.651291 -0.372709 -0.161119
v -0.008527 -0.447487 -0.670827
v 0.782848 0.248664 0.110180
v 0.850750 -0.228797 -0.406415
v 0.136611 0.379546 0.926791
v 0.644913 -0.108204 0.674955
v -0.711790 0.272878 0.332083
v -0.472344 -0.095139 0.904593
v -0.673916 0.197513 -0.709745
v -0.854810 -0.168934 -0.121600
v 0.411189 0.169482 -0.821358
v -0.121747 -0.233304 -0.785307
v 0.692296 0.496558 0.170495
v -0.000206 0.664311 0.821725
v -0.707692 0.506174 0.185615
v -0.492740 0.447409 -0.715146
v 0.396951 0.385391 -0.595980
v 0.076085 0.977912 0.140719
v 0.779740 0.761101 -0.086833
v -0.181325 0.841041 0.045544
v -0.207580 0.909252 -0.250112
v 0.069185 0.846707 -0.313096
v 0.323298 0.828981 -0.326410
v 0.579016 0.673076 -0.316532
v 0.423443 0.682059 -0.585890
v -0.154357 0.934991 -0.557480
v -0.054059 0.647349 -0.724147
v -0.355713 0.681147 -0.651203
v -0.453336 0.933163 -0.104333
v -0.615767 0.683017 -0.225427
v -0.673093 0.774118 0.074855
v -0.115826 0.828295 0.270415
v -0.377678 0.848447 0.508541
v -0.046201 0.704696 0.498192
v 0.341312 0.927601 0.150129
v 0.360444 0.672682 0.359042
v 0.573539 0.726865 0.163537
v 0.874323 0.281114 -0.472319
v 0.757521 -0.019813 -0.556240
v 0.627378 0.228682 -0.678469
v -0.124694 0.202216 -0.858207
v -0.267037 -0.041301 -0.813115
v -0.480586 0.237682 -0.933076
v -0.789671 0.263456 -0.160432
v -0.782774 0.047644 0.000000
v -0.741453 0.276516 0.102950
v -0.451250 0.407099 0.801731
v -0.295352 0.137373 0.884362
v -0.138545 0.411477 0.881620
v 0.567292 0.345307 0.555633
v 0.664516 0.102487 0.480608
v 0.695281 0.304834 0.317607
v 0.264082 -0.041301 -0.813115
v 0.366144 -0.252776 -0.673915
v 0.114103 -0.273558 -0.779896
v -0.766212 -0.019813 -0.556240
v -0.555878 -0.238243 -0.540729
v -0.784523 -0.240756 -0.357649
v -0.713346 0.107574 0.510482
v -0.736765 -0.146530 0.384305
v -0.611611 -0.131405 0.644549
v 0.252175 0.134982 0.778425
v 0.122651 -0.114101 0.883920
v 0.382845 -0.109483 0.751840
v 0.996839 0.042189 -0.007118
v 0.812527 -0.173630 0.163920
v 0.961714 -0.251994 -0.143591
v 0.351406 -0.733986 -0.509347
v 0.108177 -0.684474 -0.255023
v 0.047267 -0.793190 -0.648068
v -0.395856 -0.629643 -0.391997
v -0.302070 -0.715066 -0.137791
v -0.546504 -0.588318 -0.156520
v -0.585991 -0.588012 0.303766
v -0.345059 -0.770254 0.331464
v -0.480581 -0.654185 0.625891
v 0.525098 -0.529231 -0.064978
v 0.608792 -0.597954 0.212662
v 0.450110 -0.862609 0.090248
v 0.043528 -0.533915 0.688464
v 0.129893 -0.774315 0.497376
v 0.326744 -0.555847 0.598579
vn 0.1452 -0.9855 -0.0876
vn 0.1031 -0.9827 0.1538
vn -0.1249 -0.8002 0.5866
vn 0.6320 -0.5123 0.5815
vn 0.6080 -0.5778 0.5445
vn 0.8076 -0.5032 0.3075
vn -0.4969 -0.8643 -0.0780
vn 0.0221 -0.8756 -0.4825
vn 0.1383 -0.8626 -0.4865
vn 0.9649 0.0994 0.2430
vn -0.3070 -0.4800 0.8218
vn 0.0103 -0.4569 0.8895
vn -0.0823 -0.1277 0.9884
vn -0.9596 -0.2728 -0.0688
vn -0.9148 -0.2532 0.3147
vn -0.9886 -0.0239 0.1484
vn -0.2814 -0.5386 -0.7942
vn -0.5961 -0.5217 -0.6103
vn -0.5146 -0.3017 -0.8026
vn 0.6575 -0.5776 -0.4838
vn 0.7133 -0.3854 -0.5854
vn 0.5907 -0.4594 -0.6633
vn 0.5491 0.0565 0.8338
vn -0.5084 -0.1629 0.8456
vn -0.9824 -0.1865 -0.0058
vn -0.0932 -0.2772 -0.9563
vn 0.6734 -0.4528 -0.5844
vn 0.5791 0.4147 0.7020
vn 0.6671 0.5306 0.5229
vn 0.3316 0.8215 0.4639
vn -0.8810 0.3098 0.3577
vn -0.5838 0.4744 0.6589
vn -0.5797 0.8034 0.1360
vn -0.7185 0.5525 -0.4225
vn -0.8565 0.4728 -0.2070
vn -0.7118 0.5661 -0.4157
vn 0.5763 0.4715 -0.6675
vn 0.0043 0.4498 -0.8931
vn 0.3911 0.6157 -0.6840
vn 0.9734 0.2119 0.0874
vn 0.8805 0.4521 -0.1425
vn 0.8119 0.5802 -0.0642
vn 0.4639 0.8744 -0.1424
vn 0.2970 0.8604 -0.4142
vn 0.0913 0.9679 -0.2340
vn 0.6043 0.7023 -0.3762
vn 0.6013 0.5342 -0.5942
vn 0.4242 0.3805 -0.8217
vn 0.3726 0.6134 -0.6964
vn 0.2606 0.8191 -0.5110
vn -0.0408 0.8933 -0.4477
vn 0.1054 0.9782 -0.1788
vn 0.0970 0.7119 -0.6956
vn -0.2509 0.4514 -0.8563
vn -0.6702 0.5480 -0.5005
vn -0.5347 0.6302 -0.5630
vn -0.5890 0.7185 -0.3698
vn -0.3084 0.9512 0.0127
vn 0.0305 0.9992 0.0240
vn -0.7792 0.4993 -0.3789
vn -0.9670 0.2519 -0.0392
vn -0.9823 0.1722 0.0736
vn -0.7461 0.6576 0.1040
vn -0.1240 0.9828 0.1372
vn -0.2420 0.9400 0.2406
vn -0.1283 0.9793 0.1568
vn -0.1670 0.9377 0.3048
vn -0.1743 0.6705 0.7211
vn -0.0239 0.7161 0.6976
vn -0.1001 0.9060 0.4113
vn 0.0947 0.8793 0.4667
vn 0.4681 0.8315 0.2993
vn -0.2364 0.9712 0.0305
vn 0.5915 0.6782 0.4361
vn 0.7001 0.5347 0.4733
vn 0.8880 0.2843 0.3615
vn 0.5818 0.6489 0.4903
vn 0.9408 0.0150 -0.3387
vn 0.8574 0.3333 -0.3922
vn 0.8390 0.5381 0.0811
vn 0.7307 -0.1194 -0.6722
vn 0.4763 -0.1868 -0.8592
vn 0.5142 0.2230 -0.8282
vn 0.4748 0.3107 -0.8234
vn -0.1015 -0.3246 -0.9404
vn -0.1719 -0.2538 -0.9519
vn 0.0393 -0.2177 -0.9752
vn -0.1896 -0.3327 -0.9238
vn -0.4822 -0.4391 -0.7581
vn -0.7177 -0.0276 -0.6958
vn -0.4606 -0.0878 -0.8833
vn -0.9941 -0.0160 -0.1074
vn -0.9542 0.2706 0.1277
vn -0.9054 0.3086 -0.2915
vn -0.9866 0.1322 0.0961
vn -0.9816 0.0882 0.1695
vn -0.9378 0.2545 0.2361
vn -0.9715 0.2273 0.0666
vn -0.7247 0.1300 0.6767
vn -0.5209 0.2677 0.8106
vn -0.8546 0.1413 0.4997
vn -0.2930 0.1647 0.9418
vn 0.1011 0.0279 0.9945
vn 0.3746 0.1829 0.9090
vn -0.2188 0.2890 0.9320
vn 0.5284 0.2190 0.8203
vn 0.7248 0.3557 0.5900
vn 0.5574 0.2613 0.7881
vn 0.8219 0.3437 0.4543
vn 0.8825 0.2893 0.3707
vn 0.8612 0.3940 0.3212
vn 0.8851 0.2663 0.3818
vn 0.1462 -0.4282 -0.8918
vn 0.2814 -0.2486 -0.9268
vn 0.2053 -0.3543 -0.9123
vn -0.2697 -0.3692 -0.8894
vn 0.0308 -0.1889 -0.9815
vn -0.6542 -0.2963 -0.6959
vn -0.5486 -0.4703 -0.6912
vn -0.7066 -0.5714 -0.4173
vn -0.6995 -0.5602 -0.4438
vn -0.6929 -0.6314 -0.3481
vn -0.8843 0.1156 0.4523
vn -0.9417 -0.0818 0.3262
vn -0.7961 -0.3352 0.5039
vn -0.4288 -0.3398 0.8371
vn -0.8246 -0.1141 0.5541
vn 0.4746 0.0276 0.8798
vn 0.3807 -0.0276 0.9243
vn 0.4015 -0.4103 0.8188
vn 0.4596 -0.4187 0.7832
vn 0.3850 -0.0621 0.9208
vn 0.9253 0.1691 0.3396
vn 0.9493 -0.1227 0.2894
vn 0.7701 -0.6198 0.1510
vn 0.5276 -0.7542 -0.3911
vn 0.9506 -0.3093 -0.0277
vn 0.4092 -0.8829 -0.2303
vn 0.4259 -0.8959 -0.1266
vn 0.6331 -0.7695 -0.0841
vn 0.0926 -0.9880 -0.1235
vn -0.2264 -0.9545 -0.1944
vn -0.4196 -0.6226 -0.6605
vn -0.2417 -0.8330 -0.4978
vn -0.5110 -0.7261 -0.4602
vn -0.4331 -0.8411 -0.3240
vn -0.5533 -0.8268 -0.1019
vn -0.5486 -0.8334 -0.0671
vn -0.5910 -0.7133 -0.3768
vn -0.5750 -0.8058 0.1413
vn -0.4515 -0.8171 0.3584
vn -0.0629 -0.7664 0.6393
vn -0.1124 -0.6738 0.7303
vn -0.2832 -0.7308 0.6211
vn 0.5394 -0.8246 -0.1705
vn 0.7432 -0.6494 0.1614
vn 0.4910 -0.7208 0.4892
vn 0.4925 -0.8257 -0.2752
vn 0.0097 -0.7488 0.6628
vn -0.0397 -0.7496 0.6607
vn 0.4206 -0.5374 0.7310
vn -0.2055 0.9704 -0.1270
vt 0.181819 0.000000
vt 0.204546 0.039365
vt 0.159092 0.039365
vt 0.272728 0.157461
vt 0.295455 0.118096
vt 0.318182 0.157461
vt 0.909091 0.000000
vt 0.931818 0.039365
vt 0.886364 0.039365
vt 0.727273 0.000000
vt 0.750000 0.039365
vt 0.704546 0.039365
vt 0.545455 0.000000
vt 0.568182 0.039365
vt 0.522728 0.039365
vt 0.295455 0.196826
vt 0.090910 0.157461
vt 0.136364 0.157461
vt 0.113637 0.196826
vt 0.818182 0.157461
vt 0.863636 0.157461
vt 0.840909 0.196826
vt 0.636364 0.157461
vt 0.681818 0.157461
vt 0.659091 0.196826
vt 0.454546 0.157461
vt 0.500000 0.157461
vt 0.477273 0.196826
vt 0.250001 0.196826
vt 0.068182 0.196826
vt 0.795455 0.196826
vt 0.613637 0.196826
vt 0.431819 0.196826
vt 0.181819 0.314921
vt 0.227273 0.314921
vt 0.204546 0.354286
vt 0.000000 0.314921
vt 0.045455 0.314921
vt 0.022728 0.354286
vt 0.727273 0.314921
vt 0.772727 0.314921
vt 0.750000 0.354286
vt 0.545455 0.314921
vt 0.590909 0.314921
vt 0.568182 0.354286
vt 0.363637 0.314921
vt 0.409091 0.314921
vt 0.386364 0.354286
vt 0.409092 0.393651
vt 0.454546 0.393651
vt 0.431819 0.433017
vt 0.431819 0.354286
vt 0.454546 0.314921
vt 0.500000 0.314921
vt 0.477273 0.354286
vt 0.590909 0.393651
vt 0.636364 0.393651
vt 0.613637 0.433017
vt 0.613637 0.354286
vt 0.636364 0.314921
vt 0.681818 0.314921
vt 0.659091 0.354286
vt 0.772727 0.393651
vt 0.818182 0.393651
vt 0.795455 0.433017
vt 0.795455 0.354286
vt 0.818182 0.314921
vt 0.863636 0.314921
vt 0.840909 0.354286
vt 0.045455 0.393651
vt 0.090910 0.393651
vt 0.068182 0.433017
vt 0.068182 0.354286
vt 0.090910 0.314921
vt 0.136364 0.314921
vt 0.113637 0.354286
vt 0.227273 0.393651
vt 0.272728 0.393651
vt 0.250001 0.433017
vt 0.250001 0.354286
vt 0.272728 0.314921
vt 0.318182 0.314921
vt 0.295455 0.354286
vt 0.409092 0.236191
vt 0.431819 0.275556
vt 0.386364 0.275556
vt 0.454546 0.236191
vt 0.500000 0.236191
vt 0.522728 0.275556
vt 0.477273 0.275556
vt 0.590909 0.236191
vt 0.613637 0.275556
vt 0.568182 0.275556
vt 0.636364 0.236191
vt 0.681818 0.236191
vt 0.704546 0.275556
vt 0.659091 0.275556
vt 0.772727 0.236191
vt 0.795455 0.275556
vt 0.750000 0.275556
vt 0.818182 0.236191
vt 0.863636 0.236191
vt 0.886364 0.275556
vt 0.840909 0.275556
vt 0.045455 0.236191
vt 0.068182 0.275556
vt 0.022728 0.275556
vt 0.090910 0.236191
vt 0.136365 0.236191
vt 0.159092 0.275556
vt 0.113637 0.275556
vt 0.227273 0.236191
vt 0.250001 0.275556
vt 0.204546 0.275556
vt 0.272728 0.236191
vt 0.318182 0.236191
vt 0.340910 0.275556
vt 0.295455 0.275556
vt 0.545455 0.236191
vt 0.522728 0.196826
vt 0.545455 0.157461
vt 0.590909 0.157461
vt 0.568182 0.196826
vt 0.727273 0.236191
vt 0.704546 0.196826
vt 0.727273 0.157461
vt 0.772727 0.157461
vt 0.750000 0.196826
vt 0.909091 0.236191
vt 0.886364 0.196826
vt 0.909091 0.157461
vt 0.954545 0.157461
vt 0.931818 0.196826
vt 0.181819 0.236191
vt 0.159092 0.196826
vt 0.181819 0.157461
vt 0.227273 0.157461
vt 0.204546 0.196826
vt 0.363637 0.236191
vt 0.340910 0.196826
vt 0.363637 0.157461
vt 0.409092 0.157461
vt 0.386364 0.196826
vt 0.500000 0.078731
vt 0.522728 0.118096
vt 0.477273 0.118096
vt 0.545455 0.078731
vt 0.590909 0.078731
vt 0.613637 0.118096
vt 0.568182 0.118096
vt 0.681818 0.078731
vt 0.704546 0.118096
vt 0.659091 0.118096
vt 0.727273 0.078731
vt 0.772727 0.078731
vt 0.795455 0.118096
vt 0.750000 0.118096
vt 0.863636 0.078731
vt 0.886364 0.118096
vt 0.840909 0.118096
vt 0.909091 0.078731
vt 0.954545 0.078731
vt 0.977273 0.118096
vt 0.931818 0.118096
vt 0.386364 0.118096
vt 0.340910 0.118096
vt 0.318182 0.078731
vt 0.340910 0.039365
vt 0.363637 0.078731
vt 0.136365 0.078731
vt 0.159092 0.118096
vt 0.113637 0.118096
vt 0.181819 0.078731
vt 0.227273 0.078731
vt 0.250001 0.118096
vt 0.204546 0.118096
vt 0.386364 0.039365
vt 0.409092 0.078731
vt 0.363637 0.000000
vt 0.431819 0.118096
vt 1.000000 0.157461
vt 0.977273 0.196826
vt 0.954545 0.236191
vt 0.931818 0.275556
vt 0.909091 0.314921
vt 0.340910 0.354286
vt 0.318182 0.393651
vt 0.295455 0.433017
vt 0.272728 0.472382
vt 0.159092 0.354286
vt 0.136365 0.393651
vt 0.113637 0.433017
vt 0.090910 0.472382
vt 0.886364 0.354286
vt 0.863636 0.393651
vt 0.840909 0.433017
vt 0.818182 0.472382
vt 0.704546 0.354286
vt 0.681818 0.393651
vt 0.659091 0.433017
vt 0.636364 0.472382
vt 0.522728 0.354286
vt 0.500000 0.393651
vt 0.477273 0.433017
vt 0.454546 0.472382
s 1
f 1/1/1 74/2/2 43/3/3
f 2/4/4 44/5/5 46/6/6
f 1/7/1 43/8/3 48/9/7
f 1/10/1 48/11/7 50/12/8
f 1/13/1 50/14/8 77/15/9
f 2/4/4 46/6/6 53/16/10
f 3/17/11 45/18/12 55/19/13
f 4/20/14 49/21/15 57/22/16
f 5/23/17 51/24/18 59/25/19
f 6/26/20 52/27/21 61/28/22
f 2/4/4 53/16/10 86/29/23
f 3/17/11 55/19/13 88/30/24
f 4/20/14 57/22/16 90/31/25
f 5/23/17 59/25/19 92/32/26
f 6/26/20 61/28/22 84/33/27
f 7/34/28 63/35/29 68/36/30
f 8/37/31 64/38/32 70/39/33
f 9/40/34 65/41/35 71/42/36
f 10/43/37 66/44/38 72/45/39
f 11/46/40 67/47/41 99/48/42
f 39/49/43 103/50/44 69/51/45
f 39/49/43 104/52/46 103/50/44
f 37/53/47 97/54/48 105/55/49
f 42/56/50 106/57/51 102/58/52
f 42/56/50 107/59/53 106/57/51
f 36/60/54 96/61/55 108/62/56
f 41/63/57 109/64/58 101/65/59
f 41/63/57 110/66/60 109/64/58
f 35/67/61 95/68/62 111/69/63
f 40/70/64 112/71/65 100/72/66
f 40/70/64 113/73/67 112/71/65
f 34/74/68 94/75/69 114/76/70
f 38/77/71 115/78/72 98/79/73
f 38/77/71 116/80/74 115/78/72
f 33/81/75 93/82/76 117/83/77
f 24/84/78 118/85/79 54/86/80
f 24/84/78 119/87/81 118/85/79
f 31/88/82 91/89/83 120/90/84
f 32/91/85 121/92/86 62/93/87
f 32/91/85 122/94/88 121/92/86
f 29/95/89 89/96/90 123/97/91
f 30/98/92 124/99/93 60/100/94
f 30/98/92 125/101/95 124/99/93
f 27/102/96 87/103/97 126/104/98
f 28/105/99 127/106/100 58/107/101
f 28/105/99 128/108/102 127/106/100
f 25/109/103 85/110/104 129/111/105
f 26/112/106 130/113/107 56/114/108
f 26/112/106 131/115/109 130/113/107
f 23/116/110 83/117/111 132/118/112
f 31/88/82 133/119/113 91/89/83
f 31/88/82 134/120/114 133/119/113
f 22/121/115 82/122/116 135/123/117
f 29/95/89 136/124/118 89/96/90
f 29/95/89 137/125/119 136/124/118
f 21/126/120 81/127/121 138/128/122
f 27/102/96 139/129/123 87/103/97
f 27/102/96 140/130/124 139/129/123
f 19/131/125 79/132/126 141/133/127
f 25/109/103 142/134/128 85/110/104
f 25/109/103 143/135/129 142/134/128
f 15/136/130 75/137/131 144/138/132
f 23/116/110 145/139/133 83/117/111
f 23/116/110 146/140/134 145/139/133
f 16/141/135 76/142/136 147/143/137
f 17/144/138 148/145/139 47/146/140
f 17/144/138 149/147/141 148/145/139
f 20/148/142 80/149/143 150/150/144
f 20/151/142 151/152/145 80/153/143
f 20/151/142 152/154/146 151/152/145
f 18/155/147 78/156/148 153/157/149
f 18/158/147 154/159/150 78/160/148
f 18/158/147 155/161/151 154/159/150
f 13/162/152 73/163/153 156/164/154
f 16/141/135 157/165/155 76/142/136
f 16/141/135 158/166/156 157/165/155
f 14/167/157 74/168/2 159/169/158
f 13/170/152 160/171/159 73/172/153
f 13/170/152 161/173/160 160/171/159
f 14/174/157 44/175/5 162/176/161
f 162/176/161 75/137/131 15/136/130
f 162/176/161 44/175/5 75/137/131
f 44/175/5 2/4/4 75/137/131
f 160/171/159 162/176/161 15/136/130
f 160/171/159 161/173/160 162/176/161
f 161/173/160 14/174/157 162/176/161
f 73/172/153 45/18/12 3/17/11
f 73/172/153 160/171/159 45/18/12
f 160/171/159 15/136/130 45/18/12
f 159/169/158 77/177/9 17/178/138
f 159/169/158 74/168/2 77/177/9
f 74/168/2 1/179/1 77/177/9
f 157/165/155 159/169/158 17/178/138
f 157/165/155 158/166/156 159/169/158
f 158/166/156 14/167/157 159/169/158
f 76/142/136 47/180/140 6/26/20
f 76/142/136 157/165/155 47/180/140
f 157/165/155 17/178/138 47/180/140
f 156/164/154 79/132/126 19/131/125
f 156/164/154 73/163/153 79/132/126
f 73/163/153 3/181/11 79/132/126
f 154/159/150 156/164/154 19/131/125
f 154/159/150 155/161/151 156/164/154
f 155/161/151 13/162/152 156/164/154
f 78/160/148 49/21/15 4/20/14
f 78/160/148 154/159/150 49/21/15
f 154/159/150 19/131/125 49/21/15
f 153/157/149 81/127/121 21/126/120
f 153/157/149 78/156/148 81/127/121
f 78/156/148 4/20/14 81/127/121
f 151/152/145 153/157/149 21/126/120
f 151/152/145 152/154/146 153/157/149
f 152/154/146 18/155/147 153/157/149
f 80/153/143 51/24/18 5/23/17
f 80/153/143 151/152/145 51/24/18
f 151/152/145 21/126/120 51/24/18
f 150/150/144 82/122/116 22/121/115
f 150/150/144 80/149/143 82/122/116
f 80/149/143 5/23/17 82/122/116
f 148/145/139 150/150/144 22/121/115
f 148/145/139 149/147/141 150/150/144
f 149/147/141 20/148/142 150/150/144
f 47/146/140 52/27/21 6/26/20
f 47/146/140 148/145/139 52/27/21
f 148/145/139 22/121/115 52/27/21
f 147/143/137 84/33/27 24/84/78
f 147/143/137 76/142/136 84/33/27
f 76/142/136 6/26/20 84/33/27
f 145/139/133 147/143/137 24/84/78
f 145/139/133 146/140/134 147/143/137
f 146/140/134 16/141/135 147/143/137
f 83/117/111 54/86/80 11/46/40
f 83/117/111 145/139/133 54/86/80
f 145/139/133 24/84/78 54/86/80
f 144/138/132 86/29/23 26/112/106
f 144/138/132 75/137/131 86/29/23
f 75/137/131 2/4/4 86/29/23
f 142/134/128 144/138/132 26/112/106
f 142/134/128 143/135/129 144/138/132
f 143/135/129 15/136/130 144/138/132
f 85/110/104 56/114/108 7/34/28
f 85/110/104 142/134/128 56/114/108
f 142/134/128 26/112/106 56/114/108
f 141/133/127 88/182/24 28/183/99
f 141/133/127 79/132/126 88/182/24
f 79/132/126 3/181/11 88/182/24
f 139/129/123 141/133/127 28/183/99
f 139/129/123 140/130/124 141/133/127
f 140/130/124 19/131/125 141/133/127
f 87/103/97 58/184/101 8/185/31
f 87/103/97 139/129/123 58/184/101
f 139/129/123 28/183/99 58/184/101
f 138/128/122 90/31/25 30/98/92
f 138/128/122 81/127/121 90/31/25
f 81/127/121 4/20/14 90/31/25
f 136/124/118 138/128/122 30/98/92
f 136/124/118 137/125/119 138/128/122
f 137/125/119 21/126/120 138/128/122
f 89/96/90 60/100/94 9/40/34
f 89/96/90 136/124/118 60/100/94
f 136/124/118 30/98/92 60/100/94
f 135/123/117 92/32/26 32/91/85
f 135/123/117 82/122/116 92/32/26
f 82/122/116 5/23/17 92/32/26
f 133/119/113 135/123/117 32/91/85
f 133/119/113 134/120/114 135/123/117
f 134/120/114 22/121/115 135/123/117
f 91/89/83 62/93/87 10/43/37
f 91/89/83 133/119/113 62/93/87
f 133/119/113 32/91/85 62/93/87
f 132/118/112 93/82/76 33/81/75
f 132/118/112 83/117/111 93/82/76
f 83/117/111 11/46/40 93/82/76
f 130/113/107 132/118/112 33/81/75
f 130/113/107 131/115/109 132/118/112
f 131/115/109 23/116/110 132/118/112
f 56/114/108 63/35/29 7/34/28
f 56/114/108 130/113/107 63/35/29
f 130/113/107 33/81/75 63/35/29
f 129/111/105 94/75/69 34/74/68
f 129/111/105 85/110/104 94/75/69
f 85/110/104 7/34/28 94/75/69
f 127/106/100 129/111/105 34/74/68
f 127/106/100 128/108/102 129/111/105
f 128/108/102 25/109/103 129/111/105
f 58/107/101 64/38/32 8/37/31
f 58/107/101 127/106/100 64/38/32
f 127/106/100 34/74/68 64/38/32
f 126/104/98 95/68/62 35/67/61
f 126/104/98 87/103/97 95/68/62
f 87/103/97 8/185/31 95/68/62
f 124/99/93 126/104/98 35/67/61
f 124/99/93 125/101/95 126/104/98
f 125/101/95 27/102/96 126/104/98
f 60/100/94 65/41/35 9/40/34
f 60/100/94 124/99/93 65/41/35
f 124/99/93 35/67/61 65/41/35
f 123/97/91 96/61/55 36/60/54
f 123/97/91 89/96/90 96/61/55
f 89/96/90 9/40/34 96/61/55
f 121/92/86 123/97/91 36/60/54
f 121/92/86 122/94/88 123/97/91
f 122/94/88 29/95/89 123/97/91
f 62/93/87 66/44/38 10/43/37
f 62/93/87 121/92/86 66/44/38
f 121/92/86 36/60/54 66/44/38
f 120/90/84 97/54/48 37/53/47
f 120/90/84 91/89/83 97/54/48
f 91/89/83 10/43/37 97/54/48
f 118/85/79 120/90/84 37/53/47
f 118/85/79 119/87/81 120/90/84
f 119/87/81 31/88/82 120/90/84
f 54/86/80 67/47/41 11/46/40
f 54/86/80 118/85/79 67/47/41
f 118/85/79 37/53/47 67/47/41
f 117/83/77 99/186/42 39/187/43
f 117/83/77 93/82/76 99/186/42
f 93/82/76 11/46/40 99/186/42
f 115/78/72 117/83/77 39/187/43
f 115/78/72 116/80/74 117/83/77
f 116/80/74 33/81/75 117/83/77
f 98/79/73 69/188/45 12/189/162
f 98/79/73 115/78/72 69/188/45
f 115/78/72 39/187/43 69/188/45
f 114/76/70 68/190/30 38/191/71
f 114/76/70 94/75/69 68/190/30
f 94/75/69 7/34/28 68/190/30
f 112/71/65 114/76/70 38/191/71
f 112/71/65 113/73/67 114/76/70
f 113/73/67 34/74/68 114/76/70
f 100/72/66 98/192/73 12/193/162
f 100/72/66 112/71/65 98/192/73
f 112/71/65 38/191/71 98/192/73
f 111/69/63 70/194/33 40/195/64
f 111/69/63 95/68/62 70/194/33
f 95/68/62 8/185/31 70/194/33
f 109/64/58 111/69/63 40/195/64
f 109/64/58 110/66/60 111/69/63
f 110/66/60 35/67/61 111/69/63
f 101/65/59 100/196/66 12/197/162
f 101/65/59 109/64/58 100/196/66
f 109/64/58 40/195/64 100/196/66
f 108/62/56 71/198/36 41/199/57
f 108/62/56 96/61/55 71/198/36
f 96/61/55 9/40/34 71/198/36
f 106/57/51 108/62/56 41/199/57
f 106/57/51 107/59/53 108/62/56
f 107/59/53 36/60/54 108/62/56
f 102/58/52 101/200/59 12/201/162
f 102/58/52 106/57/51 101/200/59
f 106/57/51 41/199/57 101/200/59
f 105/55/49 72/202/39 42/203/50
f 105/55/49 97/54/48 72/202/39
f 97/54/48 10/43/37 72/202/39
f 103/50/44 105/55/49 42/203/50
f 103/50/44 104/52/46 105/55/49
f 104/52/46 37/53/47 105/55/49
f 69/51/45 102/204/52 12/205/162
f 69/51/45 103/50/44 102/204/52
f 103/50/44 42/203/50 102/204/52
f 99/48/42 104/52/46 39/49/43
f 99/48/42 67/47/41 104/52/46
f 67/47/41 37/53/47 104/52/46
f 72/45/39 107/59/53 42/56/50
f 72/45/39 66/44/38 107/59/53
f 66/44/38 36/60/54 107/59/53
f 71/42/36 110/66/60 41/63/57
f 71/42/36 65/41/35 110/66/60
f 65/41/35 35/67/61 110/66/60
f 70/39/33 113/73/67 40/70/64
f 70/39/33 64/38/32 113/73/67
f 64/38/32 34/74/68 113/73/67
f 68/36/30 116/80/74 38/77/71
f 68/36/30 63/35/29 116/80/74
f 63/35/29 33/81/75 116/80/74
f 84/33/27 119/87/81 24/84/78
f 84/33/27 61/28/22 119/87/81
f 61/28/22 31/88/82 119/87/81
f 92/32/26 122/94/88 32/91/85
f 92/32/26 59/25/19 122/94/88
f 59/25/19 29/95/89 122/94/88
f 90/31/25 125/101/95 30/98/92
f 90/31/25 57/22/16 125/101/95
f 57/22/16 27/102/96 125/101/95
f 88/30/24 128/108/102 28/105/99
f 88/30/24 55/19/13 128/108/102
f 55/19/13 25/109/103 128/108/102
f 86/29/23 131/115/109 26/112/106
f 86/29/23 53/16/10 131/115/109
f 53/16/10 23/116/110 131/115/109
f 61/28/22 134/120/114 31/88/82
f 61/28/22 52/27/21 134/120/114
f 52/27/21 22/121/115 134/120/114
f 59/25/19 137/125/119 29/95/89
f 59/25/19 51/24/18 137/125/119
f 51/24/18 21/126/120 137/125/119
f 57/22/16 140/130/124 27/102/96
f 57/22/16 49/21/15 140/130/124
f 49/21/15 19/131/125 140/130/124
f 55/19/13 143/135/129 25/109/103
f 55/19/13 45/18/12 143/135/129
f 45/18/12 15/136/130 143/135/129
f 53/16/10 146/140/134 23/116/110
f 53/16/10 46/6/6 146/140/134
f 46/6/6 16/141/135 146/140/134
f 77/15/9 149/147/141 17/144/138
f 77/15/9 50/14/8 149/147/141
f 50/14/8 20/148/142 149/147/141
f 50/12/8 152/154/146 20/151/142
f 50/12/8 48/11/7 152/154/146
f 48/11/7 18/155/147 152/154/146
f 48/9/7 155/161/151 18/158/147
f 48/9/7 43/8/3 155/161/151
f 43/8/3 13/162/152 155/161/151
f 46/6/6 158/166/156 16/141/135
f 46/6/6 44/5/5 158/166/156
f 44/5/5 14/167/157 158/166/156
f 43/3/3 161/173/160 13/170/152
f 43/3/3 74/2/2 161/173/160
f 74/2/2 14/174/157 161/173/160
