# Blender 3.6.0
# www.blender.org
mtllib asteroid1_collider.mtl
o Collider1
v -0.049881 0.094512 0.787479
v 0.713932 0.608464 0.393920
v -0.270300 0.908551 0.358686
v -0.941308 0.088073 0.465041
v -0.275064 -0.632996 0.395195
v 0.713932 -0.428856 0.478891
v 0.285127 0.884743 -0.535480
v -0.687131 0.516818 -0.469748
v -0.687131 -0.479419 -0.388141
v 0.271246 -0.821696 -0.377269
v 0.851071 0.018700 -0.428941
v -0.049336 -0.040002 -0.855506
v -0.169858 0.647991 0.845799
v 0.453500 0.454171 0.877151
v 0.271209 0.923799 0.466384
v 0.897890 0.094829 0.547520
v 0.453500 -0.206142 0.931240
v -0.488226 0.117695 0.781775
v -0.610573 0.468972 0.369112
v -0.184830 -0.329609 0.716897
v -0.567530 -0.311495 0.400264
v 0.164288 -0.593964 0.456183
v 1.003716 0.374185 -0.031312
v 0.696587 -0.213060 -0.005112
v -0.049881 0.840012 -0.091052
v 0.565321 0.833123 -0.069028
v -0.791758 0.268911 -0.044592
v -0.472114 0.613492 -0.072670
v -0.462876 -0.538333 0.021404
v -0.734583 -0.191602 -0.006721
v 0.565321 -0.726227 0.058706
v 0.001360 -1.000826 0.081322
v 0.735295 0.537763 -0.610136
v -0.253272 0.625253 -0.486533
v -0.728358 -0.006363 -0.444289
v -0.233552 -0.568624 -0.348420
v 0.455416 -0.366816 -0.379987
v 0.176547 0.520338 -0.979484
v 0.575204 -0.026524 -0.934685
v -0.380387 0.214569 -0.707980
v -0.362903 -0.246424 -0.629430
v 0.069055 -0.386309 -0.617972
v -0.081588 0.367428 0.866871
v 0.533485 0.488703 0.563431
v -0.052401 0.722308 0.309525
v 0.841357 0.372991 0.492094
v 0.592012 -0.324249 0.695881
v -0.284240 0.130550 0.983977
v -0.785629 0.339615 0.454931
v -0.106120 -0.094523 0.656127
v -0.395891 -0.426687 0.365200
v 0.473898 -0.551311 0.516358
v 0.917157 0.526213 0.202880
v 0.674430 -0.106851 -0.189364
v -0.141705 1.017754 0.146590
v 0.425366 0.854272 -0.292470
v -0.743986 0.160693 0.133530
v -0.543085 0.517769 -0.233292
v -0.352985 -0.540091 0.179899
v -0.795245 -0.359397 -0.184684
v 0.624120 -0.561561 0.258455
v 0.132150 -0.840679 -0.145260
v 0.509662 0.717106 -0.573836
v -0.442072 0.528984 -0.456592
v -0.677478 -0.213647 -0.395759
v 0.004350 -0.804329 -0.417683
v 0.545507 -0.186216 -0.374044
v 0.239062 0.730172 -0.774567
v 0.163569 -0.032494 -0.763294
v -0.558528 0.404450 -0.663510
v -0.528460 -0.363035 -0.535265
v 0.214857 -0.665027 -0.590444
v -0.211587 0.564520 0.409881
v 0.102075 0.192764 0.616794
v 0.458052 0.707776 0.394112
v 0.758077 -0.161476 0.484425
v 0.128031 -0.037336 0.755444
v -0.674269 0.103776 0.609648
v -0.457719 0.731028 0.403309
v -0.225333 -0.588939 0.717564
v -0.666759 -0.135960 0.370499
v -0.054885 -0.561214 0.391087
v 0.644386 0.133225 -0.201790
v 0.557552 -0.256439 0.160692
v 0.142850 0.980164 -0.312308
v 0.692423 0.769852 0.172738
v -0.702771 0.339129 -0.225898
v -0.409994 0.857022 0.142253
v -0.674500 -0.654121 -0.178436
v -0.714125 -0.067152 0.145185
v 0.425366 -0.783088 -0.158346
v -0.162472 -0.708508 0.218588
v 0.734859 0.247707 -0.474776
v 0.005687 0.913718 -0.610723
v -0.846253 0.287839 -0.547437
v -0.396145 -0.466724 -0.328966
v 0.352909 -0.566398 -0.382657
v 0.009361 0.158540 -0.717664
v 0.683573 0.002219 -0.630559
v -0.217329 0.090852 -0.773398
v -0.223144 -0.159013 -0.765639
v 0.011256 -0.203687 -0.676531
v 0.194838 -0.194114 -0.609189
v 0.625467 -0.264900 -0.690233
v 0.296644 -0.423784 -0.550104
v -0.140785 -0.302799 -0.600287
v -0.051118 -0.679967 -0.656235
v -0.371320 -0.607928 -0.691029
v -0.362903 -0.020090 -0.647970
v -0.508384 -0.120936 -0.511405
v -0.558015 0.106359 -0.584089
v -0.156964 0.299878 -0.742186
v -0.336324 0.445908 -0.634383
v -0.083707 0.461632 -0.559126
v 0.329680 0.227225 -0.844698
v 0.438462 0.504679 -0.753274
v 0.648216 0.256440 -0.761831
v 0.552007 -0.281102 -0.193179
v 0.812282 -0.537607 0.043377
v 0.413522 -0.455898 -0.175633
v -0.145967 -0.963154 -0.210769
v -0.294453 -0.723783 0.037334
v -0.348214 -0.553478 -0.163508
v -0.712370 -0.097991 -0.208179
v -0.808787 0.028017 -0.024579
v -0.783837 0.135973 -0.248266
v -0.354736 0.597984 -0.261962
v -0.270898 0.709308 -0.080195
v -0.140786 0.651876 -0.262244
v 0.629180 0.678130 -0.317032
v 0.792729 0.623084 -0.052069
v 0.897723 0.468558 -0.328046
v 0.280167 -0.803601 0.064993
v 0.438467 -0.758572 0.332652
v 0.060285 -0.705882 0.255843
v -0.649633 -0.408025 0.010859
v -0.558016 -0.477305 0.228078
v -0.639620 -0.244860 0.188203
v -0.615781 0.440396 -0.058452
v -0.666409 0.350552 0.147613
v -0.569672 0.576951 0.145382
v 0.311105 0.999705 -0.082551
v 0.127761 0.967256 0.181436
v 0.408230 0.853873 0.184308
v 0.648598 0.030948 -0.024912
v 0.889381 0.227336 0.242045
v 0.611702 -0.066448 0.176895
v 0.375879 -0.500066 0.798491
v 0.047531 -0.210188 0.611469
v 0.052262 -0.564277 0.756098
v -0.362903 -0.293982 0.509153
v -0.361292 -0.139816 0.910330
v -0.544392 -0.129230 0.550917
v -0.653112 0.376901 0.708739
v -0.326341 0.356301 0.781372
v -0.468480 0.658209 0.703611
v 0.681476 -0.055282 0.744142
v 0.592474 0.248383 0.619697
v 0.270174 0.083357 0.613177
v -0.011157 0.542821 0.432015
v 0.135889 0.536038 0.833785
v 0.354836 0.680926 0.654098
vn 0.5092 -0.2406 0.8263
vn 0.3011 -0.1004 0.9483
vn 0.2265 -0.0343 0.9734
vn 0.4675 0.6510 0.5981
vn 0.6386 0.5132 0.5735
vn 0.7141 0.3277 0.6186
vn -0.0547 0.0363 0.9978
vn 0.3213 -0.3317 0.8870
vn -0.1121 0.0926 0.9894
vn 0.8751 0.4315 0.2193
vn -0.0605 0.7084 0.7032
vn -0.0864 0.4989 0.8623
vn -0.0681 0.9977 -0.0003
vn -0.9459 -0.1355 0.2950
vn -0.8160 0.5600 0.1432
vn -0.9854 0.1698 -0.0084
vn -0.4425 -0.8727 0.2064
vn -0.6236 -0.6216 0.4741
vn -0.5733 -0.7628 0.2992
vn 0.8770 -0.4529 0.1607
vn 0.3887 -0.7924 0.4701
vn 0.8598 -0.3956 0.3230
vn 0.5313 0.8220 0.2051
vn -0.6538 0.7219 -0.2268
vn -0.9319 -0.3461 0.1087
vn -0.3763 -0.7330 0.5667
vn 0.9863 0.0063 0.1647
vn 0.3729 0.8539 -0.3629
vn 0.5382 0.7053 -0.4613
vn 0.0452 0.6231 -0.7808
vn -0.5192 0.8417 -0.1485
vn -0.2646 0.9139 -0.3078
vn -0.2482 0.4090 -0.8781
vn -0.5409 -0.5159 -0.6643
vn -0.8145 -0.0371 -0.5789
vn -0.6548 -0.2626 -0.7088
vn 0.4393 -0.8066 -0.3954
vn -0.1978 -0.8527 -0.4835
vn 0.4810 -0.4083 -0.7759
vn 0.9835 -0.1725 -0.0545
vn 0.8154 -0.5782 -0.0305
vn 0.9293 -0.2188 -0.2975
vn 0.3479 -0.2165 -0.9122
vn 0.0530 -0.4766 -0.8775
vn -0.0533 -0.3482 -0.9359
vn 0.6323 -0.6824 -0.3668
vn 0.7962 -0.5942 -0.1138
vn 0.8804 -0.2628 -0.3948
vn 0.4355 -0.3790 -0.8165
vn 0.1392 -0.0586 -0.9885
vn 0.0229 -0.2778 -0.9604
vn 0.1690 -0.5482 -0.8191
vn -0.0995 -0.5891 -0.8019
vn -0.6465 -0.7390 -0.1892
vn -0.2675 -0.9286 -0.2571
vn -0.4556 -0.5965 -0.6608
vn -0.4283 -0.0757 -0.9005
vn -0.5820 -0.1661 -0.7961
vn -0.3216 -0.4384 -0.8393
vn -0.5472 -0.1384 -0.8255
vn -0.7801 -0.3913 -0.4883
vn -0.8870 0.0864 -0.4537
vn -0.4151 -0.3195 -0.8518
vn -0.3383 0.0055 -0.9410
vn -0.2438 0.2951 -0.9238
vn -0.2921 0.1071 -0.9504
vn -0.0599 0.6220 -0.7807
vn -0.4597 0.7509 -0.4743
vn -0.4573 0.7267 -0.5126
vn -0.3644 0.5110 -0.7785
vn -0.1132 0.2664 -0.9572
vn -0.0025 -0.0227 -0.9997
vn -0.0670 -0.0040 -0.9977
vn 0.4724 0.3367 -0.8145
vn 0.7238 0.4149 -0.5514
vn 0.9732 -0.0952 -0.2094
vn 0.7009 0.1700 -0.6927
vn 0.9951 0.0793 0.0588
vn 0.7587 -0.4357 -0.4842
vn 0.9491 -0.3150 -0.0028
vn 0.9607 -0.2653 -0.0818
vn 0.6095 -0.7753 -0.1655
vn 0.6910 -0.6709 -0.2691
vn 0.7976 -0.3709 -0.4756
vn 0.0321 -0.9350 0.3531
vn -0.3707 -0.8635 -0.3421
vn 0.3249 -0.9301 -0.1713
vn -0.7646 -0.6102 0.2076
vn -0.4306 -0.8702 0.2396
vn -0.4190 -0.9079 0.0149
vn -0.4385 -0.8355 -0.3312
vn -0.9527 -0.1968 0.2315
vn -0.9817 -0.1005 -0.1618
vn -0.9951 -0.0960 0.0252
vn -0.9844 -0.1512 0.0895
vn -0.9120 0.4037 0.0727
vn -0.8273 0.5513 0.1080
vn -0.9986 -0.0391 -0.0349
vn -0.6211 0.7099 -0.3321
vn -0.3631 0.9054 -0.2201
vn -0.5607 0.8280 -0.0079
vn -0.3749 0.7434 -0.5539
vn -0.4545 0.8008 -0.3900
vn -0.1922 0.9784 -0.0764
vn -0.5309 0.8331 -0.1554
vn 0.5662 0.8176 -0.1049
vn 0.6183 0.7569 -0.2115
vn 0.5303 0.8107 -0.2481
vn 0.7033 0.6933 -0.1570
vn 0.9857 -0.0977 -0.1373
vn 0.9623 -0.2665 0.0551
vn 0.9311 0.1536 -0.3309
vn 0.2528 -0.9513 0.1764
vn 0.2856 -0.8495 0.4436
vn -0.1063 -0.9147 0.3898
vn 0.0133 -0.9360 0.3517
vn -0.0883 -0.7327 0.6748
vn -0.7754 -0.4498 0.4433
vn -0.5983 -0.7239 0.3434
vn -0.6488 -0.5407 0.5354
vn -0.7657 -0.5718 0.2946
vn -0.9111 -0.3353 0.2397
vn -0.7751 0.6302 -0.0444
vn -0.8674 0.4972 -0.0196
vn -0.7945 0.6072 0.0084
vn -0.5208 0.7407 0.4244
vn -0.8735 0.4814 -0.0726
vn 0.2015 0.9795 -0.0055
vn -0.0665 0.9734 0.2192
vn 0.0699 0.8343 0.5469
vn 0.5643 0.6815 0.4661
vn 0.4395 0.8623 0.2514
vn 0.9554 -0.2851 -0.0776
vn 0.9263 -0.3768 0.0031
vn 0.9207 -0.1038 0.3762
vn 0.9413 -0.3340 -0.0492
vn 0.9343 -0.3402 -0.1066
vn 0.1249 0.0366 0.9915
vn 0.1477 -0.6448 0.7500
vn 0.7180 -0.4491 0.5318
vn -0.1456 -0.0751 0.9865
vn -0.1195 -0.1025 0.9875
vn -0.4279 -0.6305 0.6476
vn 0.0035 -0.5901 0.8073
vn -0.6589 -0.5207 0.5429
vn -0.2095 -0.5038 0.8380
vn -0.6679 -0.0458 0.7429
vn -0.6346 -0.3130 0.7067
vn -0.6685 -0.5233 0.5285
vn -0.6965 0.2655 0.6667
vn -0.3637 0.2493 0.8976
vn -0.0286 0.7547 0.6554
vn 0.2541 0.8264 0.5024
vn -0.3974 0.7704 0.4986
vn 0.5666 0.0934 0.8187
vn 0.3931 0.1404 0.9087
vn 0.4406 0.0838 0.8938
vn 0.0452 0.2219 0.9740
vn -0.2098 0.8641 0.4575
vn 0.0450 0.4460 0.8939
vn 0.2525 0.7831 0.5683
vn 0.0855 -0.0886 -0.9924
vt 0.181819 0.000000
vt 0.204546 0.039365
vt 0.159092 0.039365
vt 0.272728 0.157461
vt 0.295455 0.118096
vt 0.318182 0.157461
vt 0.909091 0.000000
vt 0.931818 0.039365
vt 0.886364 0.039365
vt 0.727273 0.000000
vt 0.750000 0.039365
vt 0.704546 0.039365
vt 0.545455 0.000000
vt 0.568182 0.039365
vt 0.522728 0.039365
vt 0.295455 0.196826
vt 0.090910 0.157461
vt 0.136364 0.157461
vt 0.113637 0.196826
vt 0.818182 0.157461
vt 0.863636 0.157461
vt 0.840909 0.196826
vt 0.636364 0.157461
vt 0.681818 0.157461
vt 0.659091 0.196826
vt 0.454546 0.157461
vt 0.500000 0.157461
vt 0.477273 0.196826
vt 0.250001 0.196826
vt 0.068182 0.196826
vt 0.795455 0.196826
vt 0.613637 0.196826
vt 0.431819 0.196826
vt 0.181819 0.314921
vt 0.227273 0.314921
vt 0.204546 0.354286
vt 0.000000 0.314921
vt 0.045455 0.314921
vt 0.022728 0.354286
vt 0.727273 0.314921
vt 0.772727 0.314921
vt 0.750000 0.354286
vt 0.545455 0.314921
vt 0.590909 0.314921
vt 0.568182 0.354286
vt 0.363637 0.314921
vt 0.409091 0.314921
vt 0.386364 0.354286
vt 0.409092 0.393651
vt 0.454546 0.393651
vt 0.431819 0.433017
vt 0.431819 0.354286
vt 0.454546 0.314921
vt 0.500000 0.314921
vt 0.477273 0.354286
vt 0.590909 0.393651
vt 0.636364 0.393651
vt 0.613637 0.433017
vt 0.613637 0.354286
vt 0.636364 0.314921
vt 0.681818 0.314921
vt 0.659091 0.354286
vt 0.772727 0.393651
vt 0.818182 0.393651
vt 0.795455 0.433017
vt 0.795455 0.354286
vt 0.818182 0.314921
vt 0.863636 0.314921
vt 0.840909 0.354286
vt 0.045455 0.393651
vt 0.090910 0.393651
vt 0.068182 0.433017
vt 0.068182 0.354286
vt 0.090910 0.314921
vt 0.136364 0.314921
vt 0.113637 0.354286
vt 0.227273 0.393651
vt 0.272728 0.393651
vt 0.250001 0.433017
vt 0.250001 0.354286
vt 0.272728 0.314921
vt 0.318182 0.314921
vt 0.295455 0.354286
vt 0.409092 0.236191
vt 0.431819 0.275556
vt 0.386364 0.275556
vt 0.454546 0.236191
vt 0.500000 0.236191
vt 0.522728 0.275556
vt 0.477273 0.275556
vt 0.590909 0.236191
vt 0.613637 0.275556
vt 0.568182 0.275556
vt 0.636364 0.236191
vt 0.681818 0.236191
vt 0.704546 0.275556
vt 0.659091 0.275556
vt 0.772727 0.236191
vt 0.795455 0.275556
vt 0.750000 0.275556
vt 0.818182 0.236191
vt 0.863636 0.236191
vt 0.886364 0.275556
vt 0.840909 0.275556
vt 0.045455 0.236191
vt 0.068182 0.275556
vt 0.022728 0.275556
vt 0.090910 0.236191
vt 0.136365 0.236191
vt 0.159092 0.275556
vt 0.113637 0.275556
vt 0.227273 0.236191
vt 0.250001 0.275556
vt 0.204546 0.275556
vt 0.272728 0.236191
vt 0.318182 0.236191
vt 0.340910 0.275556
vt 0.295455 0.275556
vt 0.545455 0.236191
vt 0.522728 0.196826
vt 0.545455 0.157461
vt 0.590909 0.157461
vt 0.568182 0.196826
vt 0.727273 0.236191
vt 0.704546 0.196826
vt 0.727273 0.157461
vt 0.772727 0.157461
vt 0.750000 0.196826
vt 0.909091 0.236191
vt 0.886364 0.196826
vt 0.909091 0.157461
vt 0.954545 0.157461
vt 0.931818 0.196826
vt 0.181819 0.236191
vt 0.159092 0.196826
vt 0.181819 0.157461
vt 0.227273 0.157461
vt 0.204546 0.196826
vt 0.363637 0.236191
vt 0.340910 0.196826
vt 0.363637 0.157461
vt 0.409092 0.157461
vt 0.386364 0.196826
vt 0.500000 0.078731
vt 0.522728 0.118096
vt 0.477273 0.118096
vt 0.545455 0.078731
vt 0.590909 0.078731
vt 0.613637 0.118096
vt 0.568182 0.118096
vt 0.681818 0.078731
vt 0.704546 0.118096
vt 0.659091 0.118096
vt 0.727273 0.078731
vt 0.772727 0.078731
vt 0.795455 0.118096
vt 0.750000 0.118096
vt 0.863636 0.078731
vt 0.886364 0.118096
vt 0.840909 0.118096
vt 0.909091 0.078731
vt 0.954545 0.078731
vt 0.977273 0.118096
vt 0.931818 0.118096
vt 0.386364 0.118096
vt 0.340910 0.118096
vt 0.318182 0.078731
vt 0.340910 0.039365
vt 0.363637 0.078731
vt 0.136365 0.078731
vt 0.159092 0.118096
vt 0.113637 0.118096
vt 0.181819 0.078731
vt 0.227273 0.078731
vt 0.250001 0.118096
vt 0.204546 0.118096
vt 0.386364 0.039365
vt 0.409092 0.078731
vt 0.363637 0.000000
vt 0.431819 0.118096
vt 1.000000 0.157461
vt 0.977273 0.196826
vt 0.954545 0.236191
vt 0.931818 0.275556
vt 0.909091 0.314921
vt 0.340910 0.354286
vt 0.318182 0.393651
vt 0.295455 0.433017
vt 0.272728 0.472382
vt 0.159092 0.354286
vt 0.136365 0.393651
vt 0.113637 0.433017
vt 0.090910 0.472382
vt 0.886364 0.354286
vt 0.863636 0.393651
vt 0.840909 0.433017
vt 0.818182 0.472382
vt 0.704546 0.354286
vt 0.681818 0.393651
vt 0.659091 0.433017
vt 0.636364 0.472382
vt 0.522728 0.354286
vt 0.500000 0.393651
vt 0.477273 0.433017
vt 0.454546 0.472382
s 1
f 1/1/1 74/2/2 43/3/3
f 2/4/4 44/5/5 46/6/6
f 1/7/1 43/8/3 48/9/7
f 1/10/1 48/11/7 50/12/8
f 1/13/1 50/14/8 77/15/9
f 2/4/4 46/6/6 53/16/10
f 3/17/11 45/18/12 55/19/13
f 4/20/14 49/21/15 57/22/16
f 5/23/17 51/24/18 59/25/19
f 6/26/20 52/27/21 61/28/22
f 2/4/4 53/16/10 86/29/23
f 3/17/11 55/19/13 88/30/24
f 4/20/14 57/22/16 90/31/25
f 5/23/17 59/25/19 92/32/26
f 6/26/20 61/28/22 84/33/27
f 7/34/28 63/35/29 68/36/30
f 8/37/31 64/38/32 70/39/33
f 9/40/34 65/41/35 71/42/36
f 10/43/37 66/44/38 72/45/39
f 11/46/40 67/47/41 99/48/42
f 39/49/43 103/50/44 69/51/45
f 39/49/43 104/52/46 103/50/44
f 37/53/47 97/54/48 105/55/49
f 42/56/50 106/57/51 102/58/52
f 42/56/50 107/59/53 106/57/51
f 36/60/54 96/61/55 108/62/56
f 41/63/57 109/64/58 101/65/59
f 41/63/57 110/66/60 109/64/58
f 35/67/61 95/68/62 111/69/63
f 40/70/64 112/71/65 100/72/66
f 40/70/64 113/73/67 112/71/65
f 34/74/68 94/75/69 114/76/70
f 38/77/71 115/78/72 98/79/73
f 38/77/71 116/80/74 115/78/72
f 33/81/75 93/82/76 117/83/77
f 24/84/78 118/85/79 54/86/80
f 24/84/78 119/87/81 118/85/79
f 31/88/82 91/89/83 120/90/84
f 32/91/85 121/92/86 62/93/87
f 32/91/85 122/94/88 121/92/86
f 29/95/89 89/96/90 123/97/91
f 30/98/92 124/99/93 60/100/94
f 30/98/92 125/101/95 124/99/93
f 27/102/96 87/103/97 126/104/98
f 28/105/99 127/106/100 58/107/101
f 28/105/99 128/108/102 127/106/100
f 25/109/103 85/110/104 129/111/105
f 26/112/106 130/113/107 56/114/108
f 26/112/106 131/115/109 130/113/107
f 23/116/110 83/117/111 132/118/112
f 31/88/82 133/119/113 91/89/83
f 31/88/82 134/120/114 133/119/113
f 22/121/115 82/122/116 135/123/117
f 29/95/89 136/124/118 89/96/90
f 29/95/89 137/125/119 136/124/118
f 21/126/120 81/127/121 138/128/122
f 27/102/96 139/129/123 87/103/97
f 27/102/96 140/130/124 139/129/123
f 19/131/125 79/132/126 141/133/127
f 25/109/103 142/134/128 85/110/104
f 25/109/103 143/135/129 142/134/128
f 15/136/130 75/137/131 144/138/132
f 23/116/110 145/139/133 83/117/111
f 23/116/110 146/140/134 145/139/133
f 16/141/135 76/142/136 147/143/137
f 17/144/138 148/145/139 47/146/140
f 17/144/138 149/147/141 148/145/139
f 20/148/142 80/149/143 150/150/144
f 20/151/142 151/152/145 80/153/143
f 20/151/142 152/154/146 151/152/145
f 18/155/147 78/156/148 153/157/149
f 18/158/147 154/159/150 78/160/148
f 18/158/147 155/161/151 154/159/150
f 13/162/152 73/163/153 156/164/154
f 16/141/135 157/165/155 76/142/136
f 16/141/135 158/166/156 157/165/155
f 14/167/157 74/168/2 159/169/158
f 13/170/152 160/171/159 73/172/153
f 13/170/152 161/173/160 160/171/159
f 14/174/157 44/175/5 162/176/161
f 162/176/161 75/137/131 15/136/130
f 162/176/161 44/175/5 75/137/131
f 44/175/5 2/4/4 75/137/131
f 160/171/159 162/176/161 15/136/130
f 160/171/159 161/173/160 162/176/161
f 161/173/160 14/174/157 162/176/161
f 73/172/153 45/18/12 3/17/11
f 73/172/153 160/171/159 45/18/12
f 160/171/159 15/136/130 45/18/12
f 159/169/158 77/177/9 17/178/138
f 159/169/158 74/168/2 77/177/9
f 74/168/2 1/179/1 77/177/9
f 157/165/155 159/169/158 17/178/138
f 157/165/155 158/166/156 159/169/158
f 158/166/156 14/167/157 159/169/158
f 76/142/136 47/180/140 6/26/20
f 76/142/136 157/165/155 47/180/140
f 157/165/155 17/178/138 47/180/140
f 156/164/154 79/132/126 19/131/125
f 156/164/154 73/163/153 79/132/126
f 73/163/153 3/181/11 79/132/126
f 154/159/150 156/164/154 19/131/125
f 154/159/150 155/161/151 156/164/154
f 155/161/151 13/162/152 156/164/154
f 78/160/148 49/21/15 4/20/14
f 78/160/148 154/159/150 49/21/15
f 154/159/150 19/131/125 49/21/15
f 153/157/149 81/127/121 21/126/120
f 153/157/149 78/156/148 81/127/121
f 78/156/148 4/20/14 81/127/121
f 151/152/145 153/157/149 21/126/120
f 151/152/145 152/154/146 153/157/149
f 152/154/146 18/155/147 153/157/149
f 80/153/143 51/24/18 5/23/17
f 80/153/143 151/152/145 51/24/18
f 151/152/145 21/126/120 51/24/18
f 150/150/144 82/122/116 22/121/115
f 150/150/144 80/149/143 82/122/116
f 80/149/143 5/23/17 82/122/116
f 148/145/139 150/150/144 22/121/115
f 148/145/139 149/147/141 150/150/144
f 149/147/141 20/148/142 150/150/144
f 47/146/140 52/27/21 6/26/20
f 47/146/140 148/145/139 52/27/21
f 148/145/139 22/121/115 52/27/21
f 147/143/137 84/33/27 24/84/78
f 147/143/137 76/142/136 84/33/27
f 76/142/136 6/26/20 84/33/27
f 145/139/133 147/143/137 24/84/78
f 145/139/133 146/140/134 147/143/137
f 146/140/134 16/141/135 147/143/137
f 83/117/111 54/86/80 11/46/40
f 83/117/111 145/139/133 54/86/80
f 145/139/133 24/84/78 54/86/80
f 144/138/132 86/29/23 26/112/106
f 144/138/132 75/137/131 86/29/23
f 75/137/131 2/4/4 86/29/23
f 142/134/128 144/138/132 26/112/106
f 142/134/128 143/135/129 144/138/132
f 143/135/129 15/136/130 144/138/132
f 85/110/104 56/114/108 7/34/28
f 85/110/104 142/134/128 56/114/108
f 142/134/128 26/112/106 56/114/108
f 141/133/127 88/182/24 28/183/99
f 141/133/127 79/132/126 88/182/24
f 79/132/126 3/181/11 88/182/24
f 139/129/123 141/133/127 28/183/99
f 139/129/123 140/130/124 141/133/127
f 140/130/124 19/131/125 141/133/127
f 87/103/97 58/184/101 8/185/31
f 87/103/97 139/129/123 58/184/101
f 139/129/123 28/183/99 58/184/101
f 138/128/122 90/31/25 30/98/92
f 138/128/122 81/127/121 90/31/25
f 81/127/121 4/20/14 90/31/25
f 136/124/118 138/128/122 30/98/92
f 136/124/118 137/125/119 138/128/122
f 137/125/119 21/126/120 138/128/122
f 89/96/90 60/100/94 9/40/34
f 89/96/90 136/124/118 60/100/94
f 136/124/118 30/98/92 60/100/94
f 135/123/117 92/32/26 32/91/85
f 135/123/117 82/122/116 92/32/26
f 82/122/116 5/23/17 92/32/26
f 133/119/113 135/123/117 32/91/85
f 133/119/113 134/120/114 135/123/117
f 134/120/114 22/121/115 135/123/117
f 91/89/83 62/93/87 10/43/37
f 91/89/83 133/119/113 62/93/87
f 133/119/113 32/91/85 62/93/87
f 132/118/112 93/82/76 33/81/75
f 132/118/112 83/117/111 93/82/76
f 83/117/111 11/46/40 93/82/76
f 130/113/107 132/118/112 33/81/75
f 130/113/107 131/115/109 132/118/112
f 131/115/109 23/116/110 132/118/112
f 56/114/108 63/35/29 7/34/28
f 56/114/108 130/113/107 63/35/29
f 130/113/107 33/81/75 63/35/29
f 129/111/105 94/75/69 34/74/68
f 129/111/105 85/110/104 94/75/69
f 85/110/104 7/34/28 94/75/69
f 127/106/100 129/111/105 34/74/68
f 127/106/100 128/108/102 129/111/105
f 128/108/102 25/109/103 129/111/105
f 58/107/101 64/38/32 8/37/31
f 58/107/101 127/106/100 64/38/32
f 127/106/100 34/74/68 64/38/32
f 126/104/98 95/68/62 35/67/61
f 126/104/98 87/103/97 95/68/62
f 87/103/97 8/185/31 95/68/62
f 124/99/93 126/104/98 35/67/61
f 124/99/93 125/101/95 126/104/98
f 125/101/95 27/102/96 126/104/98
f 60/100/94 65/41/35 9/40/34
f 60/100/94 124/99/93 65/41/35
f 124/99/93 35/67/61 65/41/35
f 123/97/91 96/61/55 36/60/54
f 123/97/91 89/96/90 96/61/55
f 89/96/90 9/40/34 96/61/55
f 121/92/86 123/97/91 36/60/54
f 121/92/86 122/94/88 123/97/91
f 122/94/88 29/95/89 123/97/91
f 62/93/87 66/44/38 10/43/37
f 62/93/87 121/92/86 66/44/38
f 121/92/86 36/60/54 66/44/38
f 120/90/84 97/54/48 37/53/47
f 120/90/84 91/89/83 97/54/48
f 91/89/83 10/43/37 97/54/48
f 118/85/79 120/90/84 37/53/47
f 118/85/79 119/87/81 120/90/84
f 119/87/81 31/88/82 120/90/84
f 54/86/80 67/47/41 11/46/40
f 54/86/80 118/85/79 67/47/41
f 118/85/79 37/53/47 67/47/41
f 117/83/77 99/186/42 39/187/43
f 117/83/77 93/82/76 99/186/42
f 93/82/76 11/46/40 99/186/42
f 115/78/72 117/83/77 39/187/43
f 115/78/72 116/80/74 117/83/77
f 116/80/74 33/81/75 117/83/77
f 98/79/73 69/188/45 12/189/162
f 98/79/73 115/78/72 69/188/45
f 115/78/72 39/187/43 69/188/45
f 114/76/70 68/190/30 38/191/71
f 114/76/70 94/75/69 68/190/30
f 94/75/69 7/34/28 68/190/30
f 112/71/65 114/76/70 38/191/71
f 112/71/65 113/73/67 114/76/70
f 113/73/67 34/74/68 114/76/70
f 100/72/66 98/192/73 12/193/162
f 100/72/66 112/71/65 98/192/73
f 112/71/65 38/191/71 98/192/73
f 111/69/63 70/194/33 40/195/64
f 111/69/63 95/68/62 70/194/33
f 95/68/62 8/185/31 70/194/33
f 109/64/58 111/69/63 40/195/64
f 109/64/58 110/66/60 111/69/63
f 110/66/60 35/67/61 111/69/63
f 101/65/59 100/196/66 12/197/162
f 101/65/59 109/64/58 100/196/66
f 109/64/58 40/195/64 100/196/66
f 108/62/56 71/198/36 41/199/57
f 108/62/56 96/61/55 71/198/36
f 96/61/55 9/40/34 71/198/36
f 106/57/51 108/62/56 41/199/57
f 106/57/51 107/59/53 108/62/56
f 107/59/53 36/60/54 108/62/56
f 102/58/52 101/200/59 12/201/162
f 102/58/52 106/57/51 101/200/59
f 106/57/51 41/199/57 101/200/59
f 105/55/49 72/202/39 42/203/50
f 105/55/49 97/54/48 72/202/39
f 97/54/48 10/43/37 72/202/39
f 103/50/44 105/55/49 42/203/50
f 103/50/44 104/52/46 105/55/49
f 104/52/46 37/53/47 105/55/49
f 69/51/45 102/204/52 12/205/162
f 69/51/45 103/50/44 102/204/52
f 103/50/44 42/203/50 102/204/52
f 99/48/42 104/52/46 39/49/43
f 99/48/42 67/47/41 104/52/46
f 67/47/41 37/53/47 104/52/46
f 72/45/39 107/59/53 42/56/50
f 72/45/39 66/44/38 107/59/53
f 66/44/38 36/60/54 107/59/53
f 71/42/36 110/66/60 41/63/57
f 71/42/36 65/41/35 110/66/60
f 65/41/35 35/67/61 110/66/60
f 70/39/33 113/73/67 40/70/64
f 70/39/33 64/38/32 113/73/67
f 64/38/32 34/74/68 113/73/67
f 68/36/30 116/80/74 38/77/71
f 68/36/30 63/35/29 116/80/74
f 63/35/29 33/81/75 116/80/74
f 84/33/27 119/87/81 24/84/78
f 84/33/27 61/28/22 119/87/81
f 61/28/22 31/88/82 119/87/81
f 92/32/26 122/94/88 32/91/85
f 92/32/26 59/25/19 122/94/88
f 59/25/19 29/95/89 122/94/88
f 90/31/25 125/101/95 30/98/92
f 90/31/25 57/22/16 125/101/95
f 57/22/16 27/102/96 125/101/95
f 88/30/24 128/108/102 28/105/99
f 88/30/24 55/19/13 128/108/102
f 55/19/13 25/109/103 128/108/102
f 86/29/23 131/115/109 26/112/106
f 86/29/23 53/16/10 131/115/109
f 53/16/10 23/116/110 131/115/109
f 61/28/22 134/120/114 31/88/82
f 61/28/22 52/27/21 134/120/114
f 52/27/21 22/121/115 134/120/114
f 59/25/19 137/125/119 29/95/89
f 59/25/19 51/24/18 137/125/119
f 51/24/18 21/126/120 137/125/119
f 57/22/16 140/130/124 27/102/96
f 57/22/16 49/21/15 140/130/124
f 49/21/15 19/131/125 140/130/124
f 55/19/13 143/135/129 25/109/103
f 55/19/13 45/18/12 143/135/129
f 45/18/12 15/136/130 143/135/129
f 53/16/10 146/140/134 23/116/110
f 53/16/10 46/6/6 146/140/134
f 46/6/6 16/141/135 146/140/134
f 77/15/9 149/147/141 17/144/138
f 77/15/9 50/14/8 149/147/141
f 50/14/8 20/148/142 149/147/141
f 50/12/8 152/154/146 20/151/142
f 50/12/8 48/11/7 152/154/146
f 48/11/7 18/155/147 152/154/146
f 48/9/7 155/161/151 18/158/147
f 48/9/7 43/8/3 155/161/151
f 43/8/3 13/162/152 155/161/151
f 46/6/6 158/166/156 16/141/135
f 46/6/6 44/5/5 158/166/156
f 44/5/5 14/167/157 158/166/156
f 43/3/3 161/173/160 13/170/152
f 43/3/3 74/2/2 161/173/160
f 74/2/2 14/174/157 161/173/160
