# Blender 3.6.0
# www.blender.org
mtllib collider.mtl
o Collider
v -0.000000 -1.033680 -0.450113
v 0.264570 -1.033680 -0.364149
v 0.428083 -1.033680 -0.139093
v 0.428083 -1.033680 0.139093
v 0.264570 -1.033680 0.364149
v -0.000000 -1.033680 0.450113
v -0.264570 -1.033680 0.364149
v -0.428083 -1.033680 0.139093
v -0.428083 -1.033680 -0.139093
v -0.264570 -1.033680 -0.364149
v -0.966747 -0.293207 0.314115
v 0.000000 -0.293207 -1.016498
v 0.966747 -0.293207 0.314115
v -0.597483 -0.293207 0.822364
v -0.597483 -0.293207 -0.822364
v -0.966747 -0.293207 -0.314115
v 0.966747 -0.293207 -0.314115
v 0.597483 -0.293207 -0.822364
v 0.000000 -0.293207 1.016498
v 0.597483 -0.293207 0.822364
v 0.496676 0.647728 -0.683616
v 0.000000 0.647728 -0.844995
v 0.803638 0.647728 -0.261118
v 0.803638 0.647728 0.261118
v 0.496676 0.647728 0.683616
v 0.000000 0.647728 0.844995
v -0.496676 0.647728 0.683616
v -0.803638 0.647728 0.261118
v -0.803638 0.647728 -0.261118
v -0.496676 0.647728 -0.683616
v 0.650629 0.647728 -0.895513
v 0.000000 0.647728 -1.106915
v 1.052739 0.647728 -0.342056
v 1.052739 0.647728 0.342056
v 0.650629 0.647728 0.895513
v 0.000000 0.647728 1.106915
v -0.650629 0.647728 0.895513
v -1.052739 0.647728 0.342056
v -1.052739 0.647728 -0.342056
v -0.650629 0.647728 -0.895513
v 0.342723 0.797728 -0.471718
v 0.000000 0.797728 -0.583075
v 0.554538 0.797728 -0.180180
v 0.554538 0.797728 0.180180
v 0.342723 0.797728 0.471718
v 0.000000 0.797728 0.583075
v -0.342723 0.797728 0.471718
v -0.554538 0.797728 0.180180
v -0.554538 0.797728 -0.180180
v -0.342723 0.797728 -0.471718
v 0.496676 0.797728 -0.683616
v 0.000000 0.797728 -0.844995
v 0.803638 0.797728 -0.261118
v 0.803638 0.797728 0.261118
v 0.496676 0.797728 0.683616
v 0.000000 0.797728 0.844995
v -0.496676 0.797728 0.683616
v -0.803638 0.797728 0.261118
v -0.803638 0.797728 -0.261118
v -0.496676 0.797728 -0.683616
v 0.342723 0.947728 -0.471718
v 0.000000 0.947728 -0.583075
v 0.554538 0.947728 -0.180180
v 0.554538 0.947728 0.180180
v 0.342723 0.947728 0.471718
v 0.000000 0.947728 0.583075
v -0.342723 0.947728 0.471718
v -0.554538 0.947728 0.180180
v -0.554538 0.947728 -0.180180
v -0.342723 0.947728 -0.471718
vn 0.3077 -0.0910 0.9471
vn 0.2499 -0.5883 0.7691
vn 0.6542 -0.5883 -0.4753
vn -0.6542 -0.5883 -0.4753
vn 0.8087 -0.5883 -0.0000
vn -0.2499 -0.5883 -0.7691
vn -0.6542 -0.5883 0.4753
vn 0.6542 -0.5883 0.4753
vn 0.2499 -0.5883 -0.7691
vn -0.8087 -0.5883 -0.0000
vn -0.0000 -1.0000 -0.0000
vn -0.2499 -0.5883 0.7691
vn -0.3090 -0.0000 -0.9511
vn 0.8057 -0.0910 -0.5853
vn -0.8057 -0.0910 -0.5853
vn -0.3077 -0.0910 0.9471
vn 0.9958 -0.0910 -0.0000
vn -0.3077 -0.0910 -0.9471
vn -0.8057 -0.0910 0.5853
vn 0.8057 -0.0910 0.5853
vn 0.3077 -0.0910 -0.9471
vn -0.9958 -0.0910 -0.0000
vn -0.0000 1.0000 -0.0000
vn 0.3090 -0.0000 -0.9511
vn -0.8090 -0.0000 0.5878
vn 0.8090 -0.0000 0.5878
vn -1.0000 -0.0000 -0.0000
vn 0.3090 -0.0000 0.9511
vn 0.8090 -0.0000 -0.5878
vn -0.8090 -0.0000 -0.5878
vn -0.3090 -0.0000 0.9511
vn 1.0000 -0.0000 -0.0000
vn -0.9959 -0.0910 -0.0000
vt 0.361403 0.096667
vt 0.250000 0.060470
vt 0.430254 0.308568
vt 0.361403 0.403333
vt 0.069746 0.308568
vt 0.138597 0.403333
vt 0.430254 0.191432
vt 0.250000 0.439530
vt 0.138597 0.096667
vt 0.069746 0.191432
vt 0.164957 0.367051
vt 0.250000 0.394683
vt 0.335042 0.367051
vt 0.387602 0.205291
vt 0.387602 0.294710
vt 0.335043 0.132949
vt 0.250000 0.105317
vt 0.164957 0.132949
vt 0.112398 0.294710
vt 0.112398 0.205290
vt 0.250000 0.349836
vt 0.308682 0.330769
vt 0.344950 0.280851
vt 0.344950 0.219149
vt 0.250000 0.150164
vt 0.308682 0.169231
vt 0.155050 0.219149
vt 0.191318 0.169231
vt 0.155050 0.280851
vt 0.191318 0.330769
s 0
f 20/1/1 36/2/1 19/2/1
f 5/1/2 19/2/2 6/2/2
f 3/3/3 18/4/3 17/3/3
f 9/5/4 15/6/4 10/6/4
f 3/3/5 13/7/5 4/7/5
f 10/6/6 12/8/6 1/8/6
f 7/9/7 11/10/7 8/10/7
f 4/7/8 20/1/8 5/1/8
f 2/4/9 12/8/9 18/4/9
f 8/10/10 16/5/10 9/5/10
f 5/1/11 9/5/11 1/8/11
f 6/2/12 14/9/12 7/9/12
f 30/11/13 52/12/13 22/12/13
f 18/4/14 33/3/14 17/3/14
f 16/5/15 40/6/15 15/6/15
f 19/2/16 37/9/16 14/9/16
f 17/3/17 34/7/17 13/7/17
f 15/6/18 32/8/18 12/8/18
f 14/9/19 38/10/19 11/10/19
f 13/7/20 35/1/20 20/1/20
f 12/8/21 31/4/21 18/4/21
f 11/10/22 39/5/22 16/5/22
f 21/13/23 32/8/23 22/12/23
f 21/13/23 33/3/23 31/4/23
f 24/14/23 33/3/23 23/15/23
f 25/16/23 34/7/23 24/14/23
f 26/17/23 35/1/23 25/16/23
f 27/18/23 36/2/23 26/17/23
f 27/18/23 38/10/23 37/9/23
f 29/19/23 38/10/23 28/20/23
f 30/11/23 39/5/23 29/19/23
f 22/12/23 40/6/23 30/11/23
f 42/21/24 61/22/24 41/22/24
f 27/18/25 58/20/25 28/20/25
f 24/14/26 55/16/26 25/16/26
f 22/12/24 51/13/24 21/13/24
f 28/20/27 59/19/27 29/19/27
f 25/16/28 56/17/28 26/17/28
f 21/13/29 53/15/29 23/15/29
f 29/19/30 60/11/30 30/11/30
f 26/17/31 57/18/31 27/18/31
f 23/15/32 54/14/32 24/14/32
f 42/21/23 51/13/23 52/12/23
f 43/23/23 51/13/23 41/22/23
f 43/23/23 54/14/23 53/15/23
f 44/24/23 55/16/23 54/14/23
f 46/25/23 55/16/23 45/26/23
f 46/25/23 57/18/23 56/17/23
f 48/27/23 57/18/23 47/28/23
f 48/27/23 59/19/23 58/20/23
f 49/29/23 60/11/23 59/19/23
f 42/21/23 60/11/23 50/30/23
f 69/29/23 65/26/23 63/23/23
f 48/27/27 69/29/27 49/29/27
f 45/26/28 66/25/28 46/25/28
f 41/22/29 63/23/29 43/23/29
f 49/29/30 70/30/30 50/30/30
f 46/25/31 67/28/31 47/28/31
f 43/23/32 64/24/32 44/24/32
f 42/21/13 70/30/13 62/21/13
f 47/28/25 68/27/25 48/27/25
f 44/24/26 65/26/26 45/26/26
f 20/1/1 35/1/1 36/2/1
f 5/1/2 20/1/2 19/2/2
f 3/3/3 2/4/3 18/4/3
f 9/5/4 16/5/4 15/6/4
f 3/3/5 17/3/5 13/7/5
f 10/6/6 15/6/6 12/8/6
f 7/9/7 14/9/7 11/10/7
f 4/7/8 13/7/8 20/1/8
f 2/4/9 1/8/9 12/8/9
f 8/10/10 11/10/10 16/5/10
f 1/8/11 2/4/11 3/3/11
f 3/3/11 4/7/11 5/1/11
f 5/1/11 6/2/11 7/9/11
f 7/9/11 8/10/11 9/5/11
f 9/5/11 10/6/11 1/8/11
f 1/8/11 3/3/11 5/1/11
f 5/1/11 7/9/11 9/5/11
f 6/2/12 19/2/12 14/9/12
f 30/11/13 60/11/13 52/12/13
f 18/4/14 31/4/14 33/3/14
f 16/5/15 39/5/15 40/6/15
f 19/2/16 36/2/16 37/9/16
f 17/3/17 33/3/17 34/7/17
f 15/6/18 40/6/18 32/8/18
f 14/9/19 37/9/19 38/10/19
f 13/7/20 34/7/20 35/1/20
f 12/8/21 32/8/21 31/4/21
f 11/10/33 38/10/33 39/5/33
f 21/13/23 31/4/23 32/8/23
f 21/13/23 23/15/23 33/3/23
f 24/14/23 34/7/23 33/3/23
f 25/16/23 35/1/23 34/7/23
f 26/17/23 36/2/23 35/1/23
f 27/18/23 37/9/23 36/2/23
f 27/18/23 28/20/23 38/10/23
f 29/19/23 39/5/23 38/10/23
f 30/11/23 40/6/23 39/5/23
f 22/12/23 32/8/23 40/6/23
f 42/21/24 62/21/24 61/22/24
f 27/18/25 57/18/25 58/20/25
f 24/14/26 54/14/26 55/16/26
f 22/12/24 52/12/24 51/13/24
f 28/20/27 58/20/27 59/19/27
f 25/16/28 55/16/28 56/17/28
f 21/13/29 51/13/29 53/15/29
f 29/19/30 59/19/30 60/11/30
f 26/17/31 56/17/31 57/18/31
f 23/15/32 53/15/32 54/14/32
f 42/21/23 41/22/23 51/13/23
f 43/23/23 53/15/23 51/13/23
f 43/23/23 44/24/23 54/14/23
f 44/24/23 45/26/23 55/16/23
f 46/25/23 56/17/23 55/16/23
f 46/25/23 47/28/23 57/18/23
f 48/27/23 58/20/23 57/18/23
f 48/27/23 49/29/23 59/19/23
f 49/29/23 50/30/23 60/11/23
f 42/21/23 52/12/23 60/11/23
f 63/23/23 61/22/23 62/21/23
f 62/21/23 70/30/23 69/29/23
f 69/29/23 68/27/23 67/28/23
f 67/28/23 66/25/23 65/26/23
f 65/26/23 64/24/23 63/23/23
f 63/23/23 62/21/23 69/29/23
f 69/29/23 67/28/23 65/26/23
f 48/27/27 68/27/27 69/29/27
f 45/26/28 65/26/28 66/25/28
f 41/22/29 61/22/29 63/23/29
f 49/29/30 69/29/30 70/30/30
f 46/25/31 66/25/31 67/28/31
f 43/23/32 63/23/32 64/24/32
f 42/21/13 50/30/13 70/30/13
f 47/28/25 67/28/25 68/27/25
f 44/24/26 64/24/26 65/26/26
