<?xml version="1.0" encoding="UTF-8" standalone="no"?>
<!-- Created with Inkscape (http://www.inkscape.org/) -->

<svg
   width="38.354248mm"
   height="43.299168mm"
   viewBox="0 0 38.354249 43.299167"
   version="1.1"
   id="svg5"
   xml:space="preserve"
   sodipodi:docname="confettostamp.svg"
   inkscape:version="1.3 (0e150ed6c4, 2023-07-21)"
   inkscape:export-filename="confettostamp_height.png"
   inkscape:export-xdpi="300.35001"
   inkscape:export-ydpi="300.35001"
   xmlns:inkscape="http://www.inkscape.org/namespaces/inkscape"
   xmlns:sodipodi="http://sodipodi.sourceforge.net/DTD/sodipodi-0.dtd"
   xmlns="http://www.w3.org/2000/svg"
   xmlns:svg="http://www.w3.org/2000/svg"><sodipodi:namedview
     id="namedview1"
     pagecolor="#ffffff"
     bordercolor="#000000"
     borderopacity="0.25"
     inkscape:showpageshadow="2"
     inkscape:pageopacity="0.0"
     inkscape:pagecheckerboard="0"
     inkscape:deskcolor="#d1d1d1"
     inkscape:document-units="mm"
     showgrid="false"
     inkscape:zoom="2.8284271"
     inkscape:cx="33.764349"
     inkscape:cy="91.570328"
     inkscape:window-width="1920"
     inkscape:window-height="1022"
     inkscape:window-x="0"
     inkscape:window-y="0"
     inkscape:window-maximized="1"
     inkscape:current-layer="svg5"
     inkscape:export-bgcolor="#ffffffff" /><defs
     id="defs2" /><g
     id="g1"
     style="opacity:1;fill:#000000;fill-opacity:1"
     transform="rotate(17.881576,-12.156446,39.722752)"
     inkscape:transform-center-x="-16.185754"
     inkscape:transform-center-y="-20.136044"><path
       d="m 21.988561,8.8948607 c -0.0394,0 -0.17906,0.0632 -0.38189,0.16846 -0.20284,0.10528 -0.46875,0.25251 -0.7612,0.42065 -0.5849,0.33627 -1.27503,0.7562403 -1.7756,1.0893403 -0.24253,0.16139 -0.56929,0.39716 -0.9002,0.64699 -0.33092,0.24982 -0.66598,0.51357 -0.92553,0.73122 -0.26376,0.22119 -0.47711,0.39402 -0.65525,0.52658 -0.17815,0.13256 -0.32111,0.22466 -0.44546,0.2837 -0.12434,0.059 -0.2299,0.0852 -0.33228,0.0858 -0.10237,6.3e-4 -0.20145,-0.024 -0.31367,-0.0667 -0.12046,-0.0458 -0.21823,-0.10376 -0.29404,-0.1788 -0.0758,-0.075 -0.13003,-0.16737 -0.16433,-0.28215 -0.0343,-0.11478 -0.0485,-0.25202 -0.0444,-0.41703 0.004,-0.16501 0.0263,-0.35768 0.0656,-0.58342 0.055,-0.31593 0.081,-0.52725 0.076,-0.70074 -0.003,-0.0867 -0.0123,-0.16409 -0.0305,-0.24029 -0.0182,-0.0762 -0.0446,-0.1512 -0.0791,-0.23358 -0.0369,-0.0883 -0.0707,-0.1588603 -0.10904,-0.2165203 -0.0384,-0.0577 -0.0815,-0.10244 -0.13694,-0.14005 -0.0555,-0.0376 -0.1232,-0.068 -0.21136,-0.0961 -0.0882,-0.0281 -0.19684,-0.0539 -0.33331,-0.0832 -0.17301,-0.0371 -0.33715,-0.0617 -0.50798,-0.0724 -0.17084,-0.0106 -0.34811,-0.007 -0.54726,0.0114 -0.19914,0.0187 -0.42003,0.0529 -0.67799,0.10387 -0.25796,0.051 -0.55295,0.11859 -0.9002,0.20464 -0.60655,0.1502803 -1.22804,0.3267003 -1.8696602,0.5312303 -0.64161,0.20453 -1.3034,0.43712 -1.99006,0.6997 -0.68665,0.26258 -1.39825,0.55508 -2.13992,0.87953 -0.74167,0.32445 -1.51361,0.68112 -2.32027,1.07125 l -1.96939,0.9524 v 0.44648 c 0,0.24068 0.0264,0.46765 0.0879,0.6966 0.0307,0.11448 0.07,0.2295 0.11937,0.34675 0.0493,0.11725 0.10871,0.23689 0.1788,0.3607 0.14019,0.24764 0.32409,0.51204 0.56018,0.80874 0.23609,0.2967 0.52413,0.62584 0.87333,1.00201 0.37383,0.4027 0.80554,0.9104 1.21181,1.41955 0.40627,0.50914 0.7872,1.01977 1.05988,1.4273 0.2467,0.36869 0.45475,0.66835 0.64234,0.91726 0.1876,0.2489 0.35486,0.44706 0.51935,0.61236 0.16449,0.1653 0.32646,0.29761 0.50384,0.41548 0.17739,0.11787 0.37008,0.22102 0.59635,0.32763 0.12274,0.0578 0.22398,0.10161 0.33177,0.13384 0.10778,0.0322 0.22236,0.053 0.37103,0.0636 0.29735,0.0212 0.73205,0.003 1.52807,-0.0382 1.0955502,-0.0567 1.7891902,-0.085 2.4510202,-0.0837 0.66182,10e-4 1.29214,0.0319 2.26032,0.0925 0.31912,0.02 0.60668,0.0333 0.8692,0.0357 0.26253,0.002 0.49984,-0.006 0.71779,-0.0274 0.21794,-0.0217 0.41665,-0.0572 0.60203,-0.10956 0.18537,-0.0524 0.35763,-0.1218 0.52245,-0.21135 0.16481,-0.0896 0.32225,-0.19955 0.47852,-0.3328 0.15627,-0.13325 0.31104,-0.28988 0.47077,-0.47336 0.15974,-0.18348 0.32451,-0.39383 0.49971,-0.63407 0.17521,-0.24023 0.3611,-0.51039 0.56379,-0.8139 0.29526,-0.44212 0.65265,-0.92286 1.03457,-1.39578 0.38192,-0.47292 0.78847,-0.93779 1.18132,-1.34772 0.24852,-0.25933 0.46858,-0.49809 0.66146,-0.72296 0.192868,-0.22487 0.358568,-0.43588 0.498678,-0.63975 0.1401,-0.20387 0.25446,-0.40053 0.34468,-0.59686 0.0902,-0.19634 0.15627,-0.39254 0.19947,-0.5948 0.0432,-0.20226 0.0635,-0.41087 0.0625,-0.63252 -9.4e-4,-0.22164 -0.0234,-0.45605 -0.0656,-0.71055 -0.0422,-0.2545 -0.10389,-0.52911 -0.18449,-0.82992 -0.0806,-0.30081 -0.17999,-0.62799 -0.2961,-0.98857 -0.14674,-0.45569 -0.2883,-0.94676 -0.39791,-1.37046 -0.109608,-0.42371 -0.187158,-0.7802103 -0.206708,-0.9673803 -0.0196,-0.18717 -0.0492,-0.35723 -0.0811,-0.4806 -0.0319,-0.12336 -0.0662,-0.19998 -0.0951,-0.19998 z m -7.69152,5.1960603 c 0.14473,0.14144 0.25569,0.2444 0.38188,0.31316 0.0631,0.0344 0.13045,0.06 0.20723,0.078 0.0768,0.018 0.16346,0.0282 0.26613,0.031 -0.02,0.19756 -0.035,0.34822 -0.0119,0.49041 0.0116,0.0711 0.0328,0.13991 0.0672,0.21187 0.0344,0.072 0.0821,0.1468 0.14728,0.22944 -0.16699,0.10743 -0.29341,0.18988 -0.39015,0.29663 -0.0484,0.0534 -0.0892,0.11272 -0.12403,0.18448 -0.0348,0.0718 -0.0634,0.15586 -0.0873,0.25838 -0.18818,-0.0632 -0.33167,-0.11084 -0.47542,-0.11988 -0.0719,-0.005 -0.14389,5.7e-4 -0.2217,0.0181 -0.0778,0.0175 -0.16122,0.0478 -0.25631,0.093 -0.0677,-0.18669 -0.12006,-0.32841 -0.20257,-0.44648 -0.0413,-0.059 -0.0902,-0.11235 -0.15245,-0.16227 -0.0622,-0.0499 -0.1374,-0.0965 -0.23203,-0.14263 0.10379,-0.16928 0.18187,-0.29851 0.22273,-0.43666 0.0204,-0.0691 0.0313,-0.14039 0.0315,-0.22014 2.4e-4,-0.0798 -0.0102,-0.16804 -0.0331,-0.27079 0.19707,-0.0244 0.34659,-0.0435 0.48007,-0.0977 0.0667,-0.0271 0.12973,-0.0631 0.19224,-0.11265 0.0625,-0.0495 0.12464,-0.11283 0.19069,-0.19482 z"
       style="fill:#000000;fill-opacity:1;stroke-width:0.117593"
       id="path24" /><path
       d="m 7.5196708,2.3619207 c -0.0171,-0.0171 -0.22967,0.0443 -0.54932,0.1509 -0.31965,0.10656 -0.74643,0.25853 -1.19166,0.42323 -0.44523,0.1647 -0.90897,0.34184 -1.30276,0.49919 -0.39379,0.15735 -0.7173,0.29478 -0.88264,0.37931 -0.16574,0.0847 -0.344,0.20977 -0.52089,0.36018 -0.1769,0.15041 -0.35259,0.32635 -0.5147,0.51263 -0.16212,0.18628 -0.31062,0.38281 -0.43202,0.57516 -0.12139,0.19235 -0.21553,0.38019 -0.27026,0.5488 -0.0496,0.15265 -0.12259,0.49663 -0.19999,0.9276 -0.0774,0.43096 -0.15949,0.94931 -0.22738,1.45055 -0.0963,0.71117 -0.19394,1.27959 -0.33073,1.8712103 -0.13678001,0.59161 -0.31263001,1.20625 -0.56637001,2.00918 -0.28932,0.91548 -0.45029,1.4511 -0.5333,1.84278 -0.0415,0.19584 -0.0636,0.35559 -0.0724,0.50901 -0.009,0.15342 -0.004,0.30024 0.007,0.47026 0.0195,0.28487 0.0595,0.54128 0.13229,0.79013 0.0364,0.12443 0.0809,0.2471 0.13539,0.37052 0.0545,0.12342 0.1186,0.24743 0.19431,0.37517 0.1514,0.25549 0.34879,0.52514 0.60409,0.82992 0.25531001,0.30478 0.56895001,0.64507 0.95343001,1.0418 0.46705,0.48192 0.88387,0.95151 1.29346,1.46244 0.4096,0.51094 0.8116,1.06274 1.24851,1.70843 0.33101,0.48919 0.60661,0.88354 0.84852,1.20457 0.24192,0.32104 0.45025,0.56903 0.64751,0.76637 0.19726,0.19733 0.38326,0.34387 0.58033,0.46198 0.19706,0.11811 0.40514,0.20759 0.64647,0.29094 0.18633,0.0643 0.35957,0.11303 0.54828,0.14676 0.18872,0.0337 0.39314,0.0523 0.64183,0.0563 0.24868,0.004 0.54172,-0.006 0.90795,-0.031 0.36624,-0.0247 0.8053202,-0.0637 1.3466902,-0.11627 0.69166,-0.0669 1.17142,-0.1001 1.65726,-0.10025 0.48584,-1.5e-4 0.9781,0.0327 1.69447,0.0992 1.11366,0.1036 1.7017,0.15557 2.01125,0.15451 0.15477,-5.3e-4 0.23981,-0.0143 0.28629,-0.0413 0.0465,-0.027 0.0543,-0.0672 0.0543,-0.12092 0,-0.0485 -0.01,-0.0925 -0.0258,-0.12454 -0.016,-0.0321 -0.0383,-0.0521 -0.0625,-0.0522 -0.0485,-2.6e-4 -0.96115,-0.0814 -2.0283,-0.17983 -0.43767,-0.0405 -0.78998,-0.0709 -1.09967,-0.091 -0.3097,-0.0201 -0.5769,-0.0299 -0.84491,-0.0295 -0.26802,4.2e-4 -0.53693,0.0115 -0.84957,0.0326 -0.31263,0.0211 -0.66906,0.0522 -1.11259,0.0941 -0.5303902,0.05 -0.9563502,0.0857 -1.3094802,0.10439 -0.35312,0.0187 -0.63326,0.0203 -0.87281,0.003 -0.23956,-0.0172 -0.4382,-0.0539 -0.62787,-0.11162 -0.18968,-0.0578 -0.37064,-0.13642 -0.57413,-0.23927 -0.17821,-0.0901 -0.33434,-0.1836 -0.48834,-0.3023 -0.154,-0.11871 -0.30568,-0.26277 -0.47387,-0.45372 -0.1682,-0.19095 -0.3528,-0.42907 -0.57361,-0.73587 -0.22081,-0.30681 -0.47779,-0.6825 -0.78962,-1.14877 -0.35456,-0.53017 -0.73717,-1.05087 -1.14876,-1.56373 -0.4116,-0.51286 -0.85195,-1.01772 -1.32292,-1.51619 -0.26805,-0.28369 -0.50444,-0.53974 -0.71055,-0.77669 -0.20611,-0.23696 -0.38194,-0.45477 -0.52969001,-0.66198 -0.14774,-0.20721 -0.26724,-0.40395 -0.36018,-0.59841 -0.0929,-0.19447 -0.15931,-0.38678 -0.20102,-0.5855 -0.0417,-0.19871 -0.0592,-0.40377 -0.0532,-0.62373 0.006,-0.21996 0.0352,-0.45493 0.0853,-0.71313 0.05,-0.25821 0.12129,-0.53974 0.21187,-0.85318 0.0906,-0.31345 0.20061,-0.6587 0.32815,-1.04438 0.24036001,-0.72686 0.40319001,-1.27472 0.53020001,-1.82263 0.127,-0.5479103 0.2181,-1.0957703 0.31471,-1.8226303 0.0723,-0.54419 0.13109,-0.97141 0.18603,-1.31723 0.0549,-0.34583 0.10569,-0.61027 0.16123,-0.82837 0.0555,-0.2181 0.11603,-0.38986 0.19017,-0.55087 0.0741,-0.16102 0.16213,-0.31119 0.27285,-0.48576 0.11819,-0.18635 0.24786,-0.35108 0.40721,-0.50437 0.15936,-0.15328 0.34848,-0.29508 0.5855,-0.43718 0.23701,-0.1421 0.52165,-0.28439 0.87281,-0.43718 0.35117,-0.15279 0.76892,-0.31642 1.27073,-0.50178 0.38476,-0.14212 0.70092,-0.26406 0.95601,-0.37 0.25509,-0.10595 0.44907,-0.19599 0.58911,-0.27389 0.14004,-0.0779 0.22601,-0.14355 0.26562,-0.20154 0.0198,-0.029 0.0279,-0.0561 0.0253,-0.0816 -0.003,-0.0255 -0.0157,-0.0498 -0.0388,-0.0729 z"
       style="fill:#000000;fill-opacity:1;stroke-width:0.117593"
       id="path13" /><path
       d="m 8.3893908,1.8560107 c -0.0338,-0.007 -0.0637,-10e-4 -0.0853,0.015 -0.0216,0.0164 -0.0352,0.043 -0.0362,0.077 -10e-4,0.034 0.0103,0.0752 0.0382,0.12041 0.0216,0.035 0.055,0.0585 0.091,0.0682 0.036,0.01 0.0746,0.006 0.10748,-0.0145 0.0403,-0.0248 0.0599,-0.0541 0.0589,-0.0873 -10e-4,-0.0332 -0.0229,-0.0704 -0.0651,-0.11265 -0.0377,-0.0377 -0.0752,-0.0587 -0.10903,-0.0662 z"
       style="fill:#000000;fill-opacity:1;stroke-width:0.117593"
       id="path12" /><path
       d="m 12.317831,1.3599207 c -0.20611,0.002 -0.41313,0.0284 -0.6289,0.0801 -0.21578,0.0517 -0.43995,0.12858 -0.68162,0.23048 -0.24166,0.10191 -0.50067,0.22865 -0.78444,0.38086 -0.2837802,0.15221 -0.5927302,0.32962 -0.9348302,0.53226 -0.40698,0.24108 -0.90412,0.50515 -1.38648,0.74053 -0.48236,0.23538 -0.94967,0.44217 -1.29656,0.56896 -0.38866,0.14205 -0.73578,0.2746 -1.04645,0.4041 -0.31067,0.12951 -0.58486,0.2557 -0.82786,0.38499 -0.24299,0.1293 -0.45465,0.26167 -0.64027,0.40308 -0.18562,0.14141 -0.34515,0.29199 -0.48369,0.45785 -0.13854,0.16587 -0.25635,0.34719 -0.35812,0.54984 -0.10177,0.20265 -0.18774,0.42675 -0.26303,0.67851 -0.0753,0.25177 -0.13983,0.53118 -0.19895,0.8444 -0.0591,0.31321 -0.11264,0.65996 -0.16589,1.04696 -0.12929,0.93968 -0.28357,1.8395403 -0.34261,1.9993603 -0.059,0.15981 -0.14206,0.43383 -0.18449,0.60927 l -0.077,0.31936 0.79479,-0.36122 c 1.09469,-0.49706 2.11183,-0.9403 3.05666,-1.3306703 0.94482,-0.39037 1.81753,-0.7278 2.62206,-1.01286 0.80453,-0.28505 1.5410502,-0.51757 2.2148602,-0.69866 0.3369,-0.0905 0.65826,-0.16825 0.96428,-0.23306 0.30602,-0.0648 0.59648,-0.11682 0.87281,-0.15607 0.27633,-0.0392 0.53816,-0.0657 0.786,-0.0796 0.24784,-0.0138 0.48174,-0.015 0.70229,-0.004 0.22054,0.0114 0.42773,0.0349 0.62218,0.0713 0.19444,0.0364 0.37616,0.0855 0.5457,0.14676 0.16955,0.0613 0.327,0.13515 0.47284,0.22117 0.14584,0.086 0.28027,0.1845 0.40359,0.29508 0.12333,0.11057 0.23543,0.23298 0.33745,0.36793 0.10202,0.13495 0.19405,0.28217 0.27595,0.44132 l 0.27699,0.53847 1.08779,-0.71572 c 0.5985,-0.3936 1.66764,-1.02892 2.37556,-1.4118 0.70792,-0.38287 1.30344,-0.70804 1.32344,-0.72244 0.0191,-0.0137 0.007,-0.0789 -0.0269,-0.17518 -0.0337,-0.0963 -0.0889,-0.22337 -0.15503,-0.36019 -0.13228,-0.27363 -0.30928,-0.58653 -0.44959,-0.77049 -0.12589,-0.16505 -0.25406,-0.30888 -0.40256,-0.44183 -0.14849,-0.13296 -0.31729,-0.25489 -0.524,-0.37673 -0.2067,-0.12184 -0.45136,-0.24345 -0.75189,-0.37517 -0.30053,-0.13172 -0.65679,-0.27356 -1.08675,-0.43615 -0.53631,-0.2028 -1.07856,-0.4354 -1.60094,-0.68574 -0.52238,-0.25034 -1.02492,-0.51863 -1.48156,-0.79169 -0.32961,-0.19708 -0.62735,-0.36917 -0.90176,-0.51676 -0.2744,-0.14759 -0.52525,-0.27049 -0.76067,-0.36845 -0.23542,-0.098 -0.45553,-0.17092 -0.66818,-0.21911 -0.21265,-0.0482 -0.41815,-0.0715 -0.62425,-0.0698 z"
       style="fill:#000000;fill-opacity:1;stroke-width:0.117593"
       id="path7" /><path
       d="m 12.059451,0.0059907 c -0.18903,0.0123 -0.37673,0.0431 -0.56741,0.0925 -0.19068,0.0494 -0.38439,0.1173 -0.58601,0.20258 -0.20163,0.0853 -0.41116,0.18807 -0.63304,0.30799 -0.5539902,0.29953 -0.8722602,0.48249 -1.0319802,0.61081 -0.0799,0.0642 -0.12012,0.1146 -0.13022,0.15917 -0.0101,0.0446 0.01,0.0831 0.0501,0.1235 0.0247,0.0247 0.0609,0.0363 0.11266,0.0331 0.0518,-0.003 0.11936,-0.0209 0.20619,-0.0553 0.17366,-0.0687 0.42547,-0.20299 0.7870302,-0.41496 0.20591,-0.12071 0.37642,-0.21716 0.52658,-0.29456 0.15016,-0.0774 0.27979,-0.13586 0.40308,-0.18035 0.12329,-0.0445 0.24058,-0.0751 0.36587,-0.0971 0.12529,-0.022 0.2588,-0.035 0.41496,-0.045 0.20287,-0.0129 0.43123,-0.0167 0.63614,-0.0119 0.20491,0.005 0.386,0.018 0.49402,0.0382 0.10802,0.0203 0.41074,0.15869 0.81081,0.36535 0.40007,0.20666 0.89783,0.48186 1.39681,0.77515 0.6296,0.37006 1.20905,0.6838 1.77405,0.95911 0.56501,0.27531 1.11545,0.512 1.68672,0.72709 0.52325,0.19701 0.94237,0.35863 1.28416,0.49868 0.34179,0.14004 0.60611,0.2586 0.82011,0.36948 0.21399,0.11088 0.37742,0.21398 0.51728,0.3235 0.13986,0.10952 0.25631,0.22525 0.37568,0.36122 0.15285,0.17408 0.27844,0.33986 0.38551,0.52296 0.10707,0.1831 0.195648,0.38376 0.273368,0.62735 0.0777,0.2436 0.14502,0.53018 0.20981,0.88574 0.0648,0.35555 0.12706,0.78016 0.19533,1.29914 0.0525,0.39888 0.1017,0.74163 0.15452,1.0573 0.0528,0.31568 0.10938,0.60405 0.1757,0.8940103 0.13262,0.57991 0.30503,1.16605 0.5705,1.98799 0.12578,0.38941 0.23432,0.73695 0.3235,1.05161 0.0892,0.31466 0.15928,0.59619 0.20774,0.85421 0.0485,0.25803 0.0755,0.4926 0.0791,0.71211 0.004,0.21951 -0.0161,0.4241 -0.0615,0.62321 -0.0454,0.19912 -0.1165,0.39279 -0.21498,0.58963 -0.0985,0.19684 -0.22462,0.3971 -0.38034,0.60978 -0.15571,0.21269 -0.34102,0.43755 -0.5581,0.6842 -0.21708,0.24665 -0.4657,0.51465 -0.74828,0.81339 -0.482608,0.5102 -0.921898,1.0141 -1.344618,1.54512 -0.42271,0.53103 -0.82909,1.0894 -1.2454,1.70843 -0.46157,0.68634 -0.79279,1.15307 -1.06143,1.48311 -0.13433,0.16502 -0.25292,0.29604 -0.36432,0.40307 -0.1114,0.10704 -0.21556,0.19016 -0.32091,0.25994 -0.15056,0.0997 -0.30418,0.19007 -0.43047,0.2558 -0.12629,0.0657 -0.22508,0.10697 -0.26613,0.10697 -0.047,0 -0.0906,0.0121 -0.12764,0.0331 -0.0371,0.021 -0.0678,0.051 -0.0899,0.0853 -0.0221,0.0342 -0.0357,0.073 -0.0377,0.11266 -0.002,0.0396 0.007,0.0801 0.0305,0.1173 0.0184,0.0298 0.0516,0.0461 0.10077,0.0496 0.0491,0.004 0.11417,-0.006 0.19482,-0.0289 0.16129,-0.0459 0.38626,-0.14507 0.67799,-0.29818 0.12944,-0.0679 0.26329,-0.16221 0.40773,-0.29042 0.14444,-0.1282 0.29953,-0.29006 0.47077,-0.49248 0.17124,-0.20241 0.35862,-0.44581 0.56844,-0.73638 0.20983,-0.29057 0.44208,-0.62847 0.70228,-1.02113 0.31187,-0.47063 0.68527,-0.97718 1.09606,-1.48983 0.41079,-0.51266 0.85885,-1.03138 1.320848,-1.52652 0.42752,-0.45819 0.76328,-0.82761 1.02733,-1.14257 0.26405,-0.31496 0.4566,-0.57524 0.59789,-0.81649 0.0707,-0.12062 0.12811,-0.23668 0.1757,-0.35191 0.0476,-0.11524 0.0851,-0.22977 0.11473,-0.3483 0.0593,-0.23707 0.0875,-0.48979 0.10542,-0.7922 0.0121,-0.20385 0.0186,-0.37018 0.0119,-0.53537 -0.007,-0.16519 -0.0267,-0.32898 -0.0667,-0.52658 -0.0799,-0.39521 -0.24019,-0.92612 -0.53899,-1.87741 -0.25727,-0.81907 -0.43173,-1.42976 -0.56637,-2.0226103 -0.13464,-0.59286 -0.22934,-1.16834 -0.32815,-1.9172 -0.10201,-0.77319 -0.18033,-1.27603 -0.26975,-1.66088 -0.0447,-0.19242 -0.0919,-0.35508 -0.14676,-0.50746 -0.0548,-0.15239 -0.11693,-0.29455 -0.19068,-0.44494 -0.13472,-0.27468 -0.268888,-0.50351 -0.429948,-0.7059 -0.0805,-0.10119 -0.16797,-0.19586 -0.26562,-0.28628 -0.0976,-0.0904 -0.20533,-0.17644 -0.32711,-0.26097 -0.24355,-0.16907 -0.5423,-0.3312 -0.92449,-0.50591 -0.38219,-0.17472 -0.84776,-0.36203 -1.42472,-0.58136 -0.72883,-0.27707 -1.32545,-0.52741 -1.89549,-0.8015 -0.57005,-0.2741 -1.11371,-0.57216 -1.73685,-0.94517 -0.3202,-0.19166 -0.61553,-0.36111 -0.8909,-0.50953 -0.27537,-0.14841 -0.53066,-0.2755 -0.77049,-0.38188 -0.23984,-0.10639 -0.4644,-0.19228 -0.678,-0.25787 -0.2136,-0.0656 -0.41622,-0.11091 -0.61288,-0.13694 -0.19667,-0.0259999976 -0.38717,-0.0325 -0.57619,-0.0202 z"
       style="fill:#000000;fill-opacity:1;stroke-width:0.117593"
       id="path6" /></g><path
     id="rect1-5"
     style="opacity:1;stroke-width:0.593434;stroke-linejoin:bevel;paint-order:markers fill stroke"
     inkscape:transform-center-x="-19.176734"
     inkscape:transform-center-y="-21.650676"
     d="M 0.8821167,0 A 1.5499974,1.5499974 0 0 1 0,0.8981365 V 3.0215211 A 1.5499974,1.5499974 0 0 1 0.9803019,4.418335 1.5499974,1.5499974 0 0 1 0,5.8570069 V 7.9803915 A 1.5499974,1.5499974 0 0 1 0.9803019,9.3772055 1.5499974,1.5499974 0 0 1 0,10.815877 v 2.123385 A 1.5499974,1.5499974 0 0 1 0.9803019,14.336076 1.5499974,1.5499974 0 0 1 0,15.774748 v 2.082043 A 1.5499974,1.5499974 0 0 1 0.9803019,19.295463 1.5499974,1.5499974 0 0 1 0,20.692277 v 2.123385 A 1.5499974,1.5499974 0 0 1 0.9803019,24.254334 1.5499974,1.5499974 0 0 1 0,25.651148 v 2.123384 A 1.5499974,1.5499974 0 0 1 0.9803019,29.213204 1.5499974,1.5499974 0 0 1 0,30.610018 v 2.123385 A 1.5499974,1.5499974 0 0 1 0.9803019,34.172074 1.5499974,1.5499974 0 0 1 0,35.568888 v 2.123385 A 1.5499974,1.5499974 0 0 1 0.9803019,39.130945 1.5499974,1.5499974 0 0 1 0,40.527759 v 2.123384 a 1.5499974,1.5499974 0 0 1 0.7617106,0.648023 h 2.3011515 a 1.5499974,1.5499974 0 0 1 1.3265341,-0.759644 1.5499974,1.5499974 0 0 1 1.3317017,0.759644 h 2.3006347 a 1.5499974,1.5499974 0 0 1 1.326534,-0.759644 1.5499974,1.5499974 0 0 1 1.3317014,0.759644 h 2.300635 a 1.5499974,1.5499974 0 0 1 1.326534,-0.759644 1.5499974,1.5499974 0 0 1 1.331702,0.759644 h 2.300635 a 1.5499974,1.5499974 0 0 1 1.326534,-0.759644 1.5499974,1.5499974 0 0 1 1.331701,0.759644 h 2.300635 a 1.5499974,1.5499974 0 0 1 1.326534,-0.759644 1.5499974,1.5499974 0 0 1 1.331702,0.759644 h 2.300635 a 1.5499974,1.5499974 0 0 1 1.326534,-0.759644 1.5499974,1.5499974 0 0 1 1.331701,0.759644 h 2.300635 a 1.5499974,1.5499974 0 0 1 1.326534,-0.759644 1.5499974,1.5499974 0 0 1 1.331702,0.759644 h 2.300634 a 1.5499974,1.5499974 0 0 1 0.579293,-0.559139 v -2.25981 a 1.5499974,1.5499974 0 0 1 -0.802535,-1.349272 1.5499974,1.5499974 0 0 1 0.802535,-1.349789 v -2.25981 a 1.5499974,1.5499974 0 0 1 -0.802535,-1.349272 1.5499974,1.5499974 0 0 1 0.802535,-1.349788 v -2.25981 a 1.5499974,1.5499974 0 0 1 -0.802535,-1.349272 1.5499974,1.5499974 0 0 1 0.802535,-1.349788 v -2.259811 a 1.5499974,1.5499974 0 0 1 -0.802535,-1.349271 1.5499974,1.5499974 0 0 1 0.802535,-1.349789 v -2.25981 a 1.5499974,1.5499974 0 0 1 -0.802535,-1.349272 1.5499974,1.5499974 0 0 1 0.802535,-1.349788 v -2.259811 a 1.5499974,1.5499974 0 0 1 -0.802535,-1.349788 1.5499974,1.5499974 0 0 1 0.802535,-1.349272 v -2.25981 A 1.5499974,1.5499974 0 0 1 37.551713,9.3772055 1.5499974,1.5499974 0 0 1 38.354248,8.0279338 V 5.7681235 A 1.5499974,1.5499974 0 0 1 37.551713,4.418335 1.5499974,1.5499974 0 0 1 38.354248,3.0690634 V 0.809253 A 1.5499974,1.5499974 0 0 1 37.696407,0 h -2.10168 A 1.5499974,1.5499974 0 0 1 34.142619,1.0097576 1.5499974,1.5499974 0 0 1 32.737537,0 H 30.635856 A 1.5499974,1.5499974 0 0 1 29.183749,1.0097576 1.5499974,1.5499974 0 0 1 27.778666,0 h -2.10168 A 1.5499974,1.5499974 0 0 1 24.224878,1.0097576 1.5499974,1.5499974 0 0 1 22.819796,0 H 20.718115 A 1.5499974,1.5499974 0 0 1 19.266008,1.0097576 1.5499974,1.5499974 0 0 1 17.860925,0 h -2.10168 A 1.5499974,1.5499974 0 0 1 14.307137,1.0097576 1.5499974,1.5499974 0 0 1 12.902055,0 H 10.800374 A 1.5499974,1.5499974 0 0 1 9.3482666,1.0097576 1.5499974,1.5499974 0 0 1 7.9431844,0 H 5.841504 A 1.5499974,1.5499974 0 0 1 4.3893962,1.0097576 1.5499974,1.5499974 0 0 1 2.984314,0 Z M 2.686141,2.8685588 H 35.69808 V 40.680721 H 2.686141 Z" /></svg>
