<?xml version="1.0" encoding="UTF-8" standalone="no"?>
<!-- Generator: Adobe Illustrator 22.0.1, SVG Export Plug-In . SVG Version: 6.00 Build 0)  -->

<svg
   version="1.0"
   id="ÉåÉCÉÑÅ_x5B__x5F_1"
   x="0px"
   y="0px"
   viewBox="0 0 502 561.3"
   enable-background="new 0 0 502 561.3"
   xml:space="preserve"
   sodipodi:docname="pineapples.svg"
   inkscape:version="1.3 (0e150ed6c4, 2023-07-21)"
   xmlns:inkscape="http://www.inkscape.org/namespaces/inkscape"
   xmlns:sodipodi="http://sodipodi.sourceforge.net/DTD/sodipodi-0.dtd"
   xmlns:xlink="http://www.w3.org/1999/xlink"
   xmlns="http://www.w3.org/2000/svg"
   xmlns:svg="http://www.w3.org/2000/svg"><defs
   id="defs32"><inkscape:path-effect
     effect="offset"
     id="path-effect64"
     is_visible="true"
     lpeversion="1.2"
     linejoin_type="miter"
     unit="mm"
     offset="4"
     miter_limit="4"
     attempt_force_join="false"
     update_on_knot_move="true" /><inkscape:path-effect
     effect="offset"
     id="path-effect33"
     is_visible="true"
     lpeversion="1.2"
     linejoin_type="miter"
     unit="mm"
     offset="0"
     miter_limit="4"
     attempt_force_join="false"
     update_on_knot_move="true" /><inkscape:path-effect
     effect="offset"
     id="path-effect32"
     is_visible="true"
     lpeversion="1.2"
     linejoin_type="miter"
     unit="mm"
     offset="0.41519027"
     miter_limit="4"
     attempt_force_join="false"
     update_on_knot_move="true" /></defs><sodipodi:namedview
   id="namedview32"
   pagecolor="#ffffff"
   bordercolor="#666666"
   borderopacity="1.0"
   inkscape:showpageshadow="2"
   inkscape:pageopacity="0.0"
   inkscape:pagecheckerboard="0"
   inkscape:deskcolor="#d1d1d1"
   inkscape:zoom="1.0141118"
   inkscape:cx="187.35606"
   inkscape:cy="239.1255"
   inkscape:window-width="1904"
   inkscape:window-height="1006"
   inkscape:window-x="1928"
   inkscape:window-y="34"
   inkscape:window-maximized="1"
   inkscape:current-layer="ÉåÉCÉÑÅ_x5B__x5F_1" />&#10;<g
   id="g32"
   transform="matrix(0.83038054,0,0,0.83038054,40.917568,71.307722)"
   inkscape:path-effect="#path-effect32">&#10;	&#10;	<g
   id="g64"
   transform="translate(-8.76875e-4,-7.55625e-4)"
   inkscape:path-effect="#path-effect64"><g
     id="g48">&#10;		<g
   id="g47">&#10;			<defs
   id="defs33">&#10;				<path
   id="path33"
   d="M 142.8,152.8 C 21.2,188 60.7,339 96.4,371.8 160.2,430.4 255.5,406.8 285,325.7 301.5,280 266.8,127.9 142.8,152.8 Z" />&#10;			</defs>&#10;			&#10;			<clipPath
   id="clipPath34">&#10;				<use
   xlink:href="#SVGID_1_"
   overflow="visible"
   id="use34" />&#10;			</clipPath>&#10;			<g
   clip-path="url(#SVGID_2_)"
   id="g46">&#10;				<g
   id="g39">&#10;					&#10;					&#10;						&#10;					&#10;					&#10;					&#10;					&#10;				</g>&#10;				<g
   id="g45">&#10;					&#10;					&#10;						&#10;					&#10;						&#10;					&#10;						&#10;					&#10;						&#10;					&#10;						&#10;				</g>&#10;			</g>&#10;		</g>&#10;		&#10;	</g><g
     id="g63">&#10;		<g
   id="g62">&#10;			<defs
   id="defs48">&#10;				<path
   id="path48"
   d="M 362.9,213.7 C 243.9,170.8 187,316.1 196.6,363.6 213.8,448.5 304.8,485.5 376.3,437.2 416.5,410 477.9,266.6 362.9,213.7 Z" />&#10;			</defs>&#10;			&#10;			<clipPath
   id="clipPath49">&#10;				<use
   xlink:href="#SVGID_3_"
   overflow="visible"
   id="use49" />&#10;			</clipPath>&#10;			<g
   clip-path="url(#SVGID_4_)"
   id="g61">&#10;				<g
   id="g54">&#10;					&#10;						&#10;					&#10;						&#10;					&#10;						&#10;					&#10;					&#10;					&#10;						&#10;				</g>&#10;				<g
   id="g60">&#10;					&#10;					&#10;						&#10;					&#10;						&#10;					&#10;						&#10;					&#10;						&#10;					&#10;						&#10;				</g>&#10;			</g>&#10;		</g>&#10;		<path
   id="path62"
   d="m 465.86622,436.89759 -339.39999,41.19998 m 351.79943,-85.49994 -339.49999,41.20002 m 353.30001,-82.10001 -339.5,41.20001 m 338.80467,-82.20057 -339.5,41.29999 m 334.30002,-78.29999 -339.50001,41.29999 m 356.8,-83.59999 -339.5,41.3 m -3.41027,8.43396 213.09999,267.40002 m -190.79812,-307.69768 213.1,267.5 m -194.30002,-306.3 213.10001,267.50001 M 230.8601,173.33105 l 213.1,267.39999 M 260.45962,150.53046 473.65961,418.03047 m -195.79765,-309.79709 213.1,267.49999 m -133.74457,-102.99054 -250.30001,233 M 341.21245,229.64743 90.812442,462.54744 m 237.504948,-274.1046 -250.300006,233 M 303.71245,155.74743 53.312446,388.64744 M 277.71484,128.84521 27.414823,361.7452 M 266.91244,84.44743 16.512445,317.34742 m 2.12872,8.9242 329.700005,91 M 13.041165,280.57161 l 329.699995,91 M 5.4423889,238.17195 l 329.6000111,91 M 12.141165,197.77162 l 329.700005,91 M 22.741165,161.87163 l 329.700015,91 M 11.841165,117.47162 l 329.700015,91 M 176.24502,-44.32151 125.32314,-17.825416 C 96.633891,-2.8976741 84.842061,18.717734 80.31533,37.694115 59.950284,31.80104 33.554558,29.584938 5.580955,42.307396 L -44.194436,64.944115 8.3954081,79.92849 c 7.4688749,2.127788 13.7489779,4.15964 19.5683589,6.136719 -14.12483,8.14413 -26.9126454,21.555051 -34.3007807,43.396481 l -14.8554683,43.92188 37.378906,-16.99219 c -5.382387,15.41258 -5.889118,34.23499 2.554687,56.2168 l 15.38086,40.04297 9.197265,-16.46289 c -10.565848,59.20487 12.580081,125.69348 39.486328,150.41406 34.518336,31.70494 77.433086,42.89601 117.410156,35.68164 41.17636,58.44529 122.15032,75.59504 187.32617,31.57422 l 0.006,-0.004 0.01,-0.008 0.006,-0.004 c 29.14924,-19.72287 60.41997,-78.02686 61.23633,-136.14844 l 17.38476,-30.6875 c 11.62225,-20.51395 13.87919,-39.22966 10.79688,-55.28515 l 34.48046,22.33789 -8.18164,-45.60742 c -4.0743,-22.71121 -14.73762,-37.87802 -27.50781,-48.02539 6.04837,-1.10365 12.55988,-2.19391 20.23828,-3.19922 l 54.17578,-7.0918 -45.86132,-29.70117 c -16.85517,-10.91573 -34.01623,-15.44451 -49.76368,-16.53125 0.58602,-0.38352 1.10649,-0.86157 1.71289,-1.21289 L 506.05752,73.850365 449.14346,65.422631 C 417.13473,60.683693 394.87222,71.228143 380.04189,83.910912 367.04303,67.17851 346.99447,49.872329 316.82314,43.711693 L 263.3251,32.787865 296.97549,75.785912 c 4.79628,6.128716 8.69438,11.496187 12.24804,16.544922 -8.31868,-0.886463 -17.15004,-0.465143 -26.41015,2.048828 L 253.20986,65.996849 C 236.55125,50.023938 219.00911,44.015271 202.71572,43.30349 c 4.24952,-4.458294 8.88346,-9.179622 14.51758,-14.525391 l 39.57812,-37.5507809 -54.48047,2.90625 c -20.07926,1.0708942 -36.63233,7.5198749 -50.00585,15.9238279 0.23893,-0.6273611 0.37246,-1.2948511 0.64453,-1.9082029 z m 93.96679,143.314453 c -4.72973,2.193497 -9.5089,4.895347 -14.33007,8.312497 l -2.39844,1.69922 c -2.43966,-3.22603 -5.08697,-6.09659 -7.87305,-8.71289 z"
   inkscape:original-d="m 419,191.6 c 16.8,-10.5 64.5,20.4 64.5,20.4 -10.1,-56.3 -70.8,-50.1 -70.8,-50.1 11.2,-15.5 80.7,-24.6 80.7,-24.6 C 461.9,116.9 428.5,123.8 411,130 421,99.9 446.2,85.3 446.2,85.3 405,79.2 384.4,106.1 377.5,117.8 369.9,101.4 351,71.2 312.8,63.4 c 0,0 43.2,55.2 40.3,74.1 0,0 -38.9,-46.9 -85.6,-13.8 0,0 55.7,11.4 60.3,30.6 0,0 -63.7,-25 -81.1,40.2 0,0 44.3,-20.5 67.2,-11.6 0,0 -51.2,12.2 -42,62.7 0,0 29.8,-29.1 55.8,-28.8 0,0 -26.9,29.8 -18.7,53.7 0,0 29.4,-28 37.2,-31.1 3.4,7.6 4.7,48.2 4.7,48.2 22.6,-11.4 24.3,-51.4 24.3,-51.4 18.7,18 19.6,59.6 19.6,59.6 42,-29.5 14.1,-74.1 14.1,-74.1 22.6,9.8 39.8,55.4 39.8,55.4 C 481.9,218.5 419,191.6 419,191.6 Z M 463.89999,420.70001 124.5,461.89999 m 351.79999,-85.5 L 136.8,417.60001 M 490.10001,335.5 l -339.5,41.20001 M 489.39999,294.5 l -339.5,41.29999 M 484.20001,257.5 144.7,298.79999 M 501.5,215.2 162,256.5 m -14.2,34.79999 213.09999,267.40002 M 170.10001,251 l 213.1,267.5 M 188.89999,212.2 402,479.70001 M 218.10001,183.5 l 213.1,267.39999 M 247.7,160.7 460.89999,428.20001 M 265.10001,118.4 l 213.1,267.49999 M 362.9,213.7 C 243.9,170.8 187,316.1 196.6,363.6 213.8,448.5 304.8,485.5 376.3,437.2 416.5,410 477.9,266.6 362.9,213.7 Z M 175.1,101.9 c 7.4,-18.4 64.2,-21.4 64.2,-21.4 -41.3,-39.6 -86.7,1 -86.7,1 0,-19.1 50.8,-67.3 50.8,-67.3 -37.5,2 -60.4,27.3 -70.9,42.6 C 122.8,26.6 134.6,0 134.6,0 97.7,19.2 96.9,53.1 98.2,66.6 82.4,57.8 49.3,44.5 13.9,60.6 c 0,0 67.4,19.2 76.2,36.2 0,0 -59.1,-15 -77.4,39.1 0,0 51.7,-23.5 66.8,-10.7 0,0 -66.2,17.2 -42,80.2 0,0 23.8,-42.6 47.6,-48.9 0,0 -34.2,40 2.9,75.4 0,0 7,-41.1 28.2,-56.1 0,0 -4.2,39.9 16.4,54.5 0,0 7.3,-39.9 11.8,-47 7.2,4.2 32.2,36.2 32.2,36.2 C 188.2,197 166,163.6 166,163.6 c 25.7,3.5 50.9,36.7 50.9,36.7 16.6,-48.6 -32.2,-68.2 -32.2,-68.2 24.1,-5.4 64.8,21.4 64.8,21.4 -7.7,-66.9 -74.4,-51.6 -74.4,-51.6 z m 171.00001,158.89999 -250.300007,233 M 330.10001,217.7 79.699997,450.60001 M 317.20001,176.5 66.900002,409.5 M 292.60001,143.8 42.200001,376.70001 M 266.60001,116.9 16.299999,349.79999 M 255.8,72.5 5.4000001,305.39999 M 14.3,342 344,433 M 8.6999998,296.29999 l 329.6999902,91 M 1.1,253.89999 l 329.60001,91 M 7.8000002,213.5 337.5,304.5 M 18.4,177.60001 l 329.70001,91 M 7.5,133.2 l 329.70001,91 M 142.8,152.8 C 21.2,188 60.7,339 96.4,371.8 160.2,430.4 255.5,406.8 285,325.7 301.5,280 266.8,127.9 142.8,152.8 Z" />&#10;	</g></g><g
   id="g33"><g
     id="g16">&#10;		<g
   id="g15">&#10;			<defs
   id="defs1">&#10;				<path
   id="SVGID_1_"
   d="M 142.8,152.8 C 21.2,188 60.7,339 96.4,371.8 160.2,430.4 255.5,406.8 285,325.7 301.5,280 266.8,127.9 142.8,152.8 Z" />&#10;			</defs>&#10;			<use
   xlink:href="#SVGID_1_"
   overflow="visible"
   fill="#f8b500"
   id="use1" />&#10;			<clipPath
   id="SVGID_2_">&#10;				<use
   xlink:href="#SVGID_1_"
   overflow="visible"
   id="use2" />&#10;			</clipPath>&#10;			<g
   clip-path="url(#SVGID_2_)"
   id="g14">&#10;				<g
   id="g7">&#10;					<line
   fill="none"
   stroke="#e98029"
   stroke-width="8.0693"
   stroke-miterlimit="10"
   x1="7.5"
   y1="133.2"
   x2="337.20001"
   y2="224.2"
   id="line2"
   d="m 337.7028,222.37835 -329.7000092,-91" />&#10;					&#10;						<line
   fill="none"
   stroke="#e98029"
   stroke-width="8.0693"
   stroke-miterlimit="10"
   x1="18.4"
   y1="177.60001"
   x2="348.10001"
   y2="268.60001"
   id="line3"
   d="m 348.6028,266.77836 -329.70001,-91" />&#10;					<line
   fill="none"
   stroke="#e98029"
   stroke-width="8.0693"
   stroke-miterlimit="10"
   x1="7.8000002"
   y1="213.5"
   x2="337.5"
   y2="304.5"
   id="line4"
   d="m 338.00279,302.67835 -329.699999,-91" />&#10;					<line
   fill="none"
   stroke="#e98029"
   stroke-width="8.0693"
   stroke-miterlimit="10"
   x1="1.1"
   y1="253.89999"
   x2="330.70001"
   y2="344.89999"
   id="line5"
   d="m 331.20294,343.07838 -329.6000074,-91" />&#10;					<line
   fill="none"
   stroke="#e98029"
   stroke-width="8.0693"
   stroke-miterlimit="10"
   x1="8.6999998"
   y1="296.29999"
   x2="338.39999"
   y2="387.29999"
   id="line6"
   d="m 338.90278,385.47834 -329.6999893,-91" />&#10;					<line
   fill="none"
   stroke="#e98029"
   stroke-width="8.0693"
   stroke-miterlimit="10"
   x1="14.3"
   y1="342"
   x2="344"
   y2="433"
   id="line7"
   d="m 344.50279,431.17835 -329.699999,-91" />&#10;				</g>&#10;				<g
   id="g13">&#10;					<line
   fill="none"
   stroke="#e98029"
   stroke-width="8.0693"
   stroke-miterlimit="10"
   x1="255.8"
   y1="72.5"
   x2="5.4000001"
   y2="305.39999"
   id="line8"
   d="M 6.6870361,306.78374 257.08704,73.883743" />&#10;					&#10;						<line
   fill="none"
   stroke="#e98029"
   stroke-width="8.0693"
   stroke-miterlimit="10"
   x1="266.60001"
   y1="116.9"
   x2="16.299999"
   y2="349.79999"
   id="line9"
   d="M 17.587311,351.18347 267.88732,118.28349" />&#10;					&#10;						<line
   fill="none"
   stroke="#e98029"
   stroke-width="8.0693"
   stroke-miterlimit="10"
   x1="292.60001"
   y1="143.8"
   x2="42.200001"
   y2="376.70001"
   id="line10"
   d="M 43.487037,378.08376 293.88704,145.18375" />&#10;					&#10;						<line
   fill="none"
   stroke="#e98029"
   stroke-width="8.0693"
   stroke-miterlimit="10"
   x1="317.20001"
   y1="176.5"
   x2="66.900002"
   y2="409.5"
   id="line11"
   d="m 68.187609,410.88321 250.300011,-233" />&#10;					&#10;						<line
   fill="none"
   stroke="#e98029"
   stroke-width="8.0693"
   stroke-miterlimit="10"
   x1="330.10001"
   y1="217.7"
   x2="79.699997"
   y2="450.60001"
   id="line12"
   d="M 80.987033,451.98375 331.38704,219.08374" />&#10;					&#10;						<line
   fill="none"
   stroke="#e98029"
   stroke-width="8.0693"
   stroke-miterlimit="10"
   x1="346.10001"
   y1="260.79999"
   x2="95.800003"
   y2="493.79999"
   id="line13"
   d="m 97.087611,495.1832 250.299999,-233" />&#10;				</g>&#10;			</g>&#10;		</g>&#10;		<path
   fill="#369939"
   d="m 138.51562,-4.1679687 -4.78906,2.4921875 C 98.422879,16.693615 95.314578,47.910081 96.134766,63.417969 79.154966,54.575766 47.305695,43.329896 13.117188,58.878906 l -4.679688,2.128906 4.945313,1.410157 c 4.961826,1.413561 4.113077,1.200411 8.115234,2.457031 5.000678,1.570142 11.866827,3.816366 19.333984,6.525391 3.733045,1.354318 7.61405,2.82258 11.484375,4.378906 12.938297,5.202717 25.518714,11.262881 32.251953,17.285156 0.359883,0.321883 0.60048,0.621713 0.917969,0.935547 -4.367523,-0.644869 -8.65531,-0.884087 -10.201172,-0.939453 -9.006328,-0.322568 -20.923499,0.593763 -32.378906,5.623047 -5.744808,2.522146 -11.368277,6.073316 -16.449219,11.021486 -6.358036,6.19189 -11.797525,14.49992 -15.548828,25.58984 l -1.3964842,4.13086 3.9687502,-1.80469 c 3.048269,-1.38562 2.415384,-1.07441 5.029297,-2.14843 3.162391,-1.29939 7.594396,-3.03853 12.677734,-4.79688 2.540662,-0.87883 5.242309,-1.76113 8.025391,-2.5957 9.299613,-2.78869 19.391691,-5.00251 27.492187,-4.79492 3.167211,0.0812 5.849388,0.57261 8.089844,1.43359 -2.442098,0.87938 -4.695951,1.83165 -6.029297,2.42578 -5.946819,2.64988 -13.653002,6.86634 -20.605469,13.125 -14.031583,12.63133 -24.808149,33.56842 -12.423828,65.80859 l 1.445313,3.76563 1.96875,-3.52148 c 1.631502,-2.92033 2.260309,-3.85785 3.730468,-6.1836 2.391422,-3.78315 5.813937,-8.91315 9.939453,-14.31055 5.511865,-7.21115 12.192976,-14.79821 19.345704,-20.32812 2.521477,-1.9494 5.059024,-3.56918 7.595703,-4.85938 -6.017973,9.37237 -8.949219,19.78907 -8.949219,19.78907 -4.067786,14.99802 -3.250932,34.58089 15.882812,52.83789 l 2.570313,2.45312 0.597656,-3.5039 c 0.465023,-2.73062 0.732101,-3.73745 1.283203,-6.05274 0.894961,-3.7599 2.286252,-8.93695 4.271485,-14.61719 2.649252,-7.58016 6.329911,-15.97874 11.259761,-23.07421 2.19772,-3.16315 4.63135,-6.01698 7.30274,-8.4375 -0.51752,10.34281 0.93555,18.65234 0.93555,18.65234 0.43124,3.10425 1.04319,6.33239 1.89843,9.53711 1.06906,4.00589 2.52667,8.00076 4.50391,11.69336 2.47573,4.62354 5.78242,8.8004 10.18945,11.92383 l 2.41797,1.71484 0.5332,-2.91602 c 2.38607,-13.04025 1.55653,-8.31613 3.10352,-15.67382 0.45533,-2.16563 0.94464,-4.4331 1.45508,-6.71875 0.63813,-2.85742 1.31004,-5.74016 1.99219,-8.48633 0.37888,-1.52533 0.75983,-3.0059 1.14062,-4.41602 0.42324,-1.5673 0.84414,-3.04293 1.25781,-4.39062 0.4602,-1.49925 0.90487,-2.82153 1.33203,-3.93555 0.14128,-0.36843 0.24009,-0.49318 0.3711,-0.80078 0.25412,0.2097 0.3951,0.27174 0.68554,0.5293 0.89033,0.7895 1.89671,1.75717 2.9961,2.87304 0.98827,1.0031 2.04116,2.11514 3.14062,3.3086 0.98921,1.07376 2.0131,2.21182 3.05469,3.38867 1.87525,2.11877 3.80577,4.36361 5.69531,6.60156 1.51145,1.79014 2.99462,3.57388 4.40235,5.2832 4.79962,5.82791 1.84128,1.98521 10.02539,12.46094 l 1.8164,2.32422 1.35157,-2.62305 c 2.48105,-4.81238 3.49555,-10.04834 3.5625,-15.29492 0.0535,-4.19016 -0.49767,-8.40511 -1.39844,-12.45117 -0.72062,-3.23685 -1.66877,-6.38117 -2.7207,-9.33203 0,0 -2.56577,-8.0565 -7.79102,-16.95313 3.47925,0.91132 6.94976,2.31326 10.35352,4.09961 7.64429,4.01186 14.78468,9.7563 20.63476,15.25196 4.3838,4.1182 8.00826,8.06666 10.53906,10.98632 1.55919,1.79876 2.26008,2.56408 3.93555,4.77149 l 2.14649,2.82812 1.14843,-3.35937 c 8.56025,-25.06192 0.25353,-42.80594 -10.27539,-54.21875 0,0 -7.39665,-7.8682 -17.05273,-13.38672 2.85229,-0.0267 5.85646,0.23962 8.99609,0.80469 8.90611,1.60292 18.33325,5.24791 26.54492,9.09961 6.14622,2.88289 11.54228,5.85385 15.4043,8.10547 2.36624,1.37955 3.37567,1.93207 6.1543,3.76171 l 3.3789,2.22461 -0.46289,-4.01953 c -3.94092,-34.23996 -23.19841,-47.79328 -41.49414,-52.5 -7.25247,-1.865753 -14.33576,-2.354177 -20.19531,-2.271481 -1.43748,0.02029 -6.06276,0.162365 -10.66016,0.783203 1.58293,-1.809202 3.73444,-3.490502 6.50977,-5.033203 7.08017,-3.935601 17.05708,-6.639314 26.60156,-8.460938 2.85634,-0.54515 5.662,-1.008896 8.32422,-1.402344 5.32657,-0.787208 10.0668,-1.291054 13.47656,-1.597656 2.80306,-0.252047 2.1323,-0.238233 5.46094,-0.414062 l 4.35938,-0.230469 -3.1504,-3.019531 C 232.1443,71.020084 223.47418,66.152196 214.9707,63.587891 c -6.79545,-2.049235 -13.42431,-2.606946 -19.68359,-2.195313 -12.48124,0.820811 -23.46512,5.505471 -31.29492,9.949219 -1.32347,0.751126 -5.01363,2.950907 -8.58008,5.533203 0.13538,-0.41798 0.20888,-0.788591 0.37695,-1.232422 3.19722,-8.442953 11.54751,-19.627393 20.60547,-30.220703 2.70961,-3.168899 5.46777,-6.26466 8.14844,-9.191406 5.3621,-5.854327 10.40479,-11.023618 14.10742,-14.728516 2.96675,-2.968565 2.30645,-2.378943 6.05078,-5.93164 l 3.7207,-3.53125 -5.12304,0.273437 c -35.89173,1.914226 -58.51035,24.590773 -70.02539,40.253906 -3.56525,-13.364985 -3.059,-25.813259 -1.49805,-35.179687 0.40255,-2.415495 2.12548,-11.1535266 4.55078,-16.621094 z"
   id="path15"
   inkscape:original-d="m 175.1,101.9 c 7.4,-18.4 64.2,-21.4 64.2,-21.4 -41.3,-39.6 -86.7,1 -86.7,1 0,-19.1 50.8,-67.3 50.8,-67.3 -37.5,2 -60.4,27.3 -70.9,42.6 C 122.8,26.6 134.6,0 134.6,0 97.7,19.2 96.9,53.1 98.2,66.6 82.4,57.8 49.3,44.5 13.9,60.6 c 0,0 67.4,19.2 76.2,36.2 0,0 -59.1,-15 -77.4,39.1 0,0 51.7,-23.5 66.8,-10.7 0,0 -66.2,17.2 -42,80.2 0,0 23.8,-42.6 47.6,-48.9 0,0 -34.2,40 2.9,75.4 0,0 7,-41.1 28.2,-56.1 0,0 -4.2,39.9 16.4,54.5 0,0 7.3,-39.9 11.8,-47 7.2,4.2 32.2,36.2 32.2,36.2 C 188.2,197 166,163.6 166,163.6 c 25.7,3.5 50.9,36.7 50.9,36.7 16.6,-48.6 -32.2,-68.2 -32.2,-68.2 24.1,-5.4 64.8,21.4 64.8,21.4 -7.7,-66.9 -74.4,-51.6 -74.4,-51.6 z" />&#10;	</g><g
     id="g31">&#10;		<g
   id="g30">&#10;			<defs
   id="defs16">&#10;				<path
   id="SVGID_3_"
   d="M 362.9,213.7 C 243.9,170.8 187,316.1 196.6,363.6 213.8,448.5 304.8,485.5 376.3,437.2 416.5,410 477.9,266.6 362.9,213.7 Z" />&#10;			</defs>&#10;			<use
   xlink:href="#SVGID_3_"
   overflow="visible"
   fill="#ffdc00"
   id="use16" />&#10;			<clipPath
   id="SVGID_4_">&#10;				<use
   xlink:href="#SVGID_3_"
   overflow="visible"
   id="use17" />&#10;			</clipPath>&#10;			<g
   clip-path="url(#SVGID_4_)"
   id="g29">&#10;				<g
   id="g22">&#10;					&#10;						<line
   fill="none"
   stroke="#f1b028"
   stroke-width="8.0693"
   stroke-miterlimit="10"
   x1="265.10001"
   y1="118.4"
   x2="478.20001"
   y2="385.89999"
   id="line17"
   d="m 479.67809,384.7225 -213.1,-267.49999" />&#10;					&#10;						<line
   fill="none"
   stroke="#f1b028"
   stroke-width="8.0693"
   stroke-miterlimit="10"
   x1="247.7"
   y1="160.7"
   x2="460.89999"
   y2="428.20001"
   id="line18"
   d="M 462.3778,427.02218 249.17781,159.52217" />&#10;					&#10;						<line
   fill="none"
   stroke="#f1b028"
   stroke-width="8.0693"
   stroke-miterlimit="10"
   x1="218.10001"
   y1="183.5"
   x2="431.20001"
   y2="450.89999"
   id="line19"
   d="M 432.67788,449.72223 219.57787,182.32224" />&#10;					<line
   fill="none"
   stroke="#f1b028"
   stroke-width="8.0693"
   stroke-miterlimit="10"
   x1="188.89999"
   y1="212.2"
   x2="402"
   y2="479.70001"
   id="line20"
   d="M 403.47808,478.52252 190.37807,211.02251" />&#10;					<line
   fill="none"
   stroke="#f1b028"
   stroke-width="8.0693"
   stroke-miterlimit="10"
   x1="170.10001"
   y1="251"
   x2="383.20001"
   y2="518.5"
   id="line21"
   d="m 384.67809,517.32251 -213.1,-267.5" />&#10;					&#10;						<line
   fill="none"
   stroke="#f1b028"
   stroke-width="8.0693"
   stroke-miterlimit="10"
   x1="147.8"
   y1="291.29999"
   x2="360.89999"
   y2="558.70001"
   id="line22"
   d="M 362.37786,557.52225 149.27787,290.12223" />&#10;				</g>&#10;				<g
   id="g28">&#10;					<line
   fill="none"
   stroke="#f1b028"
   stroke-width="8.0693"
   stroke-miterlimit="10"
   x1="501.5"
   y1="215.2"
   x2="162"
   y2="256.5"
   id="line23"
   d="m 162.22821,258.37593 339.5,-41.3" />&#10;					&#10;						<line
   fill="none"
   stroke="#f1b028"
   stroke-width="8.0693"
   stroke-miterlimit="10"
   x1="484.20001"
   y1="257.5"
   x2="144.7"
   y2="298.79999"
   id="line24"
   d="M 144.9282,300.67592 484.42822,259.37593" />&#10;					&#10;						<line
   fill="none"
   stroke="#f1b028"
   stroke-width="8.0693"
   stroke-miterlimit="10"
   x1="489.39999"
   y1="294.5"
   x2="149.89999"
   y2="335.79999"
   id="line25"
   d="m 150.1282,337.67592 339.5,-41.29999" />&#10;					&#10;						<line
   fill="none"
   stroke="#f1b028"
   stroke-width="8.0693"
   stroke-miterlimit="10"
   x1="490.10001"
   y1="335.5"
   x2="150.60001"
   y2="376.70001"
   id="line26"
   d="m 150.82767,378.57601 339.5,-41.20001" />&#10;					&#10;						<line
   fill="none"
   stroke="#f1b028"
   stroke-width="8.0693"
   stroke-miterlimit="10"
   x1="476.29999"
   y1="376.39999"
   x2="136.8"
   y2="417.60001"
   id="line27"
   d="M 137.02767,419.47601 476.52765,378.27599" />&#10;					&#10;						<line
   fill="none"
   stroke="#f1b028"
   stroke-width="8.0693"
   stroke-miterlimit="10"
   x1="463.89999"
   y1="420.70001"
   x2="124.5"
   y2="461.89999"
   id="line28"
   d="M 124.72773,463.77599 464.12772,422.576" />&#10;				</g>&#10;			</g>&#10;		</g>&#10;		<path
   fill="#6cb92d"
   d="m 308.14844,60.521484 3.16406,4.042969 c 3.18094,4.064618 2.61829,3.391387 5.11523,6.763672 3.1194,4.212939 7.34976,10.071341 11.79297,16.65625 2.22129,3.291983 4.49375,6.76299 6.70703,10.298828 7.3989,11.820117 14.00329,24.122127 15.90039,32.947267 0.10106,0.47011 0.11971,0.85219 0.19141,1.29101 -3.15104,-3.0909 -6.48617,-5.81749 -7.68555,-6.75781 -7.08675,-5.55607 -17.25752,-11.81775 -29.48046,-14.47461 -6.12977,-1.3324 -12.76716,-1.75898 -19.79102,-0.73437 -8.78929,1.28213 -18.08443,4.8192 -27.65625,11.60351 l -3.55273,2.51953 4.26757,0.87305 c 3.2866,0.67275 2.5861,0.55178 5.33594,1.2207 3.32517,0.80889 7.937,2.00936 13.08594,3.57618 2.57345,0.78309 5.27852,1.65597 8.02148,2.61718 9.16554,3.21187 18.63083,7.35446 25.04883,12.2793 2.51122,1.92698 4.38436,3.89783 5.68164,5.9082 -2.50062,-0.72711 -4.89155,-1.28343 -6.32617,-1.58789 -6.37096,-1.35203 -15.08619,-2.47073 -24.39063,-1.49414 -18.77835,1.97097 -39.80052,12.57688 -48.70507,45.94336 l -1.03907,3.89453 3.65821,-1.69336 c 3.03956,-1.4065 4.09692,-1.79341 6.65429,-2.8125 4.15823,-1.657 9.94145,-3.79806 16.44922,-5.74218 8.69467,-2.59744 18.55257,-4.81161 27.57813,-5.08204 3.17516,-0.0951 6.17074,0.0841 8.9707,0.5293 -10.38114,4.03456 -18.87695,10.73242 -18.87695,10.73242 -12.11329,9.73463 -22.97105,26.05455 -18.22656,52.09766 l 0.63671,3.49609 2.54297,-2.48242 c 1.97702,-1.93057 2.78931,-2.59054 4.59375,-4.13672 2.9326,-2.51285 7.09891,-5.87919 12.04297,-9.30468 6.59775,-4.57126 14.51201,-9.20065 22.67578,-12.04493 3.63746,-1.26729 7.28666,-2.14607 10.87305,-2.53711 -6.493,8.04651 -10.20703,15.62696 -10.20703,15.62696 -1.47516,2.76373 -2.87572,5.73397 -4.06445,8.82812 -1.48592,3.86769 -2.6497,7.95349 -3.21094,12.10156 -0.70274,5.19392 -0.46546,10.51513 1.28906,15.62891 l 0.95703,2.78711 2.13281,-2.03125 c 9.61311,-9.15545 6.15193,-5.81077 11.74024,-10.86133 1.64311,-1.485 3.3727,-3.03228 5.13086,-4.58203 2.19796,-1.93742 4.43779,-3.87574 6.60547,-5.69726 1.20401,-1.01175 2.3839,-1.98691 3.52148,-2.9043 1.26439,-1.01965 2.47243,-1.96496 3.59961,-2.8125 1.25392,-0.94285 2.39239,-1.75183 3.39258,-2.40235 0.33288,-0.2165 0.48717,-0.25887 0.77539,-0.43164 0.0828,0.31798 0.16011,0.4495 0.24414,0.82813 0.25721,1.15889 0.50154,2.52911 0.73437,4.07617 0.20931,1.39066 0.40563,2.90886 0.5918,4.51953 0.1675,1.44913 0.3261,2.96949 0.47461,4.53321 0.26738,2.81528 0.50364,5.76456 0.71094,8.68554 0.16582,2.3365 0.31231,4.65278 0.4414,6.86328 0.43849,7.50797 0.32082,2.70688 0.7461,15.97657 l 0.0957,2.96093 2.64453,-1.33398 c 4.83303,-2.4379 8.72892,-6.07696 11.86719,-10.2793 2.50638,-3.35619 4.54059,-7.08818 6.19141,-10.88672 1.32065,-3.03882 2.40226,-6.13509 3.28711,-9.13672 0,0 2.66017,-8.02059 3.66992,-18.25 2.27447,2.7886 4.25578,5.96527 5.95703,9.41211 3.82282,7.74531 6.22383,16.58667 7.72851,24.46485 1.12755,5.90357 1.74279,11.22011 2.07618,15.06445 0.20544,2.36906 0.3229,3.40151 0.38281,6.16602 l 0.0762,3.54101 2.89844,-2.03515 c 21.65948,-15.21321 25.38556,-34.45034 23.5918,-49.87891 0,0 -1.35006,-10.71831 -5.90625,-20.86914 2.31369,1.65369 4.58065,3.63224 6.78125,5.93164 6.25134,6.53201 11.72927,15.02235 16.10742,22.96484 3.27695,5.94479 5.89706,11.51992 7.69922,15.61133 1.10718,2.51364 1.59372,3.53554 2.77148,6.6582 l 1.42383,3.7754 1.98828,-3.50977 c 16.99177,-29.99149 9.42124,-52.28258 -2.58594,-66.85742 -4.75963,-5.77745 -10.19413,-10.34195 -14.97656,-13.72461 -1.16872,-0.82665 -4.99305,-3.43763 -9.07227,-5.64258 2.34346,-0.53017 5.07234,-0.62582 8.22266,-0.24219 8.03986,0.97907 17.69666,4.6535 26.48633,8.78321 2.63045,1.23588 5.17235,2.50758 7.55664,3.75195 4.77047,2.48972 8.9001,4.86425 11.83789,6.61719 2.42754,1.44847 1.8485,1.04773 4.66016,2.86914 l 3.65625,2.36914 -0.76954,-4.28906 c -2.07027,-11.54027 -6.22274,-20.56966 -11.59765,-27.63868 -4.29529,-5.6491 -9.333,-9.99374 -14.64453,-13.33593 -10.59137,-6.66444 -22.24721,-9.32132 -31.20703,-10.32227 -1.53095,-0.17103 -5.80971,-0.56251 -10.22657,-0.56445 0.35694,-0.26081 0.63596,-0.51873 1.03516,-0.78125 7.54524,-4.96191 20.88099,-9.10498 34.44531,-12.34961 4.05762,-0.9706 8.11176,-1.85334 12.00391,-2.64453 7.78541,-1.58262 14.90988,-2.79639 20.08789,-3.61524 4.14619,-0.65567 3.27122,-0.56996 8.39062,-1.24023 l 5.09375,-0.66602 -4.3125,-2.79297 c -30.14292,-19.52113 -61.76307,-14.57166 -80.30078,-8.68554 5.01219,-12.8914 12.7645,-22.65951 19.54688,-29.318363 1.78542,-1.752901 8.25349,-7.751654 13.47265,-10.77539 l 4.68164,-2.710938 -5.35156,-0.792968 C 407.06029,77.595736 386.17131,100.97964 377.70312,114.01367 369.17787,96.887088 350.07082,69.081572 313.17969,61.548828 Z"
   id="path30"
   inkscape:original-d="m 419,191.6 c 16.8,-10.5 64.5,20.4 64.5,20.4 -10.1,-56.3 -70.8,-50.1 -70.8,-50.1 11.2,-15.5 80.7,-24.6 80.7,-24.6 C 461.9,116.9 428.5,123.8 411,130 421,99.9 446.2,85.3 446.2,85.3 405,79.2 384.4,106.1 377.5,117.8 369.9,101.4 351,71.2 312.8,63.4 c 0,0 43.2,55.2 40.3,74.1 0,0 -38.9,-46.9 -85.6,-13.8 0,0 55.7,11.4 60.3,30.6 0,0 -63.7,-25 -81.1,40.2 0,0 44.3,-20.5 67.2,-11.6 0,0 -51.2,12.2 -42,62.7 0,0 29.8,-29.1 55.8,-28.8 0,0 -26.9,29.8 -18.7,53.7 0,0 29.4,-28 37.2,-31.1 3.4,7.6 4.7,48.2 4.7,48.2 22.6,-11.4 24.3,-51.4 24.3,-51.4 18.7,18 19.6,59.6 19.6,59.6 42,-29.5 14.1,-74.1 14.1,-74.1 22.6,9.8 39.8,55.4 39.8,55.4 C 481.9,218.5 419,191.6 419,191.6 Z" />&#10;	</g></g>&#10;</g>&#10;</svg>
