<?xml version="1.0" encoding="UTF-8" standalone="no"?>
<svg
   id="Layer_2"
   data-name="Layer 2"
   viewBox="0 0 697.87 361.21"
   version="1.1"
   sodipodi:docname="pizza-dough.svg"
   inkscape:version="1.3 (0e150ed6c4, 2023-07-21)"
   xmlns:inkscape="http://www.inkscape.org/namespaces/inkscape"
   xmlns:sodipodi="http://sodipodi.sourceforge.net/DTD/sodipodi-0.dtd"
   xmlns="http://www.w3.org/2000/svg"
   xmlns:svg="http://www.w3.org/2000/svg"
   xmlns:rdf="http://www.w3.org/1999/02/22-rdf-syntax-ns#"
   xmlns:cc="http://creativecommons.org/ns#"
   xmlns:dc="http://purl.org/dc/elements/1.1/">
  <sodipodi:namedview
     id="namedview253"
     pagecolor="#ffffff"
     bordercolor="#666666"
     borderopacity="1.0"
     inkscape:showpageshadow="2"
     inkscape:pageopacity="0.0"
     inkscape:pagecheckerboard="0"
     inkscape:deskcolor="#d1d1d1"
     inkscape:zoom="0.63631201"
     inkscape:cx="265.59298"
     inkscape:cy="266.37875"
     inkscape:window-width="1904"
     inkscape:window-height="1006"
     inkscape:window-x="1928"
     inkscape:window-y="34"
     inkscape:window-maximized="1"
     inkscape:current-layer="Layer_2" />
  <defs
     id="defs1">
    <style
       id="style1">&#10;      .cls-1, .cls-10 {&#10;        fill: #161616;&#10;      }&#10;&#10;      .cls-2 {&#10;        fill: #ee8548;&#10;      }&#10;&#10;      .cls-3 {&#10;        fill: #eec547;&#10;      }&#10;&#10;      .cls-4 {&#10;        fill: #fad18e;&#10;      }&#10;&#10;      .cls-5 {&#10;        fill: #c77055;&#10;      }&#10;&#10;      .cls-6 {&#10;        fill: #555f7b;&#10;      }&#10;&#10;      .cls-7 {&#10;        fill: #485169;&#10;      }&#10;&#10;      .cls-8 {&#10;        fill: #fdbb21;&#10;      }&#10;&#10;      .cls-9 {&#10;        fill: #fefefe;&#10;      }&#10;&#10;      .cls-10 {&#10;        opacity: 0.47;&#10;      }&#10;    </style>
  </defs>
  <title
     id="title1">pizza_6</title>
  <ellipse
     style="fill:#f5bd7d;fill-rule:evenodd;stroke-width:0.0960649;-inkscape-stroke:none;fill-opacity:1"
     id="path253"
     cx="353.38004"
     cy="179.30595"
     rx="319.48666"
     ry="161.20595" />
  <path
     class="cls-4"
     d="M387.84,2.13l-6.36.09-1.37,0h-.36c-.93,0-1.87,0-2.8,0h-3.12c-2.48,0-5.35,0-8.1.07l-2.93.09h-.06l-.42,0-1.58,0-2.18.06-.89,0-1.81,0c-7.1.18-14.36.43-20.77.65h-.59l-.73,0-10.83.38c-1.28,0-2.59.13-3.81.2L317.74,4l-.49,0H317l-1.55.1-1.65.13-1.66.13c-.71.06-1.42.1-2.13.14l-.92.05c-.68,0-1.35.08-2,.11l-2.66.13L301.52,5h-.26c-1.64.08-3.33.17-5.17.28l-.84.06-1.65.1-1,.07-.21,0c-.59,0-1.18.07-1.77.13h-.13L287.11,6l-1.22.12-.2,0-.24,0-.21,0-.61.07c-1.64.17-3.28.37-4.92.56l-.61.07c-2.4.28-4.88.51-7.06.71h-.17l-3.62.34c-2.27.22-4.63.49-6.71.73l-.33,0-.36,0-.76.09-2.48.28-3.22.39-.39.05h-.07l-1.73.22-5.64.71-3.07.41-2.07.28c-2,.27-4,.52-6,.76l-1.28.15-.33,0c-1.18.13-2.43.28-3.66.45l-5.11.79-.56.1-.57.1-.12,0-.11,0-3.81.66-.29.06-2,.36-.73.13-1.53.27-.88.17-.18,0-.22,0-1.42.28-2.21.49-1.91.42-.83.18-.74.16-.76.17-3.05.66-1.44.31-1.09.24-1.79.4-3,.66-.58.12-.41.09c-1.2.24-2.73.56-4.19.89s-3,.68-4.82,1.13l-1.25.31-4.31,1c-1.72.41-3.25.8-4.69,1.17l-2.07.56c-1,.26-1.95.53-2.93.77l-1.78.45-.28.07-3,.76c-1.66.44-3.32.88-5,1.34l-.43.11-.09,0c-.28.07-.56.14-.83.23l-1.32.41-2.67.86c-1.92.62-3.82,1.3-5.26,1.81l-2,.72-1.06.37-1.4.5-.7.26-.18.07-.32.11-3.79,1.42-.74.28-1.43.55-.62.25-1.53.61-1.16.46c-1.41.55-2.82,1.11-4.22,1.68l-.85.34c-.58.22-1.15.45-1.71.7l-2.1.92c-2.77,1.26-6,2.72-9,4.19-1.19.57-2.59,1.27-4,2l-.68.36-3,1.63-1.34.76c-1,.54-2.19,1.22-3.36,1.85l-.52.28-3.85,2.07-1.93,1-.33.18-1.12.63-.47.27c-1.41.8-2.81,1.62-4.49,2.6-1,.55-1.88,1.12-2.82,1.7L88.06,61q-1.95,1.18-3.89,2.38c-1.59,1-3.08,2-3.82,2.44l-.64.42c-1.07.7-2.13,1.39-3.18,2.1l-.82.56c-1.06.71-2,1.36-3,2l-1.13.81-.28.21-.27.19-.27.19c-.63.46-1.27.92-1.89,1.39l-1.14.85-.18.13-.2.15-.23.17c-.65.49-1.3,1-1.94,1.47q-1.89,1.47-3.76,3l-.67.55L59.3,81.26l-2.44,2c-1,.82-2.48,2.07-3.88,3.37s-2.83,2.68-4.09,3.93l-.25.25c-1.09,1.08-2.33,2.3-3.4,3.55l-3.45,4-.33.38c-.52.6-1,1.19-1.53,1.79l-1.62,2c-1.24,1.54-2.38,3-3.48,4.45-.89,1.17-1.81,2.43-3,4.07L32,111l-.09.12h0l0,0c-.37.51-.72,1-1.07,1.54-.48.69-.94,1.38-1.39,2.07l-.13.21c-1,1.49-1.89,3-2.75,4.52l-.24.43c-.22.38-.44.76-.64,1.15l-.12.24-.43.83-.46.85-.84,1.58L23,126l-.16.29-.27.49c-.53,1-1.06,2-1.6,2.92s-1.07,1.94-1.6,2.92l-.26.48-.85,1.57-.48.88-.18.32-.07.14c-.51.92-1.05,1.91-1.55,2.88a83.92,83.92,0,0,0-3.83,8.42q-.45,1.25-.87,2.49L10.84,151l-.35,1c-.28.77-.55,1.55-.81,2.33l-.25.76c-.29.84-.72,2.11-1,3.3-.26.92-.52,1.85-.77,2.78l-.37,1.37c-.26,1-.52,1.9-.79,2.85L6.3,166c-.41,1.47-.84,3-1.23,4.5-.32,1.23-.66,2.57-.91,4-.18,1-.29,1.91-.41,3l0,.1,0,.41c-.1,1.33-.18,2.69-.26,4v.1l-.18,2.89-.12,1.61c-.06.75-.12,1.5-.17,2.26-.07,1.18-.16,2.28-.27,3.35-.14,1.62-.29,3.36-.35,5.16,0,.47,0,1,0,1.42v.2c0,.21,0,.41,0,.62v2.33c0,.57,0,1.14,0,1.71s0,1.05,0,1.58c0,.34,0,.69,0,1,0,.55,0,1.11,0,1.66,0,.84,0,1.75.11,2.64s.17,1.75.29,2.6.28,1.46.43,2.21c.22,1.12.42,2.11.63,3v.1l0,.09,0,.22,0,.14L4.24,221l.11.55c.16.79.3,1.45.45,2.1l.08.31,0,.11c.17.71.35,1.43.53,2.14s.49,1.72.83,2.7.61,1.77.93,2.65l0,.06c.25.69.54,1.38.79,2l.17.41c.13.28.25.56.38.83l.13.27c.05.12.11.24.17.36l0,.07,0,.09c.1.2.2.41.32.61l.07.13.28.5,0,.07,0,.07c.1.18.2.36.31.54l.06.09.1.18.28.43.07.1.06.1.09.14.05.07.15.23.3.47c.81,1.2,1.48,2.16,2.09,3,.24.34.48.67.73,1l.06.09.18.25.06.07.14.21.8,1.09.44.62.1.13c.39.54.78,1.08,1.16,1.64.59.86,1.19,1.73,1.8,2.58l.59.83c.46.66.92,1.31,1.39,2s1,1.29,1.41,1.8l.05.07,0,.05.11.14.06.07.45.53.08.1.1.12c.67.79,1.38,1.63,2.09,2.5,1.08,1.31,2,2.46,2.78,3.51l.09.12.13.17.58.78c.23.31.46.62.67.93l1.16,1.68c.72,1.05,1.53,2.05,2.31,3l.16.19.26.31,1.28,1.48.13.15.08.1c.54.62,1.08,1.24,1.61,1.87L37.6,274l.44.51c.3.35.6.72.89,1.08l.15.18.21.27c.76.91,1.37,1.64,1.94,2.28l2,2.22.2.21c.52.58,1.13,1.24,1.72,1.83l.31.31c.27.29.55.57.85.84l.42.38.12.11.45.41.15.13,2.73,2.37.62.54.09.08c.28.25.56.5.85.74l.46.39.62.52.92.76c.38.32.76.62,1.14.92.66.5,1.32,1,2,1.49l1.5,1c.32.2.66.39,1,.55l.31.17c.49.28,1,.55,1.48.81l.14.08c.5.26,1,.53,1.48.8,1,.56,2.12,1.19,3.27,1.85l2.91,1.72c1.67,1,3.4,1.92,5.07,2.82l.08.05.63.34.51.27.38.2.28.15.07,0c.77.41,1.56.83,2.33,1.27l.9.51.59.33,1.26.72.78.46.18.1c.55.32,1.1.64,1.65.94.85.46,1.8.94,3,1.5,1.8.85,3.71,1.58,5.39,2.23l.06,0,.56.22.34.13c2.61,1,4.65,1.8,6.71,2.63l3.38,1.38c.84.35,1.71.69,2.57,1l.55.22.88.31.1,0c.88.31,1.76.62,2.64.91l3.87,1.29,1,.32c.8.26,1.59.52,2.37.79l.42.15.08,0,1.38.5.33.12c.36.14.71.27,1.06.42.61.27,1.21.54,1.79.83l1.75.89c1,.5,2,1,3.31,1.65,1.72.83,3.56,1.64,5.81,2.54l.34.13,3.46,1.23c1.49.52,3,1,4,1.3l2.25.72,1.88.59,2.72.85c.41.13.83.24,1.25.36l.51.14c3.07.87,6.16,1.69,9,2.46l.5.13.3.08.07,0,.22.06,3.63.95c1.5.39,2.77.71,3.9,1,1.85.45,3.76.88,5.43,1.25l.32.07.35.07,2.48.54.15,0,.1,0,.15,0,1.72.37,3.2.7.77.16.6.13,1.15.26c1.58.34,3.15.69,4.72,1l2.41.54.12,0,.13,0,.08,0,.51.11,1.34.23,6,1.06,1.26.23,5.87,1c.84.15,1.72.28,2.43.38l.15,0,.19,0,1.1.17,5.76.88,6.2,1,3.6.56,3.61.55,4,.66.15,0,.44.07,2.16.39.5.1.92.18q.81.17,1.62.3c1.58.28,3.16.51,4.36.67l.59.08,1,.14,2.16.29,1.31.16,1.92.23c1.06.13,2.13.24,3.2.34l.26,0,1.32.13.42,0h.11c2,.17,4.1.35,6.19.5,2.65.2,5.3.37,8,.54l1.87.12c1.44.08,2.86.17,4.27.27l.35,0h.09c2,.14,4.26.3,6.41.52,2.46.25,4.91.5,7.37.73l1.85.18,1.85.18.5.05,1.87.2.26,0,.93.11L300,357h.12l1.85.21,1.85.2c2.19.24,4.39.46,6.61.68l2.76.2.38,0h.16l.18,0h.13c.42,0,.93.08,1.42.09l1.77.06h.3l3.06.08,4.59.07h.09l1.14,0,3.64.06h.52c1.62,0,3.33.05,5,.05H340q5.08,0,10.16.05h.16l1.39,0,.73,0h1l1.28,0,1.64-.05h.09l1.06,0,2.06-.06,2.31-.08h.09c1.94-.06,4.6-.16,7.07-.2l4-.07,6-.11c1.56,0,3.06-.08,4.46-.15l1.34-.08c1.07-.05,2.15-.11,3.22-.18l6-.41c.79-.05,1.58-.12,2.38-.2l.29,0,2.28-.2,2.18-.14.31,0c.89-.06,1.79-.11,2.68-.18,1.37-.1,2.88-.24,4.62-.41,3-.3,6.92-.68,11-1,1.82-.13,3.64-.27,5.46-.43l1.58-.13c1.31-.12,2.62-.23,3.93-.32,2.82-.2,5.63-.49,8.76-.81l2.27-.22c1.21-.12,2.42-.26,4.11-.47l1.11-.13c1.26-.16,2.53-.3,3.79-.44l1-.1.2,0c.83-.1,1.65-.19,2.47-.3l1.5-.19.83-.1,4.43-.59.71-.09c3.31-.44,6.93-1,9.33-1.43l.58-.1,1.26-.21.34-.06c1.36-.23,2.71-.47,4.06-.72l3.17-.6.74-.14h.06l1.47-.28,1-.19.06,0H484c.63-.13,1.27-.25,1.9-.36l1.25-.21,2.17-.38.86-.16.48-.09,1.51-.28.83-.16.23,0,1.43-.29.18,0c1.76-.37,3.64-.78,5.49-1.21l.18,0,2.23-.53,3.75-.88c1.28-.3,2.57-.58,3.86-.86l2-.44,1.22-.27,1.06-.24,1.06-.23,2.36-.53c2.44-.54,4.87-1.12,7.23-1.69l.31-.07,2.89-.69c2.72-.65,5.48-1.35,7.91-2l.1,0,1.88-.49q2.86-.71,5.73-1.46l.26-.07.11,0c1.22-.31,2.6-.67,3.9-1.07l3.53-1.05.55-.16.53-.15.23-.07.52-.16.16,0,4.74-1.42,3.45-1.08.24-.08,1.71-.54.84-.26.84-.26,3.09-1c2.91-.95,6-2,10.08-3.52l2.32-.83,2.49-.9c1.48-.55,3-1.14,4.65-1.81l4.89-2c1.37-.56,2.58-1.06,3.69-1.54,2.11-1,3.75-1.73,5.42-2.56l.51-.25,1.63-.82c.71-.37,1.41-.75,2.11-1.14l.87-.47.24-.13,1-.59.8-.43.09-.06,1.34-.74.67-.39c.6-.35,1.28-.75,1.94-1.09.9-.48,1.8-1,2.7-1.46s1.82-1,2.7-1.52c.52-.31,1-.64,1.53-1l.1-.06.43-.28c.85-.55,1.67-1.1,2.41-1.61l.12-.08.79-.53c.47-.31.93-.62,1.38-.95,2-1.48,3.74-2.79,5.28-4,.74-.59,1.5-1.17,2.26-1.75l.29-.23.15-.12.49-.37.86-.66.56-.48.29-.25.2-.17,1.05-.89,1.44-1.19,1-.85c.82-.69,1.67-1.36,2.51-2l.14-.11.32-.26,1.56-1.25,1.85-1.53c1.76-1.44,3.08-2.56,4.29-3.64.76-.68,1.52-1.34,2.29-2l.06,0,1.83-1.6c2.18-1.91,4.4-4,7-6.67l.25-.26.73-.75.21-.22c.85-.87,1.7-1.74,2.54-2.62,1.15-1.21,2.24-2.46,3.51-4s2.4-2.81,3.6-4.21l.09-.11c.89-1,1.77-2.15,2.63-3.35l.18-.26,1.49-2.16c.25-.34.49-.69.72-1l.1-.14.1-.15,0,0,.52-.76.09-.13c.5-.72,1.05-1.52,1.63-2.29l.42-.58c.44-.58.87-1.16,1.29-1.75l.11-.16.09-.12,1-1.43c.36-.51.7-1,1-1.57L684,241c.64-1,1.58-2.49,2.39-4,.33-.64.68-1.35,1-2.16l.2-.44.19-.42.07-.15.1-.22.31-.66c.61-1.35,1.06-2.42,1.44-3.44l.23-.66.09-.25.11-.33.3-.85c.26-.75.57-1.51.85-2.16.18-.45.37-.88.56-1.32l0-.07.16-.36.22-.52c.24-.55.45-1.11.64-1.63a19.58,19.58,0,0,0,.68-2.44c.13-.68.23-1.42.33-2.27s.21-1.53.33-2.34l0-.16c.11-.72.21-1.43.3-2.15,0-.36.06-.72.06-1.1v-.08l0-1.15,0-.32c0-.65-.07-1.28-.11-1.92-.07-1.19,0-2.4,0-3.57v-.38l0-.36v-.7l0-.72a31.94,31.94,0,0,1,.2-3.58c.08-.53.17-1.06.25-1.58l0-.16,0-.17v-.07l0-.11c.12-.76.27-1.64.36-2.47,0-.29,0-.61,0-.95a17.44,17.44,0,0,0-.09-1.84l0-.36c-.1-.85-.19-1.71-.3-2.56-.07-.35-.14-.7-.22-1s-.18-.75-.29-1.12c-.24-.84-.44-1.54-.62-2.29s-.3-1.28-.44-1.93l0-.22,0-.16c-.2-.88-.43-1.91-.69-2.91-.1-.37-.2-.74-.31-1.11-.15-.55-.3-1.09-.44-1.64s-.29-1.15-.44-1.72l-.17-.7c-.25-1-.48-1.74-.73-2.44s-.5-1.37-.76-2.05l-.17-.46q-.24-.62-.45-1.26c-.25-.73-.49-1.46-.73-2.22l0-.09c-.16-.5-.32-1-.49-1.5-.11-.34-.22-.67-.33-1s-.24-.71-.37-1.05-.19-.53-.29-.79l-.13-.32-.07-.19c-.16-.42-.33-.83-.5-1.24l-.07-.16,0-.08-.05-.11-.18-.45c-.37-.91-.74-1.82-1.09-2.74-.12-.31-.23-.63-.35-1l0-.11-.07-.21-.06-.16-.33-.9c-.27-.74-.54-1.49-.82-2.23s-.61-1.52-.9-2.21c-.67-1.47-1.34-2.82-2.05-4.12-.36-.67-.72-1.33-1.09-2l-.19-.34-1-1.86c-.58-1-1.15-2.09-1.7-3.15-.74-1.4-1.36-2.56-2-3.74l-.71-1.24-.2-.34c-.23-.41-.47-.81-.71-1.22l-.42-.72-.77-1.29c-.34-.56-.68-1.12-1-1.68l-.19-.31a30.63,30.63,0,0,0-1.82-2.62c-.25-.34-.51-.67-.8-1-.78-1-1.58-2-2.38-3l-.25-.31-.15-.17c-1.26-1.5-2.5-2.88-3.78-4.22l-1.63-1.68-.18-.18-.42-.42-.58-.6-.2-.22-.43-.44-.67-.71-.76-.81-.25-.27-.18-.2-.15-.16c-.53-.57-1.05-1.14-1.59-1.7-1-1.07-2.09-2.21-3.23-3.35l-2.09-2.08-.47-.47c-.46-.46-.87-.87-1.31-1.27l-.13-.11c-.6-.55-1.21-1.09-1.82-1.63L643,96.76c-1.33-1.13-2.65-2.28-4-3.43s-2.34-2.13-3.3-3.11q-1.83-1.89-3.68-3.76l-.29-.3,0,0c-.51-.51-1-1-1.42-1.48l-1.89-2.07c-2.12-2.31-4.31-4.52-6.74-7-.66-.66-1.3-1.3-1.92-2l-.28-.31-.3-.32-.15-.16-.14-.15-.72-.78c-1.17-1.26-2.32-2.48-3.43-3.63A42.38,42.38,0,0,0,611.28,65l-.17-.14-.14-.11c-.13-.12-.27-.23-.42-.35-.31-.26-.65-.53-1-.78l-1.44-1.08c-1.13-.76-2.46-1.65-3.83-2.51l-.63-.4-1.16-.71-.91-.54-.73-.43-1.53-.89-.6-.34-1-.62-.35-.21-.25-.15-1.37-.88-.09-.05-.14-.09-.71-.45c-.36-.23-.72-.46-1.09-.68l-.37-.23-1.18-.7-.78-.44-1-.61-.08,0-.08-.05-.28-.17-.51-.29-1.55-.88-.1-.05-.17-.11-.24-.13-1.17-.67-.82-.46-2.62-1.43-1.27-.69-.75-.41-.79-.43-.37-.2-.06,0-.21-.12L579,45.3l-.1-.06c-.4-.22-.8-.44-1.21-.65-.7-.37-1.4-.72-2.12-1.09l-.44-.22-1.37-.69c-.93-.48-1.88-.94-2.86-1.41l-.21-.1-.92-.45c-1.47-.71-2.82-1.37-4.12-2l0,0c-.66-.34-1.2-.61-1.77-.87l-.17-.07c-.56-.26-1.12-.51-1.67-.78-1.15-.58-2.38-1.25-3.19-1.7l-.62-.34-.34-.18-.3-.16-.85-.46-2.52-1.32-.94-.49-.08,0c-.79-.42-1.87-1-2.9-1.47-1.24-.58-2.52-1.11-3.94-1.68a.26.26,0,0,1-.17-.26v-.08a.33.33,0,0,1,.31-.28h0l.07,0,.13,0,.08,0,.07,0c1.3.47,2.78,1,4.17,1.65l2.49,1.17.13.07.27.13.35.17,1.11.53.57.28-.31-.16-.23-.12c-1.06-.56-2.12-1.1-3.25-1.64l-.11-.05-.08,0-.16-.07-.08,0c-.47-.23-1-.46-1.44-.66l-.55-.24L548.45,29c-2.47-1-4.64-1.9-6.61-2.69l-2.26-.89-1.4-.49c-1.28-.45-2.53-.89-3.79-1.3l-1-.35-.6-.19-1.43-.47-.93-.3-.2-.06-.19-.06-1.58-.5-.2-.06-.09,0c-1.56-.47-3.32-1-5-1.46-1.31-.34-2.63-.65-3.77-.92l-.1,0-.37-.09-1.51-.36-4.11-1-1.2-.28c-1.56-.35-3.13-.68-4.74-1l-.65-.14-1.15-.24-3.91-.81L498,14.54l-.46-.1-1.05-.22L496,14.1l-2.28-.49-.57-.12q-.94-.22-1.89-.42l-1-.19-.08,0-1.92-.38-1.48-.27L485.55,12l-4.83-.87q-2.7-.46-5.39-1L474.4,10l-.1,0-.11,0c-.73-.14-1.46-.28-2.19-.4l-2.21-.36-.54-.09c-1.49-.24-2.93-.44-4.41-.63l-1.11-.15-.3,0-.11,0h-.06c-1.22-.15-2.63-.34-4-.48l-1.84-.2L455,7.32l-1.11-.12c-1.52-.17-2.79-.31-4.07-.48l-.55-.07-.18,0-.28,0h-.07l-1.31-.18-2.53-.29c-2.25-.26-4.56-.48-6.79-.7l-.17,0-.28,0-.31,0L435,5.1l-.15,0c-1.46-.13-2.92-.28-4.38-.44h-.1l-.34,0-.2,0c-1.18-.11-2.36-.21-3.53-.29L425,4.19h-.07l-.23,0c-.79-.06-1.58-.12-2.38-.16L421.19,4l-.56,0c-.89,0-1.79-.08-2.69-.14-1.33-.08-2.66-.18-4-.28l-2.59-.19L409,3.15,406.62,3l-.35,0h-.16l-.16,0-4.35-.31-1.13-.08h-.31c-.71-.06-1.41-.11-2.11-.14l-.51,0h-.24c-1.4-.08-3.13-.17-4.79-.19l-2.75,0ZM311,310.18l-1.35,0h-.08l-2.59-.06c-3.36-.09-6.65-.19-9.91-.37h-.46l-4.94-.28-1.52-.07c-.9,0-1.79-.08-2.67-.14l-4.78-.33-.33,0h-.17c-.73-.05-1.47-.09-2.2-.12l-1,0-1-.05c-2.9-.13-6.18-.29-9.39-.59l-.48,0-.47,0-.49-.05c-1-.08-2.16-.2-3.33-.34l-1-.12-.43-.06h-.09l-3.12-.4c-3.16-.42-6.54-.87-9.84-1.25l-.3,0-.11,0c-1.47-.17-3.12-.36-4.73-.57l-.74-.09q-.78-.09-1.56-.21l-1.21-.19-1.21-.19-1.35-.21-.11,0-.28-.05-2.67-.41-1.46-.2-2.53-.35c-3.21-.42-6.43-.83-9.64-1.26l-.53-.07-.13,0c-.57-.07-1.13-.15-1.7-.24l-.78-.13-.78-.14-.32-.05h-.07l-.55-.1L216,301l-.17,0-.27-.06-.29-.06-2.95-.62L206.15,299l-.16,0-.26-.05c-1-.2-2-.39-3-.6l-.75-.14-1.9-.37-.62-.12-.16,0-.15,0c-.43-.08-.87-.16-1.3-.26l-.12,0-.13,0-1.5-.33-.31-.07c-.94-.21-1.89-.43-2.82-.67q-1.11-.27-2.22-.57l-.09,0-.31-.08-2.25-.57-.61-.14c-1.38-.34-2.78-.65-4.16-.95l-2-.42-.67-.14c-.48-.1-1-.22-1.44-.33l-.53-.13-.91-.22c-1-.23-2.07-.48-3.13-.76-.78-.2-1.57-.43-2.35-.65l-.19-.06-.25-.07-.79-.23-.72-.2-.91-.25-.52-.15c-1-.26-1.9-.53-2.84-.81l-.11,0c-1.18-.35-2.47-.78-3.93-1.31-.63-.24-1.22-.45-1.75-.66-.9-.34-1.64-.64-2.36-.93-2.47-1-5-2-7.46-3l-.11-.05-.1,0-.11,0c-2.52-1-5.38-2.11-8.19-3.29-1.38-.58-2.72-1.17-4.2-1.83l-.19-.09-.09,0c-1.18-.51-2.39-1.05-3.57-1.61-1.39-.65-2.77-1.32-4.15-2-.88-.43-1.81-.88-2.71-1.35l-1.08-.59c-1.47-.82-2.91-1.66-4.3-2.49l-.39-.23-.33-.2-.18-.11-1.59-.93c-.33-.2-.66-.38-1-.57l-.64-.35c-1.32-.74-2.62-1.43-3.72-2l-1-.51-.09,0L110.53,264c-.76-.43-1.51-.87-2.23-1.32-.55-.34-1.09-.69-1.61-1l-1-.68c-.91-.65-1.79-1.31-2.5-1.85l-.07-.05-1.23-.94-.31-.24-1.47-1.11-.69-.51c-1.12-.82-2.25-1.7-3.34-2.55-.75-.58-1.49-1.17-2.23-1.76-.36-.28-.7-.57-1-.86l-.6-.51c-1.15-1-2.29-1.88-3.44-2.81s-2.23-1.86-3.26-2.74l-.22-.19c-1.48-1.27-2.69-2.28-3.79-3.17l-1-.81-.07-.06-.08-.06,0,0-.83-.65c-.56-.46-1-.83-1.42-1.19-.58-.51-1.13-1-1.66-1.53l-.49-.46-.07-.07c-.33-.31-.65-.62-1-.94l-.74-.76-.24-.24-.24-.25-.42-.47-.42-.48-.74-.85-.46-.55-.19-.22-.2-.25c-.62-.74-1.24-1.54-1.86-2.34l-.63-.82c-1-1.27-1.8-2.33-2.53-3.46-.08-.11-.16-.23-.23-.35l-.26-.41,0-.07c-.62-1-1.25-2-1.78-3-.4-.78-.79-1.55-1.17-2.33-.25-.49-.53-1-.78-1.44l-.09-.16c-.22-.41-.46-.82-.7-1.22l-.61-1-.06-.1-.21-.36-.43-.72c-.26-.43-.5-.85-.74-1.26-.48-.85-.91-1.63-1.3-2.39-.72-1.37-1.34-2.6-1.89-3.77s-1.13-2.46-1.59-3.64c-.31-.79-.54-1.45-.71-2.05l0-.16a19.54,19.54,0,0,1-.51-2c-.29-1.53-.49-2.8-.62-4l0-.33c0-.32-.06-.63-.09-.94l0-.31-.06-.63c0-.31-.06-.62-.1-.93L52,190.34c-.13-1.47-.24-3-.33-4.35-.07-.91-.15-1.81-.23-2.72l-.09-1-.1-1.14v-.06a42.08,42.08,0,0,1-.26-6.93c0-.67.1-1.33.16-2l0-.27.15-1.81c.1-1.24.21-2.68.4-4.12a66,66,0,0,1,1.53-8.14c.14-.54.27-1.08.4-1.62l.06-.25c.16-.68.32-1.36.52-2.12.34-1.29.73-2.76,1.23-4.12l.05-.13,0-.13c.39-1,.8-2.13,1.27-3.17s1-2.21,1.62-3.37c.77-1.46,1.44-2.69,2.11-3.85l.09-.16.1-.18c.6-1,1.21-2.09,1.8-3.14q1.08-1.94,2.15-3.87c.68-1.21,1.41-2.4,2.11-3.51s1.47-2.25,2.26-3.4l.33-.48c.8-1.18,1.61-2.36,2.42-3.53s1.6-2.28,2.57-3.61c.65-.88,1.32-1.77,2-2.62l.42-.55.46-.6.12-.15.78-1,.13-.16c.5-.63,1-1.26,1.53-1.88l.43-.52,0,0c.74-.89,1.47-1.75,2.21-2.57,1.88-2.09,3.88-4.19,5.64-6l.07-.07.23-.24,0,0,.14-.15c1.65-1.73,4.11-4.32,6.6-6.87,2.06-2.11,4.31-4.29,6.89-6.67,1.07-1,2.24-2,3.27-2.83l.12-.1,1.35-1.15c.67-.57,1.33-1.13,2-1.67,2.22-1.82,4.6-3.75,7.09-5.5,2.24-1.57,4.9-3.4,7.6-5.08,1.28-.8,2.55-1.57,3.76-2.28l.55-.33.67-.4.34-.19c.52-.32,1-.63,1.56-.93,1.21-.72,2.44-1.41,3.67-2.11l.08,0,1-.6c.85-.48,1.7-1,2.57-1.44s1.79-.93,2.79-1.42l.11-.06.06,0,.8-.4c1.24-.62,2.48-1.22,3.73-1.81,1.43-.68,2.9-1.36,4.51-2.07,1.19-.53,2.43-1,3.63-1.47l.35-.15c2-.77,4-1.49,6.23-2.28l.08,0,2.59-.93.42-.15.24-.09c.54-.19,1.07-.39,1.61-.57l.8-.29.14-.05.08,0,1.37-.47c1.39-.45,2.78-.9,4.17-1.37,3-1,5.7-1.89,8.32-2.71s5.35-1.61,8.4-2.45l1.4-.41.26-.07c.83-.24,1.63-.48,2.44-.7l1.16-.3c1-.26,2-.51,3-.78l1.5-.4c.9-.24,1.81-.49,2.72-.72s1.66-.4,2.49-.59l1.78-.42c2.56-.62,5.6-1.35,8.64-2.06l1.42-.32,1.16-.27,1.5-.3.53-.11c1.27-.25,2.73-.52,4.61-.86l.92-.16L232,33.57l1.48-.28.19,0,.19,0c.72-.14,1.61-.31,2.46-.43l1.1-.16,3.47-.5,3.42-.57,1.6-.28,4.66-.76.59-.09.15,0,1.18-.19.58-.09,1.25-.21.15,0,.87-.15.2,0,1.55-.26c1.6-.24,3.19-.43,4.66-.61l2-.24.5-.06,3-.36,3.41-.38,1.61-.18,6.24-.7,2-.23c.9-.1,1.79-.19,2.69-.31,3.23-.4,6.4-.78,9.44-1.11l1.82-.19,2.85-.31c1.67-.19,3.35-.37,5-.54,6.28-.65,12.56-1.13,18.67-1.42,1.89-.08,3.53-.17,5.15-.28l3.06-.23,1.39-.11c1.51-.12,3.05-.2,4.68-.29h.08l.4,0,3.75-.19,2.2-.1h.08l2.27-.11c1.2-.05,2.46-.09,3.85-.11h1.29l2.48,0,2,0c.84,0,1.69.07,2.55.11h.1l1.61.08c3,.12,6.07.15,9,.18l4.29.05h.78l4.37,0h4.41l3,0H384l1.41,0h1.32c1.28,0,2.44,0,3.61.06h.52c.58,0,1.17.05,1.75.1l.69.06,1.08.09,2.19.17,1.95.17.45,0,3.48.26c1.34.09,2.71.15,4,.21h.16c1.46.07,3.16.15,4.8.27l1.2.1c1.12.09,2.23.18,3.35.25.88.06,1.78.08,2.65.1l1,0c.66,0,1.43.06,2.47.12l1.45.12,1,.09c1.24.1,2.36.2,3.44.31l.89.09.54,0,1.48.14.65.06,1.56.16.21,0c.48.05,1,.12,1.53.2s1.19.18,1.78.27l.52.08,1.24.18,2.57.36.26,0,.24,0,.28,0c2.32.3,4.64.62,6.95.94,1.41.2,2.83.39,4.24.56,1,.13,2.09.26,3.2.42l2.11.3.33.05.08,0h.08l.32,0,.16,0c1.43.19,3.2.44,4.86.72,2.95.51,5.94,1.09,8.57,1.6l.3.06c1.62.32,3.25.64,4.87,1,1,.21,2,.44,3,.67l1.33.3c1.3.29,2.66.63,3.76.91l.24.06c1.54.4,3.19.81,4.78,1.14l.8.17c1.19.25,2.55.54,3.87.89,1.08.3,2.25.67,3.68,1.17l1.43.5c.84.29,1.67.57,2.5.87l.37.13.56.2.13,0,1.14.4.77.28,1.38.49c1.51.52,3,1,4.45,1.42.58.18,1.22.38,2,.63a.61.61,0,0,1,.47-.24h.12c1.78.43,3.64.84,5.54,1.21l.69.14c.62.12,1.2.23,1.78.36.78.19,1.63.41,2.6.67,1.85.51,3.35,1,4.72,1.44l1.07.36,1.27.44,1,.35.4.14.8.28c.73.25,1.45.51,2.16.77l.65.23c.39.14.74.27,1.08.41L541,49.82l.93.38c1.31.55,2.63,1.14,3.91,1.72l.06,0,.06,0,.13.06,1.4.64.12.06.11,0,.23.1,1.74.79c1.34.58,2.68,1.2,4.23,1.93l1.08.53.29.15.59.28c.66.32,1.32.63,2,1l1.11.56.16.08.08,0,.83.42c.34.18.69.35,1,.54,1.12.59,2.23,1.2,3.34,1.82,1.58.88,3.2,1.75,4.78,2.6l.32.17,2.06,1.11c1,.53,2,1.11,3.49,2l.87.49c1.25.71,2.4,1.38,3.44,2q1.9,1.14,3.79,2.3l.33.2.13.07.09.06c1,.6,2,1.22,2.95,1.86,2.41,1.58,4.87,3.28,7.33,5l4,2.89,2.55,1.78.09.06.13.09.17.12c1.63,1.13,3.1,2.16,4.52,3.17l.07,0,.28.21.58.42.24.17.58.41.39.31q1,.78,1.92,1.59c.61.52,1.24,1.09,2,1.84l1,.92.1.09.54.52c2.81,2.67,5.62,5.36,8.41,8,3.23,3.1,6.39,6.15,9.38,9.06l.12.12c1.23,1.2,2.44,2.46,3.47,3.54,1.32,1.39,2.29,2.47,3.16,3.49l.43.52.23.27.06.07.36.44.19.22.32.38.33.4.07.08.21.25c.29.34.57.68.86,1l.08.09c.86,1,1.73,2.08,2.74,3.37l.38.49c.39.54.77,1.09,1.15,1.65s.79,1.16,1.17,1.74c.21.31.42.64.63,1l.23.37.24.38.26.4.05.07.27.43c.19.29.37.58.54.88l.25.43.19.32.17.29,0,.06.05.09.18.31,0,.07.36.63c.29.56.59,1.17.87,1.81.21.47.41.94.61,1.41.31.75.62,1.51.92,2.27.42,1.09.82,2.23,1.14,3.14l0,.12.3.87c.42,1.18.83,2.41,1.26,3.77q.33,1,.6,2.1l.09.37c.15.59.31,1.23.42,1.83.14.76.24,1.38.33,2s.13,1.15.19,1.73c.15,1.37.26,2.42.41,3.54v.13c.07.49.13,1,.18,1.48,0,.26,0,.51.06.78v.16l0,.3,0,.3c.1,1.23.21,2.36.34,3.47,0,.3.08.6.13.93V167c0,.26.07.53.1.79.08.64.13,1.19.17,1.67l0,.57a1.07,1.07,0,0,1,.25.35,1,1,0,0,1-.15,1v.23c0,.52.06,1.21.06,1.9a32.63,32.63,0,0,1-.23,3.34V177l0,.43a27.78,27.78,0,0,1-.4,3.14c-.13.61-.27,1.27-.45,1.91s-.32,1.12-.49,1.69l0,.08-.08.27c-.19.67-.41,1.39-.58,2.15s-.26,1.28-.35,1.79-.21,1.18-.34,1.72-.31,1.17-.52,1.85a51,51,0,0,1-3.27,8.43,76.4,76.4,0,0,1-3.88,6.79c-1.44,2.21-3.19,4.82-5.14,7.41-.82,1.1-1.72,2.21-2.51,3.19l-.07.09-.15.18c-.91,1.12-1.83,2.19-2.69,3.19l-1.71,2-1.19,1.39c-.92,1.07-1.91,2.14-3,3.28-2,2-4,4-6.08,5.93s-4.06,3.53-6.08,5.16l0,.06c-1.55,1.28-3,2.46-4.37,3.57l-.6.49-.06.05c-.58.49-1.16,1-1.73,1.4-.85.64-1.71,1.27-2.58,1.9l-.81.6-.13.1-.12.09-.13.09c-.4.3-.8.6-1.22.88l-1.47,1-.83.56c-.8.56-1.65,1.13-2.54,1.71l-.26.18c-.55.36-1.31.86-2,1.29-1.33.77-2.77,1.58-4.29,2.4-.44.23-.87.47-1.3.71l-.94.52c-.74.4-1.48.78-2.23,1.16-1.67.86-3.39,1.68-5.11,2.45s-3.5,1.66-5.28,2.56l-.41.21-.09.05c-.78.4-1.6.81-2.42,1.18L575,265.58l-.19.09-.19.08-1.06.47-2.81,1.21c-3.57,1.54-7.28,3.05-10.77,4.44l-3.67,1.48-.13.06c-2.53,1-5.4,2.19-8.19,3.23l-.33.12c-3.35,1.23-6.9,2.4-9.75,3.34l-.11,0-.08,0c-2.25.73-4.63,1.4-6.79,2l-.08,0-1,.29-.35.09-.28.08c-1.34.37-2.69.75-4,1.14s-2.56.76-3.84,1.15l-.67.21c-1.35.4-2.95.88-4.57,1.32-1.22.34-2.49.63-3.59.89l-.47.11c-1.19.28-2.39.58-3.44.86l-.09,0-.45.12-.86.22-3.15.82-1.49.41-.75.21-.12,0-.07,0c-1.95.54-4.37,1.21-6.69,1.76l-4.38,1-4.71,1.11-1,.24c-1.21.3-2.3.56-3.36.78l-2.16.43c-.39.08-.78.14-1.18.2H478l-.5.08c-.94.16-1.93.27-2.82.38h-.06l-.41.05-1.24.16h-.1c-1.28.17-2.56.34-3.83.53-1.65.28-3.44.56-5.45.86-.92.15-2.14.35-3.36.6l-2,.4-.25.05c-.46.09-.93.15-1.38.22h-.17l-.19,0-1.34.18-1.86.25-.88.12-.29,0-.31,0-1.7.21c-2.81.47-5.75,1-8.11,1.46l-.09,0-.64.12-.92.17-.75.13-.84.16-1,.2c-1.59.27-3,.48-4.25.64-.57.06-1.13.14-1.68.22l-.28,0-.37.05-.34.05-.51.08-.31,0-.61.08-4.39.6-.54.08-.54.08-1,.13-.77.12h-.09l-1.68.24-1.18.14-1.19.13c-.25,0-.49,0-.74.06l-.19,0-.39,0-.4,0c-1.83.07-3.77.19-5.33.29l-.27,0h-.24l-2.4.16h-.3c-1.25.08-2.66.17-4.06.3l-2.24.2-.6,0-1.27.1-2.66.13h-.1c-1.56.07-3.69.18-5.72.32-2.27.17-4.52.3-7.24.46l-.5,0-.72,0c-3.3.19-6.26.32-9.06.39l-2.92.06c-2.32.05-4.63.1-7,.17-2.7.08-5.51.27-8,.43h-.14l-1.87.13c-2.5.16-5.09.29-7.6.41l-.32,0-1.38.06c-1.43.07-2.88.11-4.17.15h-.32l-.43,0c-1.28,0-2.61.07-3.9.13l-.35,0h-.33l-.32,0-.5,0c-1.1,0-2.29.09-3.44.17l-1.42.1c-1.12.09-2.24.17-3.41.24l-1.49.1c-1,.06-2.22.14-3.39.19l-1,0c-1.16.05-2.41.09-3.69.11-1,0-2,0-3.06,0l-2,0Z"
     id="path12" />
  <path
     class="cls-1"
     d="M126.67,267.3a.48.48,0,0,0,0,.37.51.51,0,0,0,.24.28c.89.56,1.81,1.07,2.72,1.6l.5.25,1.39.67,2.25,1.08c.22.11.45.2.67.3.49.23,1,.45,1.48.66l2.77,1.25c.44.19.89.36,1.33.54l3.24,1.28,1.25.49.51.2,1.78.57,3.35,1.09,2.83.92.85.27,5.81,1.76,2.86.86.91.28,5.68,1.61,2.72.77.91.25,6.15,1.58c.44.11.88.24,1.32.34l2.4.55,3.35.76c.44.1.87.21,1.31.3,1.65.35,3.3.72,5,1.06l4.27.88c1.48.29,3,.58,4.45.76a.47.47,0,0,0,.55-.36.47.47,0,0,0-.37-.55c-1.8-.31-3.58-.68-5.37-1l-4.1-.86c-1.58-.34-3.16-.67-4.74-1l-6-1.36c-1.31-.3-2.61-.65-3.91-1l-3.31-.85c-.42-.11-.85-.2-1.27-.33L167,282c-1.26-.36-2.52-.7-3.78-1.07l-5.67-1.71-2.94-.89-1-.3-4.57-1.48-2.7-.87-.85-.27-.26-.09-5.08-2c-.41-.16-.83-.32-1.23-.5L136,271.5l-1.33-.59-.5-.23c-.79-.39-1.58-.76-2.38-1.14l-1.29-.62a4.74,4.74,0,0,1-.5-.26l-1.36-.78-.55-.31-.78-.48a.36.36,0,0,0-.2-.06.52.52,0,0,0-.45.27Z"
     id="path119" />
  <path
     class="cls-1"
     d="M160.22,275.64a.39.39,0,0,0-.13.2.32.32,0,0,0,0,.23.36.36,0,0,0,.19.13l2.14.67,0,0c.32.11.65.2,1,.29l2.16.64,2.2.65c.35.1.71.22,1.07.31,0,0-.06,0-.08,0l.34.1.78.2,2.46.63,3.92,1c.35.09.71.16,1.06.24l2.57.58c1,.23,2.06.47,3.09.68l2.55.49,1.31.26,2.35.44,1.65.29,1.17.18.85.13c.19,0,.38,0,.57.06l.42,0c.16,0,.33,0,.5,0a.33.33,0,0,0,.31-.36.34.34,0,0,0-.36-.32c-.2,0-.4,0-.61,0-.44,0-.88-.1-1.33-.16l-.76-.11-1.9-.32c-.73-.12-1.45-.26-2.17-.39l-1.21-.22-2.55-.49-1-.19-.26-.06-4.39-1-1.69-.37-.83-.21-5-1.28-1.69-.43.07,0c-.33-.11-.68-.2-1-.3l-2.16-.64-2.2-.64-1.07-.32.08,0c-.34-.12-.69-.22-1-.32l-1.18-.37h-.06a.34.34,0,0,0-.17.05Zm33.52,7.71h0Z"
     id="path120" />
  <path
     class="cls-1"
     d="M172.41,275.57a.62.62,0,0,0-.26.39.64.64,0,0,0,.09.45.65.65,0,0,0,.39.26c1.88.58,3.76,1.16,5.65,1.72l4.47,1.32c.34.1.7.17,1,.26l2.69.65,1.65.4c.16,0,.33.06.5.09l1.25.25c2.6.5,5.21,1,7.83,1.41l.79.11a.57.57,0,0,0,.22-1.11c-1.34-.19-2.67-.43-4-.69l-3.92-.76-2.33-.47c-.39-.07-.77-.18-1.15-.27l-2.71-.66-1.54-.38c-.42-.11-.84-.25-1.26-.37l-2.64-.78c-1.67-.5-3.33-1-5-1.5l-1.31-.41-.12,0a.65.65,0,0,0-.34.11Z"
     id="path121" />
  <path
     class="cls-1"
     d="M170.54,271.34a.45.45,0,0,0,.36.53l10.75,2.47,6.29,1.39c2.61.56,5.21,1.13,7.82,1.66a.45.45,0,0,0,.52-.35.44.44,0,0,0-.35-.52c-2.65-.55-5.3-1.14-8-1.72-2.1-.45-4.2-.92-6.29-1.39L171.08,271H171a.47.47,0,0,0-.45.37Z"
     id="path122" />
  <path
     class="cls-1"
     d="M231.11,312.84a.51.51,0,0,0,.43.57c1.6.26,3.2.52,4.81.76l1.32.19,2.91.41,2.54.36c.24,0,.48.07.73.09l4.68.6,5.07.64c.74.09,1.48.15,2.22.22l5.81.55c1.29.12,2.57.23,3.85.36.28,0,.57,0,.85.05l2.49.14,5.58.31.9.05,1.86.06,4.86.15h.53l1.65,0,2.33,0h2.73l2.11,0h-.12c.47,0,.94,0,1.4,0s1,0,1.53-.1a.41.41,0,0,0,.35-.46.42.42,0,0,0-.16-.27.41.41,0,0,0-.3-.08l-1.48.05h-1.22c-1.43,0-2.86,0-4.3-.05l-4.3-.07c-1.2,0-2.4-.07-3.6-.11l-2.85-.09-1,0c-3.14-.19-6.28-.35-9.42-.53l-.57,0-1.86-.17-5.89-.56-2.42-.23-.73-.07-.26,0-.29,0-.77-.1-2.55-.32c-2.7-.35-5.41-.67-8.1-1.05l-5.45-.76c-1.27-.18-2.54-.39-3.81-.59l-1.53-.24h-.07a.51.51,0,0,0-.49.44Zm60.22,4.64h0Zm.41,0h0Zm.79,0h0Z"
     id="path180" />
  <path
     class="cls-1"
     d="M245.25,318.37a.42.42,0,0,0,.36.47l2.7.44c.34.05.67.11,1,.15l1.66.22,5.19.67,1.29.17.21,0,.75,0,5.13.34,1.35.09h.3l1,0,4.43.13,1.46,0,2.47.06,3.21.06c1.22,0,2.45.05,3.67.06a.34.34,0,0,0,.28-.07.37.37,0,0,0,.15-.25.4.4,0,0,0-.08-.28.38.38,0,0,0-.25-.15c-2.54-.05-5.07-.12-7.61-.18-1.18,0-2.37-.05-3.55-.09l-4.82-.16c-.91,0-1.82-.11-2.74-.17l-4.84-.32c-.21,0-.41,0-.62-.06l-1.87-.24-5.14-.67-1-.13c-1.21-.16-2.4-.39-3.6-.58h-.06a.43.43,0,0,0-.41.37Z"
     id="path181" />
  <path
     class="cls-1"
     d="M251,323.27a.24.24,0,0,0-.09.15.24.24,0,0,0,.2.26l5.2.18,4.39.16,3.59.13,3.22.11,3.88.11,4.13.08c1,0,1.93,0,2.89,0a.2.2,0,0,0,.14-.08.18.18,0,0,0,0-.16.18.18,0,0,0-.08-.14.24.24,0,0,0-.16-.05h-.58c-1.27,0-2.55,0-3.82,0l-1.75,0-1.44,0-3.84-.12-4.49-.16-7.74-.27-3.52-.13h0a.23.23,0,0,0-.15,0Z"
     id="path182" />
  <path
     class="cls-1"
     d="M227.13,345.08a.42.42,0,0,0,.36.46c1.81.29,3.63.56,5.44.83l2.92.43,1.31.2c3.1.42,6.21.85,9.31,1.29l7.51,1c2.28.31,4.56.62,6.85.91l11,1.39,2,.25.7.09,2.88.26,11.44,1.07,1.61.15.43,0,3.45.17,11.25.56c.58,0,1.17.07,1.75.08l4.82.11,5.74.13,1.41,0h.73l9.91-.15h0l1.2,0,2.75-.06,4.86-.12,7.8-.19,3.74-.1c1.25,0,2.5-.07,3.74-.15a.36.36,0,0,0,.31-.41.38.38,0,0,0-.13-.24A.45.45,0,0,0,354,353c-1.28.05-2.57.07-3.86.08l-4,.05-7.33.13h.12l-1.3,0-3,.07-4.59.1h.13c-.55,0-1.1,0-1.64,0l-3.65.05-3.62.06-1.77,0-.79,0-2.31-.05-6.08-.13-2.31-.05c-.3,0-.59,0-.88,0l-2.81-.13-11.42-.56-1.58-.08-.42,0-3.5-.32-11.29-1c-.57-.05-1.13-.09-1.7-.16l-4.24-.53-10-1.25-2.24-.3-5.87-.78-7-.94-5.86-.8-2.54-.36c-3-.45-6-.89-9-1.36h-.06a.44.44,0,0,0-.41.37Z"
     id="path183" />
  <path
     class="cls-1"
     d="M278.43,347.25a.2.2,0,0,0,.18.23c1.05.12,2.11.25,3.16.33l2.2.17,5.74.43.79.07h.25l1.51.07,5.74.25,1.05,0,2.26.07,2.59.07,1.39,0,2.26,0c.32,0,.65,0,1,0,1.19,0,2.39,0,3.58,0H312l1,0,2.33,0,2.41,0,.84,0h.3l1.2,0,2.74-.05,2.79-.06,1.32,0H327l.88,0,2-.06,2-.06.71,0h.23l.56,0,1.24,0,1.29,0,.63,0h.33l.87,0,1.12,0c1,0,2-.08,3-.15a.22.22,0,0,0,.19-.26.24.24,0,0,0-.09-.15.2.2,0,0,0-.17,0c-1,.06-1.95.1-2.92.14l-2.35.08h.06l-.55,0-1.24,0-1.3,0-.63,0h.07l-.89,0-2,.07-2,.06-.71,0H327c-.39,0-.78,0-1.16,0l-2.74.05-2.79.07-1.32,0h-1l-2.33,0-2.41,0-.85,0h-.3l-1.77,0-2,0h-2l-1.46,0h-1.22l-1.29,0-2.82-.07c-1.1,0-2.19-.09-3.28-.13l-5.23-.22-.7,0-2.28-.17-5.69-.43-.86-.07-.78-.07-2.06-.23h0a.2.2,0,0,0-.21.18Zm48.58,1h0Zm0,0h0Zm-8,.18h0Z"
     id="path184" />
  <path
     class="cls-1"
     d="M334.19,342.06l-4.23.19-1.56.07-1.28.05c-.23,0-.45,0-.67,0h.09c-.28,0-.56,0-.83,0l-1.78.07-1.83.07-.91,0h.1l-1.14,0-2.49.09-4.34.14h-10l-.76,0-2.5-.12-2.64-.12-1.38-.07c-.77,0-1.54-.11-2.32-.17a.35.35,0,0,0-.38.3.34.34,0,0,0,.29.39c.91.06,1.82.14,2.73.18l2.16.11,4.69.22h10.05c.32,0,.63,0,.95,0l2.43-.08,4.5-.15h.07l.82,0,1.78-.07,1.83-.08.91,0h-.09l.59,0,1.28-.06,1.7-.07,4.26-.2a.33.33,0,0,0,.27-.37.3.3,0,0,0-.12-.21.31.31,0,0,0-.21-.07Zm-21,.81h0Zm0,0h0Zm0,0h0Zm-.54,0h0Zm-8.6,0h0Zm-.64.68h0Zm0,0h0Zm1,0h0Zm2.52,0h0Zm2.52,0h0Zm3.13,0h0Zm-9.05-.65h0Zm0,0h0Zm0,0h0Zm0,0h0Zm0,0h0Zm0,0h0Zm0,0h0Zm0,0h0Zm0,0h0Zm.57,0h0Zm0,0h0Zm1.5,0h0Zm.71,0h0Zm.44,0h0Zm.1,0h0Zm.67,0h0Zm.73,0h0Zm.68,0h0Zm.51,0h0Zm.15,0h0Zm.48,0h0Zm.05,0h0Zm.61,0h0Zm1.38,0h0Zm.71,0h0Z"
     id="path185" />
  <path
     class="cls-1"
     d="M550.49,284.35c-.64.31-1.27.6-1.93.86s-1,.44-1.58.64l-1.88.72-.53.19-1.23.45c-.45.17-.9.34-1.35.49l-1.87.65-2.89,1-4.52,1.53-2,.68L522,294.33c-.49.16-1,.33-1.47.46l-3.17.89-9.63,2.7-1.64.45-.51.15-15.85,3.65-1.79.41-.68.16-.49.08-1.37.25-4.43.8-9.53,1.72-1.24.22-.38.07-2.83.37-9.14,1.21-1.88.22-5,.57c-2.28.25-4.55.52-6.82.78l-1.87.22a.31.31,0,0,0-.27.33.3.3,0,0,0,.33.26l7.58-.87,4.56-.52,2.21-.25.76-.08,8-1.05,4-.52c.16,0,.32,0,.48-.06l.69-.13,16.51-2.95.25-.05h0l15.87-3.64,2.38-.54.34-.09,1.08-.3,9.3-2.6,3.89-1.08.82-.23.45-.14,8.65-2.77,1.82-.59,4.56-1.55,2.52-.87,2.41-.83,1.06-.37,2.43-.9,1.72-.66.87-.34,1-.4.75-.32.63-.28.86-.41a.32.32,0,0,0,.18-.4.33.33,0,0,0-.29-.19l-.11,0Z"
     id="path186" />
  <path
     class="cls-1"
     d="M537.06,298.24l-1.88.43-1.79.42h.07l-1.5.36-1.44.34h.05l-2.2.54-1.43.34-.72.18h-.06l-.1,0,.06,0-3.25.8-3.08.76h-.06l-.06,0h-.09l-4,1c-1.34.34-2.69.67-4,1h-.15l-.05,0h.1l-.07,0h0q-2.06.51-4.11,1.05L502,306.91l-.55.15h0l0,0h0l-1.14.3-2.42.62-5.67,1.45-2,.51h0l-3.42.76L481,312l-1.2.27-.49.11h0a2.17,2.17,0,0,0-.35.07l-.59.12-1.07.21-2.13.43a.27.27,0,0,0-.18.1.25.25,0,0,0-.06.2.28.28,0,0,0,.3.24l2.25-.44,1.07-.22.59-.12.24-.05h0l3.49-.78,5.65-1.25,1.2-.27.48-.1h0l.08,0h0l1.14-.3,2.41-.61,5.68-1.45,2-.51h.07l4.11-1,5.18-1.32.58-.15-.07,0,.09,0h0l.06,0h0l.07,0h0l4-1,4-1h0l0,0h.24l1.24-.3h-.07l2.91-.72,2.22-.54h0l.08,0h0l.1,0h0l.07,0-.06,0,2.27-.56,2-.49h0l1.44-.35,1.44-.35-.07,0c1.2-.29,2.4-.58,3.6-.85a.35.35,0,0,0,.17-.09.25.25,0,0,0,.05-.19.22.22,0,0,0-.09-.16.28.28,0,0,0-.15-.06Zm-10.7,3.09h-.07l.06,0h0Zm-.07,0h0Zm0,0h0Zm0,0h0Zm-6.67,1.1h0Zm.36.46h0Zm-.1,0Zm0,0Zm-8.42,1.58Zm.13.53h0Zm0,0h0Zm-10,2h0ZM490.17,310Zm0,0h0Zm-.06,0Zm.2.51h0Zm0,0h0Zm-.05,0Zm-10.93,1.87h0Zm22.26-4.77Zm0,0h0Zm-.2-.51h0Zm10.12-2Zm0,0h0Zm0,0Zm0,0h0Zm-.31-.48h0Zm.11,0h0Zm0,0h0Zm0,0h0Zm0,0h0Zm.09,0Zm8.15-1.52h0Zm.07,0h0Zm.15,0Zm-.2-.5Zm0,0h0Zm6.62-1.09Zm-.18-.5h0Zm0,0Zm0,0h0Zm.05,0h0Zm0,0h0Zm4.44-.55h0Zm0,0h0Zm.06,0h-.05l.06,0Zm-.17-.48h0Z"
     id="path187" />
  <path
     class="cls-1"
     d="M532.7,304.08l-7.88,2.35c-2.61.78-5.21,1.57-7.82,2.34l-6.68,2-3.48,1-1.15.35-.33.09-.11,0h0l-.08,0,.06,0-1.15.3-2.07.53-5.31,1.36-2.76.71-1.54.4.05,0-.13,0h0l-.43.11-.66.15-1.31.29-2.52.57a.24.24,0,0,0-.13.07.19.19,0,0,0,0,.15.17.17,0,0,0,.07.13.21.21,0,0,0,.15.05l2.62-.59,1.31-.3.66-.15.33-.08h.05l.08,0,0,0,1.15-.3,2.07-.53,5.3-1.36,2.77-.71,1.54-.4h-.05l.13,0h0l.23-.07.57-.17,2-.59,5.2-1.55,6.57-2,3.07-.92,2.25-.68,1.93-.58,2.66-.8,3-.9a.19.19,0,0,0,.1-.25.16.16,0,0,0-.1-.1l-.07,0-.07,0Zm-27.41,8.17Zm0,0h0Zm.11.39h0Zm-13.06,2.94h0Zm0,0h0Zm13.07-2.95Zm-.12-.38Z"
     id="path188" />
  <path
     class="cls-1"
     d="M554.47,313.61c-.3.14-.59.28-.89.4l-.5.2-.78.32-1.07.41-.68.26-2.11.75-1.26.43-3.31,1.11L539.29,319c-.81.27-1.62.51-2.43.76l-5.08,1.58-1.58.49h0l-.8.23-1.94.56-5.23,1.51-2.52.73-.79.23-.33.09h.06c-.34.08-.68.18-1,.27l-2.15.57-5.2,1.37-1.36.36-.59.16-.27.07-.43.11-1,.25-1.95.5c-.07,0-.13.09-.16.15a.29.29,0,0,0,0,.24.31.31,0,0,0,.16.16.31.31,0,0,0,.23,0c1.18-.3,2.35-.59,3.52-.9h.06c.32-.07.63-.16.95-.25l2.15-.57,5.2-1.37,1.36-.36.58-.16h0l.81-.23,1.94-.56,5.23-1.51,2.52-.73.79-.23c.1,0,.21-.05.31-.09l.25-.07.66-.21,2.21-.69,4.86-1.51c.79-.24,1.57-.5,2.35-.75l4-1.32,3.58-1.2.62-.22,1.27-.46,1.58-.59,1-.41.82-.34,1.07-.47a.29.29,0,0,0,.16-.37.3.3,0,0,0-.27-.19l-.11,0Zm-24.22,8.19Zm-11.65,3.37Zm.12.59h0Z"
     id="path189" />
  <path
     class="cls-1"
     d="M511.56,334.66a1.13,1.13,0,0,0-.25.83,1.19,1.19,0,0,0,.42.76,1.25,1.25,0,0,0,.83.24,1.13,1.13,0,0,0,1-1.25,1.13,1.13,0,0,0-.41-.76,1.26,1.26,0,0,0-.84-.24,1.08,1.08,0,0,0-.75.42Z"
     id="path190" />
  <path
     class="cls-1"
     d="M375.3,16.68l-5.38.17-2.84.11c-2.54.1-5.07.21-7.61.3l-9.91.36-2.11.06-5.59.13c-2.52.06-5,.14-7.55.21l-3.25.1-4.84.21-1.29.07-2.6.16-1.69.11-1.83.13c-1.1.08-2.2.17-3.29.28a.27.27,0,0,0-.26.28.28.28,0,0,0,.28.26c1.4-.13,2.79-.22,4.19-.31l4.18-.23L326,19l1.55-.06,3.9-.15c1.58-.05,3.16-.08,4.75-.12l2.92-.08c3.17-.08,6.34-.14,9.5-.23l2.05-.06,5.53-.2c2.32-.08,4.65-.16,7-.26l5.26-.21,3.28-.11,3.58-.12a.35.35,0,0,0,.33-.36.35.35,0,0,0-.35-.33Z"
     id="path191" />
  <path
     class="cls-1"
     d="M366.57,13.09l-2.83.06-2.31,0-2.67,0-1.25,0-1,0-2.39,0-5,.06-2.07.05-5.26.13c-2.46.06-4.93.15-7.4.23s-4.63.16-7,.22l-1.29,0L325,14h-2.81a.24.24,0,0,0-.22.23.25.25,0,0,0,.24.22c.73,0,1.45,0,2.18,0l1.8,0c1.22,0,2.44-.05,3.65-.09l3.54-.11,4.85-.15c2.51-.08,5-.14,7.54-.21l2.06-.05h.6l4.19,0L360,13.7l3.3,0,3.3-.07a.24.24,0,0,0,.23-.26.23.23,0,0,0-.24-.23Z"
     id="path192" />
  <path
     class="cls-1"
     d="M364.08,9.24l-3.49,0-1.57,0-5.32.09-2.11,0-.7,0-3.48.11c-2.47.07-4.93.15-7.4.24l-7.73.3-7.74.32-5.11.23a.29.29,0,0,0,0,.57l8.19-.34,6.52-.26,7.23-.27,9.26-.3,2.11,0,5.34-.09,2.33,0c1.22,0,2.45,0,3.68,0a.3.3,0,0,0,.28-.31.29.29,0,0,0-.31-.28Z"
     id="path193" />
  <path
     class="cls-1"
     d="M475.41,29.5a.4.4,0,0,0,.3.48c1.6.35,3.22.63,4.83.93l2,.34,1.66.29,4.19.68,5.36.83c1.1.17,2.19.37,3.29.56l5.28.89.72.14,2.31.48,5.89,1.21.87.18.35.07a1.43,1.43,0,0,1,.28.07l.82.19,5.81,1.38,2.45.59c.26.06.53.11.79.19l4.72,1.38,2.77.8c.36.11.74.2,1.1.32l4.64,1.58,5.36,1.85a.5.5,0,0,0,.41-.07.53.53,0,0,0,.23-.33.52.52,0,0,0-.08-.4.57.57,0,0,0-.32-.23c-2-.69-3.93-1.37-5.9-2l-2.91-1-.94-.32-.28-.1L527,39.18l-2.86-.84L522.76,38l-.27-.07-.8-.19L519,37.06l-5.61-1.34-.81-.19L511,35.21l-6-1.22c-.91-.19-1.83-.4-2.75-.55l-5.59-.94c-1-.18-2.08-.35-3.13-.51l-5.18-.78c-2.73-.42-5.45-.82-8.17-1.26-1.45-.24-2.9-.47-4.34-.75h-.08a.4.4,0,0,0-.4.3Z"
     id="path194" />
  <path
     class="cls-1"
     d="M481.48,25.6a.36.36,0,0,0,.11.24.42.42,0,0,0,.25.09l.78.05h0l1.11.11h0c.57.07,1.15.14,1.72.19l3.46.43,2.55.33,1,.16c1.54.23,3.07.49,4.61.72.27,0,.54.1.81.15l2.33.43,4.76.89q1.05.2,2.1.42c3,.6,5.93,1.19,8.89,1.8l7.82,1.61,2.25.47,1.09.22c.25.05.49.12.73.18l2.17.55,4.76,1.19,1.35.33c1,.27,2.09.59,3.12.89a.41.41,0,0,0,.49-.31.42.42,0,0,0-.31-.49c-1.06-.3-2.11-.62-3.18-.89l-1.68-.43-5.26-1.31-1.74-.44-.49-.11-4.09-.84-7.12-1.47-9.33-1.88-1.95-.38-5.16-.95-1.87-.35-.82-.13-4.68-.71-1.05-.14-2.39-.29-1.21-.15-1.25-.14-.68-.07h.1c-1.28-.14-2.56-.26-3.84-.34h0a.34.34,0,0,0-.31.36Zm1.06.37h0Zm1.18.12h0Zm1.79.19h0Z"
     id="path195" />
  <path
     class="cls-1"
     d="M485.43,22.28a.32.32,0,0,0,.24.39l7.64,1.23c2.74.44,5.49.87,8.23,1.32l.84.13,1.37.25,5.2.91,2.1.37c.23,0,.46.07.68.12l3.52.7,5.13,1,1.3.26c.23,0,.46.1.68.15,3.13.7,6.26,1.4,9.39,2.13l1.53.36a.32.32,0,0,0,.39-.25.33.33,0,0,0-.25-.4c-1.78-.41-3.55-.83-5.33-1.23L523,28.59l-.79-.17a1.55,1.55,0,0,0-.31-.07l-.86-.18-4.88-1-4.1-.82c-.76-.15-1.52-.27-2.27-.4L504.52,25c-.79-.14-1.58-.29-2.38-.41l-7.91-1.27-7.55-1.19-.87-.14h-.06a.31.31,0,0,0-.32.25Z"
     id="path196" />
  <path
     class="cls-1"
     d="M476.14,16.64a.45.45,0,0,0-.21.29.47.47,0,0,0,.07.36.43.43,0,0,0,.29.2c2.74.36,5.48.79,8.22,1.2l6.35,1L500,21.1l1.54.27,4.4.79c2.85.51,5.71,1,8.57,1.55a3.2,3.2,0,0,1,.42.1l1.62.4,5.16,1.3,3.36.84.69.17c.39.1.78.23,1.17.34l2.08.65a.46.46,0,0,0,.54-.34.46.46,0,0,0-.34-.54l-2.6-.8-.75-.21-1.33-.33-5-1.26L515.23,23c-.16,0-.33-.09-.5-.12l-1-.18-9.87-1.79-3-.54-.55-.09-1.93-.3-5.32-.85-2.5-.4-7.92-1.22c-2.06-.31-4.11-.62-6.17-.9h-.11a.39.39,0,0,0-.25.08Z"
     id="path197" />
  <path
     class="cls-1"
     d="M348.6,21.35c-1.48,0-3,0-4.45.11s-3,.16-4.55.22l-4.15.21c-1.59.09-3.18.18-4.76.3l-4.45.34c-1.72.11-3.43.2-5.15.28q-9.34.45-18.67,1.42-2.52.25-5,.54c-1.55.18-3.11.33-4.66.5q-4.73.51-9.44,1.12c-1.57.19-3.14.34-4.71.53-2.07.24-4.14.48-6.22.7l-5,.56c-1.85.21-3.69.44-5.53.66-1.56.19-3.11.38-4.66.61l-2.63.44-3.12.51c-1.81.29-3.62.58-5.43.89s-3.34.57-5,.84c-1.52.23-3,.44-4.58.66s-2.88.52-4.31.78l-9.24,1.64c-1.54.27-3.07.56-4.61.86-.67.14-1.35.26-2,.42l-2.58.59c-2.89.66-5.77,1.35-8.64,2.05-1.42.35-2.85.65-4.27,1s-2.81.75-4.22,1.12l-4.12,1.09c-1.37.36-2.73.78-4.1,1.17-2.81.78-5.61,1.59-8.4,2.46s-5.56,1.77-8.32,2.7l-4.17,1.37c-.8.26-1.59.56-2.39.84s-1.52.54-2.27.81c-3,1.07-6,2.09-8.9,3.24-1.33.52-2.67,1-4,1.62q-2.26,1-4.5,2.06l-3.73,1.81c-1.26.63-2.53,1.24-3.76,1.91s-2.41,1.35-3.61,2-2.51,1.42-3.76,2.15l-3.11,1.85c-1.27.74-2.52,1.5-3.77,2.27C121,72.27,118.44,74,116,75.74s-4.78,3.6-7.09,5.5c-1.12.92-2.22,1.88-3.34,2.82S103.23,86,102.13,87c-2.35,2.17-4.66,4.38-6.89,6.67s-4.54,4.7-6.79,7.07c-2,2.1-4,4.2-5.94,6.36-.93,1-1.8,2.09-2.69,3.14-.51.62-1,1.25-1.53,1.88s-1,1.29-1.49,1.94c-.8,1-1.61,2.09-2.39,3.16s-1.73,2.4-2.57,3.61l-2.42,3.52c-.88,1.29-1.76,2.57-2.59,3.89-.73,1.15-1.45,2.32-2.11,3.51s-1.43,2.58-2.15,3.86-1.33,2.33-2,3.48-1.43,2.56-2.11,3.86c-.59,1.1-1.11,2.23-1.63,3.37s-.93,2.28-1.36,3.44a43,43,0,0,0-1.25,4.19c-.34,1.3-.63,2.61-1,3.91A64.47,64.47,0,0,0,51.74,166c-.18,1.36-.29,2.74-.4,4.11s-.25,2.72-.34,4.09a51.42,51.42,0,0,0,.37,8.13c.11,1.23.23,2.45.32,3.67.1,1.45.2,2.9.33,4.35.07.71.15,1.41.22,2.11s.11,1.25.18,1.88c.14,1.46.37,2.91.65,4.35.13.74.35,1.47.55,2.19a20.85,20.85,0,0,0,.71,2.06c.48,1.23,1,2.45,1.59,3.64s1.24,2.53,1.89,3.77,1.33,2.45,2,3.65,1.37,2.26,2,3.42c.3.53.6,1.06.87,1.6.38.78.77,1.56,1.16,2.33.62,1.21,1.36,2.36,2.09,3.51.83,1.33,1.8,2.57,2.76,3.82.82,1.05,1.63,2.12,2.49,3.15.52.62,1,1.25,1.59,1.87l.84.95.48.5.74.76c.49.5,1,1,1.52,1.46s1.1,1,1.66,1.53c1.11,1,2.3,1.87,3.45,2.81s2.53,2.1,3.79,3.17,2.3,2,3.48,2.93,2.29,1.86,3.42,2.8c.55.46,1.09.93,1.66,1.38.74.59,1.48,1.18,2.23,1.76,1.1.86,2.2,1.72,3.33,2.55s2.48,1.87,3.71,2.8,2.34,1.77,3.56,2.58,2.53,1.62,3.84,2.36c1.09.61,2.2,1.17,3.31,1.76,1.46.77,2.92,1.55,4.36,2.36,1.17.66,2.32,1.35,3.48,2q2.13,1.28,4.3,2.49c1.24.7,2.51,1.32,3.79,1.94s2.76,1.34,4.15,2,2.56,1.17,3.85,1.74,2.79,1.24,4.2,1.83c5.29,2.22,10.68,4.21,16,6.42,1.36.56,2.73,1.08,4.11,1.59s2.68.95,4,1.34,2.85.81,4.27,1.21,2.86.83,4.3,1.21,2.69.66,4,1c.66.16,1.31.32,2,.46l2.64.56c1.59.34,3.18.71,4.77,1.09s3.24.85,4.87,1.25,3.25.75,4.88,1.11c.74.17,1.48.3,2.23.44l2.64.52c3.2.63,6.41,1.24,9.6,1.9l4.25.88c.31.07.63.11.94.16l1.56.27c.78.13,1.57.22,2.36.33q4.82.64,9.64,1.26c1.33.17,2.66.37,4,.55,1.48.21,2.94.46,4.41.69l2.42.38c.76.12,1.54.2,2.3.3,1.71.23,3.43.42,5.14.62,3.29.38,6.56.81,9.84,1.25,1.55.21,3.11.4,4.66.59s3.18.32,4.77.48c3.14.3,6.28.45,9.43.6,1.38.06,2.77.11,4.16.21l5.28.37c1.39.09,2.79.14,4.19.21l5.4.3c3.3.18,6.6.28,9.91.37l4,.1c1.69.05,3.38,0,5.07,0s3.14-.09,4.72-.14,3.29-.2,4.93-.29,3.19-.23,4.78-.34,3.29-.16,4.93-.24c3-.14,5.89-.16,8.83-.3,3.11-.15,6.21-.29,9.3-.49,3.33-.22,6.66-.47,10-.57s6.58-.16,9.87-.23c3-.07,6-.21,9.06-.39,2.82-.16,5.64-.32,8.46-.53s5.65-.31,8.48-.46l1.87-.15,2.24-.2c1.45-.14,2.91-.23,4.36-.31,2.75-.17,5.49-.38,8.24-.48l.79-.06c.31,0,.62,0,.93-.08l2.37-.27c.85-.1,1.7-.25,2.54-.37l2.06-.28,4.39-.61c1.37-.19,2.73-.39,4.1-.56s2.84-.4,4.25-.64c.63-.11,1.25-.25,1.88-.36l2.26-.41c2.75-.51,5.5-1,8.25-1.49,1.06-.14,2.13-.25,3.18-.39l3.19-.44c.59-.07,1.17-.15,1.75-.26l2.22-.44c1.12-.23,2.24-.43,3.37-.61,1.82-.27,3.64-.55,5.46-.86,1.3-.2,2.61-.37,3.92-.54,1.51-.21,3-.34,4.53-.59.59-.09,1.19-.17,1.78-.29l2.15-.43c1.47-.3,2.92-.67,4.37-1,3-.73,6.06-1.41,9.09-2.13s6.08-1.6,9.12-2.43c1.33-.36,2.67-.7,4-1s2.65-.69,4-1,2.72-.63,4.06-1c1.53-.42,3-.87,4.57-1.33s3-.92,4.51-1.36,3.11-.88,4.66-1.31c2.65-.73,5.29-1.45,7.9-2.3,3.44-1.13,6.87-2.26,10.27-3.52,4-1.5,8-3.17,12-4.77,3.61-1.44,7.21-2.9,10.77-4.44l2.81-1.21h0l1.06-.47.38-.17,2.86-1.27c1-.44,2-.94,2.92-1.44,1.74-.88,3.49-1.76,5.28-2.56s3.42-1.59,5.11-2.44c.75-.39,1.49-.77,2.23-1.17s1.49-.83,2.24-1.23q2.16-1.17,4.29-2.4c.78-.46,1.54-1,2.3-1.46s1.7-1.14,2.54-1.72,1.54-1,2.3-1.59,1.61-1.17,2.41-1.76,1.73-1.26,2.58-1.9,1.6-1.29,2.39-1.94q2.22-1.8,4.43-3.63c2.06-1.67,4.12-3.35,6.07-5.16s4.1-3.9,6.08-5.93q1.56-1.59,3-3.28l2.89-3.36c.92-1.05,1.82-2.11,2.7-3.19s1.85-2.28,2.73-3.45c1.81-2.41,3.49-4.9,5.14-7.42a77.21,77.21,0,0,0,3.88-6.79,50.71,50.71,0,0,0,3.27-8.43c.19-.61.37-1.22.52-1.85s.23-1.14.34-1.72.21-1.2.35-1.79.37-1.43.58-2.15.41-1.36.6-2,.31-1.27.45-1.91A33,33,0,0,0,658,177a35.09,35.09,0,0,0,.25-3.54c0-1.34-.12-2.69-.21-4-.07-1.17-.25-2.32-.4-3.48s-.25-2.31-.34-3.47c0-.52-.06-1-.11-1.54s-.12-1.08-.19-1.61c-.16-1.18-.28-2.36-.41-3.54-.06-.58-.12-1.16-.2-1.73s-.2-1.33-.32-2-.33-1.48-.51-2.21-.38-1.41-.6-2.1c-.4-1.26-.82-2.52-1.26-3.77s-.95-2.76-1.48-4.13-1-2.46-1.53-3.68c-.27-.61-.57-1.21-.87-1.81-.18-.35-.39-.68-.58-1l-.69-1.18c-.35-.61-.74-1.2-1.12-1.79s-.73-1.14-1.1-1.7L645.12,127c-.49-.72-1-1.45-1.53-2.14-.92-1.17-1.85-2.33-2.82-3.46s-2-2.42-3.07-3.63-2.07-2.36-3.15-3.5-2.36-2.46-3.59-3.65q-4.66-4.56-9.38-9.07c-2.79-2.68-5.6-5.37-8.41-8-1.2-1.14-2.39-2.3-3.65-3.37q-.94-.81-1.92-1.59c-.38-.32-.8-.6-1.21-.89l-1.17-.83.26.18c-2.46-1.78-5-3.5-7.48-5.25q-2-1.45-4-2.89-3.6-2.61-7.32-5c-1.14-.76-2.32-1.48-3.5-2.19s-2.52-1.54-3.79-2.3-2.28-1.35-3.44-2c-1.45-.82-2.89-1.65-4.36-2.44-2.39-1.29-4.79-2.57-7.16-3.88-1.11-.62-2.22-1.23-3.34-1.83s-2.14-1.09-3.21-1.63c-.65-.34-1.31-.66-2-1s-1.3-.65-2-1c-1.4-.66-2.81-1.31-4.23-1.93-1.21-.53-2.4-1.1-3.6-1.64-1.38-.63-2.76-1.26-4.16-1.84l-3.66-1.51c-.57-.23-1.15-.42-1.73-.63s-1.43-.52-2.16-.77-1.46-.52-2.19-.78l-2.34-.79c-1.56-.54-3.14-1-4.73-1.44-.86-.23-1.72-.46-2.59-.66s-1.64-.34-2.47-.51q-2.77-.55-5.54-1.21a.57.57,0,0,0-.58.23c-.65-.22-1.3-.43-2-.63-1.5-.44-3-.91-4.45-1.42l-2.16-.77-2.2-.77c-1.3-.47-2.62-.91-3.92-1.37s-2.44-.82-3.69-1.16c-1.54-.42-3.1-.73-4.66-1.06-2.95-.63-5.84-1.46-8.78-2.12-1.45-.32-2.9-.67-4.35-1-1.63-.34-3.25-.66-4.88-1-2.94-.58-5.9-1.15-8.86-1.66-2.63-.45-5.29-.76-7.94-1.16-1.06-.15-2.13-.29-3.2-.42-1.42-.17-2.83-.36-4.24-.55-2.32-.33-4.63-.64-6.95-.94l-3.35-.45-3.54-.53c-.58-.09-1.15-.17-1.74-.23l-1.56-.16c-1.19-.1-2.38-.22-3.57-.34l.12,0c-1.19-.13-2.37-.24-3.55-.33-.81-.07-1.61-.16-2.42-.21s-1.65-.09-2.47-.12c-1.23,0-2.46-.05-3.69-.13-1.52-.1-3-.23-4.55-.35-3-.23-6-.29-8.95-.48l-3.93-.29c-1.38-.1-2.76-.24-4.14-.34-.59,0-1.18-.1-1.77-.15-.75-.06-1.51-.09-2.27-.12-1.64-.07-3.29-.05-4.93-.07s-3,0-4.52,0h-4.41c-3.15,0-6.3-.08-9.44-.1s-6-.06-9-.18c-1.42-.06-2.84-.16-4.26-.2l-2,0c-1.06,0-2.11,0-3.17,0ZM259.34,31.51l1.9-.24,4.62-.56c3.17-.39,6.35-.71,9.53-1.06,1.47-.16,2.93-.34,4.4-.52s2.88-.31,4.32-.49q4.44-.57,8.9-1.05c3.24-.34,6.48-.72,9.73-1s6.56-.62,9.85-.86l4.49-.32c1.7-.11,3.4-.17,5.1-.25,1.43-.06,2.85-.15,4.28-.24,1.74-.12,3.46-.26,5.2-.39,1.35-.11,2.7-.16,4-.23l4.48-.21c1.52-.06,3-.15,4.55-.21,1.67-.07,3.34-.08,5-.1s3.09,0,4.64,0c.7,0,1.39.08,2.09.11l2.4.12c.74,0,1.48,0,2.22.05l2.08.05,4.92.06,4,.05,4.91,0c1.46,0,2.93,0,4.4,0l4.66,0c1.61,0,3.21,0,4.82.08,1.42.06,2.84.19,4.27.29.71,0,1.42.12,2.14.18L399,25l4.41.29c1.3.09,2.59.13,3.89.18s2.63.12,3.95.2,2.47.21,3.7.28,2.45.14,3.68.16l1.46,0c.69,0,1.39.05,2.08.09s1.13.08,1.7.13,1.38.11,2.07.15c1.14.09,2.29.21,3.44.32l4,.37,4,.58c1.45.21,2.91.38,4.36.56s2.82.36,4.22.55c1.63.21,3.25.44,4.87.64s3.2.37,4.79.61l4.07.54c2.78.38,5.55.87,8.32,1.39,3.1.58,6.2,1.17,9.3,1.81,1.46.3,2.91.64,4.36,1s3.14.73,4.7,1.14c1.35.36,2.71.67,4.07.95l2.06.43c.88.18,1.75.4,2.62.62,1.25.31,2.46.74,3.68,1.15s2.63.88,3.94,1.34l4.36,1.51c1.36.46,2.74.87,4.12,1.27s2.73.84,4.09,1.28c1.19.37,2.36.79,3.53,1.22,1.53.62,3,1.27,4.56,1.92a.85.85,0,0,0,.8-1.51c-1.16-.5-2.32-1-3.49-1.5.72.17,1.44.34,2.15.53,2.73.75,5.4,1.67,8.07,2.6l-.2-.07,1.86.69,1.94.73c1.19.46,2.39.9,3.55,1.4l3.61,1.57c1.3.56,2.58,1.18,3.86,1.78.66.31,1.3.64,1.95,1l1.65.77c1.28.59,2.55,1.22,3.83,1.83l2,1c.65.33,1.3.65,1.95,1l3,1.57c1.12.59,2.2,1.23,3.31,1.85,2.28,1.27,4.58,2.54,6.86,3.82,2.48,1.37,4.92,2.79,7.36,4.22s4.75,2.9,7.11,4.38,4.69,3.14,7,4.76l2.33,1.68-.13-.1c1.55,1.12,3.08,2.24,4.64,3.34.74.53,1.49,1,2.23,1.56l2.11,1.48,2.3,1.67c.85.62,1.67,1.29,2.46,2,1.64,1.42,3.19,2.94,4.75,4.43l10.87,10.47,4.21,4.08,2.77,2.71c.69.67,1.35,1.38,2,2.07,1.47,1.57,2.92,3.15,4.29,4.8s2.71,3.24,4,4.87c.74,1,1.47,1.9,2.14,2.9s1.49,2.24,2.22,3.38c.61,1,1.21,1.94,1.78,2.93.31.53.61,1.07.91,1.61s.54,1.09.79,1.64c.55,1.27,1,2.56,1.54,3.85s1,2.82,1.48,4.22.87,2.63,1.26,4a40.68,40.68,0,0,1,1,4.24c.22,1.73.38,3.46.57,5.18.09.81.2,1.61.27,2.42s.1,1.72.17,2.57.15,1.65.24,2.47.24,1.93.3,2.9.09,1.81.13,2.72a26.38,26.38,0,0,1,0,3.08c-.14,1.42-.28,2.84-.51,4.25a40.1,40.1,0,0,1-1.43,5.37,24.24,24.24,0,0,0-.59,2.52c-.15.76-.27,1.54-.46,2.29s-.46,1.68-.74,2.51-.65,1.93-1,2.89a42.18,42.18,0,0,1-1.94,4.28q-.5,1-1,1.92c-.35.63-.72,1.26-1.08,1.88-1.6,2.79-3.44,5.43-5.28,8.06s-4,5.25-6.18,7.75c-1,1.12-1.92,2.25-2.87,3.38-.55.64-1.08,1.27-1.65,1.89s-1.2,1.28-1.82,1.91c-2.19,2.28-4.45,4.5-6.79,6.63-1.15,1-2.33,2.06-3.53,3s-2.5,2.06-3.75,3.1l-3.17,2.57c-.61.49-1.22,1-1.85,1.43-.83.63-1.69,1.23-2.53,1.85-1.4,1-2.85,2-4.28,3-.74.5-1.48,1-2.22,1.47s-1.41.92-2.14,1.34q-2.13,1.23-4.3,2.38c-1.31.7-2.59,1.43-3.92,2.1-1.69.84-3.38,1.66-5.1,2.44-.76.35-1.52.68-2.27,1s-1.54.75-2.31,1.13c-1.77.88-3.52,1.76-5.32,2.57l-2.84,1.25a1.22,1.22,0,0,0-.33.14q-2.58,1.13-5.17,2.2-4.32,1.77-8.65,3.5c-2.83,1.12-5.65,2.29-8.48,3.4s-5.5,2.06-8.29,3c-2.41.79-4.81,1.65-7.25,2.36-1.42.42-2.85.8-4.28,1.2l-4.57,1.28c-3,.86-6,1.84-9.07,2.7-2.64.75-5.33,1.3-8,2s-5.15,1.35-7.71,2.07c-2.8.8-5.62,1.52-8.46,2.2-1.19.29-2.39.54-3.58.83s-2.53.59-3.79.9-2.7.67-4.06.95l-2.15.44c-.46.09-.93.16-1.39.23h0l-2.47.31c-1.05.12-2.1.27-3.15.4-1.87.24-3.72.56-5.57.87-1.41.21-2.82.41-4.22.65s-3.07.59-4.6.9l-2.25.31c-.91.13-1.81.27-2.72.38s-1.85.22-2.77.38-2.13.38-3.2.58c-1.87.34-3.74.72-5.62,1.06l-3.63.69c-.93.19-1.86.33-2.8.48l.39-.06c-2.89.38-5.76.82-8.63,1.22l-5.23.77c-1.51.22-3,.37-4.56.5-.65.05-1.3.06-1.94.1s-1.44.1-2.15.15l-4.6.31c-1.46.1-2.91.21-4.37.36s-3.14.31-4.72.41l-4.19.26c-1.61.1-3.22.23-4.84.36-3,.25-6,.43-9,.6l-4.86.24c-1.59.07-3.18.1-4.76.14l-4.13.1-2.4.08-2.21.09c-6.4.4-12.81.91-19.22,1.15-3.36.13-6.73.25-10.09.41s-6.46.44-9.69.64c-.62,0-1.23.09-1.85.12l-2.74.1-1.72,0c-.94,0-1.88.06-2.82.06-1.53,0-3.06,0-4.6-.06l-5.25-.11c-3.09-.07-6.17-.23-9.25-.38-3.28-.17-6.56-.31-9.84-.51-1.64-.1-3.28-.19-4.93-.26l-4.79-.19-2.61-.12c-1,0-2-.15-3-.22-1.63-.12-3.25-.28-4.87-.43-1.44-.17-2.88-.33-4.33-.52-1.63-.21-3.26-.43-4.9-.63l-4.72-.57c-1.66-.19-3.32-.36-5-.57s-3.12-.4-4.68-.65l-2-.31c-.83-.14-1.66-.3-2.49-.41l-4.71-.65c-1.38-.19-2.77-.36-4.15-.53l-4.63-.61-2.87-.39c-.87-.11-1.74-.29-2.61-.43-1.25-.21-2.48-.51-3.72-.77l-5.51-1.1c-3.23-.64-6.47-1.27-9.7-1.89-.72-.14-1.43-.32-2.14-.47s-1.29-.28-1.93-.44q-2.67-.66-5.33-1.37c-2.48-.65-5-1.14-7.51-1.69-1.17-.25-2.33-.53-3.49-.81s-2.35-.56-3.52-.87-2.19-.62-3.28-.93l-3.56-1c-1.07-.3-2.13-.62-3.18-1s-1.93-.68-2.89-1c-2.32-.89-4.62-1.86-6.92-2.8s-4.53-1.79-6.79-2.7c-2.41-1-4.81-1.94-7.19-3s-4.81-2.13-7.17-3.28-4.74-2.25-7-3.54-4.71-2.77-7.07-4.16c-1-.61-2.11-1.18-3.18-1.76s-2.37-1.27-3.56-1.9c-1-.51-1.94-1.07-2.88-1.64-.51-.32-1-.63-1.52-1s-1.16-.78-1.72-1.18c-1.41-1.05-2.78-2.14-4.18-3.2l-2.13-1.6c-.76-.56-1.49-1.15-2.23-1.74L96.21,251c-.82-.66-1.63-1.35-2.43-2-1.39-1.19-2.81-2.34-4.22-3.49s-2.73-2.39-4.11-3.57c-.76-.64-1.52-1.29-2.29-1.92l-2-1.6-1-.78c-.34-.28-.67-.6-1-.9-.82-.73-1.59-1.51-2.37-2.28A53.45,53.45,0,0,1,73,230l-2.06-2.68c-.39-.51-.78-1-1.15-1.54s-.9-1.27-1.34-1.93c-.66-1-1.27-2-1.85-3.06s-1.15-2.26-1.71-3.4-1.11-2-1.69-3-1.24-2.1-1.83-3.17C60.14,209,59,206.77,58,204.5c-.47-1.08-.95-2.17-1.33-3.29-.25-.73-.46-1.47-.64-2.22s-.34-1.56-.48-2.35c-.14-1.08-.28-2.15-.37-3.23-.11-1.4-.27-2.78-.38-4.18-.1-1.24-.19-2.49-.27-3.73s-.22-2.51-.34-3.76-.25-2.4-.31-3.61a31.38,31.38,0,0,1-.06-3.63c.08-1.16.18-2.33.28-3.49.06-.65.1-1.31.15-2s.1-1.22.15-1.83c.18-1.45.36-2.91.61-4.35.29-1.68.67-3.34,1.08-5,.16-.63.29-1.26.43-1.89.19-.83.4-1.65.61-2.46.39-1.54.88-3,1.42-4.53.42-1.06.87-2.11,1.33-3.15.55-1.21,1.16-2.39,1.77-3.56s1.25-2.29,1.89-3.43,1.39-2.52,2.09-3.78,1.33-2.49,2-3.71,1.56-2.6,2.39-3.87,1.65-2.45,2.46-3.68,1.68-2.43,2.53-3.64c.5-.69,1-1.39,1.51-2.07.63-.84,1.28-1.67,1.92-2.5s1.36-1.76,2.07-2.62,1.56-1.85,2.35-2.77c1.34-1.56,2.75-3,4.17-4.53q2.4-2.51,4.82-5c3.37-3.48,6.79-6.91,10.33-10.21,1.57-1.47,3.2-2.87,4.86-4.24s3.57-3,5.36-4.41c1.51-1.16,3-2.32,4.55-3.42s3-2,4.46-3c.86-.57,1.73-1.12,2.61-1.67s1.48-.93,2.23-1.38l4.85-2.84c1.51-.9,3-1.75,4.57-2.62s3.29-1.88,5-2.73c3.44-1.73,6.9-3.41,10.42-5l3.73-1.51c1.61-.63,3.23-1.21,4.86-1.8L164,54.3l1.74-.62c.84-.3,1.66-.61,2.5-.89q2.31-.75,4.61-1.53c1.47-.5,2.94-1,4.41-1.46,1.27-.4,2.53-.83,3.79-1.23,1.41-.45,2.82-.87,4.24-1.31s2.73-.82,4.1-1.21l1.95-.59c.74-.23,1.49-.44,2.23-.65,1.28-.35,2.55-.69,3.82-1.05,1.5-.43,3-.86,4.51-1.27,1.29-.34,2.6-.64,3.9-1l4.33-1.09c3-.73,5.9-1.44,8.87-2.06s5.69-1.07,8.53-1.59l8.86-1.61c1.69-.24,3.38-.47,5.07-.75l5.14-.86c3.59-.61,7.19-1.18,10.79-1.78.65-.1,1.29-.2,1.94-.27Zm174.17-4.36h0Zm99.17,21.22.09,0-.09,0Zm-420,33.25-.22.18.22-.18ZM602.79,88l.09.07-.09-.07Zm52.39,86.73,0,.3,0-.3Zm-36.3,64.38-.08.06.08-.06ZM106.49,258.91l.08.06-.08-.06ZM594,81.73l-.13-.09.13.09Z"
     id="path198" />
  <path
     class="cls-1"
     d="M381.82.07c-1.53,0-3.06.06-4.58.06h-6.18c-1.64,0-3.28,0-4.92,0l-2.26,0c-.86,0-1.72.07-2.59.09L350.18.53c-7.06.17-14.12.41-21.17.64l-5.58.18c-1.71.06-3.41.15-5.12.25-.85,0-1.7.07-2.55.14L312.44,2q-2.46.2-4.92.3c-3.7.17-7.4.33-11.1.55l-5.7.38L288,3.46l-2.83.29c-3.59.39-7.17.85-10.76,1.18-1.89.17-3.77.34-5.66.53s-4,.41-6,.63l-4.62.55c-1.84.2-3.68.45-5.52.68-3.59.45-7.18.93-10.77,1.41q-2.93.4-5.87.77l-2.27.27c-1.08.14-2.16.25-3.24.41q-5.34.78-10.64,1.76l-5.14.94c-1.94.36-3.87.81-5.8,1.24l-10.38,2.29c-1.51.34-3,.7-4.55,1s-3.32.71-5,1.09-3.29.79-4.93,1.19L178.77,21c-1.57.39-3.14.77-4.7,1.2-1.9.52-3.81,1-5.72,1.51l-2.06.5-2.31.6-5.36,1.44c-.44.12-.88.28-1.32.41l-.94.3-2.65.86q-2.69.91-5.36,1.87c-1.55.55-3.09,1.09-4.63,1.65l-4.67,1.76c-1.66.64-3.3,1.3-4.94,1.95s-3.46,1.38-5.18,2.09c-1.46.59-2.91,1.23-4.35,1.89q-2.55,1.15-5.09,2.35-2.38,1.13-4.76,2.29c-1.63.8-3.22,1.67-4.81,2.54-1.42.78-2.84,1.56-4.25,2.37-.71.41-1.43.78-2.15,1.17l-2.79,1.49c-1.42.77-2.86,1.52-4.27,2.32-1.83,1-3.66,2.1-5.47,3.16-1.36.8-2.71,1.63-4.06,2.45q-2.4,1.45-4.79,2.94c-1.29.8-2.56,1.64-3.83,2.47-1.53,1-3,2-4.55,3S71,69.54,69.62,70.53c-1.64,1.18-3.25,2.39-4.86,3.59-1.38,1-2.72,2.1-4.06,3.17s-2.82,2.3-4.21,3.46S54,82.82,52.73,83.9c-1.41,1.24-2.78,2.54-4.13,3.85-1.18,1.14-2.34,2.31-3.49,3.47-.52.53-1,1.09-1.5,1.64s-1.15,1.33-1.72,2l-1.73,2c-.52.6-1,1.19-1.55,1.81-1.19,1.47-2.39,2.94-3.56,4.43-1,1.33-2,2.67-3,4-.44.58-.85,1.17-1.27,1.76-.56.78-1.12,1.56-1.66,2.36-1.85,2.72-3.59,5.51-5.17,8.4-.43.78-.83,1.58-1.25,2.37s-.86,1.61-1.3,2.41c-.92,1.7-1.85,3.41-2.79,5.11-.81,1.45-1.58,2.92-2.37,4.38l-1.11,2c-.38.7-.75,1.41-1.11,2.11-1.07,2.09-2.09,4.22-3,6.38s-1.51,4.09-2.22,6.15-1.52,4.4-2.23,6.62c-.14.44-.26.9-.38,1.34-.18.64-.36,1.28-.53,1.92L4.56,164.3c-.58,2.14-1.2,4.28-1.75,6.43-.14.56-.29,1.12-.42,1.69s-.27,1.35-.4,2c-.19,1.05-.28,2.12-.41,3.17-.05.48-.08,1-.12,1.46-.05.66-.09,1.31-.13,2-.08,1.16-.14,2.33-.21,3.49S1,186.72.88,187.81s-.16,2.34-.26,3.5c-.13,1.37-.24,2.73-.34,4.1-.05.66-.09,1.33-.12,2s0,1.27,0,1.91c0,1.45,0,2.89,0,4.33,0,.8,0,1.59,0,2.38,0,.38,0,.76,0,1.14s0,.93,0,1.39c0,.77,0,1.53.1,2.3s.16,1.67.28,2.5.27,1.5.41,2.25.31,1.6.47,2.4c.61,2.95,1.18,5.91,1.91,8.84.39,1.57.93,3.1,1.45,4.63s1.11,2.93,1.74,4.36c.14.32.3.64.45.95s.26.56.41.83c.25.43.49.86.74,1.28s.39.63.59,1c.49.77,1,1.54,1.51,2.3.6.92,1.26,1.8,1.89,2.7.87,1.25,1.77,2.49,2.64,3.74.45.64.87,1.3,1.32,1.94l1.48,2.12c1,1.41,2,2.78,3.08,4.09s2.07,2.49,3.1,3.75,2.11,2.72,3.12,4.11c.43.59.83,1.19,1.23,1.78s1,1.4,1.51,2.1c.28.38.59.74.88,1.1s.47.6.71.88L33,272.7c1.09,1.26,2.16,2.53,3.24,3.8.91,1.13,1.81,2.26,2.76,3.35,1.2,1.37,2.42,2.71,3.66,4,.52.56,1.05,1.1,1.59,1.64.35.36.76.69,1.13,1l.8.71,4.15,3.62C51.52,292,52.82,293,54.11,294c.66.51,1.35,1,2,1.45.3.21.61.4.92.6s.84.49,1.26.73c.64.35,1.29.68,1.92,1L62.53,299c1.55.86,3.08,1.77,4.6,2.68s2.92,1.67,4.38,2.48,3.06,1.63,4.58,2.47c1.37.75,2.74,1.52,4.09,2.32.57.33,1.14.67,1.73,1q1.22.66,2.46,1.29c1.48.74,3,1.38,4.54,2s3.26,1.27,4.89,1.9S97,316.39,98.58,317s3.4,1.41,5.11,2.08c.54.22,1.08.44,1.63.63l1.67.59c1.28.44,2.56.88,3.85,1.3,2.26.75,4.53,1.5,6.77,2.3l.9.34c.3.11.6.25.9.38.67.3,1.31.62,2,.94l2.31,1.19c.79.41,1.6.78,2.4,1.17,1.25.6,2.51,1.16,3.79,1.7,1.59.68,3.22,1.24,4.85,1.83,1.4.5,2.82,1,4.24,1.43l5.24,1.64,2.89.89c.33.1.66.18,1,.27l1.84.52c1.71.47,3.43.94,5.14,1.38l5.21,1.34c1.67.43,3.34.87,5,1.27,1.88.44,3.75.87,5.64,1.28s3.95.85,5.93,1.26c1.56.32,3.11.67,4.66,1s3.35.71,5,1.08l3.41.76c.4.09.8.18,1.21.25l6.91,1.21c3,.52,6,1.08,9,1.53l13.5,2.07,4.1.62c1.73.26,3.47.5,5.19.79s3.48.54,5.21.88,3.36.66,5.06.9,3.68.52,5.52.76c.72.1,1.44.19,2.17.27s1.57.2,2.36.28c3.44.36,6.88.7,10.33.95,3.63.26,7.25.5,10.88.73l5.59.37c.84,0,1.67.1,2.5.17l2.73.25c3.75.38,7.5.73,11.26,1.09,1.59.15,3.17.35,4.76.52l6.39.71c1.8.19,3.61.36,5.42.54l1.95.15,3.52.25c.27,0,.54,0,.81,0l1.8.05,2.62.07c1.77,0,3.54.06,5.32.08l5.59.06c1.83,0,3.65,0,5.47,0,3.65-.06,7.3-.06,10.95,0,.82,0,1.63,0,2.45,0l3.23-.07c1.83,0,3.66-.12,5.49-.18,3.47-.12,6.94-.28,10.41-.35l5.84-.14,2.48-.06c.85,0,1.71,0,2.56-.06,1.83-.08,3.66-.17,5.48-.27s3.68-.23,5.51-.36c3.45-.23,6.89-.6,10.34-.81,1.48-.09,3-.19,4.44-.33,1.84-.18,3.69-.37,5.54-.54s4-.36,6-.54c1.61-.14,3.23-.23,4.85-.36l5.44-.45c2-.18,3.94-.31,5.92-.47,1.49-.13,3-.28,4.48-.43,2.08-.2,4.15-.41,6.23-.64l4.91-.56c1.63-.18,3.26-.31,4.88-.53s3-.35,4.51-.54l5.88-.79c1.53-.21,3.05-.45,4.58-.69,1.77-.27,3.53-.56,5.3-.84,1.56-.25,3.13-.51,4.69-.8l6-1.12c3.38-.62,6.79-1.11,10.17-1.8,1.64-.34,3.28-.67,4.91-1.05l6.35-1.46,4.65-1,5.93-1.28c1.69-.36,3.39-.72,5.07-1.1l5-1.15q5.51-1.28,11-2.62c3.3-.81,6.61-1.58,9.9-2.46,1.59-.42,3.18-.91,4.77-1.37l5-1.43c1.81-.53,3.6-1.1,5.4-1.66s3.56-1.11,5.34-1.65c3.23-1,6.42-2.15,9.61-3.28l4.66-1.68c1.57-.56,3.13-1.13,4.68-1.75l4.94-2c1.44-.58,2.89-1.15,4.32-1.76s2.78-1.25,4.16-1.9,2.94-1.4,4.39-2.13c1.15-.58,2.28-1.22,3.41-1.84,1.31-.71,2.63-1.43,3.92-2.18,1.76-1,3.56-2,5.34-2.95s3.45-2,5.1-3.11c.76-.51,1.5-1,2.25-1.54l1.4-1c.45-.32.89-.66,1.34-1s.88-.69,1.33-1l1.48-1.16c.81-.64,1.59-1.29,2.39-1.94,1.49-1.19,3-2.34,4.44-3.6,1.62-1.43,3.28-2.83,4.94-4.21.72-.58,1.43-1.17,2.14-1.76s1.34-1.16,2-1.74c1.61-1.36,3.21-2.73,4.77-4.16.71-.65,1.41-1.3,2.13-1.94.89-.79,1.79-1.58,2.67-2.38,1.33-1.21,2.61-2.47,3.88-3.74s2.79-2.82,4.16-4.25c.63-.66,1.26-1.31,1.88-2,.83-.87,1.63-1.76,2.42-2.67,1.3-1.51,2.57-3,3.87-4.56s2.43-2.82,3.51-4.34l.18-.25.12-.17c.67-.95,1.31-1.91,2-2.85s1.37-2,2.06-3c1-1.43,2.1-2.84,3.11-4.29.63-.89,1.25-1.78,1.84-2.69s1.23-1.93,1.83-2.91a58,58,0,0,0,2.94-5.84c.45-1,.87-1.95,1.25-2.94s.61-1.73.92-2.6c.28-.72.57-1.44.87-2.15s.66-1.5,1-2.25a24.15,24.15,0,0,0,1.33-4c.27-1.13.37-2.27.53-3.42.08-.59.18-1.19.28-1.78s.2-1.38.29-2.07a20.33,20.33,0,0,0,.05-3.49c-.06-1.1-.17-2.2-.15-3.3s.06-2.21.08-3.31c0-.53,0-1,0-1.57s0-1.22.09-1.82c.12-1.15.32-2.28.5-3.42.1-.59.17-1.19.22-1.79a14.23,14.23,0,0,0,0-2c0-1.19-.26-2.37-.41-3.55a14.58,14.58,0,0,0-.31-1.73c-.16-.73-.39-1.44-.61-2.14-.42-1.35-.76-2.72-1.08-4.09-.16-.69-.33-1.38-.5-2.07s-.46-1.61-.69-2.42-.38-1.35-.56-2-.35-1.39-.55-2.09c-.45-1.56-1.07-3.07-1.65-4.59-.51-1.33-.93-2.69-1.36-4q-.75-2.32-1.66-4.59c-.57-1.39-1.16-2.78-1.7-4.18s-1-2.83-1.56-4.24-1-2.57-1.61-3.84c-.75-1.61-1.61-3.18-2.46-4.74-.75-1.39-1.54-2.76-2.28-4.16s-1.5-2.84-2.26-4.25c-.66-1.23-1.37-2.44-2.08-3.65-.33-.57-.66-1.16-1-1.73s-.79-1.31-1.18-2-.88-1.4-1.33-2.1c-.24-.36-.52-.7-.77-1s-.4-.54-.61-.8c-.5-.64-1-1.27-1.51-1.92s-1.15-1.47-1.76-2.18-1.09-1.29-1.65-1.93-1.22-1.34-1.83-2c-1.19-1.29-2.43-2.52-3.66-3.77-1.06-1.09-2.07-2.24-3.12-3.35-1.26-1.33-2.53-2.66-3.82-4-1.1-1.13-2.23-2.23-3.37-3.32-1.35-1.3-2.78-2.51-4.2-3.72l-3.51-3-1.91-1.67c-.7-.62-1.37-1.28-2-1.94s-1.09-1.12-1.64-1.67l-1.88-1.92-1.47-1.48c-.73-.77-1.44-1.54-2.15-2.32-2.28-2.47-4.64-4.84-7-7.2q-1.7-1.65-3.3-3.39t-3.43-3.59c-1.06-1.07-2.11-2.17-3.26-3.16-.57-.49-1.14-1-1.74-1.44s-1.3-1-2-1.47-1.26-.86-1.9-1.28-1.44-1-2.18-1.4l-1.8-1.1c-.69-.43-1.4-.83-2.09-1.24-1.35-.79-2.72-1.52-4-2.35-1.61-1-3.23-2-4.89-2.95l-2.4-1.35c-.74-.44-1.51-.84-2.27-1.26s-1.43-.81-2.15-1.21-1.63-.87-2.45-1.3c-1.5-.81-3-1.59-4.5-2.39S575.59,42,574,41.19c-.72-.35-1.45-.69-2.17-1s-1.51-.7-2.26-1c-1.63-.75-3.24-1.54-4.87-2.29-.74-.34-1.49-.65-2.22-1s-1.53-.75-2.3-1.13c-1.23-.62-2.45-1.26-3.69-1.88a.47.47,0,0,0,.54-.22.46.46,0,0,0-.19-.61q-2.42-1.29-4.88-2.47c-1.7-.82-3.45-1.53-5.19-2.26l-4.88-2c-.67-.27-1.33-.57-2-.81l-2.37-.86C534,22.33,530.5,21.13,527,20l-2.27-.69c-.76-.23-1.53-.43-2.3-.64s-1.61-.41-2.42-.6l-2.52-.65c-1.7-.43-3.42-.83-5.13-1.23s-3.68-.83-5.52-1.22l-4.91-1.06c-1.84-.39-3.66-.8-5.49-1.2l-2.4-.54c-.81-.19-1.63-.39-2.45-.56l-3-.61c-1.09-.23-2.18-.41-3.27-.62-3.38-.64-6.77-1.24-10.15-1.88L472.36,8c-.91-.18-1.83-.32-2.75-.47-1.61-.28-3.23-.51-4.86-.73s-3.41-.48-5.12-.68l-4.8-.54c-1.55-.18-3.09-.36-4.63-.57l-2.38-.35-3-.37c-1.56-.19-3.12-.35-4.68-.51-1.75-.18-3.5-.37-5.26-.54-1.57-.16-3.14-.36-4.72-.51q-2.89-.25-5.79-.48c-.69,0-1.39-.12-2.09-.16l-2.63-.14c-1.92-.1-3.82-.24-5.73-.4L403.24.68,398.17.29c-.87-.06-1.75-.1-2.63-.15S393.82.05,393,0q-2,0-4,0c-2.36,0-4.73,0-7.09.07ZM230.17,12.6c1.75-.25,3.51-.44,5.27-.65,2-.24,4-.49,6-.75l5.14-.69,5.64-.72c1.8-.22,3.6-.46,5.41-.67,3.55-.39,7.09-.83,10.64-1.18s7.24-.64,10.85-1.06l5.53-.63c.83-.09,1.66-.2,2.48-.27l3.52-.32c1-.09,2-.14,3-.21l2.49-.16c1.73-.11,3.45-.21,5.17-.29l5.83-.27,2-.11c1-.07,2-.11,3.05-.19l3.31-.27c.76-.06,1.52-.09,2.27-.13,1.74-.1,3.46-.21,5.2-.28l10.83-.38c7.37-.26,14.73-.51,22.09-.7l4.88-.12c1.66,0,3.32-.14,5-.17,3.74-.07,7.48-.06,11.22-.08,1.51,0,3,0,4.53-.07l6.36-.1c1.56,0,3.12,0,4.68,0,1.84,0,3.69.13,5.53.23,1.18.06,2.36.16,3.55.24l4.35.32,8,.59c1.32.1,2.65.19,4,.27s2.92.14,4.37.22,2.63.19,3.95.28,2.71.22,4.07.34,3,.31,4.48.45c3.36.33,6.73.64,10.09,1q1.26.14,2.52.3l2.39.32c1.73.23,3.46.41,5.18.6l4.26.45c1.87.2,3.73.45,5.59.69,1.48.19,3,.4,4.41.64l2.75.45c1.11.18,2.22.41,3.33.61,3.4.63,6.81,1.21,10.22,1.83l2.7.49c1,.19,2,.4,3,.6.82.16,1.64.35,2.46.54s1.88.4,2.83.6l5.07,1.07c1.69.34,3.37.7,5.06,1.05s3.6.74,5.39,1.15,3.54.81,5.31,1.24,3.84.91,5.75,1.41,3.56,1,5.33,1.53c1,.3,1.94.62,2.9.93l3.08,1c1.73.56,3.45,1.19,5.17,1.79Q544,27.13,548.45,29l1.77.75c.63.27,1.25.57,1.87.87,1.4.66,2.79,1.37,4.16,2.1l-.94-.47c-1.45-.69-2.89-1.4-4.35-2.07s-3-1.21-4.45-1.74c-.34-.13-.56.47-.22.6,1.33.54,2.65,1.07,3.94,1.68s2.62,1.33,3.93,2,2.44,1.28,3.66,1.94c1.38.75,2.75,1.52,4.15,2.22.61.3,1.23.58,1.84.85s1.22.59,1.83.9c1.36.69,2.73,1.36,4.11,2s2.68,1.27,4,2,2.63,1.32,3.93,2c.64.33,1.26.68,1.89,1l1.87,1c1.3.7,2.6,1.39,3.88,2.12s2.71,1.53,4.06,2.29c.66.38,1.32.78,2,1.16s1.56.9,2.33,1.37c1.23.75,2.43,1.55,3.65,2.3s2.36,1.36,3.53,2.06c.55.32,1.1.64,1.64,1s1.19.74,1.79,1.11c1.29.81,2.56,1.66,3.82,2.52.49.35,1,.71,1.45,1.07s1.15.91,1.71,1.39a42.85,42.85,0,0,1,3.44,3.3c1.15,1.2,2.3,2.41,3.43,3.63l1.59,1.72c.63.67,1.27,1.31,1.92,2,2.28,2.28,4.56,4.57,6.74,7l1.89,2.07c.57.63,1.17,1.23,1.77,1.83l3.68,3.77c1,1.08,2.15,2.1,3.29,3.1,1.31,1.15,2.63,2.3,4,3.43l1.94,1.68c.66.57,1.3,1.15,2,1.74s1.19,1.15,1.78,1.73l2.09,2.08q1.63,1.65,3.23,3.35c1.21,1.28,2.39,2.58,3.6,3.85s2.3,2.35,3.44,3.54c1.31,1.37,2.56,2.78,3.78,4.22l.15.17c.88,1.09,1.77,2.19,2.63,3.3a38.76,38.76,0,0,1,2.61,3.63c.67,1.1,1.34,2.19,2,3.3s1.36,2.35,2,3.52,1.39,2.49,2,3.74c.56,1.06,1.13,2.11,1.7,3.16q1.15,2.08,2.3,4.17c.74,1.34,1.41,2.72,2.05,4.12.31.73.62,1.47.9,2.21l.82,2.23c.29.77.55,1.56.85,2.33s.71,1.83,1.09,2.74.7,1.7,1,2.55.68,1.87,1,2.82c.56,1.7,1.07,3.4,1.7,5.07.31.84.63,1.67.93,2.51s.52,1.62.73,2.44l.6,2.42c.24.92.51,1.83.75,2.75.47,1.72.8,3.48,1.22,5.22.18.77.4,1.53.62,2.29s.37,1.43.51,2.16c.12,1,.23,1.95.34,2.92a19.9,19.9,0,0,1,.07,2.78c-.17,1.54-.49,3.05-.69,4.57a44.87,44.87,0,0,0-.24,4.63c0,1.56-.16,3.12-.06,4.68,0,.75.09,1.49.13,2.24,0,.38,0,.77,0,1.16s0,.78-.06,1.17c-.19,1.56-.48,3.1-.66,4.65-.08.76-.19,1.52-.33,2.27a19.13,19.13,0,0,1-.7,2.49c-.19.53-.4,1.06-.62,1.58-.32.75-.66,1.5-1,2.26s-.6,1.44-.86,2.17-.47,1.4-.72,2.09c-.44,1.17-.93,2.31-1.44,3.44l-.87,1.89c-.33.72-.68,1.45-1,2.16-.73,1.37-1.55,2.7-2.39,4-.38.59-.75,1.18-1.15,1.76s-.79,1.13-1.19,1.7c-.56.78-1.14,1.55-1.71,2.33s-1.15,1.61-1.72,2.42-1,1.43-1.46,2.13-1.13,1.61-1.68,2.42c-.83,1.16-1.7,2.27-2.63,3.35-1.23,1.44-2.47,2.88-3.69,4.32s-2.29,2.68-3.51,4-2.32,2.4-3.48,3.59c-2.33,2.39-4.72,4.73-7.23,6.93-1.38,1.23-2.8,2.41-4.18,3.64s-2.81,2.43-4.25,3.62l-1.89,1.55c-1.51,1.23-3,2.41-4.53,3.65l-2.47,2-2.1,1.79c-1.35,1-2.72,2.07-4.05,3.13-1.73,1.37-3.5,2.71-5.28,4-.71.52-1.45,1-2.17,1.48s-1.67,1.14-2.53,1.69c-.68.43-1.36.88-2.06,1.29-.9.53-1.8,1-2.71,1.53s-1.79,1-2.69,1.46-1.74,1-2.61,1.47-1.49.83-2.23,1.24l-2.15,1.19-2.12,1.14c-.7.37-1.42.71-2.13,1.07-1.8.88-3.61,1.72-5.43,2.56-1.22.53-2.46,1-3.69,1.54l-4.89,2c-1.55.63-3.09,1.23-4.65,1.81s-3.21,1.14-4.81,1.73c-3.34,1.22-6.7,2.42-10.08,3.51-1.59.52-3.18,1-4.77,1.5l-5.4,1.7c-3.41,1-6.84,2-10.26,3.05-1.41.42-2.84.8-4.27,1.17-1.91.51-3.81,1-5.73,1.48-3.29.83-6.58,1.68-9.88,2.47-3.48.82-7,1.67-10.44,2.45l-5.7,1.27c-1.95.43-3.91.85-5.85,1.3l-6.16,1.45c-1.89.44-3.78.85-5.68,1.25-.82.18-1.65.33-2.48.49l-2.85.53c-1.14.21-2.28.39-3.42.59s-2,.39-3.06.58c-1.81.34-3.63.7-5.44,1s-3.77.67-5.66,1c-3.3.54-6.6,1.09-9.92,1.53l-5.13.68c-.78.09-1.55.18-2.33.29s-1.78.22-2.67.32c-1.58.17-3.17.35-4.75.54-1.74.2-3.47.42-5.22.6-3.67.36-7.34.76-11,1-1.84.13-3.68.3-5.52.45s-3.64.3-5.46.43c-3.66.26-7.32.6-11,1-1.54.15-3.08.29-4.62.41-1.72.14-3.45.21-5.17.34s-3.3.31-4.95.42l-6,.41c-1.52.1-3,.17-4.56.26s-3,.13-4.46.15l-10.06.18c-3.16,0-6.31.18-9.47.29l-4.84.15-2.27,0c-.76,0-1.52,0-2.28,0q-5.07,0-10.16-.05l-4.38,0c-1.84,0-3.68,0-5.53-.06l-9.46-.15c-1.71,0-3.42-.1-5.13-.15-.75,0-1.51-.11-2.27-.16l-2.76-.2c-2.2-.22-4.41-.44-6.61-.68l-6.67-.74c-1.19-.13-2.38-.28-3.56-.39l-3.7-.36c-2.46-.23-4.91-.48-7.37-.73-2.28-.23-4.56-.39-6.85-.55l-6.14-.39c-2.66-.17-5.31-.34-8-.54-2.24-.16-4.48-.35-6.72-.54-1.59-.17-3.19-.31-4.78-.51l-3.23-.39c-1.06-.13-2.11-.28-3.17-.43-1.65-.22-3.3-.46-4.95-.75-.85-.15-1.7-.31-2.54-.48s-1.77-.34-2.66-.49c-1.55-.26-3.09-.52-4.64-.76l-7.21-1.1-12-1.84c-1.29-.2-2.59-.37-3.87-.6l-5.87-1-7.28-1.29-1.35-.23c-.28-.05-.57-.13-.85-.19l-2.4-.54c-3.48-.79-7-1.54-10.44-2.3-1.53-.34-3.07-.64-4.6-1-2-.46-4.07-.91-6.1-1.39-2.89-.69-5.75-1.46-8.62-2.22s-6-1.61-9-2.46c-.59-.17-1.18-.32-1.76-.5l-2.72-.85-4.14-1.31c-1.33-.41-2.66-.84-4-1.3l-3.8-1.36c-2-.78-3.9-1.62-5.81-2.54-1.11-.54-2.22-1.08-3.31-1.65-.58-.3-1.16-.6-1.75-.89s-1.19-.56-1.79-.83-.92-.37-1.39-.54c-.62-.24-1.25-.45-1.88-.68-1.1-.39-2.22-.74-3.33-1.11l-3.87-1.29c-1.21-.4-2.42-.83-3.62-1.25-1-.42-2.09-.82-3.12-1.25l-3.38-1.38c-2.34-.94-4.7-1.85-7-2.76-2-.78-4-1.54-6-2.48-1-.47-2-1-3-1.49s-1.75-1-2.62-1.5l-2.75-1.57c-1.17-.67-2.38-1.28-3.57-1.92-1.93-1.05-3.88-2.09-5.78-3.22L66,297.79c-1.08-.63-2.17-1.25-3.26-1.85s-2.08-1.11-3.11-1.69c-.43-.23-.86-.46-1.27-.72l-1.5-1c-.67-.49-1.33-1-2-1.5-.92-.7-1.79-1.45-2.68-2.19-.69-.56-1.35-1.17-2-1.75l-2.73-2.37c-.38-.33-.76-.69-1.14-1s-.77-.76-1.16-1.15c-.65-.66-1.28-1.35-1.92-2l-2-2.22c-.66-.75-1.3-1.51-1.94-2.28-.41-.51-.82-1-1.25-1.53l-1.7-2c-1.11-1.31-2.25-2.6-3.36-3.91-.85-1.05-1.7-2.1-2.47-3.21l-1.16-1.68c-.47-.68-1-1.34-1.47-2-1.74-2.32-3.63-4.54-5.5-6.76-.57-.7-1.13-1.4-1.67-2.13-.67-.91-1.32-1.85-2-2.77s-1.21-1.73-1.8-2.59-1.13-1.59-1.7-2.38-1.32-1.81-2-2.72-1.41-2-2.1-3c-.34-.51-.66-1-1-1.54s-.57-1-.85-1.45-.43-.85-.64-1.27-.33-.73-.5-1.09c-.33-.82-.68-1.62-1-2.45s-.62-1.76-.93-2.65-.59-1.79-.83-2.7-.42-1.7-.63-2.55-.39-1.77-.57-2.65-.38-1.76-.57-2.64c-.38-1.73-.72-3.47-1-5.21-.13-.87-.23-1.73-.3-2.61s-.1-1.76-.11-2.64,0-1.79,0-2.69c0-1.1,0-2.19,0-3.28,0-.78,0-1.56,0-2.34s0-1.49,0-2.24c.06-1.72.2-3.44.35-5.16.11-1.12.2-2.23.27-3.35.08-1.29.2-2.58.29-3.86.16-2.33.27-4.67.46-7,.13-1.16.26-2.32.47-3.47.24-1.35.57-2.66.91-4,.7-2.65,1.45-5.27,2.17-7.91.38-1.38.75-2.77,1.14-4.15s.85-2.71,1.3-4c.38-1.13.77-2.24,1.16-3.36s.86-2.53,1.3-3.78A83,83,0,0,1,16,138.84c.74-1.42,1.52-2.81,2.28-4.22.91-1.66,1.79-3.32,2.71-5s1.86-3.39,2.79-5.09c.44-.81.87-1.63,1.3-2.44.19-.35.37-.71.55-1.07.28-.53.59-1,.88-1.57,1.67-2.94,3.5-5.77,5.45-8.53l-.17.24c1-1.4,2-2.8,3.06-4.18s2.3-3,3.48-4.45l1.62-2c.61-.73,1.23-1.45,1.86-2.17l3.45-4c1.15-1.33,2.41-2.56,3.65-3.8s2.7-2.64,4.09-3.93,2.56-2.27,3.88-3.36c1.53-1.27,3.06-2.55,4.6-3.81q1.88-1.5,3.76-3c1.22-.94,2.46-1.85,3.69-2.77s2.56-1.86,3.84-2.79,2.52-1.74,3.78-2.59,2.54-1.69,3.82-2.52,2.54-1.65,3.82-2.44L88.06,61c1.35-.81,2.7-1.65,4.06-2.45s3-1.74,4.49-2.6c.53-.3,1.06-.61,1.6-.9l2.25-1.21,4.37-2.35c1.58-.84,3.14-1.73,4.7-2.61,1.22-.67,2.46-1.33,3.69-2s2.63-1.36,4-2c3-1.45,6-2.82,9-4.18l2.1-.93c.84-.37,1.71-.69,2.56-1,1.79-.73,3.59-1.43,5.38-2.14l2.15-.86c.72-.29,1.45-.55,2.17-.83,1.65-.63,3.32-1.24,5-1.85.82-.31,1.64-.58,2.47-.88l2-.72c1.74-.62,3.49-1.23,5.25-1.8.89-.29,1.79-.59,2.69-.87l1.31-.41c.44-.14.9-.24,1.35-.37,1.65-.45,3.31-.9,5-1.33s3.37-.85,5.06-1.28,3.34-.9,5-1.33,3.12-.8,4.69-1.17l5.56-1.34c1.6-.4,3.21-.78,4.82-1.14s3.45-.74,5.18-1.1,3.17-.71,4.75-1.06c1.85-.4,3.72-.79,5.58-1.21l4.24-.92,2.21-.49c.9-.2,1.81-.36,2.71-.54.75-.15,1.5-.27,2.25-.41l2.26-.41c1.73-.32,3.45-.61,5.17-.91s3.4-.53,5.11-.78ZM434.92,5.09h0Zm104.65,20.3.11,0-.11,0ZM23.74,260.64l.08.11a1,1,0,0,0-.08-.11Zm653.07-5.41,0,.06.05-.07Zm0,0c0-.06.09-.12.13-.19l-.13.19Z"
     id="path199" />
  <path
     class="cls-10"
     d="M381.82.07c-1.53,0-3.06.06-4.58.06h-6.18c-1.64,0-3.28,0-4.92,0l-2.26,0c-.86,0-1.72.07-2.59.09L350.18.53c-7.06.17-14.12.41-21.17.64l-5.58.18c-1.71.06-3.41.15-5.12.25-.85,0-1.7.07-2.55.14L312.44,2q-2.46.2-4.92.3c-3.7.17-7.4.33-11.1.55l-5.7.38L288,3.46l-2.83.29c-3.59.39-7.17.85-10.76,1.18-1.89.17-3.77.34-5.66.53s-4,.41-6,.63l-4.62.55c-1.84.2-3.68.45-5.52.68-3.59.45-7.18.93-10.77,1.41q-2.93.4-5.87.77l-2.27.27c-1.08.14-2.16.25-3.24.41q-5.34.78-10.64,1.76l-5.14.94c-1.94.36-3.87.81-5.8,1.24l-10.38,2.29c-1.51.34-3,.7-4.55,1s-3.32.71-5,1.09-3.29.79-4.93,1.19L178.77,21c-1.57.39-3.14.77-4.7,1.2-1.9.52-3.81,1-5.72,1.51l-2.06.5-2.31.6-5.36,1.44c-.44.12-.88.28-1.32.41l-.94.3-2.65.86q-2.69.91-5.36,1.87c-1.55.55-3.09,1.09-4.63,1.65l-4.67,1.76c-1.66.64-3.3,1.3-4.94,1.95s-3.46,1.38-5.18,2.09c-1.46.59-2.91,1.23-4.35,1.89q-2.55,1.15-5.09,2.35-2.38,1.13-4.76,2.29c-1.63.8-3.22,1.67-4.81,2.54-1.42.78-2.84,1.56-4.25,2.37-.71.41-1.43.78-2.15,1.17l-2.79,1.49c-1.42.77-2.86,1.52-4.27,2.32-1.83,1-3.66,2.1-5.47,3.16-1.36.8-2.71,1.63-4.06,2.45q-2.4,1.45-4.79,2.94c-1.29.8-2.56,1.64-3.83,2.47-1.53,1-3,2-4.55,3S71,69.54,69.62,70.53c-1.64,1.18-3.25,2.39-4.86,3.59-1.38,1-2.72,2.1-4.06,3.17s-2.82,2.3-4.21,3.46S54,82.82,52.73,83.9c-1.41,1.24-2.78,2.54-4.13,3.85-1.18,1.14-2.34,2.31-3.49,3.47-.52.53-1,1.09-1.5,1.64s-1.15,1.33-1.72,2l-1.73,2c-.52.6-1,1.19-1.55,1.81-1.19,1.47-2.39,2.94-3.56,4.43-1,1.33-2,2.67-3,4-.44.58-.85,1.17-1.27,1.76-.56.78-1.12,1.56-1.66,2.36-1.85,2.72-3.59,5.51-5.17,8.4-.43.78-.83,1.58-1.25,2.37s-.86,1.61-1.3,2.41c-.92,1.7-1.85,3.41-2.79,5.11-.81,1.45-1.58,2.92-2.37,4.38l-1.11,2c-.38.7-.75,1.41-1.11,2.11-1.07,2.09-2.09,4.22-3,6.38s-1.51,4.09-2.22,6.15-1.52,4.4-2.23,6.62c-.14.44-.26.9-.38,1.34-.18.64-.36,1.28-.53,1.92L4.56,164.3c-.58,2.14-1.2,4.28-1.75,6.43-.14.56-.29,1.12-.42,1.69s-.27,1.35-.4,2c-.19,1.05-.28,2.12-.41,3.17-.05.48-.08,1-.12,1.46-.05.66-.09,1.31-.13,2-.08,1.16-.14,2.33-.21,3.49S1,186.72.88,187.81s-.16,2.34-.26,3.5c-.13,1.37-.24,2.73-.34,4.1-.05.66-.09,1.33-.12,2s0,1.27,0,1.91c0,1.45,0,2.89,0,4.33,0,.8,0,1.59,0,2.38,0,.38,0,.76,0,1.14s0,.93,0,1.39c0,.77,0,1.53.1,2.3s.16,1.67.28,2.5.27,1.5.41,2.25.31,1.6.47,2.4c.61,2.95,1.18,5.91,1.91,8.84.39,1.57.93,3.1,1.45,4.63s1.11,2.93,1.74,4.36c.14.32.3.64.45.95s.26.56.41.83c.25.43.49.86.74,1.28s.39.63.59,1c.49.77,1,1.54,1.51,2.3.6.92,1.26,1.8,1.89,2.7.87,1.25,1.77,2.49,2.64,3.74.45.64.87,1.3,1.32,1.94l1.48,2.12c1,1.41,2,2.78,3.08,4.09s2.07,2.49,3.1,3.75,2.11,2.72,3.12,4.11c.43.59.83,1.19,1.23,1.78s1,1.4,1.51,2.1c.28.38.59.74.88,1.1s.47.6.71.88L33,272.7c1.09,1.26,2.16,2.53,3.24,3.8.91,1.13,1.81,2.26,2.76,3.35,1.2,1.37,2.42,2.71,3.66,4,.52.56,1.05,1.1,1.59,1.64.35.36.76.69,1.13,1l.8.71,4.15,3.62C51.52,292,52.82,293,54.11,294c.66.51,1.35,1,2,1.45.3.21.61.4.92.6s.84.49,1.26.73c.64.35,1.29.68,1.92,1L62.53,299c1.55.86,3.08,1.77,4.6,2.68s2.92,1.67,4.38,2.48,3.06,1.63,4.58,2.47c1.37.75,2.74,1.52,4.09,2.32.57.33,1.14.67,1.73,1q1.22.66,2.46,1.29c1.48.74,3,1.38,4.54,2s3.26,1.27,4.89,1.9S97,316.39,98.58,317s3.4,1.41,5.11,2.08c.54.22,1.08.44,1.63.63l1.67.59c1.28.44,2.56.88,3.85,1.3,2.26.75,4.53,1.5,6.77,2.3l.9.34c.3.11.6.25.9.38.67.3,1.31.62,2,.94l2.31,1.19c.79.41,1.6.78,2.4,1.17,1.25.6,2.51,1.16,3.79,1.7,1.59.68,3.22,1.24,4.85,1.83,1.4.5,2.82,1,4.24,1.43l5.24,1.64,2.89.89c.33.1.66.18,1,.27l1.84.52c1.71.47,3.43.94,5.14,1.38l5.21,1.34c1.67.43,3.34.87,5,1.27,1.88.44,3.75.87,5.64,1.28s3.95.85,5.93,1.26c1.56.32,3.11.67,4.66,1s3.35.71,5,1.08l3.41.76c.4.09.8.18,1.21.25l6.91,1.21c3,.52,6,1.08,9,1.53l13.5,2.07,4.1.62c1.73.26,3.47.5,5.19.79s3.48.54,5.21.88,3.36.66,5.06.9,3.68.52,5.52.76c.72.1,1.44.19,2.17.27s1.57.2,2.36.28c3.44.36,6.88.7,10.33.95,3.63.26,7.25.5,10.88.73l5.59.37c.84,0,1.67.1,2.5.17l2.73.25c3.75.38,7.5.73,11.26,1.09,1.59.15,3.17.35,4.76.52l6.39.71c1.8.19,3.61.36,5.42.54l1.95.15,3.52.25c.27,0,.54,0,.81,0l1.8.05,2.62.07c1.77,0,3.54.06,5.32.08l5.59.06c1.83,0,3.65,0,5.47,0,3.65-.06,7.3-.06,10.95,0,.82,0,1.63,0,2.45,0l3.23-.07c1.83,0,3.66-.12,5.49-.18,3.47-.12,6.94-.28,10.41-.35l5.84-.14,2.48-.06c.85,0,1.71,0,2.56-.06,1.83-.08,3.66-.17,5.48-.27s3.68-.23,5.51-.36c3.45-.23,6.89-.6,10.34-.81,1.48-.09,3-.19,4.44-.33,1.84-.18,3.69-.37,5.54-.54s4-.36,6-.54c1.61-.14,3.23-.23,4.85-.36l5.44-.45c2-.18,3.94-.31,5.92-.47,1.49-.13,3-.28,4.48-.43,2.08-.2,4.15-.41,6.23-.64l4.91-.56c1.63-.18,3.26-.31,4.88-.53s3-.35,4.51-.54l5.88-.79c1.53-.21,3.05-.45,4.58-.69,1.77-.27,3.53-.56,5.3-.84,1.56-.25,3.13-.51,4.69-.8l6-1.12c3.38-.62,6.79-1.11,10.17-1.8,1.64-.34,3.28-.67,4.91-1.05l6.35-1.46,4.65-1,5.93-1.28c1.69-.36,3.39-.72,5.07-1.1l5-1.15q5.51-1.28,11-2.62c3.3-.81,6.61-1.58,9.9-2.46,1.59-.42,3.18-.91,4.77-1.37l5-1.43c1.81-.53,3.6-1.1,5.4-1.66s3.56-1.11,5.34-1.65c3.23-1,6.42-2.15,9.61-3.28l4.66-1.68c1.57-.56,3.13-1.13,4.68-1.75l4.94-2c1.44-.58,2.89-1.15,4.32-1.76s2.78-1.25,4.16-1.9,2.94-1.4,4.39-2.13c1.15-.58,2.28-1.22,3.41-1.84,1.31-.71,2.63-1.43,3.92-2.18,1.76-1,3.56-2,5.34-2.95s3.45-2,5.1-3.11c.76-.51,1.5-1,2.25-1.54l1.4-1c.45-.32.89-.66,1.34-1s.88-.69,1.33-1l1.48-1.16c.81-.64,1.59-1.29,2.39-1.94,1.49-1.19,3-2.34,4.44-3.6,1.62-1.43,3.28-2.83,4.94-4.21.72-.58,1.43-1.17,2.14-1.76s1.34-1.16,2-1.74c1.61-1.36,3.21-2.73,4.77-4.16.71-.65,1.41-1.3,2.13-1.94.89-.79,1.79-1.58,2.67-2.38,1.33-1.21,2.61-2.47,3.88-3.74s2.79-2.82,4.16-4.25c.63-.66,1.26-1.31,1.88-2,.83-.87,1.63-1.76,2.42-2.67,1.3-1.51,2.57-3,3.87-4.56s2.43-2.82,3.51-4.34l.18-.25.12-.17c.67-.95,1.31-1.91,2-2.85s1.37-2,2.06-3c1-1.43,2.1-2.84,3.11-4.29.63-.89,1.25-1.78,1.84-2.69s1.23-1.93,1.83-2.91a58,58,0,0,0,2.94-5.84c.45-1,.87-1.95,1.25-2.94s.61-1.73.92-2.6c.28-.72.57-1.44.87-2.15s.66-1.5,1-2.25a24.15,24.15,0,0,0,1.33-4c.27-1.13.37-2.27.53-3.42.08-.59.18-1.19.28-1.78s.2-1.38.29-2.07a20.33,20.33,0,0,0,.05-3.49c-.06-1.1-.17-2.2-.15-3.3s.06-2.21.08-3.31c0-.53,0-1,0-1.57s0-1.22.09-1.82c.12-1.15.32-2.28.5-3.42.1-.59.17-1.19.22-1.79a14.23,14.23,0,0,0,0-2c0-1.19-.26-2.37-.41-3.55a14.58,14.58,0,0,0-.31-1.73c-.16-.73-.39-1.44-.61-2.14-.42-1.35-.76-2.72-1.08-4.09-.16-.69-.33-1.38-.5-2.07s-.46-1.61-.69-2.42-.38-1.35-.56-2-.35-1.39-.55-2.09c-.45-1.56-1.07-3.07-1.65-4.59-.51-1.33-.93-2.69-1.36-4q-.75-2.32-1.66-4.59c-.57-1.39-1.16-2.78-1.7-4.18s-1-2.83-1.56-4.24-1-2.57-1.61-3.84c-.75-1.61-1.61-3.18-2.46-4.74-.75-1.39-1.54-2.76-2.28-4.16s-1.5-2.84-2.26-4.25c-.66-1.23-1.37-2.44-2.08-3.65-.33-.57-.66-1.16-1-1.73s-.79-1.31-1.18-2-.88-1.4-1.33-2.1c-.24-.36-.52-.7-.77-1s-.4-.54-.61-.8c-.5-.64-1-1.27-1.51-1.92s-1.15-1.47-1.76-2.18-1.09-1.29-1.65-1.93-1.22-1.34-1.83-2c-1.19-1.29-2.43-2.52-3.66-3.77-1.06-1.09-2.07-2.24-3.12-3.35-1.26-1.33-2.53-2.66-3.82-4-1.1-1.13-2.23-2.23-3.37-3.32-1.35-1.3-2.78-2.51-4.2-3.72l-3.51-3-1.91-1.67c-.7-.62-1.37-1.28-2-1.94s-1.09-1.12-1.64-1.67l-1.88-1.92-1.47-1.48c-.73-.77-1.44-1.54-2.15-2.32-2.28-2.47-4.64-4.84-7-7.2q-1.7-1.65-3.3-3.39t-3.43-3.59c-1.06-1.07-2.11-2.17-3.26-3.16-.57-.49-1.14-1-1.74-1.44s-1.3-1-2-1.47-1.26-.86-1.9-1.28-1.44-1-2.18-1.4l-1.8-1.1c-.69-.43-1.4-.83-2.09-1.24-1.35-.79-2.72-1.52-4-2.35-1.61-1-3.23-2-4.89-2.95l-2.4-1.35c-.74-.44-1.51-.84-2.27-1.26s-1.43-.81-2.15-1.21-1.63-.87-2.45-1.3c-1.5-.81-3-1.59-4.5-2.39S575.59,42,574,41.19c-.72-.35-1.45-.69-2.17-1s-1.51-.7-2.26-1c-1.63-.75-3.24-1.54-4.87-2.29-.74-.34-1.49-.65-2.22-1s-1.53-.75-2.3-1.13c-1.23-.62-2.45-1.26-3.69-1.88a.47.47,0,0,0,.54-.22.46.46,0,0,0-.19-.61q-2.42-1.29-4.88-2.47c-1.7-.82-3.45-1.53-5.19-2.26l-4.88-2c-.67-.27-1.33-.57-2-.81l-2.37-.86C534,22.33,530.5,21.13,527,20l-2.27-.69c-.76-.23-1.53-.43-2.3-.64s-1.61-.41-2.42-.6l-2.52-.65c-1.7-.43-3.42-.83-5.13-1.23s-3.68-.83-5.52-1.22l-4.91-1.06c-1.84-.39-3.66-.8-5.49-1.2l-2.4-.54c-.81-.19-1.63-.39-2.45-.56l-3-.61c-1.09-.23-2.18-.41-3.27-.62-3.38-.64-6.77-1.24-10.15-1.88L472.36,8c-.91-.18-1.83-.32-2.75-.47-1.61-.28-3.23-.51-4.86-.73s-3.41-.48-5.12-.68l-4.8-.54c-1.55-.18-3.09-.36-4.63-.57l-2.38-.35-3-.37c-1.56-.19-3.12-.35-4.68-.51-1.75-.18-3.5-.37-5.26-.54-1.57-.16-3.14-.36-4.72-.51q-2.89-.25-5.79-.48c-.69,0-1.39-.12-2.09-.16l-2.63-.14c-1.92-.1-3.82-.24-5.73-.4L403.24.68,398.17.29c-.87-.06-1.75-.1-2.63-.15S393.82.05,393,0q-2,0-4,0c-2.36,0-4.73,0-7.09.07ZM230.17,12.6c1.75-.25,3.51-.44,5.27-.65,2-.24,4-.49,6-.75l5.14-.69,5.64-.72c1.8-.22,3.6-.46,5.41-.67,3.55-.39,7.09-.83,10.64-1.18s7.24-.64,10.85-1.06l5.53-.63c.83-.09,1.66-.2,2.48-.27l3.52-.32c1-.09,2-.14,3-.21l2.49-.16c1.73-.11,3.45-.21,5.17-.29l5.83-.27,2-.11c1-.07,2-.11,3.05-.19l3.31-.27c.76-.06,1.52-.09,2.27-.13,1.74-.1,3.46-.21,5.2-.28l10.83-.38c7.37-.26,14.73-.51,22.09-.7l4.88-.12c1.66,0,3.32-.14,5-.17,3.74-.07,7.48-.06,11.22-.08,1.51,0,3,0,4.53-.07l6.36-.1c1.56,0,3.12,0,4.68,0,1.84,0,3.69.13,5.53.23,1.18.06,2.36.16,3.55.24l4.35.32,8,.59c1.32.1,2.65.19,4,.27s2.92.14,4.37.22,2.63.19,3.95.28,2.71.22,4.07.34,3,.31,4.48.45c3.36.33,6.73.64,10.09,1q1.26.14,2.52.3l2.39.32c1.73.23,3.46.41,5.18.6l4.26.45c1.87.2,3.73.45,5.59.69,1.48.19,3,.4,4.41.64l2.75.45c1.11.18,2.22.41,3.33.61,3.4.63,6.81,1.21,10.22,1.83l2.7.49c1,.19,2,.4,3,.6.82.16,1.64.35,2.46.54s1.88.4,2.83.6l5.07,1.07c1.69.34,3.37.7,5.06,1.05s3.6.74,5.39,1.15,3.54.81,5.31,1.24,3.84.91,5.75,1.41,3.56,1,5.33,1.53c1,.3,1.94.62,2.9.93l3.08,1c1.73.56,3.45,1.19,5.17,1.79Q544,27.13,548.45,29l1.77.75c.63.27,1.25.57,1.87.87,1.4.66,2.79,1.37,4.16,2.1l-.94-.47c-1.45-.69-2.89-1.4-4.35-2.07s-3-1.21-4.45-1.74c-.34-.13-.56.47-.22.6,1.33.54,2.65,1.07,3.94,1.68s2.62,1.33,3.93,2,2.44,1.28,3.66,1.94c1.38.75,2.75,1.52,4.15,2.22.61.3,1.23.58,1.84.85s1.22.59,1.83.9c1.36.69,2.73,1.36,4.11,2s2.68,1.27,4,2,2.63,1.32,3.93,2c.64.33,1.26.68,1.89,1l1.87,1c1.3.7,2.6,1.39,3.88,2.12s2.71,1.53,4.06,2.29c.66.38,1.32.78,2,1.16s1.56.9,2.33,1.37c1.23.75,2.43,1.55,3.65,2.3s2.36,1.36,3.53,2.06c.55.32,1.1.64,1.64,1s1.19.74,1.79,1.11c1.29.81,2.56,1.66,3.82,2.52.49.35,1,.71,1.45,1.07s1.15.91,1.71,1.39a42.85,42.85,0,0,1,3.44,3.3c1.15,1.2,2.3,2.41,3.43,3.63l1.59,1.72c.63.67,1.27,1.31,1.92,2,2.28,2.28,4.56,4.57,6.74,7l1.89,2.07c.57.63,1.17,1.23,1.77,1.83l3.68,3.77c1,1.08,2.15,2.1,3.29,3.1,1.31,1.15,2.63,2.3,4,3.43l1.94,1.68c.66.57,1.3,1.15,2,1.74s1.19,1.15,1.78,1.73l2.09,2.08q1.63,1.65,3.23,3.35c1.21,1.28,2.39,2.58,3.6,3.85s2.3,2.35,3.44,3.54c1.31,1.37,2.56,2.78,3.78,4.22l.15.17c.88,1.09,1.77,2.19,2.63,3.3a38.76,38.76,0,0,1,2.61,3.63c.67,1.1,1.34,2.19,2,3.3s1.36,2.35,2,3.52,1.39,2.49,2,3.74c.56,1.06,1.13,2.11,1.7,3.16q1.15,2.08,2.3,4.17c.74,1.34,1.41,2.72,2.05,4.12.31.73.62,1.47.9,2.21l.82,2.23c.29.77.55,1.56.85,2.33s.71,1.83,1.09,2.74.7,1.7,1,2.55.68,1.87,1,2.82c.56,1.7,1.07,3.4,1.7,5.07.31.84.63,1.67.93,2.51s.52,1.62.73,2.44l.6,2.42c.24.92.51,1.83.75,2.75.47,1.72.8,3.48,1.22,5.22.18.77.4,1.53.62,2.29s.37,1.43.51,2.16c.12,1,.23,1.95.34,2.92a19.9,19.9,0,0,1,.07,2.78c-.17,1.54-.49,3.05-.69,4.57a44.87,44.87,0,0,0-.24,4.63c0,1.56-.16,3.12-.06,4.68,0,.75.09,1.49.13,2.24,0,.38,0,.77,0,1.16s0,.78-.06,1.17c-.19,1.56-.48,3.1-.66,4.65-.08.76-.19,1.52-.33,2.27a19.13,19.13,0,0,1-.7,2.49c-.19.53-.4,1.06-.62,1.58-.32.75-.66,1.5-1,2.26s-.6,1.44-.86,2.17-.47,1.4-.72,2.09c-.44,1.17-.93,2.31-1.44,3.44l-.87,1.89c-.33.72-.68,1.45-1,2.16-.73,1.37-1.55,2.7-2.39,4-.38.59-.75,1.18-1.15,1.76s-.79,1.13-1.19,1.7c-.56.78-1.14,1.55-1.71,2.33s-1.15,1.61-1.72,2.42-1,1.43-1.46,2.13-1.13,1.61-1.68,2.42c-.83,1.16-1.7,2.27-2.63,3.35-1.23,1.44-2.47,2.88-3.69,4.32s-2.29,2.68-3.51,4-2.32,2.4-3.48,3.59c-2.33,2.39-4.72,4.73-7.23,6.93-1.38,1.23-2.8,2.41-4.18,3.64s-2.81,2.43-4.25,3.62l-1.89,1.55c-1.51,1.23-3,2.41-4.53,3.65l-2.47,2-2.1,1.79c-1.35,1-2.72,2.07-4.05,3.13-1.73,1.37-3.5,2.71-5.28,4-.71.52-1.45,1-2.17,1.48s-1.67,1.14-2.53,1.69c-.68.43-1.36.88-2.06,1.29-.9.53-1.8,1-2.71,1.53s-1.79,1-2.69,1.46-1.74,1-2.61,1.47-1.49.83-2.23,1.24l-2.15,1.19-2.12,1.14c-.7.37-1.42.71-2.13,1.07-1.8.88-3.61,1.72-5.43,2.56-1.22.53-2.46,1-3.69,1.54l-4.89,2c-1.55.63-3.09,1.23-4.65,1.81s-3.21,1.14-4.81,1.73c-3.34,1.22-6.7,2.42-10.08,3.51-1.59.52-3.18,1-4.77,1.5l-5.4,1.7c-3.41,1-6.84,2-10.26,3.05-1.41.42-2.84.8-4.27,1.17-1.91.51-3.81,1-5.73,1.48-3.29.83-6.58,1.68-9.88,2.47-3.48.82-7,1.67-10.44,2.45l-5.7,1.27c-1.95.43-3.91.85-5.85,1.3l-6.16,1.45c-1.89.44-3.78.85-5.68,1.25-.82.18-1.65.33-2.48.49l-2.85.53c-1.14.21-2.28.39-3.42.59s-2,.39-3.06.58c-1.81.34-3.63.7-5.44,1s-3.77.67-5.66,1c-3.3.54-6.6,1.09-9.92,1.53l-5.13.68c-.78.09-1.55.18-2.33.29s-1.78.22-2.67.32c-1.58.17-3.17.35-4.75.54-1.74.2-3.47.42-5.22.6-3.67.36-7.34.76-11,1-1.84.13-3.68.3-5.52.45s-3.64.3-5.46.43c-3.66.26-7.32.6-11,1-1.54.15-3.08.29-4.62.41-1.72.14-3.45.21-5.17.34s-3.3.31-4.95.42l-6,.41c-1.52.1-3,.17-4.56.26s-3,.13-4.46.15l-10.06.18c-3.16,0-6.31.18-9.47.29l-4.84.15-2.27,0c-.76,0-1.52,0-2.28,0q-5.07,0-10.16-.05l-4.38,0c-1.84,0-3.68,0-5.53-.06l-9.46-.15c-1.71,0-3.42-.1-5.13-.15-.75,0-1.51-.11-2.27-.16l-2.76-.2c-2.2-.22-4.41-.44-6.61-.68l-6.67-.74c-1.19-.13-2.38-.28-3.56-.39l-3.7-.36c-2.46-.23-4.91-.48-7.37-.73-2.28-.23-4.56-.39-6.85-.55l-6.14-.39c-2.66-.17-5.31-.34-8-.54-2.24-.16-4.48-.35-6.72-.54-1.59-.17-3.19-.31-4.78-.51l-3.23-.39c-1.06-.13-2.11-.28-3.17-.43-1.65-.22-3.3-.46-4.95-.75-.85-.15-1.7-.31-2.54-.48s-1.77-.34-2.66-.49c-1.55-.26-3.09-.52-4.64-.76l-7.21-1.1-12-1.84c-1.29-.2-2.59-.37-3.87-.6l-5.87-1-7.28-1.29-1.35-.23c-.28-.05-.57-.13-.85-.19l-2.4-.54c-3.48-.79-7-1.54-10.44-2.3-1.53-.34-3.07-.64-4.6-1-2-.46-4.07-.91-6.1-1.39-2.89-.69-5.75-1.46-8.62-2.22s-6-1.61-9-2.46c-.59-.17-1.18-.32-1.76-.5l-2.72-.85-4.14-1.31c-1.33-.41-2.66-.84-4-1.3l-3.8-1.36c-2-.78-3.9-1.62-5.81-2.54-1.11-.54-2.22-1.08-3.31-1.65-.58-.3-1.16-.6-1.75-.89s-1.19-.56-1.79-.83-.92-.37-1.39-.54c-.62-.24-1.25-.45-1.88-.68-1.1-.39-2.22-.74-3.33-1.11l-3.87-1.29c-1.21-.4-2.42-.83-3.62-1.25-1-.42-2.09-.82-3.12-1.25l-3.38-1.38c-2.34-.94-4.7-1.85-7-2.76-2-.78-4-1.54-6-2.48-1-.47-2-1-3-1.49s-1.75-1-2.62-1.5l-2.75-1.57c-1.17-.67-2.38-1.28-3.57-1.92-1.93-1.05-3.88-2.09-5.78-3.22L66,297.79c-1.08-.63-2.17-1.25-3.26-1.85s-2.08-1.11-3.11-1.69c-.43-.23-.86-.46-1.27-.72l-1.5-1c-.67-.49-1.33-1-2-1.5-.92-.7-1.79-1.45-2.68-2.19-.69-.56-1.35-1.17-2-1.75l-2.73-2.37c-.38-.33-.76-.69-1.14-1s-.77-.76-1.16-1.15c-.65-.66-1.28-1.35-1.92-2l-2-2.22c-.66-.75-1.3-1.51-1.94-2.28-.41-.51-.82-1-1.25-1.53l-1.7-2c-1.11-1.31-2.25-2.6-3.36-3.91-.85-1.05-1.7-2.1-2.47-3.21l-1.16-1.68c-.47-.68-1-1.34-1.47-2-1.74-2.32-3.63-4.54-5.5-6.76-.57-.7-1.13-1.4-1.67-2.13-.67-.91-1.32-1.85-2-2.77s-1.21-1.73-1.8-2.59-1.13-1.59-1.7-2.38-1.32-1.81-2-2.72-1.41-2-2.1-3c-.34-.51-.66-1-1-1.54s-.57-1-.85-1.45-.43-.85-.64-1.27-.33-.73-.5-1.09c-.33-.82-.68-1.62-1-2.45s-.62-1.76-.93-2.65-.59-1.79-.83-2.7-.42-1.7-.63-2.55-.39-1.77-.57-2.65-.38-1.76-.57-2.64c-.38-1.73-.72-3.47-1-5.21-.13-.87-.23-1.73-.3-2.61s-.1-1.76-.11-2.64,0-1.79,0-2.69c0-1.1,0-2.19,0-3.28,0-.78,0-1.56,0-2.34s0-1.49,0-2.24c.06-1.72.2-3.44.35-5.16.11-1.12.2-2.23.27-3.35.08-1.29.2-2.58.29-3.86.16-2.33.27-4.67.46-7,.13-1.16.26-2.32.47-3.47.24-1.35.57-2.66.91-4,.7-2.65,1.45-5.27,2.17-7.91.38-1.38.75-2.77,1.14-4.15s.85-2.71,1.3-4c.38-1.13.77-2.24,1.16-3.36s.86-2.53,1.3-3.78A83,83,0,0,1,16,138.84c.74-1.42,1.52-2.81,2.28-4.22.91-1.66,1.79-3.32,2.71-5s1.86-3.39,2.79-5.09c.44-.81.87-1.63,1.3-2.44.19-.35.37-.71.55-1.07.28-.53.59-1,.88-1.57,1.67-2.94,3.5-5.77,5.45-8.53l-.17.24c1-1.4,2-2.8,3.06-4.18s2.3-3,3.48-4.45l1.62-2c.61-.73,1.23-1.45,1.86-2.17l3.45-4c1.15-1.33,2.41-2.56,3.65-3.8s2.7-2.64,4.09-3.93,2.56-2.27,3.88-3.36c1.53-1.27,3.06-2.55,4.6-3.81q1.88-1.5,3.76-3c1.22-.94,2.46-1.85,3.69-2.77s2.56-1.86,3.84-2.79,2.52-1.74,3.78-2.59,2.54-1.69,3.82-2.52,2.54-1.65,3.82-2.44L88.06,61c1.35-.81,2.7-1.65,4.06-2.45s3-1.74,4.49-2.6c.53-.3,1.06-.61,1.6-.9l2.25-1.21,4.37-2.35c1.58-.84,3.14-1.73,4.7-2.61,1.22-.67,2.46-1.33,3.69-2s2.63-1.36,4-2c3-1.45,6-2.82,9-4.18l2.1-.93c.84-.37,1.71-.69,2.56-1,1.79-.73,3.59-1.43,5.38-2.14l2.15-.86c.72-.29,1.45-.55,2.17-.83,1.65-.63,3.32-1.24,5-1.85.82-.31,1.64-.58,2.47-.88l2-.72c1.74-.62,3.49-1.23,5.25-1.8.89-.29,1.79-.59,2.69-.87l1.31-.41c.44-.14.9-.24,1.35-.37,1.65-.45,3.31-.9,5-1.33s3.37-.85,5.06-1.28,3.34-.9,5-1.33,3.12-.8,4.69-1.17l5.56-1.34c1.6-.4,3.21-.78,4.82-1.14s3.45-.74,5.18-1.1,3.17-.71,4.75-1.06c1.85-.4,3.72-.79,5.58-1.21l4.24-.92,2.21-.49c.9-.2,1.81-.36,2.71-.54.75-.15,1.5-.27,2.25-.41l2.26-.41c1.73-.32,3.45-.61,5.17-.91s3.4-.53,5.11-.78ZM434.92,5.09h0Zm104.65,20.3.11,0-.11,0ZM23.74,260.64l.08.11a1,1,0,0,0-.08-.11Zm653.07-5.41,0,.06.05-.07Zm0,0c0-.06.09-.12.13-.19l-.13.19Z"
     id="path227" />
  <metadata
     id="metadata253">
    <rdf:RDF>
      <cc:Work
         rdf:about="">
        <dc:title>pizza_6</dc:title>
      </cc:Work>
    </rdf:RDF>
  </metadata>
</svg>
