<?xml version="1.0" encoding="UTF-8" standalone="no"?>
<!-- Created with Inkscape (http://www.inkscape.org/) -->

<svg
   width="210mm"
   height="371.25mm"
   viewBox="0 0 210 371.25"
   version="1.1"
   id="svg5"
   xml:space="preserve"
   sodipodi:docname="MessengerPapercraft.svg"
   inkscape:version="1.2.2 (b0a8486541, 2022-12-01)"
   inkscape:export-filename="MessengerPapercraft.png"
   inkscape:export-xdpi="300"
   inkscape:export-ydpi="300"
   xmlns:inkscape="http://www.inkscape.org/namespaces/inkscape"
   xmlns:sodipodi="http://sodipodi.sourceforge.net/DTD/sodipodi-0.dtd"
   xmlns:xlink="http://www.w3.org/1999/xlink"
   xmlns="http://www.w3.org/2000/svg"
   xmlns:svg="http://www.w3.org/2000/svg"><sodipodi:namedview
     id="namedview7"
     pagecolor="#ffffff"
     bordercolor="#666666"
     borderopacity="1.0"
     inkscape:showpageshadow="2"
     inkscape:pageopacity="1"
     inkscape:pagecheckerboard="0"
     inkscape:deskcolor="#d1d1d1"
     inkscape:document-units="mm"
     showgrid="false"
     inkscape:zoom="8"
     inkscape:cx="333.3125"
     inkscape:cy="356.8125"
     inkscape:window-width="1920"
     inkscape:window-height="1022"
     inkscape:window-x="0"
     inkscape:window-y="0"
     inkscape:window-maximized="1"
     inkscape:current-layer="layer3"
     showguides="true"><sodipodi:guide
       position="82.928866,287.92217"
       orientation="1,0"
       id="guide47612"
       inkscape:locked="false" /></sodipodi:namedview><defs
     id="defs2" /><g
     inkscape:label="Layer 1"
     inkscape:groupmode="layer"
     id="layer1"
     style="display:none"
     transform="translate(0,74.25)"
     sodipodi:insensitive="true"><image
       width="210"
       height="297.00415"
       preserveAspectRatio="none"
       xlink:href="textures/NanahiraPapercraft.jpg"
       id="image312"
       x="0"
       y="0"
       style="display:inline;opacity:1"
       sodipodi:insensitive="true" /></g><g
     inkscape:groupmode="layer"
     id="layer3"
     inkscape:label="Fill"
     style="display:inline"
     transform="translate(0,74.25)"><path
       style="display:inline;fill:#f7e3d5;fill-opacity:1;stroke:none;stroke-width:0.264583px;stroke-linecap:butt;stroke-linejoin:miter;stroke-opacity:1"
       d="m 117.47681,159.00667 0.0363,-31.65067 C 117.84131,87.824153 117.169,82.781968 103.88332,79.180025 H 60.71018 C 49.639996,82.303012 47.56708,83.907894 47.442839,127.4242 l 0.01074,31.58247 z"
       id="path11760"
       sodipodi:nodetypes="ccccccc"
       inkscape:label="Face" /><path
       id="ellipse12093"
       style="display:inline;opacity:1;fill:#2d69b4;fill-opacity:1;stroke:none;stroke-width:0.15;paint-order:markers fill stroke;stop-color:#000000;stop-opacity:1"
       d="m 71.973783,112.30673 a 4.3664374,8.7328749 0 0 1 -4.366437,8.73288 4.3664374,8.7328749 0 0 1 -4.366438,-8.73288 4.3664374,8.7328749 0 0 1 4.366438,-8.73287 4.3664374,8.7328749 0 0 1 4.366437,8.73287 z m 29.636007,0 a 4.3664374,8.7328749 0 0 1 -4.366435,8.73288 4.3664374,8.7328749 0 0 1 -4.366438,-8.73288 4.3664374,8.7328749 0 0 1 4.366438,-8.73287 4.3664374,8.7328749 0 0 1 4.366435,8.73287 z"
       inkscape:label="Eyes" /><path
       id="ellipse12097"
       style="display:inline;opacity:1;fill:#fac9c1;fill-opacity:1;stroke:none;stroke-width:0.15;paint-order:markers fill stroke;stop-color:#000000;stop-opacity:1"
       d="m 62.953187,120.91177 a 3.7924469,2.3438611 0 0 1 -3.792447,2.34386 3.7924469,2.3438611 0 0 1 -3.792447,-2.34386 3.7924469,2.3438611 0 0 1 3.792447,-2.34386 3.7924469,2.3438611 0 0 1 3.792447,2.34386 z m 46.461233,0 a 3.7924469,2.3438611 0 0 1 -3.79245,2.34386 3.7924469,2.3438611 0 0 1 -3.79245,-2.34386 3.7924469,2.3438611 0 0 1 3.79245,-2.34386 3.7924469,2.3438611 0 0 1 3.79245,2.34386 z"
       inkscape:label="Blush" /><path
       id="path12594"
       style="font-variation-settings:normal;display:inline;opacity:1;fill:#eab19d;fill-opacity:1;stroke:none;stroke-width:0.405329;stroke-linecap:round;stroke-linejoin:miter;stroke-miterlimit:4;stroke-dasharray:none;stroke-dashoffset:0;stroke-opacity:1;paint-order:markers fill stroke;stop-color:#000000;stop-opacity:1"
       d="m 76.768441,119.07645 c -1.66e-4,2.87682 2.483577,5.20902 5.547465,5.20899 3.063888,3e-5 5.547631,-2.33217 5.547465,-5.20899 -0.02156,-1.54461 -11.064511,-1.32426 -11.09493,0 z"
       sodipodi:nodetypes="cccc"
       inkscape:label="Mouth" /><path
       style="display:inline;opacity:1;fill:#c9c5d6;fill-opacity:1;stroke:none;stroke-width:0.264583px;stroke-linecap:butt;stroke-linejoin:miter;stroke-opacity:1"
       d="m 47.453579,159.00667 h 15.420297 l 0.234754,-0.48148 h 8.98398 l 0.257858,0.48148 h 20.238069 l 0.234756,-0.48148 h 9.035617 l 0.25786,0.48148 h 15.36004 l 0.0566,77.43534 32.68819,-0.10908 0.0176,50.31478 -32.8741,-8.8e-4 C 116.34216,297 105.73023,297 99.3984,288.60829 l 2.13334,-0.91591 -5.056929,-4.41017 c 8.334859,-0.70039 8.162529,-3.43742 8.310459,-19.94991 -16.666017,-2.93007 -28.078157,-2.01781 -44.605462,-0.009 0.04653,20.34626 0.58199,19.25739 8.23764,20.02482 -1.708159,1.5253 -3.499785,3.45455 -5.090258,4.41029 l 2.350939,0.82401 C 59.443215,297 48.541706,296.4621 47.553081,286.68246 l -32.874045,0.003 -0.02481,-50.35706 32.674659,0.0508 z"
       id="path10939"
       inkscape:label="HairBlock"
       sodipodi:nodetypes="ccccccccccccccccccccccccccc" /><path
       id="path11670"
       style="display:inline;fill:#f7e3d5;fill-opacity:1;stroke:none;stroke-width:0.264583px;stroke-linecap:butt;stroke-linejoin:miter;stroke-opacity:1"
       d="m 49.464965,268.81582 c -9.211334,-4.54486 -7.825664,9.80023 0,12.44293 z m 66.001895,0 c 9.21134,-4.54486 7.82567,9.80023 0,12.44293 z"
       inkscape:label="Ears" /><rect
       style="font-variation-settings:normal;display:inline;opacity:1;fill:#f7e3d5;fill-opacity:1;stroke:none;stroke-width:0.4;stroke-linecap:round;stroke-linejoin:miter;stroke-miterlimit:4;stroke-dasharray:none;stroke-dashoffset:0;stroke-opacity:1;paint-order:markers fill stroke;stop-color:#000000;stop-opacity:1"
       id="rect13585"
       width="16.794884"
       height="110.81242"
       x="12.707299"
       y="23.222742"
       inkscape:label="Hands" /><rect
       style="font-variation-settings:normal;display:inline;opacity:1;fill:#5c7692;fill-opacity:1;stroke:none;stroke-width:0.363697;stroke-linecap:round;stroke-linejoin:miter;stroke-miterlimit:4;stroke-dasharray:none;stroke-dashoffset:0;stroke-opacity:1;paint-order:markers fill stroke;stop-color:#000000;stop-opacity:1"
       id="rect13659"
       width="16.794884"
       height="91.610954"
       x="12.707299"
       y="32.802513"
       inkscape:label="Sleeves" /><path
       id="path14566"
       style="color:#000000;fill:#a5c5e8;fill-opacity:1;stroke-linecap:round;-inkscape-stroke:none;paint-order:markers fill stroke"
       d="m 14.775326,33.935847 v 0.19895 36.062914 h 3.140893 3.175517 3.176033 3.140377 V 33.935847 h -3.140377 -3.176033 -3.175517 z m 0.400492,0.39842 h 2.54093 v 35.462954 h -2.54093 z m 2.941422,0 h 2.775542 V 69.797221 H 18.11724 Z m 3.173967,0 h 2.775024 v 35.462954 h -2.775024 z m 3.175517,0 h 2.54093 v 35.462954 h -2.54093 z m -9.691398,52.75899 v 0.19895 36.062923 h 3.140893 3.175517 3.176033 3.140377 V 87.093257 h -3.140377 -3.176033 -3.175517 z m 0.400492,0.39842 h 2.54093 v 35.462963 h -2.54093 z m 2.941422,0 h 2.775542 V 122.95464 H 18.11724 Z m 3.173967,0 h 1.387512 1.387512 v 35.462963 h -2.775024 z m 3.175517,0 h 2.54093 v 35.462963 h -2.54093 z"
       inkscape:label="SleevesDecor"
       sodipodi:nodetypes="ccccccccccccccccccccccccccccccccccccccccccccccccccccccccccccccccc" /><path
       id="rect15505"
       style="display:inline;opacity:1;vector-effect:none;fill:#f7e3d5;fill-opacity:1;stroke-width:0.171299;stroke-linecap:round;paint-order:markers fill stroke;stop-color:#000000;stop-opacity:1"
       inkscape:label="Legs"
       d="M 4.2849927,149.22681 H 20.998805 v 12.08221 H 4.2849927 Z m 19.2429633,0 h 16.713812 v 12.08221 H 23.527956 Z" /><path
       id="path44337"
       style="display:inline;opacity:1;vector-effect:none;fill:#454142;fill-opacity:1;stroke-width:0.246118;stroke-linecap:round;paint-order:markers fill stroke;stop-color:#000000;stop-opacity:1"
       d="m 4.3032999,174.28962 h 4.1784527 l 4.1784534,4.70128 4.077155,-4.70128 h 4.279751 v 29.71455 H 4.3032999 Z m 19.2246561,0 h 4.178453 l 4.178453,4.70128 4.077155,-4.70128 h 4.279751 v 29.71455 H 23.527956 Z"
       sodipodi:nodetypes="cccccccccccccccc" /><path
       id="rect15509"
       style="display:inline;opacity:1;vector-effect:none;fill:#2e2b2c;stroke-width:0.11943;stroke-linecap:round;paint-order:markers fill stroke;stop-color:#000000;stop-opacity:1;fill-opacity:1"
       inkscape:label="ShoeHeels"
       d="M 4.2849927,193.35822 H 20.998805 v 5.87311 H 4.2849927 Z m 19.2429633,0 h 16.713812 v 5.87311 H 23.527956 Z" /><path
       id="path15586"
       style="display:inline;fill:#c9c5d6;fill-opacity:1;stroke:none;stroke-width:0.264583px;stroke-linecap:butt;stroke-linejoin:miter;stroke-opacity:1"
       d="m 145.22834,43.676921 c -1.53636,0.0311 -3.07171,0.56843 -4.60643,1.514636 3.60518,3.406482 -0.42203,12.208267 -10.04848,15.626436 v 34.11213 0.72347 34.112127 c 9.62645,3.41818 13.65366,12.21945 10.04848,15.62592 4.09258,2.52322 8.19057,2.13883 12.29692,-2.99878 7.10093,-0.0312 10.64764,-3.99661 13.44776,-8.78861 2.80012,4.792 6.34682,8.75742 13.44776,8.78861 4.10635,5.13761 8.20434,5.522 12.29692,2.99878 -3.60519,-3.40647 0.42203,-12.20774 10.04848,-15.62592 v -34.112127 -0.72347 -34.11213 c -9.62645,-3.418169 -13.65367,-12.219954 -10.04848,-15.626436 -1.53472,-0.946206 -3.07007,-1.483531 -4.60644,-1.514636 -2.5606,-0.05184 -5.12401,1.302407 -7.69048,4.513419 -7.10094,0.03119 -10.64764,3.997121 -13.44776,8.789128 -2.80012,-4.792007 -6.34683,-8.757938 -13.44776,-8.789128 -2.56648,-3.211012 -5.12988,-4.565259 -7.69049,-4.513419 z m 21.13825,33.97312 1.58492,2.644799 -1.58492,2.879411 -1.58492,-2.879411 z m 0,29.758909 1.58492,2.87993 -1.58492,2.6448 -1.58492,-2.6448 z"
       inkscape:label="HairExtension" /><path
       id="path15652"
       style="display:inline;opacity:1;fill:#b6b0c8;fill-opacity:1;stroke:none;stroke-width:0.264583px;stroke-linecap:butt;stroke-linejoin:miter;stroke-opacity:1"
       d="m 145.43298,43.8335 c -1.56341,-0.02586 -3.16677,0.480434 -4.81107,1.527556 l 3.05666,0.83199 c 2.47925,0.762768 3.79829,2.712551 4.22971,5.830135 1.29528,-0.741698 2.61602,-1.283209 3.96927,-1.565279 l 1.04128,-2.098063 c -2.3857,-2.961625 -4.88015,-4.483229 -7.48585,-4.526339 z m 41.86722,0 c -2.6057,0.04311 -5.10016,1.564714 -7.48585,4.526339 l 1.04128,2.098063 c 1.35325,0.28207 2.67399,0.823581 3.96926,1.565279 0.43142,-3.117584 1.75047,-5.067367 4.22972,-5.830135 l 3.05666,-0.83199 c -1.6443,-1.047122 -3.24767,-1.55342 -4.81107,-1.527556 z m -23.72052,9.163782 -1.15239,1.731677 c 3.44051,11.554592 -1.31577,21.999318 -8.17107,25.630477 13.09068,6.036694 12.96429,23.499884 0,30.033824 6.8553,3.63117 11.61158,14.07588 8.17107,25.63048 l 1.15239,1.73219 c 1.12621,-1.28423 1.99231,-2.70002 2.78691,-4.15168 0.7946,1.45166 1.6607,2.86745 2.78691,4.15168 l 1.15238,-1.73219 c -3.4405,-11.5546 1.31578,-21.99931 8.17108,-25.63048 -12.9643,-6.53394 -13.09069,-23.99713 0,-30.033824 -6.8553,-3.631159 -11.61158,-14.075885 -8.17108,-25.630477 l -1.15238,-1.731677 c -1.12621,1.284225 -1.99231,2.69951 -2.78691,4.151168 -0.7946,-1.451658 -1.6607,-2.866943 -2.78691,-4.151168 z m 2.78691,24.821741 1.58492,2.644799 -1.58492,2.879928 -1.58492,-2.879928 z m 0,29.589927 1.58492,2.87993 -1.58492,2.6448 -1.58492,-2.6448 z m -18.45831,31.32057 c -0.43142,3.11757 -1.75046,5.06736 -4.22971,5.83013 l -3.05666,0.83199 c 4.38478,2.79233 8.47981,1.73981 12.29692,-2.99878 l -1.04128,-2.09806 c -1.35325,-0.28207 -2.67399,-0.82358 -3.96927,-1.56528 z m 36.91661,0 c -1.29527,0.7417 -2.61601,1.28321 -3.96926,1.56528 l -1.04128,2.09806 c 3.81711,4.73859 7.91214,5.79111 12.29692,2.99878 l -3.05666,-0.83199 c -2.47925,-0.76277 -3.7983,-2.71256 -4.22972,-5.83013 z"
       inkscape:label="HairExtensionDark" /><path
       style="display:inline;opacity:1;fill:#454142;fill-opacity:1;stroke:none;stroke-width:0.264583px;stroke-linecap:butt;stroke-linejoin:miter;stroke-opacity:1"
       d="m 166.38871,246.39733 35.91032,12.17492 -0.004,-40.22811 -13.32886,-23.05648 -2.05875,0.38068 -3.26155,-1.92548 -0.94895,0.61219 -5.34778,-3.17882 0.0564,-1.1174 -12.76041,-7.53323 -0.9828,0.61674 -5.32438,-3.16983 0.063,-1.13321 -3.25236,-1.92006 -0.67041,-2.03569 -28.54273,-0.42417 6.81392,39.65938 12.33208,0.15561 13.91674,8.13069 2.88102,5.0156 c -2.64223,0.39821 -4.06886,2.15921 -4.47836,5.06049 l -0.0246,9.65004 c 0.9688,4.58772 3.50923,6.73102 9.01246,4.26614 z"
       id="path16239"
       sodipodi:nodetypes="ccccccccccccccccccccccc"
       inkscape:label="Skirt" /><rect
       style="font-variation-settings:normal;display:inline;opacity:1;fill:#6f5c56;fill-opacity:1;stroke:none;stroke-width:1.5;stroke-linecap:round;stroke-linejoin:miter;stroke-miterlimit:4;stroke-dasharray:none;stroke-dashoffset:0;stroke-opacity:1;paint-order:normal;stop-color:#000000;stop-opacity:1"
       id="rect20445"
       width="31.307041"
       height="2.8532989"
       x="226.24741"
       y="81.983765"
       ry="0"
       inkscape:transform-center-x="-0.93094676"
       inkscape:transform-center-y="3.712505"
       transform="rotate(30.452301)"
       inkscape:label="Belt" /><path
       id="rect20443"
       style="color:#000000;display:inline;opacity:1;fill:#f8de89;fill-opacity:1;stroke-linecap:round;-inkscape-stroke:none"
       d="m 238.61699,81.404359 3.4e-4,0.349285 -2.3e-4,3.480592 6.44901,5e-5 3.3e-4,-3.83014 z m 0.70119,0.699152 5.04691,1.18e-4 -1.2e-4,0.867489 -1.59297,-0.0034 -0.3507,-2.8e-5 -0.002,0.698727 0.35041,0.0026 1.59483,0.0035 1e-5,0.862616 -5.04665,3.27e-4 z"
       transform="rotate(30.452301)"
       inkscape:label="BeltClip" /><path
       style="display:inline;opacity:1;fill:#5c7692;fill-opacity:1;stroke:none;stroke-width:0.264583px;stroke-linecap:butt;stroke-linejoin:miter;stroke-opacity:1"
       d="m 166.38871,246.39733 23.39129,7.93051 0.0406,-31.82996 -11.69641,-19.36135 -6.31463,-3.71252 -9.87495,2.31276 -2.70436,-9.70844 -6.41613,-3.7902 -24.51154,-0.001 4.44673,25.88185 12.33208,0.15561 13.91674,8.13069 2.88102,5.0156 c -2.64223,0.39821 -4.06886,2.15921 -4.47836,5.06049 l -0.0246,9.65004 c 0.9688,4.58772 3.50923,6.73102 9.01246,4.26614 z"
       id="path16685"
       sodipodi:nodetypes="ccccccccccccccccc"
       inkscape:label="Shirt" /><path
       style="display:inline;fill:none;stroke:#a5c5e8;stroke-width:0.265;stroke-linecap:butt;stroke-linejoin:miter;stroke-dasharray:none;stroke-opacity:1"
       d="m 141.15163,212.20913 0.23881,-23.97266"
       id="path42712" /><path
       style="font-variation-settings:normal;display:inline;opacity:1;vector-effect:none;fill:none;fill-opacity:1;stroke:#a5c5e8;stroke-width:0.265;stroke-linecap:butt;stroke-linejoin:miter;stroke-miterlimit:4;stroke-dasharray:none;stroke-dashoffset:0;stroke-opacity:1;-inkscape-stroke:none;stop-color:#000000;stop-opacity:1"
       d="M 162.68656,224.88355 183.97239,212.8172"
       id="path42766" /><path
       style="font-variation-settings:normal;display:inline;opacity:1;vector-effect:none;fill:none;fill-opacity:1;stroke:#a5c5e8;stroke-width:0.265;stroke-linecap:butt;stroke-linejoin:miter;stroke-miterlimit:4;stroke-dasharray:none;stroke-dashoffset:0;stroke-opacity:1;-inkscape-stroke:none;stop-color:#000000;stop-opacity:1"
       d="m 159.36072,237.44492 30.43958,0.96794"
       id="path42778" /><path
       style="font-variation-settings:normal;display:inline;opacity:1;vector-effect:none;fill:none;fill-opacity:1;stroke:#a5c5e8;stroke-width:0.265;stroke-linecap:butt;stroke-linejoin:miter;stroke-miterlimit:4;stroke-dasharray:none;stroke-dashoffset:0;stroke-opacity:1;-inkscape-stroke:none;stop-color:#000000;stop-opacity:1"
       d="M 161.15224,222.18191 181.05,207.98063"
       id="path42790" /><path
       style="font-variation-settings:normal;display:inline;opacity:1;vector-effect:none;fill:none;fill-opacity:1;stroke:#a5c5e8;stroke-width:0.265;stroke-linecap:butt;stroke-linejoin:miter;stroke-miterlimit:4;stroke-dasharray:none;stroke-dashoffset:0;stroke-opacity:1;-inkscape-stroke:none;stop-color:#000000;stop-opacity:1"
       d="m 164.32735,227.77268 22.65664,-9.97031"
       id="path42802" /><path
       style="font-variation-settings:normal;display:inline;opacity:1;vector-effect:none;fill:none;fill-opacity:1;stroke:#a5c5e8;stroke-width:0.265;stroke-linecap:butt;stroke-linejoin:miter;stroke-miterlimit:4;stroke-dasharray:none;stroke-dashoffset:0;stroke-opacity:1;-inkscape-stroke:none;stop-color:#000000;stop-opacity:1"
       d="m 144.87224,212.26664 2.68478,-24.02873"
       id="path42814" /><path
       style="font-variation-settings:normal;display:inline;opacity:1;vector-effect:none;fill:none;fill-opacity:1;stroke:#a5c5e8;stroke-width:0.265;stroke-linecap:butt;stroke-linejoin:miter;stroke-miterlimit:4;stroke-dasharray:none;stroke-dashoffset:0;stroke-opacity:1;-inkscape-stroke:none;stop-color:#000000;stop-opacity:1"
       d="m 138.10666,212.16206 -1.93408,-23.92461"
       id="path42826" /><path
       style="font-variation-settings:normal;display:inline;opacity:1;vector-effect:none;fill:none;fill-opacity:1;stroke:#a5c5e8;stroke-width:0.265;stroke-linecap:butt;stroke-linejoin:miter;stroke-miterlimit:4;stroke-dasharray:none;stroke-dashoffset:0;stroke-opacity:1;-inkscape-stroke:none;stop-color:#000000;stop-opacity:1"
       d="m 161.93463,201.73677 -6.49438,10.85064"
       id="path42838" /><path
       style="font-variation-settings:normal;display:inline;opacity:1;vector-effect:none;fill:none;fill-opacity:1;stroke:#a5c5e8;stroke-width:0.265;stroke-linecap:butt;stroke-linejoin:miter;stroke-miterlimit:4;stroke-dasharray:none;stroke-dashoffset:0;stroke-opacity:1;-inkscape-stroke:none;stop-color:#000000;stop-opacity:1"
       d="m 152.86894,208.8138 5.63732,-17.21113"
       id="path42850" /><path
       style="font-variation-settings:normal;display:inline;opacity:1;vector-effect:none;fill:none;fill-opacity:1;stroke:#a5c5e8;stroke-width:0.265;stroke-linecap:butt;stroke-linejoin:miter;stroke-miterlimit:4;stroke-dasharray:none;stroke-dashoffset:0;stroke-opacity:1;-inkscape-stroke:none;stop-color:#000000;stop-opacity:1"
       d="m 159.93862,213.02485 12.85564,-13.02192"
       id="path42862" /><path
       style="font-variation-settings:normal;display:inline;opacity:1;vector-effect:none;fill:none;fill-opacity:1;stroke:#a5c5e8;stroke-width:0.265;stroke-linecap:butt;stroke-linejoin:miter;stroke-miterlimit:4;stroke-dasharray:none;stroke-dashoffset:0;stroke-opacity:1;-inkscape-stroke:none;stop-color:#000000;stop-opacity:1"
       d="m 159.37067,232.8457 30.43384,-2.77999"
       id="path42874" /><path
       style="font-variation-settings:normal;display:inline;opacity:1;vector-effect:none;fill:none;fill-opacity:1;stroke:#a5c5e8;stroke-width:0.265;stroke-linecap:butt;stroke-linejoin:miter;stroke-miterlimit:4;stroke-dasharray:none;stroke-dashoffset:0;stroke-opacity:1;-inkscape-stroke:none;stop-color:#000000;stop-opacity:1"
       d="m 159.35077,242.04414 30.45374,4.07082"
       id="path42886" /><path
       style="display:inline;opacity:1;fill:#ffffff;fill-opacity:1;stroke:none;stroke-width:0.264583px;stroke-linecap:butt;stroke-linejoin:miter;stroke-opacity:1"
       d="m 159.38483,219.06982 c 1.03168,3.69674 -2.27276,6.21616 -5.39995,4.52484 l -7.88074,-4.64165 c -2.84714,-2.08791 -1.30496,-6.27538 1.74423,-6.64036 3.58944,-6.58584 6.80124,-3.36831 7.25412,0.77313 4.15851,-1.75525 8.23742,0.003 4.28234,5.98404 z"
       id="path39228" /><path
       style="display:inline;opacity:1;fill:#454142;fill-opacity:1;stroke:none;stroke-width:0.264583px;stroke-linecap:butt;stroke-linejoin:miter;stroke-opacity:1"
       d="m 161.3734,194.27577 7.34756,4.33457 -6.78633,3.12643 z"
       id="path16825" /><path
       style="font-variation-settings:normal;display:inline;opacity:1;vector-effect:none;fill:none;fill-opacity:1;stroke:#a5c5e8;stroke-width:0.265;stroke-linecap:butt;stroke-linejoin:miter;stroke-miterlimit:4;stroke-dasharray:none;stroke-dashoffset:0;stroke-opacity:1;-inkscape-stroke:none;stop-color:#000000;stop-opacity:1"
       d="m 165.98829,230.69729 23.83231,-8.19941"
       id="path42958" /><path
       style="font-variation-settings:normal;display:inline;opacity:1;vector-effect:none;fill:none;fill-opacity:1;stroke:#a5c5e8;stroke-width:0.265;stroke-linecap:butt;stroke-linejoin:miter;stroke-miterlimit:4;stroke-dasharray:none;stroke-dashoffset:0;stroke-opacity:1;-inkscape-stroke:none;stop-color:#000000;stop-opacity:1"
       d="m 147.84837,212.31265 4.96575,-24.07452"
       id="path42971" /><path
       style="display:inline;fill:#ac4b5c;fill-opacity:1;stroke:none;stroke-width:0.264583px;stroke-linecap:butt;stroke-linejoin:miter;stroke-opacity:1"
       d="m 155.44025,212.58741 5.24296,-6.01113 0.35283,2.2122 2.07409,0.72237 -6.80049,3.95861 3.62898,-0.44461 -0.0444,4.00712 -5.35,-2.0314 -0.84478,-0.45999 -4.31014,-3.68724 3.47964,-2.03954 1.37388,3.49727 0.1715,-7.97988 1.67206,1.52084 1.99806,-0.76339 z"
       id="path16997"
       inkscape:label="Tie" /><path
       id="path17272"
       style="color:#000000;display:none;fill:#d3ae7c;-inkscape-stroke:none"
       d="m 129.28306,183.26375 1.01183,5.86734 22.20691,0.54881 8.92194,5.23999 -0.3204,-6.93963 -0.0935,-0.0543 -7.23625,-4.26951 z m 0.47646,0.40824 3.64577,0.0584 -0.0574,5.07721 -2.71508,-0.0672 z m 4.04575,0.0646 2.76417,0.0444 -0.0294,5.10512 -2.79208,-0.0687 z m 3.16415,0.0512 2.82256,0.045 -0.0238,5.13302 -2.82773,-0.0698 z m 3.22306,0.0512 2.73161,0.0439 0.0202,5.16093 -2.77554,-0.0682 z m 3.1321,0.0506 2.78847,0.0444 v 5.1878 l -2.76779,-0.0682 z m 3.18896,0.0506 2.79724,0.045 v 5.21519 l -2.79724,-0.0687 z m 3.19722,0.0517 3.55895,0.0568 -1.07745,5.22242 -2.4815,-0.061 z m 4.32842,0.28577 2.87062,1.69292 -2.56367,4.3279 -1.38182,-0.81183 z m 3.21479,1.89601 2.40605,1.41903 -2.56418,4.3217 -2.40399,-1.41283 z m 2.75022,1.62212 0.71055,0.4191 0.27337,5.9862 -3.54811,-2.08463 z m 14.36294,7.98918 -6.31847,3.13314 8.93382,5.21105 11.14661,18.93528 -0.17777,28.71091 5.81618,1.99833 0.002,-0.27957 0.0625,-32.36133 -12.1698,-21.02559 z m -0.0155,0.45527 0.69557,0.41186 -2.58538,4.37699 -3.57135,-2.08204 z m 1.04025,0.6165 2.39262,1.41748 -2.57452,4.35736 -2.40347,-1.40095 z m 2.7373,1.6216 2.86184,1.69602 -4.06694,3.45664 -1.36839,-0.79788 z m 3.43545,2.25775 1.70894,2.95279 -4.56562,2.58175 -1.21801,-2.06964 z m 1.90944,3.29902 1.39888,2.41742 -4.54804,2.56471 -1.41335,-2.40089 z m 1.59939,2.76314 1.40301,2.42362 -4.53202,2.54714 -1.41645,-2.40658 z m 1.60248,2.76934 1.39268,2.40657 -4.51342,2.53163 -1.40714,-2.39055 z m 1.59371,2.75332 1.38492,2.39262 -4.46329,2.57245 -1.43299,-2.43499 z m 1.58543,2.73937 1.4025,2.42362 -4.47001,2.51354 -1.39372,-2.36781 z m 1.60248,2.76882 1.77767,3.07165 -4.92011,1.6924 -1.32447,-2.24999 z m 1.97301,3.84886 -0.005,2.75591 h -4.90512 l 0.007,-1.06867 z m -4.91288,3.15588 h 4.90668 l -0.005,2.77038 -4.91856,-0.0269 z m -0.0196,3.144 4.92011,0.0248 -0.006,2.81275 -4.93199,-0.0253 z m -0.0202,3.21272 4.93407,0.0253 -0.005,2.76727 -4.94595,-0.0253 z m -0.0196,3.16776 4.94751,0.0253 -0.005,2.75642 -4.95939,-0.0186 z m -0.0196,3.16364 4.96093,0.0186 -0.006,2.8422 -4.97282,-0.0563 z m -0.0202,3.20497 4.97489,0.0563 -0.005,2.75022 -4.98678,-0.032 z m -0.0196,3.17448 4.98832,0.031 -0.006,2.81791 -5.00021,-0.0377 z m -0.0202,3.21169 5.00228,0.0377 -0.005,2.75797 -5.01416,-0.032 z m -0.0196,3.16312 5.01571,0.0315 -0.006,2.90525 -5.01727,-1.72289 z"
       inkscape:label="ShirtDecor" /><path
       style="display:inline;fill:#ac4b5c;fill-opacity:1;stroke:none;stroke-width:0.351253px;stroke-linecap:butt;stroke-linejoin:miter;stroke-opacity:1"
       d="m 131.73021,264.81477 -2.03778,10.39127 -1.87409,-2.30918 -2.8641,0.54623 5.19093,-9.06533 -3.87717,2.92003 -2.60881,-4.6365 7.49937,-1.21573 1.27659,-0.0319 7.40296,1.37825 -2.64677,4.65463 -3.90101,-3.1089 5.09977,9.2884 -2.93191,-0.63863 -1.79045,2.20396 z"
       id="path24101"
       inkscape:label="Tie" /><path
       style="display:inline;fill:#ac4b5c;fill-opacity:1;stroke:none;stroke-width:0.351253px;stroke-linecap:butt;stroke-linejoin:miter;stroke-opacity:1"
       d="m 33.305187,264.81477 -2.03778,10.39127 -1.87409,-2.30918 -2.864097,0.54623 5.190927,-9.06533 -3.877167,2.92003 -2.60881,-4.6365 7.499367,-1.21573 1.276587,-0.0319 7.402957,1.37825 -2.64677,4.65463 -3.901007,-3.1089 5.099767,9.2884 -2.931907,-0.63863 -1.79045,2.20396 z"
       id="path24103"
       inkscape:label="Tie" /><rect
       style="font-variation-settings:normal;opacity:1;vector-effect:none;fill:#a5c5e8;fill-opacity:1;stroke:none;stroke-width:0.7;stroke-linecap:square;stroke-linejoin:miter;stroke-miterlimit:4;stroke-dasharray:none;stroke-dashoffset:0;stroke-opacity:1;-inkscape-stroke:none;paint-order:normal;stop-color:#000000;stop-opacity:1"
       id="rect42525"
       width="12.6983"
       height="0.40048981"
       x="14.709846"
       y="124.01298" /><rect
       style="font-variation-settings:normal;opacity:1;vector-effect:none;fill:#a5c5e8;fill-opacity:1;stroke:none;stroke-width:0.7;stroke-linecap:square;stroke-linejoin:miter;stroke-miterlimit:4;stroke-dasharray:none;stroke-dashoffset:0;stroke-opacity:1;-inkscape-stroke:none;paint-order:normal;stop-color:#000000;stop-opacity:1"
       id="rect42665"
       width="12.6983"
       height="0.40048981"
       x="14.709846"
       y="32.802513" /><rect
       style="font-variation-settings:normal;display:inline;opacity:1;fill:#6f5c56;fill-opacity:1;stroke:none;stroke-width:1.5;stroke-linecap:round;stroke-linejoin:miter;stroke-miterlimit:4;stroke-dasharray:none;stroke-dashoffset:0;stroke-opacity:1;paint-order:normal;stop-color:#000000;stop-opacity:1"
       id="rect42706"
       width="23.697828"
       height="3.0084248"
       x="265.5368"
       y="-50.456341"
       ry="0"
       inkscape:transform-center-x="0.94789577"
       inkscape:transform-center-y="3.7082025"
       transform="rotate(58.868292)"
       inkscape:label="Belt" /><rect
       style="font-variation-settings:normal;display:inline;opacity:1;fill:#6f5c56;fill-opacity:1;stroke:none;stroke-width:1.31662;stroke-linecap:round;stroke-linejoin:miter;stroke-miterlimit:4;stroke-dasharray:none;stroke-dashoffset:0;stroke-opacity:1;paint-order:normal;stop-color:#000000;stop-opacity:1"
       id="rect42708"
       width="24.19054"
       height="2.895999"
       x="129.30116"
       y="185.3329"
       ry="0"
       inkscape:transform-center-x="-2.0678559"
       inkscape:transform-center-y="2.728654"
       transform="matrix(1,5.3598451e-5,-3.1815004e-5,1,0,0)"
       inkscape:label="Belt" /><rect
       style="font-variation-settings:normal;display:inline;opacity:1;fill:#6f5c56;fill-opacity:1;stroke:none;stroke-width:1.31662;stroke-linecap:round;stroke-linejoin:miter;stroke-miterlimit:4;stroke-dasharray:none;stroke-dashoffset:0;stroke-opacity:1;paint-order:normal;stop-color:#000000;stop-opacity:1"
       id="rect42710"
       width="34.165699"
       height="2.9422779"
       x="221.48695"
       y="-192.7379"
       ry="0"
       inkscape:transform-center-x="2.7286473"
       inkscape:transform-center-y="2.067854"
       transform="matrix(-5.3598451e-5,1,-1,-3.1815004e-5,0,0)"
       inkscape:label="Belt" /><image
       width="197.37917"
       height="280.19376"
       preserveAspectRatio="none"
       xlink:href="messenger_for_u_fullbody.png"
       id="image22165"
       x="270.35062"
       y="-131.75336"
       style="display:inline"
       transform="rotate(15)" /><path
       style="display:inline;fill:#454142;fill-opacity:1;stroke:none;stroke-width:0.264583px;stroke-linecap:butt;stroke-linejoin:miter;stroke-opacity:1"
       d="m 46.710412,60.915453 h 72.654718 l -5.32728,-19.447904 5.17344,-17.763194 V 9.9150155 h 17.50193 l -0.077,-39.8729695 H 119.3284 V -47.738321 H 46.336706 V -29.61629 H 29.714981 L 29.476778,9.6345435 H 46.658133 V 23.871585 l 4.933161,17.616496 z"
       id="path43846"
       inkscape:label="HatFill"
       sodipodi:nodetypes="ccccccccccccccccc" /><path
       style="fill:none;stroke:#f8de89;stroke-width:2;stroke-linecap:butt;stroke-linejoin:miter;stroke-dasharray:none;stroke-opacity:1"
       d="m 48.273065,60.383638 5.131175,-17.983856 59.04925,0.0011 5.13118,17.983861 z"
       id="path47082" /><path
       style="font-variation-settings:normal;opacity:1;vector-effect:none;fill:none;fill-opacity:1;stroke:#f8de89;stroke-width:2;stroke-linecap:butt;stroke-linejoin:miter;stroke-miterlimit:4;stroke-dasharray:none;stroke-dashoffset:0;stroke-opacity:1;-inkscape-stroke:none;stop-color:#000000;stop-opacity:1"
       d="m 117.58467,24.48181 -5.13118,17.918972 -59.04925,-10e-4 -5.131175,-17.919059"
       id="path47236"
       sodipodi:nodetypes="cccc" /><path
       style="font-variation-settings:normal;opacity:1;vector-effect:none;fill:none;fill-opacity:1;stroke:#f8de89;stroke-width:2;stroke-linecap:butt;stroke-linejoin:miter;stroke-miterlimit:4;stroke-dasharray:none;stroke-dashoffset:0;stroke-opacity:1;-inkscape-stroke:none;stop-color:#000000;stop-opacity:1"
       d="m 117.58467,-45.047035 -69.311605,0.259628 M 31.435294,-27.075675 V 9.0777771 m 102.844866,-1e-6 0,-36.1534491"
       id="path47248"
       sodipodi:nodetypes="cccccc" /><path
       style="fill:none;stroke:#f8de89;stroke-width:1;stroke-linecap:butt;stroke-linejoin:miter;stroke-opacity:1;font-variation-settings:normal;opacity:1;fill-opacity:1;stroke-miterlimit:4;stroke-dasharray:none;stroke-dashoffset:0;stop-color:#000000;stop-opacity:1"
       d="M 48.273065,9.0778157 H 117.58467 V -27.103957 l -69.311605,0.02832 z"
       id="path47260" /><path
       style="font-variation-settings:normal;opacity:1;fill:none;fill-opacity:1;stroke:#f8de89;stroke-width:1;stroke-linecap:butt;stroke-linejoin:miter;stroke-miterlimit:4;stroke-dasharray:none;stroke-dashoffset:0;stroke-opacity:1;stop-color:#000000;stop-opacity:1"
       d="m 117.58467,-15.020542 16.69549,0.01407"
       id="path47272"
       sodipodi:nodetypes="cc" /><path
       style="font-variation-settings:normal;opacity:1;fill:none;fill-opacity:1;stroke:#f8de89;stroke-width:1;stroke-linecap:butt;stroke-linejoin:miter;stroke-miterlimit:4;stroke-dasharray:none;stroke-dashoffset:0;stroke-opacity:1;stop-color:#000000;stop-opacity:1"
       d="m 117.58467,-9.0130721 16.69549,0.014124"
       id="path47284"
       sodipodi:nodetypes="cc" /><path
       style="font-variation-settings:normal;opacity:1;fill:none;fill-opacity:1;stroke:#f8de89;stroke-width:1;stroke-linecap:butt;stroke-linejoin:miter;stroke-miterlimit:4;stroke-dasharray:none;stroke-dashoffset:0;stroke-opacity:1;stop-color:#000000;stop-opacity:1"
       d="M 117.54769,-2.4210155 134.28058,-2.523383"
       id="path47296"
       sodipodi:nodetypes="cc" /><path
       id="path47673"
       style="opacity:1;vector-effect:none;fill:#f8de89;stroke-width:0.329619;stop-color:#000000;stop-opacity:1"
       d="m 83.836325,14.269326 c -0.349183,0.489503 -0.907454,1.640686 -0.907454,1.640686 0,0 -0.55827,-1.151183 -0.907453,-1.640686 -0.349183,-0.489502 -1.151847,-1.292571 -1.151847,-1.292571 0,0 0.802664,-0.803071 1.151847,-1.292573 0.349183,-0.489502 0.907454,-1.640684 0.907454,-1.640684 0,0 0.558269,1.151183 0.907452,1.640685 0.349183,0.489503 1.151847,1.292571 1.151847,1.292571 0,0 -0.802663,0.80307 -1.151846,1.292572 z"
       sodipodi:nodetypes="zczczczcz" /><path
       style="font-variation-settings:normal;opacity:1;fill:none;fill-opacity:1;stroke:#f8de89;stroke-width:1;stroke-linecap:butt;stroke-linejoin:miter;stroke-miterlimit:4;stroke-dasharray:none;stroke-dashoffset:0;stroke-opacity:1;stop-color:#000000;stop-opacity:1"
       d="m 48.273065,-15.020542 -16.695481,0.01407"
       id="path48482"
       sodipodi:nodetypes="cc" /><path
       style="font-variation-settings:normal;opacity:1;fill:none;fill-opacity:1;stroke:#f8de89;stroke-width:1;stroke-linecap:butt;stroke-linejoin:miter;stroke-miterlimit:4;stroke-dasharray:none;stroke-dashoffset:0;stroke-opacity:1;stop-color:#000000;stop-opacity:1"
       d="m 48.273065,-9.0130721 -16.695481,0.014124"
       id="path48484"
       sodipodi:nodetypes="cc" /><path
       style="font-variation-settings:normal;opacity:1;fill:none;fill-opacity:1;stroke:#f8de89;stroke-width:1;stroke-linecap:butt;stroke-linejoin:miter;stroke-miterlimit:4;stroke-dasharray:none;stroke-dashoffset:0;stroke-opacity:1;stop-color:#000000;stop-opacity:1"
       d="M 48.310045,-2.4210155 31.577164,-2.523383"
       id="path48486"
       sodipodi:nodetypes="cc" /><path
       style="fill:none;stroke:#f8de89;stroke-width:1;stroke-linecap:butt;stroke-linejoin:miter;stroke-opacity:1;font-variation-settings:normal;opacity:1;vector-effect:none;fill-opacity:1;stroke-miterlimit:4;stroke-dasharray:none;stroke-dashoffset:0;-inkscape-stroke:none;stop-color:#000000;stop-opacity:1"
       d="m 48.273065,24.480799 69.311605,0.0011"
       id="path48660" /><path
       id="path48724"
       style="opacity:1;fill:#15b6ce;fill-opacity:1;stroke:none;stroke-width:0.242659;stroke-dasharray:none;paint-order:markers fill stroke;stop-color:#000000;stop-opacity:1"
       d="m 85.48318,20.1228 c 10e-7,1.173697 -1.976337,0.577976 -1.976337,0.577976 0,0 0.595723,1.976337 -0.577976,1.976337 -1.173697,0 -0.577974,-1.976337 -0.577974,-1.976337 0,0 -1.976338,0.595721 -1.976337,-0.577975 0,-1.173698 1.976337,-0.577975 1.976337,-0.577975 0,0 -0.595721,-1.976338 0.577975,-1.976338 1.173696,0 0.577975,1.976338 0.577975,1.976338 0,0 1.976337,-0.595723 1.976337,0.577974 z"
       sodipodi:nodetypes="ccscscscc" /><path
       id="path55302"
       style="opacity:1;fill:none;fill-opacity:1;stroke:#454142;stroke-width:0.5;stroke-dasharray:none;stroke-opacity:1;paint-order:normal;stop-color:#000000;stop-opacity:1"
       d="m 85.48318,20.1228 c 10e-7,1.173697 -1.976337,0.577976 -1.976337,0.577976 0,0 0.595723,1.976337 -0.577976,1.976337 -1.173697,0 -0.577974,-1.976337 -0.577974,-1.976337 0,0 -1.976338,0.595721 -1.976337,-0.577975 0,-1.173698 1.976337,-0.577975 1.976337,-0.577975 0,0 -0.595721,-1.976338 0.577975,-1.976338 1.173696,0 0.577975,1.976338 0.577975,1.976338 0,0 1.976337,-0.595723 1.976337,0.577974 z"
       sodipodi:nodetypes="ccscscscc" /><path
       id="path55304"
       style="opacity:1;fill:none;fill-opacity:1;stroke:#f8de89;stroke-width:0.248;stroke-dasharray:none;paint-order:markers fill stroke;stop-color:#000000;stop-opacity:1"
       d="m 85.536553,20.1228 c 2e-6,1.198222 -2.017633,0.590053 -2.017633,0.590053 0,0 0.608171,2.017634 -0.590053,2.017633 -1.198222,0 -0.590051,-2.017633 -0.590051,-2.017633 0,0 -2.017635,0.608169 -2.017633,-0.590052 0,-1.198223 2.017633,-0.590052 2.017633,-0.590052 0,0 -0.608169,-2.017635 0.590052,-2.017634 1.198221,-1e-6 0.590052,2.017634 0.590052,2.017634 0,0 2.017633,-0.608171 2.017633,0.590051 z"
       sodipodi:nodetypes="ccscscscc" /><path
       id="path55306"
       style="font-variation-settings:normal;opacity:1;vector-effect:none;fill:none;fill-opacity:1;stroke:#f8de89;stroke-width:0.24773;stroke-linecap:butt;stroke-linejoin:bevel;stroke-miterlimit:4;stroke-dasharray:none;stroke-dashoffset:0;stroke-opacity:1;-inkscape-stroke:none;paint-order:markers fill stroke;stop-color:#000000;stop-opacity:1"
       d="m 88.553299,20.1228 c 3e-6,1.79157 -3.016746,10e-7 -3.016746,10e-7 0,0 3.016746,-1.791571 3.016746,-10e-7 z"
       sodipodi:nodetypes="ccc" /><path
       id="path55332"
       style="font-variation-settings:normal;opacity:1;vector-effect:none;fill:none;fill-opacity:1;stroke:#f8de89;stroke-width:0.24773;stroke-linecap:butt;stroke-linejoin:bevel;stroke-miterlimit:4;stroke-dasharray:none;stroke-dashoffset:0;stroke-opacity:1;-inkscape-stroke:none;paint-order:markers fill stroke;stop-color:#000000;stop-opacity:1"
       d="m 90.588023,20.1228 c 2e-6,1.093208 -1.840805,10e-7 -1.840805,10e-7 0,0 1.840805,-1.093209 1.840805,-10e-7 z"
       sodipodi:nodetypes="ccc" /><path
       id="path55344"
       style="font-variation-settings:normal;opacity:1;vector-effect:none;fill:none;fill-opacity:1;stroke:#f8de89;stroke-width:0.24773;stroke-linecap:butt;stroke-linejoin:bevel;stroke-miterlimit:4;stroke-dasharray:none;stroke-dashoffset:0;stroke-opacity:1;-inkscape-stroke:none;paint-order:markers fill stroke;stop-color:#000000;stop-opacity:1"
       d="m 77.304437,20.1228 c -3e-6,1.79157 3.016746,10e-7 3.016746,10e-7 0,0 -3.016746,-1.791571 -3.016746,-10e-7 z"
       sodipodi:nodetypes="ccc" /><path
       id="path55346"
       style="font-variation-settings:normal;opacity:1;vector-effect:none;fill:none;fill-opacity:1;stroke:#f8de89;stroke-width:0.24773;stroke-linecap:butt;stroke-linejoin:miter;stroke-miterlimit:4;stroke-dasharray:none;stroke-dashoffset:0;stroke-opacity:1;-inkscape-stroke:none;paint-order:markers fill stroke;stop-color:#000000;stop-opacity:1"
       d="m 75.269713,20.1228 c -2e-6,1.093208 1.840805,10e-7 1.840805,10e-7 0,0 -1.840805,-1.093209 -1.840805,-10e-7 z"
       sodipodi:nodetypes="ccc" /></g><g
     inkscape:groupmode="layer"
     id="layer4"
     inkscape:label="UVs"
     sodipodi:insensitive="true"
     style="display:none"><polygon
       stroke="#000000"
       stroke-width="1"
       fill="#cccccc"
       fill-opacity="0.25"
       points="571.768,562.406 571.768,987.538 1386.81,987.538 1386.81,562.073 "
       id="polygon43396"
       transform="matrix(0.08504053,0,0,0.08504053,-0.35038959,-0.65293801)"
       style="display:inline" /><polygon
       stroke="#000000"
       stroke-width="1"
       fill="#cccccc"
       fill-opacity="0.25"
       points="571.768,987.538 571.768,562.406 373.771,562.406 423.041,987.538 "
       id="polygon43398"
       transform="matrix(0.08504053,0,0,0.08504053,-0.35038959,-0.65293801)"
       style="display:inline" /><polygon
       stroke="#000000"
       stroke-width="1"
       fill="#cccccc"
       fill-opacity="0.25"
       points="1386.81,987.538 1537.468,987.538 1583.134,562.406 1386.81,562.073 "
       id="polygon43400"
       transform="matrix(0.08504053,0,0,0.08504053,-0.35038959,-0.65293801)"
       style="display:inline" /><polygon
       stroke="#000000"
       stroke-width="1"
       fill="#cccccc"
       fill-opacity="0.25"
       points="571.768,562.406 1386.81,562.073 1386.81,351.079 571.768,354.132 "
       id="polygon43402"
       transform="matrix(0.08504053,0,0,0.08504053,-0.35038959,-0.65293801)"
       style="display:inline" /><polygon
       stroke="#000000"
       stroke-width="1"
       fill="#cccccc"
       fill-opacity="0.25"
       points="1386.81,987.538 571.768,987.538 571.768,1125.173 1386.81,1125.186 "
       id="polygon43404"
       transform="matrix(0.08504053,0,0,0.08504053,-0.35038959,-0.65293801)"
       style="display:inline" /><polygon
       stroke="#000000"
       stroke-width="1"
       fill="#cccccc"
       fill-opacity="0.25"
       points="1386.81,1125.186 571.768,1125.173 632.106,1335.885 1326.472,1335.897 "
       id="polygon43406"
       transform="matrix(0.08504053,0,0,0.08504053,-0.35038959,-0.65293801)"
       style="display:inline" /><polygon
       stroke="#000000"
       stroke-width="1"
       fill="#cccccc"
       fill-opacity="0.25"
       points="1326.472,1335.897 632.106,1335.885 571.768,1547.358 1386.81,1547.371 "
       id="polygon43408"
       transform="matrix(0.08504053,0,0,0.08504053,-0.35038959,-0.65293801)"
       style="display:inline" /></g><g
     inkscape:groupmode="layer"
     id="layer2"
     inkscape:label="Lines"
     style="display:inline"
     transform="translate(0,74.25)"><path
       id="path10746"
       style="display:inline;fill:none;stroke:#ef0085;stroke-width:0.15;stroke-linecap:butt;stroke-linejoin:miter;stroke-dasharray:none;stroke-opacity:1"
       d="m 164.64535,182.5256 -0.9828,0.61674 -5.32438,-3.16983 0.063,-1.13321 m 25.24491,14.90356 -0.94895,0.61219 -5.34777,-3.17882 0.0564,-1.1174 m 2.22468,58.12379 0.0745,0.60079 0.0678,0.49772 10.40641,3.57194 0.3991,-0.37262 0.40718,-0.4386 m -173.851753,3.37038 -0.46792,0.21169 -0.55415,0.28346 v 10.99608 l 0.55415,0.27152 0.47139,0.22674 m 130.639193,-11.98949 0.46792,0.21169 0.55415,0.28346 v 10.99608 l -0.55415,0.27152 -0.47139,0.22674 m -23.53192,16.82176 0.1805,0.41572 0.31608,0.66811 h 8.99231 l 0.35428,-0.66811 0.2039,-0.41479 m -93.594326,-9.3e-4 -0.180507,0.41572 -0.316076,0.66811 h -8.992304 l -0.35428,-0.66811 -0.203902,-0.41479 m 7.623539,-45.38225 -0.25384,-0.53461 -0.23907,-0.48405 h -9.089597 l -0.20261,0.48405 -0.20978,0.52228 m 98.449233,0.0123 0.25384,-0.53461 0.23907,-0.48405 h 9.0896 l 0.20261,0.48405 0.20978,0.52228 M 78.005058,81.133547 l 2.168633,2.18585 h 4.618096 l 2.130555,-2.18585 m 5.383622,78.416433 0.282575,-0.54331 0.234755,-0.48148 h 9.035616 l 0.25786,0.48148 0.25674,0.50901 m -39.782209,0.0343 0.282575,-0.54331 0.234754,-0.48148 h 8.98398 l 0.257858,0.48148 0.256743,0.50901 m 19.380966,-16.37249 a 9.4692945,9.4984798 0 0 1 -9.469294,9.49848 9.4692945,9.4984798 0 0 1 -9.469295,-9.49848 9.4692945,9.4984798 0 0 1 9.469295,-9.49848 9.4692945,9.4984798 0 0 1 9.469294,9.49848 z"
       inkscape:label="CutLines" /><path
       id="path8895"
       style="font-variation-settings:normal;display:inline;opacity:1;vector-effect:none;fill:none;fill-opacity:1;stroke:#000000;stroke-width:0.2;stroke-linecap:butt;stroke-linejoin:miter;stroke-miterlimit:4;stroke-dasharray:none;stroke-dashoffset:0;stroke-opacity:1;-inkscape-stroke:none;stop-color:#000000;stop-opacity:1"
       inkscape:label="Outline"
       d="m 19.034804,151.26107 h -1.947385 c 0.623019,-1.52162 0.979308,-4.92553 -2.117263,-5.01686 H 12.25326 c -3.1706399,0.10842 -2.9405719,3.43104 -2.217316,5.01686 H 6.2932514 v 61.85306 h 3.7604596 c -1.2725229,2.42736 -0.08988,4.90544 2.27464,4.98434 h 2.52282 c 2.310909,0.0745 3.354584,-2.47857 2.270964,-4.98434 h 1.912669 z m 6.501621,0 h 1.947385 c -0.623019,-1.52162 -0.979308,-4.92553 2.117263,-5.01686 h 2.716896 c 3.170639,0.10842 2.940571,3.43104 2.217315,5.01686 h 3.742693 v 61.85306 h -3.76046 c 1.272523,2.42736 0.08988,4.90544 -2.274639,4.98434 h -2.52282 c -2.310909,0.0745 -3.354584,-2.47857 -2.270964,-4.98434 h -1.912669 z m -10.826579,-18.4579 3.864278,-5.31436 2.503514,5.26969 2.513839,-5.29294 3.863785,5.2864 V 24.438173 l -3.863785,5.2864 -2.513839,-5.29294 -2.503514,5.26969 -3.864278,-5.31436 z m 80.970619,127.14944 c 0.86795,-2.1593 0.766533,-5.26829 -0.04754,-9.07542 2.454787,2.78567 3.710938,6.22733 4.122746,9.57255 l 7.063649,1.23661 c -0.24168,15.8435 -0.018,22.63694 -5.72472,23.12159 1.88397,1.79725 3.52375,2.20045 5.42396,1.72806 -1.03133,1.60635 -2.43644,2.19544 -3.80855,2.87372 3.01507,3.50971 12.75683,6.32122 12.75684,-4.77025 h 2.03089 l 7.66826,7.00216 h 23.07818 v -7.00216 l 7.0311,-4.66534 v -36.80551 l -7.0311,-4.8612 v -6.96857 H 123.1868 l -7.71995,6.96857 V 226.6611 c 2.44649,1.10761 4.75159,0.21627 5.04052,-1.98024 v -4.66432 c -0.035,-2.79143 -2.72401,-3.53549 -5.04052,-2.42465 v -29.80852 c 1.87947,1.01036 4.61342,0.81206 5.01934,-2.19935 v -6.37325 c -0.15977,-3.00374 -2.69168,-3.49461 -5.01934,-2.41588 v -32.51843 c 2.1526,0.97581 4.45492,0.74099 5.02605,-2.0593 v -4.77232 c -0.20574,-2.46783 -2.44545,-3.26504 -5.02605,-2.19728 v -7.86722 l -0.41754,-29.92479 c 0,-7.851527 -4.02098,-16.322001 -11.43031,-16.322001 H 90.743815 v -16.79329 h -2.350761 v 2.024166 H 76.538997 V 64.340259 H 74.18772 v 16.79329 H 61.312537 c -7.409327,0 -11.43031,8.470474 -11.43031,16.322001 l -0.417029,29.92479 v 7.86722 c -2.580595,-1.06776 -4.82031,-0.27055 -5.02605,2.19728 v 4.77232 c 0.571129,2.80029 2.873455,3.03511 5.02605,2.0593 v 32.51843 c -2.327655,-1.07873 -4.859562,-0.58786 -5.019332,2.41588 v 6.37325 c 0.405919,3.01141 3.139867,3.20971 5.019332,2.19935 v 29.80852 c -2.316505,-1.11084 -5.006036,-0.36678 -5.041036,2.42465 v 4.66432 c 0.288929,2.19651 2.594551,3.08785 5.041036,1.98024 v 11.64632 l -7.720459,-6.96857 H 16.687354 v 6.96857 l -7.0310959,4.8612 v 36.80551 l 7.0310959,4.66534 v 7.00216 h 23.078177 l 7.668266,-7.00216 h 2.031401 c 10e-6,11.09147 9.741263,8.27996 12.756327,4.77025 -1.372109,-0.67828 -2.776707,-1.26737 -3.808036,-2.87372 1.900205,0.47239 3.53999,0.0692 5.423958,-1.72806 -5.706721,-0.48465 -5.483035,-7.27809 -5.724715,-23.12159 l 7.063651,-1.23661 c 0.411797,-3.34522 1.667959,-6.78688 4.122746,-9.57255 -0.814109,3.80713 -0.916008,6.91612 -0.04806,9.07542 9.061695,-0.84896 18.024333,-0.81728 26.429395,0 z m 70.267555,-15.8467 c -1.76158,2.20421 -6.53236,1.61938 -6.59725,-2.06177 l 0.0199,-9.19844 c 0.0236,-3.74763 4.70964,-4.77271 6.61762,-2.14841 l -6.60346,-11.62747 c 1.04,2.99498 -2.04607,6.62986 -5.39995,4.52484 l -7.88074,-4.64165 c -2.86369,-1.78596 -1.34826,-6.28515 1.74423,-6.64036 l -13.39347,-0.20704 -2.48523,-14.45045 c -2.21711,1.57217 -4.84353,1.11917 -5.33162,-1.50484 l -1.0594,-6.16676 c -0.38937,-2.45355 1.654,-4.03184 4.512,-3.21198 l -1.77565,-10.28352 0.0601,-5.05076 13.62728,-9.74647 7.62107,0.13548 -0.20316,11.32562 5.72853,3.76731 13.63738,-23.11495 0.87881,0.52395 6.37238,-4.3801 24.60029,14.50161 -0.94691,7.60267 0.84551,0.51819 -13.62865,23.09773 6.07371,3.19782 9.78027,-5.63166 3.7985,6.60831 -1.95323,16.62718 -4.43729,2.46737 0.12575,36.84701 -8.04792,4.68188 -22.80353,-7.7899 z m 0.41857,-172.664793 c -0.62144,3.400387 -1.99045,6.310684 -3.98839,8.809282 2.14212,3.146824 3.43329,6.616592 3.98839,10.365775 0.5551,-3.749183 1.84627,-7.218951 3.98839,-10.365775 -1.99794,-2.498598 -3.36695,-5.408895 -3.98839,-8.809282 z m 0,28.600323 c -0.5551,3.74919 -1.84627,7.21895 -3.98839,10.36577 1.99794,2.4986 3.36695,5.40942 3.98839,8.8098 0.62144,-3.40038 1.99045,-6.3112 3.98839,-8.8098 -2.14212,-3.14682 -3.43329,-6.61658 -3.98839,-10.36577 z M 145.3472,45.677315 c -0.56115,0.0091 -1.11968,0.1167 -1.66501,0.332796 2.76749,3.777962 -4.62063,13.710592 -11.07995,16.268775 v 13.603821 c -2.29342,-1.201385 -4.99052,-0.347167 -4.98987,2.312003 v 4.368726 c -0.009,2.684046 2.45835,3.387931 4.98987,2.41484 v 20.651454 c -2.35665,-1.2197 -5.01119,-0.18648 -4.98987,2.38848 v 4.41007 c 0.0515,2.72744 3.1363,3.29372 4.98987,2.29857 v 13.56609 c 6.31848,2.57281 13.77659,12.08756 11.07633,16.26671 2.95393,1.27544 6.25734,-1.06185 8.19898,-4.26485 6.89375,0.92175 12.81739,-4.25053 14.48904,-13.06897 1.67165,8.81844 7.59528,13.99072 14.48904,13.06897 1.94164,3.203 5.24505,5.54029 8.19898,4.26485 -2.70026,-4.17915 4.75837,-13.6939 11.07684,-16.26671 v -13.56609 c 1.85357,0.99515 4.93786,0.42887 4.98936,-2.29857 v -4.41007 c 0.0213,-2.57496 -2.63271,-3.60818 -4.98936,-2.38848 V 84.978276 c 2.53152,0.973091 4.99836,0.269206 4.98936,-2.41484 V 78.19471 c 6.5e-4,-2.65917 -2.69594,-3.513388 -4.98936,-2.312003 V 62.278886 c -6.45931,-2.558183 -13.84744,-12.490813 -11.07994,-16.268775 -2.90847,-1.152514 -6.19785,0.77971 -8.2057,4.297929 -8.80603,-1.265834 -13.41834,7.058402 -14.47922,13.068453 -1.06088,-6.010051 -5.67319,-14.334287 -14.47922,-13.068453 -1.63138,-2.858553 -4.10854,-4.670028 -6.54017,-4.630725 z m -27.76253,14.707349 -5.13118,-17.983861 5.13118,-17.918975 V 9.0778157 h 16.69549 V -27.075634 l -16.69549,-0.02832 v -17.943041 l -69.311605,0.259627 v 17.711732 H 31.435294 V 9.0778157 H 48.273065 V 24.480722 l 5.131175,17.91906 -5.131175,17.983776 z"
       sodipodi:nodetypes="cccccccccccccccccccccccccccccccccccccscccccccccccccccccccccccccccccccsccccccccsccccccccccccccccccccccccccccccccsscccccccccccccccccccccccccccccccccccccccccccccsccccccccccccccccccccccccccccccsccccccccccccccccc" /><path
       id="path8943"
       style="font-variation-settings:normal;display:inline;opacity:0.498521;vector-effect:none;fill:none;fill-opacity:1;stroke:#000000;stroke-width:0.15;stroke-linecap:butt;stroke-linejoin:miter;stroke-miterlimit:4;stroke-dasharray:0.6, 0.6;stroke-dashoffset:0;stroke-opacity:1;-inkscape-stroke:none;stop-color:#000000;stop-opacity:1"
       inkscape:label="FoldingLines"
       d="m 25.536425,182.1876 h 12.741552 m -31.9847257,0 H 19.034804 M 14.709846,124.41346 H 27.455262 M 14.709846,85.891009 H 27.455262 M 14.709846,71.31006 H 27.455262 M 14.709846,32.877514 H 27.455262 M 166.36664,63.376677 v 8.064256 m 0,19.270553 v 9.329824 m 0,19.1755 v 8.00881 M 115.46686,205.2957 H 49.464965 m 52.651805,-46.28903 h 13.35009 m -43.116392,0 h 20.238071 m -43.123574,0 H 62.873876 M 115.46686,127.38009 H 49.464965 m 66.001885,16.89637 v -9.0289 M 16.665757,255.66323 v -17.35568 m 14.18477,46.33165 h -14.18477 v -17.4701 m 30.768039,17.47036 -6.920609,-2.6e-4 m 8.951778,-46.33165 v 46.33165 m 66.001895,0 v -46.33165 m 8.94907,46.33165 -6.91819,2.6e-4 m 30.74652,-17.46448 v 17.46422 h -14.16014 m 2.4255,-46.33165 h 11.73464 v 17.31637 M 16.665757,238.30755 h 11.81929 m 9.490736,0 h 11.489182 66.001895 11.51148 M 49.465198,217.59189 v 9.06921 m 66.001652,-9.06921 v 9.06921 M 74.18772,81.133549 h 3.817338 z m 12.734623,0 h 3.821472 z M 49.465198,135.24756 v 9.0289 z m 0,41.54733 v 10.98848 z m 66.001652,0 v 10.98848 z M 6.2932513,166.20151 H 19.034804 m 6.501621,0 H 38.277977 M 6.2932513,199.23134 H 19.034804 m 6.501621,0 h 12.741552 m 162.017363,56.55303 -9.71709,-3.30392 m -10.87331,-3.69704 -13.75692,-4.6775 m -6.56319,-25.03609 27.5228,-23.40148 m -31.75881,-18.7491 3.25236,1.92006 m 6.24417,3.6863 12.76041,7.53323 m 6.24032,3.68403 3.26155,1.92548 13.26196,23.26902 -34.1813,11.75993 m -18.13992,-18.38464 7.30045,-35.39341 -26.83382,-0.43118 m 1.77565,10.28352 1.87902,10.88358 m 41.07337,-40.1957 22.30281,13.14648 M 112.45349,42.400882 53.40424,42.399782 m -5.131175,-17.918981 69.311605,0.0011 m -69.311605,-51.557537 69.311605,-0.02832 V 9.0778157 H 48.273065 Z"
       sodipodi:nodetypes="cccccccccccccccccccccccccccccccccccccccccccccccccccccccccccccccccccccccccccccccccccccccccccccccccccccccccccccccc" /></g></svg>
