<?xml version="1.0" encoding="UTF-8"?>
<!DOCTYPE svg PUBLIC "-//W3C//DTD SVG 1.1//EN" "http://www.w3.org/Graphics/SVG/1.1/DTD/svg11.dtd">
<!-- Creator: CorelDRAW 2019 (64-Bit) -->
<svg xmlns="http://www.w3.org/2000/svg" xml:space="preserve" width="8.26772in" height="14.6161in" version="1.1" style="shape-rendering:geometricPrecision; text-rendering:geometricPrecision; image-rendering:optimizeQuality; fill-rule:evenodd; clip-rule:evenodd"
viewBox="0 0 8262.11 14606.22"
 xmlns:xlink="http://www.w3.org/1999/xlink">
 <defs>
  <style type="text/css">
   <![CDATA[
    .str19 {stroke:black;stroke-miterlimit:2.61313}
    .str11 {stroke:#373435;stroke-width:29.51;stroke-miterlimit:2.61313}
    .str9 {stroke:#4B4B4D;stroke-width:7.87;stroke-miterlimit:2.61313}
    .str3 {stroke:#373435;stroke-width:7.87;stroke-miterlimit:2.61313}
    .str5 {stroke:#373435;stroke-width:7.87;stroke-miterlimit:2.61313}
    .str2 {stroke:#70EAA8;stroke-width:7.87;stroke-miterlimit:2.61313}
    .str12 {stroke:#85ED1D;stroke-width:7.87;stroke-miterlimit:2.61313}
    .str13 {stroke:#FEA374;stroke-width:7.87;stroke-miterlimit:2.61313}
    .str18 {stroke:#FF2562;stroke-width:7.87;stroke-miterlimit:2.61313}
    .str8 {stroke:#373435;stroke-width:7.87;stroke-miterlimit:2.61313}
    .str10 {stroke:#4B4B4D;stroke-width:6.94;stroke-miterlimit:2.61313}
    .str6 {stroke:#373435;stroke-width:6.94;stroke-miterlimit:2.61313}
    .str7 {stroke:#373435;stroke-width:3.93;stroke-miterlimit:2.61313}
    .str15 {stroke:#96989A;stroke-width:3;stroke-miterlimit:2.61313}
    .str4 {stroke:#373435;stroke-width:3;stroke-miterlimit:2.61313}
    .str0 {stroke:black;stroke-width:3;stroke-miterlimit:2.61313}
    .str16 {stroke:#85ED1D;stroke-width:3;stroke-miterlimit:2.61313}
    .str1 {stroke:#EF0085;stroke-width:3;stroke-miterlimit:2.61313}
    .str17 {stroke:#FFD727;stroke-width:3;stroke-miterlimit:2.61313}
    .str14 {stroke:#6CEBF2;stroke-width:29.51;stroke-miterlimit:2.61313;stroke-dasharray:29.507522 29.507522}
    .fil0 {fill:none}
    .fil38 {fill:#FEFEFE}
    .fil8 {fill:#FEFEFE}
    .fil6 {fill:#606062}
    .fil7 {fill:#4B4B4D}
    .fil18 {fill:#373435}
    .fil45 {fill:#0B073A}
    .fil36 {fill:#1EA5FF}
    .fil44 {fill:#3D4643}
    .fil35 {fill:#5A8EFF}
    .fil14 {fill:#5C1A17}
    .fil54 {fill:#796655}
    .fil42 {fill:#85ED1D}
    .fil53 {fill:#8C7764}
    .fil10 {fill:#A51547}
    .fil5 {fill:#A7F2D4}
    .fil12 {fill:#BF4119}
    .fil37 {fill:#C27A70}
    .fil2 {fill:#C4F26C}
    .fil25 {fill:#C5F36D}
    .fil47 {fill:#D95F86}
    .fil1 {fill:#DDB097}
    .fil46 {fill:#E0D3B3}
    .fil13 {fill:#E35015}
    .fil21 {fill:#E3630C}
    .fil23 {fill:#E42110}
    .fil20 {fill:#E51E0C}
    .fil24 {fill:#E78E7A}
    .fil22 {fill:#EBB312}
    .fil19 {fill:#ECCF80}
    .fil34 {fill:#EFFF54}
    .fil16 {fill:#F26A76}
    .fil15 {fill:#F46875}
    .fil50 {fill:#F6BFC2}
    .fil32 {fill:#FBD574}
    .fil29 {fill:#FD8DAB}
    .fil17 {fill:#FEA374}
    .fil48 {fill:#FEF2DC}
    .fil28 {fill:#FF76AA}
    .fil30 {fill:#FF8F89}
    .fil26 {fill:#FF9176}
    .fil41 {fill:#FF9178}
    .fil31 {fill:#FFA683}
    .fil43 {fill:#FFD727}
    .fil33 {fill:#FFFD9E}
    .fil51 {fill:#FFAAB6}
    .fil3 {fill:#FFFE77}
    .fil55 {fill:#6BEAF1}
    .fil49 {fill:#FF9176}
    .fil9 {fill:#C5F36D}
    .fil4 {fill:#A7F2D4}
    .fil52 {fill:#FF76AA}
    .fil40 {fill:#FEFEFE;fill-rule:nonzero}
    .fil11 {fill:#4B4B4D;fill-rule:nonzero}
    .fil39 {fill:#373435;fill-rule:nonzero}
    .fil27 {fill:#FFFE77;fill-rule:nonzero}
   ]]>
  </style>
    <clipPath id="id0">
     <path d="M6420.77 10743.58l612.73 -279.15 72.65 41.12 -139.44 -82.03 -0 -38.21 -496.7 -292.93 -38.21 25.47 -75.64 -44.49 64.62 670.22z"/>
    </clipPath>
    <clipPath id="id1">
     <path d="M5882.62 11307.64l494.48 -488.43 -186.86 668.02 -307.62 -179.59z"/>
    </clipPath>
     <clipPath id="id2">
      <path d="M5553.92 10064.28c18.8,18.01 33.36,30.11 43.69,36.28 62.13,37.4 107.79,67.12 136.97,89.18 18.9,16.19 58.37,25.2 118.39,27.04 49.56,0.34 84.45,-3.93 104.68,-12.81 24.83,-10.82 23.2,-33.08 -4.89,-66.81 -19.77,-22 -53.92,-40.37 -102.45,-55.12 -38.78,-12.01 -74.96,-31.44 -108.52,-58.31 -27.47,-18.21 -60.86,-29.55 -100.15,-34.02 -53.67,-6.7 -87.39,-1 -101.15,17.09 -8.72,12.02 -4.24,31.17 13.43,57.47z"/>
     </clipPath>
     <clipPath id="id3">
      <path d="M7490.7 12085.12c27.33,-84.69 70.88,-155.82 130.64,-213.4 0.02,-0.02 0.04,-0.04 0.06,-0.06 38.3,-34.08 55.84,-71.63 52.61,-112.64 -13.54,-17.15 -20.31,-25.72 -20.31,-25.72 -15.23,-7.86 -35.22,-6.27 -59.96,4.77 -59.03,25.55 -102.3,74.17 -129.8,145.85 -39.58,90.01 -30.66,157.07 26.76,201.19z"/>
     </clipPath>
    <clipPath id="id4">
     <path d="M424.69 5040.9c548.1,0 822.15,0 822.15,0 0,0 -26.98,223.64 -80.95,670.92 0,0 -225.72,0 -677.17,0 0,0 -21.35,-223.64 -64.04,-670.92z"/>
    </clipPath>
     <clipPath id="id5">
      <path d="M4049.66 12440.47c84.25,54.47 149.02,122.66 194.29,204.55 0.02,0.03 0.03,0.06 0.04,0.09 25.94,51.66 61.71,81.71 107.32,90.17 22.63,-9.74 33.94,-14.61 33.94,-14.61 13,-14.3 17.1,-36.53 12.3,-66.69 -10.61,-71.75 -50.93,-133.06 -120.98,-183.93 -86.48,-69.37 -162.12,-79.23 -226.93,-29.57z"/>
     </clipPath>
 </defs>
 <g id="Layer_x0020_1">
  <metadata id="CorelCorpID_0Corel-Layer"/>
  <rect class="fil0" width="8262.11" height="14606.22"/>
  <rect class="fil0" y="1458.9" width="8262.11" height="11684.98"/>
  <g id="hair">
   <polygon class="fil1" points="6782.02,8093.81 5664.78,8093.81 5664.78,7377.82 4898.65,7377.82 4898.65,6213.6 5657.26,6213.6 5660.28,5492.53 6782.02,5492.53 "/>
   <path class="fil0 str0" d="M4951.22 6664.27l0 -405.61m322.99 1074.1l-322.99 0 0 -405.61m713.57 405.61l-165.25 0m210.3 -1074.1l0 1074.1m-758.62 -1074.1l270.4 0m217.83 0l270.39 0 1072.19 0m-1072.19 -480.72l0 210.33"/>
   <path class="fil0 str0" d="M6782.02 5492.53l-144.11 0 -352.32 0 -147.62 0 -428.14 0 0 285.41c-52.57,-22.54 -120.16,-7.5 -120.16,52.59l0 112.67c7.5,52.57 60.08,67.59 120.16,45.07l0 270.39 -180.26 -165.25 -578.36 0 0 368.05 0 11.68 0 21.46 0 21.5 0 21.52 0 21.57 0 21.61 0 21.64 0 21.68 0 5.88c-52.56,-37.76 -120.18,-12.59 -120.18,88.08l0 188.73c7.51,88.1 60.09,113.25 120.18,75.51l0 147.62 0 368.04 533.3 0 180.27 -165.24 45.05 0 1072.19 0 0 -1840.23z"/>
   <path class="fil0 str1" d="M5507.05 7325.24l-7.51 7.52 -7.51 15.02 -202.8 0 -15.01 -15.02 0 -7.52m172.75 -1051.56l0 -15.02 -7.51 -15.03 -210.31 0 -7.52 15.03 -7.51 15.02"/>
   <polygon class="fil1" points="6782.02,6258.66 5709.84,6258.66 5657.28,6210.48 5660.28,5492.53 6782.02,5492.53 "/>
   <path class="fil0 str0" d="M5709.84 6258.66l1072.19 0m-1072.19 -480.72l0 210.33"/>
   <path class="fil0 str0" d="M6782.02 5492.53l-1072.19 0 0 285.41c-52.57,-22.54 -120.16,-7.5 -120.16,52.59l0 112.67c7.5,52.57 60.08,67.59 120.16,45.07l0 270.39 1072.19 0 0 -766.13z"/>
   <path class="fil1" d="M6782.02 8078.79l-73.2 0 -7.51 15.01 80.71 0 0 -15.01zm-546.4 15.01l-7.51 -15.01 -210.31 0 -7.51 15.01 225.34 0z"/>
   <path class="fil0 str0" d="M6010.28 8093.81l-300.45 0m991.48 0l-465.69 0m-525.78 -337.99l-0 -202.81"/>
   <path class="fil0 str0" d="M5709.84 8093.81l0 -337.99c-45.06,22.52 -105.15,22.52 -112.67,-45.07l0 -112.68c0,-52.59 52.58,-75.11 112.66,-45.07l0 -220.25 1072.19 0 0 761.05 -68.07 0 -652.34 0 -351.78 0z"/>
   <path class="fil0 str0" d="M6422.25 8093.81c37.75,52.59 12.59,120.18 -88.07,120.18l-188.74 0c-88.08,-7.51 -113.25,-60.09 -75.5,-120.18l352.32 0z"/>
   <g>
    <polygon class="fil1" points="6827.09,5492.53 6827.09,6213.6 7585.72,6213.6 7585.72,7377.82 6827.09,7377.82 6827.09,8093.81 6782.02,8093.81 6782.02,5492.53 "/>
    <path class="fil0 str0" d="M6984.82 7332.76l-157.73 0m713.55 -405.61l0 405.61 -330.49 0m60.09 -1074.1l270.4 0 0 398.08m-758.62 -398.08l262.89 0"/>
    <path class="fil0 str0" d="M6827.09 7332.76l180.26 165.24 533.3 0 0 -368.04 0 -147.62c60.09,37.74 112.67,12.59 120.17,-75.51l0 -188.73c0,-100.67 -67.6,-125.84 -120.17,-88.08l0 -5.88 0 -21.68 0 -21.64 0 -21.61 0 -21.57 0 -21.52 0 -21.5 0 -21.46 0 -11.68 0 -368.05 -578.36 -0 -180.26 165.25 0 1074.1 45.07 0zm-45.07 -1344.49c52.58,22.52 112.66,7.5 112.66,-45.07l0 -112.67c0,-60.09 -60.08,-75.13 -112.66,-52.59l0 210.33z"/>
    <path class="fil0 str1" d="M6984.82 7325.24l0 7.52 7.5 15.02 210.33 0 7.5 -15.02 7.53 -7.52m-172.77 -1051.56l0 -15.02 7.5 -15.03 210.33 0 7.5 15.03 0 15.02"/>
    <g>
     <polygon class="fil1" points="6827.09,5492.53 6827.09,6213.6 6831.18,6213.6 6782.02,6258.66 6782.02,5492.53 "/>
     <path class="fil0 str0" d="M6782.02 5988.27c52.58,22.52 112.66,7.5 112.66,-45.07l0 -112.67c0,-60.09 -60.08,-75.13 -112.66,-52.59l0 210.33z"/>
    </g>
    <polygon class="fil0 str0" points="6782.02,7553.01 6782.02,7755.82 "/>
    <path class="fil0 str0" d="M6782.02 7553.01c60.07,-30.04 112.66,-7.52 120.17,45.07l0 112.68c-15.02,67.59 -67.59,67.59 -120.17,45.06l0 -202.81z"/>
   </g>
   <path class="fil0 str0" d="M6422.25 5492.53c37.75,-52.59 12.59,-120.18 -88.07,-120.18l-188.74 0c-88.08,7.51 -113.25,60.09 -75.5,120.18l352.32 0z"/>
   <path class="fil2" d="M5082.23 6823.21c142.67,87.41 347.44,190.69 486.7,196.41 -180.4,30.95 -342.63,-34.52 -486.7,-196.41z"/>
   <path class="fil3" d="M5965.06 7536.62c54.58,120.12 142.72,278.04 231.15,343.29 -131.51,-59.48 -208.56,-173.91 -231.15,-343.29z"/>
   <path class="fil4" d="M7462.23 6995.16c-80.81,-104.29 -202.99,-237.63 -304.09,-280.73 141.68,27.54 243.04,121.12 304.09,280.73z"/>
   <path class="fil4" d="M6602.45 5934.85c-53.05,-120.8 -139.19,-279.82 -226.78,-346.19 130.74,61.14 206.34,176.53 226.78,346.19z"/>
   <path class="fil3" d="M6339.6 6423.36c-80.32,-46.83 -195.33,-101.73 -272.76,-103.23 99.85,-19.38 190.77,15.03 272.76,103.23z"/>
   <path class="fil4" d="M6109.46 7218.55c-82.93,-42.03 -191.47,-108.81 -234.77,-173.03 37.93,94.37 116.19,152.05 234.77,173.03z"/>
   <path class="fil2" d="M6272.41 7071.77c115.89,46.68 279.47,97.36 382.72,84.32 -129,45.14 -256.58,17.04 -382.72,-84.32z"/>
   <rect class="fil5 str2" x="4951.22" y="6258.66" width="217.78" height="119.34" rx="56.05" ry="59.67"/>
   <rect class="fil6 str3" x="4951.22" y="6378.01" width="217.78" height="119.34" rx="56.05" ry="59.67"/>
   <rect class="fil5 str2" x="4951.22" y="6497.35" width="217.78" height="119.34" rx="56.05" ry="59.67"/>
   <rect class="fil6 str3" x="4951.22" y="6616.69" width="217.78" height="119.34" rx="56.05" ry="59.67"/>
   <rect class="fil5 str2" x="4951.22" y="6736.04" width="217.78" height="119.34" rx="56.05" ry="59.67"/>
   <rect class="fil6 str3" x="4951.22" y="6855.38" width="217.78" height="119.34" rx="56.05" ry="59.67"/>
   <rect class="fil5 str2" x="4951.22" y="6974.73" width="217.78" height="119.34" rx="56.05" ry="59.67"/>
   <rect class="fil6 str3" x="4951.22" y="7094.07" width="217.78" height="119.34" rx="56.05" ry="59.67"/>
   <rect class="fil5 str2" x="4951.22" y="7213.41" width="217.78" height="119.34" rx="56.05" ry="59.67"/>
   <rect class="fil5 str2" x="7322.86" y="6258.66" width="217.78" height="119.34" rx="56.05" ry="59.67"/>
   <rect class="fil6 str3" x="7322.86" y="6378.01" width="217.78" height="119.34" rx="56.05" ry="59.67"/>
   <rect class="fil5 str2" x="7322.86" y="6497.35" width="217.78" height="119.34" rx="56.05" ry="59.67"/>
   <rect class="fil6 str3" x="7322.86" y="6616.69" width="217.78" height="119.34" rx="56.05" ry="59.67"/>
   <rect class="fil5 str2" x="7322.86" y="6736.04" width="217.78" height="119.34" rx="56.05" ry="59.67"/>
   <rect class="fil6 str3" x="7322.86" y="6855.38" width="217.78" height="119.34" rx="56.05" ry="59.67"/>
   <rect class="fil5 str2" x="7322.86" y="6974.73" width="217.78" height="119.34" rx="56.05" ry="59.67"/>
   <rect class="fil6 str3" x="7322.86" y="7094.07" width="217.78" height="119.34" rx="56.05" ry="59.67"/>
   <rect class="fil5 str2" x="7322.86" y="7213.41" width="217.78" height="119.34" rx="56.05" ry="59.67"/>
   <rect class="fil6 str3" transform="matrix(2.64845E-14 1 -1.06461 2.81958E-14 6783.93 7876.03)" width="217.78" height="112.1" rx="56.05" ry="56.05"/>
   <rect class="fil5 str2" transform="matrix(2.64845E-14 1 -1.06461 2.81958E-14 6664.59 7876.03)" width="217.78" height="112.1" rx="56.05" ry="56.05"/>
   <rect class="fil6 str3" transform="matrix(2.64845E-14 1 -1.06461 2.81958E-14 6545.25 7876.03)" width="217.78" height="112.1" rx="56.05" ry="56.05"/>
   <rect class="fil5 str2" transform="matrix(2.64845E-14 1 -1.06461 2.81958E-14 6425.9 7876.03)" width="217.78" height="112.1" rx="56.05" ry="56.05"/>
   <rect class="fil6 str3" transform="matrix(2.64845E-14 1 -1.06461 2.81958E-14 6306.56 7876.03)" width="217.78" height="112.1" rx="56.05" ry="56.05"/>
   <rect class="fil5 str2" transform="matrix(2.64845E-14 1 -1.06461 2.81958E-14 6187.21 7876.03)" width="217.78" height="112.1" rx="56.05" ry="56.05"/>
   <rect class="fil6 str3" transform="matrix(2.64845E-14 1 -1.06461 2.81958E-14 6067.87 7876.03)" width="217.78" height="112.1" rx="56.05" ry="56.05"/>
   <rect class="fil5 str2" transform="matrix(2.64845E-14 1 -1.06461 2.81958E-14 5948.53 7876.03)" width="217.78" height="112.1" rx="56.05" ry="56.05"/>
   <rect class="fil6 str3" transform="matrix(2.64845E-14 1 -1.06461 2.81958E-14 5829.18 7876.03)" width="217.78" height="112.1" rx="56.05" ry="56.05"/>
   <rect class="fil6 str3" transform="matrix(2.64845E-14 1 -1.06461 2.81958E-14 6783.93 5492.53)" width="217.78" height="112.1" rx="56.05" ry="56.05"/>
   <rect class="fil5 str2" transform="matrix(2.64845E-14 1 -1.06461 2.81958E-14 6664.59 5492.53)" width="217.78" height="112.1" rx="56.05" ry="56.05"/>
   <rect class="fil6 str3" transform="matrix(2.64845E-14 1 -1.06461 2.81958E-14 6545.25 5492.53)" width="217.78" height="112.1" rx="56.05" ry="56.05"/>
   <rect class="fil5 str2" transform="matrix(2.64845E-14 1 -1.06461 2.81958E-14 6425.9 5492.53)" width="217.78" height="112.1" rx="56.05" ry="56.05"/>
   <rect class="fil6 str3" transform="matrix(2.64845E-14 1 -1.06461 2.81958E-14 6306.56 5492.53)" width="217.78" height="112.1" rx="56.05" ry="56.05"/>
   <rect class="fil5 str2" transform="matrix(2.64845E-14 1 -1.06461 2.81958E-14 6187.21 5492.53)" width="217.78" height="112.1" rx="56.05" ry="56.05"/>
   <rect class="fil6 str3" transform="matrix(2.64845E-14 1 -1.06461 2.81958E-14 6067.87 5492.53)" width="217.78" height="112.1" rx="56.05" ry="56.05"/>
   <rect class="fil5 str2" transform="matrix(2.64845E-14 1 -1.06461 2.81958E-14 5948.53 5492.53)" width="217.78" height="112.1" rx="56.05" ry="56.05"/>
   <rect class="fil6 str3" transform="matrix(2.64845E-14 1 -1.06461 2.81958E-14 5829.18 5492.53)" width="217.78" height="112.1" rx="56.05" ry="56.05"/>
  </g>
  <g id="body">
   <path class="fil5" d="M6533.68 12601.37l1413.69 483.97 0 -1592 -522.17 -904.25 -76.42 12.74 -140.09 -76.42 -25.47 25.47 -216.51 -127.36 0 -38.21 -496.7 -292.93 -38.21 25.47 -216.51 -127.36 0 -50.94 -127.36 -76.42 -25.47 -76.42 -1120.77 -12.74 267.46 1553.79 483.97 12.74 547.65 318.4 114.62 191.04c-101.89,25.47 -152.83,89.15 -178.3,203.78l0 382.08c38.21,178.3 140.09,267.46 356.61,165.57z"/>
   <path class="fil0 str1" d="M6470 10092.38l-38.21 25.47 -216.51 -127.36 0 -50.94m993.41 585.85l-25.47 25.47 -216.51 -127.36 0 -38.21m89.15 2279.74l0 25.47 0 25.47 420.29 140.09 12.74 -12.74 12.74 -25.47"/>
   <path class="fil0 str0" d="M7870.95 12970.71l-382.08 -127.36m-433.02 -152.83l-534.91 -178.3m-254.72 -980.67l1082.56 -929.72m-1260.86 -738.69l127.36 76.42m254.72 152.83l496.7 292.93m241.99 140.09l140.09 76.42 509.44 916.99 -1337.28 458.5m-713.21 -713.21l280.19 -1400.96 -1044.35 -12.74m63.68 407.55l76.42 420.29m1617.46 -1579.26l878.79 522.18"/>
   <line class="fil0 str4" x1="6266.23" y1="11531.54" x2="5807.62" y2= "11263.86" />
   <line class="fil0 str4" x1="6266.23" y1="11531.54" x2="5807.73" y2= "11264.09" />
   <polygon class="fil7 str3" points="6877.01,11006.99 5964.52,10480.17 5946.88,10568.35 6808.52,11065.82 "/>
   <polygon class="fil7 str5" points="6284.2,10031.04 6420.77,10743.58 6356.15,10073.36 "/>
   <polygon class="fil7 str5" points="7106.12,10505.58 6420.76,10743.58 7033.5,10464.43 "/>
   <polygon class="fil8" points="6420.77,10743.58 7033.5,10464.43 7106.15,10505.55 6966.7,10423.52 6966.7,10385.31 6470,10092.38 6431.79,10117.85 6356.15,10073.36 "/>
   <g style="clip-path:url(#id0)">
    <g>
     <path id="1" class="fil8 str6" d="M6763.5 10731.06c-5.13,-145.22 -79.88,-209.47 -224.23,-192.72 -57.68,-133.39 -150.68,-165.99 -279.02,-97.83l48.01 497.95 333.56 -151.96 121.68 -55.43z"/>
     <path class="fil3" d="M6519.56 10507.16c-18.29,-31.91 -39.45,-55.89 -63.47,-71.93 -20.86,-13.93 -43.89,-21.87 -69.08,-23.83l3.93 38.65 12.02 118.35 17.8 175.19 0.14 1.39 98.67 -237.82z"/>
     <path class="fil9" d="M6576.43 10539.26c36.72,-0.02 68.03,6.37 93.93,19.17 22.49,11.11 40.9,27.06 55.23,47.83l-35.34 15.75 -108.19 48.22 -160.15 71.38 -1.27 0.57 155.8 -202.92z"/>
     <path class="fil8 str7" d="M6961.08 10472.73c-2.52,-41.11 4.2,-65.98 12.23,-78.98 -5.5,-7.24 -13.28,-11.84 -22.26,-13.18 -7.46,13.33 -25.97,31.27 -63.2,48.99l73.23 43.16z"/>
     <path class="fil8 str7" d="M6853.35 10409.24c-2.52,-41.11 4.2,-65.98 12.23,-78.98 -5.45,-7.17 -13.14,-11.76 -22.02,-13.14 -7.43,13.33 -25.94,31.31 -63.24,49.07l73.03 43.05z"/>
     <path class="fil10 str7" d="M6745.83 10345.86c-2.52,-41.11 4.2,-65.98 12.23,-78.98 -5.5,-7.24 -13.28,-11.84 -22.26,-13.18 -7.46,13.33 -25.97,31.27 -63.2,48.99l73.23 43.16z"/>
     <path class="fil7 str7" d="M6973.31 10393.76c-8.18,13.23 -15.05,36.55 -12.15,78.99 0,0 12.8,7.55 34.36,20.26 63.91,-29.88 72.24,-59.6 65.69,-68.02 -6.2,-10.4 -17.08,-19.51 -32.63,-27.33 -14.37,-9.82 -27.61,-14.92 -39.71,-15.32 -4.19,-0.66 -10.17,2.71 -15.56,11.43z"/>
     <path class="fil7 str7" d="M6887.8 10429.5c38.57,-18.03 55.66,-35.36 63.25,-48.93 4.99,-8.91 5.04,-15.76 2.44,-19.1 -6.21,-10.4 -17.09,-19.51 -32.64,-27.33 -14.37,-9.82 -27.61,-14.92 -39.71,-15.32 -4.19,-0.66 -10.17,2.71 -15.56,11.43 -8.18,13.23 -15.05,36.55 -12.15,78.99 0,0 12.8,7.55 34.36,20.26z"/>
     <path class="fil7 str7" d="M6780.28 10366.12c38.65,-18.07 55.73,-35.43 63.29,-49 4.95,-8.87 4.99,-15.69 2.4,-19.02 -6.21,-10.4 -17.08,-19.51 -32.63,-27.33 -14.37,-9.82 -27.61,-14.92 -39.71,-15.32 -4.18,-0.66 -10.17,2.71 -15.55,11.43 -8.18,13.23 -15.05,36.56 -12.15,78.99 0,0 12.8,7.55 34.36,20.25z"/>
     <path class="fil8 str7" d="M6735.76 10253.7c-7.47,13.32 -25.99,31.25 -63.17,48.95l73.33 43.22c-2.52,-41.11 4.2,-65.98 12.23,-78.98 -5.53,-7.27 -13.35,-11.89 -22.39,-13.2z"/>
     <path class="fil8 str7" d="M6638.09 10282.32c-2.52,-41.11 4.2,-65.99 12.23,-78.98 -5.5,-7.24 -13.28,-11.84 -22.26,-13.18 -7.46,13.32 -25.97,31.27 -63.2,48.99l73.23 43.17z"/>
     <path class="fil8 str7" d="M6530.37 10218.82c-2.52,-41.11 4.2,-65.99 12.23,-78.98 -5.45,-7.18 -13.14,-11.76 -22.02,-13.14 -7.43,13.34 -25.94,31.31 -63.24,49.07l73.03 43.05z"/>
     <path class="fil8 str7" d="M6422.85 10155.45c-2.52,-41.11 4.2,-65.99 12.23,-78.98 -5.5,-7.24 -13.28,-11.84 -22.26,-13.18 -7.46,13.32 -25.97,31.27 -63.2,48.99l73.23 43.17z"/>
     <path class="fil7 str7" d="M6650.33 10203.34c-8.18,13.23 -15.05,36.55 -12.15,78.99 0,0 12.79,7.55 34.36,20.26 63.91,-29.88 72.24,-59.6 65.69,-68.03 -6.2,-10.4 -17.08,-19.51 -32.63,-27.33 -14.37,-9.82 -27.61,-14.92 -39.71,-15.32 -4.19,-0.66 -10.17,2.71 -15.56,11.43z"/>
     <path class="fil7 str7" d="M6564.81 10239.09c38.57,-18.03 55.66,-35.37 63.25,-48.93 4.99,-8.92 5.04,-15.76 2.44,-19.1 -6.2,-10.4 -17.08,-19.51 -32.63,-27.33 -14.37,-9.82 -27.61,-14.92 -39.71,-15.32 -4.19,-0.66 -10.17,2.71 -15.56,11.43 -8.18,13.22 -15.05,36.55 -12.15,78.98 0,0 12.8,7.55 34.36,20.26z"/>
     <path class="fil7 str7" d="M6457.3 10175.7c38.65,-18.07 55.73,-35.43 63.29,-49 4.95,-8.87 4.99,-15.69 2.4,-19.02 -6.21,-10.4 -17.08,-19.51 -32.63,-27.33 -14.37,-9.82 -27.61,-14.92 -39.71,-15.32 -4.18,-0.66 -10.17,2.71 -15.55,11.43 -8.18,13.23 -15.05,36.56 -12.15,78.99 0,0 12.8,7.54 34.36,20.25z"/>
     <path class="fil7 str7" d="M6327.41 10013.04c-8.18,13.23 -15.05,36.55 -12.15,78.99 0,0 12.8,7.55 34.36,20.26 63.91,-29.88 72.24,-59.6 65.69,-68.02 -6.21,-10.4 -17.09,-19.51 -32.64,-27.33 -14.37,-9.82 -27.61,-14.92 -39.71,-15.32 -4.19,-0.66 -10.17,2.71 -15.56,11.43z"/>
    </g>
   </g>
   <polygon class="fil0 str6" points="6420.77,10743.58 7033.5,10464.43 7106.15,10505.55 6966.7,10423.52 6966.7,10385.31 6470,10092.38 6431.79,10117.85 6356.15,10073.36 "/>
   <polygon class="fil8" points="5882.62,11307.64 6377.1,10819.2 6190.24,11487.22 "/>
   <g style="clip-path:url(#id1)">
    <g>
     <rect class="fil7" x="5848.37" y="11261.24" width="514.37" height="42.35"/>
     <polygon class="fil7" points="6205.35,11497.61 5967.89,11086.33 5996.03,11050.37 6238.21,11469.83 "/>
    </g>
   </g>
   <polygon class="fil0 str8" points="5882.62,11307.64 6377.1,10819.2 6190.24,11487.22 "/>
   <g>
    <g>
     <path class="fil0 str9" d="M6260.49 11149.89c-5.81,46.46 -22.01,62.01 -48.61,46.63"/>
     <path class="fil0 str9" d="M6211.88 11196.53c-26.61,-15.35 -21.25,-37.15 16.08,-65.41 8.49,-4.62 -0.11,-13.87 -25.77,-27.76"/>
     <path class="fil0 str9" d="M6139.86 11080.25c-37.33,28.26 -42.69,50.06 -16.08,65.41"/>
     <path class="fil0 str9" d="M6123.77 11145.66c26.6,15.37 42.8,-0.17 48.61,-46.63 -0.24,-9.66 12.06,-6.85 36.92,8.44"/>
     <path class="fil0 str9" d="M6172.38 11099.03c-5.81,46.46 -22.01,62 -48.61,46.63"/>
     <path class="fil0 str9" d="M6123.77 11145.66c-26.61,-15.35 -21.25,-37.15 16.08,-65.41 8.49,-4.62 -0.11,-13.87 -25.77,-27.76"/>
     <path class="fil0 str9" d="M6035.67 11094.79c26.6,15.37 42.8,-0.17 48.61,-46.63 -0.24,-9.66 12.07,-6.85 36.92,8.44"/>
     <path class="fil0 str9" d="M6299.99 11247.4c-26.61,-15.35 -21.25,-37.15 16.08,-65.41 8.49,-4.61 -0.11,-13.87 -25.77,-27.76"/>
     <path class="fil0 str9" d="M6227.97 11131.12c-37.33,28.26 -42.7,50.06 -16.08,65.41"/>
     <path class="fil0 str9" d="M6211.88 11196.53c26.6,15.37 42.8,-0.17 48.61,-46.63 -0.24,-9.66 12.06,-6.84 36.92,8.44"/>
    </g>
    <g>
     <polygon class="fil11 str9" points="6321.72,11172.26 6092.87,11040.14 6114.69,11018.66 6330.47,11143.24 "/>
     <path class="fil7 str10" d="M6316.08 11181.99c-36.83,27.88 -42.55,49.47 -17.14,64.79 0.11,0.07 0.22,0.13 0.33,0.2l18.85 -66.5c-0.24,0.26 -0.52,0.51 -0.83,0.75 -0.35,0.27 -0.75,0.53 -1.2,0.77z"/>
     <path class="fil7 str10" d="M6211.89 11196.53c26.6,15.37 42.8,-0.17 48.6,-46.63 -0.21,-8.39 9.06,-7.37 27.8,3.07l-76.88 -44.39c18.41,11.01 23.93,18.53 16.56,22.54 -37.34,28.26 -42.7,50.06 -16.08,65.41z"/>
     <path class="fil7 str10" d="M6123.77 11145.66c26.6,15.37 42.8,-0.17 48.61,-46.63 -0.21,-8.39 9.06,-7.37 27.8,3.07l-76.88 -44.39c18.42,11.01 23.93,18.53 16.56,22.54 -37.34,28.26 -42.7,50.06 -16.09,65.41z"/>
     <path class="fil7 str10" d="M6037.17 11095.63c25.44,13.79 41.08,-1.56 46.92,-46.06l-46.92 46.06z"/>
    </g>
   </g>
   <path class="fil0 str11" d="M6754.33 10591.62c-58.44,-181.49 -180.86,-252.17 -367.25,-212.04"/>
   <polygon class="fil7 str3" points="7271.22,11720.07 6877.01,11006.99 6808.52,11065.82 7189.58,11748.06 "/>
   <polygon class="fil7 str3" points="7280.74,12857.07 7271.22,11720.07 7188.71,11748.36 7195.31,12827.88 "/>
   <polygon class="fil7 str3" points="5964.52,10480.17 5062.85,10466.76 5078.07,10562.85 5946.88,10568.35 "/>
   <g id="niku">
    <path class="fil12" d="M5536.21 10022.63c0.52,10.97 6.43,24.85 17.72,41.65 18.8,18.01 33.36,30.11 43.69,36.28 62.13,37.4 107.79,67.12 136.97,89.18 18.9,16.19 58.37,25.2 118.39,27.04 49.56,0.34 84.45,-3.93 104.68,-12.81 10.13,-4.41 15.86,-10.74 17.18,-18.97 11.98,-31.2 11.84,-56.31 0.57,-80 -20.49,-30.26 -53.18,-53.04 -98.1,-68.33 -48.23,-16.24 -86.89,-33.23 -116,-50.99 -37.95,-27.08 -70.33,-42.55 -97.14,-46.41 -50.45,-6.12 -80.58,-6.59 -90.38,-1.41 -18.48,11.52 -30,25.65 -34.54,42.4 -3.62,17.45 -4.67,31.04 -3.03,42.36z"/>
    <path class="fil13" d="M5553.92 10064.28c18.8,18.01 33.36,30.11 43.69,36.28 62.13,37.4 107.79,67.12 136.97,89.18 18.9,16.19 58.37,25.2 118.39,27.04 49.56,0.34 84.45,-3.93 104.68,-12.81 24.83,-10.82 23.2,-33.08 -4.89,-66.81 -19.77,-22 -53.92,-40.37 -102.45,-55.12 -38.78,-12.01 -74.96,-31.44 -108.52,-58.31 -27.47,-18.21 -60.86,-29.55 -100.15,-34.02 -53.67,-6.7 -87.39,-1 -101.15,17.09 -8.72,12.02 -4.24,31.17 13.43,57.47z"/>
    <g style="clip-path:url(#id2)">
     <g>
      <g>
       <rect class="fil14" transform="matrix(-0.0350582 -0.0191535 0.0639133 -0.116986 5832.6 10372)" width="286.7" height="3371.51"/>
       <rect class="fil14" transform="matrix(-0.0350582 -0.0191535 0.0639133 -0.116986 5756.95 10353.6)" width="286.7" height="3371.51"/>
       <rect class="fil14" transform="matrix(-0.0350582 -0.0191535 0.0639133 -0.116986 5681.3 10335.2)" width="286.7" height="3371.51"/>
       <rect class="fil14" transform="matrix(-0.0350582 -0.0191535 0.0639133 -0.116986 5605.65 10316.8)" width="286.7" height="3371.51"/>
       <rect class="fil14" transform="matrix(-0.0350582 -0.0191535 0.0639133 -0.116986 5530 10298.5)" width="286.7" height="3371.51"/>
       <rect class="fil14" transform="matrix(-0.0350582 -0.0191535 0.0639133 -0.116986 5454.35 10280.1)" width="286.7" height="3371.51"/>
       <rect class="fil14" transform="matrix(-0.000941715 -0.039938 0.133269 -0.00314241 5598.78 10177.4)" width="286.7" height="3371.51"/>
       <rect class="fil14" transform="matrix(-0.000941715 -0.039938 0.133269 -0.00314241 5520.23 10109.7)" width="286.7" height="3371.51"/>
       <rect class="fil14" transform="matrix(-0.000941715 -0.039938 0.133269 -0.00314241 5441.69 10042.1)" width="286.7" height="3371.51"/>
      </g>
     </g>
    </g>
    <path class="fil0" d="M5553.92 10064.28c18.8,18.01 33.36,30.11 43.69,36.28 62.13,37.4 107.79,67.12 136.97,89.18 18.9,16.19 58.37,25.2 118.39,27.04 49.56,0.34 84.45,-3.93 104.68,-12.81 24.83,-10.82 23.2,-33.08 -4.89,-66.81 -19.77,-22 -53.92,-40.37 -102.45,-55.12 -38.78,-12.01 -74.96,-31.44 -108.52,-58.31 -27.47,-18.21 -60.86,-29.55 -100.15,-34.02 -53.67,-6.7 -87.39,-1 -101.15,17.09 -8.72,12.02 -4.24,31.17 13.43,57.47z"/>
   </g>
   <g id="sushi">
    <path class="fil15" d="M7674.07 11759.03c-13.54,-17.15 -20.31,-25.72 -20.31,-25.72 1.99,-53.53 25.94,-84.72 71.85,-93.58 2.45,39.18 -9.15,67.73 -34.79,85.64 45.54,-12.42 80.78,-3.73 105.71,26.1 -21.86,36.47 -62.69,38.99 -122.46,7.57z"/>
    <path class="fil16" d="M7602.5 12413.17c-23.09,5.69 -34.63,8.53 -34.63,8.53 -91.41,-109.59 -119.96,-212.17 -85.64,-307.77 26.36,-97.47 72.75,-178.21 139.17,-242.2 54.37,-48.38 94.07,-43.47 119.09,14.72 18.74,51.74 28.1,77.61 28.1,77.61 10.87,19.1 -10.54,40.51 -64.23,64.23 -94.52,51.19 -135.53,193.18 -85.8,288.53 35.83,54.92 30.48,87.04 -16.06,96.35z"/>
    <path class="fil17" d="M7490.7 12085.12c27.33,-84.69 70.88,-155.82 130.64,-213.4 0.02,-0.02 0.04,-0.04 0.06,-0.06 38.3,-34.08 55.84,-71.63 52.61,-112.64 -13.54,-17.15 -20.31,-25.72 -20.31,-25.72 -15.23,-7.86 -35.22,-6.27 -59.96,4.77 -59.03,25.55 -102.3,74.17 -129.8,145.85 -39.58,90.01 -30.66,157.07 26.76,201.19z"/>
    <g style="clip-path:url(#id3)">
     <g>
      <path id="1" class="fil8" d="M7494.89 12068.98c2.97,-4.67 8.61,-18.31 8.61,-23.5l3.68 0.37c-6.22,-17.59 -36.32,-51.18 -36.14,-55.05 1.86,-38.44 -10.58,-17.15 -8.67,-70.7 -30.83,6.24 -3.6,7.56 -17.7,40.16 -4.82,11.15 20.77,63.59 27.63,71.01 11.94,12.9 13.31,26.23 22.59,37.7z"/>
      <path class="fil8" d="M7554.08 11872.35c13.49,-16.06 2.83,-51.32 -4.87,-53.7 -16.89,-5.24 -9.54,-41.6 -10.96,-64.03l-18.79 30.35c13.04,55.84 15.86,32.96 -9.43,64.83 -6.7,8.44 3.74,26.14 11.06,26.29 28.42,0.59 7.9,11.1 24.94,38.14 6.59,10.45 3.73,23 29.07,16 3,-6.96 19.76,-4.6 18.79,-25.29 -13.81,-14.89 -59.67,-8.92 -39.81,-32.58z"/>
      <path class="fil8" d="M7494.04 11879.1c-4.46,-12.43 -4.76,18.45 -7.5,-26.56l-2.85 0 0 -3.93c-9.49,1.26 -10.86,18.94 -11.92,23.81 0,6.43 4.95,39.57 8.36,44.68 2.26,3.39 -6.29,15.76 6.98,24.63 7.49,5.02 -5.1,6.57 3.64,10.84 4.3,2.11 -2.9,13.71 5.47,16.81 5.28,1.95 -4.6,7.04 9.4,7.04 1.73,10.76 12.48,6.7 16.81,14.48 1.01,1.82 2.3,3.1 4.27,3.65 3.29,-3.81 10.23,-13.75 16.15,-20.77 0.37,-0.44 2.56,-4.31 4.33,-7.27l0 -6.59c-2.92,-2.51 -4.97,-5.37 -8.98,-0.41 -12.36,15.28 -10.44,-1.38 -23.79,-10.31 -15.3,-10.23 -11.74,-44.71 -17.24,-49.57 -9.66,-8.54 1.32,-8.16 -3.12,-20.53z"/>
      <path class="fil8" d="M7650.2 11813.69c-4.85,-1.29 -39.98,-89.34 -44.89,-101.72l-5.17 0 0 -3.85c-0.52,-0.06 -1.11,-0.12 -1.93,-0.12 -15.65,0 -12.85,8.64 -17.32,16.26 -6.13,37.08 -13.31,40.08 10.06,69.38 5.07,6.35 1.46,10.28 12.76,24.88 18.63,24.06 0.81,18.05 28.27,29.26 6.34,2.59 7.13,3.58 11.79,7.29 1.31,-2.33 11.45,-8.48 16.98,-13.35l0 -5.08 2.37 0c-0.86,-7.66 -5.22,-20.91 -12.91,-22.95z"/>
     </g>
    </g>
    <path class="fil0" d="M7490.7 12085.12c27.33,-84.69 70.88,-155.82 130.64,-213.4 0.02,-0.02 0.04,-0.04 0.06,-0.06 38.3,-34.08 55.84,-71.63 52.61,-112.64 -13.54,-17.15 -20.31,-25.72 -20.31,-25.72 -15.23,-7.86 -35.22,-6.27 -59.96,4.77 -59.03,25.55 -102.3,74.17 -129.8,145.85 -39.58,90.01 -30.66,157.07 26.76,201.19z"/>
    <path class="fil8" d="M7631.61 12339.4c18.01,13.61 28.16,11.43 30.44,-6.52 15.91,4.65 22.82,-5.38 20.74,-30.11 12.22,-12.11 20.47,-28.39 24.75,-48.84 14.87,-0.34 17.55,-8.59 8.03,-24.75 14.27,-11.6 17.84,-25.87 10.71,-42.82 21.51,0.65 26.64,-7.82 15.39,-25.42 24.18,0.39 29.08,-17.23 14.72,-52.86 22.95,-22.97 25.62,-37.92 8.03,-44.83 6.62,-20.43 0.6,-28.68 -18.06,-24.75 12.16,-18.39 5.3,-25.2 -20.58,-20.43 -6.45,3.36 -13.59,6.77 -21.41,10.23 -94.52,51.19 -135.53,193.18 -85.8,288.53 5.23,8.01 9.58,15.54 13.05,22.58z"/>
    <path class="fil8" d="M7674.16 11761.34c1.7,28.26 -6.53,54.86 -24.69,79.81l-11.63 14.27 11.63 -4.72c16.73,-9.92 31.75,-13.64 45.07,-11.17 12.57,-4.86 14.28,-14.08 5.13,-27.67 10.98,-15.41 8.31,-25 -8.03,-28.77 3.44,-6.38 -0.24,-13.29 -11.05,-20.71 -0.68,-0.34 -1.37,-0.68 -2.06,-1.03l-4.38 0z"/>
   </g>
   <g id="ramen">
    <path class="fil18" d="M7363.83 12584.55l-66.47 -393.24c-0.4,-2.36 1.35,-4.59 3.78,-4.93l7.86 -1.11c2.43,-0.34 4.71,1.31 5.06,3.68l58.61 394.35c0.35,2.37 -1.35,4.59 -3.78,4.93l0 0c-2.43,0.34 -4.66,-1.32 -5.06,-3.69z"/>
    <g>
     <path class="fil19" d="M7366.63 12558.15c40.97,63.92 53.26,82.18 116.77,89.71 85.08,10.11 102.08,-27.19 167.32,-20.24 11.65,1.24 47.15,3.06 42.14,32.23 -1.11,4.49 -4.6,6.87 -7.81,5.32 -3.15,-1.52 -4.85,-6.26 -3.86,-10.68 -4.34,-6.87 -28.4,-9.42 -31.27,-9.73 -62.47,-6.65 -81.95,30.47 -167.15,20.25 -67.65,-8.11 -82.06,-28.03 -125.61,-95.94 -2.16,-3.66 -1.79,-9.08 0.83,-12.09 2.62,-3.02 6.49,-2.5 8.65,1.16z"/>
     <path class="fil19" d="M7367.02 12534.93c-0.98,21.75 59.6,75.96 71.48,82.09 48.08,24.85 119.59,18.9 167.38,-4.71 30.79,-15.21 48.8,-25.22 82.33,0.62 1.81,1.39 2.33,2.53 3.5,4.47 2.2,3.61 1.89,9.03 -0.69,12.11 -2.58,3.08 -6.46,2.64 -8.66,-0.97l-0.33 -0.55c-37.53,-20.01 -35.39,-17.65 -71.41,0.18 -50.78,25.12 -124.89,31.4 -176.03,5.15 -17.8,-9.13 -81.8,-63.5 -79.64,-101.61 0.64,-4.66 3.86,-7.72 7.19,-6.82 3.34,0.89 5.52,5.39 4.88,10.05z"/>
     <path class="fil19" d="M7361.01 12487.65c39.41,88.86 90.36,129.45 167.41,122.94 47.49,-4.01 109.54,-62.19 154.51,-24.43 2.57,3.1 2.86,8.53 0.64,12.12 -2.22,3.59 -6.1,3.99 -8.67,0.89 -0.55,0.37 0.04,0 -1.63,-0.7 -58.66,-24.7 -83.71,24.19 -144.85,29.3 -81.89,6.84 -136.41,-37.74 -178.29,-132.12 -1.58,-4.2 -0.42,-9.4 2.58,-11.6 3.01,-2.21 6.72,-0.6 8.3,3.6z"/>
     <path class="fil19" d="M7365.29 12465.61c43.62,78.95 63.92,102.78 137.63,124.69 62.56,18.6 69.77,-69.81 180.27,-26.16 3.28,1.2 5.24,5.9 4.38,10.49 -0.87,4.59 -4.23,7.33 -7.51,6.12 -107.73,-42.55 -109.42,47.2 -180.08,26.23 -77.31,-22.95 -99.27,-49.4 -145.1,-132.24 -1.81,-4.02 -0.94,-9.32 1.94,-11.84 2.88,-2.52 6.67,-1.31 8.47,2.71z"/>
     <path class="fil19" d="M7361.52 12447.03c45.03,79.75 89.9,127.85 167.33,124.41 28.17,-1.25 72.79,-77.82 132.27,-42.33 5.46,3.26 10.02,4.01 16.12,5.83 3.35,0.79 5.6,5.23 5.03,9.91 -0.57,4.68 -3.74,7.83 -7.09,7.03 -7.72,-2.31 -12.16,-2.95 -19,-7.03 -53.85,-32.13 -92.54,42.25 -127.52,43.77 -81.57,3.54 -129.65,-47.58 -177.16,-131.63 -1.97,-3.87 -1.32,-9.23 1.45,-11.98 2.77,-2.75 6.6,-1.85 8.57,2.02z"/>
    </g>
    <path class="fil20" d="M7595.76 12378.49l0 436.29c131.79,-26.76 151.85,-135.93 150.52,-131.32 21.85,35.15 44.6,2.23 45.32,-86.83 -0.73,-89.06 -23.48,-121.97 -45.32,-86.83 1.57,5.43 -18.72,-104.55 -150.52,-131.32z"/>
    <path class="fil18" d="M7379.82 12604.24l-7.94 -398.46c-0.05,-2.4 2.01,-4.35 4.47,-4.35l7.94 0c2.46,0 4.47,1.96 4.47,4.35l0 398.46c0,2.39 -2.01,4.35 -4.47,4.35l0 0c-2.46,0 -4.42,-1.96 -4.47,-4.35z"/>
   </g>
   <g id="pizza">
    <ellipse class="fil21" transform="matrix(-0.0449308 0.0120392 -0.0111292 -0.0415349 5395.38 10174.8)" rx="5385.23" ry="3580.9"/>
    <ellipse class="fil22" transform="matrix(-0.0437497 0.0117227 -0.0101027 -0.0377036 5399.06 10188.5)" rx="5385.23" ry="3580.9"/>
    <path class="fil23" d="M5177.78 10204.46c-0.42,15.8 -3.05,37.98 5.75,56.62 8.08,17.12 26.82,31.19 43.45,36.03 32.36,19.31 62.82,26.53 91.35,21.64 31.27,7.3 62.68,6.46 94.24,-2.53 49.64,-8.46 86.36,-26.09 110.15,-52.91 49.36,-18.35 72.5,-35.92 69.43,-52.69 39.49,-38.6 42.31,-63.86 8.44,-75.78 -2.36,-41.55 -24.14,-63.79 -65.33,-66.71 -28.9,8.16 -60.97,7.39 -96.2,-2.3 -37.1,-10.26 -66.46,-5.07 -88.06,15.58 -54.44,9.63 -93.12,28.24 -116.05,55.82 -30.96,20.81 -56.03,28.29 -57.16,67.22z"/>
    <ellipse class="fil24" transform="matrix(-0.0449308 0.0120392 -0.0120392 -0.0449308 5535.04 10204.5)" rx="902.16" ry="499.66"/>
    <ellipse class="fil24" transform="matrix(-0.0449308 0.0120392 -0.0120392 -0.0449308 5500.17 10124.3)" rx="902.16" ry="499.66"/>
    <ellipse class="fil24" transform="matrix(-0.0449308 0.0120392 -0.0120392 -0.0449308 5346.97 10131.3)" rx="902.16" ry="499.66"/>
    <ellipse class="fil24" transform="matrix(-0.0449308 0.0120392 -0.0120392 -0.0449308 5389.3 10264.3)" rx="902.16" ry="499.66"/>
    <ellipse class="fil24" transform="matrix(-0.0449308 0.0120392 -0.0120392 -0.0449308 5258.83 10216.4)" rx="902.16" ry="499.66"/>
   </g>
   <path class="fil25 str12" d="M7047.43 10624.25c-13.34,2.6 -22.21,1.34 -30.99,-8.87 -9.7,-11.27 -9.56,-27.32 0.32,-35.81 17.89,-15.4 53.35,-10.37 88.82,-5.35 -0.24,26.88 -0.48,53.75 -8.14,72 19.18,-4.86 45.8,-1.09 72.4,2.68 -0.32,35.82 -0.63,71.63 -18.53,87.03 -9.88,8.5 -25.76,6.25 -35.46,-5.02 -8.79,-10.21 -8.71,-19.16 -4.15,-31.97 -13.34,2.6 -22.21,1.34 -30.99,-8.87 -6.06,-7.03 -8.28,-15.93 -6.69,-23.69 -7.91,0.41 -16.38,-3.1 -22.43,-10.14 -8.79,-10.21 -8.71,-19.16 -4.15,-31.97z"/>
   <g>
    <path class="fil26" d="M7247.48 10867.96c1.54,-1.05 0.8,-0.54 0,0zm-0.02 0.02c-17.7,12.01 -11.62,25.83 18.27,41.47 -37.35,4.41 -52.35,16.32 -44.99,35.74 11.1,9.27 25.3,11.1 42.62,5.5 26.05,46.01 40.54,49.9 43.47,11.67 78.06,7.8 81.21,-2 9.46,-29.41 68.39,-23.07 65.29,-32.91 -9.3,-29.55 -9.08,-15.69 -1.29,-26.29 23.35,-31.8 -12,-11.01 -27.86,-15.87 -47.6,-14.57 0.59,-0.04 1.18,-0.07 1.76,-0.1 23.81,-3.54 35.44,-12.77 34.87,-27.68 -2.26,-10.76 -11.41,-18.79 -27.46,-24.11 11.01,-2.02 16.59,-7.91 16.74,-17.67 0.09,-9.54 -4.52,-16.46 -13.84,-20.77 -24.05,-11.31 -39.08,-11.84 -45.1,-1.6 -6.93,9.21 -2.51,16.76 13.27,22.65 -12.89,-2.53 -21.45,-1.09 -25.67,4.32 -10.85,10.85 -1.5,20.74 28.05,29.68 -41.82,-9.34 -63.91,-3.64 -66.29,17.09 -3.57,16.71 12.37,26.55 47.82,29.52l0.57 -0.39z"/>
    <path class="fil26" d="M7314.69 10761.44c-4.05,10.49 8.49,24.96 37.61,43.42 -1.39,0.64 -2.79,1.35 -4.21,2.13 -15.36,12.52 -13.99,31.86 4.1,58.01 11.46,19.91 22.13,27.5 32.02,22.79 16.62,-8.07 15.12,-22.05 -4.49,-41.95 9.01,5.69 15.86,6.72 20.53,3.1 13.55,-8.07 13.49,-20.2 -0.16,-36.38 -10.81,-9.53 -22.27,-13.45 -34.38,-11.75 4.21,-5.63 2.81,-10.37 -4.19,-14.23 -5.08,-3.4 -9.1,-8.8 -12.05,-16.18 -3,-8.04 -0.09,-13.61 8.75,-16.71 7.1,-2.1 8.49,-8.32 4.15,-18.66 -11.92,-31.15 -28.71,-39.71 -50.35,-25.69 20.34,20.34 26.39,31.77 18.16,34.28 -7.51,2.31 -12.68,8.25 -15.5,17.82z"/>
   </g>
   <path class="fil27 str13" d="M7473.03 11339.36c27.55,6.78 48.66,18.54 63.44,35.04 14.67,16.63 23.44,37.46 26.18,62.5 4.14,37.86 -5.94,71.02 -30.21,99.75 -24.39,28.74 -59.02,45.62 -104.13,50.56 -45.23,4.95 -83.2,-4.24 -113.66,-27.59 -30.46,-23.35 -47.75,-53.89 -51.9,-91.74 -2.63,-24.07 1.36,-45.8 11.99,-64.96 10.62,-19.28 28.22,-35.16 52.92,-47.65 -32.95,-6.92 -58.84,-20.98 -77.95,-42.39 -19.1,-21.29 -30.46,-47.95 -33.98,-80.12 -4.86,-44.39 6.79,-83.36 34.81,-117.02 28.14,-33.68 67.73,-53.31 118.88,-58.9 51.16,-5.59 94.06,5.01 128.83,31.93 34.64,26.93 54.51,63.07 59.47,108.42 3.69,33.74 -1.8,62.98 -16.48,87.6 -14.68,24.74 -37.41,42.89 -68.2,54.58zm24.56 106.98c-2.7,-24.67 -12.76,-43.89 -30.07,-57.78 -17.43,-13.88 -38.85,-19.49 -64.37,-16.71 -24.79,2.71 -44.03,12.65 -57.93,29.84 -13.91,17.19 -19.57,37.03 -17.11,59.52 2.57,23.46 12.7,42.31 30.54,56.51 17.71,14.22 38.78,19.99 63.09,17.33 24.55,-2.68 43.89,-12.76 58.15,-30.11 14.14,-17.33 20.08,-36.83 17.7,-58.6zm-5.24 -242.5c-2,-18.26 -8.15,-35.33 -18.48,-51.46 -10.32,-16.01 -24.58,-27.79 -42.77,-35.22 -18.07,-7.45 -36.97,-10.15 -56.45,-8.02 -30.72,3.36 -54.81,15.91 -72.37,37.66 -17.57,21.75 -24.64,47.74 -21.34,77.97 3.36,30.72 16.3,55.01 38.69,72.88 22.52,17.85 49.25,25.09 80.1,21.71 30.24,-3.31 53.94,-15.94 71.37,-37.92 17.42,-21.98 24.51,-47.84 21.25,-77.6z"/>
   <g>
    <g>
     <path class="fil28" d="M6724.56 10812.14c-6.77,0.02 -12.58,1.31 -17.44,3.87 0.59,4.26 0.07,7.87 -1.55,10.82 -2.7,4.86 -8.98,10.5 -18.86,16.91 -9.93,0.85 -19.9,-4.36 -29.9,-15.65 -11.62,-11.69 -14.84,-22.06 -9.68,-31.11 9.86,-11.96 20.76,-17.11 32.71,-15.47 3.93,-7.29 5.87,-19.77 5.83,-37.46 2.25,-8 20.61,-26.14 55.09,-54.42 4.73,-0.31 12.82,-3.61 24.27,-9.89 -1.25,-8.08 0.85,-17.2 6.31,-27.38 0,0 19.34,-17.1 58.01,-51.3 18,-15.03 39.44,-9.65 64.31,16.15 19.09,20.53 23.89,38.4 14.4,53.61 -10.6,12.5 -24.92,28.02 -42.96,46.54 -20.51,19.04 -36.87,26.84 -49.07,23.4 -4.3,6.31 -7.77,13.99 -10.4,23.02 -26.91,26.99 -45.54,42.9 -55.88,47.74 -6.45,-0.03 -14.84,0.17 -25.19,0.61z"/>
     <path class="fil8" d="M6707.13 10816.01c-5.07,-13.18 -14.17,-24.68 -27.29,-34.49 -11.95,-1.65 -22.85,3.51 -32.71,15.47 -5.17,9.05 -1.94,19.42 9.68,31.11 10,11.29 19.97,16.5 29.9,15.65 9.88,-6.41 16.17,-12.05 18.86,-16.91 1.62,-2.95 2.14,-6.56 1.55,-10.82z"/>
     <path class="fil8" d="M6685.66 10744.05c32.75,9.09 54.11,31.58 64.09,67.48 6.94,-3.25 17.61,-11.48 32.01,-24.7l8.9 -8.35 15.46 -14.51c-0.08,-0.34 -0.16,-0.68 -0.24,-1.02 -8.44,-35.66 -30.15,-60.1 -65.13,-73.31 -34.48,28.28 -52.84,46.41 -55.09,54.42z"/>
     <g>
      <path class="fil29" d="M6725.51 10749.56c1.11,6.71 4.45,11.11 10.04,13.2 9.14,3.3 21.76,1.52 37.84,-5.36 9.64,-3.86 14.01,-6.14 12.5,-15.5 -1.3,-7.97 -11.18,-16.69 -29.07,-17.52 -10.21,-1.02 -17.99,1.59 -23.32,7.81 -5.86,7.27 -8.52,13.06 -7.99,17.37z"/>
     </g>
    </g>
    <g>
     <path class="fil30" d="M6800.45 10893.03c-6.76,0.02 -12.58,1.31 -17.44,3.87 0.59,4.26 0.07,7.87 -1.55,10.82 -2.69,4.86 -8.98,10.5 -18.86,16.91 -9.93,0.85 -19.9,-4.36 -29.9,-15.65 -11.62,-11.69 -14.84,-22.06 -9.68,-31.11 9.86,-11.96 20.76,-17.11 32.71,-15.47 3.93,-7.29 5.87,-19.77 5.83,-37.46 2.25,-8 20.61,-26.14 55.09,-54.42 4.73,-0.31 12.82,-3.61 24.27,-9.89 -1.25,-8.08 0.85,-17.2 6.31,-27.38 0,0 19.34,-17.1 58.01,-51.3 18,-15.03 39.44,-9.65 64.31,16.15 19.09,20.53 23.89,38.4 14.4,53.61 -10.6,12.51 -24.92,28.02 -42.96,46.55 -20.52,19.04 -36.87,26.84 -49.07,23.4 -4.3,6.31 -7.77,13.99 -10.4,23.02 -26.91,26.99 -45.54,42.9 -55.88,47.74 -6.45,-0.03 -14.84,0.17 -25.19,0.61z"/>
     <path class="fil8" d="M6783.02 10896.9c-5.07,-13.18 -14.17,-24.68 -27.29,-34.49 -11.95,-1.65 -22.85,3.51 -32.71,15.47 -5.17,9.05 -1.94,19.42 9.68,31.11 10,11.29 19.97,16.5 29.9,15.65 9.88,-6.41 16.17,-12.05 18.86,-16.91 1.63,-2.95 2.14,-6.56 1.55,-10.82z"/>
     <path class="fil8" d="M6761.55 10824.95c32.75,9.09 54.11,31.58 64.09,67.48 6.94,-3.25 17.61,-11.48 32.01,-24.7l8.9 -8.35 15.47 -14.51c-0.08,-0.34 -0.16,-0.68 -0.24,-1.02 -8.44,-35.66 -30.15,-60.1 -65.13,-73.31 -34.48,28.28 -52.85,46.41 -55.09,54.42z"/>
     <g>
      <path class="fil8" d="M6829.7 10835.72c1.75,-2.15 1.05,-2.95 -2.08,-2.4 -1.82,0.66 -2.43,1.79 -1.84,3.4 0.99,1.61 2.3,1.27 3.92,-1z"/>
      <path class="fil8" d="M6828.05 10817.17c0.31,-1.18 -0.22,-1.91 -1.57,-2.21 -1.9,-0.78 -3.13,-0.02 -3.7,2.3 0.73,1.2 1.78,1.67 3.15,1.4 1.45,0.01 2.16,-0.48 2.12,-1.49z"/>
      <path class="fil8" d="M6839.72 10825.15c1.14,-0.75 1.63,-1.71 1.48,-2.89 -0.15,-0.57 -1.23,-0.83 -3.26,-0.79 -2.47,0.2 -3.28,1.24 -2.44,3.12 1.22,1.4 2.62,1.59 4.22,0.57z"/>
      <path class="fil8" d="M6852.17 10827.36c0.03,-1.21 -0.46,-1.91 -1.49,-2.12 -3,-0.55 -4.55,0.18 -4.65,2.19 0.96,1.32 2.16,1.87 3.58,1.67 1.23,-0.04 2.09,-0.62 2.56,-1.73z"/>
     </g>
     <g>
      <path class="fil31" d="M6848.92 10810.25c-7.05,-10.68 -17.07,-15.11 -30.04,-13.29 -18.03,1.89 -21.47,14.96 -10.32,39.21 9.92,19.16 24.44,22.65 43.55,10.45 8.8,-9.27 7.73,-21.39 -3.19,-36.37z"/>
     </g>
    </g>
    <g>
     <path class="fil32" d="M6876.29 10973.87c-6.77,0.02 -12.58,1.32 -17.44,3.88 0.59,4.26 0.07,7.86 -1.55,10.82 -2.7,4.86 -8.98,10.5 -18.87,16.91 -9.93,0.86 -19.9,-4.36 -29.9,-15.65 -11.62,-11.69 -14.84,-22.06 -9.68,-31.11 9.86,-11.96 20.76,-17.11 32.71,-15.47 3.93,-7.29 5.87,-19.77 5.83,-37.46 2.25,-8 20.61,-26.14 55.09,-54.42 4.73,-0.31 12.82,-3.61 24.27,-9.89 -1.25,-8.08 0.85,-17.2 6.31,-27.38 0,0 19.34,-17.1 58.01,-51.3 18.01,-15.03 39.45,-9.65 64.31,16.15 19.09,20.53 23.89,38.4 14.4,53.61 -10.6,12.5 -24.92,28.02 -42.96,46.54 -20.51,19.04 -36.87,26.84 -49.07,23.4 -4.3,6.31 -7.77,13.99 -10.4,23.02 -26.91,26.99 -45.54,42.9 -55.88,47.74 -6.44,-0.03 -14.84,0.17 -25.18,0.61z"/>
     <path class="fil8" d="M6858.85 10977.74c-5.07,-13.18 -14.16,-24.68 -27.28,-34.5 -11.95,-1.65 -22.85,3.51 -32.71,15.47 -5.16,9.05 -1.94,19.42 9.68,31.11 10.01,11.29 19.97,16.51 29.9,15.65 9.88,-6.41 16.17,-12.05 18.87,-16.91 1.62,-2.95 2.14,-6.56 1.55,-10.82z"/>
     <path class="fil8" d="M6837.39 10905.78c32.75,9.09 54.11,31.58 64.08,67.48 6.94,-3.25 17.61,-11.48 32.01,-24.7l8.9 -8.35 15.47 -14.51c-0.08,-0.34 -0.16,-0.68 -0.24,-1.02 -8.44,-35.66 -30.14,-60.1 -65.13,-73.31 -34.48,28.28 -52.84,46.42 -55.09,54.42z"/>
     <g>
      <path class="fil33" d="M6881.35 10886.88c-15.57,-0.31 -17.81,4.66 -6.72,14.88 8.81,30.75 26.28,38.43 52.42,23.02 14.97,1.03 18.87,-3.4 11.7,-13.32 -1.79,-12.55 -8.07,-21.88 -18.84,-27.98 -15.74,-8.97 -28.59,-7.84 -38.56,3.4z"/>
     </g>
    </g>
   </g>
   <g>
    <g>
     <path class="fil34" d="M6942.39 11061.89c-6.75,-0.48 -12.64,0.37 -17.68,2.55 0.27,4.29 -0.52,7.85 -2.37,10.67 -3.05,4.65 -9.75,9.8 -20.08,15.45 -9.97,0.1 -19.52,-5.85 -28.64,-17.87 -10.71,-12.53 -13.14,-23.12 -7.31,-31.76 10.73,-11.18 21.99,-15.5 33.79,-12.96 4.47,-6.97 7.35,-19.28 8.64,-36.93 2.84,-7.81 22.52,-24.51 59.05,-50.11 4.74,0.04 13.05,-2.64 24.96,-8.04 -0.64,-8.15 2.14,-17.09 8.36,-26.83 0,0 20.58,-15.6 61.73,-46.79 19.09,-13.63 40.07,-6.65 62.93,20.95 17.49,21.91 20.93,40.09 10.32,54.56 -11.52,11.67 -26.97,26.06 -46.36,43.18 -21.89,17.44 -38.8,23.98 -50.7,19.64 -4.76,5.97 -8.8,13.36 -12.11,22.18 -28.88,24.88 -48.66,39.35 -59.33,43.4 -6.43,-0.52 -14.82,-0.95 -25.17,-1.3z"/>
     <path class="fil8" d="M6924.71 11064.44c-4.06,-13.53 -12.27,-25.68 -24.61,-36.46 -11.8,-2.55 -23.06,1.77 -33.79,12.96 -5.83,8.64 -3.4,19.23 7.31,31.76 9.12,12.01 18.67,17.97 28.64,17.87 10.34,-5.65 17.03,-10.8 20.08,-15.45 1.85,-2.82 2.64,-6.38 2.37,-10.67z"/>
     <path class="fil8" d="M6908.73 10991.06c31.97,11.54 51.58,35.58 58.83,72.14 7.16,-2.72 18.42,-10.13 33.78,-22.22l9.51 -7.66 16.52 -13.31c-0.06,-0.35 -0.11,-0.69 -0.16,-1.04 -5.73,-36.21 -25.53,-62.21 -59.42,-78.03 -36.52,25.6 -56.21,42.31 -59.05,50.11z"/>
     <path class="fil34" d="M6955.14 10978.01c-8.21,-1.69 -9.84,0.92 -4.85,7.86 -7.5,20.04 1.05,30.8 25.66,32.27 14.11,9.59 21.49,8.14 22.14,-4.35 10.3,-7.41 9.75,-18.58 -1.67,-33.51 -12.82,-11.81 -26.58,-12.57 -41.28,-2.27z"/>
    </g>
    <g>
     <path class="fil35" d="M7011.51 11147.72c-6.75,-0.48 -12.64,0.36 -17.68,2.55 0.27,4.29 -0.52,7.85 -2.36,10.67 -3.05,4.65 -9.75,9.8 -20.08,15.45 -9.97,0.1 -19.52,-5.85 -28.64,-17.86 -10.71,-12.54 -13.14,-23.12 -7.31,-31.76 10.73,-11.18 21.99,-15.5 33.78,-12.96 4.47,-6.97 7.35,-19.27 8.64,-36.92 2.84,-7.81 22.53,-24.51 59.05,-50.12 4.74,0.04 13.05,-2.64 24.96,-8.04 -0.64,-8.15 2.14,-17.09 8.36,-26.83 0,0 20.58,-15.6 61.73,-46.79 19.09,-13.63 40.06,-6.65 62.93,20.95 17.49,21.91 20.93,40.09 10.31,54.55 -11.52,11.68 -26.97,26.07 -46.35,43.18 -21.89,17.44 -38.8,23.99 -50.7,19.64 -4.76,5.98 -8.8,13.37 -12.11,22.18 -28.88,24.89 -48.66,39.36 -59.34,43.4 -6.42,-0.52 -14.81,-0.95 -25.16,-1.29z"/>
     <path class="fil8" d="M6993.83 11150.27c-4.06,-13.53 -12.27,-25.68 -24.61,-36.46 -11.79,-2.54 -23.05,1.78 -33.78,12.96 -5.83,8.64 -3.4,19.22 7.31,31.76 9.12,12.01 18.67,17.96 28.64,17.86 10.34,-5.65 17.03,-10.8 20.08,-15.45 1.85,-2.82 2.64,-6.39 2.36,-10.67z"/>
     <path class="fil8" d="M6977.85 11076.88c31.98,11.54 51.59,35.58 58.83,72.13 7.16,-2.71 18.43,-10.12 33.78,-22.22l9.51 -7.66 16.52 -13.3c-0.05,-0.35 -0.1,-0.69 -0.16,-1.04 -5.73,-36.21 -25.54,-62.21 -59.42,-78.03 -36.52,25.6 -56.21,42.31 -59.05,50.12z"/>
     <g>
      <path class="fil36" d="M7078.43 11099.01c6.26,-17.6 -1.83,-26.44 -24.27,-26.5 6.82,-28.2 0.1,-35.94 -20.17,-23.23 -6.61,4.51 -7.98,12.19 -4.1,23.04 -14.6,9.8 -15.58,18.87 -2.94,27.21 9.82,17.25 18.37,17.43 25.65,0.54 11.2,7.12 19.8,6.76 25.82,-1.07z"/>
     </g>
    </g>
   </g>
   <g>
    <path class="fil37" d="M6228.96 10395.52c-0.11,0 0.45,0.25 -0.32,0.01 -39.67,-12.22 -118.16,-43.67 -144.43,-118.27 -29.47,-83.71 -16.55,-164.53 28.85,-180.51 45.41,-15.99 116.51,35.94 135.58,122.61 15.6,70.85 -13.09,158.84 -19.69,176.16z"/>
    <path class="fil8" d="M6264.55 10504.13c-0.17,11.21 -2.08,17.46 -9.4,20.03 -8.08,2.84 -17.77,-3.73 -21.62,-14.68 -4.5,-12.79 -2.92,-27.72 0.82,-43.4l-25.71 -73.04c-1.02,-2.89 -1.55,-5.79 -1.63,-8.56 -0.24,-8.04 3.25,-14.95 9.4,-17.11 4.49,-1.58 9.46,-0.3 13.7,3.01 3.56,2.78 6.62,6.99 8.43,12.13l25.71 73.04c12.75,9.88 23.33,20.53 27.84,33.32 3.85,10.95 0.42,22.15 -7.66,24.99 -7.32,2.58 -12.72,-1.09 -19.87,-9.73z"/>
   </g>
   <g>
    <g>
     <path class="fil7 str5" d="M6394.08 10745.44l0.3 0.02 15.88 -299.15 -61.28 -3.25 -12.5 235.41c-15.6,-19.38 -25.7,-41.68 -29.68,-60.02 -6.5,-16.89 -52.59,-21.51 -81.41,-12.59l-0.13 0.05 0.65 -0.2c-0.54,0.17 -1.05,0.35 -1.53,0.54 -0.44,0.18 -0.85,0.37 -1.23,0.56l-0.02 0.01c-3.23,1.66 -5.04,4.18 -5.43,7.55 -0.09,2.43 0.25,4.96 1.01,7.57 0.55,1.72 1.32,3.57 2.29,5.54l-0.82 -1.54 0.14 0.3c33.69,63.37 82.15,114.87 145.37,154.52 -0.35,0.43 -0.71,0.87 -1.07,1.32 11.56,16.3 31,27.52 50.9,29.39 0.21,-0.55 0.41,-1.09 0.61,-1.62 65.51,34.69 133.87,50.92 205.08,48.68 12.96,-0.85 18.44,-5.84 16.43,-14.97 -7,-29.63 -34.59,-67.82 -52.05,-64.18 -19.98,7.72 -36.21,7.11 -67.17,4.54l197.96 -128.75 -33.46 -51.44 -251.13 163.33 0.23 0.35c-13.48,-5.47 -26.24,-12.86 -37.71,-21.81 0,0 -0.01,0.01 -0.03,0.04 -0.06,-0.06 -0.12,-0.12 -0.18,-0.18zm37.92 21.96l0.04 0.06 0.14 0.22 -0.04 0.09 -0.04 0.11 0 0 -0.05 0.13 -0.06 0.14 0 0 -0.06 0.16 -0.07 0.18 -0.07 0.2 -0.08 0.22 -0.09 0.23 -0.09 0.25 0 0 -0.1 0.27 -0.11 0.29 0 0 -0.12 0.3 0 0 -0.12 0.33 -0.13 0.34 -0.14 0.36 -0.15 0.38 0 0 -0.15 0.39 0 0 -0.16 0.42 -0.17 0.43 0 0 -0.17 0.45 0 0 -0.18 0.47 -0.19 0.49 -0.19 0.5 -0.2 0.52 0 0 -0.2 0.54 -0 0 -0.21 0.56 0 0 -0.22 0.58 0 0 -0.22 0.59 -0.24 0.61 0 0 -0.24 0.63 0 0 -0.25 0.65 0 0 -0.25 0.67 -0.26 0.68 0 0 -0.27 0.7 0 0 -0.28 0.72 -0.28 0.74 0 0 -0.29 0.76 0 0 -0.3 0.78 0 0 -0.3 0.79 0 0 -0.31 0.81 0 0 -0.31 0.83 0 0 -0.33 0.85 0 0 -0.33 0.87 0 0 -0.33 0.89 0 0 -0.35 0.9 -0.35 0.92 -0.36 0.94 -0.37 0.96 -0.37 0.98 0 0 -0.38 0.99 -0.39 1.02 0 0 -0.39 1.03 -0.4 1.05 -0 0 -0.41 1.06 0 0 -0.41 1.08 0 0 -0.42 1.1 -0.43 1.12 -0.43 1.14 -0.44 1.16 -0.45 1.18 -0.45 1.19 -0.46 1.21 -0.47 1.23 16.07 -42.16 -0.18 -0.28z"/>
     <path class="fil18 str5" d="M6585.53 10779.37c-0.55,0.17 -1.11,0.32 -1.67,0.48l-0.09 0.03 0 -0.01c-49.55,13.9 -112.3,-2.47 -151.8,-12.71 102.49,43.95 155.9,52.13 162.85,24.16 0.7,-9.41 -0.73,-12.81 -9.25,-11.96l-0.05 0.01z"/>
     <path class="fil18 str5" d="M6306.8 10618.45c0.13,0.56 0.28,1.13 0.42,1.68l0.02 0.09 0 -0c12.74,49.86 58.29,96.02 86.91,125.11 -89.31,-66.78 -123.1,-108.95 -102.35,-128.95 7.8,-5.31 11.46,-5.77 14.99,2.03l0.02 0.04z"/>
    </g>
    <path class="fil0 str5" d="M6364.61 10782.07c20.21,-24.2 29.77,-36.62 29.77,-36.62"/>
   </g>
   <g>
    <path class="fil38" d="M6937.16 12136.88c5.58,-13.7 11.46,-27.26 17.78,-40.46 6.79,-14.19 17.13,-34.81 28.95,-45.39 12.75,-11.41 29.02,-22.39 46.78,-22.39 8.05,0 15.86,2.6 23,6.14 9.62,4.77 19.02,11.34 19.02,23.52 0,12.47 -10.4,21.86 -19.21,29.24l-0.26 0.22 -0.27 0.21c-13.56,10.58 -26.09,23.12 -37.66,35.82 -8.28,9.08 -15.8,19.42 -22.76,29.52 -10.36,15.04 -20.03,30.66 -29.33,46.38l-2.12 3.58 79.94 0c14.12,0 27.6,3.58 39.11,11.95 13.15,9.56 21.94,26.42 28.07,41.1l10.37 24.86 -26.86 1.96c-14.04,1.02 -27.08,41.65 -30.04,51.83l-4.07 13.97 -33.61 0c23.3,31.14 43.56,64.5 59.4,100.1l9.34 21 -44 11.23 -7.58 -11.67c-28.22,-43.44 -62.56,-81.47 -103.92,-112.09 0.33,13.08 1.93,26.17 5.38,38.8l2.97 10.87 -23.61 23.61c8.27,16.24 15.74,32.89 22.49,49.8l8.25 20.68 -45.01 11.13 -6.87 -14.12c-18.98,-39.03 -42.62,-78.56 -72.69,-110.13 -0.02,-0.02 -0.05,-0.05 -0.07,-0.07 -4.99,5.58 -12.08,9.61 -19.06,12.59 -8.97,4.15 -17.32,10.05 -24.94,16.71 15.65,15.01 30.2,31.18 43,48.68l12.05 16.47 -36.37 23.9 -11.17 -11.13c-26.76,-26.67 -57.83,-48.99 -90.55,-67.75 -32.26,-18.5 -66.69,-34.35 -102.56,-44.45l-24.5 -6.89 57.06 -94.7 13 29.17 0 -30.62 -26.56 -26.56 18.62 -18.56c-6.55,1.1 -13.14,2.05 -19.75,2.86l-21.76 2.66 0 -48.27 15.82 -2.97c8.01,-1.5 19.63,-3.65 29.42,-6.58l0 -80.8 -31.76 -28.93 80.45 -75.87 4.37 38.54c1.13,9.91 7.25,19.01 13.72,26.29 7.68,8.63 16.82,16.95 25.34,24.75 11.22,10.27 22.66,20.34 34.17,30.31 13.71,-12.55 26.07,-26.59 36.04,-42.3 14.08,-22.19 24.06,-48.28 31.65,-73.34l4.17 -13.78 38.83 0 1.16 18.17c0.69,10.76 3.4,21.93 13.22,27.81l16.7 10 -2.22 3.67 31.51 -29.79 0 119.51zm76.96 199.25l1.51 -9.6c2.46,-15.56 4.86,-31.2 6.73,-46.84 0.35,-2.89 0.91,-6.93 1.29,-10.86l-46.59 0 9.56 34.73c9.5,10.56 18.69,21.42 27.5,32.57zm-57.4 -67.3l-19.55 0 0 20.73 19.55 -20.73zm-70.72 102.03l0 -240.78 -21.31 -21.31c-1.77,2.27 -3.56,4.51 -5.37,6.73l0 146.29c0,14.86 1.53,29.8 5.45,44.16l2.97 10.87 -14.15 14.15c11.59,12.64 22.45,25.93 32.41,39.89zm-96.89 -192.15c-21.81,14.23 -45.15,25.77 -69.92,34.56 -8.09,2.87 -16.25,5.54 -24.46,8l4.3 6.49c36.25,15.75 76.76,35.74 109.12,60.52l0 -90.45 -19.04 -19.12zm-78.78 127.63c-5.01,-2.3 -10.06,-4.51 -15.13,-6.6l0 26.13c2.4,-4.38 4.96,-8.38 7.67,-11.68 2.29,-2.79 4.77,-5.45 7.46,-7.85zm41.4 54.45c-6.7,4.01 -12.8,8.93 -18.36,14.42 2.7,1.94 5.37,3.91 8.02,5.93 3.07,-7.18 6.54,-14.34 10.34,-20.34zm-28.52 -211.82l-32.21 -21.51 0 37.78c10.98,-4.82 21.92,-10.21 32.21,-16.27z"/>
    <path class="fil39" d="M6675.79 12360.41l20.51 14.38c8.24,-24.72 15.43,-40.77 21.57,-48.31 6.22,-7.54 12.01,-11.31 17.54,-11.31 5.43,0 11.31,1.75 17.44,5.17 6.14,3.42 9.21,5.79 9.21,7.19 0,4.03 -5.44,8.86 -16.39,14.38 -15.08,8.15 -28.76,20.51 -41.12,36.99 20.51,13.68 35.59,25.34 45.24,34.89 9.56,-27.44 17.45,-43.84 23.59,-49.36 6.22,-5.44 12.01,-8.16 17.44,-8.16 5.52,0 10.96,1.67 16.48,5.09 5.44,3.42 8.24,6.57 8.24,9.29 0,4.12 -4.82,8.24 -14.38,12.27 -15.08,6.93 -30.16,18.5 -45.24,34.98 21.92,19.2 40.42,39.01 55.5,59.61l-6.14 4.03c-26.04,-25.95 -57.6,-49.62 -94.6,-70.84 -37,-21.21 -72.68,-36.64 -106.96,-46.29l24.72 -41.03 8.24 18.5 26.74 14.38 0 -84.25 -18.5 -18.5 28.84 -28.76 12.28 18.5c57.51,24.63 99.68,49.27 126.42,73.91 26.65,24.72 48.92,50.76 66.72,78.11 17.8,27.44 33.58,58.22 47.26,92.5l-8.15 2.01c-23.32,-47.96 -48.66,-86.27 -76.1,-115.02 -27.35,-28.76 -56.46,-51.37 -87.32,-67.86 -30.77,-16.39 -57.16,-28.05 -79.08,-34.89l0 88.37zm-61.81 -152.11c21.92,-4.12 37,-8.24 45.24,-12.28l0 -102.75 -22.62 -20.6 37 -34.89c1.4,12.37 7.54,24.64 18.5,37 10.96,12.28 35.68,34.89 73.99,67.77 21.92,-17.8 39.36,-37 52.43,-57.52 12.98,-20.51 24.28,-46.55 33.84,-78.11l6.22 0c1.32,20.6 8.86,34.98 22.62,43.22 -24.72,41.03 -50.76,72.59 -78.12,94.51 -27.44,21.92 -57.51,38.66 -90.39,50.32 -32.88,11.66 -65.75,19.55 -98.72,23.58l0 -10.26zm143.87 -59.53l-86.27 -57.6 0 102.75c37,-13.68 65.75,-28.76 86.27,-45.15zm69.7 180.78l0 -139.75 -22.53 -22.62 34.89 -32.88 0 127.47c0,17.8 2.01,34.19 6.14,49.27l-18.5 18.5zm213.48 -106.87c10.96,0 20.16,2.81 27.7,8.24 7.54,5.52 14.73,16.48 21.57,32.88 -19.2,1.4 -34.89,23.32 -47.26,65.75l-8.24 0c6.92,-43.84 9.64,-68.12 8.24,-72.94 -1.4,-4.82 -6.14,-7.19 -14.38,-7.19l-110.91 0 0 102.75c0,17.8 2.01,34.19 6.14,49.27l-18.5 18.5 0 -297.91 -24.64 -24.64 37 -34.98 0 160.27 123.27 0zm-113.01 104.85l34.89 -37 6.22 22.62c42.43,46.55 74.61,94.51 96.53,143.78l-8.24 2.1c-35.59,-54.8 -78.73,-98.63 -129.4,-131.51zm10.26 -139.75c26.04,-69.87 45.59,-110.64 58.57,-122.3 12.98,-11.57 24.28,-17.44 33.84,-17.44 4.12,0 8.94,1.4 14.38,4.12 5.52,2.72 8.24,4.82 8.24,6.14 0,2.81 -4.12,7.54 -12.27,14.38 -12.36,9.65 -25.69,22.27 -40.07,38.05 -14.38,15.78 -32.53,42.09 -54.44,79.08l-8.24 -2.01z"/>
   </g>
   <path class="fil0 str14" d="M6754.33 10591.62c-58.44,-181.49 -180.86,-252.17 -367.25,-212.04"/>
   <polygon class="fil7 str3" points="6266.48,11531.52 6377.7,10817.08 6190.24,11487.22 "/>
   <polygon class="fil7 str3" points="5807.73,11264.09 6377.1,10819.2 5882.62,11307.64 "/>
   <path class="fil0 str0" d="M6520.94 12512.22c-76.41,89.15 -254.72,63.68 -267.45,-89.15l0 -356.61c12.74,-152.83 191.04,-191.04 267.45,-89.15l-254.72 -445.76c38.21,114.63 -89.15,254.72 -216.51,165.57l-318.4 -178.3c-101.89,-63.68 -50.94,-241.98 76.42,-254.72l-534.91 -12.74 -89.15 -573.12c-89.15,63.68 -191.04,50.94 -216.51,-50.95l-38.21 -241.98c-12.74,-101.89 63.68,-165.57 178.3,-127.36l-63.68 -407.55 0 -203.78 534.91 -382.08 292.93 12.74 0 445.76 216.51 140.09 547.65 -904.25 25.47 25.47 254.72 -178.3 967.93 573.12 -38.21 292.93 38.21 25.47 -534.91 904.26 229.25 127.36 394.82 -216.51 140.09 254.72 -76.42 649.54 -178.3 101.89 12.74 1451.9 -318.4 178.3 -891.52 -305.66 -140.1 -331.13z"/>
  </g>
  <g id="arm">
   <polygon class="fil8" points="499.26,5998.38 499.26,3814.16 1161.53,3814.16 1161.53,5998.38 "/>
   <polygon class="fil8" points="499.26,5998.38 499.26,8182.59 1161.53,8182.59 1161.53,5998.38 "/>
   <polygon class="fil5" points="493.22,5998.38 493.22,6241.89 399.58,7138.53 493.22,7138.53 1155.49,7138.53 1261.21,7138.53 1155.49,6191.79 1155.49,5998.38 1155.49,5804.96 1261.21,4858.22 1155.49,4858.22 493.22,4858.22 399.58,4858.22 493.22,5754.86 "/>
   <polygon class="fil7" points="405.61,7138.53 1267.24,7138.53 1246.84,6955.86 424.69,6955.86 "/>
   <path class="fil0 str15" d="M588.41 7800.51l496.7 0m-496.7 -1515.58l496.7 0"/>
   <polygon class="fil7" points="499.26,7800.51 1161.53,7800.51 1161.53,7551.55 499.26,7551.55 "/>
   <line class="fil0 str3" x1="405.61" y1="7138.53" x2="1267.24" y2= "7138.53" />
   <polygon class="fil8" points="588.41,7231.67 1085.11,7231.67 1161.53,7231.67 1277.64,7231.67 1267.24,7138.53 1174.26,7138.53 1161.53,7138.53 499.26,7138.53 405.61,7138.53 395.88,7231.67 499.26,7231.67 "/>
   <polygon class="fil7" points="405.61,4858.22 1267.24,4858.22 1246.84,5040.9 424.69,5040.9 "/>
   <path class="fil0 str15" d="M588.41 4196.24l496.7 0m-496.7 1515.58l496.7 0"/>
   <polygon class="fil7" points="499.26,4196.24 1161.53,4196.24 1161.53,4445.21 499.26,4445.21 "/>
   <line class="fil0 str3" x1="405.61" y1="4858.22" x2="1267.24" y2= "4858.22" />
   <polygon class="fil8" points="588.41,4765.08 1085.11,4765.08 1161.53,4765.08 1277.64,4765.08 1267.24,4858.22 1174.26,4858.22 1161.53,4858.22 499.26,4858.22 405.61,4858.22 395.88,4765.08 499.26,4765.08 "/>
   <polygon class="fil18" points="561.71,6540.62 1111.82,6540.62 1085.11,6284.93 588.41,6284.93 "/>
   <path class="fil40" d="M674.18 6489.56l-36.47 0c-5.28,0 -9.03,-1.5 -11.27,-4.54 -2.25,-3.04 -3.39,-7.9 -3.39,-14.51l0 -115.46c0,-6.76 1.17,-11.62 3.47,-14.58 2.3,-2.97 6.03,-4.47 11.19,-4.47l38.66 0c5.69,0 10.64,0.47 14.8,1.36 4.19,0.93 7.94,2.64 11.24,5.25 2.83,2.14 5.31,4.9 7.5,8.22 2.17,3.32 3.8,6.97 4.95,10.97 1.14,4.04 1.72,8.26 1.72,12.72 0,15.37 -5.98,26.63 -17.92,33.74 15.69,6.43 23.52,18.91 23.52,37.49 0,8.58 -1.72,16.34 -5.14,23.2 -3.42,6.9 -8.02,11.97 -13.83,15.23 -3.64,1.97 -7.8,3.36 -12.53,4.15 -4.72,0.82 -10.25,1.22 -16.52,1.22zm-1.81 -68.2l-25.16 0 0 44.82 25.97 0c16.36,0 24.52,-7.58 24.52,-22.73 0,-7.76 -2.11,-13.37 -6.36,-16.87 -4.22,-3.47 -10.55,-5.22 -18.97,-5.22zm-25.16 -61.98l0 39.68 22.16 0c6.03,0 10.67,-0.75 13.94,-2.22 3.3,-1.47 5.8,-4.26 7.55,-8.36 1.36,-2.93 2.03,-6.22 2.03,-9.83 0,-7.75 -2.14,-12.9 -6.44,-15.44 -4.28,-2.54 -10.83,-3.82 -19.6,-3.82l-19.64 0zm165.83 112.77l-5.7 -19.27 -48.49 0 -5.69 19.66c-2.22,7.69 -4.11,12.87 -5.69,15.55 -1.56,2.68 -4.14,4.04 -7.72,4.04 -3.03,0 -5.72,-1.43 -8.05,-4.29 -2.33,-2.86 -3.5,-6.11 -3.5,-9.72 0,-2.11 0.28,-4.29 0.8,-6.51 0.56,-2.25 1.45,-5.33 2.7,-9.33l30.5 -99.66c0.89,-2.86 1.92,-6.29 3.14,-10.3 1.22,-4.04 2.53,-7.36 3.91,-10.01 1.39,-2.65 3.19,-4.79 5.45,-6.44 2.25,-1.64 5.02,-2.47 8.33,-2.47 3.39,0 6.19,0.82 8.44,2.47 2.25,1.64 4.06,3.75 5.45,6.33 1.39,2.57 2.56,5.36 3.5,8.33 0.94,2.97 2.16,6.94 3.61,11.87l31.16 99.05c2.44,7.54 3.67,13.01 3.67,16.44 0,3.54 -1.14,6.83 -3.45,9.8 -2.31,2.97 -5.11,4.43 -8.36,4.43 -1.89,0 -3.53,-0.43 -4.89,-1.32 -1.33,-0.86 -2.47,-2.04 -3.42,-3.54 -0.92,-1.5 -1.89,-3.83 -2.95,-6.9 -1.08,-3.11 -1.97,-5.86 -2.75,-8.22zm-47.83 -42.64l35.63 0 -17.97 -63.27 -17.66 63.27zm181.97 14.01c0,9.26 -1.86,17.59 -5.58,24.99 -3.69,7.4 -9.14,13.19 -16.3,17.37 -7.16,4.18 -15.66,6.26 -25.47,6.26 -11.78,0 -21.5,-2.86 -29.13,-8.54 -5.41,-4.11 -9.8,-9.62 -13.19,-16.48 -3.39,-6.86 -5.08,-13.55 -5.08,-20.05 0,-3.75 1.03,-6.97 3.06,-9.69 2.03,-2.68 4.61,-4 7.75,-4 2.55,0 4.69,1.03 6.44,3.14 1.78,2.07 3.28,5.19 4.52,9.33 1.5,4.86 3.17,8.97 4.92,12.22 1.78,3.29 4.25,6 7.44,8.15 3.22,2.11 7.42,3.18 12.64,3.18 7.14,0 12.97,-2.14 17.44,-6.43 4.47,-4.29 6.72,-9.65 6.72,-16.09 0,-5.11 -1.19,-9.26 -3.61,-12.4 -2.41,-3.18 -5.55,-5.61 -9.39,-7.29 -3.8,-1.68 -8.94,-3.47 -15.33,-5.36 -8.55,-2.57 -15.75,-5.61 -21.5,-9.04 -5.78,-3.47 -10.36,-8.19 -13.75,-14.16 -3.39,-5.97 -5.08,-13.37 -5.08,-22.27 0,-8.44 1.78,-15.94 5.36,-22.52 3.58,-6.54 8.77,-11.58 15.55,-15.12 6.77,-3.54 14.75,-5.29 23.91,-5.29 7.31,0 13.64,1.18 19,3.51 5.33,2.36 9.77,5.47 13.3,9.33 3.5,3.86 6.08,7.94 7.72,12.19 1.61,4.25 2.44,8.44 2.44,12.48 0,3.68 -1.03,7.04 -3.06,10.01 -2.03,2.97 -4.58,4.43 -7.61,4.43 -2.78,0 -4.86,-0.89 -6.3,-2.64 -1.44,-1.79 -3,-4.72 -4.67,-8.76 -2.2,-5.79 -4.78,-10.33 -7.83,-13.58 -3.03,-3.25 -7.91,-4.86 -14.66,-4.86 -6.22,0 -11.28,1.75 -15.08,5.29 -3.83,3.54 -5.75,7.75 -5.75,12.72 0,3.07 0.64,5.72 1.94,7.97 1.31,2.22 3.11,4.15 5.39,5.76 2.28,1.61 4.58,2.86 6.92,3.79 2.33,0.89 6.19,2.22 11.55,3.97 6.72,2.04 12.83,4.25 18.27,6.72 5.45,2.43 10.08,5.4 13.92,8.9 3.83,3.47 6.81,7.9 8.94,13.22 2.14,5.36 3.22,11.91 3.22,19.66zm111.15 0c0,9.26 -1.86,17.59 -5.58,24.99 -3.69,7.4 -9.14,13.19 -16.3,17.37 -7.16,4.18 -15.66,6.26 -25.47,6.26 -11.78,0 -21.49,-2.86 -29.13,-8.54 -5.41,-4.11 -9.8,-9.62 -13.19,-16.48 -3.39,-6.86 -5.08,-13.55 -5.08,-20.05 0,-3.75 1.03,-6.97 3.06,-9.69 2.03,-2.68 4.61,-4 7.75,-4 2.55,0 4.69,1.03 6.44,3.14 1.78,2.07 3.28,5.19 4.53,9.33 1.5,4.86 3.16,8.97 4.91,12.22 1.78,3.29 4.25,6 7.44,8.15 3.22,2.11 7.42,3.18 12.64,3.18 7.14,0 12.97,-2.14 17.44,-6.43 4.47,-4.29 6.72,-9.65 6.72,-16.09 0,-5.11 -1.19,-9.26 -3.61,-12.4 -2.42,-3.18 -5.56,-5.61 -9.39,-7.29 -3.8,-1.68 -8.94,-3.47 -15.33,-5.36 -8.55,-2.57 -15.75,-5.61 -21.5,-9.04 -5.78,-3.47 -10.36,-8.19 -13.75,-14.16 -3.39,-5.97 -5.08,-13.37 -5.08,-22.27 0,-8.44 1.78,-15.94 5.36,-22.52 3.58,-6.54 8.77,-11.58 15.55,-15.12 6.77,-3.54 14.75,-5.29 23.91,-5.29 7.3,0 13.64,1.18 18.99,3.51 5.33,2.36 9.78,5.47 13.3,9.33 3.5,3.86 6.08,7.94 7.72,12.19 1.61,4.25 2.44,8.44 2.44,12.48 0,3.68 -1.03,7.04 -3.06,10.01 -2.03,2.97 -4.58,4.43 -7.61,4.43 -2.78,0 -4.86,-0.89 -6.31,-2.64 -1.44,-1.79 -3,-4.72 -4.67,-8.76 -2.2,-5.79 -4.78,-10.33 -7.83,-13.58 -3.03,-3.25 -7.91,-4.86 -14.66,-4.86 -6.22,0 -11.28,1.75 -15.08,5.29 -3.83,3.54 -5.75,7.75 -5.75,12.72 0,3.07 0.64,5.72 1.94,7.97 1.31,2.22 3.11,4.15 5.39,5.76 2.28,1.61 4.58,2.86 6.92,3.79 2.33,0.89 6.19,2.22 11.56,3.97 6.72,2.04 12.83,4.25 18.27,6.72 5.45,2.43 10.08,5.4 13.92,8.9 3.84,3.47 6.81,7.9 8.95,13.22 2.14,5.36 3.22,11.91 3.22,19.66z"/>
   <g>
   </g>
   <g style="clip-path:url(#id4)">
    <g id="_2043134929152">
     <g>
      <circle class="fil41" cx="836.76" cy="5355.23" r="65.65"/>
      <g>
       <path class="fil41" d="M838.44 4936.66c-71.59,-6.77 -71.43,71.64 0.47,235.24 66.49,-154.31 66.33,-232.73 -0.47,-235.24z"/>
      </g>
      <g>
       <path class="fil41" d="M541.97 5058.07c-55.41,45.84 0.15,101.17 166.67,166.01 -62.11,-156.13 -117.66,-211.47 -166.67,-166.01z"/>
      </g>
      <g>
       <path class="fil41" d="M418.19 5353.55c-6.77,71.59 71.64,71.43 235.24,-0.47 -154.31,-66.49 -232.73,-66.33 -235.24,0.47z"/>
      </g>
      <g>
       <path class="fil41" d="M539.6 5650.01c45.84,55.41 101.17,-0.15 166.01,-166.67 -156.13,62.11 -211.47,117.66 -166.01,166.67z"/>
      </g>
      <g>
       <path class="fil41" d="M835.09 5773.8c71.59,6.77 71.43,-71.64 -0.47,-235.24 -66.49,154.31 -66.33,232.73 0.47,235.24z"/>
      </g>
      <g>
       <path class="fil41" d="M1131.55 5652.39c55.41,-45.84 -0.15,-101.17 -166.67,-166.01 62.11,156.13 117.66,211.47 166.67,166.01z"/>
      </g>
      <g>
       <path class="fil41" d="M1255.33 5356.9c6.77,-71.59 -71.64,-71.43 -235.24,0.47 154.31,66.49 232.73,66.33 235.24,-0.47z"/>
      </g>
      <g>
       <path class="fil41" d="M1133.92 5060.44c-45.84,-55.41 -101.17,0.15 -166.01,166.67 156.13,-62.11 211.47,-117.66 166.01,-166.67z"/>
      </g>
     </g>
    </g>
   </g>
   <path class="fil0" d="M424.69 5040.9c548.1,0 822.15,0 822.15,0 0,0 -26.98,223.64 -80.95,670.92 0,0 -225.72,0 -677.17,0 0,0 -21.35,-223.64 -64.04,-670.92z"/>
   <polygon class="fil0 str15" points="588.41,8131.65 741.24,7927.87 830.39,8131.65 932.28,7927.87 1085.11,8131.65 1085.11,7139.84 1174.26,7138.53 1085.11,6284.93 1085.11,5998.38 1085.11,5711.82 1174.26,4858.22 1085.11,4856.91 1085.11,3865.1 932.28,4068.88 830.39,3865.1 741.24,4068.88 588.41,3865.1 588.41,4857.69 499.26,4858.22 588.41,5711.82 588.41,5998.38 588.41,6284.93 499.26,7138.53 588.41,7139.06 "/>
   <path class="fil9 str16" d="M805.14 4295.11l0 48.48 0 12.52c0,7.71 4.79,14.35 11.54,17.1 2.14,0.87 4.47,1.35 6.92,1.35l13.59 0c2.44,0 4.78,-0.48 6.92,-1.35 6.75,-2.75 11.54,-9.39 11.54,-17.1l0 -12.52 0 -48.48 0 -7.13c0,-6.63 -3.54,-12.46 -8.82,-15.72 -2.81,-1.73 -6.11,-2.73 -9.64,-2.73l-13.59 0c-3.53,0 -6.83,1 -9.64,2.73 -5.28,3.25 -8.82,9.09 -8.82,15.72l0 7.13z"/>
   <path class="fil42 str16" d="M855.64 4295.11l0 48.48c71.09,28.5 67.51,-27.62 0,-48.48z"/>
   <path class="fil42 str16" d="M805.14 4343.59l0 -48.48c-67.5,20.86 -71.09,76.98 0,48.48z"/>
   <path class="fil9 str16" d="M855.64 4295.11c67.51,20.86 71.09,76.98 0,48.48l0 12.52c0,7.01 -3.96,13.14 -9.77,16.26 139.29,150.21 132.52,-125.64 75.3,-139.43 -11.88,-5.4 -32.87,4.43 -62.97,29.49 -3.66,3.05 -7.46,6.32 -11.39,9.82 5.28,3.25 8.82,9.09 8.82,15.72l0 7.13z"/>
   <path class="fil9 str16" d="M805.14 4295.11c-67.51,20.87 -71.09,76.98 0,48.48l0 12.52c0,7.01 3.96,13.14 9.77,16.26 -139.29,150.21 -132.52,-125.63 -75.3,-139.43 11.88,-5.4 32.87,4.43 62.97,29.49 3.66,3.05 7.46,6.32 11.39,9.82 -5.28,3.25 -8.82,9.09 -8.82,15.72l0 7.13z"/>
   <path class="fil3 str17" d="M805.14 7649.1l0 48.48 0 12.52c0,7.71 4.79,14.35 11.54,17.1 2.14,0.87 4.47,1.35 6.92,1.35l13.59 0c2.44,0 4.78,-0.48 6.92,-1.35 6.75,-2.75 11.54,-9.39 11.54,-17.1l0 -12.52 0 -48.48 0 -7.13c0,-6.63 -3.54,-12.46 -8.82,-15.72 -2.81,-1.73 -6.11,-2.73 -9.64,-2.73l-13.59 0c-3.53,0 -6.83,1 -9.64,2.73 -5.28,3.25 -8.82,9.09 -8.82,15.72l0 7.13z"/>
   <path class="fil43 str17" d="M855.64 7649.1l0 48.48c71.09,28.5 67.51,-27.62 0,-48.48z"/>
   <path class="fil43 str17" d="M805.14 7697.58l0 -48.48c-67.5,20.86 -71.09,76.98 0,48.48z"/>
   <path class="fil3 str17" d="M855.64 7649.1c67.51,20.86 71.09,76.98 0,48.48l0 12.52c0,7.01 -3.96,13.14 -9.77,16.26 139.29,150.21 132.52,-125.64 75.3,-139.43 -11.88,-5.4 -32.87,4.43 -62.97,29.49 -3.66,3.05 -7.46,6.32 -11.39,9.82 5.28,3.25 8.82,9.09 8.82,15.72l0 7.13z"/>
   <path class="fil3 str17" d="M805.14 7649.1c-67.51,20.87 -71.09,76.98 0,48.48l0 12.52c0,7.01 3.96,13.14 9.77,16.26 -139.29,150.21 -132.52,-125.63 -75.3,-139.43 11.88,-5.4 32.87,4.43 62.97,29.49 3.66,3.05 7.46,6.32 11.39,9.82 -5.28,3.25 -8.82,9.09 -8.82,15.72l0 7.13z"/>
  </g>
  <g id="jug">
   <g id="_2043145087536">
    <path class="fil44" d="M7021.63 13650.76l0.16 442.49c-165.61,172.8 -312.43,179.42 -440.47,19.86 -208.88,50.16 -212.35,-673.7 101.03,-573.03 189.54,-83.21 302.64,-46.32 339.28,110.67z"/>
    <path class="fil45" d="M6635.2 13637.85c-8.54,-59.03 -18.49,-89.71 -60.12,-68.51 -182.89,107.34 -103.73,626.11 5.39,467.93 42.74,-93.33 91.98,-172.26 54.73,-399.42z"/>
    <path class="fil46" d="M6637 13650.76c20.78,127.87 17.41,276.12 -56.52,374.8 -26.17,-17.91 -1.48,3 -18.19,-30.9 -16.54,-33.55 -2.53,-161.51 7.51,-182.71 12.87,-27.16 44.02,-187.75 67.2,-161.19z"/>
    <path class="fil47" d="M6619.79 13795.76c14.58,-7.6 20.31,-21.12 17.2,-40.56l-270.35 -149.92 -22.12 51.61c168.76,81.11 275.26,138.86 275.26,138.86z"/>
    <path class="fil47" d="M6597.67 13924.79c0,-25.4 0,-38.1 0,-38.1 -155.65,-9.01 -233.48,-13.52 -233.48,-13.52 -2.46,33.59 -3.69,50.38 -3.69,50.38 158.11,0.82 237.17,1.23 237.17,1.23z"/>
   </g>
   <path class="fil0 str0" d="M7021.63 13650.75c66.01,-47.39 150.85,-15.8 150.85,110.55l0 236.91c-9.43,110.56 -75.42,142.16 -150.85,94.77l0 -442.23z"/>
  </g>
  <g id="head">
   <g id="_2043145082544">
    <path class="fil48" d="M4622.27 9166.3l0 -1235.39c12.74,-1553.79 -12.74,-1757.56 -522.17,-1897.66l-1693.89 0c-445.76,127.36 -522.17,191.04 -522.17,1897.66l0 1235.39 2738.23 0z"/>
    <path class="fil49" d="M2839.24 7345.06c0,0 0,0 0,0 0,191.04 -76.42,343.87 -165.57,343.87 0,0 0,0 0,0 -89.15,0 -178.3,-152.83 -178.3,-343.87 0,0 0,0 0,0 0,-191.04 89.15,-343.87 178.3,-343.87 0,0 0,0 0,0 89.15,0 165.57,152.83 165.57,343.87zm1171.71 0c0,0 0,0 0,0 0,191.04 -76.42,343.87 -165.57,343.87 0,0 0,0 0,0 -101.89,0 -178.3,-152.83 -178.3,-343.87 0,0 0,0 0,0 0,-191.04 76.41,-343.87 178.3,-343.87 0,0 0,0 0,0 89.15,0 165.57,152.83 165.57,343.87z"/>
    <path class="fil50" d="M2495.36 7676.19c0,50.95 -76.41,101.89 -152.83,101.89 0,0 0,0 0,0 0,0 0,0 0,0 -89.15,0 -152.83,-50.94 -152.83,-101.89 0,-50.94 63.68,-89.15 152.83,-89.15 0,0 0,0 0,0 0,0 0,0 0,0 76.42,0 152.83,38.21 152.83,89.15zm1808.5 0c0,50.95 -63.68,101.89 -152.83,101.89 0,0 0,0 0,0 0,0 0,0 0,0 -63.68,0 -127.36,-50.94 -127.36,-101.89 0,-50.94 63.68,-89.15 127.36,-89.15 0,0 0,0 0,0 0,0 0,0 0,0 89.15,0 152.83,38.21 152.83,89.15z"/>
    <path class="fil1" d="M1884.04 9166.3l598.59 0 12.74 -25.47 356.61 0 12.74 25.47 789.63 0 12.74 -25.47 356.6 0 12.74 25.47 585.85 0 0 3043.89 1286.33 0 0 1974.08 -1286.33 0c-38.21,407.55 -458.5,407.55 -700.48,76.42l89.15 -38.21 -203.78 -165.56c331.13,-25.47 318.4,-140.1 331.13,-789.63 -662.27,-114.63 -1108.03,-76.42 -1757.56,0 0,802.36 25.47,764.15 318.4,789.63 -63.68,63.68 -127.36,140.09 -191.04,178.3l89.15 25.47c-241.98,331.13 -675.01,318.4 -713.21,-76.42l-1299.07 0 0 -1974.08 1286.34 0 12.74 -3043.89z"/>
    <path class="fil0 str0" d="M4545.85 10987.54l-2585.4 0m2075.96 -1821.24l509.44 0m-1681.15 0l789.63 0m-1693.88 0l522.17 0m2063.22 -1235.39l-2585.4 0m2585.4 662.27l0 -343.87m-3871.73 4725.04l0 -687.74m547.65 1821.24l-547.65 0 0 -687.74m1209.92 687.74l-280.19 0m356.61 -1821.24l0 1821.24m2585.4 0l0 -1821.24m343.87 1821.24l-267.45 0m1209.91 -687.74l0 687.74 -560.38 0m101.89 -1821.24l458.5 0 0 675.01m-5158.06 -675.01l458.5 0m369.34 0l458.5 0 2585.4 0 445.76 0m-3031.15 -815.1l0 356.61m2585.4 -356.61l0 356.61m-1617.46 -5718.45l152.83 0 -152.83 0zm509.44 0l140.1 0 -140.1 0zm-1477.37 2139.64l0 343.87 0 -343.87zm0 1617.46l0 433.02 0 -433.02zm2585.4 0l0 433.02 0 -433.02z"/>
    <path class="fil0 str0" d="M3781.7 13139.92c25.47,-89.15 25.47,-203.78 0,-356.61 89.15,101.89 140.09,241.99 152.83,369.34l267.45 50.95c-12.74,624.06 0,891.52 -216.51,916.99 76.42,63.68 140.09,76.42 203.77,63.68 -38.21,63.68 -76.41,89.15 -140.09,114.62 114.62,140.1 496.7,241.99 496.7,-191.04l76.42 0 305.66 280.19 904.25 0 0 -280.19 280.19 -178.3 0 -1451.9 -280.19 -191.04 0 -280.19 -980.67 0 -305.66 280.19 0 -458.49c89.15,38.21 191.04,12.74 191.04,-76.42l0 -191.04c0,-101.89 -101.89,-127.36 -191.04,-89.15l0 -1171.71c76.42,38.21 178.3,25.47 191.04,-89.15l0 -254.72c0,-114.62 -101.89,-127.36 -191.04,-89.15l0 -1273.59c76.42,38.21 178.3,38.21 191.04,-76.42l0 -191.04c0,-89.15 -89.15,-127.36 -191.04,-76.42l0 -318.4 -12.74 -1171.71c0,-305.67 -165.57,-649.54 -445.76,-649.54l-509.44 0 0 -649.54 -89.15 0 0 76.42 -458.5 0 0 -76.42 -101.89 0 0 649.54 -496.7 0c-292.93,0 -458.5,343.87 -458.5,649.54l-12.74 1171.71 0 318.4c-101.89,-50.94 -191.04,-12.74 -203.78,76.42l0 191.04c25.47,114.62 114.62,114.62 203.78,76.42l0 1273.59c-89.15,-38.21 -191.04,-25.47 -203.78,89.15l0 254.72c25.47,114.62 127.36,127.36 203.78,89.15l0 1171.71c-89.15,-38.21 -203.78,-12.74 -203.78,89.15l0 191.04c12.74,89.15 101.89,114.62 203.78,76.42l0 458.49 -305.66 -280.19 -980.67 0 0 280.19 -280.19 191.04 0 1451.9 280.19 178.3 0 280.19 904.26 0 305.66 -280.19 76.42 0c0,433.02 382.08,331.14 496.7,191.04 -50.95,-25.47 -101.89,-50.94 -140.09,-114.62 63.68,12.74 140.09,0 203.78,-63.68 -216.51,-25.47 -216.51,-292.93 -216.51,-916.99l267.46 -50.95c25.47,-127.36 76.42,-267.45 165.57,-369.34 -25.47,152.83 -38.21,267.46 0,356.61 356.61,-38.21 713.21,-38.21 1044.35,0l0 0z"/>
    <path class="fil0 str1" d="M686.86 12961.62l-12.74 0 -25.47 12.74 0 433.02 25.47 12.74 12.74 12.74m5132.59 -471.23l12.74 0 25.47 12.74 0 433.02 -25.47 12.74 -12.74 12.74m-929.73 662.27l0 12.74 12.74 25.47 356.61 0 12.74 -25.47 12.74 -12.74m-3667.95 0l-12.74 12.74 -12.74 25.47 -343.87 0 -25.47 -25.47 0 -12.74m292.93 -1783.03l0 -25.47 -12.74 -25.47 -356.61 0 -12.74 25.47 -12.74 25.47m3871.73 0l0 -25.47 12.74 -25.47 356.6 0 12.74 25.47 0 25.47m-2292.47 -6202.41l89.15 89.15 178.3 0 89.15 -89.15m203.78 3082.1l12.74 -25.47 12.74 -25.47 356.6 0 12.74 25.47 0 25.47m-1566.52 0l12.74 -25.47 12.74 -25.47 356.61 0 12.74 25.47 0 25.47m764.16 -636.8c0,0 0,0 0,0 0,203.78 -165.57,356.6 -369.34,356.6 0,0 0,0 0,0 -203.78,0 -369.34,-152.83 -369.34,-356.6 0,0 0,0 0,0 0,0 0,0 0,0 0,-203.78 165.57,-369.34 369.34,-369.34 0,0 0,0 0,0 203.78,0 369.34,165.56 369.34,369.34 0,0 0,0 0,0z"/>
    <polyline class="fil0 str1" points="2758.64,10121.71 2745.9,10121.71 2720.43,10134.31 2720.43,10487.09 2745.9,10499.69 2758.64,10512.28 "/>
    <polyline class="fil0 str1" points="3754.41,10121.71 3767.14,10121.71 3792.62,10134.31 3792.62,10487.09 3767.14,10499.69 3754.41,10512.28 "/>
    <polyline class="fil0 str1" points="3451.81,9808.75 3451.81,9796.02 3439.21,9770.54 3086.43,9770.54 3073.83,9796.02 3061.23,9808.75 "/>
    <polyline class="fil0 str1" points="3451.81,10804.52 3451.81,10817.26 3439.21,10842.73 3086.43,10842.73 3073.83,10817.26 3061.23,10804.52 "/>
    <path class="fil4" d="M2132.1 13388.81c107.74,-374.34 297.22,-873.53 527.45,-1102.2 -358.53,230.31 -534.35,597.71 -527.45,1102.2z"/>
    <path class="fil3" d="M4389.87 13388.81c-107.74,-374.34 -297.22,-873.53 -527.45,-1102.2 358.53,230.31 534.35,597.71 527.45,1102.2z"/>
    <path class="fil2" d="M2355.52 14380.14c-120.05,-173.72 -264.41,-424.59 -281.3,-599.68 -26.47,229.48 67.29,429.37 281.3,599.68z"/>
    <path class="fil4" d="M4141.15 14364.8c120.05,-173.72 264.41,-424.59 281.3,-599.68 26.47,229.48 -67.29,429.37 -281.3,599.68z"/>
    <path class="fil4" d="M1000.6 12974.35c107.74,374.34 297.22,873.53 527.45,1102.2 -358.53,-230.31 -534.35,-597.71 -527.45,-1102.2z"/>
    <path class="fil2" d="M1781.64 12342.56c-127.98,107.78 -290.61,269.48 -340.01,399.81 27.58,-180.94 140.92,-314.22 340.01,-399.81z"/>
    <path class="fil3" d="M5445.62 12951.57c-107.74,374.34 -297.22,873.53 -527.45,1102.2 358.53,-230.31 534.35,-597.71 527.45,-1102.2z"/>
    <path class="fil4" d="M4958.72 12347.39c102.39,132.33 227.3,324.67 248.13,462.48 11.17,-182.69 -71.55,-336.85 -248.13,-462.48z"/>
    <path class="fil4" d="M3760.06 11366.02c102.39,132.33 227.3,324.67 248.13,462.48 11.17,-182.69 -71.55,-336.85 -248.13,-462.48z"/>
    <path class="fil3" d="M2815.55 11366.02c-102.39,132.33 -227.3,324.67 -248.13,462.48 -11.17,-182.69 71.55,-336.85 248.13,-462.48z"/>
    <path class="fil2" d="M4420.5 9313.84c-107.74,374.34 -297.22,873.53 -527.45,1102.2 358.53,-230.31 534.35,-597.71 527.45,-1102.2z"/>
    <path class="fil3" d="M2026.87 10063.97c149.25,213.08 377.21,487.28 572.23,581.77 -276.41,-67.7 -467.16,-261.63 -572.23,-581.77z"/>
    <path class="fil4" d="M2867.4 9188.32c-102.39,132.33 -227.3,324.67 -248.13,462.48 -11.17,-182.69 71.55,-336.85 248.13,-462.48z"/>
    <path class="fil9" d="M2806.43 7549.21c-87.39,-37.38 -186.3,-37.29 -273.64,0.26 34.25,84.8 87.57,139.46 140.88,139.46 53.37,0 102.17,-54.77 132.76,-139.72z"/>
    <path class="fil8" d="M2673.67 7001.19c14.56,109.15 21.99,211.96 22.3,324.05 48.67,1.13 96.36,13.4 143.05,21.22 -47.15,6.15 -94.85,19.25 -143.09,20.2 -0.68,109.22 -8.1,210.28 -22.26,322.28 -17.58,-112.98 -26.88,-214.04 -27.91,-322.23 -49.56,-0.87 -99.69,-13.97 -150.39,-20.25 51.08,-7.78 101.18,-20.05 150.3,-21.2 0.21,-113.26 9.54,-216.09 28,-324.06z"/>
    <path class="fil9" d="M3979.7 7544.8c-93.52,-32.12 -186.8,-31.42 -279.83,2.12 31.73,86.25 83.97,142.01 145.52,142.01 54.29,0 103.85,-56.67 134.32,-144.13z"/>
    <path class="fil8" d="M3845.38 7001.19c14.56,109.15 21.99,211.96 22.3,324.05 48.67,1.13 96.36,13.4 143.05,21.22 -47.15,6.15 -94.85,19.25 -143.09,20.2 -0.68,109.22 -8.1,210.28 -22.26,322.28 -17.58,-112.98 -26.88,-214.04 -27.91,-322.23 -49.56,-0.87 -99.69,-13.97 -150.39,-20.25 51.08,-7.78 101.18,-20.05 150.3,-21.2 0.21,-113.26 9.54,-216.09 28,-324.06z"/>
    <path class="fil51" d="M3036.66 7608.29c0,127.76 95.82,207.62 223.59,207.62 111.79,0 207.61,-79.86 207.61,-207.62 0,-47.91 -431.2,-47.91 -431.2,0z"/>
    <path class="fil52 str18" d="M4622.27 11658.05l-2750.97 0 0 286.26 2750.97 0 0 -286.26zm-2930.36 552.14l0 1141.39 -280.19 1.69 0 -1143.08 280.19 0zm3122.5 0l0 1130.98 280.19 4.19 0 -1135.17 -280.19 0z"/>
    <path class="fil52 str18" d="M1551.83 13290.6c225.68,0 408.62,182.95 408.62,408.62 0,225.68 -182.95,408.62 -408.62,408.62 -225.68,0 -408.62,-182.95 -408.62,-408.62 0,-225.68 182.95,-408.62 408.62,-408.62z"/>
    <path class="fil7" d="M1551.83 13379.66c176.49,0 319.57,143.08 319.57,319.57 0,176.49 -143.08,319.57 -319.57,319.57 -176.49,0 -319.57,-143.08 -319.57,-319.57 0,-176.49 143.08,-319.57 319.57,-319.57z"/>
    <path class="fil52 str18" d="M4954.48 13290.6c225.68,0 408.62,182.95 408.62,408.62 0,225.68 -182.95,408.62 -408.62,408.62 -225.68,0 -408.62,-182.95 -408.62,-408.62 0,-225.68 182.95,-408.62 408.62,-408.62z"/>
    <path class="fil7" d="M4954.48 13379.66c176.49,0 319.57,143.08 319.57,319.57 0,176.49 -143.08,319.57 -319.57,319.57 -176.49,0 -319.57,-143.08 -319.57,-319.57 0,-176.49 143.08,-319.57 319.57,-319.57z"/>
   </g>
   <g id="_2043145079856">
    <path class="fil7" d="M1551.83 13379.66c176.49,0 319.57,143.08 319.57,319.57 0,176.49 -143.08,319.57 -319.57,319.57 -176.49,0 -319.57,-143.08 -319.57,-319.57 0,-176.49 143.08,-319.57 319.57,-319.57z"/>
    <path class="fil4" d="M1402.42 13510.45l131.93 0c7.54,0 13.71,6.17 13.71,13.71 3.02,1.78 5.11,4.55 6.1,7.67 4.74,-2.66 10.84,-2.35 15.32,1.24l82.11 65.91 76.35 -61.29 -147.36 0c-7.54,0 -13.72,-6.17 -13.72,-13.72l0 0c0,-7.55 6.17,-13.72 13.72,-13.72l172.65 0c7.54,0 13.72,6.17 13.72,13.72 4.72,5.88 3.77,14.56 -2.11,19.28l-91.33 73.32 79.69 63.97c5.88,4.73 6.83,13.4 2.11,19.28l0 0c-4.73,5.88 -13.4,6.83 -19.28,2.11l-84.43 -67.77 -70.47 56.57c-5.88,4.72 -14.56,3.77 -19.28,-2.11l0 0c-4.73,-5.88 -3.77,-14.56 2.11,-19.28l65.73 -52.76 -77.36 -62.11c-1.54,-1.24 -2.73,-2.74 -3.59,-4.39l-21.83 37.15c0.55,1.55 0.82,3.22 0.77,4.95l0 0c-0.21,6.61 -5.12,12.04 -11.41,13.16l-8.12 13.82c1.76,2.58 2.64,5.78 2.27,9.13l0 0c-0.82,7.39 -7.46,12.84 -14.83,12.24l-61.9 105.35c-3.82,6.5 -12.26,8.69 -18.76,4.87l0 0c-6.5,-3.82 -8.69,-12.26 -4.87,-18.76l55.56 -94.56 -112.07 -11.59 -10.17 16.53c-3.95,6.42 -12.43,8.44 -18.86,4.49l0 0c-6.42,-3.95 -8.44,-12.43 -4.49,-18.85l11.23 -18.26c0.47,-4.22 2.83,-7.81 6.15,-9.99l51.04 -83c3.01,-4.89 8.64,-7.23 13.99,-6.33zm364.51 13.53l0 0zm-286.06 87.48l3.88 -6.61 -88.79 -2.16 84.91 8.78zm19.77 -33.65l23.47 -39.95 -116.47 0 -22.83 37.12 115.83 2.82zm47.42 -53.65l0 0z"/>
    <path class="fil4" d="M1464.62 13721.69l158.69 0c6.93,0 12.61,5.67 12.61,12.61l0 0c0,6.94 -5.67,12.61 -12.61,12.61l-158.69 0c-6.93,0 -12.61,-5.67 -12.61,-12.61l0 0c0,-6.93 5.67,-12.61 12.61,-12.61zm149.05 149.05c9.83,0 17.8,-7.97 17.8,-17.8 0,-9.83 -7.97,-17.8 -17.8,-17.8 -9.83,0 -17.8,7.97 -17.8,17.8 0,9.83 7.97,17.8 17.8,17.8zm-146.83 0c9.83,0 17.8,-7.97 17.8,-17.8 0,-9.83 -7.97,-17.8 -17.8,-17.8 -9.83,0 -17.8,7.97 -17.8,17.8 0,9.83 7.97,17.8 17.8,17.8zm64.52 36.33l0 -111.97 -109.75 0c-6.93,0 -12.61,-5.67 -12.61,-12.61l0 0c0,-6.93 5.67,-12.61 12.61,-12.61l244.71 0c6.93,0 12.61,5.67 12.61,12.61l0 0c0,6.94 -5.67,12.61 -12.61,12.61l-109.75 0 0 111.97c0,6.94 -5.67,12.61 -12.61,12.61l0 0c-6.93,0 -12.61,-5.67 -12.61,-12.61z"/>
   </g>
   <g id="_2043145079536">
    <path class="fil7" d="M4954.48 13379.66c176.49,0 319.57,143.08 319.57,319.57 0,176.49 -143.08,319.57 -319.57,319.57 -176.49,0 -319.57,-143.08 -319.57,-319.57 0,-176.49 143.08,-319.57 319.57,-319.57z"/>
    <path class="fil4" d="M4805.06 13510.45l131.93 0c7.54,0 13.71,6.17 13.71,13.71 3.02,1.78 5.11,4.55 6.1,7.67 4.74,-2.66 10.84,-2.35 15.32,1.24l82.11 65.91 76.35 -61.29 -147.36 0c-7.54,0 -13.72,-6.17 -13.72,-13.72l0 0c0,-7.55 6.17,-13.72 13.72,-13.72l172.65 0c7.54,0 13.72,6.17 13.72,13.72 4.72,5.88 3.77,14.56 -2.11,19.28l-91.33 73.32 79.69 63.97c5.88,4.73 6.83,13.4 2.11,19.28l0 0c-4.73,5.88 -13.4,6.83 -19.28,2.11l-84.43 -67.77 -70.47 56.57c-5.88,4.72 -14.56,3.77 -19.28,-2.11l0 0c-4.73,-5.88 -3.77,-14.56 2.11,-19.28l65.73 -52.76 -77.36 -62.11c-1.54,-1.24 -2.73,-2.74 -3.59,-4.39l-21.83 37.15c0.55,1.55 0.82,3.22 0.77,4.95l0 0c-0.21,6.61 -5.12,12.04 -11.41,13.16l-8.12 13.82c1.76,2.58 2.64,5.78 2.27,9.13l0 0c-0.82,7.39 -7.46,12.84 -14.83,12.24l-61.9 105.35c-3.82,6.5 -12.26,8.69 -18.76,4.87l0 0c-6.5,-3.82 -8.69,-12.26 -4.87,-18.76l55.56 -94.56 -112.07 -11.59 -10.17 16.53c-3.95,6.42 -12.43,8.44 -18.86,4.49l0 0c-6.42,-3.95 -8.44,-12.43 -4.49,-18.85l11.23 -18.26c0.47,-4.22 2.83,-7.81 6.15,-9.99l51.04 -83c3.01,-4.89 8.64,-7.23 13.99,-6.33zm364.51 13.53l0 0zm-286.06 87.48l3.88 -6.61 -88.79 -2.16 84.91 8.78zm19.77 -33.65l23.47 -39.95 -116.47 0 -22.83 37.12 115.83 2.82zm47.42 -53.65l0 0z"/>
    <path class="fil4" d="M4867.27 13721.69l158.69 0c6.93,0 12.61,5.67 12.61,12.61l0 0c0,6.94 -5.67,12.61 -12.61,12.61l-158.69 0c-6.93,0 -12.61,-5.67 -12.61,-12.61l0 0c0,-6.93 5.67,-12.61 12.61,-12.61zm149.05 149.05c9.83,0 17.8,-7.97 17.8,-17.8 0,-9.83 -7.97,-17.8 -17.8,-17.8 -9.83,0 -17.8,7.97 -17.8,17.8 0,9.83 7.97,17.8 17.8,17.8zm-146.83 0c9.83,0 17.8,-7.97 17.8,-17.8 0,-9.83 -7.97,-17.8 -17.8,-17.8 -9.83,0 -17.8,7.97 -17.8,17.8 0,9.83 7.97,17.8 17.8,17.8zm64.52 36.33l0 -111.97 -109.75 0c-6.93,0 -12.61,-5.67 -12.61,-12.61l0 0c0,-6.93 5.67,-12.61 12.61,-12.61l244.71 0c6.93,0 12.61,5.67 12.61,12.61l0 0c0,6.94 -5.67,12.61 -12.61,12.61l-109.75 0 0 111.97c0,6.94 -5.67,12.61 -12.61,12.61l0 0c-6.93,0 -12.61,-5.67 -12.61,-12.61z"/>
   </g>
   <g id="sushi_0">
    <path class="fil15" d="M4351.3 12735.34c22.63,-9.74 33.95,-14.61 33.95,-14.61 57.71,17.79 84.69,52.98 80.95,105.56 -43.39,-8.77 -71.1,-29.73 -83.12,-62.89 0.24,53.23 -19.51,89.07 -59.27,107.52 -33.34,-34.46 -24.17,-79.65 27.49,-135.59z"/>
    <path class="fil16" d="M3659.76 12466.51c0.54,-26.8 0.81,-40.2 0.81,-40.2 146.03,-67.58 266.09,-68.73 360.19,-3.46 98.46,57.15 172.86,131.23 223.18,222.25 36.82,73.33 19.89,115.13 -50.79,125.41 -61.82,5.3 -92.73,7.96 -92.73,7.96 -23.97,6.26 -41.04,-23.31 -51.21,-88.7 -28.17,-117.88 -170.85,-203.98 -289.21,-177.65 -70.27,22.99 -103.69,7.79 -100.24,-45.6z"/>
    <path class="fil17" d="M4049.66 12440.47c84.25,54.47 149.02,122.66 194.29,204.55 0.02,0.03 0.03,0.06 0.04,0.09 25.94,51.66 61.71,81.71 107.32,90.17 22.63,-9.74 33.94,-14.61 33.94,-14.61 13,-14.3 17.1,-36.53 12.3,-66.69 -10.61,-71.75 -50.93,-133.06 -120.98,-183.93 -86.48,-69.37 -162.12,-79.23 -226.93,-29.57z"/>
    <g style="clip-path:url(#id5)">
     <g>
      <path id="1" class="fil8" d="M4066.01 12449.74c4.22,4.59 17.44,14.72 23.08,16.23l-1.48 3.89c20.97,-1.64 66.34,-24.62 70.5,-23.29 41.33,13.24 21.76,-6.52 79.53,11.19 2.2,-35.4 -7.19,-6.13 -38.58,-30.99 -10.74,-8.5 -75.31,4.06 -85.4,9.37 -17.54,9.24 -32.46,6.85 -47.66,13.6z"/>
      <path class="fil8" d="M4262.89 12571.6c13.56,19.38 55.06,18.06 59.91,10.37 10.63,-16.87 48.09,1.75 72.94,6.74l-27.58 -29.32c-64.62,-2.09 -40.53,7.65 -67.86,-29.2 -7.24,-9.76 -29.55,-3.55 -31.86,4.38 -8.93,30.78 -14.4,5.37 -48.81,16.04 -13.3,4.12 -26.14,-2.65 -25.91,26.99 6.7,5.3 -0.76,22.86 22.06,27.84 20.24,-10.69 27.13,-62.39 47.1,-33.85z"/>
      <path class="fil8" d="M4273.06 12504.23c14.84,-1.23 -18.71,-10.57 31.12,-0.42l0.83 -3.1 4.28 1.15c1.4,-10.7 -17.46,-17.35 -22.45,-19.94 -7,-1.88 -44.54,-6.15 -51.1,-3.93 -4.35,1.47 -15.32,-11.45 -28.86,0.41 -7.65,6.7 -5.66,-7.47 -12.87,0.79 -3.55,4.08 -14.08,-7.16 -19.9,1.05 -3.67,5.18 -6.33,-7.07 -10.41,8.18 -12.22,-1.26 -10.94,11.64 -20.67,14.08 -2.28,0.57 -4.05,1.6 -5.23,3.59 3.19,4.7 12,15.16 17.91,23.65 0.37,0.53 3.94,4.04 6.65,6.83l7.17 1.92c3.58,-2.45 7.3,-3.84 3.07,-9.65 -13.03,-17.92 4.54,-10.97 18.16,-22.9 15.61,-13.68 52.12,0.27 59.02,-4.31 12.12,-8.03 8.5,3.82 23.26,2.59z"/>
      <path class="fil8" d="M4298.73 12693.4c2.82,-4.91 108.97,-17.47 123.88,-19.21l1.51 -5.63 4.19 1.13c0.22,-0.55 0.45,-1.17 0.7,-2.07 4.57,-17.05 -5.67,-16.52 -12.66,-23.6 -38.59,-17.49 -39.77,-26.19 -78.49,-9.29 -8.4,3.66 -11.62,-1.41 -30.82,6.64 -31.64,13.26 -19.89,-4.39 -40.11,22.24 -4.67,6.15 -5.98,6.72 -11.38,10.72 2.15,2.11 5.9,14.95 9.58,22.39l5.53 1.48 -0.69 2.58c8.6,1.3 24.3,0.42 28.76,-7.37z"/>
     </g>
    </g>
    <path class="fil0" d="M4049.66 12440.47c84.25,54.47 149.02,122.66 194.29,204.55 0.02,0.03 0.03,0.06 0.04,0.09 25.94,51.66 61.71,81.71 107.32,90.17 22.63,-9.74 33.94,-14.61 33.94,-14.61 13,-14.3 17.1,-36.53 12.3,-66.69 -10.61,-71.75 -50.93,-133.06 -120.98,-183.93 -86.48,-69.37 -162.12,-79.23 -226.93,-29.57z"/>
    <path class="fil8" d="M3731.6 12519.73c-20.08,15.64 -20.67,27.33 -1.78,35.05 -9.71,15.97 -0.8,26.43 26.74,31.38 9.63,16.84 24.96,30.58 45.97,41.22 -3.97,16.29 4.24,21.62 24.62,15.97 8.46,18.93 22.97,26.99 43.51,24.16 -6.99,23.24 0.74,31.3 23.2,24.18 -7.48,26.21 10.28,36.7 53.27,31.46 18.32,31.7 33.82,38.97 46.48,21.83 20.32,13.17 31.07,9.02 32.23,-12.45 16.48,18.61 25.89,13.13 28.25,-16.45 -1.77,-8.01 -3.41,-16.78 -4.89,-26.3 -28.17,-117.88 -170.85,-203.98 -289.21,-177.65 -10.25,3.36 -19.72,5.9 -28.4,7.62z"/>
    <path class="fil8" d="M4348.76 12734.78c-31.27,-6.41 -57.85,-23.13 -79.72,-50.18l-12.15 -16.82 1.75 14.04c5.92,21.12 5.59,38.56 -0.99,52.34 1.62,15.1 11.17,19.66 28.64,13.67 13.57,16.46 24.8,16.34 33.67,-0.35 5.95,5.61 14.54,3.61 25.79,-5.99 0.57,-0.65 1.14,-1.29 1.72,-1.94l1.27 -4.76z"/>
   </g>
   <g id="_2043145078224">
    <path class="fil7" d="M2108.3 12839.8c-18.15,13.39 -31.7,36.09 -40.65,68.1 4.39,78.14 14.83,135.96 31.33,173.45 11.87,30.62 22.97,49.31 33.31,56.08 24.58,20.45 36.7,6.01 36.36,-43.31 -2.86,-27.43 -10.47,-51.87 -22.8,-73.31 56.12,-63.54 69.23,-103.65 39.32,-120.33 -12.8,-12.79 -30.35,1.37 -52.65,42.49 28.59,-49.52 42.38,-86.3 41.36,-110.35 10.05,-39.08 -11.81,-36.68 -65.59,7.18z"/>
    <path class="fil8" d="M2313.67 12865.35c-5.92,-21.8 -23.9,-14.82 -53.94,20.91 -5.41,-77.55 -11.91,-123.7 -19.49,-138.45 -3.79,-35.17 -12.02,-44.05 -24.69,-26.66 -27.08,30.11 -35.06,83.38 -23.96,159.81 10.56,49.95 26.63,85.3 48.22,106.06 56.32,-20.21 80.95,-60.77 73.87,-121.69z"/>
    <path class="fil7" d="M2298.48 12730.42c4.35,-195.95 128.51,-136.58 136.79,13.08 6.73,50.72 -12.95,87.5 -50.49,78.43 3.42,58.72 -8.12,82.74 -34.64,72.07 -30.9,-2.28 -48.12,-56.8 -51.67,-163.57z"/>
    <path class="fil8" d="M2438.33 12732.09c44.78,55.34 78.97,66.61 102.55,33.81 12.6,-18.29 17.67,-68.02 15.21,-149.19 -2.36,-85.25 -15.52,-118.25 -39.49,-99 -25.15,24.02 -35.93,56.9 -32.32,98.63 -54.09,-83.95 -82.25,-79.53 -84.48,13.24 18.71,21.55 33.95,57.4 38.53,102.52z"/>
    <path class="fil7" d="M2618.75 12435.43c36.95,-0.43 57.4,31.77 61.36,96.61 8.94,102.41 -7.14,155.09 -48.24,158.02 -39.98,6.47 -65.77,-36.59 -77.38,-129.2 -10.95,-83.09 10.47,-124.9 64.26,-125.43z"/>
    <path class="fil8" d="M2788.15 12512.65c11.94,-15.27 21.92,-33.42 29.92,-54.47 26.22,-67.83 11.78,-96.07 -43.32,-84.71 -64.47,19.49 -98.32,52.15 -101.54,97.98 6.86,15.49 11.08,36.2 12.66,62.12 7.56,18.56 16.14,39.34 25.75,62.31 12.41,36.13 25.21,47.03 38.4,32.69 15.41,-37.27 9.97,-63.88 -16.34,-79.83 0,0 8.3,-6.03 24.89,-18.09 -2.4,16.06 4.32,32.01 20.19,47.85 26.95,28.72 45.65,33.73 56.1,15.03 4.2,-31.61 -11.37,-58.58 -46.7,-80.89z"/>
   </g>
   <polyline class="fil0 str1" points="1092.85,12439.45 1076.86,12439.45 1044.88,12455.27 1044.88,12898.07 1076.86,12913.88 1092.85,12929.7 "/>
  </g>
  <g>
   <path class="fil8" d="M173.17 8179.56l670.76 0 0 3749.84 -670.76 0 0 -3749.84zm766.59 0l654.79 0 0 3754.17 -654.79 0 0 -3754.17z"/>
  </g>
  <path class="fil53" d="M180.86 9965.43l662.27 0 0 776.89 -662.27 0 0 -776.89zm764.16 0l649.54 0 0 776.89 -649.54 0 0 -776.89z"/>
  <path class="fil6" d="M180.86 9965.43l662.27 0 0 776.89 -662.27 0 0 -776.89zm764.16 0l649.54 0 0 776.89 -649.54 0 0 -776.89z"/>
  <path class="fil54" d="M180.86 10513.07l662.27 0 0 229.25 -662.27 0 0 -229.25zm764.16 0l649.54 0 0 229.25 -649.54 0 0 -229.25z"/>
  <path class="fil7" d="M180.86 10513.07l662.27 0 0 334.9 -662.27 0 0 -334.9zm764.16 0l649.54 0 0 338.33 -649.54 0 0 -338.33z"/>
  <path class="fil55" d="M307.92 9564.76c-95.18,1.54 6.31,135.09 304.48,400.66 -134.2,-282.7 -235.7,-416.25 -304.48,-400.66z"/>
  <path class="fil55" d="M722.04 9566.7c79.94,-18.9 43.39,114.01 -109.64,398.72 10.11,-264.23 46.66,-397.14 109.64,-398.72z"/>
  <path class="fil52" d="M1479.9 9564.76c95.18,1.54 -6.31,135.09 -304.48,400.66 134.2,-282.7 235.7,-416.25 304.48,-400.66z"/>
  <path class="fil52" d="M1065.78 9566.7c-79.94,-18.9 -43.39,114.01 109.64,398.72 -10.11,-264.23 -46.66,-397.14 -109.64,-398.72z"/>
  <rect class="fil52" transform="matrix(1.1325 0.572922 -0.5 0.758839 250.346 8959.32)" width="496.7" height="52.97"/>
  <rect class="fil52" transform="matrix(1.1325 -0.572922 0.5 0.758839 223.862 9243.9)" width="496.7" height="52.97"/>
  <rect class="fil3" transform="matrix(1.1325 0.572922 -0.5 0.758839 1001.77 8959.32)" width="496.7" height="52.97"/>
  <rect class="fil3" transform="matrix(1.1325 -0.572922 0.5 0.758839 975.284 9243.9)" width="496.7" height="52.97"/>
  <g>
   <path class="fil0 str19" d="M1019.61 10080.05l495.09 0m-1261.67 0l511.06 0m-511.06 -622.85l511.06 0m255.53 0l495.09 0m-1261.67 1293.61l511.06 0m255.53 0l495.09 0"/>
   <path class="fil0 str19" d="M764.08 8275.38l-511.06 0 0 3577.39 511.06 0 0 -3577.39zm255.53 0l495.09 0 0 3577.39 -495.09 0 0 -3577.39z"/>
  </g>
  <g id="jug_1">
   <g id="_2042671215664">
    <path class="fil44" d="M7323.34 13650.76l-0.16 442.49c165.61,172.8 312.43,179.42 440.47,19.86 208.88,50.16 212.35,-673.7 -101.03,-573.03 -189.54,-83.21 -302.64,-46.32 -339.28,110.67z"/>
    <path class="fil45" d="M7709.76 13637.85c8.54,-59.03 18.49,-89.71 60.12,-68.51 182.89,107.34 103.73,626.11 -5.39,467.93 -42.74,-93.33 -91.98,-172.26 -54.73,-399.42z"/>
    <path class="fil46" d="M7707.97 13650.76c-20.78,127.87 -17.41,276.12 56.52,374.8 26.17,-17.91 1.48,3 18.19,-30.9 16.54,-33.55 2.53,-161.51 -7.51,-182.71 -12.87,-27.16 -44.02,-187.75 -67.2,-161.19z"/>
    <path class="fil47" d="M7725.18 13795.76c-14.58,-7.6 -20.31,-21.12 -17.2,-40.56l270.35 -149.92 22.12 51.61c-168.76,81.11 -275.26,138.86 -275.26,138.86z"/>
    <path class="fil47" d="M7747.29 13924.79c0,-25.4 0,-38.1 0,-38.1 155.65,-9.01 233.48,-13.52 233.48,-13.52 2.46,33.59 3.69,50.38 3.69,50.38 -158.11,0.82 -237.17,1.23 -237.17,1.23z"/>
   </g>
   <path class="fil0 str0" d="M7323.33 13650.75c-66.01,-47.39 -150.85,-15.8 -150.85,110.55l0 236.91c9.43,110.56 75.42,142.16 150.85,94.77l0 -442.23z"/>
  </g>
 </g>
</svg>
