<?xml version="1.0" encoding="UTF-8" standalone="no"?>
<!-- Creator: CorelDRAW 2019 (64-Bit) -->

<svg
   xml:space="preserve"
   width="8.26772in"
   height="14.6161in"
   version="1.1"
   style="shape-rendering:geometricPrecision; text-rendering:geometricPrecision; image-rendering:optimizeQuality; fill-rule:evenodd; clip-rule:evenodd"
   viewBox="0 0 8262.11 14606.22"
   id="svg124"
   sodipodi:docname="MinihiraYellow.svg"
   inkscape:version="1.3 (0e150ed6c4, 2023-07-21)"
   inkscape:export-filename="MinihiraYellow.png"
   inkscape:export-xdpi="150"
   inkscape:export-ydpi="150"
   xmlns:inkscape="http://www.inkscape.org/namespaces/inkscape"
   xmlns:sodipodi="http://sodipodi.sourceforge.net/DTD/sodipodi-0.dtd"
   xmlns="http://www.w3.org/2000/svg"
   xmlns:svg="http://www.w3.org/2000/svg"><sodipodi:namedview
   id="namedview124"
   pagecolor="#ffffff"
   bordercolor="#666666"
   borderopacity="1.0"
   inkscape:showpageshadow="2"
   inkscape:pageopacity="0.0"
   inkscape:pagecheckerboard="0"
   inkscape:deskcolor="#d1d1d1"
   inkscape:document-units="in"
   inkscape:export-bgcolor="#ffffffff"
   inkscape:zoom="0.57371094"
   inkscape:cx="396.54116"
   inkscape:cy="701.57281"
   inkscape:window-width="1904"
   inkscape:window-height="1006"
   inkscape:window-x="8"
   inkscape:window-y="34"
   inkscape:window-maximized="1"
   inkscape:current-layer="Layer_x0020_1" />&#10; <defs
   id="defs1">&#10;  <style
   type="text/css"
   id="style1">&#10;   <![CDATA[
    .str10 {stroke:black;stroke-miterlimit:2.61313}
    .str7 {stroke:#373435;stroke-width:29.51;stroke-miterlimit:2.61313}
    .str3 {stroke:#373435;stroke-width:7.87;stroke-miterlimit:2.61313}
    .str4 {stroke:#373435;stroke-width:7.87;stroke-miterlimit:2.61313}
    .str9 {stroke:#FFD727;stroke-width:7.87;stroke-miterlimit:2.61313}
    .str6 {stroke:#373435;stroke-width:7.87;stroke-miterlimit:2.61313}
    .str5 {stroke:#373435;stroke-width:6.94;stroke-miterlimit:2.61313}
    .str8 {stroke:#96989A;stroke-width:3;stroke-miterlimit:2.61313}
    .str2 {stroke:#373435;stroke-width:3;stroke-miterlimit:2.61313}
    .str1 {stroke:black;stroke-width:3;stroke-miterlimit:2.61313}
    .str0 {stroke:#EF0085;stroke-width:3;stroke-miterlimit:2.61313}
    .fil0 {fill:none}
    .fil4 {fill:#FEFEFE}
    .fil3 {fill:#727376}
    .fil12 {fill:#606062}
    .fil2 {fill:#4B4B4D}
    .fil6 {fill:#373435}
    .fil14 {fill:#796655}
    .fil13 {fill:#8C7764}
    .fil10 {fill:#DDB097}
    .fil9 {fill:#F6BFC2}
    .fil7 {fill:#FEF2DC}
    .fil8 {fill:#FFD727}
    .fil11 {fill:#FFAAB6}
    .fil5 {fill:#FEF2DC}
    .fil1 {fill:#FFFE77}
   ]]>&#10;  </style>&#10; </defs>&#10; <g
   id="Layer_x0020_1"
   inkscape:label="Layer 1">&#10;  <metadata
   id="CorelCorpID_0Corel-Layer" />&#10;  <rect
   class="fil0"
   width="8262.11"
   height="14606.22"
   id="rect1" />&#10;  <g
   id="body">&#10;   <path
   class="fil1"
   d="M6533.68 12601.37l1413.69 483.97 0 -1592 -522.17 -904.25 -76.42 12.74 -140.09 -76.42 -25.47 25.47 -216.51 -127.36 0 -38.21 -496.7 -292.93 -38.21 25.47 -216.51 -127.36 0 -50.94 -127.36 -76.42 -25.47 -76.42 -1120.77 -12.74 267.46 1553.79 483.97 12.74 547.65 318.4 114.62 191.04c-101.89,25.47 -152.83,89.15 -178.3,203.78l0 382.08c38.21,178.3 140.09,267.46 356.61,165.57z"
   id="path1" />&#10;   <path
   class="fil0 str0"
   d="M6470 10092.38l-38.21 25.47 -216.51 -127.36 0 -50.94m993.41 585.85l-25.47 25.47 -216.51 -127.36 0 -38.21m89.15 2279.74l0 25.47 0 25.47 420.29 140.09 12.74 -12.74 12.74 -25.47"
   id="path2" />&#10;   <path
   class="fil0 str1"
   d="M7870.95 12970.71l-382.08 -127.36m-433.02 -152.83l-534.91 -178.3m-254.72 -980.67l1082.56 -929.72m-1260.86 -738.69l127.36 76.42m254.72 152.83l496.7 292.93m241.99 140.09l140.09 76.42 509.44 916.99 -1337.28 458.5m-713.21 -713.21l280.19 -1400.96 -1044.35 -12.74m63.68 407.55l76.42 420.29m1617.46 -1579.26l878.79 522.18"
   id="path3" />&#10;   <line
   class="fil0 str2"
   x1="6266.23"
   y1="11531.55"
   x2="5807.62"
   y2="11263.86"
   id="line3" />&#10;   <line
   class="fil0 str2"
   x1="6266.23"
   y1="11531.55"
   x2="5807.73"
   y2="11264.1"
   id="line4" />&#10;   <polygon
   class="fil2 str3"
   points="6877.01,11007 5964.52,10480.17 5946.88,10568.35 6808.52,11065.82 "
   id="polygon4" />&#10;   <polygon
   class="fil2 str3"
   points="6266.48,11531.52 6377.7,10817.08 6190.24,11487.23 "
   id="polygon5" />&#10;   <polygon
   class="fil2 str3"
   points="5807.73,11264.1 6377.11,10819.21 5882.62,11307.64 "
   id="polygon6" />&#10;   <polygon
   class="fil2 str4"
   points="6284.2,10031.04 6420.77,10743.58 6356.15,10073.36 "
   id="polygon7" />&#10;   <polygon
   class="fil2 str4"
   points="7106.13,10505.58 6420.76,10743.58 7033.5,10464.43 "
   id="polygon8" />&#10;   <polygon
   class="fil3 str5"
   points="6420.77,10743.58 7033.5,10464.43 7106.15,10505.55 6966.7,10423.52 6966.7,10385.31 6470,10092.38 6431.79,10117.86 6356.15,10073.36 "
   id="polygon9" />&#10;   <polygon
   class="fil4 str6"
   points="6023.94,11168.94 6377.1,10819.21 6244.38,11296.22 "
   id="polygon10" />&#10;   <polygon
   class="fil5"
   points="6023.94,11168.94 6244.38,11296.22 6190.24,11487.23 5882.63,11307.64 "
   id="polygon11" />&#10;   <line
   class="fil0 str7"
   x1="6266.68"
   y1="11309.09"
   x2="6001.04"
   y2="11155.72"
   id="line11" />&#10;   <path
   class="fil0 str3"
   d="M6372.75 10245.63c128.34,-68.16 221.35,-35.55 279.02,97.83"
   id="path11" />&#10;   <path
   class="fil4 str5"
   d="M6876.01 10536.19c-5.14,-145.22 -79.88,-209.47 -224.23,-192.72 -57.68,-133.39 -150.69,-165.99 -279.02,-97.83l48.01 497.95 333.56 -151.96 121.68 -55.43z"
   id="path12" />&#10;   <path
   class="fil0 str7"
   d="M6754.33 10591.62c-58.44,-181.49 -180.86,-252.17 -367.25,-212.03"
   id="path13" />&#10;   <path
   class="fil0 str3"
   d="M6876.01 10536.19c-5.14,-145.22 -79.88,-209.47 -224.23,-192.72"
   id="path14" />&#10;   <path
   class="fil2 str4"
   d="M6391.24 10726.53l0.45 0.03 24.42 -459.95 -94.22 -5 -19.22 361.95c-23.98,-29.79 -39.51,-64.09 -45.63,-92.27 -9.99,-25.98 -80.85,-33.06 -125.17,-19.37l-0.2 0.07 1 -0.3c-0.82,0.25 -1.61,0.53 -2.35,0.83 -0.67,0.28 -1.3,0.57 -1.89,0.87l-0.04 0.02c-4.97,2.56 -7.75,6.42 -8.35,11.6 -0.14,3.74 0.38,7.62 1.56,11.64 0.85,2.64 2.02,5.48 3.52,8.51l-1.27 -2.36 0.21 0.46c51.81,97.43 126.31,176.62 223.5,237.57 -0.54,0.67 -1.09,1.35 -1.65,2.03 17.77,25.07 47.66,42.32 78.26,45.18 0.32,-0.83 0.63,-1.66 0.94,-2.49 100.72,53.35 205.82,78.29 315.31,74.85 19.93,-1.3 28.35,-8.97 25.26,-23.02 -10.76,-45.56 -53.18,-104.27 -80.03,-98.68 -30.72,11.87 -55.67,10.93 -103.27,6.99l304.36 -197.96 -51.45 -79.09 -386.12 251.13 0.35 0.54c-20.72,-8.42 -40.35,-19.77 -57.97,-33.54 0,0 -0.02,0.02 -0.05,0.06 -0.09,-0.09 -0.19,-0.19 -0.29,-0.29zm58.31 33.76l0.06 0.09 0.21 0.33 -0.05 0.14 -0.06 0.17 0 0 -0.07 0.19 -0.09 0.22 0 0 -0.09 0.25 -0.1 0.28 -0.12 0.3 -0.13 0.33 -0.14 0.36 -0.15 0.39 0 0 -0.16 0.41 -0.17 0.44 0 0 -0.18 0.47 0 0 -0.19 0.5 -0.2 0.53 -0.21 0.55 -0.22 0.58 0 0 -0.23 0.61 0 0 -0.24 0.64 -0.25 0.66 0 0 -0.26 0.69 0 0 -0.28 0.72 -0.29 0.75 -0.3 0.78 -0.31 0.8 0 0 -0.31 0.83 0 0 -0.33 0.86 -0 0 -0.33 0.89 0 0 -0.35 0.92 -0.36 0.94 0 0 -0.37 0.97 0 0 -0.38 1 0 0 -0.39 1.03 -0.4 1.05 0 0 -0.41 1.08 0 0 -0.42 1.11 -0.43 1.14 0 0 -0.44 1.16 0 0 -0.46 1.19 0 0 -0.46 1.22 0 0 -0.48 1.25 0 0 -0.49 1.28 0 0 -0.5 1.3 0 0 -0.51 1.33 0 0 -0.52 1.36 0 0 -0.53 1.39 -0.54 1.42 -0.55 1.44 -0.56 1.47 -0.57 1.5 0 0 -0.58 1.53 -0.59 1.56 0 0 -0.6 1.58 -0.61 1.61 0 0 -0.63 1.64 0 0 -0.63 1.67 0 0 -0.65 1.69 -0.66 1.72 -0.67 1.75 -0.68 1.78 -0.69 1.81 -0.7 1.83 -0.71 1.86 -0.72 1.89 24.7 -64.83 -0.28 -0.42z"
   id="path15" />&#10;   <path
   class="fil0 str4"
   d="M6345.92 10782.85c31.08,-37.2 45.77,-56.29 45.77,-56.29"
   id="path16" />&#10;   <path
   class="fil6 str4"
   d="M6685.59 10778.71c-0.85,0.25 -1.71,0.49 -2.56,0.74l-0.13 0.05 0 -0.01c-76.19,21.38 -172.66,-3.8 -233.4,-19.54 157.57,67.58 239.7,80.15 250.39,37.15 1.08,-14.47 -1.13,-19.69 -14.22,-18.39l-0.07 0.02z"
   id="path17" />&#10;   <path
   class="fil6 str4"
   d="M6257.04 10531.28c0.21,0.86 0.42,1.72 0.65,2.58l0.02 0.14 0.01 -0.01c19.59,76.67 89.62,147.63 133.63,192.35 -137.31,-102.67 -189.26,-167.5 -157.37,-198.26 11.99,-8.17 17.61,-8.87 23.04,3.12l0.02 0.07z"
   id="path18" />&#10;   <polygon
   class="fil2 str3"
   points="7271.22,11720.07 6877.01,11007 6808.52,11065.82 7189.58,11748.06 "
   id="polygon18" />&#10;   <path
   class="fil0 str1"
   d="M6520.94 12512.22c-76.41,89.15 -254.72,63.68 -267.45,-89.15l0 -356.61c12.74,-152.83 191.04,-191.04 267.45,-89.15l-254.72 -445.76c38.21,114.63 -89.15,254.72 -216.51,165.57l-318.4 -178.3c-101.89,-63.68 -50.94,-241.98 76.42,-254.72l-534.91 -12.74 -89.15 -573.12c-89.15,63.68 -191.04,50.94 -216.51,-50.95l-38.21 -241.98c-12.74,-101.89 63.68,-165.57 178.3,-127.36l-63.68 -407.55 0 -203.78 534.91 -382.08 292.93 12.74 0 445.76 216.51 140.09 547.65 -904.25 25.47 25.47 254.72 -178.3 967.93 573.12 -38.21 292.93 38.21 25.47 -534.91 904.26 229.25 127.36 394.82 -216.51 140.09 254.72 -76.42 649.54 -178.3 101.89 12.74 1451.9 -318.4 178.3 -891.52 -305.66 -140.1 -331.13z"
   id="path19" />&#10;   <polygon
   class="fil2 str3"
   points="7280.74,12857.08 7271.22,11720.07 7188.71,11748.36 7195.31,12827.88 "
   id="polygon19" />&#10;   <polygon
   class="fil2 str3"
   points="5964.52,10480.17 5062.85,10466.76 5078.07,10562.85 5946.88,10568.35 "
   id="polygon20" />&#10;  </g>&#10;  <g
   id="arm">&#10;   <polygon
   class="fil7"
   points="499.26,5998.38 499.26,3814.16 1161.53,3814.16 1161.53,5998.38 "
   id="polygon21" />&#10;   <polygon
   class="fil7"
   points="499.26,5998.38 499.26,8182.59 1161.53,8182.59 1161.53,5998.38 "
   id="polygon22" />&#10;   <polygon
   class="fil1"
   points="493.22,5998.38 493.22,6241.89 399.58,7138.53 493.22,7138.53 1155.49,7138.53 1261.21,7138.53 1155.49,6191.79 1155.49,5998.38 1155.49,5804.96 1261.21,4858.22 1155.49,4858.22 493.22,4858.22 399.58,4858.22 493.22,5754.86 "
   id="polygon23" />&#10;   <polygon
   class="fil2"
   points="405.61,7138.53 1267.24,7138.53 1246.84,6955.86 424.69,6955.86 "
   id="polygon24" />&#10;   <path
   class="fil0 str8"
   d="M588.41 7800.51l496.7 0m-496.7 -1515.58l496.7 0"
   id="path24" />&#10;   <polygon
   class="fil2"
   points="499.26,7800.51 1161.53,7800.51 1161.53,7551.55 499.26,7551.55 "
   id="polygon25" />&#10;   <line
   class="fil0 str3"
   x1="405.61"
   y1="7138.53"
   x2="1267.24"
   y2="7138.53"
   id="line25" />&#10;   <polygon
   class="fil5"
   points="588.41,7231.67 1085.11,7231.67 1161.53,7231.67 1277.64,7231.67 1267.24,7138.53 1174.26,7138.53 1161.53,7138.53 499.26,7138.53 405.61,7138.53 395.88,7231.67 499.26,7231.67 "
   id="polygon26" />&#10;   <polygon
   class="fil0 str8"
   points="588.41,8131.65 741.24,7927.87 830.39,8131.65 932.28,7927.87 1085.11,8131.65 1085.11,7139.84 1174.26,7138.53 1085.11,6284.93 1085.11,5998.38 1085.11,5711.82 1174.26,4858.22 1085.11,4856.91 1085.11,3865.1 932.28,4068.88 830.39,3865.1 741.24,4068.88 588.41,3865.1 588.41,4857.69 499.26,4858.22 588.41,5711.82 588.41,5998.38 588.41,6284.93 499.26,7138.53 588.41,7139.06 "
   id="polygon27" />&#10;   <polygon
   class="fil2"
   points="405.61,4858.22 1267.24,4858.22 1246.84,5040.9 424.69,5040.9 "
   id="polygon28" />&#10;   <path
   class="fil0 str8"
   d="M588.41 4196.24l496.7 0m-496.7 1515.58l496.7 0"
   id="path28" />&#10;   <polygon
   class="fil2"
   points="499.26,4196.24 1161.53,4196.24 1161.53,4445.21 499.26,4445.21 "
   id="polygon29" />&#10;   <line
   class="fil0 str3"
   x1="405.61"
   y1="4858.22"
   x2="1267.24"
   y2="4858.22"
   id="line29" />&#10;   <polygon
   class="fil5"
   points="588.41,4765.08 1085.11,4765.08 1161.53,4765.08 1277.64,4765.08 1267.24,4858.22 1174.26,4858.22 1161.53,4858.22 499.26,4858.22 405.61,4858.22 395.88,4765.08 499.26,4765.08 "
   id="polygon30" />&#10;  </g>&#10;  <g
   id="head">&#10;   <g
   id="g36">&#10;    <path
   class="fil7"
   d="M4622.27 9166.3l0 -1235.39c12.74,-1553.79 -12.74,-1757.56 -522.17,-1897.66l-1693.89 0c-445.76,127.36 -522.17,191.04 -522.17,1897.66l0 1235.39 2738.23 0z"
   id="path30" />&#10;    <path
   class="fil8"
   d="M2839.24 7345.06c0,0 0,0 0,0 0,191.04 -76.42,343.87 -165.57,343.87 0,0 0,0 0,0 -89.15,0 -178.3,-152.83 -178.3,-343.87 0,0 0,0 0,0 0,-191.04 89.15,-343.87 178.3,-343.87 0,0 0,0 0,0 89.15,0 165.57,152.83 165.57,343.87zm1171.71 0c0,0 0,0 0,0 0,191.04 -76.42,343.87 -165.57,343.87 0,0 0,0 0,0 -101.89,0 -178.3,-152.83 -178.3,-343.87 0,0 0,0 0,0 0,-191.04 76.41,-343.87 178.3,-343.87 0,0 0,0 0,0 89.15,0 165.57,152.83 165.57,343.87z"
   id="path31" />&#10;    <path
   class="fil9"
   d="M2495.36 7676.19c0,50.95 -76.41,101.89 -152.83,101.89 0,0 0,0 0,0 0,0 0,0 0,0 -89.15,0 -152.83,-50.94 -152.83,-101.89 0,-50.94 63.68,-89.15 152.83,-89.15 0,0 0,0 0,0 0,0 0,0 0,0 76.42,0 152.83,38.21 152.83,89.15zm1808.5 0c0,50.95 -63.68,101.89 -152.83,101.89 0,0 0,0 0,0 0,0 0,0 0,0 -63.68,0 -127.36,-50.94 -127.36,-101.89 0,-50.94 63.68,-89.15 127.36,-89.15 0,0 0,0 0,0 0,0 0,0 0,0 89.15,0 152.83,38.21 152.83,89.15z"
   id="path32" />&#10;    <path
   class="fil10"
   d="M1884.04 9166.3l598.59 0 12.74 -25.47 356.61 0 12.74 25.47 789.63 0 12.74 -25.47 356.6 0 12.74 25.47 585.85 0 0 3043.89 1286.33 0 0 1974.08 -1286.33 0c-38.21,407.55 -458.5,407.55 -700.48,76.42l89.15 -38.21 -203.78 -165.56c331.13,-25.47 318.4,-140.1 331.13,-789.63 -662.27,-114.63 -1108.03,-76.42 -1757.56,0 0,802.36 25.47,764.15 318.4,789.63 -63.68,63.68 -127.36,140.09 -191.04,178.3l89.15 25.47c-241.98,331.13 -675.01,318.4 -713.21,-76.42l-1299.07 0 0 -1974.08 1286.34 0 12.74 -3043.89z"
   id="path33" />&#10;    <path
   class="fil0 str1"
   d="M4545.85 10987.54l-2585.4 0m2075.96 -1821.24l509.44 0m-1681.15 0l789.63 0m-1693.88 0l522.17 0m2063.22 -1235.39l-2585.4 0m2585.4 662.27l0 -343.87m-3871.73 4725.04l0 -687.74m547.65 1821.24l-547.65 0 0 -687.74m1209.92 687.74l-280.19 0m356.61 -1821.24l0 1821.24m2585.4 0l0 -1821.24m343.87 1821.24l-267.45 0m1209.91 -687.74l0 687.74 -560.38 0m101.89 -1821.24l458.5 0 0 675.01m-5158.06 -675.01l458.5 0m369.34 0l458.5 0 2585.4 0 445.76 0m-3031.15 -815.1l0 356.61m2585.4 -356.61l0 356.61m-1617.46 -5718.45l152.83 0 -152.83 0zm509.44 0l140.1 0 -140.1 0zm-1477.37 2139.64l0 343.87 0 -343.87zm0 1617.46l0 433.02 0 -433.02zm2585.4 0l0 433.02 0 -433.02z"
   id="path34" />&#10;    <path
   class="fil0 str1"
   d="M3781.7 13139.92c25.47,-89.15 25.47,-203.78 0,-356.61 89.15,101.89 140.09,241.99 152.83,369.34l267.45 50.95c-12.74,624.06 0,891.52 -216.51,916.99 76.42,63.68 140.09,76.42 203.77,63.68 -38.21,63.68 -76.41,89.15 -140.09,114.62 114.62,140.1 496.7,241.99 496.7,-191.04l76.42 0 305.66 280.19 904.25 0 0 -280.19 280.19 -178.3 0 -1451.9 -280.19 -191.04 0 -280.19 -980.67 0 -305.66 280.19 0 -458.49c89.15,38.21 191.04,12.74 191.04,-76.42l0 -191.04c0,-101.89 -101.89,-127.36 -191.04,-89.15l0 -1171.71c76.42,38.21 178.3,25.47 191.04,-89.15l0 -254.72c0,-114.62 -101.89,-127.36 -191.04,-89.15l0 -1273.59c76.42,38.21 178.3,38.21 191.04,-76.42l0 -191.04c0,-89.15 -89.15,-127.36 -191.04,-76.42l0 -318.4 -12.74 -1171.71c0,-305.67 -165.57,-649.54 -445.76,-649.54l-509.44 0 0 -649.54 -89.15 0 0 76.42 -458.5 0 0 -76.42 -101.89 0 0 649.54 -496.7 0c-292.93,0 -458.5,343.87 -458.5,649.54l-12.74 1171.71 0 318.4c-101.89,-50.94 -191.04,-12.74 -203.78,76.42l0 191.04c25.47,114.62 114.62,114.62 203.78,76.42l0 1273.59c-89.15,-38.21 -191.04,-25.47 -203.78,89.15l0 254.72c25.47,114.62 127.36,127.36 203.78,89.15l0 1171.71c-89.15,-38.21 -203.78,-12.74 -203.78,89.15l0 191.04c12.74,89.15 101.89,114.62 203.78,76.42l0 458.49 -305.66 -280.19 -980.67 0 0 280.19 -280.19 191.04 0 1451.9 280.19 178.3 0 280.19 904.26 0 305.66 -280.19 76.42 0c0,433.02 382.08,331.14 496.7,191.04 -50.95,-25.47 -101.89,-50.94 -140.09,-114.62 63.68,12.74 140.09,0 203.78,-63.68 -216.51,-25.47 -216.51,-292.93 -216.51,-916.99l267.46 -50.95c25.47,-127.36 76.42,-267.45 165.57,-369.34 -25.47,152.83 -38.21,267.46 0,356.61 356.61,-38.21 713.21,-38.21 1044.35,0l0 0z"
   id="path35" />&#10;    <path
   class="fil0 str0"
   d="M686.86 12961.62l-12.74 0 -25.47 12.74 0 433.02 25.47 12.74 12.74 12.74m5132.59 -471.23l12.74 0 25.47 12.74 0 433.02 -25.47 12.74 -12.74 12.74m-929.73 662.27l0 12.74 12.74 25.47 356.61 0 12.74 -25.47 12.74 -12.74m-3667.95 0l-12.74 12.74 -12.74 25.47 -343.87 0 -25.47 -25.47 0 -12.74m292.93 -1783.03l0 -25.47 -12.74 -25.47 -356.61 0 -12.74 25.47 -12.74 25.47m3871.73 0l0 -25.47 12.74 -25.47 356.6 0 12.74 25.47 0 25.47m-2292.47 -6202.41l89.15 89.15 178.3 0 89.15 -89.15m203.78 3082.1l12.74 -25.47 12.74 -25.47 356.6 0 12.74 25.47 0 25.47m-1566.52 0l12.74 -25.47 12.74 -25.47 356.61 0 12.74 25.47 0 25.47m764.16 -636.8c0,0 0,0 0,0 0,203.78 -165.57,356.6 -369.34,356.6 0,0 0,0 0,0 -203.78,0 -369.34,-152.83 -369.34,-356.6 0,0 0,0 0,0 0,0 0,0 0,0 0,-203.78 165.57,-369.34 369.34,-369.34 0,0 0,0 0,0 203.78,0 369.34,165.56 369.34,369.34 0,0 0,0 0,0z"
   id="path36" />&#10;   </g>&#10;   <polyline
   class="fil0 str0"
   points="2758.64,10121.71 2745.9,10121.71 2720.43,10134.31 2720.43,10487.09 2745.9,10499.69 2758.64,10512.28 "
   id="polyline36" />&#10;   <polyline
   class="fil0 str0"
   points="3754.41,10121.71 3767.14,10121.71 3792.62,10134.31 3792.62,10487.09 3767.14,10499.69 3754.41,10512.28 "
   id="polyline37" />&#10;   <polyline
   class="fil0 str0"
   points="3451.81,9808.75 3451.81,9796.02 3439.21,9770.54 3086.43,9770.54 3073.83,9796.02 3061.23,9808.75 "
   id="polyline38" />&#10;   <polyline
   class="fil0 str0"
   points="3451.81,10804.52 3451.81,10817.26 3439.21,10842.73 3086.43,10842.73 3073.83,10817.26 3061.23,10804.52 "
   id="polyline39" />&#10;   <path
   class="fil1"
   d="M2132.1 13388.81c107.74,-374.34 297.22,-873.53 527.45,-1102.2 -358.53,230.31 -534.35,597.71 -527.45,1102.2z"
   id="path39" />&#10;   <path
   class="fil1"
   d="M4389.87 13388.81c-107.74,-374.34 -297.22,-873.53 -527.45,-1102.2 358.53,230.31 534.35,597.71 527.45,1102.2z"
   id="path40" />&#10;   <path
   class="fil1"
   d="M2355.52 14380.14c-120.05,-173.72 -264.41,-424.59 -281.3,-599.68 -26.47,229.48 67.29,429.37 281.3,599.68z"
   id="path41" />&#10;   <path
   class="fil1"
   d="M4141.15 14364.8c120.05,-173.72 264.41,-424.59 281.3,-599.68 26.47,229.48 -67.29,429.37 -281.3,599.68z"
   id="path42" />&#10;   <path
   class="fil1"
   d="M1000.6 12974.35c107.74,374.34 297.22,873.53 527.45,1102.2 -358.53,-230.31 -534.35,-597.71 -527.45,-1102.2z"
   id="path43" />&#10;   <path
   class="fil1"
   d="M1781.64 12342.56c-127.98,107.78 -290.61,269.48 -340.01,399.81 27.58,-180.94 140.92,-314.22 340.01,-399.81z"
   id="path44" />&#10;   <path
   class="fil1"
   d="M5445.62 12951.57c-107.74,374.34 -297.22,873.53 -527.45,1102.2 358.53,-230.31 534.35,-597.71 527.45,-1102.2z"
   id="path45" />&#10;   <path
   class="fil1"
   d="M4958.72 12347.39c102.39,132.33 227.3,324.67 248.13,462.48 11.17,-182.69 -71.55,-336.85 -248.13,-462.48z"
   id="path46" />&#10;   <path
   class="fil1"
   d="M3760.06 11366.02c102.39,132.33 227.3,324.67 248.13,462.48 11.17,-182.69 -71.55,-336.85 -248.13,-462.48z"
   id="path47" />&#10;   <path
   class="fil1"
   d="M2815.55 11366.02c-102.39,132.33 -227.3,324.67 -248.13,462.48 -11.17,-182.69 71.55,-336.85 248.13,-462.48z"
   id="path48" />&#10;   <path
   class="fil1"
   d="M4420.5 9313.84c-107.74,374.34 -297.22,873.53 -527.45,1102.2 358.53,-230.31 534.35,-597.71 527.45,-1102.2z"
   id="path49" />&#10;   <path
   class="fil1"
   d="M2026.87 10063.97c149.25,213.08 377.21,487.28 572.23,581.77 -276.41,-67.7 -467.16,-261.63 -572.23,-581.77z"
   id="path50" />&#10;   <path
   class="fil1"
   d="M2867.4 9188.32c-102.39,132.33 -227.3,324.67 -248.13,462.48 -11.17,-182.69 71.55,-336.85 248.13,-462.48z"
   id="path51" />&#10;   <path
   class="fil1"
   d="M2806.43 7549.21c-87.39,-37.38 -186.3,-37.29 -273.64,0.26 34.25,84.8 87.57,139.46 140.88,139.46 53.37,0 102.17,-54.77 132.76,-139.72z"
   id="path52" />&#10;   <path
   class="fil4"
   d="M2673.67 7001.19c14.56,109.15 21.99,211.96 22.3,324.05 48.67,1.13 96.36,13.4 143.05,21.22 -47.15,6.15 -94.85,19.25 -143.09,20.2 -0.68,109.22 -8.1,210.28 -22.26,322.28 -17.58,-112.98 -26.88,-214.04 -27.91,-322.23 -49.56,-0.87 -99.69,-13.97 -150.39,-20.25 51.08,-7.78 101.18,-20.05 150.3,-21.2 0.21,-113.26 9.54,-216.09 28,-324.06z"
   id="path53" />&#10;   <path
   class="fil1"
   d="M3979.7 7544.8c-93.52,-32.12 -186.8,-31.42 -279.83,2.12 31.73,86.25 83.97,142.01 145.52,142.01 54.29,0 103.85,-56.67 134.32,-144.13z"
   id="path54" />&#10;   <path
   class="fil4"
   d="M3845.38 7001.19c14.56,109.15 21.99,211.96 22.3,324.05 48.67,1.13 96.36,13.4 143.05,21.22 -47.15,6.15 -94.85,19.25 -143.09,20.2 -0.68,109.22 -8.1,210.28 -22.26,322.28 -17.58,-112.98 -26.88,-214.04 -27.91,-322.23 -49.56,-0.87 -99.69,-13.97 -150.39,-20.25 51.08,-7.78 101.18,-20.05 150.3,-21.2 0.21,-113.26 9.54,-216.09 28,-324.06z"
   id="path55" />&#10;   <g
   id="g56">&#10;    <path
   class="fil11"
   d="M3036.66 7608.29c0,127.76 95.82,207.62 223.59,207.62 111.79,0 207.61,-79.86 207.61,-207.62 0,-47.91 -431.2,-47.91 -431.2,0z"
   id="path56" />&#10;   </g>&#10;   <g
   id="g57">&#10;    <path
   class="fil1 str9"
   d="M1551.83 13290.6c225.68,0 408.62,182.95 408.62,408.62 0,225.68 -182.95,408.62 -408.62,408.62 -225.68,0 -408.62,-182.95 -408.62,-408.62 0,-225.68 182.95,-408.62 408.62,-408.62z"
   id="path57" />&#10;   </g>&#10;   <g
   id="g58">&#10;    <path
   class="fil2"
   d="M1551.83 13379.66c176.49,0 319.57,143.08 319.57,319.57 0,176.49 -143.08,319.57 -319.57,319.57 -176.49,0 -319.57,-143.08 -319.57,-319.57 0,-176.49 143.08,-319.57 319.57,-319.57z"
   id="path58" />&#10;   </g>&#10;   <g
   id="g59">&#10;    <path
   class="fil1 str9"
   d="M4954.48 13290.6c225.68,0 408.62,182.95 408.62,408.62 0,225.68 -182.95,408.62 -408.62,408.62 -225.68,0 -408.62,-182.95 -408.62,-408.62 0,-225.68 182.95,-408.62 408.62,-408.62z"
   id="path59" />&#10;   </g>&#10;   <g
   id="g60">&#10;    <path
   class="fil2"
   d="M4954.48 13379.66c176.49,0 319.57,143.08 319.57,319.57 0,176.49 -143.08,319.57 -319.57,319.57 -176.49,0 -319.57,-143.08 -319.57,-319.57 0,-176.49 143.08,-319.57 319.57,-319.57z"
   id="path60" />&#10;   </g>&#10;  </g>&#10;  <g
   id="hair">&#10;   <polygon
   class="fil10"
   points="6782.02,8093.81 5664.78,8093.81 5664.78,7377.82 4898.65,7377.82 4898.65,6213.6 5657.26,6213.6 5660.28,5492.53 6782.02,5492.53 "
   id="polygon60" />&#10;   <path
   class="fil0 str1"
   d="M4951.22 6664.27l0 -405.61m322.99 1074.1l-322.99 0 0 -405.61m713.57 405.61l-165.25 0m210.3 -1074.1l0 1074.1m-758.62 -1074.1l270.4 0m217.83 0l270.39 0 1072.19 0m-1072.19 -480.72l0 210.33"
   id="path61" />&#10;   <path
   class="fil0 str1"
   d="M6782.02 5492.53l-144.11 0 -352.32 0 -147.62 0 -428.14 0 0 285.41c-52.57,-22.54 -120.16,-7.5 -120.16,52.59l0 112.67c7.5,52.57 60.08,67.59 120.16,45.07l0 270.39 -180.26 -165.25 -578.36 0 0 368.05 0 11.68 0 21.46 0 21.5 0 21.52 0 21.57 0 21.61 0 21.64 0 21.68 0 5.88c-52.56,-37.76 -120.18,-12.59 -120.18,88.08l0 188.73c7.51,88.1 60.09,113.25 120.18,75.51l0 147.62 0 368.04 533.3 0 180.27 -165.24 45.05 0 1072.19 0 0 -1840.23z"
   id="path62" />&#10;   <path
   class="fil0 str0"
   d="M5507.05 7325.24l-7.51 7.52 -7.51 15.02 -202.8 0 -15.01 -15.02 0 -7.52m172.75 -1051.56l0 -15.02 -7.51 -15.03 -210.31 0 -7.52 15.03 -7.51 15.02"
   id="path63" />&#10;   <polygon
   class="fil10"
   points="6782.02,6258.66 5709.84,6258.66 5657.28,6210.48 5660.28,5492.53 6782.02,5492.53 "
   id="polygon63" />&#10;   <path
   class="fil0 str1"
   d="M5709.84 6258.66l1072.19 0m-1072.19 -480.72l0 210.33"
   id="path64" />&#10;   <path
   class="fil0 str1"
   d="M6782.02 5492.53l-1072.19 0 0 285.41c-52.57,-22.54 -120.16,-7.5 -120.16,52.59l0 112.67c7.5,52.57 60.08,67.59 120.16,45.07l0 270.39 1072.19 0 0 -766.13z"
   id="path65" />&#10;   <path
   class="fil10"
   d="M6782.02 8078.79l-73.2 0 -7.51 15.01 80.71 0 0 -15.01zm-546.4 15.01l-7.51 -15.01 -210.31 0 -7.51 15.01 225.34 0z"
   id="path66" />&#10;   <path
   class="fil0 str1"
   d="M6010.28 8093.81l-300.45 0m991.48 0l-465.69 0m-525.78 -337.99l-0 -202.81"
   id="path67" />&#10;   <path
   class="fil0 str1"
   d="M5709.84 8093.81l0 -337.99c-45.06,22.52 -105.15,22.52 -112.67,-45.07l0 -112.68c0,-52.59 52.58,-75.11 112.66,-45.07l0 -220.25 1072.19 0 0 761.05 -68.07 0 -652.34 0 -351.78 0z"
   id="path68" />&#10;   <path
   class="fil0 str1"
   d="M6422.25 8093.81c37.75,52.59 12.59,120.18 -88.07,120.18l-188.74 0c-88.08,-7.51 -113.25,-60.09 -75.5,-120.18l352.32 0z"
   id="path69" />&#10;   <g
   id="g74">&#10;    <polygon
   class="fil10"
   points="6827.09,5492.53 6827.09,6213.6 7585.72,6213.6 7585.72,7377.82 6827.09,7377.82 6827.09,8093.81 6782.02,8093.81 6782.02,5492.53 "
   id="polygon69" />&#10;    <path
   class="fil0 str1"
   d="M6984.82 7332.76l-157.73 0m713.55 -405.61l0 405.61 -330.49 0m60.09 -1074.1l270.4 0 0 398.08m-758.62 -398.08l262.89 0"
   id="path70" />&#10;    <path
   class="fil0 str1"
   d="M6827.09 7332.76l180.26 165.24 533.3 0 0 -368.04 0 -147.62c60.09,37.74 112.67,12.59 120.17,-75.51l0 -188.73c0,-100.67 -67.6,-125.84 -120.17,-88.08l0 -5.88 0 -21.68 0 -21.64 0 -21.61 0 -21.57 0 -21.52 0 -21.5 0 -21.46 0 -11.68 0 -368.05 -578.36 -0 -180.26 165.25 0 1074.1 45.07 0zm-45.07 -1344.49c52.58,22.52 112.66,7.5 112.66,-45.07l0 -112.67c0,-60.09 -60.08,-75.13 -112.66,-52.59l0 210.33z"
   id="path71" />&#10;    <path
   class="fil0 str0"
   d="M6984.82 7325.24l0 7.52 7.5 15.02 210.33 0 7.5 -15.02 7.53 -7.52m-172.77 -1051.56l0 -15.02 7.5 -15.03 210.33 0 7.5 15.03 0 15.02"
   id="path72" />&#10;    <g
   id="g73">&#10;     <polygon
   class="fil10"
   points="6827.09,5492.53 6827.09,6213.6 6831.18,6213.6 6782.02,6258.66 6782.02,5492.53 "
   id="polygon72" />&#10;     <path
   class="fil0 str1"
   d="M6782.02 5988.27c52.58,22.52 112.66,7.5 112.66,-45.07l0 -112.67c0,-60.09 -60.08,-75.13 -112.66,-52.59l0 210.33z"
   id="path73" />&#10;    </g>&#10;    <polygon
   class="fil0 str1"
   points="6782.02,7553.01 6782.02,7755.82 "
   id="polygon73" />&#10;    <path
   class="fil0 str1"
   d="M6782.02 7553.01c60.07,-30.04 112.66,-7.52 120.17,45.07l0 112.68c-15.02,67.59 -67.59,67.59 -120.17,45.06l0 -202.81z"
   id="path74" />&#10;   </g>&#10;   <path
   class="fil0 str1"
   d="M6422.25 5492.53c37.75,-52.59 12.59,-120.18 -88.07,-120.18l-188.74 0c-88.08,7.51 -113.25,60.09 -75.5,120.18l352.32 0z"
   id="path75" />&#10;   <path
   class="fil1"
   d="M5082.23 6823.21c142.67,87.41 347.44,190.69 486.7,196.41 -180.4,30.95 -342.63,-34.52 -486.7,-196.41z"
   id="path76" />&#10;   <path
   class="fil1"
   d="M5965.06 7536.62c54.58,120.12 142.72,278.04 231.15,343.29 -131.51,-59.48 -208.56,-173.91 -231.15,-343.29z"
   id="path77" />&#10;   <path
   class="fil1"
   d="M7462.23 6995.16c-80.81,-104.29 -202.99,-237.63 -304.09,-280.73 141.68,27.54 243.04,121.12 304.09,280.73z"
   id="path78" />&#10;   <path
   class="fil1"
   d="M6602.45 5934.85c-53.05,-120.8 -139.19,-279.82 -226.78,-346.19 130.74,61.14 206.34,176.53 226.78,346.19z"
   id="path79" />&#10;   <path
   class="fil1"
   d="M6339.6 6423.36c-80.32,-46.83 -195.33,-101.73 -272.76,-103.23 99.85,-19.38 190.77,15.03 272.76,103.23z"
   id="path80" />&#10;   <path
   class="fil1"
   d="M6109.46 7218.55c-82.93,-42.03 -191.47,-108.81 -234.77,-173.03 37.93,94.37 116.19,152.05 234.77,173.03z"
   id="path81" />&#10;   <path
   class="fil1"
   d="M6272.41 7071.77c115.89,46.68 279.47,97.36 382.72,84.32 -129,45.14 -256.58,17.04 -382.72,-84.32z"
   id="path82" />&#10;   <rect
   class="fil1 str9"
   x="4951.22"
   y="6258.66"
   width="217.78"
   height="119.34"
   rx="56.05"
   ry="59.67"
   id="rect82" />&#10;   <rect
   class="fil12 str3"
   x="4951.22"
   y="6378.01"
   width="217.78"
   height="119.34"
   rx="56.05"
   ry="59.67"
   id="rect83" />&#10;   <rect
   class="fil1 str9"
   x="4951.22"
   y="6497.35"
   width="217.78"
   height="119.34"
   rx="56.05"
   ry="59.67"
   id="rect84" />&#10;   <rect
   class="fil12 str3"
   x="4951.22"
   y="6616.69"
   width="217.78"
   height="119.34"
   rx="56.05"
   ry="59.67"
   id="rect85" />&#10;   <rect
   class="fil1 str9"
   x="4951.22"
   y="6736.04"
   width="217.78"
   height="119.34"
   rx="56.05"
   ry="59.67"
   id="rect86" />&#10;   <rect
   class="fil12 str3"
   x="4951.22"
   y="6855.38"
   width="217.78"
   height="119.34"
   rx="56.05"
   ry="59.67"
   id="rect87" />&#10;   <rect
   class="fil1 str9"
   x="4951.22"
   y="6974.73"
   width="217.78"
   height="119.34"
   rx="56.05"
   ry="59.67"
   id="rect88" />&#10;   <rect
   class="fil12 str3"
   x="4951.22"
   y="7094.07"
   width="217.78"
   height="119.34"
   rx="56.05"
   ry="59.67"
   id="rect89" />&#10;   <rect
   class="fil1 str9"
   x="4951.22"
   y="7213.41"
   width="217.78"
   height="119.34"
   rx="56.05"
   ry="59.67"
   id="rect90" />&#10;   <rect
   class="fil1 str9"
   x="7322.86"
   y="6258.66"
   width="217.78"
   height="119.34"
   rx="56.05"
   ry="59.67"
   id="rect91" />&#10;   <rect
   class="fil12 str3"
   x="7322.86"
   y="6378.01"
   width="217.78"
   height="119.34"
   rx="56.05"
   ry="59.67"
   id="rect92" />&#10;   <rect
   class="fil1 str9"
   x="7322.86"
   y="6497.35"
   width="217.78"
   height="119.34"
   rx="56.05"
   ry="59.67"
   id="rect93" />&#10;   <rect
   class="fil12 str3"
   x="7322.86"
   y="6616.69"
   width="217.78"
   height="119.34"
   rx="56.05"
   ry="59.67"
   id="rect94" />&#10;   <rect
   class="fil1 str9"
   x="7322.86"
   y="6736.04"
   width="217.78"
   height="119.34"
   rx="56.05"
   ry="59.67"
   id="rect95" />&#10;   <rect
   class="fil12 str3"
   x="7322.86"
   y="6855.38"
   width="217.78"
   height="119.34"
   rx="56.05"
   ry="59.67"
   id="rect96" />&#10;   <rect
   class="fil1 str9"
   x="7322.86"
   y="6974.73"
   width="217.78"
   height="119.34"
   rx="56.05"
   ry="59.67"
   id="rect97" />&#10;   <rect
   class="fil12 str3"
   x="7322.86"
   y="7094.07"
   width="217.78"
   height="119.34"
   rx="56.05"
   ry="59.67"
   id="rect98" />&#10;   <rect
   class="fil1 str9"
   x="7322.86"
   y="7213.41"
   width="217.78"
   height="119.34"
   rx="56.05"
   ry="59.67"
   id="rect99" />&#10;   <rect
   class="fil12 str3"
   transform="matrix(2.64845E-14 1 -1.06461 2.81958E-14 6783.93 7876.03)"
   width="217.78"
   height="112.1"
   rx="56.05"
   ry="56.05"
   id="rect100" />&#10;   <rect
   class="fil1 str9"
   transform="matrix(2.64845E-14 1 -1.06461 2.81958E-14 6664.59 7876.03)"
   width="217.78"
   height="112.1"
   rx="56.05"
   ry="56.05"
   id="rect101" />&#10;   <rect
   class="fil12 str3"
   transform="matrix(2.64845E-14 1 -1.06461 2.81958E-14 6545.25 7876.03)"
   width="217.78"
   height="112.1"
   rx="56.05"
   ry="56.05"
   id="rect102" />&#10;   <rect
   class="fil1 str9"
   transform="matrix(2.64845E-14 1 -1.06461 2.81958E-14 6425.9 7876.03)"
   width="217.78"
   height="112.1"
   rx="56.05"
   ry="56.05"
   id="rect103" />&#10;   <rect
   class="fil12 str3"
   transform="matrix(2.64845E-14 1 -1.06461 2.81958E-14 6306.56 7876.03)"
   width="217.78"
   height="112.1"
   rx="56.05"
   ry="56.05"
   id="rect104" />&#10;   <rect
   class="fil1 str9"
   transform="matrix(2.64845E-14 1 -1.06461 2.81958E-14 6187.21 7876.03)"
   width="217.78"
   height="112.1"
   rx="56.05"
   ry="56.05"
   id="rect105" />&#10;   <rect
   class="fil12 str3"
   transform="matrix(2.64845E-14 1 -1.06461 2.81958E-14 6067.87 7876.03)"
   width="217.78"
   height="112.1"
   rx="56.05"
   ry="56.05"
   id="rect106" />&#10;   <rect
   class="fil1 str9"
   transform="matrix(2.64845E-14 1 -1.06461 2.81958E-14 5948.53 7876.03)"
   width="217.78"
   height="112.1"
   rx="56.05"
   ry="56.05"
   id="rect107" />&#10;   <rect
   class="fil12 str3"
   transform="matrix(2.64845E-14 1 -1.06461 2.81958E-14 5829.18 7876.03)"
   width="217.78"
   height="112.1"
   rx="56.05"
   ry="56.05"
   id="rect108" />&#10;   <rect
   class="fil12 str3"
   transform="matrix(2.64845E-14 1 -1.06461 2.81958E-14 6783.93 5492.53)"
   width="217.78"
   height="112.1"
   rx="56.05"
   ry="56.05"
   id="rect109" />&#10;   <rect
   class="fil1 str9"
   transform="matrix(2.64845E-14 1 -1.06461 2.81958E-14 6664.59 5492.53)"
   width="217.78"
   height="112.1"
   rx="56.05"
   ry="56.05"
   id="rect110" />&#10;   <rect
   class="fil12 str3"
   transform="matrix(2.64845E-14 1 -1.06461 2.81958E-14 6545.25 5492.53)"
   width="217.78"
   height="112.1"
   rx="56.05"
   ry="56.05"
   id="rect111" />&#10;   <rect
   class="fil1 str9"
   transform="matrix(2.64845E-14 1 -1.06461 2.81958E-14 6425.9 5492.53)"
   width="217.78"
   height="112.1"
   rx="56.05"
   ry="56.05"
   id="rect112" />&#10;   <rect
   class="fil12 str3"
   transform="matrix(2.64845E-14 1 -1.06461 2.81958E-14 6306.56 5492.53)"
   width="217.78"
   height="112.1"
   rx="56.05"
   ry="56.05"
   id="rect113" />&#10;   <rect
   class="fil1 str9"
   transform="matrix(2.64845E-14 1 -1.06461 2.81958E-14 6187.21 5492.53)"
   width="217.78"
   height="112.1"
   rx="56.05"
   ry="56.05"
   id="rect114" />&#10;   <rect
   class="fil12 str3"
   transform="matrix(2.64845E-14 1 -1.06461 2.81958E-14 6067.87 5492.53)"
   width="217.78"
   height="112.1"
   rx="56.05"
   ry="56.05"
   id="rect115" />&#10;   <rect
   class="fil1 str9"
   transform="matrix(2.64845E-14 1 -1.06461 2.81958E-14 5948.53 5492.53)"
   width="217.78"
   height="112.1"
   rx="56.05"
   ry="56.05"
   id="rect116" />&#10;   <rect
   class="fil12 str3"
   transform="matrix(2.64845E-14 1 -1.06461 2.81958E-14 5829.18 5492.53)"
   width="217.78"
   height="112.1"
   rx="56.05"
   ry="56.05"
   id="rect117" />&#10;  </g>&#10;  <g
   id="_2043412448448">&#10;   <g
   id="g117">&#10;    <path
   class="fil4"
   d="M173.17 8179.56l670.76 0 0 3749.84 -670.76 0 0 -3749.84zm766.59 0l654.79 0 0 3754.17 -654.79 0 0 -3754.17z"
   id="path117" />&#10;   </g>&#10;   <rect
   class="fil12 str3"
   x="954.19"
   y="9443.25"
   width="662.27"
   height="76.26"
   id="rect118" />&#10;   <rect
   class="fil12 str3"
   x="194.4"
   y="9443.25"
   width="649.54"
   height="76.26"
   id="rect119" />&#10;   <path
   class="fil13"
   d="M180.86 9965.43l662.27 0 0 776.89 -662.27 0 0 -776.89zm764.16 0l649.54 0 0 776.89 -649.54 0 0 -776.89z"
   id="path119" />&#10;   <path
   class="fil12"
   d="M180.86 9965.43l662.27 0 0 776.89 -662.27 0 0 -776.89zm764.16 0l649.54 0 0 776.89 -649.54 0 0 -776.89z"
   id="path120" />&#10;   <path
   class="fil14"
   d="M180.86 10513.07l662.27 0 0 229.25 -662.27 0 0 -229.25zm764.16 0l649.54 0 0 229.25 -649.54 0 0 -229.25z"
   id="path121" />&#10;   <path
   class="fil2"
   d="M180.86 10513.07l662.27 0 0 334.9 -662.27 0 0 -334.9zm764.16 0l649.54 0 0 338.33 -649.54 0 0 -338.33z"
   id="path122" />&#10;   <g
   id="g124">&#10;    <path
   class="fil0 str10"
   d="M1019.61 10080.05l495.09 0m-1261.67 0l511.06 0m-511.06 -622.85l511.06 0m255.53 0l495.09 0m-1261.67 1293.61l511.06 0m255.53 0l495.09 0"
   id="path123" />&#10;    <path
   class="fil0 str10"
   d="M764.08 8275.38l-511.06 0 0 3577.39 511.06 0 0 -3577.39zm255.53 0l495.09 0 0 3577.39 -495.09 0 0 -3577.39z"
   id="path124" />&#10;   </g>&#10;  </g>&#10; </g>&#10;</svg>
