<?xml version="1.0" encoding="UTF-8" standalone="no"?>
<!-- Creator: CorelDRAW 2019 (64-Bit) -->

<svg
   xml:space="preserve"
   width="8.27217in"
   height="14.6161in"
   version="1.1"
   style="shape-rendering:geometricPrecision; text-rendering:geometricPrecision; image-rendering:optimizeQuality; fill-rule:evenodd; clip-rule:evenodd"
   viewBox="0 0 8271 14614.08"
   id="svg124"
   sodipodi:docname="MinihiraGreen.svg"
   inkscape:version="1.3 (0e150ed6c4, 2023-07-21)"
   inkscape:export-filename="MinihiraGreen.png"
   inkscape:export-xdpi="149.90021"
   inkscape:export-ydpi="149.90021"
   xmlns:inkscape="http://www.inkscape.org/namespaces/inkscape"
   xmlns:sodipodi="http://sodipodi.sourceforge.net/DTD/sodipodi-0.dtd"
   xmlns="http://www.w3.org/2000/svg"
   xmlns:svg="http://www.w3.org/2000/svg"><sodipodi:namedview
   id="namedview124"
   pagecolor="#ffffff"
   bordercolor="#666666"
   borderopacity="1.0"
   inkscape:showpageshadow="2"
   inkscape:pageopacity="0.0"
   inkscape:pagecheckerboard="0"
   inkscape:deskcolor="#d1d1d1"
   inkscape:document-units="in"
   inkscape:export-bgcolor="#ffffffff"
   inkscape:zoom="0.57371094"
   inkscape:cx="396.54116"
   inkscape:cy="701.57281"
   inkscape:window-width="1904"
   inkscape:window-height="1006"
   inkscape:window-x="8"
   inkscape:window-y="34"
   inkscape:window-maximized="1"
   inkscape:current-layer="Layer_x0020_1" />&#10; <defs
   id="defs1">&#10;  <style
   type="text/css"
   id="style1">&#10;   <![CDATA[
    .str12 {stroke:black;stroke-miterlimit:2.61313}
    .str7 {stroke:#373435;stroke-width:29.52;stroke-miterlimit:2.61313}
    .str3 {stroke:#373435;stroke-width:7.87;stroke-miterlimit:2.61313}
    .str4 {stroke:#373435;stroke-width:7.87;stroke-miterlimit:2.61313}
    .str9 {stroke:#A4ED1D;stroke-width:7.87;stroke-miterlimit:2.61313}
    .str11 {stroke:#F6BFC2;stroke-width:7.87;stroke-miterlimit:2.61313}
    .str6 {stroke:#373435;stroke-width:7.87;stroke-miterlimit:2.61313}
    .str5 {stroke:#373435;stroke-width:6.94;stroke-miterlimit:2.61313}
    .str8 {stroke:#96989A;stroke-width:3;stroke-miterlimit:2.61313}
    .str2 {stroke:#373435;stroke-width:3;stroke-miterlimit:2.61313}
    .str1 {stroke:black;stroke-width:3;stroke-miterlimit:2.61313}
    .str10 {stroke:#C5F36D;stroke-width:3;stroke-miterlimit:2.61313}
    .str0 {stroke:#EF0085;stroke-width:3;stroke-miterlimit:2.61313}
    .fil0 {fill:none}
    .fil4 {fill:#FEFEFE}
    .fil3 {fill:#727376}
    .fil11 {fill:#606062}
    .fil2 {fill:#4B4B4D}
    .fil6 {fill:#373435}
    .fil14 {fill:#796655}
    .fil8 {fill:#85ED1D}
    .fil13 {fill:#8C7764}
    .fil1 {fill:#C5F36D}
    .fil10 {fill:#DDB097}
    .fil9 {fill:#F6BFC2}
    .fil7 {fill:#FEF2DC}
    .fil5 {fill:#FEF2DC}
    .fil12 {fill:#F6BFC2;fill-rule:nonzero}
   ]]>&#10;  </style>&#10; </defs>&#10; <g
   id="Layer_x0020_1"
   inkscape:label="Layer 1">&#10;  <metadata
   id="CorelCorpID_0Corel-Layer" />&#10;  <rect
   class="fil0"
   width="8266.55"
   height="14614.08"
   id="rect1" />&#10;  <rect
   class="fil0"
   x="4.45"
   y="2918.04"
   width="8266.55"
   height="11691.27"
   id="rect2" />&#10;  <g
   id="body">&#10;   <path
   class="fil1"
   d="M6537.19 12608.15l1414.45 484.23 0 -1592.85 -522.45 -904.74 -76.46 12.74 -140.17 -76.46 -25.49 25.48 -216.63 -127.43 0 -38.23 -496.97 -293.09 -38.23 25.49 -216.63 -127.43 0 -50.97 -127.43 -76.46 -25.48 -76.46 -1121.37 -12.74 267.6 1554.62 484.23 12.74 547.94 318.57 114.68 191.14c-101.94,25.48 -152.92,89.2 -178.4,203.88l0 382.28c38.23,178.4 140.17,267.6 356.8,165.66z"
   id="path2" />&#10;   <path
   class="fil0 str0"
   d="M6473.48 10097.81l-38.23 25.49 -216.63 -127.43 0 -50.97m993.94 586.17l-25.49 25.48 -216.63 -127.43 0 -38.23m89.2 2280.96l0 25.49 0 25.48 420.51 140.17 12.75 -12.74 12.74 -25.48"
   id="path3" />&#10;   <path
   class="fil0 str1"
   d="M7875.19 12977.69l-382.28 -127.43m-433.26 -152.91l-535.2 -178.4m-254.85 -981.2l1083.14 -930.22m-1261.54 -739.08l127.43 76.46m254.86 152.91l496.97 293.09m242.12 140.17l140.17 76.46 509.71 917.48 -1338 458.74m-713.6 -713.6l280.34 -1401.71 -1044.91 -12.74m63.72 407.77l76.46 420.52m1618.34 -1580.11l879.26 522.46"
   id="path4" />&#10;   <line
   class="fil0 str2"
   x1="6269.6"
   y1="11537.75"
   x2="5810.75"
   y2="11269.92"
   id="line4" />&#10;   <line
   class="fil0 str2"
   x1="6269.6"
   y1="11537.75"
   x2="5810.85"
   y2="11270.16"
   id="line5" />&#10;   <polygon
   class="fil2 str3"
   points="6880.71,11012.92 5967.73,10485.81 5950.08,10574.03 6812.18,11071.77 "
   id="polygon5" />&#10;   <polygon
   class="fil2 str3"
   points="6269.86,11537.72 6381.13,10822.9 6193.57,11493.41 "
   id="polygon6" />&#10;   <polygon
   class="fil2 str3"
   points="5810.85,11270.16 6380.54,10825.03 5885.79,11313.73 "
   id="polygon7" />&#10;   <polygon
   class="fil2 str4"
   points="6287.58,10036.44 6424.22,10749.36 6359.57,10078.78 "
   id="polygon8" />&#10;   <polygon
   class="fil2 str4"
   points="7109.95,10511.24 6424.22,10749.36 7037.29,10470.06 "
   id="polygon9" />&#10;   <polygon
   class="fil3 str5"
   points="6424.22,10749.36 7037.28,10470.06 7109.97,10511.2 6970.45,10429.13 6970.45,10390.9 6473.48,10097.81 6435.25,10123.3 6359.57,10078.78 "
   id="polygon10" />&#10;   <polygon
   class="fil4 str6"
   points="6027.18,11174.95 6380.53,10825.03 6247.74,11302.29 "
   id="polygon11" />&#10;   <polygon
   class="fil5"
   points="6027.18,11174.95 6247.74,11302.29 6193.57,11493.41 5885.79,11313.73 "
   id="polygon12" />&#10;   <line
   class="fil0 str7"
   x1="6270.05"
   y1="11315.17"
   x2="6004.27"
   y2="11161.72"
   id="line12" />&#10;   <path
   class="fil0 str3"
   d="M6376.18 10251.15c128.41,-68.2 221.46,-35.57 279.17,97.88"
   id="path12" />&#10;   <path
   class="fil4 str5"
   d="M6879.71 10541.86c-5.14,-145.3 -79.93,-209.58 -224.35,-192.83 -57.71,-133.46 -150.77,-166.08 -279.17,-97.88l48.03 498.22 333.74 -152.05 121.74 -55.46z"
   id="path13" />&#10;   <path
   class="fil0 str7"
   d="M6757.97 10597.32c-58.47,-181.59 -180.95,-252.31 -367.45,-212.15"
   id="path14" />&#10;   <path
   class="fil0 str3"
   d="M6879.71 10541.86c-5.14,-145.3 -79.93,-209.58 -224.35,-192.83"
   id="path15" />&#10;   <path
   class="fil2 str4"
   d="M6394.68 10732.3l0.45 0.03 24.44 -460.2 -94.27 -5.01 -19.23 362.15c-23.99,-29.81 -39.53,-64.12 -45.66,-92.32 -10,-25.99 -80.89,-33.08 -125.24,-19.38l-0.2 0.07 1 -0.3c-0.82,0.25 -1.61,0.53 -2.35,0.83 -0.67,0.28 -1.3,0.57 -1.89,0.87l-0.04 0.02c-4.97,2.56 -7.75,6.42 -8.35,11.61 -0.14,3.74 0.38,7.62 1.56,11.65 0.85,2.65 2.02,5.48 3.52,8.52l-1.27 -2.37 0.21 0.46c51.84,97.48 126.38,176.71 223.62,237.7 -0.54,0.67 -1.09,1.35 -1.65,2.03 17.78,25.08 47.69,42.34 78.3,45.21 0.32,-0.83 0.63,-1.67 0.94,-2.49 100.77,53.37 205.93,78.34 315.48,74.89 19.94,-1.3 28.37,-8.98 25.27,-23.04 -10.77,-45.58 -53.21,-104.32 -80.07,-98.74 -30.74,11.88 -55.7,10.94 -103.33,7l304.53 -198.07 -51.47 -79.13 -386.32 251.26 0.35 0.54c-20.73,-8.42 -40.37,-19.78 -58,-33.55 0,0 -0.02,0.02 -0.05,0.06 -0.09,-0.09 -0.19,-0.19 -0.29,-0.29zm58.34 33.78l0.06 0.09 0.21 0.33 -0.05 0.14 -0.06 0.17 0 0 -0.07 0.19 -0.09 0.22 0 0 -0.09 0.25 -0.1 0.28 -0.12 0.3 -0.13 0.33 -0.14 0.36 -0.15 0.39 0 0 -0.16 0.41 -0.17 0.44 0 0 -0.18 0.47 0 0 -0.19 0.5 -0.2 0.53 -0.21 0.55 -0.22 0.58 0 0 -0.23 0.61 0 0 -0.24 0.64 -0.25 0.67 0 0 -0.26 0.69 0 0 -0.28 0.72 -0.29 0.75 -0.3 0.78 -0.31 0.8 0 0 -0.31 0.83 0 0 -0.33 0.86 -0 0 -0.33 0.89 0 0 -0.35 0.92 -0.36 0.94 0 0 -0.37 0.97 0 0 -0.38 1 0 0 -0.39 1.03 -0.4 1.05 0 0 -0.41 1.08 0 0 -0.42 1.11 -0.43 1.14 0 0 -0.44 1.17 0 0 -0.46 1.19 0 0 -0.46 1.22 0 0 -0.48 1.25 0 0 -0.49 1.28 0 0 -0.5 1.3 0 0 -0.51 1.33 0 0 -0.52 1.36 0 0 -0.53 1.39 -0.54 1.42 -0.55 1.44 -0.56 1.47 -0.57 1.5 0 0 -0.58 1.53 -0.59 1.56 0 0 -0.6 1.58 -0.61 1.61 0 0 -0.63 1.64 0 0 -0.63 1.67 0 0 -0.65 1.69 -0.66 1.72 -0.67 1.75 -0.68 1.78 -0.69 1.81 -0.7 1.83 -0.71 1.86 -0.72 1.89 24.71 -64.86 -0.28 -0.43z"
   id="path16" />&#10;   <path
   class="fil0 str4"
   d="M6349.33 10788.65c31.09,-37.22 45.8,-56.32 45.8,-56.32"
   id="path17" />&#10;   <path
   class="fil6 str4"
   d="M6689.19 10784.51c-0.85,0.25 -1.71,0.49 -2.56,0.74l-0.13 0.05 0 -0.01c-76.23,21.39 -172.75,-3.8 -233.52,-19.55 157.66,67.62 239.83,80.19 250.52,37.17 1.08,-14.47 -1.13,-19.7 -14.23,-18.4l-0.07 0.02z"
   id="path18" />&#10;   <path
   class="fil6 str4"
   d="M6260.41 10536.95c0.21,0.86 0.43,1.72 0.65,2.59l0.02 0.14 0.01 -0.01c19.6,76.71 89.67,147.71 133.7,192.46 -137.39,-102.73 -189.36,-167.59 -157.45,-198.37 12,-8.17 17.62,-8.88 23.05,3.12l0.02 0.07z"
   id="path19" />&#10;   <polygon
   class="fil2 str3"
   points="7275.13,11726.38 6880.71,11012.92 6812.18,11071.77 7193.45,11754.38 "
   id="polygon19" />&#10;   <path
   class="fil0 str1"
   d="M6524.45 12518.95c-76.45,89.2 -254.85,63.71 -267.6,-89.2l0 -356.8c12.74,-152.92 191.14,-191.14 267.6,-89.2l-254.85 -446c38.23,114.69 -89.2,254.86 -216.63,165.66l-318.57 -178.4c-101.94,-63.71 -50.97,-242.11 76.46,-254.85l-535.2 -12.74 -89.2 -573.43c-89.2,63.71 -191.14,50.97 -216.63,-50.97l-38.23 -242.11c-12.74,-101.95 63.72,-165.66 178.4,-127.43l-63.72 -407.77 0 -203.88 535.2 -382.28 293.08 12.74 0 446 216.63 140.17 547.94 -904.74 25.48 25.48 254.86 -178.4 968.45 573.43 -38.23 293.08 38.23 25.48 -535.2 904.74 229.37 127.43 395.03 -216.63 140.17 254.85 -76.46 649.88 -178.4 101.94 12.75 1452.68 -318.57 178.4 -892 -305.83 -140.17 -331.31z"
   id="path20" />&#10;   <polygon
   class="fil2 str3"
   points="7284.66,12863.99 7275.13,11726.38 7192.57,11754.68 7199.18,12834.78 "
   id="polygon20" />&#10;   <polygon
   class="fil2 str3"
   points="5967.73,10485.81 5065.57,10472.39 5080.8,10568.53 5950.08,10574.04 "
   id="polygon21" />&#10;  </g>&#10;  <g
   id="arm">&#10;   <polygon
   class="fil7"
   points="499.52,6001.6 499.52,3816.21 1162.15,3816.21 1162.15,6001.6 "
   id="polygon22" />&#10;   <polygon
   class="fil7"
   points="499.52,6001.6 499.52,8187 1162.15,8187 1162.15,6001.6 "
   id="polygon23" />&#10;   <polygon
   class="fil1"
   points="493.49,6001.6 493.49,6245.25 399.79,7142.37 493.49,7142.37 1156.12,7142.37 1261.89,7142.37 1156.12,6195.12 1156.12,6001.6 1156.12,5808.08 1261.89,4860.83 1156.12,4860.83 493.49,4860.83 399.79,4860.83 493.49,5757.96 "
   id="polygon24" />&#10;   <polygon
   class="fil2"
   points="405.83,7142.37 1267.92,7142.37 1247.51,6959.6 424.92,6959.6 "
   id="polygon25" />&#10;   <path
   class="fil0 str8"
   d="M588.72 7804.71l496.97 0m-496.97 -1516.4l496.97 0"
   id="path25" />&#10;   <polygon
   class="fil2"
   points="499.52,7804.71 1162.15,7804.71 1162.15,7555.61 499.52,7555.61 "
   id="polygon26" />&#10;   <line
   class="fil0 str3"
   x1="405.83"
   y1="7142.37"
   x2="1267.92"
   y2="7142.37"
   id="line26" />&#10;   <polygon
   class="fil5"
   points="588.72,7235.56 1085.69,7235.56 1162.15,7235.56 1278.32,7235.56 1267.92,7142.37 1174.89,7142.37 1162.15,7142.37 499.52,7142.37 405.83,7142.37 396.09,7235.56 499.52,7235.56 "
   id="polygon27" />&#10;   <polygon
   class="fil0 str8"
   points="588.72,8136.02 741.64,7932.14 830.84,8136.02 932.78,7932.14 1085.69,8136.02 1085.69,7143.68 1174.89,7142.37 1085.69,6288.31 1085.69,6001.6 1085.69,5714.89 1174.89,4860.83 1085.69,4859.52 1085.69,3867.18 932.78,4071.07 830.84,3867.18 741.64,4071.07 588.72,3867.18 588.72,4860.3 499.52,4860.83 588.72,5714.89 588.72,6001.6 588.72,6288.31 499.52,7142.37 588.72,7142.9 "
   id="polygon28" />&#10;   <polygon
   class="fil2"
   points="405.83,4860.83 1267.92,4860.83 1247.51,5043.61 424.92,5043.61 "
   id="polygon29" />&#10;   <path
   class="fil0 str8"
   d="M588.72 4198.5l496.97 0m-496.97 1516.4l496.97 0"
   id="path29" />&#10;   <polygon
   class="fil2"
   points="499.52,4198.5 1162.15,4198.5 1162.15,4447.6 499.52,4447.6 "
   id="polygon30" />&#10;   <line
   class="fil0 str3"
   x1="405.83"
   y1="4860.83"
   x2="1267.92"
   y2="4860.83"
   id="line30" />&#10;   <polygon
   class="fil5"
   points="588.72,4767.64 1085.69,4767.64 1162.15,4767.64 1278.32,4767.64 1267.92,4860.83 1174.89,4860.83 1162.15,4860.83 499.52,4860.83 405.83,4860.83 396.09,4767.64 499.52,4767.64 "
   id="polygon31" />&#10;  </g>&#10;  <g
   id="head">&#10;   <g
   id="g37">&#10;    <path
   class="fil7"
   d="M4624.76 9171.23l0 -1236.05c12.74,-1554.62 -12.75,-1758.51 -522.45,-1898.68l-1694.8 0c-446,127.43 -522.45,191.14 -522.45,1898.68l0 1236.05 2739.7 0z"
   id="path31" />&#10;    <path
   class="fil8"
   d="M2840.77 7349.01c0,0 0,0 0,0 0,191.14 -76.46,344.05 -165.66,344.05 0,0 0,0 0,0 -89.2,0 -178.4,-152.91 -178.4,-344.05 0,0 0,0 0,0 0,-191.14 89.2,-344.06 178.4,-344.06 0,0 0,0 0,0 89.2,0 165.66,152.92 165.66,344.06zm1172.34 0c0,0 0,0 0,0 0,191.14 -76.46,344.05 -165.66,344.05 0,0 0,0 0,0 -101.94,0 -178.4,-152.91 -178.4,-344.05 0,0 0,0 0,0 0,-191.14 76.45,-344.06 178.4,-344.06 0,0 0,0 0,0 89.2,0 165.66,152.92 165.66,344.06z"
   id="path32" />&#10;    <path
   class="fil9"
   d="M2496.71 7680.32c0,50.97 -76.45,101.94 -152.91,101.94 0,0 0,0 0,0 0,0 0,0 0,0 -89.2,0 -152.92,-50.97 -152.92,-101.94 0,-50.97 63.72,-89.2 152.92,-89.2 0,0 0,0 0,0 0,0 0,0 0,0 76.46,0 152.91,38.23 152.91,89.2zm1809.48 0c0,50.97 -63.71,101.94 -152.91,101.94 0,0 0,0 0,0 0,0 0,0 0,0 -63.71,0 -127.43,-50.97 -127.43,-101.94 0,-50.97 63.72,-89.2 127.43,-89.2 0,0 0,0 0,0 0,0 0,0 0,0 89.2,0 152.91,38.23 152.91,89.2z"
   id="path33" />&#10;    <path
   class="fil10"
   d="M1885.05 9171.23l598.91 0 12.74 -25.49 356.8 0 12.74 25.49 790.05 0 12.75 -25.49 356.8 0 12.74 25.49 586.17 0 0 3045.53 1287.02 0 0 1975.14 -1287.02 0c-38.23,407.77 -458.74,407.77 -700.85,76.46l89.2 -38.23 -203.88 -165.65c331.31,-25.49 318.57,-140.17 331.31,-790.05 -662.62,-114.69 -1108.62,-76.46 -1758.51,0 0,802.8 25.48,764.57 318.57,790.05 -63.71,63.71 -127.43,140.17 -191.14,178.4l89.2 25.48c-242.11,331.31 -675.37,318.57 -713.6,-76.46l-1299.77 0 0 -1975.14 1287.03 0 12.74 -3045.53z"
   id="path34" />&#10;    <path
   class="fil0 str1"
   d="M4548.3 10993.46l-2586.79 0m2077.08 -1822.22l509.71 0m-1682.05 0l790.05 0m-1694.79 0l522.45 0m2064.34 -1236.05l-2586.79 0m2586.79 662.63l0 -344.06m-3873.82 4727.58l0 -688.11m547.94 1822.22l-547.94 0 0 -688.11m1210.57 688.11l-280.34 0m356.8 -1822.22l0 1822.22m2586.79 0l0 -1822.22m344.05 1822.22l-267.6 0m1210.57 -688.11l0 688.11 -560.68 0m101.94 -1822.22l458.74 0 0 675.37m-5160.84 -675.37l458.74 0m369.54 0l458.74 0 2586.79 0 446 0m-3032.79 -815.54l0 356.8m2586.79 -356.8l0 356.8m-1618.34 -5721.52l152.91 0 -152.91 0zm509.71 0l140.17 0 -140.17 0zm-1478.17 2140.79l0 344.06 0 -344.06zm0 1618.34l0 433.26 0 -433.26zm2586.79 0l0 433.26 0 -433.26z"
   id="path35" />&#10;    <path
   class="fil0 str1"
   d="M3783.73 13146.99c25.48,-89.2 25.48,-203.88 0,-356.8 89.2,101.95 140.17,242.12 152.91,369.54l267.6 50.97c-12.74,624.4 0,892 -216.62,917.48 76.46,63.72 140.17,76.46 203.88,63.72 -38.23,63.72 -76.45,89.2 -140.17,114.68 114.68,140.17 496.97,242.12 496.97,-191.14l76.46 0 305.83 280.34 904.74 0 0 -280.34 280.34 -178.4 0 -1452.68 -280.34 -191.14 0 -280.34 -981.2 0 -305.83 280.34 0 -458.74c89.2,38.23 191.14,12.74 191.14,-76.46l0 -191.14c0,-101.94 -101.94,-127.43 -191.14,-89.2l0 -1172.34c76.46,38.23 178.4,25.48 191.14,-89.2l0 -254.86c0,-114.68 -101.94,-127.43 -191.14,-89.2l0 -1274.28c76.46,38.23 178.4,38.23 191.14,-76.46l0 -191.14c0,-89.2 -89.2,-127.43 -191.14,-76.46l0 -318.57 -12.74 -1172.34c0,-305.83 -165.66,-649.88 -446,-649.88l-509.71 0 0 -649.88 -89.2 0 0 76.46 -458.74 0 0 -76.46 -101.94 0 0 649.88 -496.97 0c-293.08,0 -458.74,344.05 -458.74,649.88l-12.74 1172.34 0 318.57c-101.94,-50.97 -191.14,-12.74 -203.88,76.46l0 191.14c25.48,114.68 114.68,114.68 203.88,76.46l0 1274.28c-89.2,-38.23 -191.14,-25.48 -203.88,89.2l0 254.86c25.48,114.68 127.43,127.43 203.88,89.2l0 1172.34c-89.2,-38.23 -203.88,-12.74 -203.88,89.2l0 191.14c12.74,89.2 101.94,114.68 203.88,76.46l0 458.74 -305.83 -280.34 -981.2 0 0 280.34 -280.34 191.14 0 1452.68 280.34 178.4 0 280.34 904.74 0 305.83 -280.34 76.46 0c0,433.26 382.28,331.32 496.97,191.14 -50.97,-25.48 -101.94,-50.97 -140.17,-114.68 63.71,12.74 140.17,0 203.88,-63.72 -216.63,-25.48 -216.63,-293.08 -216.63,-917.48l267.6 -50.97c25.48,-127.43 76.46,-267.6 165.66,-369.54 -25.48,152.92 -38.23,267.6 0,356.8 356.8,-38.23 713.6,-38.23 1044.91,0l0 0z"
   id="path36" />&#10;    <path
   class="fil0 str0"
   d="M687.23 12968.59l-12.75 0 -25.48 12.74 0 433.26 25.48 12.74 12.75 12.74m5135.35 -471.48l12.74 0 25.48 12.74 0 433.26 -25.48 12.74 -12.74 12.74m-930.23 662.63l0 12.74 12.74 25.49 356.8 0 12.74 -25.49 12.74 -12.74m-3669.93 0l-12.74 12.74 -12.74 25.49 -344.06 0 -25.48 -25.49 0 -12.74m293.08 -1783.99l0 -25.49 -12.74 -25.48 -356.8 0 -12.74 25.48 -12.74 25.49m3873.81 0l0 -25.49 12.75 -25.48 356.8 0 12.74 25.48 0 25.49m-2293.7 -6205.75l89.2 89.2 178.4 0 89.2 -89.2m203.88 3083.76l12.74 -25.48 12.75 -25.49 356.8 0 12.74 25.49 0 25.48m-1567.37 0l12.74 -25.48 12.74 -25.49 356.8 0 12.74 25.49 0 25.48m764.57 -637.14c0,0 0,0 0,0 0,203.88 -165.66,356.8 -369.54,356.8 0,0 0,0 0,0 -203.88,0 -369.54,-152.91 -369.54,-356.8 0,0 0,0 0,0 0,0 0,0 0,0 0,-203.88 165.66,-369.54 369.54,-369.54 0,0 0,0 0,0 203.88,0 369.54,165.65 369.54,369.54 0,0 0,0 0,0z"
   id="path37" />&#10;   </g>&#10;   <polyline
   class="fil0 str0"
   points="2760.12,10127.16 2747.38,10127.16 2721.89,10139.76 2721.89,10492.73 2747.38,10505.34 2760.12,10517.94 "
   id="polyline37" />&#10;   <polyline
   class="fil0 str0"
   points="3756.43,10127.16 3769.17,10127.16 3794.66,10139.76 3794.66,10492.73 3769.17,10505.34 3756.43,10517.94 "
   id="polyline38" />&#10;   <polyline
   class="fil0 str0"
   points="3453.66,9814.03 3453.66,9801.29 3441.06,9775.8 3088.09,9775.8 3075.48,9801.29 3062.88,9814.03 "
   id="polyline39" />&#10;   <polyline
   class="fil0 str0"
   points="3453.66,10810.34 3453.66,10823.08 3441.06,10848.57 3088.09,10848.57 3075.48,10823.08 3062.88,10810.34 "
   id="polyline40" />&#10;   <path
   class="fil1"
   d="M2133.25 13396.01c107.8,-374.55 297.38,-874 527.73,-1102.79 -358.73,230.43 -534.63,598.03 -527.73,1102.79z"
   id="path40" />&#10;   <path
   class="fil1"
   d="M4392.23 13396.01c-107.8,-374.55 -297.38,-874 -527.73,-1102.79 358.73,230.43 534.63,598.03 527.73,1102.79z"
   id="path41" />&#10;   <path
   class="fil1"
   d="M2356.79 14387.88c-120.12,-173.81 -264.55,-424.81 -281.45,-600 -26.49,229.6 67.33,429.6 281.45,600z"
   id="path42" />&#10;   <path
   class="fil1"
   d="M4143.38 14372.53c120.12,-173.81 264.55,-424.81 281.45,-600 26.49,229.6 -67.33,429.6 -281.45,600z"
   id="path43" />&#10;   <path
   class="fil1"
   d="M1001.14 12981.33c107.8,374.55 297.38,874 527.73,1102.79 -358.73,-230.43 -534.63,-598.03 -527.73,-1102.79z"
   id="path44" />&#10;   <path
   class="fil1"
   d="M1782.6 12349.2c-128.04,107.84 -290.77,269.63 -340.19,400.03 27.6,-181.04 141,-314.38 340.19,-400.03z"
   id="path45" />&#10;   <path
   class="fil1"
   d="M5448.56 12958.54c-107.8,374.55 -297.38,874 -527.73,1102.79 358.73,-230.43 534.63,-598.03 527.73,-1102.79z"
   id="path46" />&#10;   <path
   class="fil1"
   d="M4961.38 12354.04c102.44,132.4 227.42,324.84 248.26,462.73 11.17,-182.79 -71.58,-337.04 -248.26,-462.73z"
   id="path47" />&#10;   <path
   class="fil1"
   d="M3762.08 11372.13c102.44,132.4 227.42,324.84 248.26,462.73 11.17,-182.79 -71.58,-337.04 -248.26,-462.73z"
   id="path48" />&#10;   <path
   class="fil1"
   d="M2817.07 11372.13c-102.44,132.4 -227.42,324.84 -248.26,462.73 -11.17,-182.79 71.58,-337.04 248.26,-462.73z"
   id="path49" />&#10;   <path
   class="fil1"
   d="M4422.88 9318.85c-107.8,374.55 -297.38,874 -527.73,1102.79 358.73,-230.43 534.63,-598.03 527.73,-1102.79z"
   id="path50" />&#10;   <path
   class="fil1"
   d="M2027.96 10069.38c149.33,213.19 377.41,487.54 572.53,582.08 -276.56,-67.74 -467.41,-261.77 -572.53,-582.08z"
   id="path51" />&#10;   <path
   class="fil1"
   d="M2868.94 9193.26c-102.44,132.4 -227.42,324.84 -248.26,462.73 -11.17,-182.79 71.58,-337.04 248.26,-462.73z"
   id="path52" />&#10;   <path
   class="fil1"
   d="M2807.94 7553.27c-87.44,-37.4 -186.4,-37.31 -273.78,0.26 34.27,84.85 87.61,139.54 140.96,139.54 53.4,0 102.23,-54.8 132.83,-139.79z"
   id="path53" />&#10;   <path
   class="fil4"
   d="M2675.11 7004.95c14.56,109.21 22,212.08 22.32,324.22 48.7,1.13 96.41,13.41 143.13,21.23 -47.17,6.16 -94.9,19.26 -143.17,20.21 -0.68,109.28 -8.11,210.4 -22.27,322.45 -17.59,-113.04 -26.9,-214.15 -27.93,-322.4 -49.59,-0.87 -99.75,-13.98 -150.47,-20.26 51.11,-7.78 101.23,-20.06 150.38,-21.21 0.21,-113.32 9.54,-216.2 28.02,-324.24z"
   id="path54" />&#10;   <path
   class="fil1"
   d="M3981.84 7548.86c-93.57,-32.14 -186.9,-31.44 -279.98,2.13 31.75,86.3 84.02,142.08 145.59,142.08 54.32,0 103.91,-56.7 134.39,-144.21z"
   id="path55" />&#10;   <path
   class="fil4"
   d="M3847.45 7004.95c14.56,109.21 22,212.08 22.32,324.22 48.7,1.13 96.41,13.41 143.13,21.23 -47.17,6.16 -94.9,19.26 -143.17,20.21 -0.68,109.28 -8.11,210.4 -22.27,322.45 -17.59,-113.04 -26.9,-214.15 -27.93,-322.4 -49.59,-0.87 -99.75,-13.98 -150.47,-20.26 51.11,-7.78 101.23,-20.06 150.38,-21.21 0.21,-113.32 9.54,-216.2 28.02,-324.24z"
   id="path56" />&#10;   <g
   id="g57">&#10;    <path
   class="fil1 str9"
   d="M1552.67 13297.76c225.8,0 408.84,183.05 408.84,408.84 0,225.8 -183.05,408.84 -408.84,408.84 -225.8,0 -408.84,-183.05 -408.84,-408.84 0,-225.8 183.05,-408.84 408.84,-408.84z"
   id="path57" />&#10;   </g>&#10;   <g
   id="g58">&#10;    <path
   class="fil2"
   d="M1552.67 13386.86c176.59,0 319.74,143.15 319.74,319.74 0,176.59 -143.15,319.74 -319.74,319.74 -176.59,0 -319.74,-143.15 -319.74,-319.74 0,-176.59 143.15,-319.74 319.74,-319.74z"
   id="path58" />&#10;   </g>&#10;   <g
   id="g59">&#10;    <path
   class="fil1 str9"
   d="M4957.14 13297.76c225.8,0 408.84,183.05 408.84,408.84 0,225.8 -183.05,408.84 -408.84,408.84 -225.8,0 -408.84,-183.05 -408.84,-408.84 0,-225.8 183.05,-408.84 408.84,-408.84z"
   id="path59" />&#10;   </g>&#10;   <g
   id="g60">&#10;    <path
   class="fil2 str10"
   d="M4957.14 13386.86c176.59,0 319.74,143.15 319.74,319.74 0,176.59 -143.15,319.74 -319.74,319.74 -176.59,0 -319.74,-143.15 -319.74,-319.74 0,-176.59 143.15,-319.74 319.74,-319.74z"
   id="path60" />&#10;   </g>&#10;  </g>&#10;  <g
   id="hair">&#10;   <polygon
   class="fil10"
   points="6785.67,8098.16 5667.83,8098.16 5667.83,7381.79 4901.29,7381.79 4901.29,6216.94 5660.31,6216.94 5663.33,5495.49 6785.67,5495.49 "
   id="polygon60" />&#10;   <path
   class="fil0 str1"
   d="M4953.88 6667.86l0 -405.82m323.16 1074.68l-323.16 0 0 -405.83m713.95 405.83l-165.34 0m210.42 -1074.68l0 1074.68m-759.03 -1074.68l270.54 0m217.95 0l270.53 0 1072.77 0m-1072.77 -480.98l0 210.44"
   id="path61" />&#10;   <path
   class="fil0 str1"
   d="M6785.67 5495.49l-144.18 0 -352.51 0 -147.7 0 -428.37 0 0 285.57c-52.6,-22.55 -120.23,-7.5 -120.23,52.62l0 112.73c7.5,52.6 60.11,67.63 120.23,45.1l0 270.54 -180.36 -165.34 -578.67 0 0 368.25 0 11.69 0 21.47 0 21.51 0 21.54 0 21.58 0 21.62 0 21.65 0 21.69 0 5.88c-52.59,-37.78 -120.24,-12.59 -120.24,88.13l0 188.84c7.52,88.15 60.12,113.31 120.24,75.55l0 147.7 0 368.24 533.59 0 180.36 -165.33 45.08 0 1072.77 0 0 -1841.22z"
   id="path62" />&#10;   <path
   class="fil0 str0"
   d="M5510.01 7329.18l-7.52 7.52 -7.52 15.03 -202.91 0 -15.02 -15.03 0 -7.52m172.85 -1052.13l0 -15.03 -7.51 -15.04 -210.43 0 -7.52 15.04 -7.51 15.03"
   id="path63" />&#10;   <polygon
   class="fil10"
   points="6785.67,6262.03 5712.91,6262.03 5660.32,6213.82 5663.33,5495.49 6785.67,5495.49 "
   id="polygon63" />&#10;   <path
   class="fil0 str1"
   d="M5712.91 6262.03l1072.77 0m-1072.77 -480.98l0 210.44"
   id="path64" />&#10;   <path
   class="fil0 str1"
   d="M6785.67 5495.49l-1072.77 0 0 285.57c-52.6,-22.55 -120.23,-7.5 -120.23,52.62l0 112.73c7.5,52.6 60.11,67.63 120.23,45.1l0 270.54 1072.77 0 0 -766.55z"
   id="path65" />&#10;   <path
   class="fil10"
   d="M6785.67 8083.14l-73.24 0 -7.52 15.02 80.76 0 0 -15.02zm-546.7 15.02l-7.52 -15.02 -210.42 0 -7.51 15.02 225.46 0z"
   id="path66" />&#10;   <path
   class="fil0 str1"
   d="M6013.52 8098.16l-300.61 0m992.01 0l-465.94 0m-526.06 -338.17l-0 -202.92"
   id="path67" />&#10;   <path
   class="fil0 str1"
   d="M5712.91 8098.16l0 -338.17c-45.08,22.54 -105.2,22.54 -112.73,-45.09l0 -112.74c0,-52.61 52.61,-75.15 112.72,-45.09l0 -220.37 1072.77 0 0 761.46 -68.1 0 -652.69 0 -351.97 0z"
   id="path68" />&#10;   <path
   class="fil0 str1"
   d="M6425.71 8098.16c37.77,52.61 12.59,120.25 -88.12,120.25l-188.84 0c-88.13,-7.52 -113.31,-60.12 -75.54,-120.25l352.51 0z"
   id="path69" />&#10;   <g
   id="g74">&#10;    <polygon
   class="fil10"
   points="6830.77,5495.49 6830.77,6216.94 7589.8,6216.94 7589.8,7381.79 6830.77,7381.79 6830.77,8098.16 6785.67,8098.16 6785.67,5495.49 "
   id="polygon69" />&#10;    <path
   class="fil0 str1"
   d="M6988.58 7336.71l-157.81 0m713.93 -405.83l0 405.83 -330.67 0m60.12 -1074.68l270.55 0 0 398.3m-759.03 -398.3l263.03 0"
   id="path70" />&#10;    <path
   class="fil0 str1"
   d="M6830.77 7336.71l180.35 165.33 533.58 0 0 -368.24 0 -147.7c60.12,37.76 112.73,12.6 120.24,-75.55l0 -188.84c0,-100.73 -67.64,-125.91 -120.24,-88.13l0 -5.88 0 -21.69 0 -21.65 0 -21.62 0 -21.58 0 -21.54 0 -21.51 0 -21.47 0 -11.69 0 -368.24 -578.67 -0 -180.36 165.34 0 1074.68 45.09 0zm-45.09 -1345.21c52.61,22.53 112.72,7.5 112.72,-45.1l0 -112.73c0,-60.12 -60.11,-75.17 -112.72,-52.62l0 210.44z"
   id="path71" />&#10;    <path
   class="fil0 str0"
   d="M6988.58 7329.18l0 7.53 7.5 15.03 210.44 0 7.51 -15.03 7.53 -7.52m-172.86 -1052.12l0 -15.03 7.5 -15.04 210.44 0 7.51 15.04 0 15.03"
   id="path72" />&#10;    <g
   id="g73">&#10;     <polygon
   class="fil10"
   points="6830.77,5495.49 6830.77,6216.94 6834.86,6216.94 6785.67,6262.03 6785.67,5495.49 "
   id="polygon72" />&#10;     <path
   class="fil0 str1"
   d="M6785.67 5991.49c52.61,22.53 112.72,7.5 112.72,-45.1l0 -112.73c0,-60.12 -60.11,-75.17 -112.72,-52.62l0 210.44z"
   id="path73" />&#10;    </g>&#10;    <polygon
   class="fil0 str1"
   points="6785.67,7557.07 6785.67,7759.99 "
   id="polygon73" />&#10;    <path
   class="fil0 str1"
   d="M6785.67 7557.07c60.11,-30.05 112.72,-7.52 120.24,45.09l0 112.74c-15.03,67.62 -67.63,67.62 -120.24,45.09l0 -202.92z"
   id="path74" />&#10;   </g>&#10;   <path
   class="fil0 str1"
   d="M6425.71 5495.49c37.77,-52.61 12.59,-120.25 -88.12,-120.25l-188.84 0c-88.13,7.52 -113.31,60.12 -75.54,120.25l352.51 0z"
   id="path75" />&#10;   <path
   class="fil1"
   d="M5084.96 6826.88c142.75,87.46 347.63,190.79 486.96,196.52 -180.49,30.96 -342.82,-34.54 -486.96,-196.52z"
   id="path76" />&#10;   <path
   class="fil1"
   d="M5968.27 7540.67c54.61,120.18 142.79,278.19 231.27,343.48 -131.58,-59.51 -208.67,-174 -231.27,-343.48z"
   id="path77" />&#10;   <path
   class="fil1"
   d="M7466.25 6998.92c-80.85,-104.35 -203.1,-237.75 -304.25,-280.88 141.76,27.56 243.17,121.19 304.25,280.88z"
   id="path78" />&#10;   <path
   class="fil1"
   d="M6606.01 5938.05c-53.08,-120.86 -139.26,-279.97 -226.91,-346.38 130.81,61.17 206.45,176.63 226.91,346.38z"
   id="path79" />&#10;   <path
   class="fil1"
   d="M6343.02 6426.82c-80.36,-46.86 -195.43,-101.78 -272.91,-103.28 99.9,-19.39 190.87,15.04 272.91,103.28z"
   id="path80" />&#10;   <path
   class="fil1"
   d="M6112.75 7222.43c-82.98,-42.05 -191.58,-108.87 -234.9,-173.12 37.96,94.42 116.25,152.13 234.9,173.12z"
   id="path81" />&#10;   <path
   class="fil1"
   d="M6275.78 7075.57c115.95,46.71 279.62,97.41 382.93,84.37 -129.07,45.17 -256.72,17.04 -382.93,-84.37z"
   id="path82" />&#10;   <rect
   class="fil1 str9"
   x="4953.88"
   y="6262.03"
   width="217.9"
   height="119.41"
   rx="56.08"
   ry="59.71"
   id="rect82" />&#10;   <rect
   class="fil11 str3"
   x="4953.88"
   y="6381.44"
   width="217.9"
   height="119.41"
   rx="56.08"
   ry="59.71"
   id="rect83" />&#10;   <rect
   class="fil1 str9"
   x="4953.88"
   y="6500.85"
   width="217.9"
   height="119.41"
   rx="56.08"
   ry="59.71"
   id="rect84" />&#10;   <rect
   class="fil11 str3"
   x="4953.88"
   y="6620.25"
   width="217.9"
   height="119.41"
   rx="56.08"
   ry="59.71"
   id="rect85" />&#10;   <rect
   class="fil1 str9"
   x="4953.88"
   y="6739.66"
   width="217.9"
   height="119.41"
   rx="56.08"
   ry="59.71"
   id="rect86" />&#10;   <rect
   class="fil11 str3"
   x="4953.88"
   y="6859.07"
   width="217.9"
   height="119.41"
   rx="56.08"
   ry="59.71"
   id="rect87" />&#10;   <rect
   class="fil1 str9"
   x="4953.88"
   y="6978.48"
   width="217.9"
   height="119.41"
   rx="56.08"
   ry="59.71"
   id="rect88" />&#10;   <rect
   class="fil11 str3"
   x="4953.88"
   y="7097.89"
   width="217.9"
   height="119.41"
   rx="56.08"
   ry="59.71"
   id="rect89" />&#10;   <rect
   class="fil1 str9"
   x="4953.88"
   y="7217.3"
   width="217.9"
   height="119.41"
   rx="56.08"
   ry="59.71"
   id="rect90" />&#10;   <rect
   class="fil1 str9"
   x="7326.8"
   y="6262.03"
   width="217.9"
   height="119.41"
   rx="56.08"
   ry="59.71"
   id="rect91" />&#10;   <rect
   class="fil11 str3"
   x="7326.8"
   y="6381.44"
   width="217.9"
   height="119.41"
   rx="56.08"
   ry="59.71"
   id="rect92" />&#10;   <rect
   class="fil1 str9"
   x="7326.8"
   y="6500.85"
   width="217.9"
   height="119.41"
   rx="56.08"
   ry="59.71"
   id="rect93" />&#10;   <rect
   class="fil11 str3"
   x="7326.8"
   y="6620.25"
   width="217.9"
   height="119.41"
   rx="56.08"
   ry="59.71"
   id="rect94" />&#10;   <rect
   class="fil1 str9"
   x="7326.8"
   y="6739.66"
   width="217.9"
   height="119.41"
   rx="56.08"
   ry="59.71"
   id="rect95" />&#10;   <rect
   class="fil11 str3"
   x="7326.8"
   y="6859.07"
   width="217.9"
   height="119.41"
   rx="56.08"
   ry="59.71"
   id="rect96" />&#10;   <rect
   class="fil1 str9"
   x="7326.8"
   y="6978.48"
   width="217.9"
   height="119.41"
   rx="56.08"
   ry="59.71"
   id="rect97" />&#10;   <rect
   class="fil11 str3"
   x="7326.8"
   y="7097.89"
   width="217.9"
   height="119.41"
   rx="56.08"
   ry="59.71"
   id="rect98" />&#10;   <rect
   class="fil1 str9"
   x="7326.8"
   y="7217.3"
   width="217.9"
   height="119.41"
   rx="56.08"
   ry="59.71"
   id="rect99" />&#10;   <rect
   class="fil11 str3"
   transform="matrix(2.64845E-14 1 -1.06461 2.81958E-14 6787.59 7880.26)"
   width="217.9"
   height="112.16"
   rx="56.08"
   ry="56.08"
   id="rect100" />&#10;   <rect
   class="fil1 str9"
   transform="matrix(2.64845E-14 1 -1.06461 2.81958E-14 6668.18 7880.26)"
   width="217.9"
   height="112.16"
   rx="56.08"
   ry="56.08"
   id="rect101" />&#10;   <rect
   class="fil11 str3"
   transform="matrix(2.64845E-14 1 -1.06461 2.81958E-14 6548.77 7880.26)"
   width="217.9"
   height="112.16"
   rx="56.08"
   ry="56.08"
   id="rect102" />&#10;   <rect
   class="fil1 str9"
   transform="matrix(2.64845E-14 1 -1.06461 2.81958E-14 6429.36 7880.26)"
   width="217.9"
   height="112.16"
   rx="56.08"
   ry="56.08"
   id="rect103" />&#10;   <rect
   class="fil11 str3"
   transform="matrix(2.64845E-14 1 -1.06461 2.81958E-14 6309.95 7880.26)"
   width="217.9"
   height="112.16"
   rx="56.08"
   ry="56.08"
   id="rect104" />&#10;   <rect
   class="fil1 str9"
   transform="matrix(2.64845E-14 1 -1.06461 2.81958E-14 6190.54 7880.26)"
   width="217.9"
   height="112.16"
   rx="56.08"
   ry="56.08"
   id="rect105" />&#10;   <rect
   class="fil11 str3"
   transform="matrix(2.64845E-14 1 -1.06461 2.81958E-14 6071.13 7880.26)"
   width="217.9"
   height="112.16"
   rx="56.08"
   ry="56.08"
   id="rect106" />&#10;   <rect
   class="fil1 str9"
   transform="matrix(2.64845E-14 1 -1.06461 2.81958E-14 5951.73 7880.26)"
   width="217.9"
   height="112.16"
   rx="56.08"
   ry="56.08"
   id="rect107" />&#10;   <rect
   class="fil11 str3"
   transform="matrix(2.64845E-14 1 -1.06461 2.81958E-14 5832.32 7880.26)"
   width="217.9"
   height="112.16"
   rx="56.08"
   ry="56.08"
   id="rect108" />&#10;   <rect
   class="fil11 str3"
   transform="matrix(2.64845E-14 1 -1.06461 2.81958E-14 6787.59 5495.49)"
   width="217.9"
   height="112.16"
   rx="56.08"
   ry="56.08"
   id="rect109" />&#10;   <rect
   class="fil1 str9"
   transform="matrix(2.64845E-14 1 -1.06461 2.81958E-14 6668.18 5495.49)"
   width="217.9"
   height="112.16"
   rx="56.08"
   ry="56.08"
   id="rect110" />&#10;   <rect
   class="fil11 str3"
   transform="matrix(2.64845E-14 1 -1.06461 2.81958E-14 6548.77 5495.49)"
   width="217.9"
   height="112.16"
   rx="56.08"
   ry="56.08"
   id="rect111" />&#10;   <rect
   class="fil1 str9"
   transform="matrix(2.64845E-14 1 -1.06461 2.81958E-14 6429.36 5495.49)"
   width="217.9"
   height="112.16"
   rx="56.08"
   ry="56.08"
   id="rect112" />&#10;   <rect
   class="fil11 str3"
   transform="matrix(2.64845E-14 1 -1.06461 2.81958E-14 6309.95 5495.49)"
   width="217.9"
   height="112.16"
   rx="56.08"
   ry="56.08"
   id="rect113" />&#10;   <rect
   class="fil1 str9"
   transform="matrix(2.64845E-14 1 -1.06461 2.81958E-14 6190.54 5495.49)"
   width="217.9"
   height="112.16"
   rx="56.08"
   ry="56.08"
   id="rect114" />&#10;   <rect
   class="fil11 str3"
   transform="matrix(2.64845E-14 1 -1.06461 2.81958E-14 6071.13 5495.49)"
   width="217.9"
   height="112.16"
   rx="56.08"
   ry="56.08"
   id="rect115" />&#10;   <rect
   class="fil1 str9"
   transform="matrix(2.64845E-14 1 -1.06461 2.81958E-14 5951.73 5495.49)"
   width="217.9"
   height="112.16"
   rx="56.08"
   ry="56.08"
   id="rect116" />&#10;   <rect
   class="fil11 str3"
   transform="matrix(2.64845E-14 1 -1.06461 2.81958E-14 5832.32 5495.49)"
   width="217.9"
   height="112.16"
   rx="56.08"
   ry="56.08"
   id="rect117" />&#10;  </g>&#10;  <path
   class="fil12 str11"
   d="M3049.81 7674.76c29.51,21.34 64.24,32.02 98.97,32.02 34.74,0 69.47,-10.68 98.97,-32.02l17.3 0c29.51,21.34 64.24,32.02 98.97,32.02 34.74,0 69.47,-10.68 98.97,-32.02l17.3 23.87c-34.72,25.11 -75.51,37.67 -116.27,37.67 -37.42,0 -74.88,-10.59 -107.62,-31.76 -32.75,21.17 -70.2,31.76 -107.62,31.76 -40.76,0 -81.56,-12.56 -116.27,-37.67l17.3 -23.87z"
   id="path117" />&#10;  <g
   id="_2043412453984">&#10;   <g
   id="g118">&#10;    <path
   class="fil4"
   d="M173.27 8183.96l671.12 0 0 3751.86 -671.12 0 0 -3751.86zm767 0l655.14 0 0 3756.19 -655.14 0 0 -3756.19z"
   id="path118" />&#10;   </g>&#10;   <rect
   class="fil11 str3"
   x="954.71"
   y="9448.33"
   width="662.63"
   height="76.3"
   id="rect118" />&#10;   <rect
   class="fil11 str3"
   x="194.5"
   y="9448.33"
   width="649.88"
   height="76.3"
   id="rect119" />&#10;   <path
   class="fil13"
   d="M180.95 9970.79l662.63 0 0 777.31 -662.63 0 0 -777.31zm764.57 0l649.88 0 0 777.31 -649.88 0 0 -777.31z"
   id="path119" />&#10;   <path
   class="fil11"
   d="M180.95 9970.79l662.63 0 0 777.31 -662.63 0 0 -777.31zm764.57 0l649.88 0 0 777.31 -649.88 0 0 -777.31z"
   id="path120" />&#10;   <path
   class="fil14"
   d="M180.95 10518.73l662.63 0 0 229.37 -662.63 0 0 -229.37zm764.57 0l649.88 0 0 229.37 -649.88 0 0 -229.37z"
   id="path121" />&#10;   <path
   class="fil2"
   d="M180.95 10518.73l662.63 0 0 335.08 -662.63 0 0 -335.08zm764.57 0l649.88 0 0 338.51 -649.88 0 0 -338.51z"
   id="path122" />&#10;   <g
   id="g124">&#10;    <path
   class="fil0 str12"
   d="M1020.16 10085.47l495.35 0m-1262.35 0l511.33 0m-511.33 -623.18l511.33 0m255.66 0l495.35 0m-1262.35 1294.31l511.33 0m255.66 0l495.35 0"
   id="path123" />&#10;    <path
   class="fil0 str12"
   d="M764.49 8279.84l-511.33 0 0 3579.32 511.33 0 0 -3579.32zm255.66 0l495.35 0 0 3579.32 -495.35 0 0 -3579.32z"
   id="path124" />&#10;   </g>&#10;  </g>&#10; </g>&#10;</svg>
