<?xml version="1.0" encoding="UTF-8"?>
<!DOCTYPE svg PUBLIC "-//W3C//DTD SVG 1.1//EN" "http://www.w3.org/Graphics/SVG/1.1/DTD/svg11.dtd">
<!-- Creator: CorelDRAW 2019 (64-Bit) -->
<svg xmlns="http://www.w3.org/2000/svg" xml:space="preserve" width="8.26772in" height="11.6929in" version="1.1" style="shape-rendering:geometricPrecision; text-rendering:geometricPrecision; image-rendering:optimizeQuality; fill-rule:evenodd; clip-rule:evenodd"
viewBox="0 0 8267.72 11692.91"
 xmlns:xlink="http://www.w3.org/1999/xlink">
 <defs>
  <style type="text/css">
   <![CDATA[
    .str10 {stroke:#373435;stroke-width:29.53;stroke-miterlimit:2.61313}
    .str8 {stroke:#4B4B4D;stroke-width:7.87;stroke-miterlimit:2.61313}
    .str3 {stroke:#373435;stroke-width:7.87;stroke-miterlimit:2.61313}
    .str5 {stroke:#373435;stroke-width:7.87;stroke-miterlimit:2.61313}
    .str2 {stroke:#70EAA8;stroke-width:7.87;stroke-miterlimit:2.61313}
    .str11 {stroke:#85ED1D;stroke-width:7.87;stroke-miterlimit:2.61313}
    .str12 {stroke:#FEA374;stroke-width:7.87;stroke-miterlimit:2.61313}
    .str17 {stroke:#FF2562;stroke-width:7.87;stroke-miterlimit:2.61313}
    .str9 {stroke:#4B4B4D;stroke-width:6.94;stroke-miterlimit:2.61313}
    .str6 {stroke:#373435;stroke-width:6.94;stroke-miterlimit:2.61313}
    .str7 {stroke:#373435;stroke-width:3.94;stroke-miterlimit:2.61313}
    .str14 {stroke:#96989A;stroke-width:3;stroke-miterlimit:2.61313}
    .str4 {stroke:#373435;stroke-width:3;stroke-miterlimit:2.61313}
    .str0 {stroke:black;stroke-width:3;stroke-miterlimit:2.61313}
    .str15 {stroke:#85ED1D;stroke-width:3;stroke-miterlimit:2.61313}
    .str1 {stroke:#EF0085;stroke-width:3;stroke-miterlimit:2.61313}
    .str16 {stroke:#FFD727;stroke-width:3;stroke-miterlimit:2.61313}
    .str13 {stroke:#6CEBF2;stroke-width:29.53;stroke-miterlimit:2.61313;stroke-dasharray:29.527559 29.527559}
    .fil1 {fill:none}
    .fil36 {fill:#FEFEFE}
    .fil7 {fill:#FEFEFE}
    .fil5 {fill:#606062}
    .fil6 {fill:#4B4B4D}
    .fil17 {fill:#373435}
    .fil43 {fill:#0B073A}
    .fil34 {fill:#1EA5FF}
    .fil42 {fill:#3D4643}
    .fil33 {fill:#5A8EFF}
    .fil13 {fill:#5C1A17}
    .fil52 {fill:#6BEAF1}
    .fil51 {fill:#796655}
    .fil40 {fill:#85ED1D}
    .fil49 {fill:#8C7764}
    .fil9 {fill:#A51547}
    .fil4 {fill:#A7F2D4}
    .fil11 {fill:#BF4119}
    .fil35 {fill:#C27A70}
    .fil2 {fill:#C4F26C}
    .fil8 {fill:#C5F36D}
    .fil45 {fill:#D95F86}
    .fil0 {fill:#DDB097}
    .fil44 {fill:#E0D3B3}
    .fil12 {fill:#E35015}
    .fil20 {fill:#E3630C}
    .fil22 {fill:#E42110}
    .fil19 {fill:#E51E0C}
    .fil23 {fill:#E78E7A}
    .fil21 {fill:#EBB312}
    .fil18 {fill:#ECCF80}
    .fil32 {fill:#EFFF54}
    .fil15 {fill:#F26A76}
    .fil14 {fill:#F46875}
    .fil47 {fill:#F6BFC2}
    .fil30 {fill:#FBD574}
    .fil27 {fill:#FD8DAB}
    .fil16 {fill:#FEA374}
    .fil46 {fill:#FEF2DC}
    .fil26 {fill:#FF76AA}
    .fil28 {fill:#FF8F89}
    .fil24 {fill:#FF9176}
    .fil39 {fill:#FF9178}
    .fil29 {fill:#FFA683}
    .fil48 {fill:#FFAAB6}
    .fil41 {fill:#FFD727}
    .fil31 {fill:#FFFD9E}
    .fil3 {fill:#FFFE77}
    .fil50 {fill:white}
    .fil38 {fill:#FEFEFE;fill-rule:nonzero}
    .fil10 {fill:#4B4B4D;fill-rule:nonzero}
    .fil37 {fill:#373435;fill-rule:nonzero}
    .fil25 {fill:#FFFE77;fill-rule:nonzero}
   ]]>
  </style>
    <clipPath id="id0">
     <path d="M6429.6 7836.28l613.15 -279.34 72.7 41.15 -139.54 -82.08 -0 -38.24 -497.04 -293.13 -38.24 25.49 -75.69 -44.52 64.66 670.68z"/>
    </clipPath>
    <clipPath id="id1">
     <path d="M5891.09 8400.72l494.81 -488.76 -186.99 668.47 -307.83 -179.71z"/>
    </clipPath>
     <clipPath id="id2">
      <path d="M5562.17 7156.52c18.81,18.02 33.38,30.13 43.72,36.31 62.17,37.43 107.86,67.17 137.06,89.24 18.91,16.2 58.41,25.22 118.47,27.06 49.59,0.34 84.5,-3.93 104.75,-12.82 24.85,-10.82 23.22,-33.11 -4.89,-66.85 -19.78,-22.02 -53.95,-40.4 -102.52,-55.15 -38.81,-12.02 -75.01,-31.46 -108.59,-58.35 -27.49,-18.22 -60.9,-29.57 -100.22,-34.04 -53.7,-6.7 -87.44,-1 -101.22,17.1 -8.72,12.02 -4.24,31.19 13.44,57.51z"/>
     </clipPath>
     <clipPath id="id3">
      <path d="M7500.26 9178.73c27.35,-84.74 70.93,-155.93 130.73,-213.55 0.02,-0.02 0.04,-0.04 0.06,-0.06 38.32,-34.1 55.87,-71.68 52.64,-112.72 -13.55,-17.16 -20.32,-25.74 -20.32,-25.74 -15.24,-7.86 -35.25,-6.27 -60,4.78 -59.07,25.57 -102.37,74.22 -129.89,145.95 -39.6,90.07 -30.68,157.18 26.78,201.33z"/>
     </clipPath>
    <clipPath id="id4">
     <path d="M427.03 2141.87c548.48,0 822.71,0 822.71,0 0,0 -27,223.79 -81,671.38 0,0 -225.87,0 -677.63,0 0,0 -21.36,-223.79 -64.09,-671.38z"/>
    </clipPath>
     <clipPath id="id5">
      <path d="M4045.15 9530.68c84.31,54.51 149.12,122.74 194.43,204.69 0.02,0.03 0.03,0.06 0.04,0.09 25.96,51.69 61.76,81.77 107.4,90.23 22.64,-9.75 33.96,-14.62 33.96,-14.62 13.01,-14.31 17.11,-36.56 12.31,-66.74 -10.61,-71.8 -50.97,-133.15 -121.06,-184.06 -86.54,-69.42 -162.23,-79.28 -227.08,-29.59z"/>
     </clipPath>
 </defs>
 <g id="Layer_x0020_1">
  <metadata id="CorelCorpID_0Corel-Layer"/>
  <g id="hair">
   <polygon class="fil0" points="6783.82,3374.65 5665.82,3374.65 5665.82,2658.17 4899.17,2658.17 4899.17,1493.16 5658.3,1493.16 5661.32,771.6 6783.82,771.6 "/>
   <path class="fil1 str0" d="M4951.77 1944.14l0 -405.88m323.21 1074.83l-323.21 0 0 -405.89m714.05 405.89l-165.36 0m210.44 -1074.83l0 1074.83m-759.13 -1074.83l270.58 0m217.98 0l270.57 0 1072.92 0m-1072.92 -481.05l0 210.47"/>
   <path class="fil1 str0" d="M6783.82 771.6l-144.2 0 -352.56 0 -147.72 0 -428.43 0 0 285.61c-52.61,-22.55 -120.24,-7.5 -120.24,52.63l0 112.74c7.5,52.61 60.12,67.64 120.24,45.1l0 270.57 -180.39 -165.36 -578.75 0 0 368.3 0 11.69 0 21.48 0 21.52 0 21.54 0 21.59 0 21.63 0 21.65 0 21.7 0 5.88c-52.6,-37.79 -120.26,-12.59 -120.26,88.14l0 188.86c7.52,88.16 60.13,113.32 120.26,75.56l0 147.72 0 368.29 533.66 0 180.39 -165.35 45.08 0 1072.92 0 0 -1841.48z"/>
   <path class="fil1 str1" d="M5507.98 2605.56l-7.52 7.52 -7.52 15.03 -202.94 0 -15.02 -15.03 0 -7.52m172.87 -1052.28l0 -15.03 -7.52 -15.04 -210.46 0 -7.52 15.04 -7.51 15.03"/>
   <polygon class="fil0" points="6783.82,1538.26 5710.91,1538.26 5658.31,1490.04 5661.32,771.6 6783.82,771.6 "/>
   <path class="fil1 str0" d="M5710.91 1538.26l1072.92 0m-1072.92 -481.05l0 210.47"/>
   <path class="fil1 str0" d="M6783.82 771.6l-1072.92 0 0 285.61c-52.61,-22.55 -120.24,-7.5 -120.24,52.63l0 112.74c7.5,52.61 60.12,67.64 120.24,45.1l0 270.57 1072.92 0 0 -766.65z"/>
   <path class="fil0" d="M6783.82 3359.62l-73.25 0 -7.52 15.02 80.77 0 0 -15.02zm-546.78 15.02l-7.52 -15.02 -210.45 0 -7.52 15.02 225.49 0z"/>
   <path class="fil1 str0" d="M6011.56 3374.65l-300.65 0m992.15 0l-466.01 0m-526.14 -338.22l-0 -202.95"/>
   <path class="fil1 str0" d="M5710.91 3374.65l0 -338.22c-45.09,22.54 -105.22,22.54 -112.74,-45.1l0 -112.75c0,-52.62 52.62,-75.16 112.74,-45.1l0 -220.4 1072.92 0 0 761.56 -68.11 0 -652.78 0 -352.02 0z"/>
   <path class="fil1 str0" d="M6423.8 3374.65c37.78,52.62 12.59,120.26 -88.13,120.26l-188.87 0c-88.14,-7.52 -113.33,-60.13 -75.55,-120.26l352.56 0z"/>
   <g>
    <polygon class="fil0" points="6828.92,771.6 6828.92,1493.16 7588.06,1493.16 7588.06,2658.17 6828.92,2658.17 6828.92,3374.65 6783.82,3374.65 6783.82,771.6 "/>
    <path class="fil1 str0" d="M6986.76 2613.08l-157.83 0m714.04 -405.89l0 405.89 -330.72 0m60.13 -1074.83l270.59 0 0 398.35m-759.13 -398.35l263.07 0"/>
    <path class="fil1 str0" d="M6828.92 2613.08l180.38 165.35 533.66 0 0 -368.29 0 -147.72c60.13,37.76 112.74,12.6 120.26,-75.56l0 -188.86c0,-100.74 -67.65,-125.93 -120.26,-88.14l0 -5.88 0 -21.7 0 -21.65 0 -21.63 0 -21.59 0 -21.54 0 -21.52 0 -21.48 0 -11.69 0 -368.3 -578.75 -0 -180.39 165.36 0 1074.83 45.1 0zm-45.1 -1345.4c52.61,22.54 112.74,7.5 112.74,-45.1l0 -112.74c0,-60.13 -60.12,-75.18 -112.74,-52.63l0 210.47z"/>
    <path class="fil1 str1" d="M6986.76 2605.56l0 7.53 7.5 15.03 210.47 0 7.51 -15.03 7.54 -7.52m-172.89 -1052.27l0 -15.03 7.5 -15.04 210.47 0 7.51 15.04 0 15.03"/>
    <g>
     <polygon class="fil0" points="6828.92,771.6 6828.92,1493.16 6833.02,1493.16 6783.82,1538.26 6783.82,771.6 "/>
     <path class="fil1 str0" d="M6783.82 1267.68c52.61,22.54 112.74,7.5 112.74,-45.1l0 -112.74c0,-60.13 -60.12,-75.18 -112.74,-52.63l0 210.47z"/>
    </g>
    <polygon class="fil1 str0" points="6783.82,2833.48 6783.82,3036.43 "/>
    <path class="fil1 str0" d="M6783.82 2833.48c60.11,-30.06 112.74,-7.52 120.25,45.1l0 112.76c-15.03,67.63 -67.64,67.63 -120.25,45.09l0 -202.95z"/>
   </g>
   <path class="fil1 str0" d="M6423.8 771.6c37.78,-52.62 12.59,-120.26 -88.13,-120.26l-188.87 0c-88.14,7.52 -113.33,60.13 -75.55,120.26l352.56 0z"/>
   <path class="fil2" d="M5082.87 2103.19c142.77,87.47 347.68,190.81 487.03,196.55 -180.52,30.97 -342.87,-34.55 -487.03,-196.55z"/>
   <path class="fil3" d="M5966.3 2817.08c54.62,120.2 142.81,278.22 231.31,343.53 -131.59,-59.52 -208.7,-174.02 -231.31,-343.53z"/>
   <path class="fil4" d="M7464.49 2275.25c-80.87,-104.36 -203.13,-237.79 -304.3,-280.92 141.78,27.56 243.2,121.2 304.3,280.92z"/>
   <path class="fil4" d="M6604.13 1214.22c-53.09,-120.88 -139.28,-280.01 -226.94,-346.43 130.83,61.18 206.48,176.65 226.94,346.43z"/>
   <path class="fil3" d="M6341.1 1703.07c-80.37,-46.87 -195.46,-101.8 -272.95,-103.3 99.91,-19.39 190.9,15.04 272.95,103.3z"/>
   <path class="fil4" d="M6110.8 2498.79c-82.99,-42.06 -191.6,-108.89 -234.93,-173.15 37.96,94.43 116.27,152.15 234.93,173.15z"/>
   <path class="fil2" d="M6273.86 2351.91c115.96,46.72 279.66,97.43 382.98,84.38 -129.09,45.17 -256.75,17.05 -382.98,-84.38z"/>
   <rect class="fil4 str2" x="4951.77" y="1538.25" width="217.93" height="119.43" rx="56.09" ry="59.71"/>
   <rect class="fil5 str3" x="4951.77" y="1657.68" width="217.93" height="119.43" rx="56.09" ry="59.71"/>
   <rect class="fil4 str2" x="4951.77" y="1777.1" width="217.93" height="119.43" rx="56.09" ry="59.71"/>
   <rect class="fil5 str3" x="4951.77" y="1896.53" width="217.93" height="119.43" rx="56.09" ry="59.71"/>
   <rect class="fil4 str2" x="4951.77" y="2015.95" width="217.93" height="119.43" rx="56.09" ry="59.71"/>
   <rect class="fil5 str3" x="4951.77" y="2135.38" width="217.93" height="119.43" rx="56.09" ry="59.71"/>
   <rect class="fil4 str2" x="4951.77" y="2254.81" width="217.93" height="119.43" rx="56.09" ry="59.71"/>
   <rect class="fil5 str3" x="4951.77" y="2374.23" width="217.93" height="119.43" rx="56.09" ry="59.71"/>
   <rect class="fil4 str2" x="4951.77" y="2493.66" width="217.93" height="119.43" rx="56.09" ry="59.71"/>
   <rect class="fil4 str2" x="7325.03" y="1538.25" width="217.93" height="119.43" rx="56.09" ry="59.71"/>
   <rect class="fil5 str3" x="7325.03" y="1657.68" width="217.93" height="119.43" rx="56.09" ry="59.71"/>
   <rect class="fil4 str2" x="7325.03" y="1777.1" width="217.93" height="119.43" rx="56.09" ry="59.71"/>
   <rect class="fil5 str3" x="7325.03" y="1896.53" width="217.93" height="119.43" rx="56.09" ry="59.71"/>
   <rect class="fil4 str2" x="7325.03" y="2015.95" width="217.93" height="119.43" rx="56.09" ry="59.71"/>
   <rect class="fil5 str3" x="7325.03" y="2135.38" width="217.93" height="119.43" rx="56.09" ry="59.71"/>
   <rect class="fil4 str2" x="7325.03" y="2254.81" width="217.93" height="119.43" rx="56.09" ry="59.71"/>
   <rect class="fil5 str3" x="7325.03" y="2374.23" width="217.93" height="119.43" rx="56.09" ry="59.71"/>
   <rect class="fil4 str2" x="7325.03" y="2493.66" width="217.93" height="119.43" rx="56.09" ry="59.71"/>
   <rect class="fil5 str3" transform="matrix(2.64845E-14 1 -1.06461 2.81958E-14 6785.73 3156.72)" width="217.93" height="112.18" rx="56.09" ry="56.09"/>
   <rect class="fil4 str2" transform="matrix(2.64845E-14 1 -1.06461 2.81958E-14 6666.31 3156.72)" width="217.93" height="112.18" rx="56.09" ry="56.09"/>
   <rect class="fil5 str3" transform="matrix(2.64845E-14 1 -1.06461 2.81958E-14 6546.88 3156.72)" width="217.93" height="112.18" rx="56.09" ry="56.09"/>
   <rect class="fil4 str2" transform="matrix(2.64845E-14 1 -1.06461 2.81958E-14 6427.46 3156.72)" width="217.93" height="112.18" rx="56.09" ry="56.09"/>
   <rect class="fil5 str3" transform="matrix(2.64845E-14 1 -1.06461 2.81958E-14 6308.03 3156.72)" width="217.93" height="112.18" rx="56.09" ry="56.09"/>
   <rect class="fil4 str2" transform="matrix(2.64845E-14 1 -1.06461 2.81958E-14 6188.61 3156.72)" width="217.93" height="112.18" rx="56.09" ry="56.09"/>
   <rect class="fil5 str3" transform="matrix(2.64845E-14 1 -1.06461 2.81958E-14 6069.18 3156.72)" width="217.93" height="112.18" rx="56.09" ry="56.09"/>
   <rect class="fil4 str2" transform="matrix(2.64845E-14 1 -1.06461 2.81958E-14 5949.76 3156.72)" width="217.93" height="112.18" rx="56.09" ry="56.09"/>
   <rect class="fil5 str3" transform="matrix(2.64845E-14 1 -1.06461 2.81958E-14 5830.33 3156.72)" width="217.93" height="112.18" rx="56.09" ry="56.09"/>
   <rect class="fil5 str3" transform="matrix(2.64845E-14 1 -1.06461 2.81958E-14 6785.73 771.602)" width="217.93" height="112.18" rx="56.09" ry="56.09"/>
   <rect class="fil4 str2" transform="matrix(2.64845E-14 1 -1.06461 2.81958E-14 6666.31 771.602)" width="217.93" height="112.18" rx="56.09" ry="56.09"/>
   <rect class="fil5 str3" transform="matrix(2.64845E-14 1 -1.06461 2.81958E-14 6546.88 771.602)" width="217.93" height="112.18" rx="56.09" ry="56.09"/>
   <rect class="fil4 str2" transform="matrix(2.64845E-14 1 -1.06461 2.81958E-14 6427.46 771.602)" width="217.93" height="112.18" rx="56.09" ry="56.09"/>
   <rect class="fil5 str3" transform="matrix(2.64845E-14 1 -1.06461 2.81958E-14 6308.03 771.602)" width="217.93" height="112.18" rx="56.09" ry="56.09"/>
   <rect class="fil4 str2" transform="matrix(2.64845E-14 1 -1.06461 2.81958E-14 6188.61 771.602)" width="217.93" height="112.18" rx="56.09" ry="56.09"/>
   <rect class="fil5 str3" transform="matrix(2.64845E-14 1 -1.06461 2.81958E-14 6069.18 771.602)" width="217.93" height="112.18" rx="56.09" ry="56.09"/>
   <rect class="fil4 str2" transform="matrix(2.64845E-14 1 -1.06461 2.81958E-14 5949.76 771.602)" width="217.93" height="112.18" rx="56.09" ry="56.09"/>
   <rect class="fil5 str3" transform="matrix(2.64845E-14 1 -1.06461 2.81958E-14 5830.33 771.602)" width="217.93" height="112.18" rx="56.09" ry="56.09"/>
  </g>
  <g id="body">
   <path class="fil4" d="M6542.59 9695.33l1414.65 484.3 0 -1593.08 -522.53 -904.87 -76.47 12.74 -140.19 -76.47 -25.49 25.49 -216.66 -127.44 0 -38.23 -497.04 -293.13 -38.23 25.49 -216.66 -127.45 0 -50.98 -127.44 -76.47 -25.49 -76.47 -1121.53 -12.74 267.64 1554.84 484.3 12.74 548.02 318.62 114.7 191.17c-101.96,25.49 -152.94,89.21 -178.43,203.91l0 382.34c38.23,178.43 140.19,267.64 356.85,165.68z"/>
   <path class="fil1 str1" d="M6478.87 7184.64l-38.23 25.49 -216.66 -127.45 0 -50.98m994.08 586.25l-25.49 25.49 -216.66 -127.44 0 -38.23m89.21 2281.28l0 25.49 0 25.49 420.57 140.19 12.75 -12.74 12.74 -25.49"/>
   <path class="fil1 str0" d="M7880.78 10064.92l-382.34 -127.44m-433.32 -152.93l-535.28 -178.43m-254.89 -981.34l1083.29 -930.35m-1261.72 -739.19l127.44 76.47m254.89 152.93l497.04 293.13m242.15 140.19l140.19 76.47 509.78 917.61 -1338.19 458.81m-713.7 -713.7l280.38 -1401.91 -1045.06 -12.74m63.72 407.83l76.47 420.57m1618.56 -1580.33l879.38 522.53"/>
   <line class="fil1 str4" x1="6274.96" y1="8624.78" x2="5816.04" y2= "8356.91" />
   <line class="fil1 str4" x1="6274.96" y1="8624.78" x2="5816.15" y2= "8357.14" />
   <polygon class="fil6 str3" points="6886.16,8099.87 5973.04,7572.69 5955.39,7660.93 6817.62,8158.73 "/>
   <polygon class="fil6 str5" points="6292.94,7123.25 6429.6,7836.28 6364.94,7165.6 "/>
   <polygon class="fil6 str5" points="7115.43,7598.11 6429.6,7836.28 7042.76,7556.94 "/>
   <polygon class="fil7" points="6429.6,7836.28 7042.75,7556.94 7115.45,7598.08 6975.91,7516 6975.91,7477.76 6478.87,7184.64 6440.63,7210.13 6364.94,7165.6 "/>
   <g style="clip-path:url(#id0)">
    <g>
     <path id="1" class="fil7 str6" d="M6772.57 7823.74c-5.14,-145.32 -79.93,-209.61 -224.39,-192.85 -57.72,-133.48 -150.78,-166.11 -279.2,-97.9l48.04 498.29 333.79 -152.07 121.76 -55.47z"/>
     <path class="fil3" d="M6528.46 7599.7c-18.3,-31.93 -39.47,-55.93 -63.51,-71.98 -20.88,-13.94 -43.92,-21.89 -69.13,-23.85l3.93 38.68 12.03 118.43 17.81 175.31 0.14 1.39 98.73 -237.98z"/>
     <path class="fil8" d="M6585.37 7631.82c36.74,-0.02 68.07,6.38 93.99,19.19 22.5,11.12 40.93,27.07 55.26,47.86l-35.36 15.76 -108.27 48.26 -160.26 71.43 -1.27 0.57 155.9 -203.06z"/>
     <path class="fil7 str7" d="M6970.28 7565.25c-2.52,-41.13 4.2,-66.03 12.24,-79.03 -5.51,-7.24 -13.29,-11.85 -22.28,-13.19 -7.46,13.33 -25.99,31.29 -63.24,49.03l73.28 43.19z"/>
     <path class="fil7 str7" d="M6862.48 7501.71c-2.52,-41.13 4.2,-66.03 12.24,-79.03 -5.46,-7.18 -13.15,-11.77 -22.04,-13.15 -7.43,13.34 -25.95,31.33 -63.29,49.11l73.08 43.07z"/>
     <path class="fil9 str7" d="M6754.89 7438.29c-2.52,-41.13 4.2,-66.03 12.24,-79.03 -5.51,-7.24 -13.29,-11.85 -22.28,-13.19 -7.46,13.33 -25.99,31.29 -63.24,49.03l73.28 43.19z"/>
     <path class="fil6 str7" d="M6982.52 7486.22c-8.18,13.24 -15.06,36.57 -12.16,79.04 0,0 12.81,7.56 34.38,20.27 63.95,-29.9 72.29,-59.64 65.73,-68.07 -6.21,-10.41 -17.09,-19.52 -32.65,-27.35 -14.38,-9.82 -27.63,-14.93 -39.74,-15.33 -4.19,-0.66 -10.17,2.72 -15.57,11.43z"/>
     <path class="fil6 str7" d="M6896.95 7521.99c38.6,-18.04 55.7,-35.39 63.3,-48.96 4.99,-8.92 5.04,-15.77 2.44,-19.11 -6.21,-10.41 -17.1,-19.52 -32.66,-27.35 -14.38,-9.82 -27.63,-14.93 -39.74,-15.33 -4.19,-0.66 -10.17,2.72 -15.57,11.43 -8.18,13.24 -15.06,36.57 -12.16,79.04 0,0 12.81,7.56 34.38,20.27z"/>
     <path class="fil6 str7" d="M6789.36 7458.56c38.68,-18.08 55.76,-35.45 63.33,-49.04 4.95,-8.88 4.99,-15.7 2.4,-19.03 -6.21,-10.41 -17.09,-19.52 -32.65,-27.35 -14.38,-9.82 -27.63,-14.93 -39.74,-15.33 -4.19,-0.66 -10.17,2.72 -15.56,11.43 -8.18,13.24 -15.06,36.58 -12.16,79.04 0,0 12.81,7.55 34.39,20.27z"/>
     <path class="fil7 str7" d="M6744.81 7346.06c-7.48,13.33 -26.01,31.27 -63.22,48.98l73.38 43.25c-2.52,-41.14 4.2,-66.03 12.24,-79.03 -5.53,-7.28 -13.36,-11.89 -22.4,-13.2z"/>
     <path class="fil7 str7" d="M6647.08 7374.7c-2.52,-41.14 4.2,-66.03 12.24,-79.04 -5.51,-7.24 -13.29,-11.85 -22.28,-13.19 -7.46,13.33 -25.99,31.29 -63.24,49.02l73.28 43.2z"/>
     <path class="fil7 str7" d="M6539.28 7311.17c-2.52,-41.14 4.2,-66.03 12.24,-79.03 -5.46,-7.18 -13.15,-11.77 -22.04,-13.15 -7.43,13.35 -25.95,31.33 -63.29,49.11l73.08 43.08z"/>
     <path class="fil7 str7" d="M6431.69 7247.74c-2.52,-41.14 4.2,-66.03 12.24,-79.04 -5.51,-7.24 -13.29,-11.85 -22.28,-13.19 -7.46,13.33 -25.99,31.29 -63.24,49.02l73.28 43.2z"/>
     <path class="fil6 str7" d="M6659.32 7295.67c-8.18,13.24 -15.06,36.57 -12.16,79.04 0,0 12.8,7.56 34.38,20.28 63.95,-29.9 72.29,-59.64 65.73,-68.07 -6.21,-10.41 -17.09,-19.52 -32.65,-27.35 -14.38,-9.82 -27.63,-14.93 -39.74,-15.33 -4.19,-0.66 -10.17,2.72 -15.57,11.43z"/>
     <path class="fil6 str7" d="M6573.75 7331.44c38.6,-18.04 55.69,-35.39 63.3,-48.96 4.99,-8.92 5.04,-15.77 2.44,-19.11 -6.21,-10.41 -17.09,-19.52 -32.65,-27.35 -14.38,-9.82 -27.63,-14.93 -39.74,-15.33 -4.19,-0.66 -10.17,2.72 -15.57,11.44 -8.18,13.23 -15.06,36.57 -12.16,79.04 0,0 12.81,7.56 34.38,20.28z"/>
     <path class="fil6 str7" d="M6466.16 7268.02c38.68,-18.08 55.76,-35.45 63.33,-49.04 4.95,-8.88 4.99,-15.7 2.4,-19.03 -6.21,-10.41 -17.09,-19.52 -32.65,-27.35 -14.38,-9.82 -27.63,-14.93 -39.74,-15.33 -4.19,-0.66 -10.17,2.72 -15.56,11.43 -8.18,13.24 -15.06,36.58 -12.16,79.04 0,0 12.81,7.55 34.39,20.26z"/>
     <path class="fil6 str7" d="M6336.19 7105.24c-8.18,13.24 -15.06,36.57 -12.16,79.04 0,0 12.81,7.56 34.38,20.27 63.95,-29.9 72.29,-59.64 65.74,-68.07 -6.21,-10.41 -17.1,-19.52 -32.66,-27.35 -14.38,-9.82 -27.63,-14.93 -39.74,-15.33 -4.19,-0.66 -10.17,2.72 -15.57,11.43z"/>
    </g>
   </g>
   <polygon class="fil1 str6" points="6429.6,7836.28 7042.75,7556.94 7115.45,7598.08 6975.91,7516 6975.91,7477.76 6478.87,7184.64 6440.63,7210.13 6364.94,7165.6 "/>
   <polygon class="fil7" points="5891.09,8400.72 6385.91,7911.95 6198.92,8580.43 "/>
   <g style="clip-path:url(#id1)">
    <g>
     <rect class="fil6" x="5856.82" y="8354.29" width="514.71" height="42.38"/>
     <polygon class="fil6" points="6214.04,8590.82 5976.42,8179.26 6004.58,8143.27 6246.92,8563.02 "/>
    </g>
   </g>
   <polygon class="fil1 str3" points="5891.09,8400.72 6385.91,7911.95 6198.92,8580.43 "/>
   <g>
    <g>
     <path class="fil1 str8" d="M6269.22 8242.87c-5.81,46.5 -22.02,62.05 -48.64,46.67"/>
     <path class="fil1 str8" d="M6220.58 8289.53c-26.63,-15.36 -21.26,-37.18 16.09,-65.45 8.49,-4.62 -0.11,-13.88 -25.79,-27.78"/>
     <path class="fil1 str8" d="M6148.5 8173.17c-37.36,28.28 -42.72,50.09 -16.09,65.45"/>
     <path class="fil1 str8" d="M6132.41 8238.63c26.62,15.38 42.83,-0.17 48.64,-46.66 -0.24,-9.67 12.07,-6.85 36.95,8.44"/>
     <path class="fil1 str8" d="M6181.05 8191.96c-5.81,46.49 -22.02,62.04 -48.64,46.66"/>
     <path class="fil1 str8" d="M6132.41 8238.63c-26.63,-15.36 -21.26,-37.18 16.09,-65.45 8.49,-4.62 -0.11,-13.88 -25.79,-27.78"/>
     <path class="fil1 str8" d="M6044.24 8187.72c26.62,15.38 42.83,-0.17 48.64,-46.67 -0.24,-9.67 12.07,-6.85 36.95,8.44"/>
     <path class="fil1 str8" d="M6308.75 8340.44c-26.63,-15.36 -21.26,-37.18 16.09,-65.46 8.49,-4.62 -0.11,-13.88 -25.79,-27.78"/>
     <path class="fil1 str8" d="M6236.67 8224.08c-37.36,28.28 -42.72,50.09 -16.09,65.45"/>
     <path class="fil1 str8" d="M6220.58 8289.53c26.62,15.38 42.83,-0.17 48.64,-46.67 -0.24,-9.67 12.07,-6.85 36.95,8.44"/>
    </g>
    <g>
     <polygon class="fil10 str8" points="6330.48,8265.25 6101.48,8133.04 6123.32,8111.55 6339.24,8236.21 "/>
     <path class="fil6 str9" d="M6324.84 8274.98c-36.86,27.9 -42.57,49.51 -17.15,64.83 0.11,0.07 0.22,0.13 0.33,0.2l18.86 -66.55c-0.24,0.26 -0.52,0.51 -0.83,0.75 -0.35,0.27 -0.75,0.53 -1.2,0.77z"/>
     <path class="fil6 str9" d="M6220.58 8289.53c26.61,15.38 42.83,-0.17 48.63,-46.67 -0.21,-8.4 9.06,-7.37 27.82,3.07l-76.93 -44.42c18.42,11.02 23.94,18.54 16.57,22.56 -37.36,28.28 -42.72,50.09 -16.09,65.45z"/>
     <path class="fil6 str9" d="M6132.41 8238.63c26.62,15.38 42.83,-0.17 48.64,-46.66 -0.21,-8.4 9.06,-7.37 27.81,3.07l-76.93 -44.42c18.43,11.02 23.95,18.54 16.57,22.56 -37.36,28.28 -42.72,50.09 -16.1,65.45z"/>
     <path class="fil6 str9" d="M6045.74 8188.56c25.46,13.8 41.11,-1.56 46.96,-46.09l-46.96 46.09z"/>
    </g>
   </g>
   <path class="fil1 str10" d="M6763.39 7684.21c-58.48,-181.62 -180.98,-252.34 -367.5,-212.18"/>
   <polygon class="fil6 str3" points="7280.63,8813.43 6886.16,8099.87 6817.62,8158.73 7198.94,8841.44 "/>
   <polygon class="fil6 str3" points="7290.16,9951.2 7280.63,8813.43 7198.06,8841.74 7204.67,9921.99 "/>
   <polygon class="fil6 str3" points="5973.04,7572.69 5070.76,7559.27 5085.99,7655.43 5955.39,7660.93 "/>
   <g id="niku">
    <path class="fil11" d="M5544.44 7114.84c0.52,10.98 6.43,24.87 17.73,41.68 18.81,18.02 33.38,30.13 43.72,36.31 62.17,37.43 107.86,67.17 137.06,89.24 18.91,16.2 58.41,25.22 118.47,27.06 49.59,0.34 84.5,-3.93 104.75,-12.82 10.14,-4.42 15.87,-10.74 17.19,-18.98 11.99,-31.22 11.85,-56.35 0.57,-80.05 -20.5,-30.28 -53.22,-53.07 -98.17,-68.37 -48.26,-16.25 -86.95,-33.26 -116.07,-51.02 -37.98,-27.1 -70.38,-42.58 -97.21,-46.44 -50.49,-6.13 -80.64,-6.59 -90.44,-1.41 -18.5,11.53 -30.02,25.67 -34.57,42.43 -3.62,17.46 -4.67,31.06 -3.03,42.39z"/>
    <path class="fil12" d="M5562.17 7156.52c18.81,18.02 33.38,30.13 43.72,36.31 62.17,37.43 107.86,67.17 137.06,89.24 18.91,16.2 58.41,25.22 118.47,27.06 49.59,0.34 84.5,-3.93 104.75,-12.82 24.85,-10.82 23.22,-33.11 -4.89,-66.85 -19.78,-22.02 -53.95,-40.4 -102.52,-55.15 -38.81,-12.02 -75.01,-31.46 -108.59,-58.35 -27.49,-18.22 -60.9,-29.57 -100.22,-34.04 -53.7,-6.7 -87.44,-1 -101.22,17.1 -8.72,12.02 -4.24,31.19 13.44,57.51z"/>
    <g style="clip-path:url(#id2)">
     <g>
      <g>
       <rect class="fil13" transform="matrix(-0.0350582 -0.0191535 0.0639133 -0.116986 5841.04 7464.4)" width="286.9" height="3373.8"/>
       <rect class="fil13" transform="matrix(-0.0350582 -0.0191535 0.0639133 -0.116986 5765.34 7446.01)" width="286.9" height="3373.8"/>
       <rect class="fil13" transform="matrix(-0.0350582 -0.0191535 0.0639133 -0.116986 5689.64 7427.63)" width="286.9" height="3373.8"/>
       <rect class="fil13" transform="matrix(-0.0350582 -0.0191535 0.0639133 -0.116986 5613.93 7409.25)" width="286.9" height="3373.8"/>
       <rect class="fil13" transform="matrix(-0.0350582 -0.0191535 0.0639133 -0.116986 5538.23 7390.86)" width="286.9" height="3373.8"/>
       <rect class="fil13" transform="matrix(-0.0350582 -0.0191535 0.0639133 -0.116986 5462.53 7372.48)" width="286.9" height="3373.8"/>
       <rect class="fil13" transform="matrix(-0.000941715 -0.039938 0.133269 -0.00314241 5607.06 7269.75)" width="286.9" height="3373.8"/>
       <rect class="fil13" transform="matrix(-0.000941715 -0.039938 0.133269 -0.00314241 5528.46 7202.01)" width="286.9" height="3373.8"/>
       <rect class="fil13" transform="matrix(-0.000941715 -0.039938 0.133269 -0.00314241 5449.86 7134.28)" width="286.9" height="3373.8"/>
      </g>
     </g>
    </g>
    <path class="fil1" d="M5562.17 7156.52c18.81,18.02 33.38,30.13 43.72,36.31 62.17,37.43 107.86,67.17 137.06,89.24 18.91,16.2 58.41,25.22 118.47,27.06 49.59,0.34 84.5,-3.93 104.75,-12.82 24.85,-10.82 23.22,-33.11 -4.89,-66.85 -19.78,-22.02 -53.95,-40.4 -102.52,-55.15 -38.81,-12.02 -75.01,-31.46 -108.59,-58.35 -27.49,-18.22 -60.9,-29.57 -100.22,-34.04 -53.7,-6.7 -87.44,-1 -101.22,17.1 -8.72,12.02 -4.24,31.19 13.44,57.51z"/>
   </g>
   <g id="sushi">
    <path class="fil14" d="M7683.76 8852.41c-13.55,-17.16 -20.32,-25.74 -20.32,-25.74 2,-53.56 25.96,-84.78 71.9,-93.65 2.45,39.21 -9.16,67.78 -34.81,85.7 45.57,-12.43 80.83,-3.73 105.78,26.11 -21.88,36.49 -62.73,39.02 -122.54,7.57z"/>
    <path class="fil15" d="M7612.14 9507c-23.1,5.69 -34.65,8.54 -34.65,8.54 -91.48,-109.66 -120.04,-212.32 -85.7,-307.98 26.37,-97.54 72.8,-178.33 139.26,-242.37 54.41,-48.41 94.13,-43.5 119.17,14.73 18.75,51.78 28.12,77.67 28.12,77.67 10.87,19.11 -10.55,40.54 -64.27,64.28 -94.59,51.22 -135.62,193.31 -85.86,288.73 35.85,54.96 30.5,87.1 -16.07,96.41z"/>
    <path class="fil16" d="M7500.26 9178.73c27.35,-84.74 70.93,-155.93 130.73,-213.55 0.02,-0.02 0.04,-0.04 0.06,-0.06 38.32,-34.1 55.87,-71.68 52.64,-112.72 -13.55,-17.16 -20.32,-25.74 -20.32,-25.74 -15.24,-7.86 -35.25,-6.27 -60,4.78 -59.07,25.57 -102.37,74.22 -129.89,145.95 -39.6,90.07 -30.68,157.18 26.78,201.33z"/>
    <g style="clip-path:url(#id3)">
     <g>
      <path id="1" class="fil7" d="M7504.45 9162.58c2.97,-4.67 8.61,-18.33 8.61,-23.51l3.68 0.37c-6.22,-17.6 -36.35,-51.21 -36.16,-55.08 1.86,-38.47 -10.58,-17.16 -8.68,-70.75 -30.85,6.24 -3.61,7.57 -17.71,40.19 -4.82,11.16 20.78,63.63 27.65,71.06 11.94,12.91 13.32,26.25 22.6,37.73z"/>
      <path class="fil7" d="M7563.69 8965.81c13.5,-16.07 2.83,-51.35 -4.87,-53.74 -16.9,-5.24 -9.55,-41.63 -10.97,-64.07l-18.8 30.37c13.05,55.88 15.87,32.98 -9.44,64.88 -6.7,8.44 3.74,26.15 11.07,26.3 28.44,0.59 7.91,11.11 24.96,38.16 6.59,10.46 3.74,23.02 29.09,16.02 3,-6.96 19.77,-4.6 18.8,-25.31 -13.81,-14.9 -59.71,-8.93 -39.83,-32.61z"/>
      <path class="fil7" d="M7503.6 8972.57c-4.46,-12.44 -4.76,18.46 -7.51,-26.58l-2.85 0 0 -3.93c-9.49,1.26 -10.87,18.96 -11.93,23.82 0,6.43 4.96,39.59 8.37,44.71 2.26,3.39 -6.3,15.77 6.98,24.65 7.5,5.02 -5.11,6.57 3.64,10.85 4.31,2.11 -2.9,13.72 5.47,16.82 5.28,1.95 -4.61,7.04 9.41,7.04 1.73,10.76 12.49,6.7 16.82,14.49 1.01,1.82 2.3,3.1 4.28,3.66 3.29,-3.81 10.24,-13.76 16.16,-20.79 0.37,-0.44 2.56,-4.31 4.33,-7.27l0 -6.59c-2.92,-2.51 -4.97,-5.37 -8.98,-0.41 -12.37,15.29 -10.45,-1.38 -23.8,-10.31 -15.31,-10.24 -11.74,-44.74 -17.25,-49.61 -9.67,-8.54 1.32,-8.17 -3.12,-20.54z"/>
      <path class="fil7" d="M7659.87 8907.11c-4.85,-1.29 -40,-89.4 -44.93,-101.79l-5.18 0 0 -3.85c-0.52,-0.06 -1.11,-0.12 -1.93,-0.12 -15.67,0 -12.86,8.65 -17.33,16.27 -6.13,37.1 -13.31,40.11 10.06,69.43 5.07,6.35 1.46,10.29 12.77,24.9 18.64,24.07 0.81,18.06 28.29,29.28 6.35,2.59 7.13,3.59 11.8,7.29 1.31,-2.33 11.46,-8.49 17,-13.35l0 -5.09 2.37 0c-0.86,-7.67 -5.22,-20.93 -12.92,-22.96z"/>
     </g>
    </g>
    <path class="fil1" d="M7500.26 9178.73c27.35,-84.74 70.93,-155.93 130.73,-213.55 0.02,-0.02 0.04,-0.04 0.06,-0.06 38.32,-34.1 55.87,-71.68 52.64,-112.72 -13.55,-17.16 -20.32,-25.74 -20.32,-25.74 -15.24,-7.86 -35.25,-6.27 -60,4.78 -59.07,25.57 -102.37,74.22 -129.89,145.95 -39.6,90.07 -30.68,157.18 26.78,201.33z"/>
    <path class="fil7" d="M7641.27 9433.18c18.02,13.62 28.18,11.44 30.46,-6.53 15.92,4.66 22.84,-5.39 20.76,-30.13 12.22,-12.12 20.48,-28.41 24.77,-48.87 14.88,-0.34 17.56,-8.59 8.04,-24.77 14.28,-11.61 17.85,-25.89 10.71,-42.85 21.52,0.65 26.66,-7.83 15.4,-25.44 24.19,0.39 29.1,-17.24 14.73,-52.89 22.96,-22.99 25.64,-37.94 8.03,-44.86 6.63,-20.44 0.6,-28.7 -18.07,-24.77 12.17,-18.4 5.31,-25.21 -20.59,-20.44 -6.46,3.36 -13.6,6.77 -21.43,10.23 -94.59,51.22 -135.62,193.31 -85.86,288.73 5.23,8.02 9.59,15.55 13.06,22.6z"/>
    <path class="fil7" d="M7683.85 8854.72c1.7,28.28 -6.54,54.9 -24.7,79.87l-11.63 14.28 11.63 -4.72c16.74,-9.93 31.77,-13.65 45.1,-11.18 12.57,-4.86 14.29,-14.09 5.14,-27.69 10.99,-15.42 8.31,-25.02 -8.04,-28.79 3.44,-6.39 -0.24,-13.3 -11.06,-20.73 -0.69,-0.34 -1.37,-0.68 -2.06,-1.03l-4.38 0z"/>
   </g>
   <g id="ramen">
    <path class="fil17" d="M7373.3 9678.5l-66.51 -393.51c-0.4,-2.37 1.35,-4.59 3.78,-4.94l7.87 -1.11c2.43,-0.34 4.71,1.31 5.07,3.69l58.65 394.62c0.35,2.37 -1.35,4.59 -3.78,4.94l0 0c-2.43,0.34 -4.67,-1.32 -5.07,-3.69z"/>
    <g>
     <path class="fil18" d="M7376.11 9652.08c41,63.96 53.3,82.23 116.85,89.78 85.14,10.11 102.15,-27.2 167.43,-20.25 11.66,1.24 47.19,3.06 42.17,32.25 -1.11,4.49 -4.61,6.87 -7.82,5.32 -3.15,-1.52 -4.85,-6.27 -3.86,-10.69 -4.35,-6.87 -28.42,-9.43 -31.29,-9.73 -62.51,-6.65 -82,30.49 -167.26,20.26 -67.7,-8.11 -82.12,-28.05 -125.69,-96.01 -2.16,-3.67 -1.79,-9.08 0.83,-12.1 2.62,-3.02 6.5,-2.5 8.65,1.17z"/>
     <path class="fil18" d="M7376.5 9628.84c-0.98,21.77 59.64,76.01 71.53,82.15 48.11,24.87 119.67,18.91 167.5,-4.72 30.81,-15.22 48.83,-25.24 82.39,0.62 1.81,1.39 2.33,2.53 3.5,4.47 2.2,3.61 1.89,9.04 -0.69,12.12 -2.58,3.08 -6.46,2.65 -8.67,-0.97l-0.33 -0.55c-37.56,-20.02 -35.42,-17.66 -71.46,0.18 -50.81,25.14 -124.98,31.42 -176.15,5.15 -17.81,-9.14 -81.86,-63.54 -79.7,-101.68 0.64,-4.66 3.86,-7.72 7.19,-6.83 3.34,0.89 5.52,5.39 4.89,10.06z"/>
     <path class="fil18" d="M7370.48 9581.53c39.43,88.92 90.42,129.54 167.52,123.02 47.52,-4.02 109.61,-62.23 154.62,-24.45 2.57,3.11 2.86,8.53 0.64,12.13 -2.22,3.59 -6.1,3.99 -8.67,0.89 -0.56,0.37 0.04,0 -1.63,-0.7 -58.7,-24.72 -83.76,24.21 -144.95,29.32 -81.94,6.85 -136.5,-37.76 -178.41,-132.21 -1.58,-4.2 -0.43,-9.4 2.58,-11.61 3.01,-2.21 6.72,-0.6 8.31,3.61z"/>
     <path class="fil18" d="M7374.76 9559.48c43.65,79 63.96,102.85 137.72,124.78 62.61,18.61 69.81,-69.85 180.39,-26.17 3.28,1.2 5.24,5.91 4.38,10.5 -0.87,4.59 -4.23,7.33 -7.51,6.13 -107.8,-42.58 -109.49,47.23 -180.2,26.24 -77.36,-22.97 -99.33,-49.43 -145.2,-132.33 -1.81,-4.02 -0.94,-9.33 1.94,-11.85 2.88,-2.52 6.67,-1.31 8.48,2.71z"/>
     <path class="fil18" d="M7370.99 9540.89c45.06,79.81 89.96,127.93 167.44,124.5 28.19,-1.25 72.84,-77.87 132.36,-42.35 5.47,3.26 10.02,4.01 16.13,5.83 3.35,0.8 5.6,5.23 5.04,9.91 -0.57,4.68 -3.74,7.83 -7.09,7.04 -7.72,-2.31 -12.17,-2.95 -19.01,-7.03 -53.89,-32.15 -92.61,42.28 -127.61,43.8 -81.63,3.55 -129.74,-47.61 -177.28,-131.72 -1.97,-3.87 -1.32,-9.24 1.45,-11.99 2.77,-2.75 6.61,-1.85 8.57,2.02z"/>
    </g>
    <path class="fil19" d="M7605.4 9472.3l0 436.59c131.88,-26.78 151.96,-136.02 150.62,-131.41 21.86,35.17 44.63,2.24 45.35,-86.89 -0.73,-89.12 -23.49,-122.06 -45.35,-86.89 1.57,5.43 -18.74,-104.63 -150.62,-131.41z"/>
    <path class="fil17" d="M7389.3 9698.2l-7.95 -398.73c-0.05,-2.4 2.01,-4.35 4.47,-4.35l7.95 0c2.46,0 4.47,1.96 4.47,4.35l0 398.73c0,2.39 -2.01,4.35 -4.47,4.35l0 0c-2.46,0 -4.42,-1.96 -4.47,-4.35z"/>
   </g>
   <g id="pizza">
    <ellipse class="fil20" transform="matrix(-0.0449308 0.0120392 -0.0111292 -0.0415349 5403.52 7267.11)" rx="5388.89" ry="3583.33"/>
    <ellipse class="fil21" transform="matrix(-0.0437497 0.0117227 -0.0101027 -0.0377036 5407.2 7280.83)" rx="5388.89" ry="3583.33"/>
    <path class="fil22" d="M5185.77 7296.8c-0.43,15.81 -3.05,38 5.75,56.66 8.09,17.13 26.84,31.21 43.48,36.06 32.39,19.33 62.86,26.54 91.41,21.65 31.29,7.31 62.72,6.46 94.3,-2.53 49.68,-8.46 86.42,-26.11 110.22,-52.94 49.39,-18.37 72.55,-35.94 69.48,-52.73 39.52,-38.62 42.33,-63.9 8.44,-75.83 -2.37,-41.58 -24.16,-63.83 -65.37,-66.76 -28.92,8.16 -61.01,7.39 -96.26,-2.3 -37.13,-10.27 -66.5,-5.07 -88.12,15.59 -54.48,9.64 -93.19,28.26 -116.13,55.86 -30.98,20.83 -56.07,28.31 -57.2,67.27z"/>
    <ellipse class="fil23" transform="matrix(-0.0449308 0.0120392 -0.0120392 -0.0449308 5543.27 7296.88)" rx="902.78" ry="500"/>
    <ellipse class="fil23" transform="matrix(-0.0449308 0.0120392 -0.0120392 -0.0449308 5508.38 7216.6)" rx="902.78" ry="500"/>
    <ellipse class="fil23" transform="matrix(-0.0449308 0.0120392 -0.0120392 -0.0449308 5355.08 7223.57)" rx="902.78" ry="500"/>
    <ellipse class="fil23" transform="matrix(-0.0449308 0.0120392 -0.0120392 -0.0449308 5397.44 7356.69)" rx="902.78" ry="500"/>
    <ellipse class="fil23" transform="matrix(-0.0449308 0.0120392 -0.0120392 -0.0449308 5266.87 7308.74)" rx="902.78" ry="500"/>
   </g>
   <path class="fil8 str11" d="M7056.7 7716.87c-13.35,2.6 -22.22,1.34 -31.01,-8.88 -9.71,-11.28 -9.56,-27.33 0.32,-35.84 17.9,-15.41 53.39,-10.38 88.88,-5.36 -0.24,26.89 -0.48,53.79 -8.15,72.05 19.2,-4.86 45.83,-1.09 72.45,2.68 -0.32,35.84 -0.63,71.68 -18.54,87.09 -9.88,8.51 -25.78,6.26 -35.48,-5.02 -8.8,-10.22 -8.72,-19.18 -4.16,-31.99 -13.35,2.6 -22.22,1.34 -31.01,-8.88 -6.06,-7.04 -8.28,-15.94 -6.69,-23.71 -7.91,0.41 -16.39,-3.11 -22.45,-10.15 -8.79,-10.22 -8.71,-19.18 -4.16,-31.99z"/>
   <g>
    <path class="fil24" d="M7256.87 7960.74c1.54,-1.05 0.8,-0.54 0,0zm-0.02 0.02c-17.72,12.02 -11.63,25.85 18.28,41.5 -37.38,4.41 -52.38,16.33 -45.02,35.76 11.11,9.27 25.32,11.11 42.65,5.5 26.06,46.04 40.56,49.93 43.5,11.67 78.11,7.81 81.27,-2 9.46,-29.43 68.44,-23.08 65.34,-32.94 -9.3,-29.57 -9.09,-15.7 -1.3,-26.31 23.37,-31.82 -12,-11.02 -27.88,-15.88 -47.63,-14.58 0.59,-0.04 1.18,-0.07 1.76,-0.1 23.83,-3.54 35.46,-12.78 34.89,-27.7 -2.26,-10.76 -11.42,-18.8 -27.48,-24.12 11.02,-2.02 16.6,-7.92 16.75,-17.68 0.09,-9.54 -4.53,-16.47 -13.85,-20.78 -24.07,-11.32 -39.11,-11.85 -45.13,-1.6 -6.93,9.22 -2.51,16.77 13.28,22.67 -12.9,-2.53 -21.46,-1.09 -25.69,4.32 -10.86,10.85 -1.5,20.75 28.07,29.7 -41.85,-9.34 -63.96,-3.64 -66.34,17.11 -3.57,16.72 12.37,26.57 47.85,29.54l0.57 -0.39z"/>
    <path class="fil24" d="M7324.13 7854.15c-4.06,10.49 8.49,24.97 37.64,43.44 -1.39,0.64 -2.8,1.35 -4.21,2.13 -15.37,12.53 -14,31.88 4.1,58.05 11.46,19.92 22.14,27.52 32.04,22.81 16.63,-8.07 15.13,-22.06 -4.49,-41.98 9.02,5.69 15.87,6.72 20.54,3.1 13.56,-8.08 13.5,-20.21 -0.16,-36.41 -10.82,-9.54 -22.29,-13.46 -34.4,-11.76 4.21,-5.63 2.81,-10.38 -4.19,-14.24 -5.09,-3.41 -9.11,-8.8 -12.06,-16.19 -3,-8.05 -0.09,-13.62 8.76,-16.72 7.11,-2.11 8.49,-8.33 4.15,-18.67 -11.93,-31.17 -28.73,-39.74 -50.39,-25.7 20.35,20.36 26.41,31.8 18.17,34.3 -7.52,2.31 -12.69,8.25 -15.51,17.83z"/>
   </g>
   <path class="fil25 str12" d="M7482.58 8432.46c27.57,6.78 48.69,18.56 63.48,35.06 14.68,16.65 23.45,37.49 26.19,62.54 4.15,37.88 -5.94,71.07 -30.23,99.82 -24.41,28.76 -59.06,45.65 -104.2,50.59 -45.26,4.95 -83.26,-4.24 -113.74,-27.61 -30.48,-23.36 -47.79,-53.93 -51.93,-91.81 -2.63,-24.09 1.36,-45.83 12,-65 10.63,-19.29 28.24,-35.18 52.96,-47.68 -32.97,-6.93 -58.88,-20.99 -78,-42.42 -19.11,-21.3 -30.48,-47.98 -34,-80.17 -4.86,-44.42 6.8,-83.42 34.83,-117.1 28.16,-33.7 67.77,-53.34 118.96,-58.94 51.2,-5.6 94.12,5.01 128.91,31.95 34.67,26.95 54.55,63.11 59.51,108.49 3.69,33.77 -1.8,63.03 -16.5,87.66 -14.69,24.76 -37.44,42.92 -68.25,54.62zm24.57 107.05c-2.7,-24.69 -12.77,-43.92 -30.09,-57.82 -17.44,-13.89 -38.88,-19.51 -64.41,-16.72 -24.81,2.72 -44.06,12.66 -57.97,29.86 -13.92,17.2 -19.58,37.05 -17.12,59.56 2.57,23.48 12.71,42.33 30.56,56.55 17.72,14.23 38.81,20 63.13,17.34 24.57,-2.69 43.92,-12.76 58.19,-30.13 14.15,-17.35 20.09,-36.86 17.71,-58.64zm-5.24 -242.67c-2,-18.28 -8.15,-35.36 -18.49,-51.5 -10.33,-16.02 -24.6,-27.81 -42.8,-35.24 -18.09,-7.45 -37,-10.16 -56.48,-8.03 -30.74,3.36 -54.84,15.92 -72.42,37.69 -17.59,21.76 -24.66,47.77 -21.35,78.02 3.37,30.74 16.31,55.05 38.72,72.93 22.53,17.87 49.29,25.1 80.15,21.73 30.26,-3.31 53.98,-15.95 71.42,-37.94 17.43,-21.99 24.52,-47.87 21.26,-77.65z"/>
   <g>
    <g>
     <path class="fil26" d="M6733.61 7904.88c-6.77,0.02 -12.59,1.31 -17.45,3.87 0.59,4.26 0.07,7.87 -1.56,10.83 -2.7,4.87 -8.99,10.51 -18.87,16.93 -9.94,0.85 -19.91,-4.37 -29.92,-15.66 -11.63,-11.7 -14.85,-22.07 -9.69,-31.13 9.86,-11.96 20.77,-17.13 32.73,-15.48 3.93,-7.29 5.88,-19.79 5.83,-37.49 2.25,-8.01 20.62,-26.16 55.13,-54.45 4.73,-0.31 12.83,-3.61 24.29,-9.9 -1.25,-8.08 0.85,-17.22 6.31,-27.4 0,0 19.35,-17.11 58.05,-51.33 18.02,-15.04 39.47,-9.65 64.36,16.16 19.1,20.54 23.9,38.42 14.41,53.65 -10.61,12.51 -24.94,28.04 -42.99,46.57 -20.53,19.06 -36.89,26.86 -49.1,23.42 -4.3,6.32 -7.77,14 -10.41,23.04 -26.93,27 -45.57,42.93 -55.92,47.78 -6.45,-0.03 -14.85,0.17 -25.2,0.61z"/>
     <path class="fil7" d="M6716.16 7908.76c-5.07,-13.19 -14.18,-24.69 -27.31,-34.52 -11.96,-1.65 -22.87,3.51 -32.73,15.48 -5.17,9.06 -1.94,19.44 9.69,31.13 10.01,11.3 19.98,16.52 29.92,15.66 9.89,-6.42 16.18,-12.06 18.87,-16.93 1.63,-2.96 2.15,-6.57 1.56,-10.83z"/>
     <path class="fil7" d="M6694.68 7836.75c32.77,9.09 54.15,31.6 64.13,67.52 6.94,-3.25 17.62,-11.49 32.03,-24.72l8.91 -8.35 15.47 -14.52c-0.08,-0.34 -0.16,-0.69 -0.24,-1.02 -8.44,-35.69 -30.17,-60.14 -65.17,-73.36 -34.5,28.3 -52.88,46.44 -55.13,54.45z"/>
     <g>
      <path class="fil27" d="M6734.56 7842.26c1.11,6.72 4.45,11.12 10.04,13.2 9.15,3.31 21.77,1.52 37.87,-5.37 9.65,-3.86 14.02,-6.14 12.51,-15.51 -1.3,-7.97 -11.19,-16.7 -29.09,-17.53 -10.22,-1.02 -18,1.59 -23.33,7.81 -5.87,7.28 -8.53,13.07 -7.99,17.38z"/>
     </g>
    </g>
    <g>
     <path class="fil28" d="M6809.55 7985.83c-6.77,0.02 -12.59,1.31 -17.45,3.87 0.59,4.26 0.07,7.87 -1.56,10.83 -2.69,4.87 -8.98,10.51 -18.87,16.93 -9.94,0.85 -19.91,-4.37 -29.92,-15.66 -11.63,-11.7 -14.85,-22.07 -9.69,-31.13 9.86,-11.96 20.77,-17.13 32.73,-15.48 3.93,-7.29 5.88,-19.79 5.83,-37.49 2.25,-8.01 20.63,-26.16 55.13,-54.45 4.73,-0.31 12.83,-3.61 24.29,-9.9 -1.25,-8.08 0.85,-17.22 6.31,-27.4 0,0 19.35,-17.11 58.05,-51.33 18.02,-15.04 39.47,-9.65 64.36,16.16 19.1,20.54 23.9,38.42 14.41,53.65 -10.61,12.52 -24.94,28.04 -42.99,46.58 -20.53,19.05 -36.9,26.86 -49.1,23.42 -4.3,6.32 -7.77,14 -10.41,23.04 -26.93,27 -45.57,42.93 -55.92,47.78 -6.45,-0.03 -14.85,0.17 -25.2,0.61z"/>
     <path class="fil7" d="M6792.1 7989.7c-5.07,-13.19 -14.18,-24.69 -27.31,-34.52 -11.96,-1.65 -22.87,3.51 -32.73,15.48 -5.17,9.06 -1.94,19.44 9.69,31.13 10.01,11.3 19.98,16.52 29.92,15.66 9.89,-6.42 16.18,-12.06 18.87,-16.93 1.63,-2.96 2.15,-6.57 1.56,-10.83z"/>
     <path class="fil7" d="M6770.62 7917.7c32.77,9.09 54.15,31.6 64.13,67.52 6.94,-3.25 17.62,-11.49 32.03,-24.72l8.91 -8.35 15.48 -14.52c-0.08,-0.34 -0.16,-0.69 -0.24,-1.02 -8.44,-35.69 -30.17,-60.14 -65.17,-73.36 -34.5,28.3 -52.88,46.44 -55.13,54.45z"/>
     <g>
      <path class="fil7" d="M6838.81 7928.48c1.75,-2.15 1.06,-2.95 -2.08,-2.4 -1.82,0.66 -2.43,1.79 -1.84,3.4 0.99,1.61 2.3,1.27 3.92,-1z"/>
      <path class="fil7" d="M6837.16 7909.92c0.31,-1.18 -0.22,-1.91 -1.57,-2.21 -1.9,-0.78 -3.13,-0.02 -3.7,2.3 0.73,1.2 1.78,1.67 3.15,1.4 1.45,0.01 2.16,-0.48 2.12,-1.49z"/>
      <path class="fil7" d="M6848.84 7917.9c1.14,-0.75 1.63,-1.71 1.48,-2.89 -0.15,-0.57 -1.23,-0.83 -3.26,-0.8 -2.47,0.2 -3.28,1.24 -2.44,3.12 1.22,1.4 2.62,1.59 4.22,0.57z"/>
      <path class="fil7" d="M6861.3 7920.12c0.03,-1.21 -0.46,-1.91 -1.49,-2.13 -3,-0.55 -4.55,0.18 -4.65,2.19 0.96,1.32 2.16,1.87 3.58,1.67 1.23,-0.04 2.09,-0.62 2.56,-1.73z"/>
     </g>
     <g>
      <path class="fil29" d="M6858.04 7902.99c-7.06,-10.69 -17.08,-15.12 -30.06,-13.3 -18.05,1.89 -21.49,14.97 -10.32,39.23 9.93,19.17 24.45,22.66 43.58,10.46 8.8,-9.28 7.74,-21.41 -3.19,-36.39z"/>
     </g>
    </g>
    <g>
     <path class="fil30" d="M6885.44 8066.72c-6.77,0.02 -12.59,1.32 -17.45,3.88 0.59,4.26 0.07,7.87 -1.55,10.83 -2.7,4.87 -8.99,10.51 -18.88,16.93 -9.94,0.86 -19.91,-4.37 -29.92,-15.66 -11.63,-11.7 -14.85,-22.07 -9.69,-31.13 9.87,-11.96 20.78,-17.13 32.73,-15.48 3.93,-7.29 5.87,-19.79 5.83,-37.49 2.25,-8 20.62,-26.16 55.13,-54.45 4.73,-0.31 12.83,-3.61 24.29,-9.9 -1.25,-8.08 0.85,-17.21 6.31,-27.4 0,0 19.35,-17.11 58.05,-51.34 18.02,-15.04 39.47,-9.65 64.36,16.16 19.1,20.54 23.91,38.42 14.41,53.65 -10.61,12.51 -24.94,28.04 -42.99,46.57 -20.53,19.06 -36.89,26.86 -49.1,23.42 -4.31,6.32 -7.78,14 -10.41,23.04 -26.93,27 -45.57,42.93 -55.92,47.78 -6.45,-0.03 -14.85,0.17 -25.2,0.61z"/>
     <path class="fil7" d="M6867.98 8070.6c-5.07,-13.19 -14.17,-24.7 -27.3,-34.52 -11.96,-1.65 -22.87,3.51 -32.73,15.48 -5.17,9.06 -1.94,19.44 9.69,31.13 10.01,11.3 19.98,16.52 29.92,15.66 9.89,-6.42 16.18,-12.06 18.88,-16.93 1.63,-2.96 2.15,-6.57 1.55,-10.83z"/>
     <path class="fil7" d="M6846.51 7998.59c32.77,9.09 54.15,31.6 64.13,67.52 6.94,-3.25 17.62,-11.49 32.03,-24.72l8.91 -8.35 15.48 -14.52c-0.08,-0.34 -0.16,-0.69 -0.24,-1.02 -8.44,-35.69 -30.17,-60.14 -65.17,-73.36 -34.5,28.3 -52.88,46.45 -55.13,54.45z"/>
     <g>
      <path class="fil31" d="M6890.5 7979.68c-15.58,-0.31 -17.82,4.66 -6.72,14.89 8.81,30.78 26.3,38.45 52.45,23.03 14.98,1.04 18.89,-3.41 11.71,-13.33 -1.79,-12.56 -8.08,-21.89 -18.85,-28 -15.75,-8.98 -28.61,-7.84 -38.59,3.41z"/>
     </g>
    </g>
   </g>
   <g>
    <g>
     <path class="fil32" d="M6951.58 8154.81c-6.75,-0.48 -12.65,0.37 -17.69,2.55 0.27,4.3 -0.52,7.85 -2.37,10.68 -3.06,4.65 -9.75,9.8 -20.1,15.46 -9.98,0.1 -19.53,-5.86 -28.66,-17.88 -10.71,-12.54 -13.15,-23.14 -7.31,-31.78 10.74,-11.19 22.01,-15.51 33.81,-12.96 4.47,-6.98 7.35,-19.29 8.64,-36.95 2.84,-7.81 22.54,-24.53 59.09,-50.15 4.74,0.04 13.06,-2.64 24.97,-8.05 -0.64,-8.15 2.15,-17.1 8.36,-26.85 0,0 20.59,-15.61 61.77,-46.82 19.1,-13.64 40.09,-6.65 62.97,20.96 17.5,21.93 20.94,40.12 10.32,54.59 -11.53,11.68 -26.99,26.08 -46.39,43.21 -21.91,17.45 -38.82,24 -50.74,19.65 -4.77,5.98 -8.81,13.37 -12.11,22.19 -28.9,24.9 -48.69,39.38 -59.37,43.43 -6.43,-0.52 -14.83,-0.95 -25.19,-1.3z"/>
     <path class="fil7" d="M6933.89 8157.36c-4.07,-13.54 -12.28,-25.7 -24.63,-36.48 -11.8,-2.55 -23.07,1.78 -33.81,12.96 -5.84,8.65 -3.4,19.24 7.31,31.78 9.13,12.02 18.69,17.98 28.66,17.88 10.35,-5.66 17.04,-10.81 20.1,-15.46 1.85,-2.83 2.64,-6.39 2.37,-10.68z"/>
     <path class="fil7" d="M6917.9 8083.92c32,11.54 51.62,35.6 58.87,72.19 7.17,-2.72 18.44,-10.13 33.8,-22.24l9.51 -7.66 16.53 -13.31c-0.06,-0.35 -0.11,-0.69 -0.16,-1.04 -5.73,-36.23 -25.55,-62.26 -59.46,-78.08 -36.55,25.62 -56.24,42.33 -59.09,50.15z"/>
     <path class="fil32" d="M6964.34 8070.86c-8.22,-1.69 -9.84,0.93 -4.86,7.86 -7.5,20.06 1.06,30.82 25.68,32.29 14.12,9.59 21.5,8.14 22.16,-4.35 10.31,-7.41 9.76,-18.59 -1.67,-33.53 -12.83,-11.82 -26.6,-12.57 -41.31,-2.27z"/>
    </g>
    <g>
     <path class="fil33" d="M7020.75 8240.69c-6.75,-0.48 -12.65,0.36 -17.7,2.55 0.27,4.29 -0.52,7.85 -2.37,10.68 -3.06,4.65 -9.76,9.8 -20.1,15.46 -9.98,0.1 -19.53,-5.85 -28.66,-17.87 -10.71,-12.55 -13.15,-23.14 -7.31,-31.78 10.74,-11.19 22.01,-15.51 33.81,-12.97 4.47,-6.97 7.35,-19.29 8.64,-36.95 2.85,-7.81 22.54,-24.53 59.09,-50.15 4.74,0.04 13.06,-2.64 24.97,-8.04 -0.64,-8.15 2.15,-17.1 8.36,-26.85 0,0 20.59,-15.61 61.77,-46.82 19.1,-13.64 40.09,-6.65 62.97,20.97 17.5,21.93 20.94,40.12 10.32,54.59 -11.52,11.69 -26.99,26.09 -46.39,43.21 -21.91,17.45 -38.82,24 -50.74,19.65 -4.77,5.98 -8.81,13.38 -12.11,22.19 -28.9,24.91 -48.69,39.38 -59.38,43.43 -6.43,-0.52 -14.82,-0.95 -25.18,-1.3z"/>
     <path class="fil7" d="M7003.06 8243.24c-4.07,-13.54 -12.28,-25.7 -24.63,-36.49 -11.8,-2.54 -23.07,1.78 -33.81,12.97 -5.84,8.65 -3.4,19.24 7.31,31.78 9.13,12.02 18.69,17.98 28.66,17.87 10.34,-5.65 17.04,-10.81 20.1,-15.46 1.85,-2.83 2.64,-6.39 2.37,-10.68z"/>
     <path class="fil7" d="M6987.07 8169.8c32,11.54 51.62,35.6 58.87,72.18 7.17,-2.72 18.44,-10.13 33.81,-22.24l9.51 -7.66 16.53 -13.31c-0.05,-0.35 -0.1,-0.69 -0.16,-1.04 -5.73,-36.23 -25.56,-62.26 -59.46,-78.08 -36.55,25.62 -56.24,42.33 -59.09,50.15z"/>
     <g>
      <path class="fil34" d="M7087.71 8191.94c6.26,-17.61 -1.83,-26.46 -24.29,-26.52 6.83,-28.22 0.1,-35.96 -20.18,-23.24 -6.62,4.52 -7.99,12.2 -4.11,23.06 -14.61,9.81 -15.59,18.89 -2.94,27.23 9.82,17.26 18.38,17.44 25.67,0.54 11.2,7.12 19.81,6.77 25.84,-1.07z"/>
     </g>
    </g>
   </g>
   <g>
    <path class="fil35" d="M6237.67 7487.98c-0.11,0 0.45,0.25 -0.32,0.01 -39.69,-12.23 -118.24,-43.7 -144.52,-118.35 -29.49,-83.76 -16.56,-164.64 28.87,-180.63 45.44,-16 116.59,35.97 135.67,122.7 15.61,70.9 -13.1,158.95 -19.7,176.28z"/>
    <path class="fil7" d="M6273.28 7596.66c-0.17,11.22 -2.08,17.47 -9.41,20.05 -8.09,2.85 -17.78,-3.74 -21.64,-14.69 -4.5,-12.8 -2.92,-27.74 0.82,-43.43l-25.73 -73.09c-1.02,-2.89 -1.55,-5.8 -1.63,-8.57 -0.24,-8.04 3.26,-14.96 9.4,-17.12 4.49,-1.58 9.46,-0.3 13.71,3.01 3.57,2.78 6.62,6.99 8.43,12.14l25.73 73.09c12.76,9.89 23.35,20.54 27.85,33.34 3.85,10.96 0.43,22.16 -7.66,25.01 -7.32,2.58 -12.73,-1.09 -19.89,-9.73z"/>
   </g>
   <g>
    <g>
     <path class="fil6 str5" d="M6402.9 7838.14l0.3 0.02 15.89 -299.35 -61.32 -3.26 -12.51 235.57c-15.61,-19.39 -25.72,-41.71 -29.7,-60.06 -6.5,-16.91 -52.62,-21.52 -81.47,-12.6l-0.13 0.05 0.65 -0.2c-0.54,0.17 -1.05,0.35 -1.53,0.54 -0.44,0.19 -0.85,0.37 -1.23,0.56l-0.02 0.01c-3.23,1.66 -5.04,4.18 -5.43,7.55 -0.09,2.43 0.25,4.96 1.01,7.57 0.56,1.72 1.32,3.57 2.29,5.54l-0.82 -1.54 0.14 0.3c33.72,63.41 82.2,114.95 145.46,154.62 -0.35,0.43 -0.71,0.87 -1.07,1.32 11.57,16.31 31.02,27.54 50.93,29.41 0.21,-0.55 0.41,-1.09 0.61,-1.62 65.55,34.72 133.96,50.96 205.22,48.72 12.97,-0.85 18.45,-5.84 16.44,-14.98 -7,-29.65 -34.61,-67.86 -52.08,-64.23 -19.99,7.72 -36.24,7.12 -67.22,4.55l198.09 -128.84 -33.48 -51.48 -251.3 163.44 0.23 0.35c-13.49,-5.48 -26.26,-12.87 -37.73,-21.83 0,0 -0.01,0.01 -0.03,0.04 -0.06,-0.06 -0.12,-0.12 -0.19,-0.19zm37.95 21.98l0.04 0.06 0.14 0.22 -0.04 0.09 -0.04 0.11 0 0 -0.05 0.13 -0.06 0.14 0 0 -0.06 0.16 -0.07 0.18 -0.07 0.2 -0.08 0.22 -0.09 0.23 -0.09 0.25 0 0 -0.1 0.27 -0.11 0.29 0 0 -0.12 0.3 0 0 -0.12 0.33 -0.13 0.34 -0.14 0.36 -0.15 0.38 0 0 -0.15 0.39 0 0 -0.16 0.42 -0.17 0.43 0 0 -0.17 0.45 0 0 -0.18 0.47 -0.19 0.49 -0.19 0.5 -0.2 0.52 0 0 -0.2 0.54 -0 0 -0.21 0.56 0 0 -0.22 0.58 0 0 -0.22 0.59 -0.24 0.61 0 0 -0.24 0.63 0 0 -0.25 0.65 0 0 -0.25 0.67 -0.26 0.69 0 0 -0.27 0.7 0 0 -0.28 0.72 -0.28 0.74 0 0 -0.29 0.76 0 0 -0.3 0.78 0 0 -0.3 0.8 0 0 -0.31 0.81 0 0 -0.31 0.83 0 0 -0.33 0.85 0 0 -0.33 0.87 0 0 -0.33 0.89 0 0 -0.35 0.91 -0.35 0.92 -0.36 0.94 -0.37 0.96 -0.37 0.98 0 0 -0.38 0.99 -0.39 1.02 0 0 -0.39 1.03 -0.4 1.05 -0 0 -0.41 1.06 0 0 -0.41 1.08 0 0 -0.42 1.1 -0.43 1.12 -0.43 1.14 -0.44 1.16 -0.45 1.18 -0.45 1.19 -0.46 1.21 -0.47 1.23 16.08 -42.19 -0.18 -0.28z"/>
     <path class="fil17 str5" d="M6594.48 7872.09c-0.56,0.17 -1.11,0.32 -1.67,0.48l-0.09 0.03 0 -0.01c-49.59,13.91 -112.37,-2.47 -151.91,-12.72 102.56,43.98 156,52.17 162.96,24.18 0.7,-9.42 -0.73,-12.81 -9.26,-11.97l-0.05 0.01z"/>
     <path class="fil17 str5" d="M6315.56 7711.06c0.13,0.56 0.28,1.13 0.42,1.69l0.02 0.09 0 -0c12.75,49.9 58.33,96.08 86.97,125.19 -89.37,-66.82 -123.18,-109.02 -102.42,-129.04 7.8,-5.31 11.46,-5.77 15,2.03l0.02 0.04z"/>
    </g>
    <path class="fil1 str5" d="M6373.41 7874.8c20.23,-24.22 29.79,-36.64 29.79,-36.64"/>
   </g>
   <g>
    <path class="fil36" d="M6946.35 9230.52c5.59,-13.7 11.47,-27.28 17.8,-40.49 6.8,-14.2 17.15,-34.83 28.97,-45.42 12.76,-11.42 29.04,-22.41 46.81,-22.41 8.06,0 15.87,2.6 23.02,6.15 9.63,4.78 19.04,11.35 19.04,23.54 0,12.48 -10.41,21.87 -19.22,29.26l-0.26 0.22 -0.27 0.21c-13.57,10.59 -26.11,23.14 -37.68,35.84 -8.28,9.09 -15.81,19.43 -22.78,29.54 -10.37,15.06 -20.04,30.69 -29.35,46.41l-2.13 3.59 80 0c14.13,0 27.62,3.59 39.14,11.96 13.16,9.57 21.96,26.43 28.09,41.13l10.38 24.88 -26.88 1.96c-14.05,1.02 -27.09,41.68 -30.06,51.86l-4.07 13.98 -33.64 0c23.31,31.16 43.59,64.54 59.44,100.17l9.35 21.02 -44.03 11.24 -7.59 -11.68c-28.24,-43.46 -62.61,-81.53 -103.99,-112.16 0.33,13.09 1.93,26.19 5.39,38.83l2.97 10.88 -23.63 23.62c8.28,16.25 15.75,32.91 22.5,49.84l8.26 20.7 -45.04 11.14 -6.87 -14.13c-18.99,-39.06 -42.65,-78.62 -72.74,-110.2 -0.02,-0.02 -0.05,-0.05 -0.07,-0.07 -5,5.58 -12.09,9.61 -19.07,12.59 -8.97,4.16 -17.33,10.06 -24.96,16.72 15.66,15.02 30.22,31.2 43.03,48.71l12.06 16.48 -36.4 23.92 -11.18 -11.14c-26.78,-26.69 -57.87,-49.02 -90.61,-67.8 -32.28,-18.52 -66.74,-34.38 -102.63,-44.48l-24.52 -6.9 57.1 -94.76 13 29.19 0 -30.65 -26.57 -26.57 18.63 -18.57c-6.56,1.1 -13.15,2.05 -19.76,2.86l-21.78 2.66 0 -48.31 15.83 -2.98c8.01,-1.5 19.64,-3.66 29.44,-6.58l0 -80.86 -31.78 -28.95 80.5 -75.92 4.37 38.57c1.13,9.92 7.25,19.03 13.72,26.31 7.69,8.64 16.83,16.96 25.35,24.77 11.23,10.28 22.67,20.35 34.19,30.33 13.72,-12.56 26.09,-26.61 36.06,-42.33 14.09,-22.2 24.08,-48.31 31.67,-73.39l4.18 -13.79 38.85 0 1.16 18.18c0.69,10.77 3.41,21.94 13.23,27.83l16.71 10 -2.22 3.67 31.54 -29.81 0 119.59zm77.01 199.38l1.52 -9.61c2.46,-15.57 4.86,-31.22 6.74,-46.87 0.35,-2.89 0.91,-6.93 1.29,-10.87l-46.62 0 9.56 34.76c9.5,10.57 18.7,21.43 27.52,32.59zm-57.44 -67.35l-19.57 0 0 20.75 19.57 -20.75zm-70.77 102.09l0 -240.94 -21.32 -21.33c-1.77,2.27 -3.56,4.51 -5.38,6.73l0 146.39c0,14.87 1.53,29.82 5.45,44.19l2.97 10.87 -14.16 14.16c11.59,12.65 22.46,25.94 32.43,39.92zm-96.96 -192.28c-21.82,14.24 -45.18,25.79 -69.97,34.58 -8.1,2.87 -16.26,5.55 -24.48,8.01l4.3 6.49c36.27,15.76 76.81,35.76 109.19,60.56l0 -90.52 -19.05 -19.13zm-78.83 127.72c-5.01,-2.3 -10.07,-4.51 -15.14,-6.6l0 26.15c2.4,-4.39 4.96,-8.38 7.68,-11.69 2.29,-2.79 4.78,-5.46 7.46,-7.85zm41.43 54.49c-6.7,4.02 -12.81,8.94 -18.37,14.43 2.7,1.94 5.38,3.92 8.03,5.93 3.07,-7.19 6.55,-14.35 10.35,-20.36zm-28.54 -211.96l-32.24 -21.52 0 37.8c10.99,-4.82 21.93,-10.22 32.24,-16.28z"/>
    <path class="fil37" d="M6684.8 9454.2l20.53 14.39c8.25,-24.74 15.44,-40.8 21.58,-48.34 6.23,-7.55 12.02,-11.32 17.55,-11.32 5.44,0 11.31,1.76 17.46,5.18 6.14,3.42 9.21,5.79 9.21,7.19 0,4.04 -5.44,8.86 -16.41,14.39 -15.09,8.16 -28.78,20.53 -41.15,37.02 20.53,13.69 35.62,25.35 45.27,34.92 9.56,-27.46 17.46,-43.87 23.6,-49.39 6.23,-5.44 12.02,-8.16 17.46,-8.16 5.53,0 10.97,1.67 16.49,5.09 5.44,3.42 8.25,6.58 8.25,9.3 0,4.12 -4.82,8.24 -14.39,12.28 -15.09,6.93 -30.18,18.51 -45.27,35.01 21.93,19.21 40.44,39.04 55.54,59.65l-6.14 4.04c-26.06,-25.96 -57.64,-49.65 -94.66,-70.89 -37.02,-21.23 -72.73,-36.67 -107.03,-46.32l24.74 -41.06 8.24 18.51 26.76 14.39 0 -84.31 -18.51 -18.51 28.86 -28.78 12.28 18.51c57.55,24.65 99.75,49.3 126.51,73.96 26.67,24.74 48.95,50.8 66.76,78.17 17.81,27.46 33.6,58.26 47.29,92.56l-8.16 2.02c-23.34,-47.99 -48.69,-86.33 -76.15,-115.1 -27.37,-28.78 -56.5,-51.41 -87.38,-67.91 -30.8,-16.41 -57.2,-28.07 -79.13,-34.92l0 88.43zm-61.85 -152.21c21.93,-4.12 37.02,-8.24 45.27,-12.28l0 -102.82 -22.63 -20.62 37.02 -34.92c1.4,12.37 7.54,24.65 18.51,37.02 10.96,12.28 35.7,34.92 74.04,67.82 21.93,-17.81 39.39,-37.02 52.46,-57.56 12.98,-20.53 24.3,-46.58 33.86,-78.17l6.23 0c1.32,20.61 8.86,35 22.64,43.25 -24.74,41.06 -50.8,72.64 -78.17,94.57 -27.46,21.93 -57.55,38.69 -90.45,50.36 -32.9,11.67 -65.8,19.56 -98.78,23.6l0 -10.26zm143.97 -59.57l-86.33 -57.64 0 102.82c37.02,-13.69 65.8,-28.78 86.33,-45.18zm69.74 180.9l0 -139.85 -22.55 -22.63 34.92 -32.9 0 127.56c0,17.81 2.02,34.22 6.14,49.31l-18.51 18.51zm213.63 -106.94c10.96,0 20.18,2.81 27.72,8.24 7.55,5.53 14.74,16.5 21.58,32.9 -19.21,1.4 -34.92,23.33 -47.29,65.8l-8.24 0c6.93,-43.87 9.65,-68.17 8.24,-72.99 -1.4,-4.83 -6.14,-7.2 -14.39,-7.2l-110.98 0 0 102.82c0,17.81 2.02,34.21 6.14,49.3l-18.51 18.51 0 -298.11 -24.65 -24.65 37.02 -35 0 160.37 123.35 0zm-113.09 104.93l34.92 -37.02 6.23 22.64c42.46,46.58 74.66,94.57 96.59,143.88l-8.25 2.11c-35.62,-54.83 -78.78,-98.7 -129.49,-131.6zm10.26 -139.84c26.06,-69.92 45.62,-110.72 58.61,-122.39 12.98,-11.58 24.3,-17.46 33.86,-17.46 4.13,0 8.95,1.4 14.39,4.12 5.53,2.72 8.24,4.83 8.24,6.14 0,2.81 -4.12,7.54 -12.28,14.39 -12.37,9.65 -25.7,22.28 -40.09,38.07 -14.39,15.8 -32.55,42.11 -54.48,79.13l-8.25 -2.02z"/>
   </g>
   <path class="fil1 str13" d="M6763.39 7684.21c-58.48,-181.62 -180.98,-252.34 -367.5,-212.18"/>
   <polygon class="fil6 str3" points="6275.21,8624.75 6386.5,7909.83 6198.92,8580.43 "/>
   <polygon class="fil6 str3" points="5816.15,8357.14 6385.91,7911.95 5891.09,8400.72 "/>
   <path class="fil1 str0" d="M6529.84 9606.12c-76.46,89.21 -254.89,63.72 -267.63,-89.21l0 -356.85c12.74,-152.94 191.17,-191.17 267.63,-89.21l-254.89 -446.06c38.23,114.7 -89.21,254.89 -216.66,165.68l-318.62 -178.43c-101.96,-63.72 -50.98,-242.15 76.47,-254.89l-535.28 -12.74 -89.21 -573.51c-89.21,63.72 -191.17,50.98 -216.66,-50.98l-38.23 -242.15c-12.74,-101.96 63.72,-165.68 178.43,-127.45l-63.72 -407.83 0 -203.91 535.28 -382.34 293.13 12.74 0 446.06 216.66 140.19 548.02 -904.87 25.49 25.49 254.89 -178.43 968.59 573.51 -38.24 293.13 38.24 25.49 -535.28 904.87 229.4 127.44 395.09 -216.66 140.19 254.89 -76.47 649.98 -178.43 101.96 12.75 1452.89 -318.62 178.43 -892.12 -305.87 -140.19 -331.36z"/>
  </g>
  <g id="arm">
   <polygon class="fil7" points="501.65,3100 501.65,914.3 1164.37,914.3 1164.37,3100 "/>
   <polygon class="fil7" points="501.65,3100 501.65,5285.7 1164.37,5285.7 1164.37,3100 "/>
   <polygon class="fil4" points="495.61,3100 495.61,3343.68 401.9,4240.93 495.61,4240.93 1158.33,4240.93 1264.11,4240.93 1158.33,3293.54 1158.33,3100 1158.33,2906.45 1264.11,1959.07 1158.33,1959.07 495.61,1959.07 401.9,1959.07 495.61,2856.31 "/>
   <polygon class="fil6" points="407.94,4240.93 1270.15,4240.93 1249.74,4058.13 427.03,4058.13 "/>
   <path class="fil1 str14" d="M590.86 4903.36l497.04 0m-497.04 -1516.61l497.04 0"/>
   <polygon class="fil6" points="501.65,4903.36 1164.37,4903.36 1164.37,4654.22 501.65,4654.22 "/>
   <line class="fil1 str3" x1="407.94" y1="4240.93" x2="1270.15" y2= "4240.93" />
   <polygon class="fil7" points="590.86,4334.13 1087.9,4334.13 1164.37,4334.13 1280.56,4334.13 1270.15,4240.93 1177.11,4240.93 1164.37,4240.93 501.65,4240.93 407.94,4240.93 398.2,4334.13 501.65,4334.13 "/>
   <polygon class="fil6" points="407.94,1959.07 1270.15,1959.07 1249.74,2141.87 427.03,2141.87 "/>
   <path class="fil1 str14" d="M590.86 1296.63l497.04 0m-497.04 1516.61l497.04 0"/>
   <polygon class="fil6" points="501.65,1296.63 1164.37,1296.63 1164.37,1545.77 501.65,1545.77 "/>
   <line class="fil1 str3" x1="407.94" y1="1959.07" x2="1270.15" y2= "1959.07" />
   <polygon class="fil7" points="590.86,1865.86 1087.9,1865.86 1164.37,1865.86 1280.56,1865.86 1270.15,1959.07 1177.11,1959.07 1164.37,1959.07 501.65,1959.07 407.94,1959.07 398.2,1865.86 501.65,1865.86 "/>
   <polygon class="fil17" points="564.14,3642.61 1114.62,3642.61 1087.9,3386.75 590.86,3386.75 "/>
   <path class="fil38" d="M676.69 3591.51l-36.49 0c-5.28,0 -9.03,-1.5 -11.28,-4.54 -2.25,-3.04 -3.39,-7.91 -3.39,-14.52l0 -115.54c0,-6.76 1.17,-11.63 3.48,-14.59 2.3,-2.97 6.03,-4.47 11.2,-4.47l38.69 0c5.7,0 10.65,0.47 14.81,1.36 4.2,0.93 7.94,2.65 11.25,5.26 2.83,2.15 5.31,4.9 7.5,8.23 2.17,3.33 3.81,6.97 4.95,10.98 1.14,4.04 1.72,8.26 1.72,12.73 0,15.38 -5.98,26.65 -17.93,33.77 15.7,6.44 23.54,18.92 23.54,37.52 0,8.59 -1.72,16.35 -5.14,23.22 -3.42,6.9 -8.03,11.98 -13.84,15.24 -3.64,1.97 -7.81,3.36 -12.54,4.15 -4.72,0.82 -10.25,1.22 -16.54,1.22zm-1.81 -68.25l-25.18 0 0 44.85 25.98 0c16.37,0 24.54,-7.58 24.54,-22.75 0,-7.76 -2.11,-13.38 -6.37,-16.88 -4.22,-3.47 -10.56,-5.22 -18.98,-5.22zm-25.18 -62.02l0 39.7 22.18 0c6.03,0 10.67,-0.75 13.95,-2.22 3.31,-1.47 5.81,-4.26 7.56,-8.37 1.36,-2.93 2.03,-6.22 2.03,-9.84 0,-7.76 -2.14,-12.91 -6.45,-15.45 -4.28,-2.54 -10.84,-3.83 -19.62,-3.83l-19.65 0zm165.94 112.85l-5.7 -19.28 -48.52 0 -5.7 19.67c-2.22,7.69 -4.11,12.88 -5.7,15.56 -1.56,2.68 -4.14,4.04 -7.73,4.04 -3.03,0 -5.72,-1.43 -8.06,-4.29 -2.33,-2.86 -3.5,-6.12 -3.5,-9.73 0,-2.11 0.28,-4.3 0.8,-6.51 0.56,-2.25 1.45,-5.33 2.7,-9.33l30.52 -99.72c0.89,-2.86 1.92,-6.3 3.14,-10.3 1.22,-4.04 2.53,-7.37 3.92,-10.01 1.39,-2.65 3.2,-4.8 5.45,-6.44 2.25,-1.65 5.03,-2.47 8.33,-2.47 3.39,0 6.2,0.82 8.45,2.47 2.25,1.65 4.06,3.76 5.45,6.33 1.39,2.57 2.56,5.37 3.5,8.33 0.94,2.97 2.17,6.94 3.61,11.87l31.19 99.12c2.44,7.55 3.67,13.02 3.67,16.45 0,3.54 -1.14,6.83 -3.45,9.8 -2.31,2.97 -5.11,4.43 -8.36,4.43 -1.89,0 -3.53,-0.43 -4.89,-1.32 -1.33,-0.86 -2.47,-2.04 -3.42,-3.54 -0.92,-1.5 -1.89,-3.83 -2.95,-6.91 -1.08,-3.11 -1.97,-5.87 -2.75,-8.23zm-47.86 -42.67l35.65 0 -17.98 -63.31 -17.67 63.31zm182.09 14.02c0,9.26 -1.86,17.6 -5.59,25 -3.7,7.4 -9.15,13.2 -16.31,17.38 -7.17,4.19 -15.67,6.26 -25.48,6.26 -11.78,0 -21.51,-2.86 -29.15,-8.55 -5.42,-4.11 -9.81,-9.62 -13.2,-16.49 -3.39,-6.87 -5.09,-13.56 -5.09,-20.06 0,-3.76 1.03,-6.98 3.06,-9.7 2.03,-2.68 4.61,-4 7.76,-4 2.55,0 4.69,1.04 6.44,3.15 1.78,2.07 3.28,5.19 4.53,9.34 1.5,4.86 3.17,8.98 4.92,12.23 1.78,3.29 4.25,6.01 7.45,8.15 3.22,2.11 7.42,3.19 12.65,3.19 7.14,0 12.98,-2.15 17.45,-6.44 4.47,-4.3 6.72,-9.66 6.72,-16.1 0,-5.11 -1.19,-9.26 -3.61,-12.41 -2.41,-3.19 -5.56,-5.62 -9.39,-7.3 -3.8,-1.68 -8.94,-3.47 -15.34,-5.37 -8.56,-2.57 -15.76,-5.61 -21.51,-9.05 -5.78,-3.47 -10.37,-8.19 -13.76,-14.17 -3.39,-5.97 -5.09,-13.38 -5.09,-22.28 0,-8.44 1.78,-15.95 5.37,-22.54 3.58,-6.55 8.78,-11.59 15.56,-15.13 6.78,-3.54 14.76,-5.3 23.93,-5.3 7.31,0 13.65,1.18 19.01,3.51 5.33,2.36 9.78,5.47 13.31,9.33 3.5,3.86 6.09,7.94 7.73,12.2 1.61,4.26 2.44,8.44 2.44,12.48 0,3.69 -1.03,7.05 -3.06,10.02 -2.03,2.97 -4.58,4.43 -7.61,4.43 -2.78,0 -4.86,-0.89 -6.31,-2.65 -1.44,-1.79 -3,-4.72 -4.67,-8.76 -2.2,-5.8 -4.78,-10.34 -7.84,-13.59 -3.03,-3.26 -7.92,-4.87 -14.67,-4.87 -6.22,0 -11.28,1.75 -15.09,5.3 -3.83,3.54 -5.75,7.76 -5.75,12.73 0,3.07 0.64,5.72 1.94,7.98 1.31,2.22 3.11,4.15 5.39,5.76 2.28,1.61 4.59,2.86 6.92,3.79 2.33,0.89 6.2,2.22 11.56,3.97 6.73,2.04 12.84,4.26 18.29,6.72 5.45,2.43 10.09,5.4 13.93,8.91 3.83,3.47 6.81,7.9 8.95,13.23 2.14,5.37 3.22,11.91 3.22,19.67zm111.22 0c0,9.26 -1.86,17.6 -5.59,25 -3.7,7.4 -9.14,13.2 -16.31,17.38 -7.17,4.19 -15.67,6.26 -25.48,6.26 -11.78,0 -21.51,-2.86 -29.15,-8.55 -5.42,-4.11 -9.81,-9.62 -13.2,-16.49 -3.39,-6.87 -5.09,-13.56 -5.09,-20.06 0,-3.76 1.03,-6.98 3.06,-9.7 2.03,-2.68 4.61,-4 7.76,-4 2.55,0 4.69,1.04 6.44,3.15 1.78,2.07 3.28,5.19 4.53,9.34 1.5,4.86 3.17,8.98 4.92,12.23 1.78,3.29 4.25,6.01 7.45,8.15 3.22,2.11 7.42,3.19 12.65,3.19 7.14,0 12.98,-2.15 17.45,-6.44 4.47,-4.3 6.72,-9.66 6.72,-16.1 0,-5.11 -1.19,-9.26 -3.61,-12.41 -2.42,-3.19 -5.56,-5.62 -9.4,-7.3 -3.8,-1.68 -8.94,-3.47 -15.34,-5.37 -8.56,-2.57 -15.76,-5.61 -21.51,-9.05 -5.78,-3.47 -10.37,-8.19 -13.76,-14.17 -3.39,-5.97 -5.09,-13.38 -5.09,-22.28 0,-8.44 1.78,-15.95 5.37,-22.54 3.58,-6.55 8.78,-11.59 15.56,-15.13 6.78,-3.54 14.76,-5.3 23.93,-5.3 7.31,0 13.65,1.18 19.01,3.51 5.34,2.36 9.78,5.47 13.31,9.33 3.5,3.86 6.09,7.94 7.73,12.2 1.61,4.26 2.44,8.44 2.44,12.48 0,3.69 -1.03,7.05 -3.06,10.02 -2.03,2.97 -4.58,4.43 -7.61,4.43 -2.78,0 -4.87,-0.89 -6.31,-2.65 -1.44,-1.79 -3,-4.72 -4.67,-8.76 -2.2,-5.8 -4.78,-10.34 -7.84,-13.59 -3.03,-3.26 -7.92,-4.87 -14.67,-4.87 -6.22,0 -11.28,1.75 -15.09,5.3 -3.83,3.54 -5.75,7.76 -5.75,12.73 0,3.07 0.64,5.72 1.94,7.98 1.31,2.22 3.11,4.15 5.39,5.76 2.28,1.61 4.59,2.86 6.92,3.79 2.33,0.89 6.2,2.22 11.56,3.97 6.72,2.04 12.84,4.26 18.28,6.72 5.45,2.43 10.09,5.4 13.93,8.91 3.84,3.47 6.81,7.9 8.95,13.23 2.14,5.37 3.22,11.91 3.22,19.67z"/>
   <g>
   </g>
   <g style="clip-path:url(#id4)">
    <g id="_1834399207168">
     <g>
      <circle class="fil39" cx="839.38" cy="2456.41" r="65.7"/>
      <g>
       <path class="fil39" d="M841.06 2037.56c-71.63,-6.77 -71.48,71.69 0.47,235.4 66.53,-154.42 66.37,-232.89 -0.47,-235.4z"/>
      </g>
      <g>
       <path class="fil39" d="M544.39 2159.05c-55.44,45.87 0.15,101.24 166.78,166.12 -62.15,-156.24 -117.74,-211.61 -166.78,-166.12z"/>
      </g>
      <g>
       <path class="fil39" d="M420.53 2454.73c-6.77,71.63 71.69,71.48 235.4,-0.47 -154.42,-66.53 -232.89,-66.37 -235.4,0.47z"/>
      </g>
      <g>
       <path class="fil39" d="M542.02 2751.4c45.87,55.44 101.24,-0.15 166.12,-166.78 -156.24,62.15 -211.61,117.74 -166.12,166.78z"/>
      </g>
      <g>
       <path class="fil39" d="M837.7 2875.26c71.63,6.77 71.48,-71.69 -0.47,-235.4 -66.53,154.42 -66.37,232.89 0.47,235.4z"/>
      </g>
      <g>
       <path class="fil39" d="M1134.37 2753.77c55.44,-45.87 -0.15,-101.24 -166.78,-166.12 62.15,156.24 117.74,211.61 166.78,166.12z"/>
      </g>
      <g>
       <path class="fil39" d="M1258.24 2458.09c6.77,-71.63 -71.69,-71.48 -235.4,0.47 154.42,66.53 232.89,66.37 235.4,-0.47z"/>
      </g>
      <g>
       <path class="fil39" d="M1136.74 2161.42c-45.87,-55.44 -101.24,0.15 -166.12,166.78 156.24,-62.15 211.61,-117.74 166.12,-166.78z"/>
      </g>
     </g>
    </g>
   </g>
   <path class="fil1" d="M427.03 2141.87c548.48,0 822.71,0 822.71,0 0,0 -27,223.79 -81,671.38 0,0 -225.87,0 -677.63,0 0,0 -21.36,-223.79 -64.09,-671.38z"/>
   <polygon class="fil1 str14" points="590.86,5234.72 743.79,5030.8 833,5234.72 934.96,5030.8 1087.9,5234.72 1087.9,4242.24 1177.11,4240.93 1087.9,3386.75 1087.9,3100 1087.9,2813.24 1177.11,1959.07 1087.9,1957.76 1087.9,965.28 934.96,1169.19 833,965.28 743.79,1169.19 590.86,965.28 590.86,1958.54 501.65,1959.07 590.86,2813.24 590.86,3100 590.86,3386.75 501.65,4240.93 590.86,4241.46 "/>
   <path class="fil8 str15" d="M807.74 1395.57l0 48.51 0 12.53c0,7.71 4.79,14.36 11.54,17.11 2.14,0.87 4.48,1.35 6.92,1.35l13.6 0c2.44,0 4.78,-0.48 6.92,-1.35 6.75,-2.75 11.54,-9.4 11.54,-17.11l0 -12.53 0 -48.51 0 -7.14c0,-6.63 -3.54,-12.47 -8.82,-15.73 -2.81,-1.73 -6.11,-2.74 -9.64,-2.74l-13.6 0c-3.53,0 -6.83,1 -9.64,2.74 -5.28,3.26 -8.82,9.1 -8.82,15.73l0 7.14z"/>
   <path class="fil40 str15" d="M858.27 1395.57l0 48.51c71.14,28.52 67.55,-27.63 0,-48.51z"/>
   <path class="fil40 str15" d="M807.74 1444.08l0 -48.51c-67.55,20.88 -71.14,77.03 0,48.51z"/>
   <path class="fil8 str15" d="M858.27 1395.57c67.55,20.88 71.14,77.03 0,48.51l0 12.53c0,7.02 -3.96,13.15 -9.77,16.28 139.38,150.31 132.61,-125.72 75.35,-139.53 -11.89,-5.4 -32.89,4.44 -63.01,29.51 -3.66,3.05 -7.46,6.33 -11.39,9.83 5.28,3.26 8.82,9.1 8.82,15.73l0 7.14z"/>
   <path class="fil8 str15" d="M807.74 1395.57c-67.55,20.88 -71.14,77.03 0,48.51l0 12.53c0,7.02 3.96,13.15 9.77,16.27 -139.38,150.31 -132.61,-125.72 -75.35,-139.52 11.89,-5.4 32.89,4.43 63.01,29.51 3.66,3.05 7.46,6.33 11.39,9.83 -5.28,3.26 -8.82,9.1 -8.82,15.73l0 7.14z"/>
   <path class="fil3 str16" d="M807.74 4751.84l0 48.51 0 12.53c0,7.71 4.79,14.36 11.54,17.11 2.14,0.87 4.48,1.35 6.92,1.35l13.6 0c2.44,0 4.78,-0.48 6.92,-1.35 6.75,-2.75 11.54,-9.4 11.54,-17.11l0 -12.53 0 -48.51 0 -7.14c0,-6.63 -3.54,-12.47 -8.82,-15.73 -2.81,-1.73 -6.11,-2.74 -9.64,-2.74l-13.6 0c-3.53,0 -6.83,1 -9.64,2.74 -5.28,3.26 -8.82,9.1 -8.82,15.73l0 7.14z"/>
   <path class="fil41 str16" d="M858.27 4751.84l0 48.51c71.14,28.52 67.55,-27.63 0,-48.51z"/>
   <path class="fil41 str16" d="M807.74 4800.35l0 -48.51c-67.55,20.88 -71.14,77.03 0,48.51z"/>
   <path class="fil3 str16" d="M858.27 4751.84c67.55,20.88 71.14,77.03 0,48.51l0 12.53c0,7.02 -3.96,13.15 -9.77,16.28 139.38,150.31 132.61,-125.72 75.35,-139.53 -11.89,-5.4 -32.89,4.44 -63.01,29.51 -3.66,3.05 -7.46,6.33 -11.39,9.83 5.28,3.26 8.82,9.1 8.82,15.73l0 7.14z"/>
   <path class="fil3 str16" d="M807.74 4751.84c-67.55,20.88 -71.14,77.03 0,48.51l0 12.53c0,7.02 3.96,13.15 9.77,16.27 -139.38,150.31 -132.61,-125.72 -75.35,-139.52 11.89,-5.4 32.89,4.43 63.01,29.51 3.66,3.05 7.46,6.33 11.39,9.83 -5.28,3.26 -8.82,9.1 -8.82,15.73l0 7.14z"/>
  </g>
  <g id="jug">
   <g id="_1834399196224">
    <path class="fil42" d="M6993.07 10609.33l0.16 442.8c-165.72,172.91 -312.65,179.54 -440.77,19.88 -66.05,15.86 -111.56,-45.62 -133.04,-133.96 -5.46,-24.87 -9.35,-48.82 -11.67,-71.82 -5.13,-56.19 -2.19,-116.92 9.48,-172.89l0.8 -3.78c0.75,-3.48 1.54,-6.93 2.36,-10.37l0.95 -3.91c0.93,-3.78 1.91,-7.53 2.93,-11.25l0.59 -2.15c1.17,-4.19 2.38,-8.34 3.66,-12.44l0.25 -0.81c1.38,-4.41 2.81,-8.76 4.31,-13.06l0.11 -0.31c3.09,-8.8 6.44,-17.35 10.06,-25.63l0.2 -0.45c1.75,-4 3.57,-7.92 5.45,-11.78l0.33 -0.67c1.86,-3.8 3.78,-7.53 5.76,-11.19l0.38 -0.7c40.14,-73.47 105.23,-116.11 198.19,-86.25 189.67,-83.27 302.84,-46.35 339.51,110.74z"/>
    <path class="fil43" d="M6606.38 10596.41c-8.55,-59.07 -18.5,-89.78 -60.16,-68.56 -183.02,107.42 -103.8,626.54 5.39,468.25 42.77,-93.4 92.04,-172.37 54.77,-399.69z"/>
    <path class="fil44" d="M6608.17 10609.33c20.79,127.96 17.43,276.31 -56.56,375.05 -26.19,-17.92 -1.48,3 -18.2,-30.92 -16.55,-33.57 -2.53,-161.62 7.52,-182.84 12.87,-27.18 44.05,-187.87 67.25,-161.3z"/>
    <path class="fil45" d="M6590.96 10754.43c14.59,-7.6 20.32,-21.13 17.22,-40.58l-169.26 -93.86c-6,15 -11.25,31.04 -15.75,48.13 105.22,52.37 167.8,86.31 167.8,86.31z"/>
    <path class="fil45" d="M6568.82 10883.55c0,-25.42 0,-38.12 0,-38.12l-163.26 -9.45c0.63,15.15 2,30.73 4.09,46.75l159.16 0.83z"/>
   </g>
   <path class="fil1 str0" d="M6993.07 10609.32c66.05,-47.42 150.95,-15.81 150.95,110.63l0 237.07c-9.44,110.63 -75.47,142.25 -150.95,94.83l0 -442.53z"/>
  </g>
  <g id="head">
   <g id="_1834758659760">
    <path class="fil46" d="M4618.15 6254.28l0 -1236.22c12.74,-1554.84 -12.75,-1758.76 -522.53,-1898.95l-1695.04 0c-446.06,127.44 -522.53,191.17 -522.53,1898.95l0 1236.22 2740.09 0z"/>
    <path class="fil24" d="M2833.91 4431.81c0,0 0,0 0,0 0,191.17 -76.47,344.1 -165.68,344.1 0,0 0,0 0,0 -89.21,0 -178.43,-152.93 -178.43,-344.1 0,0 0,0 0,0 0,-191.17 89.21,-344.11 178.43,-344.11 0,0 0,0 0,0 89.21,0 165.68,152.94 165.68,344.11zm1172.5 0c0,0 0,0 0,0 0,191.17 -76.47,344.1 -165.68,344.1 0,0 0,0 0,0 -101.96,0 -178.42,-152.93 -178.42,-344.1 0,0 0,0 0,0 0,-191.17 76.46,-344.11 178.42,-344.11 0,0 0,0 0,0 89.21,0 165.68,152.94 165.68,344.11z"/>
    <path class="fil47" d="M2489.8 4763.17c0,50.98 -76.46,101.96 -152.93,101.96 0,0 0,0 0,0 0,0 0,0 0,0 -89.21,0 -152.94,-50.98 -152.94,-101.96 0,-50.98 63.72,-89.21 152.94,-89.21 0,0 0,0 0,0 0,0 0,0 0,0 76.47,0 152.93,38.24 152.93,89.21zm1809.73 0c0,50.98 -63.72,101.96 -152.93,101.96 0,0 0,0 0,0 0,0 0,0 0,0 -63.72,0 -127.44,-50.98 -127.44,-101.96 0,-50.98 63.72,-89.21 127.44,-89.21 0,0 0,0 0,0 0,0 0,0 0,0 89.21,0 152.93,38.24 152.93,89.21z"/>
    <path class="fil0" d="M1878.06 6254.28l599 0 12.74 -25.49 356.85 0 12.74 25.49 790.17 0 12.75 -25.49 356.85 0 12.74 25.49 586.25 0 0 3045.96 1287.2 0 0 1975.42 -1287.2 0c-38.24,407.83 -458.81,407.83 -700.95,76.47l89.21 -38.24 -203.91 -165.68c331.36,-25.49 318.61,-140.19 331.36,-790.17 -662.72,-114.7 -1108.78,-76.47 -1758.76,0 0,802.91 25.49,764.67 318.61,790.17 -63.72,63.72 -127.44,140.19 -191.17,178.43l89.21 25.49c-242.15,331.36 -675.46,318.61 -713.7,-76.47l-1299.95 0 0 -1975.42 1287.21 0 12.74 -3045.96z"/>
    <path class="fil1 str0" d="M4541.69 8076.76l-2587.15 0m2077.37 -1822.48l509.78 0m-1682.29 0l790.17 0m-1695.03 0l522.53 0m2064.63 -1236.22l-2587.15 0m2587.15 662.72l0 -344.11m-3874.36 4728.25l0 -688.21m548.02 1822.48l-548.02 0 0 -688.21m1210.74 688.21l-280.38 0m356.85 -1822.48l0 1822.48m2587.15 0l0 -1822.48m344.1 1822.48l-267.63 0m1210.74 -688.21l0 688.21 -560.76 0m101.96 -1822.48l458.81 0 0 675.46m-5161.57 -675.46l458.81 0m369.59 0l458.81 0 2587.15 0 446.06 0m-3033.21 -815.65l0 356.85m2587.15 -356.85l0 356.85m-1618.56 -5722.33l152.93 0 -152.93 0zm509.78 0l140.19 0 -140.19 0zm-1478.37 2141.09l0 344.11 0 -344.11zm0 1618.56l0 433.32 0 -433.32zm2587.15 0l0 433.32 0 -433.32z"/>
    <path class="fil1 str0" d="M3777.01 10230.6c25.49,-89.21 25.49,-203.91 0,-356.85 89.21,101.96 140.19,242.15 152.93,369.59l267.63 50.98c-12.74,624.48 0,892.12 -216.65,917.61 76.47,63.72 140.19,76.47 203.91,63.72 -38.23,63.72 -76.46,89.21 -140.19,114.7 114.7,140.19 497.04,242.15 497.04,-191.17l76.47 0 305.87 280.38 904.87 0 0 -280.38 280.38 -178.43 0 -1452.89 -280.38 -191.17 0 -280.38 -981.33 0 -305.87 280.38 0 -458.8c89.21,38.23 191.17,12.74 191.17,-76.47l0 -191.17c0,-101.96 -101.96,-127.45 -191.17,-89.21l0 -1172.5c76.47,38.23 178.43,25.49 191.17,-89.21l0 -254.89c0,-114.7 -101.96,-127.44 -191.17,-89.21l0 -1274.46c76.47,38.23 178.43,38.23 191.17,-76.47l0 -191.17c0,-89.21 -89.21,-127.44 -191.17,-76.47l0 -318.61 -12.74 -1172.5c0,-305.87 -165.68,-649.98 -446.06,-649.98l-509.78 0 0 -649.98 -89.21 0 0 76.47 -458.81 0 0 -76.47 -101.96 0 0 649.98 -497.04 0c-293.13,0 -458.81,344.1 -458.81,649.98l-12.74 1172.5 0 318.61c-101.96,-50.98 -191.17,-12.74 -203.91,76.47l0 191.17c25.49,114.7 114.7,114.7 203.91,76.47l0 1274.46c-89.21,-38.23 -191.17,-25.49 -203.91,89.21l0 254.89c25.49,114.7 127.44,127.44 203.91,89.21l0 1172.5c-89.21,-38.24 -203.91,-12.74 -203.91,89.21l0 191.17c12.74,89.21 101.96,114.7 203.91,76.47l0 458.8 -305.87 -280.38 -981.34 0 0 280.38 -280.38 191.17 0 1452.89 280.38 178.43 0 280.38 904.87 0 305.87 -280.38 76.47 0c0,433.32 382.34,331.36 497.04,191.17 -50.98,-25.49 -101.96,-50.98 -140.19,-114.7 63.72,12.74 140.19,0 203.91,-63.72 -216.66,-25.49 -216.66,-293.13 -216.66,-917.61l267.64 -50.98c25.49,-127.44 76.47,-267.63 165.68,-369.59 -25.49,152.94 -38.24,267.64 0,356.85 356.85,-38.23 713.7,-38.23 1045.06,0l0 0z"/>
    <path class="fil1 str1" d="M680.07 10052.18l-12.75 0 -25.49 12.74 0 433.32 25.49 12.74 12.75 12.74m5136.07 -471.55l12.74 0 25.49 12.74 0 433.32 -25.49 12.74 -12.74 12.74m-930.36 662.72l0 12.74 12.74 25.49 356.85 0 12.74 -25.49 12.74 -12.74m-3670.44 0l-12.74 12.74 -12.74 25.49 -344.11 0 -25.49 -25.49 0 -12.74m293.13 -1784.24l0 -25.49 -12.74 -25.49 -356.85 0 -12.74 25.49 -12.74 25.49m3874.36 0l0 -25.49 12.75 -25.49 356.85 0 12.74 25.49 0 25.49m-2294.03 -6206.63l89.21 89.21 178.43 0 89.21 -89.21m203.91 3084.19l12.74 -25.49 12.75 -25.49 356.85 0 12.74 25.49 0 25.49m-1567.59 0l12.74 -25.49 12.74 -25.49 356.85 0 12.74 25.49 0 25.49m764.68 -637.23c0,0 0,0 0,0 0,203.91 -165.68,356.85 -369.59,356.85 0,0 0,0 0,0 -203.91,0 -369.59,-152.93 -369.59,-356.85 0,0 0,0 0,0 0,0 0,0 0,0 0,-203.91 165.68,-369.59 369.59,-369.59 0,0 0,0 0,0 203.91,0 369.59,165.68 369.59,369.59 0,0 0,0 0,0z"/>
    <polyline class="fil1 str1" points="2753.26,7210.34 2740.51,7210.34 2715.02,7222.95 2715.02,7575.97 2740.51,7588.57 2753.26,7601.18 "/>
    <polyline class="fil1 str1" points="3749.7,7210.34 3762.44,7210.34 3787.94,7222.95 3787.94,7575.97 3762.44,7588.57 3749.7,7601.18 "/>
    <polyline class="fil1 str1" points="3446.89,6897.17 3446.89,6884.43 3434.29,6858.94 3081.27,6858.94 3068.66,6884.43 3056.06,6897.17 "/>
    <polyline class="fil1 str1" points="3446.89,7893.62 3446.89,7906.36 3434.29,7931.85 3081.27,7931.85 3068.66,7906.36 3056.06,7893.62 "/>
    <path class="fil4" d="M2126.29 10479.66c107.81,-374.6 297.43,-874.12 527.81,-1102.95 -358.78,230.46 -534.71,598.12 -527.81,1102.95z"/>
    <path class="fil3" d="M4385.59 10479.66c-107.81,-374.6 -297.43,-874.12 -527.81,-1102.95 358.78,230.46 534.71,598.12 527.81,1102.95z"/>
    <path class="fil2" d="M2349.87 11471.67c-120.13,-173.83 -264.59,-424.87 -281.49,-600.08 -26.49,229.63 67.34,429.66 281.49,600.08z"/>
    <path class="fil4" d="M4136.7 11456.32c120.13,-173.83 264.59,-424.87 281.49,-600.08 26.49,229.63 -67.34,429.66 -281.49,600.08z"/>
    <path class="fil4" d="M994.03 10064.92c107.81,374.6 297.43,874.12 527.81,1102.95 -358.78,-230.46 -534.71,-598.12 -527.81,-1102.95z"/>
    <path class="fil2" d="M1775.6 9432.7c-128.06,107.85 -290.81,269.67 -340.24,400.08 27.6,-181.07 141.02,-314.43 340.24,-400.08z"/>
    <path class="fil3" d="M5442.07 10042.12c-107.81,374.6 -297.43,874.12 -527.81,1102.95 358.78,-230.46 534.71,-598.12 527.81,-1102.95z"/>
    <path class="fil4" d="M4954.83 9437.54c102.46,132.42 227.46,324.89 248.3,462.8 11.17,-182.81 -71.59,-337.08 -248.3,-462.8z"/>
    <path class="fil4" d="M3755.35 8455.5c102.46,132.42 227.46,324.89 248.3,462.8 11.17,-182.81 -71.59,-337.08 -248.3,-462.8z"/>
    <path class="fil3" d="M2810.21 8455.5c-102.46,132.42 -227.46,324.89 -248.3,462.8 -11.17,-182.81 71.59,-337.08 248.3,-462.8z"/>
    <path class="fil2" d="M4416.25 6401.92c-107.81,374.6 -297.43,874.12 -527.81,1102.95 358.78,-230.46 534.71,-598.12 527.81,-1102.95z"/>
    <path class="fil3" d="M2020.99 7152.56c149.35,213.22 377.46,487.61 572.61,582.17 -276.6,-67.75 -467.47,-261.8 -572.61,-582.17z"/>
    <path class="fil4" d="M2862.09 6276.31c-102.46,132.42 -227.46,324.89 -248.3,462.8 -11.17,-182.81 71.59,-337.08 248.3,-462.8z"/>
    <path class="fil8" d="M2801.07 4636.1c-87.45,-37.41 -186.43,-37.32 -273.82,0.26 34.27,84.86 87.63,139.56 140.98,139.56 53.41,0 102.24,-54.81 132.85,-139.81z"/>
    <path class="fil7" d="M2668.23 4087.7c14.57,109.22 22,212.11 22.32,324.27 48.7,1.13 96.42,13.41 143.15,21.23 -47.18,6.16 -94.91,19.26 -143.19,20.21 -0.69,109.29 -8.11,210.43 -22.28,322.5 -17.59,-113.06 -26.9,-214.18 -27.93,-322.45 -49.59,-0.87 -99.76,-13.98 -150.49,-20.26 51.11,-7.78 101.25,-20.06 150.41,-21.22 0.21,-113.34 9.54,-216.23 28.02,-324.28z"/>
    <path class="fil8" d="M3975.14 4631.68c-93.58,-32.15 -186.93,-31.44 -280.02,2.13 31.75,86.31 84.03,142.1 145.61,142.1 54.33,0 103.93,-56.71 134.41,-144.23z"/>
    <path class="fil7" d="M3840.73 4087.7c14.57,109.22 22,212.11 22.32,324.27 48.7,1.13 96.42,13.41 143.15,21.23 -47.18,6.16 -94.91,19.26 -143.19,20.21 -0.69,109.29 -8.11,210.43 -22.28,322.5 -17.59,-113.06 -26.9,-214.18 -27.93,-322.45 -49.59,-0.87 -99.76,-13.98 -150.49,-20.26 51.11,-7.78 101.25,-20.06 150.41,-21.22 0.21,-113.34 9.54,-216.23 28.02,-324.28z"/>
    <path class="fil48" d="M3031.47 4695.22c0,127.85 95.89,207.76 223.74,207.76 111.87,0 207.76,-79.91 207.76,-207.76 0,-47.94 -431.5,-47.94 -431.5,0z"/>
    <path class="fil26 str17" d="M4618.15 8747.72l-2752.83 0 0 286.46 2752.83 0 0 -286.46zm-2932.35 552.52l0 1142.17 -280.38 1.69 0 -1143.85 280.38 0zm3124.62 0l0 1131.75 280.38 4.19 0 -1135.94 -280.38 0z"/>
    <path class="fil26 str17" d="M1545.63 10381.39c225.83,0 408.9,183.07 408.9,408.9 0,225.83 -183.07,408.9 -408.9,408.9 -225.83,0 -408.9,-183.07 -408.9,-408.9 0,-225.83 183.07,-408.9 408.9,-408.9z"/>
    <path class="fil6" d="M1545.63 10470.5c176.61,0 319.79,143.17 319.79,319.79 0,176.61 -143.17,319.79 -319.79,319.79 -176.61,0 -319.79,-143.17 -319.79,-319.79 0,-176.61 143.17,-319.79 319.79,-319.79z"/>
    <path class="fil26 str17" d="M4950.59 10381.39c225.83,0 408.9,183.07 408.9,408.9 0,225.83 -183.07,408.9 -408.9,408.9 -225.83,0 -408.9,-183.07 -408.9,-408.9 0,-225.83 183.07,-408.9 408.9,-408.9z"/>
    <path class="fil6" d="M4950.59 10470.5c176.61,0 319.79,143.17 319.79,319.79 0,176.61 -143.17,319.79 -319.79,319.79 -176.61,0 -319.79,-143.17 -319.79,-319.79 0,-176.61 143.17,-319.79 319.79,-319.79z"/>
   </g>
   <g id="_1834758658864">
    <path class="fil6" d="M1545.63 10470.5c176.61,0 319.79,143.17 319.79,319.79 0,176.61 -143.17,319.79 -319.79,319.79 -176.61,0 -319.79,-143.17 -319.79,-319.79 0,-176.61 143.17,-319.79 319.79,-319.79z"/>
    <path class="fil4" d="M1396.11 10601.38l132.02 0c7.54,0 13.72,6.17 13.72,13.72 3.02,1.78 5.12,4.56 6.11,7.68 4.74,-2.66 10.85,-2.35 15.33,1.24l82.16 65.96 76.4 -61.33 -147.46 0c-7.55,0 -13.72,-6.18 -13.72,-13.72l0 0c0,-7.55 6.18,-13.72 13.72,-13.72l172.76 0c7.55,0 13.72,6.17 13.72,13.72 4.72,5.89 3.78,14.57 -2.11,19.29l-91.39 73.37 79.75 64.01c5.89,4.73 6.83,13.41 2.11,19.3l0 0c-4.73,5.89 -13.41,6.84 -19.3,2.11l-84.48 -67.82 -70.52 56.61c-5.89,4.72 -14.57,3.78 -19.29,-2.11l0 0c-4.73,-5.89 -3.78,-14.57 2.11,-19.29l65.77 -52.8 -77.42 -62.15c-1.54,-1.24 -2.74,-2.74 -3.59,-4.39l-21.84 37.18c0.55,1.55 0.82,3.22 0.77,4.96l0 0c-0.21,6.61 -5.13,12.05 -11.42,13.17l-8.12 13.83c1.76,2.59 2.64,5.79 2.27,9.14l0 0c-0.82,7.39 -7.46,12.85 -14.84,12.25l-61.94 105.43c-3.82,6.5 -12.27,8.7 -18.77,4.87l0 0c-6.5,-3.82 -8.7,-12.27 -4.88,-18.77l55.6 -94.62 -112.15 -11.59 -10.17 16.54c-3.95,6.43 -12.44,8.45 -18.87,4.5l0 0c-6.42,-3.95 -8.45,-12.44 -4.5,-18.87l11.24 -18.27c0.47,-4.22 2.83,-7.81 6.15,-10l51.08 -83.06c3.01,-4.89 8.65,-7.23 14,-6.33zm364.76 13.54l0 0zm-286.26 87.54l3.89 -6.62 -88.85 -2.17 84.97 8.78zm19.78 -33.67l23.49 -39.97 -116.55 0 -22.85 37.15 115.91 2.83zm47.45 -53.69l0 0z"/>
    <path class="fil4" d="M1458.36 10812.77l158.8 0c6.94,0 12.61,5.68 12.61,12.61l0 0c0,6.94 -5.68,12.61 -12.61,12.61l-158.8 0c-6.94,0 -12.61,-5.67 -12.61,-12.61l0 0c0,-6.94 5.68,-12.61 12.61,-12.61zm149.15 149.15c9.83,0 17.81,-7.97 17.81,-17.81 0,-9.83 -7.97,-17.81 -17.81,-17.81 -9.83,0 -17.81,7.97 -17.81,17.81 0,9.84 7.98,17.81 17.81,17.81zm-146.93 0c9.84,0 17.81,-7.97 17.81,-17.81 0,-9.83 -7.97,-17.81 -17.81,-17.81 -9.83,0 -17.81,7.97 -17.81,17.81 0,9.84 7.97,17.81 17.81,17.81zm64.56 36.36l0 -112.05 -109.82 0c-6.94,0 -12.61,-5.67 -12.61,-12.61l0 0c0,-6.94 5.68,-12.61 12.61,-12.61l244.87 0c6.94,0 12.61,5.68 12.61,12.61l0 0c0,6.94 -5.68,12.61 -12.61,12.61l-109.82 0 0 112.05c0,6.94 -5.68,12.61 -12.61,12.61l0 0c-6.94,0 -12.61,-5.67 -12.61,-12.61z"/>
   </g>
   <g id="_1834758656176">
    <path class="fil6" d="M4950.59 10470.5c176.61,0 319.79,143.17 319.79,319.79 0,176.61 -143.17,319.79 -319.79,319.79 -176.61,0 -319.79,-143.17 -319.79,-319.79 0,-176.61 143.17,-319.79 319.79,-319.79z"/>
    <path class="fil4" d="M4801.07 10601.38l132.02 0c7.54,0 13.72,6.17 13.72,13.72 3.02,1.78 5.12,4.56 6.11,7.68 4.74,-2.66 10.85,-2.35 15.33,1.24l82.16 65.96 76.4 -61.33 -147.46 0c-7.55,0 -13.72,-6.18 -13.72,-13.72l0 0c0,-7.55 6.18,-13.72 13.72,-13.72l172.76 0c7.55,0 13.72,6.17 13.72,13.72 4.72,5.89 3.78,14.57 -2.11,19.29l-91.39 73.37 79.75 64.01c5.89,4.73 6.83,13.41 2.11,19.3l0 0c-4.73,5.89 -13.41,6.84 -19.3,2.11l-84.48 -67.82 -70.52 56.61c-5.89,4.72 -14.57,3.78 -19.29,-2.11l0 0c-4.73,-5.89 -3.78,-14.57 2.11,-19.29l65.77 -52.8 -77.42 -62.15c-1.54,-1.24 -2.74,-2.74 -3.59,-4.39l-21.84 37.18c0.55,1.55 0.82,3.22 0.77,4.96l0 0c-0.21,6.61 -5.13,12.05 -11.42,13.17l-8.12 13.83c1.76,2.59 2.64,5.79 2.27,9.14l0 0c-0.82,7.39 -7.46,12.85 -14.84,12.25l-61.94 105.43c-3.82,6.5 -12.27,8.7 -18.77,4.87l0 0c-6.5,-3.82 -8.7,-12.27 -4.88,-18.77l55.6 -94.62 -112.15 -11.59 -10.17 16.54c-3.95,6.43 -12.44,8.45 -18.87,4.5l0 0c-6.42,-3.95 -8.45,-12.44 -4.5,-18.87l11.24 -18.27c0.47,-4.22 2.83,-7.81 6.15,-10l51.08 -83.06c3.01,-4.89 8.65,-7.23 14,-6.33zm364.76 13.54l0 0zm-286.26 87.54l3.89 -6.62 -88.85 -2.17 84.97 8.78zm19.78 -33.67l23.49 -39.97 -116.55 0 -22.85 37.15 115.91 2.83zm47.45 -53.69l0 0z"/>
    <path class="fil4" d="M4863.31 10812.77l158.8 0c6.94,0 12.61,5.68 12.61,12.61l0 0c0,6.94 -5.68,12.61 -12.61,12.61l-158.8 0c-6.94,0 -12.61,-5.67 -12.61,-12.61l0 0c0,-6.94 5.68,-12.61 12.61,-12.61zm149.15 149.15c9.83,0 17.81,-7.97 17.81,-17.81 0,-9.83 -7.97,-17.81 -17.81,-17.81 -9.83,0 -17.81,7.97 -17.81,17.81 0,9.84 7.98,17.81 17.81,17.81zm-146.93 0c9.84,0 17.81,-7.97 17.81,-17.81 0,-9.83 -7.97,-17.81 -17.81,-17.81 -9.83,0 -17.81,7.97 -17.81,17.81 0,9.84 7.97,17.81 17.81,17.81zm64.56 36.36l0 -112.05 -109.82 0c-6.94,0 -12.61,-5.67 -12.61,-12.61l0 0c0,-6.94 5.68,-12.61 12.61,-12.61l244.87 0c6.94,0 12.61,5.68 12.61,12.61l0 0c0,6.94 -5.68,12.61 -12.61,12.61l-109.82 0 0 112.05c0,6.94 -5.68,12.61 -12.61,12.61l0 0c-6.94,0 -12.61,-5.67 -12.61,-12.61z"/>
   </g>
   <g id="sushi_0">
    <path class="fil14" d="M4347 9825.75c22.65,-9.75 33.97,-14.62 33.97,-14.62 57.75,17.8 84.75,53.02 81.01,105.63 -43.42,-8.78 -71.15,-29.75 -83.18,-62.93 0.24,53.26 -19.52,89.13 -59.31,107.59 -33.36,-34.48 -24.19,-79.7 27.51,-135.68z"/>
    <path class="fil15" d="M3654.98 9556.73c0.54,-26.82 0.81,-40.23 0.81,-40.23 146.13,-67.63 266.27,-68.78 360.43,-3.46 98.53,57.19 172.98,131.32 223.33,222.4 36.85,73.38 19.91,115.21 -50.82,125.5 -61.86,5.31 -92.79,7.96 -92.79,7.96 -23.98,6.26 -41.07,-23.32 -51.24,-88.76 -28.19,-117.96 -170.97,-204.12 -289.41,-177.77 -70.32,23.01 -103.76,7.8 -100.31,-45.63z"/>
    <path class="fil16" d="M4045.15 9530.68c84.31,54.51 149.12,122.74 194.43,204.69 0.02,0.03 0.03,0.06 0.04,0.09 25.96,51.69 61.76,81.77 107.4,90.23 22.64,-9.75 33.96,-14.62 33.96,-14.62 13.01,-14.31 17.11,-36.56 12.31,-66.74 -10.61,-71.8 -50.97,-133.15 -121.06,-184.06 -86.54,-69.42 -162.23,-79.28 -227.08,-29.59z"/>
    <g style="clip-path:url(#id5)">
     <g>
      <path id="1" class="fil7" d="M4061.52 9539.96c4.22,4.59 17.45,14.73 23.09,16.24l-1.48 3.9c20.98,-1.64 66.38,-24.64 70.54,-23.31 41.35,13.25 21.78,-6.52 79.59,11.2 2.2,-35.42 -7.19,-6.14 -38.6,-31.02 -10.74,-8.51 -75.37,4.06 -85.46,9.37 -17.55,9.24 -32.48,6.85 -47.69,13.61z"/>
      <path class="fil7" d="M4258.53 9661.89c13.57,19.39 55.1,18.07 59.95,10.37 10.64,-16.88 48.13,1.75 72.99,6.75l-27.59 -29.34c-64.67,-2.09 -40.56,7.65 -67.91,-29.22 -7.24,-9.76 -29.57,-3.55 -31.88,4.38 -8.94,30.8 -14.41,5.37 -48.85,16.05 -13.31,4.13 -26.16,-2.65 -25.93,27.01 6.7,5.3 -0.76,22.87 22.08,27.86 20.26,-10.7 27.15,-62.43 47.13,-33.87z"/>
      <path class="fil7" d="M4268.7 9594.48c14.85,-1.23 -18.72,-10.58 31.14,-0.42l0.83 -3.11 4.28 1.15c1.4,-10.7 -17.48,-17.36 -22.46,-19.95 -7,-1.88 -44.57,-6.15 -51.14,-3.93 -4.35,1.47 -15.33,-11.46 -28.88,0.41 -7.65,6.7 -5.67,-7.48 -12.88,0.79 -3.56,4.08 -14.09,-7.16 -19.91,1.06 -3.67,5.18 -6.33,-7.07 -10.42,8.19 -12.23,-1.26 -10.95,11.65 -20.69,14.09 -2.28,0.57 -4.06,1.6 -5.23,3.59 3.19,4.7 12,15.17 17.93,23.67 0.37,0.53 3.94,4.05 6.65,6.84l7.18 1.93c3.58,-2.45 7.31,-3.85 3.07,-9.66 -13.04,-17.93 4.55,-10.98 18.18,-22.92 15.62,-13.69 52.15,0.27 59.06,-4.31 12.13,-8.04 8.51,3.82 23.28,2.59z"/>
      <path class="fil7" d="M4294.39 9783.78c2.82,-4.91 109.04,-17.48 123.97,-19.22l1.51 -5.64 4.2 1.13c0.22,-0.55 0.45,-1.17 0.7,-2.07 4.57,-17.06 -5.67,-16.53 -12.67,-23.62 -38.62,-17.5 -39.8,-26.2 -78.55,-9.3 -8.4,3.67 -11.63,-1.41 -30.84,6.64 -31.66,13.27 -19.91,-4.4 -40.14,22.26 -4.67,6.16 -5.99,6.72 -11.39,10.72 2.15,2.11 5.9,14.96 9.59,22.41l5.54 1.48 -0.69 2.58c8.61,1.3 24.31,0.42 28.78,-7.37z"/>
     </g>
    </g>
    <path class="fil1" d="M4045.15 9530.68c84.31,54.51 149.12,122.74 194.43,204.69 0.02,0.03 0.03,0.06 0.04,0.09 25.96,51.69 61.76,81.77 107.4,90.23 22.64,-9.75 33.96,-14.62 33.96,-14.62 13.01,-14.31 17.11,-36.56 12.31,-66.74 -10.61,-71.8 -50.97,-133.15 -121.06,-184.06 -86.54,-69.42 -162.23,-79.28 -227.08,-29.59z"/>
    <path class="fil7" d="M3726.87 9610c-20.09,15.65 -20.69,27.35 -1.78,35.08 -9.72,15.98 -0.8,26.44 26.76,31.4 9.64,16.85 24.97,30.6 46,41.24 -3.97,16.3 4.24,21.63 24.64,15.98 8.47,18.94 22.98,27 43.54,24.17 -6.99,23.25 0.74,31.32 23.22,24.2 -7.48,26.23 10.28,36.72 53.31,31.48 18.33,31.72 33.84,39 46.51,21.84 20.33,13.18 31.09,9.03 32.26,-12.46 16.49,18.63 25.91,13.14 28.27,-16.46 -1.78,-8.01 -3.41,-16.79 -4.89,-26.32 -28.19,-117.96 -170.97,-204.12 -289.41,-177.77 -10.26,3.36 -19.74,5.9 -28.42,7.63z"/>
    <path class="fil7" d="M4344.45 9825.19c-31.29,-6.41 -57.89,-23.15 -79.78,-50.22l-12.15 -16.83 1.76 14.05c5.93,21.13 5.59,38.59 -0.99,52.38 1.63,15.11 11.18,19.67 28.66,13.68 13.58,16.47 24.81,16.35 33.7,-0.35 5.95,5.61 14.55,3.61 25.8,-5.99 0.57,-0.65 1.14,-1.3 1.72,-1.94l1.28 -4.77z"/>
   </g>
   <g id="_1834758650864">
    <path class="fil6" d="M2102.48 9930.28c-18.17,13.4 -31.72,36.11 -40.67,68.15 4.39,78.2 14.84,136.05 31.35,173.57 11.88,30.64 22.99,49.35 33.33,56.12 24.6,20.46 36.72,6.02 36.39,-43.34 -2.87,-27.45 -10.47,-51.9 -22.81,-73.36 56.16,-63.59 69.28,-103.72 39.35,-120.41 -12.81,-12.8 -30.37,1.37 -52.69,42.52 28.61,-49.56 42.41,-86.36 41.39,-110.43 10.06,-39.11 -11.82,-36.71 -65.63,7.19z"/>
    <path class="fil7" d="M2307.99 9955.85c-5.92,-21.81 -23.91,-14.83 -53.98,20.93 -5.41,-77.6 -11.92,-123.78 -19.5,-138.54 -3.79,-35.19 -12.03,-44.08 -24.71,-26.67 -27.09,30.13 -35.08,83.44 -23.98,159.92 10.56,49.98 26.65,85.36 48.25,106.13 56.36,-20.22 81,-60.81 73.92,-121.77z"/>
    <path class="fil6" d="M2292.78 9820.82c4.35,-196.08 128.59,-136.67 136.89,13.09 6.73,50.76 -12.96,87.56 -50.52,78.48 3.43,58.76 -8.13,82.79 -34.66,72.12 -30.92,-2.28 -48.15,-56.84 -51.7,-163.69z"/>
    <path class="fil7" d="M2432.73 9822.5c44.81,55.38 79.02,66.66 102.62,33.83 12.61,-18.31 17.69,-68.07 15.22,-149.29 -2.36,-85.31 -15.53,-118.33 -39.52,-99.07 -25.17,24.04 -35.95,56.94 -32.34,98.69 -54.13,-84 -82.3,-79.58 -84.54,13.25 18.72,21.56 33.97,57.44 38.56,102.59z"/>
    <path class="fil6" d="M2613.27 9525.64c36.97,-0.43 57.44,31.8 61.4,96.67 8.95,102.48 -7.14,155.19 -48.27,158.13 -40.01,6.48 -65.82,-36.62 -77.43,-129.28 -10.96,-83.15 10.47,-124.99 64.31,-125.52z"/>
    <path class="fil7" d="M2782.78 9602.91c11.95,-15.28 21.93,-33.44 29.94,-54.5 26.24,-67.88 11.79,-96.13 -43.35,-84.76 -64.52,19.5 -98.39,52.19 -101.61,98.05 6.86,15.5 11.08,36.22 12.67,62.16 7.56,18.57 16.15,39.36 25.76,62.35 12.42,36.15 25.23,47.06 38.43,32.71 15.43,-37.29 9.98,-63.92 -16.35,-79.88 0,0 8.3,-6.04 24.91,-18.1 -2.41,16.07 4.33,32.03 20.2,47.89 26.97,28.74 45.68,33.75 56.14,15.04 4.2,-31.63 -11.37,-58.62 -46.74,-80.95z"/>
   </g>
   <polyline class="fil1 str1" points="1086.33,9529.66 1070.34,9529.66 1038.34,9545.48 1038.34,9988.59 1070.34,10004.41 1086.33,10020.24 "/>
  </g>
  <g id="legs">
   <path class="fil7" d="M170.28 5865.53l662.72 0 0 2587.16 -662.72 0 0 -2587.16zm764.68 0l649.98 0 0 2587.16 -649.98 0 0 -2587.16z"/>
   <g id="legs_1">
    <path class="fil49" d="M170.28 7057.19l662.72 0 0 777.42 -662.72 0 0 -777.42zm764.68 0l649.98 0 0 777.42 -649.98 0 0 -777.42z"/>
    <path class="fil50" d="M170.28 6343.5l662.72 0 0 713.7 -662.72 0 0 -713.7zm764.68 0l649.98 0 0 713.7 -649.98 0 0 -713.7z"/>
    <path class="fil1 str0" d="M1011.43 7171.89l497.04 0m-1248.97 0l497.04 0m-497.04 -637.23l497.04 0m254.89 0l497.04 0m-1248.97 1299.95l497.04 0m254.89 0l497.04 0"/>
    <path class="fil5" d="M170.28 7057.19l662.72 0 0 777.42 -662.72 0 0 -777.42zm764.68 0l649.98 0 0 777.42 -649.98 0 0 -777.42z"/>
    <path class="fil51" d="M170.28 7605.21l662.72 0 0 229.4 -662.72 0 0 -229.4zm764.68 0l649.98 0 0 229.4 -649.98 0 0 -229.4z"/>
    <path class="fil6" d="M170.28 7605.21l662.72 0 0 229.4 -662.72 0 0 -229.4zm764.68 0l649.98 0 0 229.4 -649.98 0 0 -229.4z"/>
    <path class="fil1 str14" d="M1011.43 7171.89l497.04 0m-1248.97 0l497.04 0m-497.04 -637.23l497.04 0m254.89 0l497.04 0m-1248.97 1299.95l497.04 0m254.89 0l497.04 0"/>
    <g>
     <path class="fil52" d="M297.43 6656.26c-95.25,1.54 6.31,135.18 304.69,400.93 -134.3,-282.89 -235.86,-416.54 -304.69,-400.93z"/>
     <path class="fil52" d="M711.83 6658.2c80,-18.91 43.42,114.08 -109.71,398.99 10.12,-264.41 46.69,-397.41 109.71,-398.99z"/>
    </g>
    <g>
     <path class="fil26" d="M1470.21 6656.26c95.25,1.54 -6.31,135.18 -304.69,400.93 134.3,-282.89 235.86,-416.54 304.69,-400.93z"/>
     <path class="fil26" d="M1055.81 6658.2c-80,-18.91 -43.42,114.08 109.71,398.99 -10.12,-264.41 -46.69,-397.41 -109.71,-398.99z"/>
    </g>
    <g>
     <rect class="fil26" transform="matrix(1.1325 0.572922 -0.5 0.758839 239.819 6050.41)" width="497.04" height="53"/>
     <rect class="fil26" transform="matrix(1.1325 -0.572922 0.5 0.758839 213.317 6335.17)" width="497.04" height="53"/>
    </g>
    <g>
     <rect class="fil3" transform="matrix(1.1325 0.572922 -0.5 0.758839 991.752 6050.41)" width="497.04" height="53"/>
     <rect class="fil3" transform="matrix(1.1325 -0.572922 0.5 0.758839 965.25 6335.17)" width="497.04" height="53"/>
    </g>
    <path class="fil1 str14" d="M756.54 5948.41l-76.46 0c25.49,-63.72 38.23,-178.42 -89.21,-178.42l-101.96 0c-127.45,0 -114.7,114.7 -89.21,178.42l-140.19 0 0 2434.22 140.19 0c-50.98,101.96 0,191.17 89.21,203.91l101.96 0c89.21,0 127.44,-101.96 89.21,-203.91l76.46 0 0 -2434.22zm254.89 0l76.47 0c-25.49,-63.72 -38.24,-178.42 89.21,-178.42l101.96 0c127.44,0 114.7,114.7 89.21,178.42l140.19 0 0 2434.22 -140.19 0c50.98,101.96 0,191.17 -89.21,203.91l-101.96 0c-89.21,0 -127.45,-101.96 -89.21,-203.91l-76.47 0 0 -2434.22z"/>
   </g>
  </g>
  <g id="jug_2">
   <g id="_1834758670960">
    <path class="fil42" d="M7294.98 10609.33l-0.16 442.8c165.72,172.91 312.65,179.54 440.77,19.88 74.7,17.94 123.12,-63.06 140.23,-169.95l0.72 -4.69c0.39,-2.58 0.76,-5.19 1.11,-7.8 0.32,-2.38 0.62,-4.76 0.91,-7.14 0.32,-2.64 0.63,-5.29 0.91,-7.96l0.52 -5c0.39,-4.05 0.76,-8.11 1.07,-12.21l0.03 -0.33 0.02 -0.24c5.12,-68.67 -1.69,-143.24 -21.55,-207.17 -5.07,-15.98 -11.06,-31.67 -17.96,-46.98 -39.1,-84.09 -106.91,-136.15 -207.1,-103.96 -189.67,-83.27 -302.84,-46.35 -339.51,110.74z"/>
    <path class="fil43" d="M7681.67 10596.41c8.55,-59.07 18.5,-89.78 60.16,-68.56 183.02,107.42 103.8,626.54 -5.39,468.25 -42.77,-93.4 -92.04,-172.37 -54.77,-399.69z"/>
    <path class="fil44" d="M7679.87 10609.33c-20.79,127.96 -17.43,276.31 56.56,375.05 26.19,-17.92 1.48,3 18.2,-30.92 16.55,-33.57 2.53,-161.62 -7.52,-182.84 -12.87,-27.18 -44.05,-187.87 -67.25,-161.3z"/>
    <path class="fil45" d="M7697.09 10754.43c-14.59,-7.6 -20.32,-21.13 -17.22,-40.58l169.15 -93.8c6.26,15.69 11.58,31.72 15.96,48.02 -105.28,52.4 -167.89,86.36 -167.89,86.36z"/>
    <path class="fil45" d="M7719.22 10883.55c0,-25.42 0,-38.12 0,-38.12l163.06 -9.44c-0.61,15.63 -1.87,31.22 -3.76,46.74l-159.3 0.83z"/>
   </g>
   <path class="fil1 str0" d="M7294.98 10609.32c-66.05,-47.42 -150.95,-15.81 -150.95,110.63l0 237.07c9.44,110.63 75.47,142.25 150.95,94.83l0 -442.53z"/>
  </g>
 </g>
</svg>
