<?xml version="1.0" encoding="UTF-8"?>
<!DOCTYPE svg PUBLIC "-//W3C//DTD SVG 1.1//EN" "http://www.w3.org/Graphics/SVG/1.1/DTD/svg11.dtd">
<!-- Creator: CorelDRAW 2019 (64-Bit) -->
<svg xmlns="http://www.w3.org/2000/svg" xml:space="preserve" width="8.26772in" height="11.6929in" version="1.1" style="shape-rendering:geometricPrecision; text-rendering:geometricPrecision; image-rendering:optimizeQuality; fill-rule:evenodd; clip-rule:evenodd"
viewBox="0 0 8267.72 11692.91"
 xmlns:xlink="http://www.w3.org/1999/xlink">
 <defs>
  <style type="text/css">
   <![CDATA[
    .str6 {stroke:#373435;stroke-width:29.53;stroke-miterlimit:2.61313}
    .str3 {stroke:#373435;stroke-width:7.87;stroke-miterlimit:2.61313}
    .str4 {stroke:#373435;stroke-width:7.87;stroke-miterlimit:2.61313}
    .str8 {stroke:#FFD727;stroke-width:7.87;stroke-miterlimit:2.61313}
    .str5 {stroke:#373435;stroke-width:6.94;stroke-miterlimit:2.61313}
    .str7 {stroke:#96989A;stroke-width:3;stroke-miterlimit:2.61313}
    .str2 {stroke:#373435;stroke-width:3;stroke-miterlimit:2.61313}
    .str1 {stroke:black;stroke-width:3;stroke-miterlimit:2.61313}
    .str0 {stroke:#EF0085;stroke-width:3;stroke-miterlimit:2.61313}
    .fil0 {fill:none}
    .fil4 {fill:#FEFEFE}
    .fil3 {fill:#727376}
    .fil9 {fill:#606062}
    .fil2 {fill:#4B4B4D}
    .fil6 {fill:#373435}
    .fil10 {fill:#796655}
    .fil7 {fill:#8C7764}
    .fil13 {fill:#DDB097}
    .fil12 {fill:#F6BFC2}
    .fil5 {fill:#FEF2DC}
    .fil14 {fill:#FFAAB6}
    .fil11 {fill:#FFD727}
    .fil1 {fill:#FFFE77}
    .fil8 {fill:white}
   ]]>
  </style>
 </defs>
 <g id="Layer_x0020_1">
  <metadata id="CorelCorpID_0Corel-Layer"/>
  <rect class="fil0" x="-2.81" y="0.21" width="8267.72" height="11692.91"/>
  <g id="body">
   <path class="fil1" d="M6542.59 9695.33l1414.65 484.3 0 -1593.08 -522.53 -904.87 -76.47 12.74 -140.19 -76.47 -25.49 25.49 -216.66 -127.44 0 -38.23 -497.04 -293.13 -38.23 25.49 -216.66 -127.45 0 -50.98 -127.44 -76.47 -25.49 -76.47 -1121.53 -12.74 267.64 1554.84 484.3 12.74 548.02 318.62 114.7 191.17c-101.96,25.49 -152.94,89.21 -178.43,203.91l0 382.34c38.23,178.43 140.19,267.64 356.85,165.68z"/>
   <path class="fil0 str0" d="M6478.86 7184.64l-38.23 25.49 -216.66 -127.45 0 -50.98m994.08 586.25l-25.49 25.49 -216.66 -127.44 0 -38.23m89.21 2281.28l0 25.49 0 25.49 420.57 140.19 12.75 -12.74 12.74 -25.49"/>
   <path class="fil0 str1" d="M7880.77 10064.93l-382.34 -127.44m-433.32 -152.93l-535.28 -178.43m-254.89 -981.34l1083.29 -930.35m-1261.72 -739.19l127.44 76.47m254.89 152.93l497.04 293.13m242.15 140.19l140.19 76.47 509.78 917.61 -1338.19 458.81m-713.7 -713.7l280.38 -1401.91 -1045.06 -12.74m63.72 407.83l76.47 420.57m1618.56 -1580.33l879.38 522.53"/>
   <line class="fil0 str2" x1="6274.95" y1="8624.78" x2="5816.04" y2= "8356.91" />
   <line class="fil0 str2" x1="6274.95" y1="8624.78" x2="5816.14" y2= "8357.15" />
   <polygon class="fil2 str3" points="6886.15,8099.88 5973.04,7572.69 5955.39,7660.93 6817.61,8158.74 "/>
   <polygon class="fil2 str3" points="6275.21,8624.75 6386.5,7909.83 6198.92,8580.43 "/>
   <polygon class="fil2 str3" points="5816.15,8357.15 6385.91,7911.96 5891.09,8400.72 "/>
   <polygon class="fil2 str4" points="6292.94,7123.26 6429.6,7836.28 6364.94,7165.61 "/>
   <polygon class="fil2 str4" points="7115.43,7598.12 6429.59,7836.28 7042.75,7556.94 "/>
   <polygon class="fil3 str5" points="6429.6,7836.28 7042.75,7556.94 7115.44,7598.09 6975.91,7516 6975.9,7477.77 6478.87,7184.64 6440.63,7210.13 6364.94,7165.61 "/>
   <polygon class="fil4 str3" points="6032.5,8261.93 6385.91,7911.96 6253.09,8389.29 "/>
   <polygon class="fil5" points="6032.5,8261.93 6253.09,8389.29 6198.92,8580.43 5891.09,8400.72 "/>
   <line class="fil0 str6" x1="6275.41" y1="8402.17" x2="6009.59" y2= "8248.7" />
   <path class="fil0 str3" d="M6381.55 7338c128.43,-68.21 221.5,-35.58 279.21,97.9"/>
   <path class="fil4 str5" d="M6885.15 7628.75c-5.14,-145.32 -79.94,-209.61 -224.39,-192.85 -57.72,-133.48 -150.79,-166.11 -279.2,-97.9l48.04 498.29 333.79 -152.07 121.76 -55.47z"/>
   <path class="fil0 str6" d="M6763.39 7684.22c-58.48,-181.61 -180.98,-252.34 -367.5,-212.18"/>
   <path class="fil0 str3" d="M6885.15 7628.75c-5.14,-145.32 -79.94,-209.61 -224.39,-192.85"/>
   <path class="fil2 str4" d="M6400.05 7819.22l0.45 0.03 24.44 -460.26 -94.28 -5.01 -19.24 362.2c-23.99,-29.81 -39.54,-64.13 -45.67,-92.33 -10,-26 -80.91,-33.09 -125.26,-19.38l-0.2 0.07 1 -0.3c-0.82,0.25 -1.61,0.53 -2.35,0.83 -0.67,0.28 -1.3,0.57 -1.89,0.87l-0.04 0.02c-4.97,2.56 -7.76,6.43 -8.35,11.61 -0.14,3.74 0.38,7.63 1.56,11.65 0.85,2.65 2.02,5.48 3.52,8.52l-1.27 -2.37 0.21 0.46c51.85,97.49 126.39,176.74 223.65,237.73 -0.54,0.67 -1.09,1.35 -1.65,2.03 17.78,25.08 47.7,42.35 78.31,45.21 0.32,-0.83 0.63,-1.67 0.94,-2.49 100.79,53.38 205.96,78.35 315.53,74.91 19.94,-1.3 28.37,-8.98 25.28,-23.04 -10.77,-45.59 -53.22,-104.34 -80.08,-98.75 -30.74,11.88 -55.71,10.94 -103.34,7l304.57 -198.09 -51.48 -79.15 -386.38 251.3 0.35 0.54c-20.74,-8.42 -40.37,-19.78 -58.01,-33.56 0,0 -0.02,0.02 -0.05,0.06 -0.09,-0.09 -0.19,-0.19 -0.29,-0.29zm58.35 33.79l0.06 0.09 0.21 0.33 -0.05 0.14 -0.06 0.17 0 0 -0.07 0.19 -0.09 0.22 0 0 -0.09 0.25 -0.1 0.28 -0.12 0.3 -0.13 0.33 -0.14 0.36 -0.15 0.39 0 0 -0.16 0.41 -0.17 0.44 0 0 -0.18 0.47 0 0 -0.19 0.5 -0.2 0.53 -0.21 0.55 -0.22 0.58 0 0 -0.23 0.61 0 0 -0.24 0.64 -0.25 0.67 0 0 -0.26 0.69 0 0 -0.28 0.72 -0.29 0.75 -0.3 0.78 -0.31 0.8 0 0 -0.31 0.83 0 0 -0.33 0.86 -0 0 -0.33 0.89 0 0 -0.35 0.92 -0.36 0.94 0 0 -0.37 0.97 0 0 -0.38 1 0 0 -0.39 1.03 -0.4 1.06 0 0 -0.41 1.08 0 0 -0.42 1.11 -0.43 1.14 0 0 -0.44 1.17 0 0 -0.46 1.19 0 0 -0.46 1.22 0 0 -0.48 1.25 0 0 -0.49 1.28 0 0 -0.5 1.3 0 0 -0.51 1.33 0 0 -0.52 1.36 0 0 -0.53 1.39 -0.54 1.42 -0.55 1.44 -0.56 1.47 -0.57 1.5 0 0 -0.58 1.53 -0.59 1.56 0 0 -0.6 1.58 -0.61 1.61 0 0 -0.63 1.64 0 0 -0.63 1.67 0 0 -0.65 1.69 -0.66 1.72 -0.67 1.75 -0.68 1.78 -0.69 1.81 -0.7 1.83 -0.71 1.86 -0.72 1.89 24.72 -64.87 -0.28 -0.43z"/>
   <path class="fil0 str4" d="M6354.7 7875.58c31.1,-37.23 45.8,-56.33 45.8,-56.33"/>
   <path class="fil6 str4" d="M6694.61 7871.43c-0.85,0.25 -1.71,0.49 -2.56,0.74l-0.13 0.05 0 -0.01c-76.24,21.39 -172.78,-3.8 -233.56,-19.56 157.68,67.63 239.86,80.2 250.56,37.17 1.08,-14.48 -1.13,-19.7 -14.23,-18.41l-0.07 0.02z"/>
   <path class="fil6 str4" d="M6265.76 7623.84c0.21,0.86 0.43,1.72 0.65,2.59l0.02 0.14 0.01 -0.01c19.6,76.72 89.68,147.73 133.72,192.48 -137.41,-102.74 -189.39,-167.62 -157.47,-198.4 12,-8.17 17.62,-8.88 23.06,3.12l0.02 0.07z"/>
   <polygon class="fil2 str3" points="7280.63,8813.44 6886.15,8099.88 6817.61,8158.74 7198.94,8841.44 "/>
   <path class="fil0 str1" d="M6529.84 9606.12c-76.46,89.21 -254.89,63.72 -267.63,-89.21l0 -356.85c12.74,-152.94 191.17,-191.17 267.63,-89.21l-254.89 -446.06c38.23,114.7 -89.21,254.89 -216.66,165.68l-318.62 -178.43c-101.96,-63.72 -50.98,-242.15 76.47,-254.89l-535.28 -12.74 -89.21 -573.51c-89.21,63.72 -191.17,50.98 -216.66,-50.98l-38.23 -242.15c-12.74,-101.96 63.72,-165.68 178.43,-127.45l-63.72 -407.83 0 -203.91 535.28 -382.34 293.13 12.74 0 446.06 216.66 140.19 548.02 -904.87 25.49 25.49 254.89 -178.43 968.59 573.51 -38.24 293.13 38.24 25.49 -535.28 904.87 229.4 127.44 395.09 -216.66 140.19 254.89 -76.47 649.98 -178.43 101.96 12.75 1452.89 -318.62 178.43 -892.12 -305.87 -140.19 -331.36z"/>
   <polygon class="fil2 str3" points="7290.16,9951.21 7280.63,8813.44 7198.06,8841.74 7204.67,9922 "/>
   <polygon class="fil2 str3" points="5973.04,7572.69 5070.76,7559.28 5085.99,7655.43 5955.39,7660.93 "/>
  </g>
  <g id="legs">
   <path class="fil4" d="M170.28 5865.53l662.72 0 0 2587.16 -662.72 0 0 -2587.16zm764.68 0l649.98 0 0 2587.16 -649.98 0 0 -2587.16z"/>
   <path class="fil7" d="M170.28 7057.19l662.72 0 0 777.42 -662.72 0 0 -777.42zm764.68 0l649.98 0 0 777.42 -649.98 0 0 -777.42z"/>
   <path class="fil8" d="M170.28 6343.5l662.72 0 0 713.7 -662.72 0 0 -713.7zm764.68 0l649.98 0 0 713.7 -649.98 0 0 -713.7z"/>
   <path class="fil0 str1" d="M1011.43 7171.89l497.04 0m-1248.97 0l497.04 0m-497.04 -637.23l497.04 0m254.89 0l497.04 0m-1248.97 1299.95l497.04 0m254.89 0l497.04 0"/>
   <path class="fil9" d="M170.28 7057.19l662.72 0 0 777.42 -662.72 0 0 -777.42zm764.68 0l649.98 0 0 777.42 -649.98 0 0 -777.42z"/>
   <path class="fil10" d="M170.28 7605.21l662.72 0 0 229.4 -662.72 0 0 -229.4zm764.68 0l649.98 0 0 229.4 -649.98 0 0 -229.4z"/>
   <path class="fil2" d="M170.28 7605.21l662.72 0 0 229.4 -662.72 0 0 -229.4zm764.68 0l649.98 0 0 229.4 -649.98 0 0 -229.4z"/>
   <rect class="fil9 str3" x="170.28" y="6534.67" width="662.72" height="76.31"/>
   <rect class="fil9 str3" x="934.96" y="6534.67" width="649.98" height="76.31"/>
   <path class="fil0 str7" d="M756.54 5948.41l-76.46 0c25.49,-63.72 38.23,-178.42 -89.21,-178.42l-101.96 0c-127.45,0 -114.7,114.7 -89.21,178.42l-140.19 0 0 2434.22 140.19 0c-50.98,101.96 0,191.17 89.21,203.91l101.96 0c89.21,0 127.44,-101.96 89.21,-203.91l76.46 0 0 -2434.22zm254.89 0l76.47 0c-25.49,-63.72 -38.24,-178.42 89.21,-178.42l101.96 0c127.44,0 114.7,114.7 89.21,178.42l140.19 0 0 2434.22 -140.19 0c50.98,101.96 0,191.17 -89.21,203.91l-101.96 0c-89.21,0 -127.45,-101.96 -89.21,-203.91l-76.47 0 0 -2434.22z"/>
   <path class="fil0 str7" d="M1011.43 7171.89l497.04 0m-1248.97 0l497.04 0m-497.04 -637.23l497.04 0m254.89 0l497.04 0m-1248.97 1299.95l497.04 0m254.89 0l497.04 0"/>
  </g>
  <g id="arm">
   <polygon class="fil5" points="501.65,3100 501.65,914.3 1164.37,914.3 1164.37,3100 "/>
   <polygon class="fil5" points="501.65,3100 501.65,5285.7 1164.37,5285.7 1164.37,3100 "/>
   <polygon class="fil1" points="495.61,3100 495.61,3343.68 401.9,4240.93 495.61,4240.93 1158.33,4240.93 1264.11,4240.93 1158.33,3293.54 1158.33,3100 1158.33,2906.45 1264.11,1959.07 1158.33,1959.07 495.61,1959.07 401.9,1959.07 495.61,2856.31 "/>
   <polygon class="fil2" points="407.94,4240.93 1270.15,4240.93 1249.74,4058.13 427.03,4058.13 "/>
   <path class="fil0 str7" d="M590.86 4903.36l497.04 0m-497.04 -1516.61l497.04 0"/>
   <polygon class="fil2" points="501.65,4903.36 1164.37,4903.36 1164.37,4654.22 501.65,4654.22 "/>
   <line class="fil0 str3" x1="407.94" y1="4240.93" x2="1270.15" y2= "4240.93" />
   <polygon class="fil5" points="590.86,4334.13 1087.9,4334.13 1164.37,4334.13 1280.56,4334.13 1270.15,4240.93 1177.11,4240.93 1164.37,4240.93 501.65,4240.93 407.94,4240.93 398.2,4334.13 501.65,4334.13 "/>
   <polygon class="fil0 str7" points="590.86,5234.72 743.79,5030.8 833,5234.72 934.96,5030.8 1087.9,5234.72 1087.9,4242.24 1177.11,4240.93 1087.9,3386.75 1087.9,3100 1087.9,2813.24 1177.11,1959.07 1087.9,1957.76 1087.9,965.28 934.96,1169.19 833,965.28 743.79,1169.19 590.86,965.28 590.86,1958.54 501.65,1959.07 590.86,2813.24 590.86,3100 590.86,3386.75 501.65,4240.93 590.86,4241.46 "/>
   <polygon class="fil2" points="407.94,1959.07 1270.15,1959.07 1249.74,2141.87 427.03,2141.87 "/>
   <path class="fil0 str7" d="M590.86 1296.63l497.04 0m-497.04 1516.61l497.04 0"/>
   <polygon class="fil2" points="501.65,1296.63 1164.37,1296.63 1164.37,1545.77 501.65,1545.77 "/>
   <line class="fil0 str3" x1="407.94" y1="1959.07" x2="1270.15" y2= "1959.07" />
   <polygon class="fil5" points="590.86,1865.86 1087.9,1865.86 1164.37,1865.86 1280.56,1865.86 1270.15,1959.07 1177.11,1959.07 1164.37,1959.07 501.65,1959.07 407.94,1959.07 398.2,1865.86 501.65,1865.86 "/>
  </g>
  <g id="head">
   <g>
    <path class="fil5" d="M4618.15 6254.28l0 -1236.22c12.74,-1554.84 -12.75,-1758.76 -522.53,-1898.95l-1695.04 0c-446.06,127.44 -522.53,191.17 -522.53,1898.95l0 1236.22 2740.09 0z"/>
    <path class="fil11" d="M2833.91 4431.81c0,0 0,0 0,0 0,191.17 -76.47,344.1 -165.68,344.1 0,0 0,0 0,0 -89.21,0 -178.43,-152.93 -178.43,-344.1 0,0 0,0 0,0 0,-191.17 89.21,-344.11 178.43,-344.11 0,0 0,0 0,0 89.21,0 165.68,152.94 165.68,344.11zm1172.5 0c0,0 0,0 0,0 0,191.17 -76.47,344.1 -165.68,344.1 0,0 0,0 0,0 -101.96,0 -178.42,-152.93 -178.42,-344.1 0,0 0,0 0,0 0,-191.17 76.46,-344.11 178.42,-344.11 0,0 0,0 0,0 89.21,0 165.68,152.94 165.68,344.11z"/>
    <path class="fil12" d="M2489.8 4763.17c0,50.98 -76.46,101.96 -152.93,101.96 0,0 0,0 0,0 0,0 0,0 0,0 -89.21,0 -152.94,-50.98 -152.94,-101.96 0,-50.98 63.72,-89.21 152.94,-89.21 0,0 0,0 0,0 0,0 0,0 0,0 76.47,0 152.93,38.24 152.93,89.21zm1809.73 0c0,50.98 -63.72,101.96 -152.93,101.96 0,0 0,0 0,0 0,0 0,0 0,0 -63.72,0 -127.44,-50.98 -127.44,-101.96 0,-50.98 63.72,-89.21 127.44,-89.21 0,0 0,0 0,0 0,0 0,0 0,0 89.21,0 152.93,38.24 152.93,89.21z"/>
    <path class="fil13" d="M1878.06 6254.28l599 0 12.74 -25.49 356.85 0 12.74 25.49 790.17 0 12.75 -25.49 356.85 0 12.74 25.49 586.25 0 0 3045.96 1287.2 0 0 1975.42 -1287.2 0c-38.24,407.83 -458.81,407.83 -700.95,76.47l89.21 -38.24 -203.91 -165.68c331.36,-25.49 318.61,-140.19 331.36,-790.17 -662.72,-114.7 -1108.78,-76.47 -1758.76,0 0,802.91 25.49,764.67 318.61,790.17 -63.72,63.72 -127.44,140.19 -191.17,178.43l89.21 25.49c-242.15,331.36 -675.46,318.61 -713.7,-76.47l-1299.95 0 0 -1975.42 1287.21 0 12.74 -3045.96z"/>
    <path class="fil0 str1" d="M4541.69 8076.76l-2587.15 0m2077.37 -1822.48l509.78 0m-1682.29 0l790.17 0m-1695.03 0l522.53 0m2064.63 -1236.22l-2587.15 0m2587.15 662.72l0 -344.11m-3874.36 4728.25l0 -688.21m548.02 1822.48l-548.02 0 0 -688.21m1210.74 688.21l-280.38 0m356.85 -1822.48l0 1822.48m2587.15 0l0 -1822.48m344.1 1822.48l-267.63 0m1210.74 -688.21l0 688.21 -560.76 0m101.96 -1822.48l458.81 0 0 675.46m-5161.57 -675.46l458.81 0m369.59 0l458.81 0 2587.15 0 446.06 0m-3033.21 -815.65l0 356.85m2587.15 -356.85l0 356.85m-1618.56 -5722.33l152.93 0 -152.93 0zm509.78 0l140.19 0 -140.19 0zm-1478.37 2141.09l0 344.11 0 -344.11zm0 1618.56l0 433.32 0 -433.32zm2587.15 0l0 433.32 0 -433.32z"/>
    <path class="fil0 str1" d="M3777.01 10230.6c25.49,-89.21 25.49,-203.91 0,-356.85 89.21,101.96 140.19,242.15 152.93,369.59l267.63 50.98c-12.74,624.48 0,892.12 -216.65,917.61 76.47,63.72 140.19,76.47 203.91,63.72 -38.23,63.72 -76.46,89.21 -140.19,114.7 114.7,140.19 497.04,242.15 497.04,-191.17l76.47 0 305.87 280.38 904.87 0 0 -280.38 280.38 -178.43 0 -1452.89 -280.38 -191.17 0 -280.38 -981.33 0 -305.87 280.38 0 -458.8c89.21,38.23 191.17,12.74 191.17,-76.47l0 -191.17c0,-101.96 -101.96,-127.45 -191.17,-89.21l0 -1172.5c76.47,38.23 178.43,25.49 191.17,-89.21l0 -254.89c0,-114.7 -101.96,-127.44 -191.17,-89.21l0 -1274.46c76.47,38.23 178.43,38.23 191.17,-76.47l0 -191.17c0,-89.21 -89.21,-127.44 -191.17,-76.47l0 -318.61 -12.74 -1172.5c0,-305.87 -165.68,-649.98 -446.06,-649.98l-509.78 0 0 -649.98 -89.21 0 0 76.47 -458.81 0 0 -76.47 -101.96 0 0 649.98 -497.04 0c-293.13,0 -458.81,344.1 -458.81,649.98l-12.74 1172.5 0 318.61c-101.96,-50.98 -191.17,-12.74 -203.91,76.47l0 191.17c25.49,114.7 114.7,114.7 203.91,76.47l0 1274.46c-89.21,-38.23 -191.17,-25.49 -203.91,89.21l0 254.89c25.49,114.7 127.44,127.44 203.91,89.21l0 1172.5c-89.21,-38.24 -203.91,-12.74 -203.91,89.21l0 191.17c12.74,89.21 101.96,114.7 203.91,76.47l0 458.8 -305.87 -280.38 -981.34 0 0 280.38 -280.38 191.17 0 1452.89 280.38 178.43 0 280.38 904.87 0 305.87 -280.38 76.47 0c0,433.32 382.34,331.36 497.04,191.17 -50.98,-25.49 -101.96,-50.98 -140.19,-114.7 63.72,12.74 140.19,0 203.91,-63.72 -216.66,-25.49 -216.66,-293.13 -216.66,-917.61l267.64 -50.98c25.49,-127.44 76.47,-267.63 165.68,-369.59 -25.49,152.94 -38.24,267.64 0,356.85 356.85,-38.23 713.7,-38.23 1045.06,0l0 0z"/>
    <path class="fil0 str0" d="M680.07 10052.18l-12.75 0 -25.49 12.74 0 433.32 25.49 12.74 12.75 12.74m5136.07 -471.55l12.74 0 25.49 12.74 0 433.32 -25.49 12.74 -12.74 12.74m-930.36 662.72l0 12.74 12.74 25.49 356.85 0 12.74 -25.49 12.74 -12.74m-3670.44 0l-12.74 12.74 -12.74 25.49 -344.11 0 -25.49 -25.49 0 -12.74m293.13 -1784.24l0 -25.49 -12.74 -25.49 -356.85 0 -12.74 25.49 -12.74 25.49m3874.36 0l0 -25.49 12.75 -25.49 356.85 0 12.74 25.49 0 25.49m-2294.03 -6206.63l89.21 89.21 178.43 0 89.21 -89.21m203.91 3084.19l12.74 -25.49 12.75 -25.49 356.85 0 12.74 25.49 0 25.49m-1567.59 0l12.74 -25.49 12.74 -25.49 356.85 0 12.74 25.49 0 25.49m764.68 -637.23c0,0 0,0 0,0 0,203.91 -165.68,356.85 -369.59,356.85 0,0 0,0 0,0 -203.91,0 -369.59,-152.93 -369.59,-356.85 0,0 0,0 0,0 0,0 0,0 0,0 0,-203.91 165.68,-369.59 369.59,-369.59 0,0 0,0 0,0 203.91,0 369.59,165.68 369.59,369.59 0,0 0,0 0,0z"/>
   </g>
   <polyline class="fil0 str0" points="2753.26,7210.34 2740.51,7210.34 2715.02,7222.95 2715.02,7575.97 2740.51,7588.57 2753.26,7601.18 "/>
   <polyline class="fil0 str0" points="3749.7,7210.34 3762.44,7210.34 3787.94,7222.95 3787.94,7575.97 3762.44,7588.57 3749.7,7601.18 "/>
   <polyline class="fil0 str0" points="3446.89,6897.17 3446.89,6884.43 3434.29,6858.94 3081.27,6858.94 3068.66,6884.43 3056.06,6897.17 "/>
   <polyline class="fil0 str0" points="3446.89,7893.62 3446.89,7906.36 3434.29,7931.85 3081.27,7931.85 3068.66,7906.36 3056.06,7893.62 "/>
   <path class="fil1" d="M2126.29 10479.66c107.81,-374.6 297.43,-874.12 527.81,-1102.95 -358.78,230.46 -534.71,598.12 -527.81,1102.95z"/>
   <path class="fil1" d="M4385.59 10479.66c-107.81,-374.6 -297.43,-874.12 -527.81,-1102.95 358.78,230.46 534.71,598.12 527.81,1102.95z"/>
   <path class="fil1" d="M2349.87 11471.67c-120.13,-173.83 -264.59,-424.87 -281.49,-600.08 -26.49,229.63 67.34,429.66 281.49,600.08z"/>
   <path class="fil1" d="M4136.7 11456.32c120.13,-173.83 264.59,-424.87 281.49,-600.08 26.49,229.63 -67.34,429.66 -281.49,600.08z"/>
   <path class="fil1" d="M994.03 10064.92c107.81,374.6 297.43,874.12 527.81,1102.95 -358.78,-230.46 -534.71,-598.12 -527.81,-1102.95z"/>
   <path class="fil1" d="M1775.6 9432.7c-128.06,107.85 -290.81,269.67 -340.24,400.08 27.6,-181.07 141.02,-314.43 340.24,-400.08z"/>
   <path class="fil1" d="M5442.07 10042.12c-107.81,374.6 -297.43,874.12 -527.81,1102.95 358.78,-230.46 534.71,-598.12 527.81,-1102.95z"/>
   <path class="fil1" d="M4954.83 9437.54c102.46,132.42 227.46,324.89 248.3,462.8 11.17,-182.81 -71.59,-337.08 -248.3,-462.8z"/>
   <path class="fil1" d="M3755.35 8455.5c102.46,132.42 227.46,324.89 248.3,462.8 11.17,-182.81 -71.59,-337.08 -248.3,-462.8z"/>
   <path class="fil1" d="M2810.21 8455.5c-102.46,132.42 -227.46,324.89 -248.3,462.8 -11.17,-182.81 71.59,-337.08 248.3,-462.8z"/>
   <path class="fil1" d="M4416.25 6401.92c-107.81,374.6 -297.43,874.12 -527.81,1102.95 358.78,-230.46 534.71,-598.12 527.81,-1102.95z"/>
   <path class="fil1" d="M2020.99 7152.56c149.35,213.22 377.46,487.61 572.61,582.17 -276.6,-67.75 -467.47,-261.8 -572.61,-582.17z"/>
   <path class="fil1" d="M2862.09 6276.31c-102.46,132.42 -227.46,324.89 -248.3,462.8 -11.17,-182.81 71.59,-337.08 248.3,-462.8z"/>
   <path class="fil1" d="M2801.07 4636.1c-87.45,-37.41 -186.43,-37.32 -273.82,0.26 34.27,84.86 87.63,139.56 140.98,139.56 53.41,0 102.24,-54.81 132.85,-139.81z"/>
   <path class="fil4" d="M2668.23 4087.7c14.57,109.22 22,212.11 22.32,324.27 48.7,1.13 96.42,13.41 143.15,21.23 -47.18,6.16 -94.91,19.26 -143.19,20.21 -0.69,109.29 -8.11,210.43 -22.28,322.5 -17.59,-113.06 -26.9,-214.18 -27.93,-322.45 -49.59,-0.87 -99.76,-13.98 -150.49,-20.26 51.11,-7.78 101.25,-20.06 150.41,-21.22 0.21,-113.34 9.54,-216.23 28.02,-324.28z"/>
   <path class="fil1" d="M3975.14 4631.68c-93.58,-32.15 -186.93,-31.44 -280.02,2.13 31.75,86.31 84.03,142.1 145.61,142.1 54.33,0 103.93,-56.71 134.41,-144.23z"/>
   <path class="fil4" d="M3840.73 4087.7c14.57,109.22 22,212.11 22.32,324.27 48.7,1.13 96.42,13.41 143.15,21.23 -47.18,6.16 -94.91,19.26 -143.19,20.21 -0.69,109.29 -8.11,210.43 -22.28,322.5 -17.59,-113.06 -26.9,-214.18 -27.93,-322.45 -49.59,-0.87 -99.76,-13.98 -150.49,-20.26 51.11,-7.78 101.25,-20.06 150.41,-21.22 0.21,-113.34 9.54,-216.23 28.02,-324.28z"/>
   <g>
    <path class="fil14" d="M3031.47 4695.22c0,127.85 95.89,207.76 223.74,207.76 111.87,0 207.76,-79.91 207.76,-207.76 0,-47.94 -431.5,-47.94 -431.5,0z"/>
   </g>
   <g>
    <path class="fil1 str8" d="M1545.63 10381.39c225.83,0 408.9,183.07 408.9,408.9 0,225.83 -183.07,408.9 -408.9,408.9 -225.83,0 -408.9,-183.07 -408.9,-408.9 0,-225.83 183.07,-408.9 408.9,-408.9z"/>
   </g>
   <g>
    <path class="fil2" d="M1545.63 10470.5c176.61,0 319.79,143.17 319.79,319.79 0,176.61 -143.17,319.79 -319.79,319.79 -176.61,0 -319.79,-143.17 -319.79,-319.79 0,-176.61 143.17,-319.79 319.79,-319.79z"/>
   </g>
   <g>
    <path class="fil1 str8" d="M4950.59 10381.39c225.83,0 408.9,183.07 408.9,408.9 0,225.83 -183.07,408.9 -408.9,408.9 -225.83,0 -408.9,-183.07 -408.9,-408.9 0,-225.83 183.07,-408.9 408.9,-408.9z"/>
   </g>
   <g>
    <path class="fil2" d="M4950.59 10470.5c176.61,0 319.79,143.17 319.79,319.79 0,176.61 -143.17,319.79 -319.79,319.79 -176.61,0 -319.79,-143.17 -319.79,-319.79 0,-176.61 143.17,-319.79 319.79,-319.79z"/>
   </g>
  </g>
  <g id="hair">
   <polygon class="fil13" points="6783.82,3374.65 5665.82,3374.65 5665.82,2658.17 4899.17,2658.17 4899.17,1493.16 5658.3,1493.16 5661.32,771.6 6783.82,771.6 "/>
   <path class="fil0 str1" d="M4951.77 1944.14l0 -405.88m323.21 1074.83l-323.21 0 0 -405.89m714.05 405.89l-165.36 0m210.44 -1074.83l0 1074.83m-759.13 -1074.83l270.58 0m217.98 0l270.57 0 1072.92 0m-1072.92 -481.05l0 210.47"/>
   <path class="fil0 str1" d="M6783.82 771.6l-144.2 0 -352.56 0 -147.72 0 -428.43 0 0 285.61c-52.61,-22.55 -120.24,-7.5 -120.24,52.63l0 112.74c7.5,52.61 60.12,67.64 120.24,45.1l0 270.57 -180.39 -165.36 -578.75 0 0 368.3 0 11.69 0 21.48 0 21.52 0 21.54 0 21.59 0 21.63 0 21.65 0 21.7 0 5.88c-52.6,-37.79 -120.26,-12.59 -120.26,88.14l0 188.86c7.52,88.16 60.13,113.32 120.26,75.56l0 147.72 0 368.29 533.66 0 180.39 -165.35 45.08 0 1072.92 0 0 -1841.48z"/>
   <path class="fil0 str0" d="M5507.98 2605.56l-7.52 7.52 -7.52 15.03 -202.94 0 -15.02 -15.03 0 -7.52m172.87 -1052.28l0 -15.03 -7.52 -15.04 -210.46 0 -7.52 15.04 -7.51 15.03"/>
   <polygon class="fil13" points="6783.82,1538.26 5710.91,1538.26 5658.31,1490.04 5661.32,771.6 6783.82,771.6 "/>
   <path class="fil0 str1" d="M5710.91 1538.26l1072.92 0m-1072.92 -481.05l0 210.47"/>
   <path class="fil0 str1" d="M6783.82 771.6l-1072.92 0 0 285.61c-52.61,-22.55 -120.24,-7.5 -120.24,52.63l0 112.74c7.5,52.61 60.12,67.64 120.24,45.1l0 270.57 1072.92 0 0 -766.65z"/>
   <path class="fil13" d="M6783.82 3359.62l-73.25 0 -7.52 15.02 80.77 0 0 -15.02zm-546.78 15.02l-7.52 -15.02 -210.45 0 -7.52 15.02 225.49 0z"/>
   <path class="fil0 str1" d="M6011.56 3374.65l-300.65 0m992.15 0l-466.01 0m-526.14 -338.22l-0 -202.95"/>
   <path class="fil0 str1" d="M5710.91 3374.65l0 -338.22c-45.09,22.54 -105.22,22.54 -112.74,-45.1l0 -112.75c0,-52.62 52.62,-75.16 112.74,-45.1l0 -220.4 1072.92 0 0 761.56 -68.11 0 -652.78 0 -352.02 0z"/>
   <path class="fil0 str1" d="M6423.8 3374.65c37.78,52.62 12.59,120.26 -88.13,120.26l-188.87 0c-88.14,-7.52 -113.33,-60.13 -75.55,-120.26l352.56 0z"/>
   <g>
    <polygon class="fil13" points="6828.92,771.6 6828.92,1493.16 7588.06,1493.16 7588.06,2658.17 6828.92,2658.17 6828.92,3374.65 6783.82,3374.65 6783.82,771.6 "/>
    <path class="fil0 str1" d="M6986.76 2613.08l-157.83 0m714.04 -405.89l0 405.89 -330.72 0m60.13 -1074.83l270.59 0 0 398.35m-759.13 -398.35l263.07 0"/>
    <path class="fil0 str1" d="M6828.92 2613.08l180.38 165.35 533.66 0 0 -368.29 0 -147.72c60.13,37.76 112.74,12.6 120.26,-75.56l0 -188.86c0,-100.74 -67.65,-125.93 -120.26,-88.14l0 -5.88 0 -21.7 0 -21.65 0 -21.63 0 -21.59 0 -21.54 0 -21.52 0 -21.48 0 -11.69 0 -368.3 -578.75 -0 -180.39 165.36 0 1074.83 45.1 0zm-45.1 -1345.4c52.61,22.54 112.74,7.5 112.74,-45.1l0 -112.74c0,-60.13 -60.12,-75.18 -112.74,-52.63l0 210.47z"/>
    <path class="fil0 str0" d="M6986.76 2605.56l0 7.53 7.5 15.03 210.47 0 7.51 -15.03 7.54 -7.52m-172.89 -1052.27l0 -15.03 7.5 -15.04 210.47 0 7.51 15.04 0 15.03"/>
    <g>
     <polygon class="fil13" points="6828.92,771.6 6828.92,1493.16 6833.02,1493.16 6783.82,1538.26 6783.82,771.6 "/>
     <path class="fil0 str1" d="M6783.82 1267.68c52.61,22.54 112.74,7.5 112.74,-45.1l0 -112.74c0,-60.13 -60.12,-75.18 -112.74,-52.63l0 210.47z"/>
    </g>
    <polygon class="fil0 str1" points="6783.82,2833.48 6783.82,3036.43 "/>
    <path class="fil0 str1" d="M6783.82 2833.48c60.11,-30.06 112.74,-7.52 120.25,45.1l0 112.76c-15.03,67.63 -67.64,67.63 -120.25,45.09l0 -202.95z"/>
   </g>
   <path class="fil0 str1" d="M6423.8 771.6c37.78,-52.62 12.59,-120.26 -88.13,-120.26l-188.87 0c-88.14,7.52 -113.33,60.13 -75.55,120.26l352.56 0z"/>
   <path class="fil1" d="M5082.87 2103.19c142.77,87.47 347.68,190.81 487.03,196.55 -180.52,30.97 -342.87,-34.55 -487.03,-196.55z"/>
   <path class="fil1" d="M5966.3 2817.08c54.62,120.2 142.81,278.22 231.31,343.53 -131.59,-59.52 -208.7,-174.02 -231.31,-343.53z"/>
   <path class="fil1" d="M7464.49 2275.25c-80.87,-104.36 -203.13,-237.79 -304.3,-280.92 141.78,27.56 243.2,121.2 304.3,280.92z"/>
   <path class="fil1" d="M6604.13 1214.22c-53.09,-120.88 -139.28,-280.01 -226.94,-346.43 130.83,61.18 206.48,176.65 226.94,346.43z"/>
   <path class="fil1" d="M6341.1 1703.07c-80.37,-46.87 -195.46,-101.8 -272.95,-103.3 99.91,-19.39 190.9,15.04 272.95,103.3z"/>
   <path class="fil1" d="M6110.8 2498.79c-82.99,-42.06 -191.6,-108.89 -234.93,-173.15 37.96,94.43 116.27,152.15 234.93,173.15z"/>
   <path class="fil1" d="M6273.86 2351.91c115.96,46.72 279.66,97.43 382.98,84.38 -129.09,45.17 -256.75,17.05 -382.98,-84.38z"/>
   <rect class="fil1 str8" x="4951.77" y="1538.25" width="217.93" height="119.43" rx="56.09" ry="59.71"/>
   <rect class="fil9 str3" x="4951.77" y="1657.68" width="217.93" height="119.43" rx="56.09" ry="59.71"/>
   <rect class="fil1 str8" x="4951.77" y="1777.1" width="217.93" height="119.43" rx="56.09" ry="59.71"/>
   <rect class="fil9 str3" x="4951.77" y="1896.53" width="217.93" height="119.43" rx="56.09" ry="59.71"/>
   <rect class="fil1 str8" x="4951.77" y="2015.95" width="217.93" height="119.43" rx="56.09" ry="59.71"/>
   <rect class="fil9 str3" x="4951.77" y="2135.38" width="217.93" height="119.43" rx="56.09" ry="59.71"/>
   <rect class="fil1 str8" x="4951.77" y="2254.81" width="217.93" height="119.43" rx="56.09" ry="59.71"/>
   <rect class="fil9 str3" x="4951.77" y="2374.23" width="217.93" height="119.43" rx="56.09" ry="59.71"/>
   <rect class="fil1 str8" x="4951.77" y="2493.66" width="217.93" height="119.43" rx="56.09" ry="59.71"/>
   <rect class="fil1 str8" x="7325.03" y="1538.25" width="217.93" height="119.43" rx="56.09" ry="59.71"/>
   <rect class="fil9 str3" x="7325.03" y="1657.68" width="217.93" height="119.43" rx="56.09" ry="59.71"/>
   <rect class="fil1 str8" x="7325.03" y="1777.1" width="217.93" height="119.43" rx="56.09" ry="59.71"/>
   <rect class="fil9 str3" x="7325.03" y="1896.53" width="217.93" height="119.43" rx="56.09" ry="59.71"/>
   <rect class="fil1 str8" x="7325.03" y="2015.95" width="217.93" height="119.43" rx="56.09" ry="59.71"/>
   <rect class="fil9 str3" x="7325.03" y="2135.38" width="217.93" height="119.43" rx="56.09" ry="59.71"/>
   <rect class="fil1 str8" x="7325.03" y="2254.81" width="217.93" height="119.43" rx="56.09" ry="59.71"/>
   <rect class="fil9 str3" x="7325.03" y="2374.23" width="217.93" height="119.43" rx="56.09" ry="59.71"/>
   <rect class="fil1 str8" x="7325.03" y="2493.66" width="217.93" height="119.43" rx="56.09" ry="59.71"/>
   <rect class="fil9 str3" transform="matrix(2.64845E-14 1 -1.06461 2.81958E-14 6785.73 3156.72)" width="217.93" height="112.18" rx="56.09" ry="56.09"/>
   <rect class="fil1 str8" transform="matrix(2.64845E-14 1 -1.06461 2.81958E-14 6666.31 3156.72)" width="217.93" height="112.18" rx="56.09" ry="56.09"/>
   <rect class="fil9 str3" transform="matrix(2.64845E-14 1 -1.06461 2.81958E-14 6546.88 3156.72)" width="217.93" height="112.18" rx="56.09" ry="56.09"/>
   <rect class="fil1 str8" transform="matrix(2.64845E-14 1 -1.06461 2.81958E-14 6427.46 3156.72)" width="217.93" height="112.18" rx="56.09" ry="56.09"/>
   <rect class="fil9 str3" transform="matrix(2.64845E-14 1 -1.06461 2.81958E-14 6308.03 3156.72)" width="217.93" height="112.18" rx="56.09" ry="56.09"/>
   <rect class="fil1 str8" transform="matrix(2.64845E-14 1 -1.06461 2.81958E-14 6188.61 3156.72)" width="217.93" height="112.18" rx="56.09" ry="56.09"/>
   <rect class="fil9 str3" transform="matrix(2.64845E-14 1 -1.06461 2.81958E-14 6069.18 3156.72)" width="217.93" height="112.18" rx="56.09" ry="56.09"/>
   <rect class="fil1 str8" transform="matrix(2.64845E-14 1 -1.06461 2.81958E-14 5949.76 3156.72)" width="217.93" height="112.18" rx="56.09" ry="56.09"/>
   <rect class="fil9 str3" transform="matrix(2.64845E-14 1 -1.06461 2.81958E-14 5830.33 3156.72)" width="217.93" height="112.18" rx="56.09" ry="56.09"/>
   <rect class="fil9 str3" transform="matrix(2.64845E-14 1 -1.06461 2.81958E-14 6785.73 771.602)" width="217.93" height="112.18" rx="56.09" ry="56.09"/>
   <rect class="fil1 str8" transform="matrix(2.64845E-14 1 -1.06461 2.81958E-14 6666.31 771.602)" width="217.93" height="112.18" rx="56.09" ry="56.09"/>
   <rect class="fil9 str3" transform="matrix(2.64845E-14 1 -1.06461 2.81958E-14 6546.88 771.602)" width="217.93" height="112.18" rx="56.09" ry="56.09"/>
   <rect class="fil1 str8" transform="matrix(2.64845E-14 1 -1.06461 2.81958E-14 6427.46 771.602)" width="217.93" height="112.18" rx="56.09" ry="56.09"/>
   <rect class="fil9 str3" transform="matrix(2.64845E-14 1 -1.06461 2.81958E-14 6308.03 771.602)" width="217.93" height="112.18" rx="56.09" ry="56.09"/>
   <rect class="fil1 str8" transform="matrix(2.64845E-14 1 -1.06461 2.81958E-14 6188.61 771.602)" width="217.93" height="112.18" rx="56.09" ry="56.09"/>
   <rect class="fil9 str3" transform="matrix(2.64845E-14 1 -1.06461 2.81958E-14 6069.18 771.602)" width="217.93" height="112.18" rx="56.09" ry="56.09"/>
   <rect class="fil1 str8" transform="matrix(2.64845E-14 1 -1.06461 2.81958E-14 5949.76 771.602)" width="217.93" height="112.18" rx="56.09" ry="56.09"/>
   <rect class="fil9 str3" transform="matrix(2.64845E-14 1 -1.06461 2.81958E-14 5830.33 771.602)" width="217.93" height="112.18" rx="56.09" ry="56.09"/>
  </g>
 </g>
</svg>
